<?xml version="1.0" encoding="utf-8"?>
<!-- Generator: Adobe Illustrator 27.5.0, SVG Export Plug-In . SVG Version: 6.00 Build 0)  -->
<svg version="1.1" xmlns="http://www.w3.org/2000/svg" xmlns:xlink="http://www.w3.org/1999/xlink" x="0px" y="0px"
	 viewBox="0 0 500 500" style="enable-background:new 0 0 500 500;" xml:space="preserve">
<g id="BACKGROUND">
	<rect x="-0.005" y="0.005" style="fill:#FFFFFF;" width="500.009" height="499.99"/>
</g>
<g id="OBJECTS">
	<g>
		<ellipse style="fill:#CCD7F3;" cx="246.824" cy="389.992" rx="201.221" ry="17.497"/>
		<g>
			<g>
				<path style="fill:#ECECF0;" d="M155.645,166.037c1.662,1.171,1.985,3.656,5.092,4.29c-3.102,0.754-3.531,3.15-5.057,4.54
					c-0.057-0.292-0.113-0.585-0.17-0.877c-0.115-0.224-0.23-0.448-0.344-0.672c0,0,0.065-0.023,0.064-0.023
					c-0.43-1.402-1.305-2.311-2.804-2.53c-0.057-0.262-0.115-0.525-0.173-0.787c2.192-0.413,3.225-1.821,3.397-3.965
					L155.645,166.037z"/>
				<path style="fill:#ECECF0;" d="M250.762,53.215c-2.327,0.762-3.067,2.508-3.902,4.378c-0.355-2.037-1.249-3.482-3.291-4.321
					c1.796-0.971,3.008-2.243,3.291-4.69C247.599,50.893,248.62,52.404,250.762,53.215z"/>
				<path style="fill:#ECECF0;" d="M191.439,103.855c0.202-0.428,0.715-0.869-0.054-1.253c1.127-0.825,1.691-1.997,2.098-3.943
					c0.729,2.248,1.63,3.775,3.918,4.516c-2.183,0.909-3.215,2.263-3.778,4.891C193.082,105.996,192.52,104.753,191.439,103.855z"/>
				<path style="fill:#ECECF0;" d="M188.771,279.185c0.571,2.606,2.384,4.012,5.241,5.06c-3.632,1.089-5.052,3.714-6.008,7.06
					c-0.283-1.504-0.457-2.648-1.117-3.633c-0.637-1.449-1.991-1.906-3.312-2.42c-0.552-0.214-0.865-0.726-0.86-1.24
					c0.009-1.046,0.746-0.239,1.126-0.368c2.79-0.944,3.612-3.325,4.168-6.195C188.351,278.229,188.561,278.707,188.771,279.185z"/>
				<path style="fill:#ECECF0;" d="M218.792,141.293c-3.29,0.755-4.272,3.414-5.088,6.287c-0.665-1.522-0.636-3.263-2.007-4.352
					c-0.272-0.298-0.543-0.597-0.813-0.896c-0.446-0.582-1.03-0.907-1.765-0.955c-0.491-0.158-0.982-0.315-1.474-0.473l0.081-0.139
					c0,0-0.131-0.095-0.132-0.096c0.506-0.152,1.013-0.302,1.52-0.452c0.939-0.088,1.635-0.589,2.205-1.303
					c0.19-0.257,0.38-0.514,0.57-0.77c0,0-0.027,0.062-0.027,0.061c0.21-0.367,0.421-0.734,0.631-1.101c0,0-0.056,0.05-0.056,0.049
					c0.553-0.486,0.677-1.133,0.683-1.824c0.151-0.313,0.302-0.625,0.514-1.063c0.764,1.364,0.681,3.189,2.268,4.001l0.038,0.039
					C216.06,140.093,218.706,139.472,218.792,141.293z"/>
				<path style="fill:#ECECF0;" d="M293.125,100.529c-0.278,0.436-0.605,0.85-0.821,1.316c-0.215,0.465-0.319,0.981-0.595,1.877
					c-0.985-2.123-1.248-4.353-3.332-5.327c-0.26-0.392-0.646-0.488-1.085-0.459c0,0,0.044,0.028,0.044,0.028
					c0.518-0.519-2.18-0.36-0.236-1.263c1.921-0.892,3.377-2.271,3.494-4.598c0.475-0.147,0.605-0.49,0.537-0.945
					c0.348-0.01,0.781-0.074,0.867,0.37c0.587,3.023,2.802,4.548,5.295,5.829C295.515,97.905,294.331,99.231,293.125,100.529z"/>
				<path style="fill:#ECECF0;" d="M173.571,248.998c-0.451-0.138-0.749-0.401-0.749-0.91c3.314-0.385,4.336-2.921,5.297-6.197
					c1.023,3.337,2.455,5.735,6.173,6.501c-3.415,1.15-5.231,2.967-5.692,5.953c-0.663,0.508-0.663,0.508-1.105-0.757
					C177.115,251.265,175.827,249.718,173.571,248.998z"/>
				<path style="fill:#ECECF0;" d="M291.057,186.881c-2.672,0.837-3.26,3.231-4.16,5.73c-1.579-2.523-1.827-6.106-5.938-6.244
					c3.591-1.071,5.235-3.417,5.802-7.376c1.055,3.61,2.279,6.279,5.755,6.841C292.03,186.18,291.543,186.531,291.057,186.881z"/>
				<path style="fill:#ECECF0;" d="M212.538,219.656c-0.311,0.726-0.623,1.452-1.031,2.406c-0.659-3.183-1.92-5.686-5.652-6.674
					c1.786-0.748,3.246-1.233,3.998-2.633c1.07-1.027,1.171-2.492,1.75-4.052c0.825,3.119,2.272,5.474,5.63,6.606
					C214.954,216.354,213.214,217.483,212.538,219.656z"/>
				<path style="fill:#ECECF0;" d="M244.038,201.172c-2.466,1.055-3.594,2.569-4.348,5.265c-0.706-2.621-1.585-4.324-4.373-5.169
					c2.738-0.961,3.838-2.537,4.345-4.736C240.345,198.682,241.475,200.282,244.038,201.172z"/>
				<path style="fill:#ECECF0;" d="M283.643,140.431c-0.155,0.542-0.585,0.804-1.047,1.031c-1.718,0.688-2.131,2.418-2.984,3.839
					c-0.278-0.401-0.519-0.75-0.76-1.099c-0.111-1.921-1.638-2.554-3.363-3.455c2.438-0.887,3.766-2.452,3.892-4.871
					c0.089-0.084,0.159-0.181,0.213-0.291C280.16,137.857,281.04,139.864,283.643,140.431z"/>
				<path style="fill:#ECECF0;" d="M333.91,235.819c1.211-0.946,0.884-2.628,1.836-3.919c0.658,3.219,2.207,5.529,5.679,6.523
					c-2.779,1.12-4.727,2.694-5.254,5.524c-0.417,1.133-0.819,1.126-1.047-0.06c-0.537-2.799-2.287-4.451-5.04-5.343
					C331.55,237.763,333.168,237.381,333.91,235.819z"/>
				<path style="fill:#ECECF0;" d="M314.378,267.001c-2.743,0.994-3.772,2.59-4.617,5.104c-0.73-2.424-1.619-4.185-4.347-4.983
					c2.608-0.912,3.814-2.476,4.266-5.506C310.499,264.431,311.455,266.173,314.378,267.001z"/>
				<path style="fill:#ECECF0;" d="M192.413,183.357c-2.522,0.905-3.582,2.697-4.386,5.273c-0.525-2.72-1.61-4.492-4.418-5.27
					c2.813-0.777,3.946-2.454,4.391-5.128C188.841,180.662,189.895,182.472,192.413,183.357z"/>
				<path style="fill:#ECECF0;" d="M287.785,221.979c2.017-0.953,3.385-2.006,3.737-4.136c0.764,1.764,1.672,3.201,3.806,3.93
					c-1.99,0.996-3.109,2.256-3.704,4.84C290.934,224.085,290.169,222.455,287.785,221.979z"/>
				<path style="fill:#ECECF0;" d="M229.235,284.505c0,0,0.004,0.009,0.004,0.008c-1.949,0.48-2.857,1.946-3.587,4.638
					c-0.546-2.563-1.305-4.078-3.644-4.76c1.947-0.957,3.118-2.133,3.657-3.99C226.276,282.388,227.849,283.362,229.235,284.505z"/>
				<path style="fill:#ECECF0;" d="M248.438,159.597c0.819,2.089,1.632,3.54,4.262,4.179c-2.516,0.731-3.472,2.132-4.176,4.247
					c-0.84-1.857-1.429-3.568-4.258-4.068C246.818,163.175,247.778,161.804,248.438,159.597z"/>
				<path style="fill:#ECECF0;" d="M251.704,332.363c-0.482-1.694-2.588-1.845-3.225-3.392c2.512-0.48,3.397-2.289,3.78-4.78
					c0.959,2.124,1.741,4.225,4.71,5.018c-2.668,0.94-3.712,2.62-4.472,4.889C252.12,333.275,251.912,332.819,251.704,332.363z"/>
				<path style="fill:#ECECF0;" d="M256.305,257.218c-0.151,0.399-0.302,0.798-0.665,1.76c-0.783-3.581-2.039-6.227-6.204-6.996
					c3.988-0.829,5.482-3.144,6.235-6.329c0.862,3.001,2.488,5.232,5.411,6.305c-0.046,0.075-0.083,0.158-0.141,0.223
					c-0.058,0.065-0.137,0.113-0.206,0.167C258.288,253.086,256.932,254.821,256.305,257.218z"/>
				<path style="fill:#ECECF0;" d="M342.414,205.52c0.032-2.433-2.25-3.149-3.459-4.662c2.473-0.326,3.127-2.266,3.803-4.513
					c0.833,2.101,1.681,3.951,4.369,4.775c-2.755,0.862-2.697,3.496-4.384,4.75c-0.019,0.014-0.131-0.074-0.182-0.131
					C342.502,205.675,342.462,205.594,342.414,205.52z"/>
				<path style="fill:#ECECF0;" d="M304.199,312.41c-0.481-2.994-1.594-4.66-4.268-5.516c2.674-0.788,3.823-2.441,4.264-5.236
					c0.771,2.602,1.863,4.367,4.456,5.224C306.048,307.86,304.967,309.617,304.199,312.41z"/>
				<g>
					<path style="fill:#CCD7F3;" d="M173.251,152.581c1.651-0.571,1.173-2.699,2.544-3.475c0.765-1.187,1.898-1.805,3.241-2.099
						c-0.062-0.937-1.059-0.844-1.501-1.363c-2.515-1.029-3.018-3.478-3.944-6.207c-0.569,3.878-2.113,6.363-6.211,7.253
						C171.158,147.549,172.812,149.523,173.251,152.581z"/>
					<path style="fill:#CCD7F3;" d="M142.108,210.759c-0.261,0.598-0.432,0.988-0.602,1.378c-0.482,1.721-1.872,2.521-3.499,3.253
						c2.886,0.38,3.118,3.062,4.524,4.645c0.279-1.481,0.726-2.857,2.227-3.578c0.172-0.14,0.344-0.28,0.516-0.42
						c0.378-0.154,0.757-0.309,1.136-0.463c-0.075-0.244-0.15-0.489-0.226-0.732C143.666,214.769,143.392,212.289,142.108,210.759z"
						/>
					<path style="fill:#CCD7F3;" d="M229.165,74.641c0.94-2.292,1.962-4.101,4.685-5.076c-2.871-0.748-3.872-2.56-4.64-5.019
						c-0.635,2.535-1.512,4.408-4.142,5.102C227.683,70.266,228.419,72.267,229.165,74.641z"/>
					<path style="fill:#CCD7F3;" d="M188.277,108.184c0.607-2.248,1.417-3.682,3.162-4.329c0.202-0.428,0.715-0.869-0.054-1.253
						c-2.076-0.638-2.468-2.609-3.382-4.46c-0.492,2.394-1.427,4.258-3.861,5.126C186.561,104.012,187.196,106.016,188.277,108.184z
						"/>
					<path style="fill:#CCD7F3;" d="M335.125,243.886c-0.537-2.799-2.287-4.451-5.04-5.343c1.465-0.78,3.083-1.163,3.825-2.724
						c-2.862-5.662-6.188-10.963-11.173-15.068c-7.897-6.504-16.984-9.791-27.146-10.281c-0.62-0.03-1.238-0.095-1.856-0.143
						c-4.769,0.297-9.526,0.508-14.214,1.701c-4.976,1.267-9.927,2.593-14.689,4.5c-9.246,3.702-18.289,8.04-28.223,9.643
						c-8.935,1.441-17.495,0.998-24.071-6.514c-0.311,0.726-0.623,1.452-1.031,2.406c-0.659-3.183-1.92-5.686-5.651-6.674
						c1.786-0.748,3.246-1.233,3.998-2.633c-1.681-11.074,5.909-23.072,16.457-26.017c10.231-2.856,19.974,6.002,18.083,16.442
						c-0.79,4.364-3.991,6.142-8.103,4.472c-1.492-0.606-2.874-1.416-4.126-2.447c-1.124-0.926-2.281-1.81-3.784-2.998
						c0.204,2.29,0.978,3.798,1.642,5.331c3.364,7.767,8.349,10.968,16.787,10.46c7.682-0.462,14.07-3.922,19.688-9.021
						c7.425-6.739,10.91-15.259,10.367-25.089c-0.376-6.82-3.02-13.161-6.788-18.937c-6.805-10.431-16.017-17.836-27.747-22.078
						c-7.74-2.111-15.594-2.517-23.538-1.579c-3.29,0.755-4.272,3.414-5.088,6.287c-0.665-1.522-0.636-3.263-2.005-4.353
						c-0.5,0.1-1,0.2-1.5,0.3c-2.105,0.889-4.21,1.778-6.314,2.668c-0.571,0.319-1.142,0.639-1.713,0.958
						c-1.37,0.791-2.74,1.581-4.11,2.372l-0.078-0.046c-0.206,0.448-0.507,0.736-1.047,0.626l0.007,0.05
						c-0.191,0.832-0.902,1.093-1.554,1.419c-0.981,0.858-1.961,1.716-2.942,2.574c-2.107,2.353-4.215,4.706-6.322,7.06
						c-0.15,0.172-0.299,0.345-0.449,0.517c-1.971,3.602-3.942,7.204-5.912,10.806c0.012,0.152-0.035,0.284-0.139,0.396
						c-0.504,1.662-1.006,3.326-1.915,4.828c-0.089,0.355-0.179,0.709-0.268,1.064c-0.169,1.121-0.409,2.22-1.01,3.205
						c-0.067,0.364-0.134,0.727-0.202,1.091c-0.132,0.532-0.265,1.064-0.397,1.597c-0.114,0.367-0.228,0.733-0.342,1.1
						c-0.582,4.03-1.386,8.042-1.699,12.092c-0.583,7.535,0.267,14.945,2.785,22.118c0.14,0.368,0.28,0.736,0.421,1.104l0.14,0.178
						l-0.147,0.144c-0.155,0.107-0.31,0.214-0.465,0.321c0.178,1.304,1.96,1.237,2.157,2.524c1.775,2.508,3.551,5.015,5.326,7.523
						c1.092,0.887,2.21,1.743,3.27,2.665c10.258,8.919,21.981,13.482,35.727,12.061c1.548-0.581,3.308-0.047,4.801-0.916
						c0.377-0.082,0.754-0.163,1.131-0.245c0.358-0.047,0.717-0.095,1.075-0.142c1.771-0.579,3.543-1.158,5.314-1.737
						c0.369-0.147,0.738-0.294,1.107-0.441c0.147-0.099,0.308-0.157,0.484-0.173c7.658-3.137,15.294-6.334,23.805-6.253
						c12.409,0.118,22.672,9.59,23.757,21.976c0.792,9.039-6.046,16.781-15.118,17.256c-5.875,0.308-11.29-1.292-16.487-3.756
						c-4.823-2.286-9.55-4.774-14.319-7.173c-0.19-0.14-0.379-0.279-0.569-0.419l0.016,0.041c-0.725-0.08-1.291-0.394-1.597-1.087
						c-1.364,0.029-2.587-0.404-3.716-1.142c-0.539-0.178-1.078-0.356-1.616-0.534c-0.27-0.156-0.54-0.312-0.81-0.468
						c-0.448-0.045-0.896-0.091-1.344-0.136l-0.249,0.036l-0.246-0.047c-1.183,0.097-2.164-0.555-3.233-0.877
						c-0.978-0.06-1.961-0.075-2.933-0.188c-8.06-0.941-15.344,1.115-22.071,5.538c-5.16,3.392-8.527,8.25-11.416,13.533
						c0.571,2.606,2.384,4.012,5.241,5.06c-3.632,1.089-5.052,3.714-6.008,7.06c-0.283-1.504-0.457-2.648-1.117-3.633
						c-0.889,6.627,0.12,12.948,3.172,18.905c3.759,7.334,9.521,11.686,17.985,12.15c4.859,0.266,9.562-0.6,14.28-1.491
						c5.235-0.989,10.428-2.279,15.811-2.206c6.744-0.841,13.279-0.2,19.599,2.481c10.669,4.526,14.647,14.653,9.904,25.256
						c-1.83,4.091-4.679,7.539-6.906,11.375c0.157,0.153,0.314,0.306,0.471,0.459c16.896-8.848,20.231-27.422,12.625-41.691
						c-3.289-6.17-9.11-8.624-15.395-10.349c-6.593-1.81-13.481-2.386-19.938-4.778c-2.434-0.902-4.777-1.932-6.673-3.764
						c-2.745-2.652-4.397-5.612-2.581-9.507c-1.95,0.482-2.858,1.948-3.587,4.64c-0.546-2.563-1.305-4.078-3.644-4.76
						c1.947-0.957,3.118-2.133,3.657-3.99c0.611,1.987,2.184,2.96,3.57,4.104c4.11-4.891,9.338-5.62,15.39-4.79
						c7.562,1.038,13.63,4.833,19.741,8.944c4.219,2.838,8.197,6.062,12.869,8.257c3.59,1.687,7.336,2.639,11.168,3.417
						c9.601,0.247,18.779-1.648,27.582-5.448c9.48-4.092,15.867-11.025,18.927-20.892c3.066-9.887,3.797-19.908,1.26-30.047
						C335.755,245.079,335.352,245.072,335.125,243.886z M248.438,159.597c0.819,2.089,1.632,3.54,4.262,4.179
						c-2.516,0.731-3.472,2.132-4.176,4.247c-0.84-1.857-1.43-3.568-4.258-4.068C246.818,163.175,247.778,161.804,248.438,159.597z
						 M188.027,188.63c-0.525-2.72-1.61-4.492-4.418-5.27c2.813-0.777,3.946-2.454,4.391-5.128c0.84,2.429,1.894,4.239,4.412,5.124
						C189.891,184.263,188.831,186.055,188.027,188.63z M291.624,226.613c-0.69-2.527-1.455-4.158-3.839-4.634
						c2.017-0.953,3.385-2.006,3.737-4.136c0.765,1.764,1.672,3.201,3.806,3.93C293.338,222.768,292.22,224.028,291.624,226.613z
						 M309.76,272.104c-0.73-2.424-1.619-4.185-4.346-4.983c2.608-0.912,3.814-2.476,4.267-5.506
						c0.819,2.816,1.775,4.558,4.697,5.385C311.634,267.995,310.606,269.591,309.76,272.104z"/>
					<polygon style="fill:#CCD7F3;" points="236.401,263.463 236.406,263.471 236.413,263.471 					"/>
					<path style="fill:#CCD7F3;" d="M283.046,169.149c-0.013-0.025-0.025-0.05-0.038-0.075c0.003,0.034,0.006,0.068,0.008,0.102
						L283.046,169.149z"/>
					<path style="fill:#CCD7F3;" d="M259.728,131.55c3.835,6.121,11.434,10.94,19.654,4.327c0.088-0.084,0.159-0.18,0.213-0.29
						c2.237-2.637,3.964-5.501,4.019-9.1c0.069-4.516-2.39-6.607-6.813-5.682c-1.732,0.362-3.412,0.973-5.359,1.542
						c0.267-2.586,1.523-4.362,3.742-5.344c4.81-2.128,11.344,0.205,13.86,4.845c3.051,5.63,2.489,10.197-1.869,14.93
						c-1.147,1.246-2.353,2.437-3.532,3.653c-0.155,0.542-0.585,0.804-1.049,1.032c-0.924,1.745-1.849,3.491-2.773,5.236
						c-0.158,0.599-0.317,1.197-0.475,1.796l0.045,0.139c0,0-0.13,0.095-0.13,0.095c-1.614,7.312,0.404,13.951,3.747,20.344
						c-0.142-1.739-0.283-3.477-0.426-5.216c-0.553-6.696-0.516-13.267,4.437-18.632c2.684-2.907,6.053-4.956,9.314-7.128
						c6.823-4.545,10.913-10.586,9.679-19.097c-1.192-8.221-5.055-14.783-12.888-18.472c-0.278,0.436-0.605,0.85-0.821,1.316
						c-0.215,0.465-0.319,0.981-0.595,1.877c-0.985-2.123-1.248-4.353-3.332-5.327c-0.362-0.153-0.723-0.306-1.085-0.459
						c0,0,0.044,0.028,0.044,0.028c-3.609-0.454-7.213-1.008-10.87-0.618c-4.761,0.508-9.172,1.93-12.809,5.174
						c-5.676,5.063-7.449,11.666-7.323,18.985C257.056,124.991,257.794,128.462,259.728,131.55z"/>
					<path style="fill:#CCD7F3;" d="M177.494,253.588c-1.745-1.156-3.18-2.578-3.923-4.59c-0.451-0.138-0.749-0.401-0.749-0.91
						c-0.571-1.61-1.295-3.18-1.321-4.936c-0.165-0.311-0.27-0.821-0.508-0.894c-0.556-0.171-0.347,0.408-0.389,0.652
						c-0.308,1.754-0.52,3.535-1.713,4.984c-0.239,0.746-0.304,1.624-0.751,2.212c-0.921,1.211-1.354,3.148-3.528,2.828
						c-0.071,0.287-0.142,0.573-0.211,0.86c-1.467,1.493-3.722,1.389-5.677,2.572c6.958,0.953,11.273,6.098,12.016,13.896
						c1.873-6.743,4.812-12.54,12.749-14.074c-1.91-0.719-3.4-1.28-4.89-1.841C177.935,254.853,177.935,254.853,177.494,253.588z"/>
					<path style="fill:#CCD7F3;" d="M226.077,117.021c5.244,1.475,7.969,4.546,8.697,9.338c-0.143,0.237-0.286,0.474-0.428,0.711
						c1.089,0.994,1.322,0.516,1.566-0.71c0.631-3.161,2.252-5.759,4.966-7.584c1.091-0.734,2.677-0.581,3.515-1.961
						c-5.25-1.35-7.77-5.021-8.685-10.083c-0.048-0.264,0.281-1.235-0.704-0.732c-0.05,0.355-0.1,0.71-0.15,1.065
						C234.41,112.233,231.708,115.56,226.077,117.021z"/>
					<path style="fill:#CCD7F3;" d="M346.713,161.684c-0.076-0.341-0.152-0.682-0.229-1.024c-0.166-0.53-0.331-1.06-0.496-1.59
						c-0.335-1.072-0.669-2.145-1.004-3.217c-0.147-0.375-0.294-0.75-0.442-1.125c-0.174-0.353-0.348-0.707-0.522-1.06
						c-1.079-1.72-2.158-3.44-3.237-5.16c-2.189-2.096-4.329-4.223-7.102-5.612c-10.141-5.08-25.232-1.548-32.906,7.543
						c-4.953,5.866-6.133,12.45-4.697,19.773c0.93,4.74,1.743,9.578,0.557,14.331c-1.973,7.902-7.283,13.48-13.505,18.427
						c9.518-2.478,18.923-5.227,26.612-11.89c0,0,0.002,0.017,0.002,0.017c0.306-0.367,0.612-0.734,0.918-1.102
						c0.407-0.517,0.815-1.033,1.223-1.55c1.494-2.663,2.381-5.518,2.714-8.549c-0.001-0.36-0.002-0.72-0.003-1.08
						c-0.013-0.712-0.025-1.424-0.038-2.135c-0.544-2.909-0.384-5.773,0.556-8.586c0.299-0.717,0.598-1.433,0.897-2.15
						c0.874-2.062,2.127-3.74,4.419-4.368c-0.001-0.001,0.008,0.041,0.008,0.041c0.401-0.581,0.971-0.716,1.63-0.617
						c0-0.001-0.042,0.081-0.042,0.081c0.202-0.13,0.403-0.259,0.605-0.389c0.894-0.235,1.793-0.283,2.698-0.07
						c0.593-0.028,1.187-0.06,1.649,0.423c0.376,0.193,0.752,0.387,1.127,0.58c2.813,1.959,3.3,4.298,1.579,7.574
						c-0.087,0.718-0.441,1.258-1.073,1.614c-1.897,3.04-4.325,2.689-6.948,1.088c0.005,0.335,0.01,0.671,0.015,1.006
						c0.341,0.506,0.335,1.063,0.24,1.634c0.251,1.051,0.502,2.102,0.753,3.153c0.652,0.911,1.304,1.822,1.956,2.733
						c0.13,0.047,0.212,0.137,0.248,0.27c0.897,0.558,1.794,1.115,2.691,1.672c2.204,0.686,4.448,1.114,6.769,1.05
						c0.388-0.064,0.776-0.127,1.164-0.191c1.411-0.454,2.822-0.908,4.234-1.362c0.196-0.12,0.392-0.24,0.588-0.36
						c1.6-1.28,3.184-2.577,4.382-4.27c0.234-0.407,0.469-0.814,0.702-1.221c1.598-3.733,1.98-7.647,1.739-11.654
						C346.767,163.507,346.667,162.607,346.713,161.684z"/>
					<path style="fill:#CCD7F3;" d="M320.486,128.93c1.856-4.412,2.343-4.971,5.943-6.885c-3.4-0.887-4.967-3.308-5.918-6.4
						c-0.482,3.473-2.21,5.717-6.198,6.578C318.348,123.014,319.773,125.517,320.486,128.93z"/>
					<path style="fill:#CCD7F3;" d="M283.046,169.149c0,0-0.03,0.027-0.03,0.027c0.09,0.123,0.181,0.246,0.271,0.369
						C283.207,169.413,283.127,169.281,283.046,169.149z"/>
					<path style="fill:#CCD7F3;" d="M248.479,328.971c-0.571-1.193-1.14-2.385-1.712-3.583c-0.425,3.124-1.903,5.552-5.727,6.762
						c3.98,0.976,5.197,3.525,5.873,7.35c0.654-3.623,2.136-5.829,4.79-7.137C251.222,330.669,249.116,330.518,248.479,328.971z"/>
					<path style="fill:#CCD7F3;" d="M265.292,256.041c-2.162-0.886-3.664-1.947-4.557-3.694c-2.448,0.739-3.803,2.474-4.431,4.87
						c2.191,0.993,2.431,3.306,3.491,5.482C260.543,259.478,262.255,257.382,265.292,256.041z"/>
					<path style="fill:#CCD7F3;" d="M338.955,200.858c-1.84-2.309-2.921-4.914-3.067-7.883c0.001-0.001,0.049-0.071,0.049-0.071
						c-0.275,0.074-0.55,0.149-0.824,0.225c0.057,4.036-1.125,7.445-4.836,9.577c-0.725,0.343-1.45,0.687-2.175,1.031
						c-0.568,0.222-1.135,0.442-1.995,0.776c1.558,0.536,2.865,0.561,3.793,1.508c4.06,1.867,4.682,5.857,5.794,9.987
						c0.973-4.696,2.513-8.478,6.72-10.489C342.447,203.087,340.165,202.371,338.955,200.858z"/>
					<path style="fill:#CCD7F3;" d="M363.765,219.805c-0.305,2.736-1.701,3.907-3.77,5.049c2.442,0.773,3.2,2.63,4.124,4.693
						c0.849-2.176,1.64-3.961,4.281-4.675C365.976,223.784,364.933,222.15,363.765,219.805z"/>
				</g>
				<path style="fill:#ECECF0;" d="M354.418,156.39c0.555,3.252,1.892,5.925,5.268,7.133c-0.11,0.978-1.248,0.784-1.694,1.4
					c-1.104,0.566-1.955,1.361-2.335,2.582c-0.738,0.84-0.736,1.966-1.229,3.194c-0.927-3.155-1.798-6.189-5.634-6.51
					c-0.02-0.212-0.038-0.425-0.056-0.638c0.649-0.117,1.377-0.044,1.783-0.744c0.181-0.167,0.361-0.335,0.542-0.502
					c1.096-0.006,1.593-0.621,1.68-1.653c0.999-0.837,1.21-1.954,1.132-3.175C354.382,157.278,354.348,156.808,354.418,156.39z"/>
			</g>
			<g>
				<path style="fill:#ADC3F4;" d="M37.427,223.212c3.385-5.101,7.805-9.335,11.741-13.973c5.078-5.984,10.29-11.853,15.339-17.861
					c1.467-1.746,2.633-2.258,4.566-0.619c19.037,16.148,38.114,32.248,57.205,48.332c1.135,0.956,1.723,1.92,1.152,3.372
					c-1.372,3.852-4.569,6.356-7.102,9.297c-6.266,7.278-12.475,14.609-18.88,21.767c-0.793,0.886-1.451,1.951-2.803,2.089
					c-1.322-0.334-1.969-1.589-3.065-2.234c-17.775-14.821-35.319-29.916-53.096-44.735
					C40.597,227.074,38.407,225.676,37.427,223.212z"/>
				<path style="fill:#33479D;" d="M37.427,223.212c7.996,6.692,16.019,13.354,23.983,20.085
					c11.625,9.826,23.207,19.702,34.808,29.556c0.753,1.203-0.003,2.116-0.683,2.932c-1.887,2.263-3.501,4.771-5.608,6.826
					c-3.253,3.174-6.011,6.592-6.927,11.184c-6.183-4.399-11.733-9.553-17.476-14.487c-4.444-3.818-9.095-7.396-13.505-11.273
					c-5.873-5.164-11.927-10.122-17.912-15.157c-2.576-2.167-5.233-4.239-7.75-6.471c-4.136-3.667-4.395-6.248-0.595-10.207
					c3.526-3.673,6.539-7.755,9.917-11.535C36.178,224.106,36.84,223.693,37.427,223.212z"/>
				<path style="fill:#F7F7E0;" d="M98.643,275.271c8.895-10.267,17.785-20.537,26.693-30.793c0.633-0.728,1.392-1.346,2.093-2.015
					c2.205,1.897,4.411,3.794,6.616,5.691c0.745,1.719-0.659,2.616-1.514,3.601c-8.58,9.89-17.169,19.774-25.738,29.674
					c-1.55,1.315-2.515,3.237-4.365,4.245c-0.542,0.154-1.124,0.182-1.588-0.111c-1.685-1.063-2.914-0.756-4.192,0.825
					c-1.245,1.541-1.98,2.827-0.312,4.495c0.465,0.464,0.51,1.187,0.269,1.861c-0.449,1.024-1.206,1.807-2.004,2.546
					c-2.581,2.391-4.934,2.415-7.48,0.102c-2.576-2.341-2.91-4.781-0.783-7.442c3.188-3.989,6.677-7.723,10.062-11.545
					C96.991,275.741,97.677,275.214,98.643,275.271z"/>
				<path style="fill:#ADC3F4;" d="M106.109,280.937c7.742-8.991,15.494-17.975,23.219-26.981c1.623-1.892,3.149-3.866,4.719-5.803
					c0.886-0.348,1.901-1.073,2.585,0.105c0.603,1.039-0.293,1.81-0.931,2.542c-9.197,10.552-18.395,21.103-27.594,31.654
					C106.768,282.834,106.238,282.15,106.109,280.937z"/>
				<path style="fill:#7B88D0;" d="M98.643,275.271c-3.835,4.443-7.684,8.875-11.501,13.334c-2.201,2.572-1.976,3.747,0.767,6.244
					c2.177,1.982,4.123,2.221,6.082-0.238c0.743-0.932,1.611-1.765,2.421-2.643c1.281-0.173,2.136,0.165,2.01,1.678
					c-0.905,1.084-1.74,2.238-2.729,3.239c-3.08,3.119-5.836,3.19-9.133,0.275c-1.223-1.081-2.376-2.241-3.562-3.365
					c-1.286-4.047,1.382-6.606,3.689-9.109c3.448-3.74,6.798-7.53,9.529-11.834C97.34,273.344,98.114,274.185,98.643,275.271z"/>
				<path style="fill:#FD4D0A;" d="M98.423,293.646c-0.434-0.842-1.192-1.296-2.01-1.677c-0.457-0.457-0.844-1.037-1.385-1.347
					c-1.845-1.058-1.812-2.176-0.278-3.471c0.246-0.208,0.486-0.458,0.637-0.738c1.779-3.297,3.99-3.757,6.704-1.052
					c1.125,0.145,2.143,0.422,2.253,1.823c2.981,1.754,2.284,4.479,1.885,7.128c-0.208,1.38-0.397,2.763-0.656,4.568
					C103.01,297.004,100.716,295.325,98.423,293.646z"/>
				<path style="fill:#7B88D0;" d="M104.343,287.184c-0.751-0.608-1.502-1.215-2.252-1.823c1.34-1.475,2.68-2.949,4.019-4.424
					c0.666,0.506,1.332,1.011,1.998,1.517C106.852,284.031,105.597,285.608,104.343,287.184z"/>
			</g>
			<g>
				<g>
					<path style="fill:#33479D;" d="M116.937,119.446C116.937,119.446,116.937,119.446,116.937,119.446
						C116.937,119.446,116.937,119.446,116.937,119.446c-2.192,0.379-3.475,2.073-3.935,3.846
						c-1.015,3.912-1.806,7.914-1.811,12.004c1.5-1.053,3.014-2.093,3.879-3.794c2.158,1.134,4.39,1.373,6.719,0.477
						c0.721-4.098,1.442-8.197,2.163-12.295C121.621,119.386,119.32,118.22,116.937,119.446z"/>
					<path style="fill:#33479D;" d="M107.113,181.251C107.113,181.251,107.113,181.251,107.113,181.251
						c-1.808,0.39-2.738,1.789-3.667,3.189c-1.163,3.879-1.854,7.834-1.917,11.89c0.862-1.931,2.534-2.92,4.349-3.742
						c2.135-0.488,4.181,0.272,6.268,0.442c0.605-3.894,1.21-7.789,1.815-11.685C111.685,180.889,109.411,180.197,107.113,181.251z"
						/>
					<path style="fill:#33479D;" d="M114.468,135.551C114.468,135.551,114.468,135.551,114.468,135.551
						c-1.718,0.601-2.98,1.723-3.809,3.338c-1.07,3.408-1.662,6.895-1.727,10.469c1.008-2.084,2.667-3.372,4.877-3.987
						c1.949-0.113,3.866,0.097,5.753,0.59c0.542-3.418,1.083-6.836,1.625-10.254C118.955,135.351,116.73,134.686,114.468,135.551z"
						/>
				</g>
				<path style="fill:#656FCB;" d="M123.953,119.684c17.01,2.678,34.018,5.365,51.031,8.018c1.724,0.269,2.204,1.122,1.937,2.784
					c-3.827,23.846-7.623,47.698-11.426,71.548c-0.884,0.32-1.764,0.114-2.644-0.026c-15.788-2.514-31.58-5.005-47.367-7.523
					c-1.239-0.198-2.535-0.278-3.503-1.254c-0.497-0.724-0.523-1.548-0.4-2.36c0.501-3.302,0.854-6.629,1.669-9.877
					c0.736-6.73,1.999-13.381,3.05-20.063c0.797-5.065,1.403-10.164,2.54-15.172c0.345-3.414,0.82-6.808,1.622-10.149
					c0.057-1.273,0.22-2.529,0.603-3.749c0.223-3.307,0.907-6.546,1.448-9.806C122.674,121.085,123.06,120.223,123.953,119.684z"/>
				<path style="fill:#CCD7F3;" d="M119.563,145.962c-8.41,49.079-1.155,30.331-16.318,37.83
					c2.131-12.261,3.012-24.049,6.315-36.382C111.414,144.461,117.308,143.285,119.563,145.962z"/>
				<path style="fill:#877EF0;" d="M112.147,193.03c16.815,2.676,33.63,5.35,50.444,8.029c1.019,0.162,2.094,0.178,2.903,0.974
					c-0.077,0.554-0.154,1.107-0.232,1.66c-0.685,0.979-1.641,1.002-2.673,0.758c-17.699-2.794-35.396-5.607-53.092-8.422
					c-1.419-0.226-2.813-0.512-3.941,0.721c-0.388,0.624-0.894,1.178-1.156,1.887c-0.906,2.454,0.429,4.787,2.982,5.227
					c0.871,0.15,1.781,0.161,2.578,0.617c0.884,1.009,1.953,0.379,2.96,0.321c1.134,0.066,2.245,0.256,3.339,0.55
					c0.941,0.188,1.4,1.836,2.722,0.893c12.224,1.742,24.384,3.845,36.576,5.706c1.158-0.006,2.275,0.349,3.423,0.435
					c0.759,0.056,1.598,0.358,2.208-0.422c0.17-0.141,0.364-0.234,0.579-0.282c1.056,0.472,1.277,1.575,1.83,2.429
					c-0.037,1.512-0.68,2.012-2.264,1.757c-18.39-2.959-36.795-5.825-55.183-8.797c-4.725-0.764-6.733-5.622-4.624-10.741
					c0.224-2.864,2.521-3.569,4.642-4.466C108.297,191.566,110.392,191.435,112.147,193.03z"/>
				<path style="fill:#CCD7F3;" d="M111.191,135.296c1.625-3.88,5.89-4.559,10.598-3.317c-0.066,2.441-0.697,3.318-1.328,3.63
					c-1.116,0.551-2.238-0.664-4.063-0.564c-1.737,0.096-3.123,1.328-4.102,2.52c-0.576,0.517-1.278,1.044-1.612,0.84
					C110.214,138.117,110.689,136.496,111.191,135.296z"/>
				<path style="fill:#33479D;" d="M163.073,203.911c0.73-0.073,1.46-0.145,2.19-0.218c-0.554,3.472-1.109,6.944-1.663,10.417
					c-1.102-0.342-2.059-0.797-1.748-2.241c-0.529-0.274-0.583-0.765-0.588-1.279c0.022-0.484,0.044-0.97,0.171-1.442
					c0.061-0.466,0.105-0.936,0.224-1.393c0.048-0.465,0.115-0.928,0.221-1.385c0.051-0.353,0.068-0.711,0.182-1.053
					C162.195,204.701,162.418,204.15,163.073,203.911z"/>
				<path style="fill:#CCD7F3;" d="M128.261,165.499c0.757-4.783,1.495-9.57,2.282-14.348c0.436-2.649,1.347-3.33,3.955-2.924
					c7.804,1.214,15.605,2.443,23.4,3.715c3.231,0.527,3.861,1.436,3.345,4.748c-1.377,8.834-2.788,17.663-4.205,26.49
					c-0.141,0.878-0.416,1.736-0.632,2.602c-0.351,1.404-1.276,1.949-2.665,1.729c-8.61-1.361-17.22-2.723-25.827-4.102
					c-1.964-0.315-2.231-1.676-1.965-3.341C126.726,175.213,127.492,170.356,128.261,165.499z"/>
				<path style="fill:#CCD7F3;" d="M148.165,139.938c-4.417-0.701-8.832-1.415-13.253-2.094c-1.304-0.2-2.479-0.652-2.251-2.171
					c0.217-1.447,1.371-1.735,2.741-1.514c8.831,1.422,17.666,2.82,26.503,4.204c1.343,0.21,2.332,0.664,2.047,2.272
					c-0.296,1.674-1.505,1.572-2.758,1.372C156.852,141.314,152.508,140.628,148.165,139.938z"/>
				<path style="fill:#FD4D0A;" d="M111.256,198.828c2.483-0.585,4.811,0.423,7.202,0.741c0.949,0.126,0.66,1.014,0.584,1.64
					c-0.222,1.837-0.485,3.67-0.732,5.504c-1.323,1.618-1.168-0.818-1.942-0.708c-1.216-1-2.509-1.525-4.028-0.652
					c-0.692-0.31-1.747,2.401-2.157-0.259c-0.225-0.429-0.484-0.847-0.415-1.365c0.022-0.476,0.055-0.952,0.177-1.416
					c0.056-0.466,0.109-0.933,0.225-1.39c0.054-0.473,0.136-0.939,0.326-1.38C110.657,199.207,110.885,198.94,111.256,198.828z"/>
				<path style="fill:#E4EAE6;" d="M112.341,205.353c2.266-1.73,2.266-1.73,4.028,0.651
					C115.026,205.788,113.684,205.571,112.341,205.353z"/>
				<path style="fill:#F7F7E0;" d="M163.073,203.91c-18.231-2.908-36.462-5.82-54.695-8.716c-1.574-0.25-2.968,0.056-3.775,1.64
					c0,0,0,0,0,0c-2.622,3.662-1.21,7.148,3.184,7.863c0.799,0.13,1.598,0.264,2.397,0.396c0.07-0.475,0.141-0.95,0.212-1.425
					c0.074-0.44,0.148-0.879,0.223-1.319l0,0c0.065-0.445,0.13-0.89,0.195-1.334c0.074-0.443,0.148-0.886,0.222-1.329l0,0
					c0.037-0.146,0.075-0.292,0.113-0.438c1.354,0.268,2.733,0.33,4.089,0.566c2.916,0.506,2.897,0.521,2.591,3.405
					c-0.125,1.174-0.801,2.489,0.483,3.493c0.885,0.127,1.771,0.244,2.653,0.382c11.699,1.832,23.398,3.667,35.097,5.501
					c1.318,0.229,2.646,0.416,3.952,0.7c1.199,0.261,1.667-0.227,1.642-1.37c0,0,0,0,0,0c0,0,0.196-0.057,0.196-0.058
					c0.03-0.457,0.06-0.914,0.09-1.37c0.063-0.455,0.127-0.91,0.19-1.365c0.076-0.43,0.151-0.86,0.227-1.29
					c0.066-0.454,0.132-0.909,0.198-1.363c0.037-0.294,0.075-0.588,0.112-0.882c0,0,0,0,0,0
					C162.804,205.035,162.939,204.473,163.073,203.91z"/>
			</g>
			<g>
				<g>
					<path style="fill:#CDB299;" d="M426.019,380.153c-0.267-0.922-0.534-1.845-0.801-2.767c-1.229,0.552-2.479,0.232-3.718,0.098
						c0.426,0.016,0.852,0.031,1.278,0.048c0.846,0.033,1.632,0.12,2.307-0.496c-0.891-1.955-2.003-3.843-2.624-5.88
						c-1.036-3.4-4.216-5.317-5.5-8.542c-0.784-1.968-1.647-4.002-3.456-5.364c-0.779-0.627-1.677-0.894-2.665-1.002
						c-11.154-1.218-22.164-3.347-33.201-5.302c-6.092-1.033-12.117-2.409-18.182-3.58c-12.222-2.361-24.502-4.099-36.979-4.127
						c-2.929,0.05-5.858,0.018-8.791,0.027c-3.22-0.07-6.373,0.521-9.535,0.964c-14.175,1.983-27.344,6.489-38.42,15.902
						c-2.797,2.377-5.831,4.652-7.368,8.21c0.02,0.806,0.614,1.165,1.212,1.46c4.933,2.434,8.31,6.381,10.879,11.124
						c0.459,0.848,0.882,1.748,1.967,1.973c1.537,0.266,3.032-0.001,4.514-0.379c11.668-3.033,23.604-4.046,35.591-4.305
						c8.475-0.183,16.945,0.585,25.381,1.425c10.798,1.075,21.602,2.062,32.408,3.025c1.866,0.002,3.696,0.453,5.566,0.454
						c15.879,0.006,31.758,0.009,47.637-0.011c1.026-0.001,2.114,0.115,2.947-0.728
						C426.318,381.637,426.169,380.895,426.019,380.153z"/>
					<path style="fill:#CDB299;" d="M229.934,345.358c-9.287-4.422-19.32-5.483-29.376-6.062
						c-9.316-0.537-18.603,0.284-27.857,1.529c-16.43,2.21-32.502,6.211-48.704,9.56c-10.443,2.159-20.933,4.04-31.459,5.734
						c-1.406,0.226-2.806,0.329-4.029,1.141c-1.207,0.981-1.578,2.482-2.324,3.748c-1.168,1.981-1.869,4.569-3.565,5.816
						c-1.9,1.398-2.513,3.07-3.202,4.977c-0.958,2.648-1.979,5.274-2.973,7.909c0.615,0.592,1.395,0.412,2.121,0.433
						c0.299,0.009,0.597,0.011,0.896,0.017c-0.53-0.001-1.059,0.002-1.589-0.002c-0.668-0.005-1.35-0.034-1.904,0.455
						c-0.149,0.585-0.298,1.17-0.447,1.755c1.044,0.998,2.37,0.745,3.601,0.734c12.328-0.115,24.663,0.393,36.984-0.45
						c6.811-0.555,13.636-0.894,20.453-1.313c7.202-0.443,14.393-1.035,21.589-1.553c9.943-0.716,19.889-1.296,29.85-1.615
						c6.184-0.198,12.336,0.432,18.496,0.848c6.71,0.453,13.321,1.392,19.748,3.439c0.752,0.142,1.492,0.383,2.271,0.188
						c0.973-0.449,1.295-1.405,1.738-2.253c3.764-7.213,9.616-11.374,17.76-12.253c1.134-0.122,2.419-0.044,3.156-1.245
						c0.001-1.088-0.487-2.018-0.993-2.93C245.492,355.519,238.583,349.477,229.934,345.358z"/>
				</g>
				<path style="fill:#BEA38D;" d="M329.784,289.726c6.505-4.6,13.457-8.453,20.53-12.074c6.075-3.11,12.271-5.984,18.414-8.963
					c2.269-0.855,4.538-1.71,7.161-2.698c-1.423,5.099-2.756,9.856-4.074,14.617c-0.448,1.618-1.951,1.239-2.979,1.419
					c-7.1,1.242-14.153,2.701-21.164,4.362c-6.002,1.423-11.94,3.079-17.761,5.137c-0.618,0.218-1.213,0.615-1.928,0.427
					C327.78,290.56,329.459,290.69,329.784,289.726z"/>
				<path style="fill:#92806D;" d="M329.784,289.726c0.119,1.323-1.67,1.104-1.8,2.226c-0.981,0.605-1.977,1.176-3.134,1.378
					C326.138,291.641,328.076,290.841,329.784,289.726z"/>
				<path style="fill:#656FCB;" d="M272.008,382.507c1.524-0.087,3.063-0.034,4.547-0.494c26.186-0.801,52.378-0.149,78.567-0.344
					c3.939-0.029,7.875,0.135,11.804,0.47c1.025,0.087,2.08,0.18,3.104-0.116c17.543,0.853,35.098,0.216,52.646,0.408
					c1.263,0.014,2.527-0.033,3.79-0.052c2.441,0.343,3.639,1.436,3.506,3.197c-0.134,1.772-1.439,2.689-3.927,2.69
					c-48.754,0.005-97.507,0.002-146.261,0.02c-0.933,0-1.952-0.336-2.787,0.414c-1.701,0.294-3.415,0.266-5.095-0.05
					c-1.364-0.256-2.627-0.775-2.483-2.563c0.138-0.465,0.375-0.818,0.925-0.535c1.805,0.93,1.872-0.026,1.543-1.41
					C271.753,383.579,271.514,383.019,272.008,382.507z"/>
				<path style="fill:#656FCB;" d="M75.523,382.368c12.331-0.059,24.666,0.478,36.991-0.335c1.256-0.083,2.522-0.025,3.783-0.032
					c3.49,0.464,6.978-0.075,10.46-0.142c3.196-0.062,6.4-0.177,9.596-0.182c28.241-0.036,56.482-0.006,84.722-0.054
					c1.934-0.003,3.81,0.566,5.742,0.349c0.565,0.162,1.13,0.324,1.696,0.485c0.383,0.466,0.153,0.963,0.072,1.452
					c-0.104,0.626-0.477,1.423,0.299,1.744c0.846,0.351,1.007-0.564,1.333-1.083c0.4-0.638,0.529-1.607,1.665-1.329
					c1.126,0.773,1.474,1.852,1.049,3.098c-0.498,1.461-1.595,2.278-3.139,2.426c-2.2,0.212-4.438-0.125-6.615,0.445
					c-0.519-1.351-1.691-0.932-2.659-0.932c-36.846-0.012-73.691-0.01-110.537-0.01c-11.263,0-22.525-0.002-33.788,0.001
					c-1.198,0-2.407,0.078-3.295-0.974c-0.737-0.872-0.936-1.84-0.55-2.916C72.883,382.891,74.102,382.468,75.523,382.368z"/>
				<path style="fill:#FD4D0A;" d="M257.704,368.446c0.303,0.058,0.606,0.116,0.909,0.175c6.346,2.814,10.349,7.889,13.395,13.885
					c0.126,0.49,0.197,1.002,0.39,1.464c0.393,0.943,0.612,1.907-0.365,2.546c-1.195,0.78-1.63-0.375-2.209-1.07
					c-2.353-6.993-6.425-12.644-13.799-14.583c-10.263-2.699-20.547,1.876-24.651,12.405c-0.312,0.74-0.61,1.487-0.942,2.219
					c-0.35,0.773-0.819,1.523-1.809,1.107c-0.867-0.364-1.044-1.176-0.791-2.048c0.204-0.703,0.453-1.393,0.682-2.089
					c2.516-5.482,6.011-10.054,11.602-12.763c3.42-1.657,7.056-2.217,10.786-2.422c0.548,0.575,1.223,0.292,1.859,0.276
					c0.921,0.074,1.841,0.149,2.763,0.224C256.252,367.998,256.978,368.222,257.704,368.446z"/>
				<path style="fill:#CAC8B4;" d="M313.218,343.871c3.135-0.693,6.271-0.687,9.406-0.002
					C319.489,343.87,316.353,343.871,313.218,343.871z"/>
				<path style="fill:#FD4D0A;" d="M199.031,371.668c-0.03-2.228-0.06-4.456-0.091-6.684c-0.419-2.227,0.221-4.485-0.2-6.712
					c-0.027-0.336-0.054-0.672-0.081-1.007c-0.404-0.438-0.427-0.893-0.062-1.365c0.013-2.781,0.025-5.562,0.038-8.344
					c0.182-0.192,0.405-0.279,0.669-0.265c6.944-0.074,13.769,0.811,20.481,2.578c0.858,0.226,1.751,0.372,2.479,0.947
					c0.2,0.194,0.254,0.423,0.163,0.685c-0.169,8.733-0.339,17.465-0.518,26.693c-1.617-1.188-2.844-2.089-4.071-2.991
					c-0.959-0.302-1.818-0.789-2.605-1.411c-0.248-0.16-0.472-0.35-0.703-0.531c-5.01-3.904-3.12-3.701-8.489-0.526
					c-0.502,0.378-1.118,0.464-1.69,0.667c-1.825,0.413-3.135,1.82-4.962,2.604c-0.557-0.956-0.121-2.018-0.383-2.953
					C198.715,372.587,198.684,372.124,199.031,371.668z"/>
				<g>
					<path style="fill:#33479D;" d="M272.907,388.209c-1.642-0.241-3.443-0.294-3.083-2.764c0.477-0.641,0.234-1.311-0.031-1.903
						c-1.624-3.615-3.571-7.011-6.688-9.591c-3.974-3.289-8.505-4.553-13.661-4.28c-7.904,0.418-13.604,4.167-17.508,10.88
						c-0.463,0.796-1.021,1.681-0.561,2.717c0.978,0.806,1.637,1.793,1.03,3.053c-0.61,1.266-1.626,2.004-3.172,1.908
						c-1.464-0.091-2.938-0.009-4.407-0.022c-0.77-0.007-1.503,0.007-1.649,1.005c0.491,2.201,2.062,2.978,4.103,2.98
						c15.189,0.017,30.378,0.022,45.567-0.007c2.274-0.004,3.813-1.08,4.151-3.486C275.731,387.735,274.266,388.409,272.907,388.209
						z"/>
					<path style="fill:#33479D;" d="M348.015,379.938c-15.347-1.548-30.693-3.111-46.149-1.948
						c-8.544,0.643-17.036,1.661-25.31,4.023c0.616,0.631,1.406,0.372,2.122,0.373c29.59,0.013,59.181,0.015,88.771-0.001
						c0.863,0,1.798,0.29,2.583-0.362C362.692,381.33,355.349,380.677,348.015,379.938z"/>
					<path style="fill:#33479D;" d="M226.817,381.972c-1.568-0.47-3.115-1.031-4.707-1.397c-11.777-2.71-23.767-3.263-35.769-2.98
						c-23.401,0.553-46.686,3.097-70.045,4.405c0.69,0.67,1.559,0.385,2.345,0.386c35.357,0.012,70.715,0.009,106.072-0.007
						C225.426,382.379,226.224,382.654,226.817,381.972z"/>
				</g>
				<path style="fill:#CC3B30;" d="M199.069,347.48c0.895-2.053,2.76-1.821,4.49-1.907c6.533,0.357,12.975,1.251,19.222,3.289
					c0.572,0.872,0.632,1.641-0.44,2.181c-5.291-1.293-10.632-2.287-16.049-2.92c-1.931-0.226-3.838-0.191-5.753-0.13
					C199.917,348.012,199.373,348.208,199.069,347.48z"/>
				<g>
					<path style="fill:#95806D;" d="M375.552,356.938c-8.051-1.697-16.143-3.205-24.229-4.733c-9.27-1.751-18.633-2.86-28.045-3.329
						c-13.234-0.66-26.049,1.625-38.454,6.225c-3.811,1.413-7.567,2.967-11.002,5.184c3.669-1.205,7.234-2.663,10.876-3.896
						c9.679-3.277,19.579-5.451,29.841-5.799c10.75-0.365,21.345,0.903,31.933,2.603c14.28,2.292,28.464,5.085,42.692,7.655
						c2.72,0.491,5.399,1.372,8.246,1.094C390.125,360.265,382.864,358.48,375.552,356.938z"/>
					<path style="fill:#95806D;" d="M273.771,368.5c24.968-10.533,50.84-10.632,77.083-6.462
						C324.502,356.612,298.552,355.815,273.771,368.5z"/>
					<path style="fill:#95806D;" d="M282.426,373.414c20.019-6.289,40.358-5.513,60.782-2.848
						C322.735,366.836,302.365,365.372,282.426,373.414z"/>
					<path style="fill:#95806D;" d="M201.389,345.258c-7.44-0.019-14.864,0.008-22.292,0.783
						c-7.163,0.748-14.267,1.782-21.348,3.052c-8.549,1.533-16.929,3.823-25.408,5.667c-4.048,0.881-8.034,2.045-12.048,3.081
						c0.512,0.32,0.964,0.357,1.384,0.257c14.138-3.381,28.332-6.423,42.738-8.514c11.37-1.65,22.755-2.345,34.221-2.029
						c0.144-0.029,0.289-0.054,0.434-0.075c1.356-0.966,3.122-0.969,4.49-1.908C202.891,345.092,202.119,345.26,201.389,345.258z"/>
					<path style="fill:#95806D;" d="M197.068,363.353c-8.552-0.626-17.115-0.211-25.643,0.387
						c-7.161,0.502-14.307,1.356-21.407,2.513c-4.688,0.764-9.415,1.3-14.02,2.564c20.903-2.655,41.78-5.577,62.943-3.832
						C198.996,362.743,198.316,363.444,197.068,363.353z"/>
					<path style="fill:#95806D;" d="M144.596,375.101c18.09-1.953,36.217-2.853,54.41-2.048c0.008-0.462,0.017-0.924,0.025-1.385
						C180.79,371.288,162.598,371.688,144.596,375.101z"/>
					<path style="fill:#95806D;" d="M198.66,357.265c-0.021-0.455-0.041-0.91-0.062-1.366c-0.843-0.384-1.74-0.341-2.634-0.344
						c-8.925-0.028-17.797,0.789-26.644,1.834c-5.164,0.61-10.297,1.482-15.444,2.237
						C168.778,358.149,183.629,356.156,198.66,357.265z"/>
					<path style="fill:#95806D;" d="M222.781,348.862c0.091,0.775-0.016,1.51-0.44,2.181c0.029,0.153,0.057,0.306,0.086,0.459
						c8.042,1.917,14.693,6.302,20.779,11.705C238.14,355.941,230.998,351.638,222.781,348.862z"/>
					<path style="fill:#95806D;" d="M214.447,373.206c-2.868-0.655-5.726-1.515-8.713-0.703c-0.639,0.025-1.057,0.392-1.382,0.899
						c4.496,0.6,8.991,1.201,13.487,1.801c-0.715-0.58-1.43-1.16-2.145-1.74C215.215,373.671,214.862,373.301,214.447,373.206z"/>
				</g>
				<path style="fill:#F7F7E0;" d="M363.189,269.921c-4.588,1.354-11.579,3.513-19.977,6.512
					c-28.253,10.091-48.486,17.549-65.431,34.955c-4.126,4.238-9.938,10.998-15.414,20.81c-0.618-18.089-2.953-32.808-5.104-43.261
					c-1.856-9.018-3.28-15.784-6.643-24.826c-4.697-12.629-11.323-24.267-19.23-35.203c-4.205-5.816-8.556-11.51-12.967-17.166
					c-1.027-1.317-2.008-1.908-3.705-0.821c-7.367,4.717-14.799,9.331-22.22,13.963c-5.709,3.564-11.436,7.098-17.155,10.646
					c3.89,3.581,7.771,7.178,11.556,10.863c5.446,5.302,10.837,10.662,15.977,16.278c3.923,4.285,7.937,8.5,11.749,12.878
					c8.227,9.448,16.119,19.181,23.288,29.468c5.2,7.462,10.305,14.987,14.117,23.308c2.949,6.437,4.85,13.13,5.607,20.164
					c0.059,0.546-0.197,1.459,0.602,1.575c-0.007,0.012-0.009,0.024-0.016,0.036c0,4.67,0,9.341,0,14.361
					c4.174-5.742,8.09-11.13,12.006-16.517c0.973,0.081,1.342-0.933,1.816-1.554c7.016-9.18,14.464-18.011,22.284-26.495
					c9.188-9.969,19.232-19.035,30.555-26.589l-0.032,0.025c1.677-1.252,3.586-2.132,5.298-3.325
					c11.699-7.596,24.027-14.023,36.74-19.733c0.223-0.1,0.815-0.432,1.638-0.852c2.95-1.505,5.482-2.635,7.363-3.429
					C373.103,266.835,368.651,268.196,363.189,269.921z"/>
				<path style="fill:#F7F7E0;" d="M247.172,344.297c-0.587-1.291-1.314-2.509-2.222-3.613c-0.333-0.29-0.659-0.587-0.983-0.886
					c-0.095-0.248-0.198-0.49-0.334-0.712c-5.92-9.672-12.881-18.54-20.613-26.775c-5.221-5.561-10.624-10.948-16.492-15.837
					c-8.303-6.918-16.959-13.351-25.842-19.479c-2.385-1.643-4.77-3.287-7.155-4.93c0.002,0.189-0.035,0.346-0.096,0.483
					c-1.684-1.84-3.607-3.306-6.159-3.797c-0.235,0.286-0.419,0.649-0.714,0.845c-3.433,2.286-6.708,4.783-10.021,7.238
					c-7.421,5.498-14.17,11.756-20.916,18.006c-6.777,6.279-13.054,13.076-19.414,19.78c-0.414,0.437-0.853,0.846-0.844,1.513
					c0.485,0.678,1.22,0.892,1.969,0.861c2.18-0.09,4.293,0.444,6.44,0.596c8.602,0.606,17.183,1.422,25.769,2.218
					c9.62,0.892,19.223,1.887,28.807,3.115c12.856,1.648,25.61,3.776,38.114,7.25c8.658,2.406,17.053,5.378,24.242,11.026
					c1.711,1.344,3.163,2.939,4.707,4.449c0.517,0.506,1.198,1.31,1.876,0.86C248.155,345.935,247.494,345.007,247.172,344.297z"/>
				<path style="fill:#F7F7E0;" d="M253.585,365.715c-0.237-1.654-0.378-3.333-1.184-4.849c-0.324-0.45-0.542-0.961-0.784-1.458
					c-1.637-7.487-6.026-13.328-11.845-18.161c-5.094-4.23-11.194-6.656-17.411-8.82c-12.752-4.438-25.95-6.807-39.26-8.656
					c-6.975-0.969-13.966-1.815-20.995-2.361c-7.24-0.562-14.46-1.379-21.689-2.085v0c-2.833-0.084-5.632-0.75-8.485-0.506
					c-0.013,0.016-0.025,0.031-0.038,0.047c-0.037-0.093-0.082-0.189-0.144-0.29c-1.883-0.71-3.89-0.657-5.841-0.94
					c-0.996-0.144-2.035-0.467-2.936,0.329c-0.016,0.47-0.219,0.846-0.547,1.179c-6.228,6.326-12.022,13.046-17.923,19.673
					c-5.412,6.079-10.895,12.092-15.992,18.442c8.48-0.949,16.868-2.512,25.225-4.164c14.552-2.877,29.034-6.105,43.569-9.076
					c9.967-2.038,20.044-3.469,30.196-4.056c8.694-0.503,17.397-0.09,26.023,1.273c8.618,1.361,16.761,3.951,23.856,9.267
					c5.936,4.448,10.787,9.75,13.523,16.768c0.401,1.009,1.162,0.81,1.934,0.573C253.611,367.319,253.705,366.548,253.585,365.715z"
					/>
				<path style="fill:#F7F7E0;" d="M257.329,356.434c-0.155-0.652-0.35-1.292-0.5-1.944c0.106-8.523-1.674-16.697-5.004-24.551
					c-4.956-11.687-12.546-21.742-20.036-31.834c-6.113-8.235-12.497-16.267-19.261-23.982
					c-5.931-6.765-11.875-13.522-18.363-19.771v0c-2.267-2.391-4.503-4.813-7.034-6.936c0.03-0.06,0.067-0.112,0.093-0.176
					c-1.652-2.758-4.207-4.557-6.757-6.361c-0.031-0.022-0.131,0.053-0.199,0.083c-0.284,0.543-0.7,0.939-1.243,1.233
					c-8.88,4.796-17.045,10.675-25.164,16.624c0.636,0.977,1.654,1.485,2.591,2.08c15.403,9.787,30.662,19.778,45.179,30.868
					c9.51,7.265,18.139,15.454,25.963,24.475c7.825,9.021,14.903,18.611,20.555,29.165c3.454,6.449,6.515,13.078,6.811,20.602
					c0.03,0.763-0.058,1.753,1.186,1.756c0.841-0.465,0.803-1.335,0.946-2.11C257.659,362.595,257.555,359.516,257.329,356.434z"/>
				<path style="fill:#F6F7E0;" d="M412.425,355.08c-6.851-10.108-13.82-20.14-20.445-30.394c-2.027-3.138-4.538-4.671-8.004-5.529
					c-8.838-2.188-17.734-3.985-26.735-5.39c-5.188-0.81-10.386-1.788-15.594-1.99c-7.4-0.287-14.839-0.504-22.236,0.742
					c-7.884,1.328-15.458,3.484-22.542,7.23c-0.57,0.301-3.819,2.621-3.944,2.665c-0.535,0.51-1.124,0.976-1.599,1.538
					c-4.083,4.825-8.243,9.59-12.19,14.525c-4.871,6.089-9.651,12.257-13.917,18.799c-0.001,0.001-0.001,0.001-0.002,0.002
					c-2.864,3.481-5.341,7.224-7.514,11.17c0.256,0.304,0.561,0.352,0.909,0.175c0.639-0.9,1.189-1.883,1.933-2.686
					c5.546-5.991,11.966-10.744,19.421-14.183c10.575-4.878,21.726-7.116,33.251-7.881c3.135-0.349,6.271-0.344,9.406-0.002
					c4.676-0.037,9.313,0.543,13.968,0.829c9.416,0.578,18.561,2.751,27.818,4.261c4.446,0.725,8.755,2.19,13.276,2.536c0,0,0,0,0,0
					c0,0,0,0,0,0c1.875,0.753,3.896,0.789,5.847,1.157c9.937,1.878,19.916,3.502,29.974,4.597
					C413.38,356.409,412.888,355.762,412.425,355.08z"/>
				<path style="fill:#CDB098;" d="M215.694,373.464c-2.583,0.548-5.007-0.684-7.545-0.682c-0.805,0.001-1.61-0.18-2.415-0.279
					c1.117-1.238,2.742-1.722,4.028-2.712c0.821-0.632,1.381,0.041,1.942,0.478C213.048,371.317,214.366,372.397,215.694,373.464z"
					/>
				<path style="fill:#AD9680;" d="M153.861,258.818c36.069,19.882,105.898,73.301,100.084,109.33
					c-2.46-2.93-1.891-11.257-5.8-16.031c-20.276-34.547-110.12-29.058-133.113-35.071c44.578,1.391,115.476,7.617,132.189,29.344
					C223.052,301.38,184.235,283.248,153.861,258.818z"/>
				<path style="fill:#92806D;" d="M270.245,347.919c15.609-19.895,32.587-40.926,54.637-54.613
					c-43.103,29.694-73.303,92.463-68.258,71.027c4.573-49.426-55.628-100.606-77.661-124.581c-1.473-0.784-5.922-6.313-1.342-2.895
					c40.049,38.735,84.953,85.647,81.124,124.281C257.152,368.597,266.144,349.634,270.245,347.919z"/>
			</g>
			<g>
				<path style="fill:#F6F7E0;" d="M355.761,117.434c0.582-1.843,1.608-3.276,3.359-4.258c12.146-6.812,24.28-13.647,36.375-20.549
					c1.254-0.716,1.934-0.608,2.541,0.608c1.102,0.816,1.804,1.943,2.463,3.114c9.539,16.961,19.079,33.921,28.688,50.842
					c0.652,1.148,1.516,2.252,1.336,3.715c-0.37,1.206-1.46,1.638-2.414,2.184c-10.99,6.285-22.048,12.45-33.08,18.662
					c-2.549,1.435-4.911,2.85-5.333,6.077c-0.039,0.295-0.295,0.507-0.559,0.664c-1.42-0.24-1.72-1.539-2.287-2.523
					c-6.378-11.081-12.553-22.277-18.908-33.371c-3.511-6.129-6.974-12.284-10.414-18.453c-0.721-1.292-1.493-2.579-1.839-4.05
					C355.322,119.199,355.316,118.31,355.761,117.434z"/>
				<path style="fill:#F6F7E0;" d="M346.126,120.666c1.012-0.822,2.138-1.438,3.366-1.872c0.547,0.179,0.794,0.638,1.046,1.101
					c6.203,11.393,12.727,22.606,19.059,33.926c3.967,7.091,8.101,14.087,11.97,21.232c0.578,1.067,1.128,2.125,0.606,3.384
					c-0.469,0.921-1.34,1.371-2.182,1.849c-10.895,6.181-21.83,12.292-32.754,18.422c-1.124,0.631-2.234,1.633-3.719,0.876
					c-1.73-1.617-2.557-3.827-3.683-5.818c-9.094-16.085-18.204-32.161-27.246-48.275c-0.618-1.102-1.318-2.178-1.267-3.522
					c-0.161-0.683-1.005-1.284,0.249-1.977c9.74-5.377,19.436-10.833,29.146-16.265c0.748,0.132,1.092,0.725,1.421,1.299
					c2.134,3.721,4.262,7.446,6.369,11.184c0.4,0.71,0.753,1.452,0.588,2.315c-0.432,1.064-1.444,1.456-2.337,1.97
					c-6.651,3.826-13.364,7.545-19.997,11.404c6.531-3.558,12.989-7.248,19.463-10.907c1.083-0.612,2.097-1.466,3.465-1.423
					c1.285,0.692,1.827,1.79,1.762,3.219c-1.251,2.012-3.459,2.742-5.367,3.784c-5.674,3.098-11.203,6.449-16.869,9.558
					c5.934-3.223,11.837-6.5,17.703-9.848c1.656-0.945,3.218-2.139,5.171-2.5c1.321,0.656,1.851,1.762,1.818,3.188
					c-0.561,1.368-1.875,1.872-3.019,2.525c-6.086,3.473-12.182,6.93-18.317,10.317c-0.257,0.142-0.529,0.266-0.769,0.658
					c6.489-3.625,12.807-7.293,19.211-10.806c1.153-0.633,2.205-1.59,3.684-1.399c1.159,0.769,1.756,1.832,1.698,3.238
					c-0.859,1.425-2.395,1.96-3.732,2.702c-5.651,3.134-11.217,6.422-16.92,9.463c-0.503,0.268-1.039,0.504-1.699,1.232
					c6.858-3.832,13.305-7.634,19.897-11.176c0.967-0.52,1.861-1.266,3.066-1.208c1.287,0.681,1.84,1.762,1.742,3.196
					c-0.68,1.376-2.069,1.87-3.279,2.56c-6.316,3.601-12.668,7.14-18.95,10.801c6.802-3.665,13.477-7.557,20.217-11.331
					c0.835-0.467,1.603-1.12,2.664-0.995c1.2,0.722,1.913,1.725,1.833,3.182c-0.354,1.002-1.247,1.433-2.079,1.913
					c-6.755,3.902-13.632,7.589-20.342,11.57c6.209-3.277,12.266-6.827,18.396-10.248c1.468-0.819,2.796-2.019,4.634-2.009
					c1.027,0.835,2.372,1.315,2.972,2.636c-0.315,0.844-1.073,1.195-1.785,1.592c-7.139,3.985-14.276,7.975-21.345,12.086
					c8.591-4.725,17.077-9.64,25.728-14.259c0.654-0.241,1.318-0.16,1.981-0.054c-2.922-4.761-5.571-9.677-8.308-14.541
					c-4.666-8.29-9.355-16.566-14.033-24.848C346.519,122.821,345.758,121.9,346.126,120.666z"/>
				<path style="fill:#656FCB;" d="M311.323,141.967c7.001,12.342,14.006,24.682,21.001,37.027c3.81,6.725,7.602,13.46,11.402,20.19
					c1.038,1.455,2.211,0.762,3.33,0.167c3.815-2.028,7.54-4.219,11.304-6.339c7.009-3.947,14.007-7.914,21.009-11.873
					c2.245-1.27,4.5-1.788,7.06-1.105c2.182,0.582,4.832-0.985,5.366-3.199c0.551-2.288,1.88-3.757,3.877-4.89
					c10.688-6.066,21.424-12.047,32.089-18.154c1.185-0.679,2.714-1.134,2.532-2.997c-8.64-15.354-17.287-30.703-25.916-46.063
					c-2.144-3.816-4.229-7.664-6.342-11.497c1.861-1.372,2.987-0.884,4.117,1.14c10.424,18.663,20.941,37.274,31.423,55.905
					c1.355,2.408,1.277,2.697-1.225,4.107c-11.026,6.214-22.048,12.436-33.112,18.582c-1.658,0.921-2.614,1.795-2.24,3.937
					c0.354,2.027-0.55,3.789-2.461,4.868c-1.945,1.099-3.844,2.284-5.829,3.305c-1.844,0.948-4.732,0.496-5.965-1.103
					c-0.847-1.098-1.442-0.878-2.385-0.34c-6.663,3.8-13.339,7.579-20.023,11.342c-4.867,2.74-9.801,5.364-14.608,8.206
					c-1.971,1.165-2.943,0.782-4.01-1.157c-3.985-7.243-8.118-14.406-12.187-21.603c-6.376-11.28-12.695-22.592-19.162-33.819
					C309.173,144.527,309.12,143.13,311.323,141.967z"/>
				<path style="fill:#E0E3CD;" d="M381.772,178.31c0.209-0.936-0.131-1.695-0.589-2.519c-5.231-9.403-10.698-18.672-15.834-28.131
					c-4.499-8.286-9.36-16.375-14.057-24.554c-0.781-1.36-1.438-2.777-1.8-4.314c1.385-1.004,2.87-0.623,4.35-0.312
					c1.209-0.529,1.571,0.618,2.25,1.137c2.759,5.502,5.912,10.785,8.913,16.152c3.255,5.82,6.587,11.601,9.809,17.442
					c4.252,7.709,8.652,15.337,12.995,22.997c0.437,0.771,0.92,1.517,1.381,2.274c0.282,0.822-0.434,0.655-0.676,0.529
					c-2-1.039-4.055-0.975-6.159-0.45C382.152,178.611,381.939,178.458,381.772,178.31z"/>
				<path style="fill:#656FCB;" d="M356.091,119.618c-1.028,0.171-1.439-0.879-2.25-1.137c0.408-0.773,1.263-0.726,1.919-1.046
					C355.871,118.162,355.981,118.89,356.091,119.618z"/>
				<path style="fill:#E0E3CD;" d="M381.772,178.31c2.468-1.247,4.871-1.394,7.167,0.409c0.034,0.026,0.145,0.004,0.179-0.033
					c0.045-0.048,0.049-0.134,0.072-0.204c-0.167-3.118,1.315-5.059,4.032-6.565c11.862-6.574,23.644-13.294,35.449-19.972
					c0.574-0.325,1.084-0.764,1.624-1.149c1.434,1.523,0.431,2.218-0.907,2.969c-11.292,6.345-22.552,12.747-33.855,19.072
					c-1.789,1.001-2.773,2.381-3.079,4.359c-0.352,2.279-4.069,4.421-6.177,3.589c-1.927-0.761-3.748-0.598-5.566,0.43
					c-11.213,6.336-22.472,12.589-33.637,19.008c-1.836,1.056-2.742,0.975-3.347-1.038c0.719,0.579,1.278-0.018,1.81-0.317
					c11.914-6.698,23.816-13.417,35.718-20.136C381.445,178.624,381.6,178.452,381.772,178.31z"/>
				<path style="fill:#E0E3CD;" d="M342.762,130.643c0.495,0.751,1.329,1.511-0.22,2.367c-6.841,3.78-13.652,7.615-20.457,11.458
					c-0.868,0.49-1.424,0.544-1.99-0.444c-0.594-1.038-0.081-1.515,0.699-1.957c6.737-3.814,13.474-7.627,20.22-11.425
					C341.517,130.359,342.077,130.017,342.762,130.643z"/>
				<path style="fill:#E0E3CD;" d="M375.994,169.069c0.666,1.129-0.227,1.405-0.929,1.803c-4.013,2.273-8.017,4.562-12.033,6.829
					c-5.505,3.107-11.011,6.211-16.54,9.276c-0.535,0.297-1.234,1.289-1.847,0.168c-0.588-1.074,0.595-1.232,1.12-1.531
					c9.371-5.337,18.765-10.634,28.166-15.919C374.548,169.348,375.168,168.851,375.994,169.069z"/>
				<path style="fill:#E0E3CD;" d="M342.314,181.942c2.469-1.439,4.76-2.817,7.091-4.124c7.514-4.214,15.042-8.403,22.569-12.594
					c0.523-0.291,1.077-1.097,1.675-0.179c0.598,0.918-0.333,1.16-0.845,1.451c-8.399,4.765-16.811,9.506-25.221,14.25
					c-1.358,0.766-2.717,1.533-4.089,2.274c-0.373,0.201-0.818,0.485-1.182-0.02C342.013,182.586,342.037,182.169,342.314,181.942z"
					/>
				<path style="fill:#E0E3CD;" d="M378.491,173.44c0.703,1.239-0.389,1.431-1.02,1.791c-3.751,2.139-7.522,4.243-11.287,6.357
					c-5.649,3.171-11.295,6.348-16.954,9.501c-0.592,0.33-1.377,1.213-1.916,0.337c-0.633-1.028,0.581-1.339,1.221-1.701
					c9.397-5.317,18.803-10.616,28.229-15.881C377.252,173.572,377.776,172.813,378.491,173.44z"/>
				<path style="fill:#E0E3CD;" d="M364.757,163.535c0.946-0.242,1.867-0.063,2.784,0.17c-8.607,4.878-17.209,9.762-25.826,14.62
					c-0.528,0.298-1.283,0.977-1.75,0.158c-0.54-0.946,0.48-1.209,1.088-1.552C348.951,172.462,356.855,167.999,364.757,163.535z"/>
				<path style="fill:#E0E3CD;" d="M360.919,159.937c0.31,0.502,0.62,1.004,0.93,1.506c-7.081,3.949-14.161,7.899-21.243,11.845
					c-0.585,0.326-1.18,0.635-1.774,0.944c-0.489,0.255-0.992,0.881-1.495,0.052c-0.487-0.801,0.207-1.028,0.71-1.314
					c3.04-1.725,6.09-3.434,9.126-5.166C351.76,165.189,356.338,162.56,360.919,159.937z"/>
				<path style="fill:#E0E3CD;" d="M348.855,138.541c0.251,0.435,0.502,0.869,0.753,1.304c-7.558,4.294-15.116,8.585-22.671,12.883
					c-0.556,0.316-1.119,1.006-1.66,0.073c-0.52-0.897,0.291-1.131,0.862-1.453C333.711,147.08,341.283,142.81,348.855,138.541z"/>
				<path style="fill:#E0E3CD;" d="M356.147,151.466c0.261,0.431,0.522,0.863,0.783,1.294c-7.514,4.241-15.028,8.482-22.542,12.722
					c-0.575,0.325-1.262,0.882-1.747,0.089c-0.542-0.887,0.427-1.11,0.95-1.406C341.104,159.921,348.627,155.696,356.147,151.466z"
					/>
				<path style="fill:#E0E3CD;" d="M351.23,142.764c0.242,0.438,0.485,0.876,0.727,1.314c-6.048,3.475-12.094,6.955-18.148,10.419
					c-1.481,0.848-2.986,1.655-4.492,2.458c-0.53,0.283-1.118,1.065-1.67,0.11c-0.54-0.934,0.426-1.158,0.922-1.442
					c4.575-2.622,9.178-5.194,13.767-7.791C345.306,146.152,348.266,144.454,351.23,142.764z"/>
				<path style="fill:#E0E3CD;" d="M353.61,146.995c0.309,0.509,0.618,1.018,0.927,1.526c-7.446,4.165-14.891,8.334-22.342,12.49
					c-0.597,0.333-1.353,1.165-1.901,0.265c-0.544-0.894,0.502-1.215,1.105-1.559c7.09-4.044,14.189-8.073,21.284-12.11
					C353.005,147.425,353.302,147.2,353.61,146.995z"/>
				<path style="fill:#E0E3CD;" d="M358.538,155.707c0.251,0.429,0.501,0.857,0.752,1.286c-7.612,4.341-15.224,8.68-22.835,13.023
					c-0.503,0.287-1.048,0.833-1.482,0.001c-0.573-1.098,0.565-1.262,1.084-1.559c6.315-3.617,12.664-7.176,19.003-10.754
					C356.224,157.046,357.379,156.373,358.538,155.707z"/>
				<path style="fill:#E0E3CD;" d="M322.865,147.582c0.825-0.499,1.637-1.021,2.476-1.494c6.079-3.423,12.154-6.853,18.264-10.222
					c0.506-0.279,1.241-1.359,1.824-0.264c0.446,0.839-0.461,1.267-1.109,1.631c-6.666,3.744-13.328,7.495-20.012,11.207
					c-0.428,0.238-0.926,0.985-1.531,0.26C322.485,148.352,322.325,147.906,322.865,147.582z"/>
				<path style="fill:#FD4D0A;" d="M346.126,120.666c8.062,14.26,16.123,28.521,24.208,42.823c-0.534,0.265-2.195,1.003-4.329,0.609
					c-2.305-0.426-3.644-1.893-4.014-2.328c-2.539-3.955-5.075-8.077-7.59-12.368c-5.179-8.835-9.711-17.434-13.682-25.675
					C342.409,122.508,344.229,121.519,346.126,120.666z"/>
			</g>
			<g>
				<path style="fill:#656FCB;" d="M475.807,217.07c-8.553-6.992-17.086-14.007-25.626-21.015l0,0
					c-4.262-3.691-8.59-7.299-13.143-10.631c-1.439-0.651-1.81,0.692-2.376,1.398c-5.851,7.305-11.656,14.647-17.464,21.986
					c-8.382,10.592-16.63,21.293-25.155,31.772c-0.823,1.012-1.784,2.006-1.65,3.49c0.117,0.432,0.299,0.853,0.628,1.142
					c3.562,3.13,7.233,6.127,11.017,8.984c0.485,0.366,1.039,0.61,1.647,0.443c0.251,1.239,1.163,2.008,2.078,2.752
					c8.223,6.681,16.459,13.348,24.741,19.956c0.68,0.542,1.307,1.234,2.324,1.022c14.477-19.317,28.945-38.64,43.447-57.938
					C477.327,219.034,477.052,218.088,475.807,217.07z M446.053,248.439c-2.491,3.101-4.747,6.387-7.069,9.621
					c-2.033,2.832-2.297,2.877-4.953,0.764c-5.468-4.35-10.873-8.778-16.322-13.152c-1.274-1.022-2.462-2.214-4.111-2.657
					c-0.047-0.927-0.945-1.376-1.547-1.939c-1.804-1.686-3.817-3.129-5.72-4.702c-1.452-1.201-1.658-2.285-0.369-3.754
					c2.151-2.452,4.008-5.147,6.084-7.665c4.091-4.961,4.063-4.927,9.136-0.844c1.264,1.017,2.279,2.621,4.219,2.468
					c0.125,1.495,1.353,2.204,2.367,3.027c5.905,4.794,11.748,9.666,17.669,14.44C447.143,245.421,447.529,246.603,446.053,248.439z
					"/>
				<path style="fill:#33479D;" d="M434.347,183.23c-0.375-0.372-0.723-0.776-1.129-1.11c-4.842-3.987-7.071-3.752-10.944,1.153
					c-5.251,6.649-10.503,13.297-15.743,19.955c-9.115,11.583-18.221,23.173-27.331,34.761c-0.022,0.527,0.332,0.884,0.749,0.878
					c2.637-0.038,4.709,1.475,6.975,2.448c0.179,0.014,0.34-0.001,0.503-0.013c0.985,1.022,2.324,1.638,3.284,2.688
					c5.487-6.999,10.967-14.003,16.462-20.996c4.239-5.394,8.477-10.788,12.748-16.157c5.689-7.151,11.41-14.277,17.117-21.414
					C436.296,184.503,435.407,183.762,434.347,183.23z"/>
				<path style="fill:#F6F7E0;" d="M383.339,241.509c-1.308-1.06-2.642-1.009-3.665,0.161c-0.222,0.031-0.448,0.072-0.682,0.138
					c-3.736,2.464-3.985,5.22-0.72,8.091c2.59,2.278,5.367,4.326,8.039,6.504c11.439,9.327,22.877,18.654,34.367,27.919
					c1.118,0.901,2.145,2.206,3.906,1.812c1.257-1.658,2.515-3.316,3.772-4.975c0.505-0.593,1.01-1.187,1.515-1.78
					C414.367,266.748,398.878,254.098,383.339,241.509z"/>
				<path style="fill:#FD4D0A;" d="M413.532,243.602c-2.893-2.412-5.75-4.867-8.694-7.215c-1.278-1.02-1.579-1.912-0.474-3.269
					c3.329-4.088,6.647-8.189,9.849-12.377c1.29-1.688,2.297-1.683,3.838-0.321c2.434,2.151,5.045,4.102,7.581,6.138
					c7.199,5.952,14.346,11.967,21.638,17.802c1.54,1.233,1.432,2.024,0.419,3.37c-3.184,4.228-6.382,8.451-9.402,12.796
					c-1.174,1.689-1.926,1.351-3.267,0.262C427.899,255.008,420.703,249.321,413.532,243.602z"/>
				<path style="fill:#656FCB;" d="M391.078,262.814c-4.233-4.182-17.364-12.104-17-16.697c0.943-4.645,5.21-10.299,10.502-7.058
					c7.68,4.915,13.49,11.23,21.135,17.002c8.577,8.362,20.393,14.434,26.682,22.972c-4.039,3.154-13.226-8.652-16.377-10.006
					c-10.179-8.184-19.846-16.063-29.994-24.292c-1.838-1.313-3.413-3.731-6.046-2.824c-8.095,4.833,1.384,8.689,5.261,12.469
					c13.367,11.62,27.941,21.184,40.038,33.287C425.84,293.843,390.467,263.509,391.078,262.814z"/>
			</g>
			<g>
				<path style="fill:#FD4D0A;" d="M192.972,98.141c1.712,3.066,3.424,6.132,5.136,9.197c0.406,0.621,0.515,1.311,0.387,2.021
					c-0.53,2.959,0.881,4.831,3.119,6.626c3.063,2.456,6.014,2.995,9.324,0.738c4.935-0.374,9.618,1.164,14.373,2.023
					c14.154,2.558,28.311,5.094,42.458,7.692c7.87,1.445,15.742,2.87,23.618,4.28c1.098,0.197,2.204,0.351,3.132,1.049
					c1.287,0.281,2.565,0.622,3.864,0.826c1.27,0.199,2.28,0.705,1.966,2.119c-0.282,1.271-1.434,1.221-2.5,1.031
					c-6.504-1.163-13.01-2.32-19.515-3.483c-20.909-3.736-41.821-7.46-62.723-11.233c-1.754-0.317-3.296-0.39-4.945,0.565
					c-6.336,3.672-17.853-4.534-16.467-11.755c0.354-1.845,0.098-3.408-1.208-4.771c-2.875-2.118-4.211-5.057-4.549-8.528
					c-12.004-21.382-24.009-42.764-36.012-64.147c-0.557-0.992-1.249-2.162,0.023-2.948c1.432-0.885,2.158,0.273,2.783,1.418
					c0.678,1.241,1.438,2.436,2.162,3.651c1.15,0.55,1.833,1.53,2.43,2.603c9.409,16.911,19.015,33.711,28.299,50.691
					c0.887,2.4,2.576,4.355,3.688,6.631C192.391,95.616,193.153,96.728,192.972,98.141z"/>
				<path style="fill:#656FCB;" d="M188.442,96.538c1.517,2.843,3.033,5.686,4.549,8.528c-3.216,4.517-6.431,9.035-9.799,13.767
					c-1.262-1.793-0.076-4.301-1.597-4.947c-1.372-0.582-3.306,0.161-5.782,0.394C180.275,108.012,184.358,102.275,188.442,96.538z"
					/>
				<g>
					<path style="fill:#F7F7E0;" d="M168.748,38.095c-0.496-0.652-0.983-1.239-1.875-1.431c-3.166-0.683-6.318-1.429-9.475-2.151
						c10.086,18.05,20.172,36.099,30.258,54.148c4.065,0.268,7.038-1.753,9.623-4.589C189.63,67.591,179.728,52.509,168.748,38.095z
						"/>
					<path style="fill:#F7F7E0;" d="M293.418,130.017C293.418,130.017,293.418,130.017,293.418,130.017
						c-2.072-4.706-5.078-7.916-10.65-8.711c-5.201-0.742-10.245-2.542-15.384-3.766c-16.321-3.888-32.636-7.826-49.443-9.075
						c-0.663-0.049-1.486,0.303-2.326-0.642c7.804-0.599,15.166,0.157,22.508,1.301c16.407,2.558,32.477,6.553,48.364,11.334
						c0.834,0.251,2.08,1.209,2.563-0.328c0.363-1.152-0.886-1.111-1.602-1.321c-20.112-5.905-40.332-11.3-61.333-13.031
						c-0.553-0.046-1.429,0.384-1.688-0.793c0.957-0.117,1.853-0.255,2.755-0.333c13.981-1.198,27.838,0.184,41.653,2.129
						c6.138,0.864,12.229,2.059,18.347,3.07c0.711,0.118,1.74,0.665,1.937-0.645c0.154-1.028-0.819-0.969-1.448-1.182
						c-0.286-0.097-0.599-0.112-0.899-0.17c-16.5-3.174-33.081-5.633-49.941-5.543c-3.683,0.02-7.366,0.219-11.049,0.335
						c0.702-0.581,1.446-0.814,2.206-0.96c11.745-2.257,23.63-2.775,35.544-2.606c7.42,0.105,14.835,0.59,22.254,0.856
						c0.679,0.024,1.77,0.636,1.975-0.657c0.258-1.626-1.102-1.099-1.861-1.188c-1.715-0.2-3.443-0.314-5.169-0.403
						c-18.317-0.944-36.613-1.257-54.717,2.437c-3.398,0.693-6.716,1.777-10.745,2.862c5.834-4.737,11.43-8.566,17.25-12.09
						c13.425-8.129,27.522-14.909,41.928-21.084c0.826-0.354,2.403-0.462,1.77-1.898c-0.546-1.238-1.606-0.211-2.348,0.091
						c-8.198,3.341-16.218,7.081-24.104,11.093c-13.621,6.929-26.838,14.515-38.739,25.009c1.242-3.989,2.517-7.413,3.37-10.94
						c4.669-19.29,4.808-38.88,3.667-58.542c-0.071-1.218-0.177-2.435-0.28-3.651c-0.043-0.502-0.071-1.09-0.762-1.082
						c-0.679,0.008-1.174,0.338-1.142,1.117c0.025,0.609,0.095,1.216,0.134,1.825c1.03,16.072,1.023,32.118-1.236,48.105
						c-0.256,1.81-0.586,3.61-0.914,5.409c-0.306,1.674-0.656,3.34-0.987,5.01c0.82-20.012-1.218-39.705-4.411-59.314
						c-0.162-0.997,0.398-3.014-1.427-2.738c-1.609,0.243-0.502,1.878-0.389,2.816c0.82,6.764,1.92,13.497,2.607,20.274
						c1.529,15.092,2.678,30.206,0.246,45.323c-0.337,2.095-0.554,4.265-1.919,6.361c-0.997-4.377-1.766-8.469-2.867-12.47
						c-5.469-19.881-13.637-38.732-22.176-57.431c-0.387-0.848-0.407-2.784-1.931-2.091c-1.46,0.664-0.042,1.939,0.257,2.885
						c0.334,1.059,0.906,2.041,1.365,3.061c7.051,15.686,13.725,31.523,18.865,47.958c1.341,4.287,2.638,8.602,2.822,13.216
						c-0.847-2.014-1.693-4.027-2.54-6.041c-3.582,0.504-6.743,1.726-8.647,5.08c0.781,3.758,2.638,6.943,5.18,9.762
						c4.125,2.176,8.361,4.182,11.669,7.612c0.159,0.092,0.323,0.162,0.488,0.231c0.015,0.68,0.723,0.991,1.337,1.353
						c15.403,2.717,30.803,5.446,46.209,8.146c12.299,2.155,24.604,4.275,36.906,6.411
						C294.152,131.184,293.785,130.601,293.418,130.017z"/>
				</g>
				<path style="fill:#656FCB;" d="M187.656,88.66c3.375-1.18,6.44-3.007,9.623-4.589c1.951,2.77,3.113,5.894,4.098,9.099
					c-2.774,1.705-5.892,2.828-8.405,4.971C191.153,95.007,189.092,92.009,187.656,88.66z"/>
				<path style="fill:#656FCB;" d="M210.28,115.098c0.374,0.705,0.748,1.409,1.123,2.113c-3.143,2.578-5.654,2.784-8.725,0.714
					c-5.442-3.667-6.171-5.357-4.57-10.589C202.81,108.914,206.949,111.372,210.28,115.098z"/>
			</g>
		</g>
	</g>
	<g>
		<g>
			
				<text transform="matrix(1 0 0 1 153.0134 436.49)" style="fill:#CCD7F3; font-family:'Montserrat-ExtraBold'; font-size:27.8942px;">International</text>
			<text transform="matrix(1 0 0 1 163.3156 458.3132)" style="fill:#656FCB; font-family:'Yellowtail'; font-size:36.4913px;">Literacy Day</text>
		</g>
		<g>
			<g>
				<g>
					<path style="fill:#CCD7F3;" d="M135.225,463.071c0.171,0.145,0.417,0.254,0.437,0.395c0.03,0.211-0.033,0.512-0.176,0.653
						c-0.304,0.299-0.684,0.521-1.034,0.773c-2.616,1.884-5.231,3.767-7.848,5.649c-0.165,0.119-0.332,0.291-0.514,0.316
						c-0.191,0.026-0.478-0.037-0.583-0.171c-0.105-0.133-0.091-0.422-0.026-0.607c0.052-0.147,0.251-0.25,0.397-0.355
						c2.887-2.083,5.775-4.165,8.666-6.243C134.74,463.339,134.96,463.229,135.225,463.071z"/>
					<path style="fill:#CCD7F3;" d="M124.04,445.428c1.749,0,3.498,0.001,5.247-0.001c0.408-0.001,0.833,0.018,0.83,0.557
						c-0.003,0.55-0.442,0.538-0.842,0.535c-3.475-0.022-6.949-0.044-10.424-0.063c-0.413-0.002-0.845-0.043-0.842-0.559
						c0.003-0.528,0.449-0.532,0.853-0.532c1.726,0.004,3.452,0.002,5.177,0.002C124.04,445.387,124.04,445.407,124.04,445.428z"/>
					<path style="fill:#CCD7F3;" d="M136.052,429.596c-0.235-0.145-0.416-0.238-0.577-0.358c-2.428-1.798-4.851-3.602-7.28-5.399
						c-0.34-0.251-0.631-0.534-0.315-0.948c0.297-0.389,0.638-0.178,0.949,0.053c2.444,1.815,4.895,3.619,7.323,5.454
						c0.206,0.156,0.322,0.504,0.357,0.778C136.524,429.293,136.221,429.449,136.052,429.596z"/>
					<path style="fill:#CCD7F3;" d="M127.678,436.19c-0.68-0.228-1.218-0.409-1.755-0.588c-1.312-0.437-2.624-0.875-3.937-1.31
						c-0.359-0.119-0.639-0.31-0.506-0.735c0.132-0.421,0.452-0.437,0.827-0.311c1.805,0.607,3.619,1.189,5.412,1.829
						c0.212,0.076,0.401,0.445,0.432,0.699C128.167,435.903,127.812,436.08,127.678,436.19z"/>
					<path style="fill:#CCD7F3;" d="M141.608,432.52c0.221,0.125,0.387,0.198,0.529,0.303c1.478,1.092,2.952,2.189,4.428,3.285
						c0.304,0.226,0.624,0.477,0.334,0.889c-0.307,0.437-0.658,0.234-0.993-0.017c-1.473-1.099-2.958-2.182-4.415-3.302
						c-0.19-0.146-0.309-0.471-0.323-0.721C141.16,432.823,141.446,432.672,141.608,432.52z"/>
					<path style="fill:#CCD7F3;" d="M120.976,418.266c0.157-0.196,0.252-0.429,0.402-0.473c0.184-0.053,0.459-0.012,0.617,0.1
						c0.962,0.681,1.901,1.395,2.848,2.097c0.583,0.432,1.169,0.861,1.75,1.295c0.295,0.22,0.56,0.534,0.235,0.835
						c-0.166,0.153-0.664,0.172-0.859,0.034c-1.537-1.085-3.04-2.218-4.544-3.349C121.258,418.679,121.149,418.478,120.976,418.266z
						"/>
					<path style="fill:#CCD7F3;" d="M147.015,454.593c0.091,0.205,0.257,0.411,0.254,0.615c-0.003,0.215-0.109,0.499-0.27,0.628
						c-0.618,0.496-1.276,0.943-1.92,1.406c-0.883,0.636-1.769,1.269-2.65,1.907c-0.317,0.229-0.659,0.408-0.953,0.024
						c-0.301-0.392-0.028-0.666,0.291-0.896c1.509-1.086,3.016-2.175,4.528-3.257c0.142-0.101,0.313-0.161,0.471-0.241
						C146.849,454.718,146.932,454.656,147.015,454.593z"/>
					<path style="fill:#CCD7F3;" d="M144.52,450.407c0.114,0.122,0.428,0.315,0.411,0.473c-0.024,0.23-0.243,0.552-0.455,0.631
						c-0.934,0.348-1.896,0.622-2.847,0.925c-0.864,0.275-1.73,0.544-2.591,0.829c-0.379,0.126-0.709,0.086-0.834-0.319
						c-0.128-0.413,0.148-0.61,0.519-0.728c1.794-0.568,3.585-1.147,5.378-1.72C144.187,450.471,144.278,450.459,144.52,450.407z"/>
					<path style="fill:#CCD7F3;" d="M140.554,445.54c0.956,0,1.911,0.004,2.867-0.002c0.4-0.003,0.737,0.155,0.65,0.568
						c-0.044,0.21-0.418,0.497-0.646,0.501c-1.888,0.028-3.776,0-5.665-0.015c-0.372-0.003-0.706-0.093-0.708-0.549
						c-0.002-0.461,0.324-0.539,0.703-0.537c0.933,0.004,1.866,0.001,2.798,0.001C140.554,445.518,140.554,445.529,140.554,445.54z"
						/>
					<path style="fill:#CCD7F3;" d="M127.827,455.72c0.121,0.114,0.371,0.246,0.425,0.434c0.046,0.159-0.107,0.403-0.225,0.572
						c-0.065,0.093-0.238,0.118-0.367,0.159c-1.727,0.554-3.455,1.103-5.181,1.66c-0.397,0.128-0.799,0.213-0.949-0.299
						c-0.138-0.47,0.225-0.625,0.595-0.743c1.729-0.549,3.456-1.102,5.184-1.651C127.439,455.81,127.573,455.784,127.827,455.72z"/>
					<path style="fill:#CCD7F3;" d="M112.89,445.326c0.907,0,1.814,0.002,2.721-0.001c0.393-0.002,0.782,0.065,0.798,0.534
						c0.017,0.538-0.411,0.56-0.82,0.557c-1.814-0.013-3.628-0.025-5.442-0.032c-0.386-0.002-0.778-0.027-0.789-0.523
						c-0.012-0.539,0.397-0.574,0.812-0.571c0.907,0.006,1.814,0.002,2.721,0.002C112.89,445.303,112.89,445.314,112.89,445.326z"/>
					<path style="fill:#CCD7F3;" d="M144.29,441.749c-0.923-0.31-1.697-0.571-2.471-0.831c-1.076-0.361-2.15-0.727-3.228-1.078
						c-0.368-0.12-0.647-0.313-0.521-0.729c0.124-0.408,0.451-0.448,0.831-0.319c1.805,0.612,3.62,1.198,5.413,1.841
						c0.211,0.076,0.406,0.439,0.433,0.688C144.761,441.46,144.415,441.639,144.29,441.749z"/>
					<path style="fill:#CCD7F3;" d="M128.947,435.491c0.273,0.079,0.405,0.112,0.534,0.155c1.653,0.553,3.305,1.108,4.958,1.659
						c0.383,0.127,0.791,0.26,0.622,0.777c-0.169,0.517-0.57,0.388-0.958,0.257c-1.695-0.57-3.399-1.115-5.082-1.717
						c-0.229-0.082-0.443-0.412-0.504-0.666C128.487,435.831,128.822,435.618,128.947,435.491z"/>
					<path style="fill:#CCD7F3;" d="M128.579,455.678c0.113-0.089,0.285-0.312,0.507-0.385c1.747-0.577,3.504-1.126,5.258-1.681
						c0.354-0.112,0.702-0.136,0.835,0.305c0.128,0.425-0.142,0.624-0.506,0.74c-1.732,0.551-3.461,1.111-5.196,1.652
						C128.918,456.484,128.567,456.284,128.579,455.678z"/>
					<path style="fill:#CCD7F3;" d="M138.475,460.736c0.5-0.352,0.808-0.636,1.171-0.78c0.102-0.04,0.368,0.335,0.558,0.52
						c-0.306,0.262-0.586,0.572-0.932,0.758C139.169,461.29,138.88,460.999,138.475,460.736z"/>
					<path style="fill:#CCD7F3;" d="M134.668,446.822c-0.333-0.354-0.666-0.546-0.704-0.784c-0.074-0.468,0.323-0.572,0.716-0.571
						c0.384,0.001,0.806,0.078,0.733,0.55C135.374,446.266,135.015,446.464,134.668,446.822z"/>
					<path style="fill:#CCD7F3;" d="M139.72,432.549c-0.341-0.462-0.605-0.745-0.755-1.079c-0.034-0.076,0.441-0.504,0.489-0.472
						c0.317,0.205,0.619,0.465,0.832,0.772C140.333,431.838,140.004,432.167,139.72,432.549z"/>
					<path style="fill:#CCD7F3;" d="M136.408,438.641c0.21-0.147,0.473-0.456,0.617-0.408c0.283,0.095,0.5,0.388,0.744,0.599
						c-0.17,0.175-0.358,0.507-0.508,0.491c-0.296-0.031-0.571-0.256-0.855-0.401C136.407,438.829,136.407,438.735,136.408,438.641z
						"/>
					<path style="fill:#CCD7F3;" d="M136.535,453.115c0.282-0.146,0.556-0.373,0.851-0.405c0.152-0.016,0.342,0.314,0.515,0.487
						c-0.244,0.213-0.459,0.508-0.742,0.605c-0.144,0.049-0.409-0.258-0.62-0.404C136.537,453.303,136.536,453.209,136.535,453.115z
						"/>
				</g>
			</g>
			<g>
				<g>
					<path style="fill:#CCD7F3;" d="M364.775,425.561c-0.171-0.145-0.417-0.254-0.437-0.395c-0.03-0.211,0.033-0.512,0.176-0.653
						c0.304-0.299,0.684-0.521,1.034-0.773c2.616-1.884,5.231-3.767,7.848-5.649c0.165-0.119,0.332-0.291,0.514-0.315
						c0.191-0.026,0.478,0.037,0.583,0.171c0.105,0.133,0.091,0.422,0.026,0.607c-0.052,0.147-0.251,0.25-0.397,0.355
						c-2.887,2.083-5.775,4.165-8.666,6.243C365.26,425.294,365.04,425.403,364.775,425.561z"/>
					<path style="fill:#CCD7F3;" d="M375.96,443.205c-1.749,0-3.498-0.001-5.247,0.001c-0.408,0.001-0.833-0.018-0.83-0.557
						c0.003-0.55,0.442-0.538,0.842-0.535c3.475,0.022,6.949,0.044,10.424,0.063c0.413,0.002,0.845,0.043,0.842,0.559
						c-0.003,0.528-0.449,0.532-0.853,0.532c-1.726-0.004-3.452-0.002-5.177-0.002C375.96,443.245,375.96,443.225,375.96,443.205z"
						/>
					<path style="fill:#CCD7F3;" d="M363.948,459.036c0.235,0.145,0.416,0.238,0.577,0.358c2.428,1.798,4.851,3.602,7.28,5.399
						c0.34,0.251,0.631,0.534,0.315,0.948c-0.297,0.389-0.638,0.178-0.949-0.053c-2.444-1.815-4.895-3.619-7.323-5.454
						c-0.206-0.156-0.322-0.504-0.357-0.778C363.476,459.34,363.779,459.183,363.948,459.036z"/>
					<path style="fill:#CCD7F3;" d="M372.322,452.442c0.68,0.228,1.218,0.409,1.755,0.588c1.312,0.437,2.624,0.875,3.937,1.31
						c0.359,0.119,0.639,0.31,0.506,0.735c-0.132,0.421-0.452,0.437-0.827,0.311c-1.805-0.607-3.619-1.189-5.412-1.829
						c-0.212-0.076-0.401-0.445-0.432-0.699C371.833,452.729,372.189,452.553,372.322,452.442z"/>
					<path style="fill:#CCD7F3;" d="M358.392,456.112c-0.221-0.125-0.387-0.198-0.529-0.303c-1.478-1.092-2.952-2.189-4.428-3.285
						c-0.304-0.226-0.624-0.477-0.334-0.889c0.307-0.437,0.658-0.234,0.993,0.017c1.473,1.099,2.958,2.182,4.415,3.302
						c0.19,0.146,0.31,0.471,0.323,0.721C358.84,455.81,358.554,455.961,358.392,456.112z"/>
					<path style="fill:#CCD7F3;" d="M379.024,470.366c-0.157,0.196-0.252,0.429-0.402,0.473c-0.184,0.053-0.459,0.012-0.617-0.1
						c-0.962-0.681-1.901-1.395-2.848-2.097c-0.583-0.432-1.169-0.861-1.75-1.295c-0.295-0.22-0.56-0.534-0.235-0.835
						c0.166-0.153,0.664-0.172,0.859-0.034c1.537,1.085,3.04,2.218,4.544,3.349C378.742,469.953,378.851,470.155,379.024,470.366z"
						/>
					<path style="fill:#CCD7F3;" d="M352.985,434.039c-0.091-0.205-0.257-0.411-0.254-0.615c0.003-0.215,0.109-0.499,0.27-0.628
						c0.618-0.496,1.276-0.943,1.92-1.406c0.883-0.636,1.769-1.269,2.65-1.907c0.317-0.229,0.659-0.408,0.953-0.024
						c0.301,0.392,0.028,0.666-0.291,0.896c-1.509,1.086-3.016,2.175-4.528,3.257c-0.142,0.101-0.313,0.161-0.471,0.241
						C353.151,433.914,353.068,433.977,352.985,434.039z"/>
					<path style="fill:#CCD7F3;" d="M355.48,438.225c-0.114-0.122-0.428-0.315-0.411-0.473c0.024-0.23,0.243-0.552,0.455-0.631
						c0.934-0.348,1.896-0.623,2.847-0.925c0.864-0.275,1.73-0.544,2.591-0.829c0.379-0.126,0.709-0.086,0.834,0.319
						c0.128,0.413-0.148,0.61-0.519,0.728c-1.794,0.568-3.585,1.147-5.378,1.72C355.813,438.162,355.722,438.173,355.48,438.225z"/>
					<path style="fill:#CCD7F3;" d="M359.446,443.092c-0.956,0-1.911-0.004-2.867,0.002c-0.4,0.003-0.737-0.155-0.65-0.568
						c0.044-0.21,0.418-0.497,0.646-0.501c1.888-0.028,3.776,0,5.665,0.015c0.372,0.003,0.706,0.093,0.708,0.549
						c0.002,0.461-0.324,0.539-0.703,0.537c-0.933-0.004-1.866-0.001-2.798-0.001C359.446,443.115,359.446,443.103,359.446,443.092z
						"/>
					<path style="fill:#CCD7F3;" d="M372.173,432.912c-0.121-0.114-0.371-0.246-0.425-0.434c-0.046-0.159,0.107-0.403,0.225-0.572
						c0.065-0.093,0.238-0.118,0.367-0.159c1.727-0.554,3.455-1.103,5.181-1.66c0.397-0.128,0.799-0.213,0.949,0.299
						c0.138,0.47-0.225,0.625-0.595,0.743c-1.729,0.549-3.456,1.102-5.184,1.651C372.561,432.822,372.427,432.848,372.173,432.912z"
						/>
					<path style="fill:#CCD7F3;" d="M387.11,443.307c-0.907,0-1.814-0.002-2.721,0.001c-0.393,0.002-0.782-0.065-0.798-0.535
						c-0.017-0.538,0.411-0.56,0.82-0.557c1.814,0.013,3.628,0.025,5.442,0.032c0.386,0.002,0.778,0.027,0.789,0.523
						c0.012,0.539-0.397,0.574-0.812,0.571c-0.907-0.006-1.814-0.002-2.721-0.002C387.11,443.33,387.11,443.318,387.11,443.307z"/>
					<path style="fill:#CCD7F3;" d="M355.71,446.884c0.923,0.31,1.697,0.571,2.471,0.831c1.076,0.361,2.15,0.727,3.228,1.078
						c0.368,0.12,0.647,0.313,0.521,0.729c-0.124,0.408-0.451,0.448-0.831,0.319c-1.805-0.612-3.62-1.198-5.413-1.841
						c-0.211-0.076-0.406-0.439-0.433-0.688C355.239,447.172,355.585,446.994,355.71,446.884z"/>
					<path style="fill:#CCD7F3;" d="M371.053,453.141c-0.273-0.079-0.405-0.112-0.534-0.155c-1.653-0.552-3.305-1.108-4.958-1.659
						c-0.383-0.127-0.791-0.26-0.622-0.777c0.169-0.517,0.57-0.388,0.958-0.257c1.695,0.571,3.399,1.115,5.082,1.717
						c0.229,0.082,0.443,0.412,0.504,0.666C371.513,452.801,371.178,453.014,371.053,453.141z"/>
					<path style="fill:#CCD7F3;" d="M371.421,432.954c-0.113,0.089-0.285,0.312-0.507,0.385c-1.747,0.577-3.504,1.126-5.258,1.681
						c-0.354,0.112-0.702,0.136-0.835-0.305c-0.128-0.425,0.142-0.624,0.506-0.74c1.732-0.551,3.461-1.111,5.196-1.652
						C371.082,432.149,371.433,432.348,371.421,432.954z"/>
					<path style="fill:#CCD7F3;" d="M361.525,427.896c-0.5,0.352-0.808,0.636-1.171,0.78c-0.102,0.04-0.368-0.335-0.558-0.52
						c0.306-0.262,0.586-0.572,0.932-0.758C360.831,427.342,361.12,427.633,361.525,427.896z"/>
					<path style="fill:#CCD7F3;" d="M365.332,441.81c0.333,0.354,0.666,0.546,0.704,0.784c0.074,0.468-0.323,0.572-0.716,0.571
						c-0.384-0.001-0.806-0.078-0.733-0.55C364.626,442.367,364.985,442.168,365.332,441.81z"/>
					<path style="fill:#CCD7F3;" d="M360.28,456.083c0.341,0.462,0.605,0.745,0.755,1.079c0.034,0.076-0.441,0.504-0.489,0.472
						c-0.317-0.205-0.619-0.465-0.832-0.772C359.667,456.795,359.996,456.466,360.28,456.083z"/>
					<path style="fill:#CCD7F3;" d="M363.592,449.991c-0.21,0.147-0.473,0.456-0.617,0.408c-0.283-0.095-0.5-0.388-0.744-0.599
						c0.17-0.175,0.358-0.507,0.508-0.491c0.296,0.031,0.571,0.256,0.855,0.401C363.593,449.804,363.593,449.898,363.592,449.991z"
						/>
					<path style="fill:#CCD7F3;" d="M363.465,435.518c-0.282,0.146-0.556,0.373-0.851,0.405c-0.152,0.016-0.342-0.314-0.515-0.487
						c0.244-0.213,0.459-0.508,0.742-0.605c0.144-0.049,0.409,0.258,0.62,0.404C363.463,435.329,363.464,435.423,363.465,435.518z"
						/>
				</g>
			</g>
		</g>
	</g>
</g>
</svg>
