<?xml version="1.0" encoding="utf-8"?>
<!-- Generator: Adobe Illustrator 27.5.0, SVG Export Plug-In . SVG Version: 6.00 Build 0)  -->
<svg version="1.1" xmlns="http://www.w3.org/2000/svg" xmlns:xlink="http://www.w3.org/1999/xlink" x="0px" y="0px"
	 viewBox="0 0 750 500" style="enable-background:new 0 0 750 500;" xml:space="preserve">
<g id="BACKGROUND">
	<rect x="0" y="0.193" style="fill:#FEFEFE;" width="749.999" height="500"/>
	<g>
		<path style="fill:#ECF1F7;" d="M238.683,144.494c0.063,2.41,2.633,59.45-54.409,69.358
			c-65.964,11.458-95.655,35.822-92.145,67.833s38.161,139.636,251.862,155.483c210.113,15.582,270.267-82.891,297.511-129.228
			c25.829-43.931,49.77-138.658-8.149-172.956c-57.919-34.298-90.211,22.257-155.094-38.507
			C387.204,11.203,236.05,43.125,238.683,144.494z"/>
		<path style="fill:#ECF1F7;" d="M616.673,397.165c0,0-7.367-2.642-20.543,4.803c-15.511,8.764-33.676,26.483-15.352,35.87
			c18.324,9.388,36.901-8.616,41.305-12.919C630.722,416.479,633.897,401.028,616.673,397.165z"/>
		<path style="fill:#ECF1F7;" d="M78.68,92.469c0,0-28.976,27.962-16.098,56.624s59.562,42.642,99.002-4.194
			c39.44-46.837-9.659-72.702-9.659-72.702S112.485,52.623,78.68,92.469z"/>
	</g>
</g>
<g id="OBJECTS">
	<g>
		<g>
			<path style="fill:#8D9BD9;" d="M218.772,362.331V178.595c0-8.34,6.761-15.1,15.1-15.1h306.664c8.34,0,15.1,6.761,15.1,15.1
				v183.736c0,8.34-6.761,15.1-15.1,15.1H233.872C225.532,377.431,218.772,370.671,218.772,362.331z"/>
			
				<rect x="295.341" y="129.158" transform="matrix(-1.836970e-16 1 -1 -1.836970e-16 658.2838 -117.3572)" style="fill:#FFFFFF;" width="184.959" height="282.61"/>
			<path style="fill:#FFFFFF;" d="M541.33,274.273c-2.104,0-3.81-1.706-3.81-3.81c0-2.104,1.706-3.81,3.81-3.81
				c2.104,0,3.81,1.706,3.81,3.81C545.14,272.567,543.434,274.273,541.33,274.273z"/>
			
				<ellipse transform="matrix(0.0103 -0.9999 0.9999 0.0103 -40.4487 500.0604)" style="fill:#FFFFFF;" cx="232.386" cy="270.463" rx="7.159" ry="7.159"/>
		</g>
		<g>
			<g>
				<path style="fill:none;stroke:#8D9BD9;stroke-width:1.2;stroke-miterlimit:10;" d="M368.751,341.223h-91.366
					c-5.316,0-9.626-4.309-9.626-9.625V210.825c0-5.316,4.31-9.625,9.626-9.625h91.366c5.316,0,9.625,4.309,9.625,9.625v120.772
					C378.376,336.913,374.067,341.223,368.751,341.223z"/>
				<g>
					<g>
						<polygon style="fill:#F4547E;" points="287.563,216.087 289.483,219.978 293.778,220.602 290.67,223.631 291.404,227.908 
							287.563,225.888 283.722,227.908 284.455,223.631 281.348,220.602 285.642,219.978 						"/>
						<polygon style="fill:#F4547E;" points="304.815,216.087 306.736,219.978 311.03,220.602 307.922,223.631 308.656,227.908 
							304.815,225.888 300.974,227.908 301.708,223.631 298.6,220.602 302.895,219.978 						"/>
						<polygon style="fill:#F4547E;" points="322.068,216.087 323.988,219.978 328.283,220.602 325.175,223.631 325.909,227.908 
							322.068,225.888 318.227,227.908 318.96,223.631 315.853,220.602 320.147,219.978 						"/>
						<polygon style="fill:#8D9BD9;" points="339.32,216.087 341.241,219.978 345.535,220.602 342.427,223.631 343.161,227.908 
							339.32,225.888 335.479,227.908 336.213,223.631 333.105,220.602 337.4,219.978 						"/>
						<polygon style="fill:#8D9BD9;" points="356.572,216.087 358.493,219.978 362.787,220.602 359.68,223.631 360.414,227.908 
							356.572,225.888 352.732,227.908 353.465,223.631 350.358,220.602 354.652,219.978 						"/>
					</g>
				</g>
				<g>
					<g>
						<path style="fill:#F4547E;" d="M355.193,325.086h-66.251c-5.371,0-9.725-4.354-9.725-9.725l0,0
							c0-5.371,4.354-9.725,9.725-9.725h66.251c5.371,0,9.725,4.354,9.725,9.725l0,0
							C364.918,320.732,360.564,325.086,355.193,325.086z"/>
					</g>
					
						<line style="fill:none;stroke:#8D9BD9;stroke-width:1.2;stroke-miterlimit:10;" x1="279.217" y1="278.422" x2="364.918" y2="278.422"/>
					
						<line style="fill:none;stroke:#8D9BD9;stroke-width:1.2;stroke-miterlimit:10;" x1="279.217" y1="263.884" x2="322.068" y2="263.884"/>
					
						<line style="fill:none;stroke:#8D9BD9;stroke-width:1.2;stroke-miterlimit:10;" x1="279.217" y1="249.345" x2="364.918" y2="249.345"/>
					
						<line style="fill:none;stroke:#8D9BD9;stroke-width:1.2;stroke-miterlimit:10;" x1="279.217" y1="292.029" x2="323.068" y2="292.029"/>
				</g>
			</g>
			<g>
				<path style="fill:#8D9BD9;" d="M492.898,340.612H407.39c-4.621,0-8.367-3.746-8.367-8.367V307.27
					c0-4.621,3.746-8.368,8.367-8.368h85.509c4.621,0,8.367,3.746,8.367,8.367v24.975
					C501.266,336.866,497.52,340.612,492.898,340.612z"/>
				
					<line style="fill:none;stroke:#FFFFFF;stroke-width:1.2;stroke-miterlimit:10;" x1="413.986" y1="312.954" x2="480.651" y2="312.954"/>
				
					<line style="fill:none;stroke:#FFFFFF;stroke-width:1.2;stroke-miterlimit:10;" x1="413.986" y1="326.561" x2="448.035" y2="326.561"/>
			</g>
			<g>
				<path style="fill:none;stroke:#8D9BD9;stroke-width:1.2;stroke-miterlimit:10;" d="M469.686,280.635h-63.249
					c-4.095,0-7.415-3.32-7.415-7.415v-36.118c0-4.095,3.32-7.415,7.415-7.415h63.249c4.095,0,7.415,3.32,7.415,7.415v36.118
					C477.101,277.315,473.781,280.635,469.686,280.635z"/>
				<g>
					<path style="fill:#F4547E;" d="M466.242,265.549h-57.19c-1.306,0-2.364-1.058-2.364-2.364l0,0c0-1.305,1.058-2.363,2.364-2.363
						h57.19c1.305,0,2.364,1.058,2.364,2.363l0,0C468.606,264.491,467.548,265.549,466.242,265.549z"/>
					<g>
						<path style="fill:#F4547E;" d="M466.242,249.99h-57.19c-1.306,0-2.364-1.058-2.364-2.364l0,0c0-1.305,1.058-2.364,2.364-2.364
							h57.19c1.305,0,2.364,1.058,2.364,2.364l0,0C468.606,248.931,467.548,249.99,466.242,249.99z"/>
						<path style="fill:#8D9BD9;" d="M419.646,246.998c0.411,2.686-1.869,4.966-4.555,4.555c-1.674-0.256-3.042-1.624-3.298-3.298
							c-0.411-2.686,1.869-4.966,4.555-4.555C418.022,243.956,419.39,245.324,419.646,246.998z"/>
					</g>
				</g>
			</g>
		</g>
	</g>
	<g>
		<g>
			<g>
				<g>
					<g>
						<polygon style="fill:#F09C98;" points="438.306,367.121 427.257,372.381 431.079,383.07 442.753,377.635 						"/>
					</g>
					<g>
						<path style="fill:#94BCC6;" d="M427.526,368.436l-8.18,2.925l-8.657-13.511c-2.182-2.563-5.655-3.624-8.897-2.72l-1.905,0.499
							l14.694,40.846l19.19-11.021L427.526,368.436z"/>
						
							<line style="fill:none;stroke:#4D2D3C;stroke-width:0.8665;stroke-miterlimit:10;" x1="404.093" y1="354.817" x2="418.24" y2="394.374"/>
						<path style="fill:none;stroke:#4D2D3C;stroke-width:0.8665;stroke-miterlimit:10;" d="M424.614,386.854
							c-2.351,0.841-4.938-0.384-5.778-2.734c-0.841-2.351,0.383-4.938,2.734-5.778c2.351-0.841,4.938,0.384,5.779,2.734
							C428.189,383.426,426.965,386.013,424.614,386.854z"/>
						
							<line style="fill:none;stroke:#4D2D3C;stroke-width:0.8665;stroke-miterlimit:10;" x1="415.033" y1="364.629" x2="413.312" y2="368.134"/>
						
							<line style="fill:none;stroke:#4D2D3C;stroke-width:0.8665;stroke-miterlimit:10;" x1="417.283" y1="368.148" x2="415.562" y2="371.653"/>
					</g>
				</g>
				<g>
					<path style="fill:#2D4482;" d="M446.835,381.858l-8.528-21.384l50.867-25.693c4.431-2.194,9.461-2.865,14.312-1.911
						l52.06,11.514l-17.426,22.233l-39.436-10.281L446.835,381.858z"/>
					<polygon style="fill:#485EA1;" points="445.978,386.439 432.075,360.422 443.402,354.251 457.567,380.071 					"/>
				</g>
			</g>
			<g>
				<g>
					<g>
						<polygon style="fill:#F09C98;" points="458.844,381.325 449.21,388.872 455.276,398.468 465.48,390.613 						"/>
					</g>
					<g>
						<path style="fill:#94BCC6;" d="M448.611,384.963l-7.343,4.641l-11.399-11.293c-2.689-2.024-6.309-2.301-9.276-0.71
							l-1.75,0.903l23.262,36.65l16.319-14.947L448.611,384.963z"/>
						
							<line style="fill:none;stroke:#4D2D3C;stroke-width:0.8665;stroke-miterlimit:10;" x1="422.77" y1="376.792" x2="445.216" y2="412.304"/>
						<path style="fill:none;stroke:#4D2D3C;stroke-width:0.8665;stroke-miterlimit:10;" d="M449.793,403.573
							c-2.11,1.334-4.902,0.704-6.236-1.406c-1.334-2.11-0.704-4.902,1.406-6.236c2.11-1.334,4.902-0.704,6.236,1.406
							C452.533,399.447,451.904,402.239,449.793,403.573z"/>
						
							<line style="fill:none;stroke:#4D2D3C;stroke-width:0.8665;stroke-miterlimit:10;" x1="435.588" y1="383.977" x2="434.674" y2="387.773"/>
						
							<line style="fill:none;stroke:#4D2D3C;stroke-width:0.8665;stroke-miterlimit:10;" x1="438.553" y1="386.919" x2="437.639" y2="390.715"/>
					</g>
				</g>
				<g>
					<path style="fill:#4354A2;" d="M574.468,349.437l-30.831-10.372l-0.822,6.112l-27.315-11.68
						c-4.639-1.984-10.001-1.169-13.841,2.102l-46.107,39.565l15.828,19.466l37.31-31.416l29.266,15.5
						c2.561,1.516,5.327,2.656,8.226,3.328c8.382,1.943,24.158,3.176,26.492-14.169
						C575.875,344.079,574.468,349.437,574.468,349.437z"/>
					<polygon style="fill:#5669B0;" points="469.642,399.226 450.88,376.462 460.768,368.179 479.747,390.696 					"/>
				</g>
			</g>
		</g>
		<g>
			<g>
				<g>
					<path style="fill:#F4547E;" d="M550.221,314.499c3.718-2.114,5.182-6.733,3.362-10.604c-1.965-4.178-6.99-5.909-11.109-3.822
						c-2.948,1.494-7.607,4.744-12.524,8.249l9.823,13.682L550.221,314.499z"/>
					<path style="fill:#FCA684;" d="M539.893,321.917l-9.942-13.596c-6.508,4.64-9.419,6.878-13.485,8.951
						c-4.585,2.338-6.199,8.09-3.502,12.474l0,0c2.49,4.046,7.738,5.392,11.868,3.044L539.893,321.917z"/>
					<polygon style="fill:#DB4271;" points="541.399,320.836 540.734,312.323 539.893,321.917 					"/>
				</g>
				<g>
					<g>
						<path style="fill:#FCA684;" d="M498.566,292.133l26.456,29.271c2.715,3.193,2.212,8.007-1.105,10.569l0,0
							c-3.354,2.591-8.2,1.813-10.573-1.699l-21.035-31.712L498.566,292.133z"/>
						<g>
							<path style="fill:#FCA684;" d="M490.751,300.41c3.238,2.623,7.989,2.125,10.612-1.113c2.623-3.238,2.125-7.989-1.113-10.612
								c-3.238-2.623-7.989-2.125-10.612,1.113C487.015,293.036,487.513,297.787,490.751,300.41z"/>
							<path style="fill:#FCA684;" d="M496.298,287.462c0,0,0.669-2.9,3.928-0.651c3.259,2.249,5.442,6.232,1.138,12.487
								L496.298,287.462z"/>
						</g>
					</g>
					<g>
						<path style="fill:#37305E;" d="M498.695,273.136l-8.287-1.004c-0.461-0.056-0.85,0.302-0.869,0.799l-0.814,21.332
							c-0.019,0.497,0.339,0.945,0.8,1.001l8.287,1.004c0.461,0.056,0.85-0.302,0.869-0.799l0.814-21.332
							C499.514,273.64,499.156,273.192,498.695,273.136z"/>
						<path style="fill:#261C42;" d="M500.293,273.329l-8.287-1.004c-0.461-0.056-0.85,0.302-0.869,0.799l-0.814,21.332
							c-0.019,0.497,0.339,0.945,0.8,1.001l8.287,1.004c0.461,0.056,0.85-0.302,0.869-0.799l0.814-21.332
							C501.112,273.833,500.753,273.385,500.293,273.329z"/>
						<polygon style="fill:#E9E9E9;" points="500.071,275.418 492.789,274.536 492.125,291.921 499.407,292.804 						"/>
						<polygon style="fill:#FFFFFF;" points="492.789,274.536 499.407,292.804 500.071,275.418 						"/>
					</g>
				</g>
			</g>
			<g>
				<g>
					<path style="fill:#F4547E;" d="M549.998,298.359l-6.482,1.764c-1.042,0.289-3.325,5.645-3.419,6.723l3.307,35.515l28.98,4.831
						l0.682-42.113c0.31-1.922-0.922-4.441-2.826-4.848l-11.338-1.734L549.998,298.359z"/>
				</g>
				<polygon style="fill:#DB4271;" points="571.028,338.815 564.493,315.874 564.493,340.088 571.028,338.815 				"/>
			</g>
			<g>
				<g>
					<g>
						<path style="fill:#FCA684;" d="M582.391,318.282l-15.756,6.006c2.441,7.611,5.172,15.792,5.911,20.296
							c0.833,5.079,5.822,8.366,10.819,7.129h0c4.612-1.142,7.489-5.732,6.508-10.381L582.391,318.282z"/>
						<g>
							<path style="fill:#F4547E;" d="M578.682,306.855c-0.884-4.184-4.839-6.984-9.079-6.427
								c-4.577,0.602-5.846,10.887-5.11,15.445c0.527,3.263,0.298,2.664,2.143,8.414l15.756-6.006L578.682,306.855z"/>
						</g>
					</g>
					<g>
						<path style="fill:#FCA684;" d="M541.61,343.672l38.98-6.105c4.158-0.523,7.91,2.534,8.238,6.713l0,0
							c0.331,4.226-2.974,7.854-7.212,7.917l-38.054,0.232L541.61,343.672z"/>
						<g>
							<path style="fill:#FCA684;" d="M544.256,354.744c3.968-1.273,6.153-5.521,4.881-9.489c-1.273-3.968-5.521-6.153-9.489-4.881
								c-3.968,1.273-6.153,5.521-4.881,9.489C536.039,353.831,540.287,356.016,544.256,354.744z"/>
							<path style="fill:#FCA684;" d="M536.46,343.012c0,0-2.06-2.148,1.606-3.643c3.666-1.495,8.194-1.14,11.071,5.886
								L536.46,343.012z"/>
						</g>
					</g>
				</g>
			</g>
		</g>
		<g>
			<path style="fill:#611225;" d="M544.373,264.123c0,0,18.167-1.531,21.984,4.955c3.817,6.486,0.888,17.187-7.489,20.693
				c-7.98,3.34-6.201-22.904-6.201-22.904L544.373,264.123z"/>
			<path style="fill:#611225;" d="M552.214,264.038c0,0-14.146-4.822-15.413,4.993c-0.845,6.544,9.801,9.024,9.801,9.024
				L552.214,264.038z"/>
			<path style="fill:#D17A62;" d="M546.403,280.382c0.224,2.16-1.346,4.092-3.505,4.316c-2.16,0.224-4.092-1.345-4.316-3.505
				c-0.224-2.16,1.346-4.092,3.505-4.316C544.247,276.653,546.179,278.222,546.403,280.382z"/>
			<path style="fill:#FCA684;" d="M548.38,291.332l0.833,8.528c0.286,2.995,2.285,4.42,5.231,4.115l0,0
				c2.515-0.261,4.742-1.803,4.796-4.331l-1.956-13.357L548.38,291.332z"/>
			<polygon style="fill:#D17A62;" points="548.995,298.443 558.654,288.326 548.277,290.459 			"/>
			<path style="fill:#FCA684;" d="M551.027,292.625L551.027,292.625c-5.048,0.186-9.352-3.649-9.643-7.767l-0.626-9.719
				c-0.364-5.161,3.432-9.68,8.578-10.214l0,0c5.268-0.546,10.905,3.187,11.451,8.455l0.419,7.823
				C561.53,287.252,557.053,292,551.027,292.625z"/>
			<path style="fill:#611225;" d="M543.047,268.221c0,0-1.065,6.473,16.929,7.203c0.381,0.015,6.558-10.121-7.763-11.386
				C552.214,264.038,547.376,262.752,543.047,268.221z"/>
			<polygon style="fill:#611225;" points="554.703,273.504 559.066,280.087 564.176,273.701 			"/>
			<g>
				<path style="fill:#FCA684;" d="M565.881,279.928c0.224,2.16-1.346,4.092-3.505,4.316c-2.16,0.224-4.092-1.345-4.316-3.505
					c-0.224-2.16,1.345-4.092,3.505-4.316C563.725,276.199,565.658,277.769,565.881,279.928z"/>
				
					<path style="fill:none;stroke:#611225;stroke-width:0.5094;stroke-linecap:round;stroke-linejoin:round;stroke-miterlimit:10;" d="
					M560.725,281.638c0,0-0.294-2.835,2.463-2.67"/>
			</g>
			<g>
				
					<polyline style="fill:none;stroke:#611225;stroke-width:0.5094;stroke-linecap:round;stroke-linejoin:round;stroke-miterlimit:10;" points="
					546.564,281.259 546.353,283.68 547.603,283.683 				"/>
				<path style="fill:#611225;" d="M551.878,276.118c0,0-2.133-0.103-2.125,0.764c0,0,0.021,0.586,1.881,0.64
					c1.86,0.053,2.337-0.099,2.488-0.655C554.273,276.31,552.875,276.089,551.878,276.118z"/>
				<path style="fill:#611225;" d="M543.32,276.64c0,0,1.75-0.241,1.92,0.568c0,0,0.102,0.548-1.431,0.724
					c-1.533,0.176-2.04-0.002-2.2-0.442C541.428,276.992,542.486,276.681,543.32,276.64z"/>
				<path style="fill:#611225;" d="M544.66,280.395c0.033,0.492-0.34,0.918-0.832,0.951c-0.492,0.033-0.918-0.34-0.951-0.832
					c-0.033-0.492,0.34-0.918,0.832-0.951C544.201,279.53,544.627,279.903,544.66,280.395z"/>
				<path style="fill:#611225;" d="M552.147,279.896c0.033,0.492-0.34,0.918-0.832,0.951c-0.492,0.033-0.918-0.34-0.951-0.832
					c-0.033-0.492,0.34-0.918,0.832-0.951C551.689,279.031,552.115,279.404,552.147,279.896z"/>
				
					<path style="fill:none;stroke:#611225;stroke-width:0.5094;stroke-linecap:round;stroke-linejoin:round;stroke-miterlimit:10;" d="
					M546.634,285.582c0,0,2.848,0.834,3.938-0.946"/>
			</g>
			
				<ellipse transform="matrix(0.6572 -0.7537 0.7537 0.6572 -4.2232 522.0991)" style="fill:#611225;" cx="571.862" cy="265.692" rx="9.256" ry="9.256"/>
		</g>
	</g>
	<g>
		<g>
			<path style="fill:none;stroke:#FFFFFF;stroke-width:1.4001;stroke-miterlimit:10;" d="M142.59,100.208h-28.354
				c-1.452,0-2.629,1.194-2.629,2.666v15.946c0,1.472,1.177,2.666,2.629,2.666h11.554l9.714,10.836V121.88l7.138-0.145
				c1.431-0.029,2.576-1.214,2.576-2.665v-16.196C145.219,101.402,144.042,100.208,142.59,100.208z"/>
			<ellipse style="fill:#8D9BD9;" cx="76.913" cy="335.128" rx="5.913" ry="5.996"/>
			
				<ellipse style="fill:none;stroke:#FFFFFF;stroke-width:1.4001;stroke-miterlimit:10;" cx="612.815" cy="273.504" rx="7.917" ry="8.028"/>
			<path style="fill:#8D9BD9;" d="M559.011,88.763c0,2.413-1.929,4.368-4.308,4.368c-2.379,0-4.308-1.956-4.308-4.368
				s1.929-4.368,4.308-4.368C557.082,84.395,559.011,86.351,559.011,88.763z"/>
			<path style="fill:#8D9BD9;" d="M660.688,335.128c0,2.413-1.929,4.368-4.308,4.368c-2.379,0-4.308-1.956-4.308-4.368
				s1.929-4.368,4.308-4.368C658.759,330.759,660.688,332.715,660.688,335.128z"/>
			
				<rect x="349.548" y="124.19" style="fill:none;stroke:#FFFFFF;stroke-width:1.4001;stroke-miterlimit:10;" width="8.943" height="9.068"/>
		</g>
		<g>
			<g>
				<g>
					<path style="fill:#4354A2;" d="M400.487,97.849h-75.728c-1.381,0-2.5-1.119-2.5-2.5V75.067c0-1.381,1.119-2.5,2.5-2.5h75.728
						c1.381,0,2.5,1.119,2.5,2.5v20.282C402.986,96.73,401.867,97.849,400.487,97.849z"/>
					<g>
						
							<line style="fill:none;stroke:#FFFFFF;stroke-width:0.9797;stroke-miterlimit:10;" x1="331.852" y1="82.176" x2="373.744" y2="82.176"/>
						
							<line style="fill:none;stroke:#FFFFFF;stroke-width:0.9797;stroke-miterlimit:10;" x1="331.852" y1="88.24" x2="344.346" y2="88.24"/>
					</g>
				</g>
				<polygon style="fill:#4354A2;" points="331.852,94.989 331.852,106.644 344.244,94.989 				"/>
			</g>
			<g>
				<g>
					<circle style="fill:#94BCC6;" cx="608.96" cy="205.899" r="26.849"/>
				</g>
				<g>
					<g>
						<g>
							<path style="fill:#FEFEFE;" d="M604.764,215.385c4.255,0.073,8.563,0.13,12.476-0.14c1.239-0.086,2.309-2.054,0.805-2.675
								c0.633-0.325,1.275-0.638,1.551-1.348c0.262-0.672-0.053-1.584-0.753-1.757c1.476,0.365,2.058-1.977,0.906-2.733
								c0.609-0.519,1.116-1.205,1.245-1.995c0.129-0.79-0.195-1.682-0.898-2.064c-0.461-0.251-1.01-0.261-1.534-0.265
								c-1.77-0.013-3.539-0.026-5.309-0.04c0.479-2.769,0.623-5.787-0.784-8.219c-0.424-0.733-1.563-1.611-2.467-1.047
								c-0.848,0.529-0.612,1.842-0.57,2.671c0.177,3.444-1.783,6.91-4.826,8.533C604.608,204.304,604.809,211.642,604.764,215.385z
								"/>
						</g>
					</g>
					<rect x="596.79" y="204.304" style="fill:#FEFEFE;" width="6.431" height="11.07"/>
				</g>
			</g>
			<g>
				<g>
					<g>
						<g>
							<path style="fill:#F4547E;" d="M269.697,138.539h-36.854c-4.168,0-7.547-3.379-7.547-7.547v-36.34
								c0-3.252,2.637-5.889,5.889-5.889h38.512c3.252,0,5.889,2.636,5.889,5.889v37.998
								C275.586,135.902,272.949,138.539,269.697,138.539z"/>
						</g>
					</g>
				</g>
				<path style="fill:#FFFFFF;" d="M260.018,106.976c-2.265-2.217-5.892-2.179-8.106,0.085l-1.461,1.491l-1.503-1.48
					c-2.255-2.224-5.885-2.194-8.107,0.062c-2.221,2.257-2.194,5.886,0.063,8.108l5.576,5.492c0.012,0.012,0.02,0.026,0.031,0.037
					c0.89,0.872,1.99,1.394,3.135,1.569c1.764,0.271,3.628-0.283,4.972-1.655l5.486-5.602
					C262.319,112.821,262.281,109.192,260.018,106.976z"/>
			</g>
			<g>
				<g>
					<path style="fill:#94BCC6;" d="M87.186,228.142h29.049v-14.696c0-1.218-0.988-2.206-2.206-2.206H87.186
						c-1.218,0-2.206,0.988-2.206,2.206v12.49C84.98,227.154,85.968,228.142,87.186,228.142z"/>
					<polygon style="fill:#94BCC6;" points="116.233,224.645 116.256,232.113 109.879,224.665 					"/>
					<g>
						<path style="fill:#FFFFFF;" d="M95.338,219.499c0.003,0.777-0.625,1.409-1.403,1.411c-0.777,0.002-1.409-0.626-1.411-1.403
							c-0.003-0.777,0.625-1.409,1.403-1.411C94.703,218.094,95.335,218.722,95.338,219.499z"/>
						<path style="fill:#FFFFFF;" d="M101.373,219.48c0.002,0.777-0.626,1.409-1.403,1.411c-0.777,0.002-1.409-0.626-1.411-1.403
							c-0.002-0.777,0.626-1.409,1.403-1.411C100.739,218.075,101.371,218.703,101.373,219.48z"/>
						<path style="fill:#FFFFFF;" d="M107.408,219.461c0.002,0.777-0.626,1.409-1.403,1.411c-0.777,0.002-1.409-0.626-1.411-1.403
							c-0.002-0.777,0.626-1.409,1.403-1.411C106.774,218.056,107.406,218.684,107.408,219.461z"/>
					</g>
				</g>
			</g>
			<g>
				<g>
					<path style="fill:#F4547E;" d="M510.406,211.532h-92.522c-2.796,0-5.063-2.267-5.063-5.063v-91.198
						c0-2.796,2.267-5.063,5.063-5.063h92.522c2.796,0,5.063,2.267,5.063,5.063v91.198
						C515.469,209.266,513.202,211.532,510.406,211.532z"/>
				</g>
				<g>
					
						<line style="fill:none;stroke:#FFFFFF;stroke-width:0.9797;stroke-miterlimit:10;" x1="431.286" y1="180.024" x2="496.779" y2="180.024"/>
					
						<line style="fill:none;stroke:#FFFFFF;stroke-width:0.9797;stroke-miterlimit:10;" x1="431.286" y1="192.319" x2="450.99" y2="192.319"/>
					<path style="fill:none;stroke:#FFFFFF;stroke-width:0.9797;stroke-miterlimit:10;" d="M469.966,192.319"/>
					
						<line style="fill:none;stroke:#FFFFFF;stroke-width:0.9797;stroke-miterlimit:10;" x1="431.286" y1="169.332" x2="481.315" y2="169.332"/>
				</g>
				<g>
					<path style="fill:none;stroke:#FFFFFF;stroke-width:0.8895;stroke-miterlimit:10;" d="M481.956,139.394
						c0,10.473-8.49,18.963-18.963,18.963c-10.473,0-18.963-8.49-18.963-18.963c0-10.473,8.49-18.963,18.963-18.963
						C473.466,120.431,481.956,128.921,481.956,139.394z"/>
					<path style="fill:none;stroke:#FFFFFF;stroke-width:0.8895;stroke-miterlimit:10;" d="M470.43,133.867
						c-1.781-1.744-4.634-1.714-6.376,0.067l-1.149,1.173l-1.182-1.164c-1.773-1.749-4.628-1.725-6.376,0.048
						c-1.747,1.775-1.725,4.629,0.05,6.377l4.386,4.32c0.009,0.009,0.015,0.02,0.025,0.029c0.7,0.686,1.566,1.096,2.465,1.234
						c1.388,0.213,2.853-0.223,3.91-1.301l4.314-4.406C472.24,138.463,472.21,135.609,470.43,133.867z"/>
				</g>
			</g>
		</g>
	</g>
	<g>
		<g>
			<g>
				<g>
					<path style="fill:#2D4482;" d="M167.301,230.411l-22.692,59.605c-0.735,4.794-0.231,11.105,4.922,15.317
						c0.81,0.662,1.721,1.192,2.658,1.659l48.622,22.387l-0.723-26.743l-28.366-13.601l25.151-53.943L167.301,230.411z"/>
				</g>
			</g>
			<g>
				<g>
					<polygon style="fill:#F09C98;" points="188.788,319.95 200.124,318.775 200.098,308.203 188.161,309.338 					"/>
				</g>
				<g>
					<path style="fill:#94BCC6;" d="M198.659,322.154l8.09-0.019l3.389,14.554c1.117,2.929,3.834,4.942,6.961,5.158l1.827,0.156
						l-0.173-40.425l-20.275,3.695L198.659,322.154z"/>
					
						<line style="fill:none;stroke:#4D2D3C;stroke-width:0.8069;stroke-miterlimit:10;" x1="214.982" y1="341.405" x2="214.888" y2="302.282"/>
					<path style="fill:none;stroke:#4D2D3C;stroke-width:0.8069;stroke-miterlimit:10;" d="M206.951,306.896
						c2.325-0.006,4.214,1.875,4.219,4.2c0.006,2.325-1.874,4.214-4.199,4.22c-2.325,0.005-4.214-1.875-4.22-4.199
						C202.746,308.791,204.626,306.902,206.951,306.896z"/>
					
						<line style="fill:none;stroke:#4D2D3C;stroke-width:0.8069;stroke-miterlimit:10;" x1="208.438" y1="329.386" x2="211.039" y2="326.846"/>
					
						<line style="fill:none;stroke:#4D2D3C;stroke-width:0.8069;stroke-miterlimit:10;" x1="207.558" y1="325.597" x2="210.16" y2="323.057"/>
				</g>
			</g>
			<g>
				<g>
					<g>
						<polygon style="fill:#F09C98;" points="191.649,347.346 192.796,358.685 203.368,358.685 202.263,346.745 						"/>
					</g>
					<g>
						<path style="fill:#94BCC6;" d="M189.421,357.212v8.09l-14.562,3.355c-2.932,1.11-4.951,3.822-5.174,6.948l-0.16,1.827
							l40.425-0.076l-3.646-20.283L189.421,357.212z"/>
						
							<line style="fill:none;stroke:#4D2D3C;stroke-width:0.8069;stroke-miterlimit:10;" x1="170.131" y1="373.489" x2="209.254" y2="373.489"/>
						<path style="fill:none;stroke:#4D2D3C;stroke-width:0.8069;stroke-miterlimit:10;" d="M204.659,365.541
							c0,2.325-1.885,4.209-4.21,4.209c-2.325,0-4.21-1.885-4.21-4.209c0-2.325,1.885-4.21,4.21-4.21
							C202.774,361.331,204.659,363.216,204.659,365.541z"/>
						
							<line style="fill:none;stroke:#4D2D3C;stroke-width:0.8069;stroke-miterlimit:10;" x1="182.165" y1="366.973" x2="184.699" y2="369.581"/>
						
							<line style="fill:none;stroke:#4D2D3C;stroke-width:0.8069;stroke-miterlimit:10;" x1="185.957" y1="366.103" x2="188.49" y2="368.711"/>
					</g>
				</g>
				<polygon style="fill:#4354A2;" points="175.233,230.411 175.401,232.465 166.795,231.74 177.414,257.092 184.978,349.621 
					208.18,348.762 209.449,230.411 				"/>
			</g>
		</g>
		<g>
			<g>
				<g>
					<g>
						<path style="fill:#FCA684;" d="M165.96,207.785c-12.793-7.837-30.681-21.908-30.681-21.908l-6.694,6.314l27.822,28.746
							c3.933,3.355,9.956,2.249,12.441-2.285v0C170.938,214.838,169.669,210.057,165.96,207.785z"/>
					</g>
					<g>
						<g>
							<path style="fill:#FCA684;" d="M124.92,193.74c3.52,2.206,8.162,1.141,10.368-2.38c2.206-3.52,1.141-8.162-2.38-10.368
								c-3.52-2.206-8.162-1.141-10.368,2.38C120.334,186.892,121.399,191.534,124.92,193.74z"/>
							<path style="fill:#FCA684;" d="M127.418,179.999c0,0,0.884-3.314,4.38-1.48c3.495,1.833,6.997,6.134,3.491,12.842
								L127.418,179.999z"/>
						</g>
					</g>
					<g>
						<path style="fill:#37305E;" d="M120.149,163.593l-8.474,3.97c-0.471,0.221-0.629,0.792-0.351,1.276l11.902,20.759
							c0.277,0.484,0.884,0.697,1.356,0.476l8.474-3.97c0.471-0.221,0.629-0.792,0.351-1.276l-11.902-20.759
							C121.227,163.585,120.62,163.372,120.149,163.593z"/>
						<path style="fill:#261C42;" d="M121.104,163.118l-8.474,3.97c-0.471,0.221-0.629,0.792-0.351,1.275l11.902,20.759
							c0.277,0.484,0.884,0.697,1.355,0.476l8.474-3.97c0.471-0.221,0.629-0.792,0.351-1.275l-11.902-20.759
							C122.183,163.11,121.576,162.897,121.104,163.118z"/>
						<polygon style="fill:#E9E9E9;" points="122.135,165.236 114.689,168.724 124.389,185.643 131.835,182.154 						"/>
						<polygon style="fill:#FFFFFF;" points="114.689,168.724 131.835,182.154 122.135,165.236 						"/>
					</g>
				</g>
				<g>
					<path style="fill:#FCA684;" d="M183.042,190.089l-14.224,28.578c-1.589,3.193-5.273,4.856-8.769,3.96l0,0
						c-4.26-1.093-6.603-5.518-5.069-9.572l11.22-29.646L183.042,190.089z"/>
					<path style="fill:#FFFFFF;" d="M185.347,184.552l-4.019,12.447l-20.501-8.705l6.129-11.456
						c2.036-3.892,6.158-5.768,11.417-5.62l-0.725,0.419C183.585,172.738,187.202,178.806,185.347,184.552z"/>
					<polygon style="fill:#EDEDED;" points="169.421,191.943 170.063,182.21 165.224,190.161 					"/>
				</g>
			</g>
			<g>
				<path style="fill:#FFFFFF;" d="M178.373,171.218l28.121-0.008c4.146,0,0.705,3.138,1.14,7.26l1.761,56.991l-42.6-3.721
					l3.505-53.129C170.669,174.427,174.173,171.218,178.373,171.218z"/>
			</g>
			<g>
				<g>
					<g>
						<g>
							<path style="fill:#FCA684;" d="M217.677,184.275l4.335,31.626c0.484,3.533-1.624,6.983-5.017,8.21l0,0
								c-4.136,1.495-8.564-0.842-9.578-5.057l-7.419-30.817L217.677,184.275z"/>
							<path style="fill:#FFFFFF;" d="M216.464,178.401l3.687,12.549l-21.967,2.261l-1.262-10.831
								c-0.508-4.363,1.888-8.548,5.908-10.318l0,0C208.356,169.63,214.762,172.608,216.464,178.401z"/>
						</g>
					</g>
					<g>
						<g>
							<path style="fill:#FCA684;" d="M206.62,213.387c-6.648,13.449-18.261,36.503-18.261,36.503l6.894,6.095l25.329-34.274
								c2.986-4.221,1.339-10.119-3.401-12.183l0,0C213.194,207.791,208.547,209.488,206.62,213.387z"/>
						</g>
						<g>
							<path style="fill:#FCA684;" d="M197.126,259.495c1.879-3.705,0.398-8.232-3.307-10.111
								c-3.705-1.878-8.232-0.398-10.111,3.307c-1.879,3.705-0.398,8.232,3.307,10.111
								C190.721,264.681,195.247,263.2,197.126,259.495z"/>
							<path style="fill:#FCA684;" d="M183.215,258.25c0,0-3.38-0.581-1.87-4.228c1.51-3.647,5.476-7.523,12.474-4.638
								L183.215,258.25z"/>
						</g>
					</g>
				</g>
			</g>
		</g>
		<g>
			<path style="fill:#D17A62;" d="M178.118,153.848c0.54,2.173-0.784,4.372-2.957,4.911c-2.173,0.54-4.372-0.784-4.911-2.957
				c-0.54-2.173,0.784-4.372,2.957-4.911C175.379,150.352,177.578,151.676,178.118,153.848z"/>
			<path style="fill:#FCA684;" d="M179.875,160.085l3.283,14.074c0.948,3.951,3.727,3.575,7.609,2.611l0,0
				c3.314-0.823,5.908-2.498,5.503-5.888l-3.035-15.338L179.875,160.085z"/>
			<polygon style="fill:#D17A62;" points="182.531,171.5 191.109,160.988 180.648,163.452 			"/>
			<path style="fill:#FCA684;" d="M187.817,164.055l-5.501,1.367c-4.131,1.026-8.29-1.572-9.18-5.735l-2.186-10.216
				c-1.115-5.217,2.109-10.378,7.286-11.663l0,0c5.3-1.317,11.593,1.682,12.909,6.982l2.089,10.755
				C193.985,159.371,191.602,163.115,187.817,164.055z"/>
			<path style="fill:#611225;" d="M191.154,150.923c0,0-7.309,2.713-5.354-6.661c0,0-2.224-2.515-7.069-0.054
				c-4.845,2.461-9.964,3.312-11.553-0.62c-1.588-3.933,1.257-10.34,11.808-8.923c0,0,3.733,0.497,6.714,2.025
				c2.98,1.527,6.943,0.66,8.232,4.483C195.21,144.962,194.694,151.933,191.154,150.923z"/>
			<g>
				<path style="fill:#FCA684;" d="M197.34,149.468c0.54,2.173-0.784,4.372-2.957,4.911c-2.173,0.54-4.372-0.784-4.911-2.957
					c-0.54-2.173,0.784-4.372,2.957-4.911C194.601,145.972,196.8,147.296,197.34,149.468z"/>
				
					<path style="fill:none;stroke:#611225;stroke-width:0.5157;stroke-linecap:round;stroke-linejoin:round;stroke-miterlimit:10;" d="
					M192.321,151.957c0,0-0.708-2.852,2.13-3.081"/>
			</g>
			<g>
				
					<polyline style="fill:none;stroke:#611225;stroke-width:0.5157;stroke-linecap:round;stroke-linejoin:round;stroke-miterlimit:10;" points="
					177.461,155.406 177.755,157.513 179.016,157.2 				"/>
				<path style="fill:#611225;" d="M175.577,154.196c0.113,0.455-0.164,0.915-0.619,1.027c-0.455,0.113-0.915-0.164-1.028-0.619
					c-0.113-0.455,0.164-0.915,0.619-1.028S175.464,153.741,175.577,154.196z"/>
				<path style="fill:#611225;" d="M182.232,152.543c0.113,0.455-0.164,0.915-0.619,1.027c-0.455,0.113-0.915-0.164-1.028-0.619
					c-0.113-0.455,0.164-0.915,0.619-1.028C181.659,151.811,182.119,152.088,182.232,152.543z"/>
				<path style="fill:#611225;" d="M180.796,147.708c0,0-2.202,0.206-1.97,1.356c0,0,0.174,0.775,2.085,0.548
					c1.911-0.227,2.359-0.507,2.369-1.27C183.29,147.578,181.806,147.51,180.796,147.708z"/>
				<path style="fill:#611225;" d="M173.119,149.548c0,0,1.722-0.6,2.106,0.446c0,0,0.246,0.711-1.272,1.191
					c-1.518,0.48-2.081,0.325-2.359-0.233C171.28,150.32,172.279,149.737,173.119,149.548z"/>
				<path style="fill:#FFFFFF;" d="M178.238,159.167l5.042-1.654c0,0,0.801,1.997-2.612,2.86
					C180.668,160.373,178.722,160.821,178.238,159.167z"/>
			</g>
		</g>
	</g>
</g>
</svg>
