<?xml version="1.0" encoding="utf-8"?>
<!-- Generator: Adobe Illustrator 27.5.0, SVG Export Plug-In . SVG Version: 6.00 Build 0)  -->
<svg version="1.1" xmlns="http://www.w3.org/2000/svg" xmlns:xlink="http://www.w3.org/1999/xlink" x="0px" y="0px"
	 viewBox="0 0 500 500" style="enable-background:new 0 0 500 500;" xml:space="preserve">
<g id="BACKGROUND">
	<rect style="fill:#EFF3F6;" width="500" height="500"/>
</g>
<g id="OBJECTS">
	<g>
		<defs>
			<rect id="SVGID_1_" x="3.783" width="496.217" height="500"/>
		</defs>
		<clipPath id="SVGID_00000139990803925058242280000016224339964512537734_">
			<use xlink:href="#SVGID_1_"  style="overflow:visible;"/>
		</clipPath>
		<g style="clip-path:url(#SVGID_00000139990803925058242280000016224339964512537734_);">
			<g>
				<path style="opacity:0.18;fill:#D6D6D6;" d="M121.75,198.219l0.141-0.038l-10.748-39.616l4.406-1.195
					c0.011,0.047,0.01,0.093,0.023,0.14c1.066,3.927,5.113,6.248,9.041,5.182c3.928-1.065,6.248-5.113,5.182-9.041
					c-0.013-0.047-0.037-0.086-0.051-0.132l4.891-1.327c0.011,0.047,0.01,0.093,0.023,0.14c1.065,3.928,5.113,6.248,9.041,5.182
					c3.928-1.066,6.248-5.113,5.182-9.041c-0.013-0.047-0.037-0.086-0.051-0.133l4.89-1.327c0.012,0.047,0.011,0.093,0.023,0.14
					c1.066,3.927,5.114,6.247,9.041,5.182c3.927-1.065,6.247-5.113,5.182-9.041c-0.013-0.047-0.037-0.086-0.051-0.132l4.89-1.327
					c0.012,0.047,0.011,0.093,0.023,0.14c1.066,3.927,5.113,6.248,9.041,5.182c3.928-1.066,6.247-5.113,5.182-9.041
					c-0.012-0.047-0.037-0.086-0.051-0.132l4.89-1.327c0.012,0.047,0.011,0.093,0.023,0.14c1.066,3.927,5.113,6.247,9.041,5.182
					c3.927-1.065,6.247-5.113,5.181-9.041c-0.013-0.047-0.037-0.086-0.051-0.133l4.89-1.327c0.012,0.046,0.011,0.093,0.023,0.14
					c1.066,3.927,5.113,6.248,9.041,5.182c3.927-1.065,6.247-5.113,5.182-9.041c-0.012-0.047-0.036-0.087-0.05-0.133l4.89-1.327
					c0.012,0.047,0.01,0.093,0.023,0.14c1.065,3.928,5.113,6.248,9.041,5.182c3.927-1.065,6.247-5.113,5.182-9.041
					c-0.013-0.047-0.037-0.086-0.051-0.132l4.89-1.327c0.012,0.047,0.01,0.093,0.023,0.14c1.066,3.927,5.113,6.248,9.041,5.182
					c3.927-1.065,6.247-5.113,5.181-9.041c-0.012-0.047-0.036-0.087-0.05-0.133l4.867-1.32l54.352,200.891l10.748,39.616
					l-4.407,1.195c-0.011-0.047-0.01-0.093-0.023-0.14c-1.066-3.927-5.113-6.247-9.041-5.182c-3.927,1.066-6.247,5.113-5.182,9.041
					c0.013,0.047,0.038,0.086,0.051,0.132l-4.891,1.327c-0.011-0.047-0.01-0.093-0.023-0.14c-1.065-3.928-5.113-6.248-9.041-5.182
					c-3.928,1.066-6.248,5.114-5.182,9.041c0.013,0.047,0.037,0.086,0.051,0.132l-4.89,1.327c-0.012-0.047-0.011-0.093-0.023-0.14
					c-1.065-3.927-5.113-6.247-9.041-5.182c-3.928,1.066-6.247,5.113-5.182,9.041c0.013,0.047,0.038,0.086,0.051,0.132l-4.89,1.327
					c-0.012-0.046-0.011-0.093-0.023-0.14c-1.066-3.927-5.113-6.247-9.041-5.182c-3.927,1.066-6.247,5.113-5.182,9.041
					c0.013,0.047,0.037,0.086,0.051,0.132l-4.89,1.327c-0.012-0.047-0.011-0.093-0.023-0.14c-1.066-3.927-5.113-6.248-9.041-5.182
					c-3.928,1.066-6.247,5.113-5.182,9.041c0.013,0.047,0.036,0.087,0.051,0.132l-4.89,1.327c-0.012-0.047-0.011-0.093-0.024-0.14
					c-1.066-3.927-5.113-6.248-9.041-5.182c-3.927,1.065-6.247,5.113-5.182,9.041c0.013,0.047,0.037,0.086,0.051,0.133l-4.89,1.327
					c-0.012-0.047-0.01-0.093-0.023-0.14c-1.066-3.927-5.113-6.247-9.041-5.182c-3.927,1.065-6.247,5.113-5.182,9.041
					c0.013,0.047,0.037,0.086,0.05,0.133l-4.89,1.327c-0.012-0.047-0.01-0.093-0.023-0.14c-1.065-3.928-5.113-6.248-9.041-5.182
					c-3.927,1.065-6.247,5.113-5.181,9.041c0.013,0.047,0.037,0.086,0.05,0.132l-4.867,1.32L121.75,198.219z"/>
				<path style="fill:#E2A27D;" d="M315.657,242.133l67.51,30.241c6.534,2.927,11.979,7.84,15.559,14.041l41.803,101.361
					l-65.383,48.41l-37.932-134.283l-8.676-14.108L315.657,242.133z"/>
				<polygon style="fill:#E2A27D;" points="440.528,387.775 470.447,421.269 402.165,471.026 375.145,436.185 				"/>
				<path style="fill:#D99676;" d="M327.494,282.067l-6.003-23.869l33.728,23.72c7.694,4.727,13.399,12.098,16.046,20.731
					l13.299,29.574L327.494,282.067z"/>
				<path style="fill:#D99676;" d="M294.227,320.254l6.264,18.167c2.998,8.694,9.914,15.47,18.668,18.289l17.853,5.748
					l-27.002-52.206L294.227,320.254z"/>
				<path style="fill:#D99676;" d="M302.735,340.208l6.264,18.167c2.998,8.695,9.914,15.47,18.668,18.289l17.853,5.748
					l-27.002-52.206L302.735,340.208z"/>
				<path style="fill:#D99676;" d="M320.224,364.248l6.263,18.167c2.998,8.694,9.914,15.47,18.668,18.289l17.853,5.748
					l-27.002-52.206L320.224,364.248z"/>
				<path style="fill:#FDFFFB;" d="M132.956,161.763l0.141-0.038l-10.748-39.616l4.406-1.195c0.011,0.047,0.01,0.093,0.023,0.14
					c1.066,3.927,5.113,6.248,9.041,5.182c3.928-1.066,6.248-5.113,5.182-9.041c-0.013-0.047-0.037-0.086-0.051-0.132l4.891-1.327
					c0.011,0.047,0.01,0.093,0.023,0.14c1.066,3.927,5.113,6.247,9.041,5.182c3.928-1.066,6.247-5.113,5.182-9.041
					c-0.013-0.047-0.037-0.086-0.051-0.132l4.89-1.327c0.012,0.047,0.011,0.093,0.023,0.14c1.066,3.927,5.114,6.247,9.041,5.182
					c3.927-1.065,6.248-5.113,5.182-9.041c-0.013-0.047-0.037-0.086-0.051-0.132l4.89-1.327c0.012,0.047,0.011,0.093,0.023,0.14
					c1.065,3.927,5.113,6.248,9.041,5.182c3.927-1.066,6.247-5.113,5.182-9.041c-0.012-0.047-0.037-0.086-0.051-0.132l4.89-1.327
					c0.012,0.047,0.011,0.093,0.023,0.14c1.065,3.927,5.113,6.248,9.041,5.182c3.927-1.066,6.247-5.113,5.182-9.041
					c-0.013-0.047-0.037-0.086-0.051-0.132l4.89-1.327c0.012,0.047,0.011,0.093,0.023,0.14c1.066,3.927,5.113,6.248,9.041,5.182
					c3.927-1.065,6.247-5.113,5.181-9.041c-0.012-0.047-0.036-0.087-0.05-0.132l4.89-1.327c0.012,0.046,0.01,0.093,0.023,0.14
					c1.065,3.927,5.113,6.248,9.041,5.182c3.927-1.065,6.247-5.113,5.181-9.041c-0.013-0.047-0.037-0.086-0.051-0.132l4.89-1.327
					c0.012,0.047,0.01,0.093,0.023,0.14c1.065,3.927,5.113,6.248,9.041,5.182c3.927-1.065,6.247-5.113,5.181-9.041
					c-0.012-0.047-0.036-0.087-0.05-0.133l4.867-1.32l54.352,200.891l10.748,39.616l-4.407,1.196
					c-0.012-0.047-0.01-0.093-0.023-0.14c-1.066-3.927-5.113-6.248-9.041-5.182c-3.927,1.066-6.247,5.113-5.182,9.041
					c0.013,0.047,0.037,0.086,0.051,0.132l-4.891,1.327c-0.012-0.047-0.01-0.093-0.023-0.14c-1.065-3.927-5.113-6.247-9.041-5.182
					c-3.928,1.066-6.248,5.113-5.182,9.041c0.013,0.047,0.037,0.086,0.051,0.132l-4.89,1.327c-0.012-0.047-0.011-0.093-0.023-0.14
					c-1.065-3.928-5.113-6.248-9.041-5.182c-3.927,1.066-6.248,5.113-5.182,9.041c0.013,0.047,0.038,0.086,0.051,0.132l-4.89,1.327
					c-0.012-0.047-0.011-0.093-0.023-0.14c-1.066-3.927-5.113-6.248-9.041-5.182c-3.927,1.065-6.247,5.113-5.182,9.041
					c0.013,0.047,0.037,0.086,0.051,0.132l-4.89,1.327c-0.012-0.047-0.011-0.093-0.023-0.14c-1.065-3.927-5.113-6.247-9.041-5.182
					c-3.928,1.066-6.247,5.113-5.182,9.041c0.013,0.047,0.036,0.087,0.051,0.132l-4.89,1.327c-0.012-0.047-0.011-0.093-0.024-0.14
					c-1.066-3.927-5.113-6.248-9.041-5.182c-3.927,1.065-6.247,5.113-5.182,9.041c0.013,0.047,0.037,0.086,0.051,0.132l-4.89,1.327
					c-0.012-0.047-0.01-0.093-0.023-0.14c-1.066-3.927-5.113-6.248-9.041-5.182c-3.927,1.065-6.247,5.113-5.182,9.041
					c0.013,0.047,0.037,0.086,0.05,0.133l-4.89,1.327c-0.012-0.047-0.01-0.093-0.023-0.14c-1.065-3.927-5.113-6.248-9.041-5.182
					c-3.927,1.065-6.247,5.113-5.181,9.041c0.013,0.047,0.037,0.086,0.05,0.133l-4.867,1.32L132.956,161.763z"/>
				<g>
					<path style="fill:#E2A27D;" d="M375.145,436.185l-32.254-40.32c-7.652-9.565-13.746-20.279-18.056-31.745l-14.093-37.489
						l-30.052-46.775c-5.325-8.289-2.895-19.327,5.418-24.613l0.628-0.4c7.865-5.001,18.258-3.079,23.814,4.404l22.612,30.452
						l40.292,32.999L375.145,436.185z"/>
					<path style="fill:#E9C3AE;" d="M293.207,282.23l15.652-10.05c1.235-0.793,1.593-2.436,0.8-3.671l-2.832-4.41
						c-3.249-5.06-9.984-6.528-15.044-3.279l-1.8,1.156c-5.06,3.249-6.528,9.984-3.279,15.044l2.832,4.41
						C290.329,282.665,291.972,283.023,293.207,282.23z"/>
				</g>
			</g>
			<polygon style="fill:#FDFFFB;" points="459.356,397.245 377.133,453.047 391.649,472.09 474.167,414.962 			"/>
			<polygon style="fill:#54749B;" points="485.339,404.386 381.108,481.075 443.633,561.273 547.324,480.265 			"/>
			<g>
				<g>
					
						<text transform="matrix(0.9654 -0.2608 0.2608 0.9654 178.1753 149.6745)" style="fill:#707070; font-family:'OpenSans-Bold'; font-size:17.5671px;">RECEIPT</text>
					
						<rect x="155.032" y="146.525" transform="matrix(0.9654 -0.2608 0.2608 0.9654 -31.4142 61.1005)" style="fill:#707070;" width="119.055" height="4.83"/>
					
						<rect x="180.901" y="242.298" transform="matrix(0.9654 -0.2608 0.2608 0.9654 -55.4926 71.1588)" style="fill:#707070;" width="119.055" height="4.83"/>
					
						<rect x="214.698" y="255.679" transform="matrix(0.9654 -0.2608 0.2608 0.9654 -58.9109 72.1575)" style="fill:#707070;" width="55.57" height="4.83"/>
					
						<rect x="163.131" y="179.981" transform="matrix(0.9654 -0.2608 0.2608 0.9654 -40.7636 57.5429)" style="fill:#DADADA;" width="66.695" height="4.83"/>
					
						<rect x="167.135" y="197.68" transform="matrix(0.9654 -0.2608 0.2608 0.9654 -45.9891 53.5518)" style="fill:#DADADA;" width="23.382" height="4.83"/>
					
						<rect x="169.978" y="206.622" transform="matrix(0.9654 -0.2608 0.2608 0.9654 -47.8105 57.7121)" style="fill:#DADADA;" width="47.229" height="4.83"/>
					
						<rect x="172.896" y="216.137" transform="matrix(0.9654 -0.2608 0.2608 0.9654 -49.8536 61.3401)" style="fill:#DADADA;" width="66.695" height="4.83"/>
					
						<rect x="176.817" y="233.208" transform="matrix(0.9654 -0.2608 0.2608 0.9654 -54.8354 57.9337)" style="fill:#DADADA;" width="28.195" height="4.83"/>
					
						<rect x="251.216" y="161.449" transform="matrix(0.9654 -0.2608 0.2608 0.9654 -33.5577 74.792)" style="fill:#DADADA;" width="27.744" height="4.83"/>
					
						<rect x="254.471" y="173.501" transform="matrix(0.9654 -0.2608 0.2608 0.9654 -36.588 76.0589)" style="fill:#DADADA;" width="27.744" height="4.83"/>
					
						<rect x="257.727" y="185.553" transform="matrix(0.9654 -0.2608 0.2608 0.9654 -39.6177 77.3235)" style="fill:#DADADA;" width="27.744" height="4.83"/>
					
						<rect x="260.982" y="197.605" transform="matrix(0.9654 -0.2608 0.2608 0.9654 -42.6481 78.5904)" style="fill:#DADADA;" width="27.744" height="4.83"/>
					
						<rect x="264.237" y="209.657" transform="matrix(0.9654 -0.2608 0.2608 0.9654 -45.6777 79.8551)" style="fill:#DADADA;" width="27.744" height="4.83"/>
				</g>
				<g>
					
						<rect x="196.615" y="296.818" transform="matrix(0.9654 -0.2608 0.2608 0.9654 -74.6874 62.3507)" style="fill:#707070;" width="2.033" height="31.649"/>
					
						<rect x="200.881" y="295.666" transform="matrix(0.9654 -0.2608 0.2608 0.9654 -74.2396 63.4234)" style="fill:#707070;" width="2.033" height="31.649"/>
					
						<rect x="211.625" y="292.901" transform="matrix(0.9654 -0.2608 0.2608 0.9654 -73.1643 65.9967)" style="fill:#707070;" width="1.016" height="31.649"/>
					
						<rect x="214.879" y="292.022" transform="matrix(0.9654 -0.2608 0.2608 0.9654 -72.8226 66.8148)" style="fill:#707070;" width="1.016" height="31.649"/>
					
						<rect x="205.24" y="294.093" transform="matrix(0.9654 -0.2608 0.2608 0.9654 -73.6265 64.8853)" style="fill:#707070;" width="4.958" height="31.649"/>
					
						<rect x="218.065" y="290.629" transform="matrix(0.9654 -0.2608 0.2608 0.9654 -72.2796 68.1095)" style="fill:#707070;" width="4.958" height="31.649"/>
					
						<rect x="223.871" y="289.456" transform="matrix(0.9654 -0.2608 0.2608 0.9654 -71.8248 69.2034)" style="fill:#707070;" width="2.033" height="31.649"/>
					
						<rect x="228.137" y="288.304" transform="matrix(0.9654 -0.2608 0.2608 0.9654 -71.3768 70.2758)" style="fill:#707070;" width="2.032" height="31.649"/>
					
						<rect x="252.095" y="281.833" transform="matrix(0.9654 -0.2608 0.2608 0.9654 -68.8605 76.2992)" style="fill:#707070;" width="2.032" height="31.649"/>
					
						<rect x="256.36" y="280.681" transform="matrix(0.9654 -0.2608 0.2608 0.9654 -68.4153 77.3758)" style="fill:#707070;" width="2.032" height="31.649"/>
					
						<rect x="238.881" y="285.539" transform="matrix(0.9654 -0.2608 0.2608 0.9654 -70.3021 72.8499)" style="fill:#707070;" width="1.016" height="31.649"/>
					
						<rect x="242.135" y="284.66" transform="matrix(0.9654 -0.2608 0.2608 0.9654 -69.9603 73.668)" style="fill:#707070;" width="1.016" height="31.649"/>
					
						<rect x="232.496" y="286.731" transform="matrix(0.9654 -0.2607 0.2607 0.9654 -70.7627 71.7362)" style="fill:#707070;" width="4.958" height="31.649"/>
					
						<rect x="245.321" y="283.268" transform="matrix(0.9654 -0.2608 0.2608 0.9654 -69.4171 74.9621)" style="fill:#707070;" width="4.958" height="31.649"/>
				</g>
			</g>
		</g>
	</g>
</g>
<g id="DESIGNED_BY_FREEPIK">
	<g>
		<g id="XMLID_319_">
			<g id="XMLID_338_">
				<path id="XMLID_346_" style="fill:#222221;" d="M260.104,465.465c-0.432,0.443-0.803,0.931-1.108,1.453l-0.465-0.241
					c-0.067-0.298-0.349-0.503-0.659-0.466c-0.331,0.039-0.568,0.339-0.529,0.67s0.339,0.568,0.67,0.529
					c0.065-0.008,0.127-0.026,0.184-0.052l0.451,0.234c-0.251,0.554-0.433,1.139-0.539,1.744l0.746,0.132
					c0.23-1.306,0.85-2.507,1.792-3.473L260.104,465.465z"/>
				<path id="XMLID_345_" style="fill:#222221;" d="M265.592,463.163c-0.171,0-0.341,0.006-0.51,0.017l-0.074-0.626
					c0.188-0.149,0.296-0.389,0.266-0.645c-0.046-0.393-0.402-0.674-0.795-0.628s-0.674,0.402-0.628,0.795
					c0.03,0.254,0.189,0.461,0.405,0.564l0.073,0.624c-0.714,0.116-1.403,0.332-2.06,0.646l0.327,0.684
					c0.934-0.447,1.942-0.673,2.995-0.673c0.496,0,0.993,0.053,1.475,0.158l0.161-0.741
					C266.693,463.222,266.142,463.163,265.592,463.163z"/>
				<path id="XMLID_344_" style="fill:#222221;" d="M272.194,465.711c0.331-0.04,0.566-0.341,0.525-0.672
					c-0.04-0.331-0.341-0.566-0.672-0.526c-0.309,0.038-0.535,0.304-0.53,0.609l-0.416,0.363c-0.418-0.43-0.89-0.813-1.408-1.139
					l-0.404,0.641c1.134,0.715,2.021,1.726,2.563,2.925l0.691-0.313c-0.251-0.554-0.568-1.072-0.942-1.545l0.402-0.351
					C272.065,465.716,272.129,465.719,272.194,465.711z"/>
				<path id="XMLID_343_" style="fill:#222221;" d="M265.044,473.372c-0.386,0.023-0.775,0.035-1.157,0.035
					c-0.88,0-1.733-0.061-2.478-0.179c-0.39-0.062-0.846-0.155-1.27-0.292c1.046,1.861,3.069,3.125,5.388,3.125
					c2.855,0,5.262-1.916,5.95-4.504c-0.682,0.449-1.505,0.825-2.459,1.123C267.839,473.047,266.464,473.286,265.044,473.372z"/>
				<path id="XMLID_339_" style="fill:#222221;" d="M265.592,464.68c-3.352,0-6.08,2.666-6.08,5.943
					c0,0.426,0.046,0.849,0.137,1.261c0.674,0.483,2.706,0.89,5.348,0.731c2.879-0.173,5.297-0.957,6.672-2.159
					c-0.005-0.195-0.021-0.39-0.045-0.582C271.244,466.913,268.65,464.68,265.592,464.68z M263.432,471.194
					c-1.02,0-1.85-0.83-1.85-1.85c0-1.02,0.83-1.85,1.85-1.85c1.02,0,1.85,0.83,1.85,1.85
					C265.282,470.365,264.452,471.194,263.432,471.194z M268.17,470.286c-0.75,0-1.36-0.61-1.36-1.36s0.61-1.361,1.36-1.361
					c0.75,0,1.361,0.61,1.361,1.361S268.92,470.286,268.17,470.286z"/>
			</g>
			<path id="XMLID_336_" style="fill:#222221;" d="M281.595,466.547c-0.295-0.116-0.806-0.309-1.382-0.237
				c-0.551,0.069-0.844,0.341-0.844,1.007v0.866h2.228v1.717h-2.228v5.455h-1.932v-5.455h-1.34v-1.717h1.34v-0.888
				c0-1.68,0.896-2.783,2.568-2.783c0.642,0,1.157,0.122,1.59,0.308L281.595,466.547z"/>
			<path id="XMLID_334_" style="fill:#222221;" d="M286.298,469.879c-0.177-0.03-0.358-0.046-0.526-0.046
				c-0.896,0-1.51,0.548-1.51,1.614v3.908h-1.932v-7.172h1.873v0.785c0.451-0.673,1.14-0.977,2.021-0.977
				c0.414,0,0.848,0.128,1.094,0.337L286.298,469.879z"/>
			<path id="XMLID_331_" style="fill:#222221;" d="M293.965,471.757c0,0.222-0.015,0.489-0.037,0.651h-5.085
				c0.207,1.036,0.933,1.488,1.843,1.488c0.622,0,1.295-0.252,1.813-0.688l1.132,1.243c-0.814,0.748-1.85,1.088-3.057,1.088
				c-2.198,0-3.723-1.495-3.723-3.753c0-2.258,1.48-3.797,3.627-3.797C292.544,467.99,293.958,469.522,293.965,471.757z
				 M288.851,471.091h3.175c-0.177-0.918-0.733-1.436-1.562-1.436C289.554,469.655,289.021,470.203,288.851,471.091z"/>
			<path id="XMLID_328_" style="fill:#222221;" d="M301.618,471.757c0,0.222-0.015,0.489-0.037,0.651h-5.085
				c0.207,1.036,0.932,1.488,1.843,1.488c0.622,0,1.295-0.252,1.813-0.688l1.132,1.243c-0.814,0.748-1.85,1.088-3.057,1.088
				c-2.198,0-3.723-1.495-3.723-3.753c0-2.258,1.48-3.797,3.627-3.797C300.197,467.99,301.611,469.522,301.618,471.757z
				 M296.504,471.091h3.175c-0.178-0.918-0.733-1.436-1.562-1.436C297.207,469.655,296.674,470.203,296.504,471.091z"/>
			<path id="XMLID_325_" style="fill:#222221;" d="M309.964,471.764c0,2.154-1.495,3.775-3.471,3.775
				c-0.962,0-1.643-0.378-2.109-0.933v3.708h-1.924v-10.133h1.887v0.792c0.466-0.585,1.155-0.984,2.139-0.984
				C308.469,467.99,309.964,469.61,309.964,471.764z M304.287,471.764c0,1.132,0.747,1.976,1.843,1.976
				c1.14,0,1.85-0.881,1.85-1.976c0-1.095-0.71-1.976-1.85-1.976C305.035,469.788,304.287,470.632,304.287,471.764z"/>
			<path id="XMLID_322_" style="fill:#222221;" d="M313.068,465.836c0,0.696-0.54,1.229-1.236,1.229
				c-0.696,0-1.229-0.533-1.229-1.229c0-0.696,0.533-1.243,1.229-1.243C312.527,464.592,313.068,465.14,313.068,465.836z
				 M312.809,475.354h-1.932v-7.172h1.932V475.354z"/>
			<path id="XMLID_320_" style="fill:#222221;" d="M316.032,470.736l2.702-2.554h2.368l-3.479,3.375l3.501,3.797h-2.376
				l-2.716-2.901v2.901H314.1v-10.658h1.932V470.736z"/>
		</g>
		<g>
			<path style="fill:#222221;" d="M184.412,475.289v-1.055c-0.527,0.718-1.391,1.23-2.388,1.23c-1.846,0-3.149-1.406-3.149-3.706
				c0-2.256,1.289-3.721,3.149-3.721c0.952,0,1.816,0.469,2.388,1.245v-3.765h1.099v9.77H184.412z M184.412,473.37v-3.208
				c-0.395-0.615-1.245-1.143-2.124-1.143c-1.421,0-2.27,1.172-2.27,2.739c0,1.567,0.85,2.724,2.27,2.724
				C183.168,474.483,184.017,473.986,184.412,473.37z"/>
			<path style="fill:#222221;" d="M186.932,471.744c0-2.051,1.465-3.706,3.486-3.706c2.139,0,3.398,1.67,3.398,3.794v0.279h-5.727
				c0.088,1.333,1.025,2.446,2.549,2.446c0.805,0,1.626-0.322,2.182-0.894l0.527,0.718c-0.703,0.703-1.655,1.084-2.812,1.084
				C188.44,475.465,186.932,473.956,186.932,471.744z M190.403,468.947c-1.509,0-2.256,1.274-2.314,2.358h4.643
				C192.718,470.25,192.015,468.947,190.403,468.947z"/>
			<path style="fill:#222221;" d="M194.607,474.351l0.571-0.791c0.469,0.542,1.362,1.011,2.329,1.011c1.084,0,1.67-0.513,1.67-1.216
				c0-1.714-4.38-0.659-4.38-3.281c0-1.098,0.952-2.036,2.636-2.036c1.201,0,2.051,0.454,2.622,1.026l-0.513,0.762
				c-0.424-0.513-1.201-0.894-2.109-0.894c-0.967,0-1.567,0.483-1.567,1.113c0,1.552,4.38,0.527,4.38,3.281
				c0,1.187-0.952,2.138-2.783,2.138C196.306,475.465,195.325,475.113,194.607,474.351z"/>
			<path style="fill:#222221;" d="M201.477,466.471c0-0.41,0.337-0.747,0.732-0.747c0.41,0,0.747,0.337,0.747,0.747
				c0,0.41-0.337,0.732-0.747,0.732C201.814,467.203,201.477,466.881,201.477,466.471z M201.667,475.289v-7.075h1.099v7.075H201.667
				z"/>
			<path style="fill:#222221;" d="M204.582,477.105l0.556-0.82c0.586,0.703,1.289,0.967,2.3,0.967c1.172,0,2.27-0.571,2.27-2.124
				v-1.011c-0.513,0.718-1.377,1.26-2.373,1.26c-1.845,0-3.149-1.377-3.149-3.662c0-2.27,1.289-3.677,3.149-3.677
				c0.952,0,1.802,0.469,2.373,1.245v-1.069h1.098v6.87c0,2.344-1.641,3.076-3.369,3.076
				C206.237,478.16,205.417,477.926,204.582,477.105z M209.709,473.253v-3.091c-0.381-0.615-1.23-1.143-2.109-1.143
				c-1.421,0-2.27,1.128-2.27,2.695c0,1.553,0.849,2.695,2.27,2.695C208.478,474.41,209.328,473.868,209.709,473.253z"/>
			<path style="fill:#222221;" d="M217.413,475.289v-4.629c0-1.245-0.63-1.641-1.582-1.641c-0.865,0-1.685,0.527-2.095,1.099v5.17
				h-1.099v-7.075h1.099v1.025c0.498-0.586,1.465-1.201,2.519-1.201c1.48,0,2.256,0.747,2.256,2.285v4.966H217.413z"/>
			<path style="fill:#222221;" d="M219.932,471.744c0-2.051,1.465-3.706,3.486-3.706c2.139,0,3.398,1.67,3.398,3.794v0.279h-5.727
				c0.088,1.333,1.025,2.446,2.549,2.446c0.806,0,1.626-0.322,2.183-0.894l0.527,0.718c-0.703,0.703-1.655,1.084-2.812,1.084
				C221.441,475.465,219.932,473.956,219.932,471.744z M223.404,468.947c-1.509,0-2.256,1.274-2.314,2.358h4.643
				C225.718,470.25,225.015,468.947,223.404,468.947z"/>
			<path style="fill:#222221;" d="M233.35,475.289v-1.055c-0.527,0.718-1.392,1.23-2.388,1.23c-1.846,0-3.149-1.406-3.149-3.706
				c0-2.256,1.289-3.721,3.149-3.721c0.952,0,1.817,0.469,2.388,1.245v-3.765h1.098v9.77H233.35z M233.35,473.37v-3.208
				c-0.396-0.615-1.245-1.143-2.124-1.143c-1.421,0-2.27,1.172-2.27,2.739c0,1.567,0.849,2.724,2.27,2.724
				C232.105,474.483,232.954,473.986,233.35,473.37z"/>
			<path style="fill:#222221;" d="M239.692,475.289v-9.77h1.098v3.765c0.572-0.776,1.421-1.245,2.388-1.245
				c1.845,0,3.149,1.465,3.149,3.721c0,2.299-1.304,3.706-3.149,3.706c-0.996,0-1.86-0.513-2.388-1.23v1.055H239.692z
				 M242.9,474.483c1.436,0,2.285-1.157,2.285-2.724c0-1.568-0.85-2.739-2.285-2.739c-0.864,0-1.728,0.527-2.109,1.143v3.208
				C241.171,473.986,242.036,474.483,242.9,474.483z"/>
			<path style="fill:#222221;" d="M247.528,477.061c0.161,0.073,0.425,0.117,0.601,0.117c0.483,0,0.805-0.161,1.055-0.747
				l0.469-1.069l-2.959-7.148h1.187l2.358,5.8l2.344-5.8h1.201l-3.545,8.51c-0.425,1.025-1.143,1.421-2.08,1.435
				c-0.234,0-0.601-0.044-0.805-0.103L247.528,477.061z"/>
		</g>
	</g>
</g>
</svg>
