<?xml version="1.0" encoding="utf-8"?>
<!-- Generator: Adobe Illustrator 27.5.0, SVG Export Plug-In . SVG Version: 6.00 Build 0)  -->
<svg version="1.1" xmlns="http://www.w3.org/2000/svg" xmlns:xlink="http://www.w3.org/1999/xlink" x="0px" y="0px"
	 viewBox="0 0 500 500" style="enable-background:new 0 0 500 500;" xml:space="preserve">
<g id="BACKGROUND">
	<g>
		<g>
			<path style="fill:#F2E6FF;" d="M355.206,186.516c80.507-6.128,119.526,17.587,94.607,61.09
				c-24.918,43.503-49.674,84.318-36.747,108.383c28.139,52.386,18.409,99.83,8.99,116.574c-2.394,0.501-321.964,0-321.964,0
				c-16.725-20.86-25.451-73.129-12.665-113.719c14.974-47.539-37.599-52.067-66.213-118.567
				c-33.453-77.747,36.068-126.873,107.264-114.192c42.908,7.642,70.134-53.363,150.75-46.423
				C359.845,86.602,324.015,188.891,355.206,186.516z"/>
		</g>
		<g>
			<path style="fill:#BBAFEF;" d="M374.753,473.412c12.413,1.67,45.781,3.472,57.798-1.574c6.89-2.893,14.561-11.786,9.661-19.495
				c-4.167-6.56-16.755-3.074-22.795-2.47c-1.677,0.167-9.537,0.263-6.527-3.399c2.155-2.621,5.881-3.134,9.009-3.42
				c7.6-0.692,15.104,1.898,22.733,1.391c8.781-0.583,19.178-7.609,21.616-16.439c2.322-8.409-9.55-6.274-13.801-5.184
				c-4.06,1.043-8.114,2.185-12.316,2.473c-4.302,0.293-5.102-1.779-4.446-4.33l24.468-21.061c4.918-2.963,9.681-6.078,13.296-9.692
				c0.33-0.029,0.647-0.164,0.885-0.455c0.64-0.782,1.301-1.747,1.944-2.829c1.697-2.331,2.889-4.874,3.373-7.699
				c1.081-3.642,1.448-7.358,0.301-10.085c-3.451-8.195-14.706,2.038-18.111,4.945c-2.125,1.816-4.379,3.667-7.101,4.467
				c-2.96,0.872-2.942-5.05-3.074-6.503c-0.299-3.294-0.584-8.444-4.013-10.218c-8.514-4.403-14.169,5.772-16.794,12.276
				c-1.688,4.182-2.973,8.478-4.36,12.764c-0.638,1.97-1.881,7.287-4.785,6.791c-3.079-0.525-6.102-3.209-8.786-4.707
				c-8.802-4.916-19.946-8.198-25.118,3.122c-6.142,13.442,5.717,30.33-8.954,40.459c-5.02,3.466-11.042,5.151-16.05,8.653
				c-4.75,3.318-18.961,24.099-10.162,32.22H374.753z"/>
			<path style="fill:#BBAFEF;" d="M110.92,474.424c14.833-25.73-3.503-42.6-6.629-45.217c-4.326-3.621-12.18-6.705-12.097-13.348
				c0.057-4.421,4.354-8.568,7.175-11.51c3.389-3.532,6.999-6.841,10.102-10.639c5.995-7.339,7.566-20.181-1.848-25.426
				c-4.526-2.522-9.579-1.242-14.184,0.149c-2.571,0.778-9.042,3.371-10.202-0.915c-1.095-4.053,2.288-8.465,4.311-11.66
				c2.31-3.65,5.994-8.771,5.182-13.421c-0.752-4.303-3.197-8.381-8.192-7.863c-4.544,0.473-9.579,2.82-12.679,6.229
				c-1.626,1.786-3.059,3.712-4.506,5.642c-0.686,0.912-1.395,1.803-2.125,2.679c-2.128,2.554-2.006-0.425-2.276-2.307
				c-1.22-8.517,0.941-24.456-11.444-25.228c-0.633,0.02-1.268,0.07-1.901,0.146c-0.395,0.033-0.623,0.289-0.712,0.598
				c-2.362,0.472-4.694,2.529-6.424,6.011c-5.581,11.234-0.039,23.723,5.195,33.841c2.952,5.699,5.921,11.346,7.262,17.673
				c1.273,6.015,1.329,14.925-6.893,9.496c-6.09-4.02-10.256-15.137-18.151-16.152c-9.105-1.174-6.64,13.713-4.569,18.285
				c4.514,9.969,14.119,14.397,23.143,19.232c4.574,2.45,9.82,5.477,12.239,10.266c1.421,2.81-0.154,7.113-3.577,7.171
				c-2.701,0.044-5.644-1.729-7.93-2.963c-4.143-2.238-13.526-9.373-16.889-2.415c-2.095,4.333,2.696,11.618,4.657,15.121
				c4.095,7.319,9.258,13.528,15.635,19.013c8.785,7.551,19.387,12.065,29.465,17.511H110.92z"/>
			<path style="fill:#BBAFEF;" d="M274.175,473.337c8.989-11.068,12.172-30.968,4.207-43.237
				c-3.474-5.354-11.972-11.282-18.21-6.847c-2.978,2.116-5.298,5.355-6.4,8.849c-0.226,0.713-0.378,1.707-0.529,2.793
				c-0.035-0.314-0.078-0.612-0.13-0.885c-0.705-3.746-2.345-7.467-3.754-10.992c-2.489-6.228-5.729-12.197-10.075-17.336
				c-3.413-4.035-8.279-7.477-13.773-6.084c-5.674,1.439-7.655,7.461-8.209,12.638c-1.635,15.295,5.522,31.286,15.701,42.265
				c6.526,7.04,14.919,13.196,22.395,18.837H274.175z"/>
			<path style="fill:#BBAFEF;" d="M170.379,474.82c-16.748-0.172-45.082-7.478-51.781-25.397c-6.691-17.91,7.879-6.689,10.639-13.19
				c2.753-6.497-8.273-22.246,0.98-25.394c9.256-3.152,14.965,13.19,20.674,10.039c5.709-3.151,2.558-34.455,21.855-33.475
				c19.293,0.991,19.293,25.989,19.098,40.565c-0.199,14.566,16.732-11.029,24.215,2.757
				C223.542,444.505,208.577,475.212,170.379,474.82z"/>
			<path style="fill:#BBAFEF;" d="M350.849,374.746c-5.832,3.036-5.895,12.843-9.473,17.695c-4.83,6.552-7.324-0.373-8.051-5.399
				c-0.764-5.288-0.068-10.513,0.598-15.773c1.176-9.337,1.916-20.6-5.613-27.721c-2.332-2.207-4.727-3.138-6.693-2.831
				c-0.156-0.213-0.406-0.348-0.721-0.261c-0.514,0.122-1.02,0.264-1.516,0.428c-9.385,4.127-3.17,15.871-1.689,22.823
				c0.328,1.536,1.272,3.81-1.107,2.436c-0.815-0.472-1.619-0.96-2.41-1.473c-1.672-1.083-3.332-2.168-5.102-3.09
				c-3.375-1.761-7.947-2.147-11.605-1.22c-4.021,1.021-4.755,4.88-4.111,8.431c0.693,3.838,5.008,6.759,7.84,8.932
				c2.478,1.901,6.359,4.358,6.664,7.813c0.322,3.654-5.435,3.488-7.649,3.616c-3.968,0.232-8.249,0.68-11.041,3.925
				c-5.806,6.749-0.929,16.259,5.81,20.242c2.627,1.552,5.396,2.807,8.154,4.089c-31.087-11.983-37.408,13.993-4.77,48.001
				c4.904,5.111,10.707,8.029,16.615,9.246c0.592,0.558,1.209,1.112,1.869,1.664l2.861-1.052c4.16,0.238,8.389,0.05,12.039-1.458
				c19.697-8.137,40.492-37.826,13.639-48.693c-2.623-1.06-5.119-1.957-4.816-4.541c0.512-4.402,3.717-8.243,6.564-11.446
				c5.621-6.321,11.809-12.49,12.469-21.506C359.905,383.487,357.575,371.242,350.849,374.746z"/>
		</g>
	</g>
	<path style="fill:#7E3F98;" d="M461.939,473.841c0,1.544-1.252,2.796-2.797,2.796H61.326c-1.544,0-2.796-1.252-2.796-2.796l0,0
		c0-1.545,1.252-2.797,2.796-2.797h397.816C460.688,471.044,461.939,472.296,461.939,473.841L461.939,473.841z"/>
</g>
<g id="OBJECTS">
	<g>
		<g>
			<g>
				<path style="fill:#502B70;" d="M251.133,381.037c0,7.705-6.245,13.949-13.95,13.949H98.901c-7.703,0-13.949-6.244-13.949-13.949
					V70.598c0-7.704,6.246-13.95,13.949-13.95h138.282c7.704,0,13.95,6.246,13.95,13.95V381.037z"/>
				<rect x="93.455" y="90.548" style="fill:#D3D9F3;" width="149.174" height="272.7"/>
				<path style="fill:#AA5ACC;" d="M178.504,377.424c0,5.776-4.683,10.462-10.462,10.462c-5.778,0-10.462-4.686-10.462-10.462
					c0-5.778,4.684-10.464,10.462-10.464C173.821,366.961,178.504,371.646,178.504,377.424z"/>
				<g>
					<path style="fill:#AA5ACC;" d="M188.163,69.117c0,1.677-1.359,3.036-3.037,3.036h-48.603c-1.677,0-3.036-1.359-3.036-3.036l0,0
						c0-1.678,1.359-3.039,3.036-3.039h48.603C186.803,66.079,188.163,67.439,188.163,69.117L188.163,69.117z"/>
					<path style="fill:#AA5ACC;" d="M202.598,69.116c0,2.61-2.115,4.726-4.726,4.726c-2.61,0-4.726-2.116-4.726-4.726
						c0-2.61,2.116-4.725,4.726-4.725C200.483,64.391,202.598,66.505,202.598,69.116z"/>
				</g>
			</g>
			<g>
				<g>
					<path style="fill:#FFFFFF;" d="M230.111,140.479c0,7.704-6.245,13.95-13.948,13.95H88.137c-7.703,0-13.949-6.246-13.949-13.95
						v-18.676c0-7.704,6.246-13.95,13.949-13.95h128.026c7.704,0,13.948,6.246,13.948,13.95V140.479z"/>
					<g>
						<path style="fill:#F5E5E5;" d="M109.688,124.398c0,1.771-1.436,3.209-3.207,3.209H85.26c-1.773,0-3.208-1.439-3.208-3.209l0,0
							c0-1.771,1.436-3.207,3.208-3.207h21.221C108.252,121.191,109.688,122.627,109.688,124.398L109.688,124.398z"/>
						<path style="fill:#F5E5E5;" d="M170.748,124.398c0,1.771-1.435,3.209-3.206,3.209h-46.75c-1.772,0-3.208-1.439-3.208-3.209
							l0,0c0-1.771,1.436-3.207,3.208-3.207h46.75C169.313,121.191,170.748,122.627,170.748,124.398L170.748,124.398z"/>
						<path style="fill:#F5E5E5;" d="M222.248,124.438c0,1.771-1.436,3.21-3.205,3.21l-35.873-0.041
							c-1.771,0-3.208-1.439-3.208-3.209l0,0c0-1.771,1.437-3.207,3.208-3.207l35.873,0.041
							C220.811,121.232,222.248,122.668,222.248,124.438L222.248,124.438z"/>
						<path style="fill:#F5E5E5;" d="M173.956,137.882c0,1.771-1.436,3.209-3.209,3.209H85.26c-1.773,0-3.208-1.438-3.208-3.209l0,0
							c0-1.771,1.436-3.208,3.208-3.208h85.488C172.521,134.674,173.956,136.11,173.956,137.882L173.956,137.882z"/>
						<path style="fill:#F5E5E5;" d="M222.248,137.882c0,1.771-1.436,3.209-3.205,3.209H184.11c-1.773,0-3.209-1.438-3.209-3.209
							l0,0c0-1.771,1.436-3.208,3.209-3.208h34.932C220.811,134.674,222.248,136.11,222.248,137.882L222.248,137.882z"/>
					</g>
				</g>
				<g>
					<path style="fill:#E88282;" d="M110.28,84.042c0,12.35-22.362,33.034-22.362,33.034S65.556,96.392,65.556,84.042
						c0-12.352,10.012-22.363,22.362-22.363S110.28,71.69,110.28,84.042z"/>
					<path style="fill:#F7F7F7;" d="M97.981,84.042c0,5.558-4.505,10.063-10.063,10.063c-5.558,0-10.063-4.505-10.063-10.063
						c0-5.559,4.505-10.063,10.063-10.063C93.476,73.979,97.981,78.483,97.981,84.042z"/>
				</g>
				<g>
					<g>
						<path style="fill:#F5E5E5;" d="M235.878,240.043c0,7.706-6.243,13.95-13.948,13.95H93.226c-7.701,0-13.947-6.244-13.947-13.95
							v-47.025c0-7.704,6.246-13.949,13.947-13.949H221.93c7.706,0,13.948,6.245,13.948,13.949V240.043z"/>
						<g>
							<path style="fill:#FFFFFF;" d="M115.116,195.311c0,1.771-1.437,3.209-3.21,3.209h-21.22c-1.771,0-3.206-1.438-3.206-3.209
								l0,0c0-1.771,1.434-3.207,3.206-3.207h21.22C113.679,192.104,115.116,193.54,115.116,195.311L115.116,195.311z"/>
							<path style="fill:#FFFFFF;" d="M176.177,195.311c0,1.771-1.436,3.209-3.208,3.209h-46.751c-1.773,0-3.21-1.438-3.21-3.209
								l0,0c0-1.771,1.437-3.207,3.21-3.207h46.751C174.74,192.104,176.177,193.54,176.177,195.311L176.177,195.311z"/>
							<path style="fill:#FFFFFF;" d="M227.675,195.352c0,1.771-1.438,3.21-3.207,3.21l-35.872-0.041
								c-1.773,0-3.206-1.438-3.206-3.209l0,0c0-1.771,1.433-3.207,3.206-3.207l35.872,0.041
								C226.237,192.145,227.675,193.581,227.675,195.352L227.675,195.352z"/>
							<path style="fill:#FFFFFF;" d="M131.648,208.794c0,1.771-1.436,3.21-3.209,3.21H90.686c-1.771,0-3.206-1.439-3.206-3.21l0,0
								c0-1.771,1.434-3.207,3.206-3.207h37.753C130.212,205.588,131.648,207.023,131.648,208.794L131.648,208.794z"/>
							<path style="fill:#FFFFFF;" d="M197.282,208.794c0,1.771-1.433,3.21-3.206,3.21h-50.214c-1.773,0-3.21-1.439-3.21-3.21l0,0
								c0-1.771,1.437-3.207,3.21-3.207h50.214C195.849,205.588,197.282,207.023,197.282,208.794L197.282,208.794z"/>
							<path style="fill:#FFFFFF;" d="M227.675,208.794c0,1.771-1.438,3.21-3.207,3.21h-14.48c-1.772,0-3.208-1.439-3.208-3.21l0,0
								c0-1.771,1.437-3.207,3.208-3.207h14.48C226.237,205.588,227.675,207.023,227.675,208.794L227.675,208.794z"/>
							<path style="fill:#FFFFFF;" d="M120.38,222.744c0,1.771-1.435,3.21-3.208,3.21H90.686c-1.771,0-3.206-1.439-3.206-3.21l0,0
								c0-1.771,1.434-3.207,3.206-3.207h26.486C118.945,219.537,120.38,220.973,120.38,222.744L120.38,222.744z"/>
							<path style="fill:#FFFFFF;" d="M174.332,222.744c0,1.771-1.433,3.21-3.206,3.21h-41.082c-1.773,0-3.208-1.439-3.208-3.21l0,0
								c0-1.771,1.435-3.207,3.208-3.207h41.082C172.898,219.537,174.332,220.973,174.332,222.744L174.332,222.744z"/>
							<path style="fill:#FFFFFF;" d="M195.681,237.749c0,1.771-1.437,3.209-3.21,3.209h-47.423c-1.773,0-3.209-1.438-3.209-3.209
								l0,0c0-1.771,1.436-3.208,3.209-3.208h47.423C194.245,234.541,195.681,235.978,195.681,237.749L195.681,237.749z"/>
							<path style="fill:#FFFFFF;" d="M227.675,237.749c0,1.771-1.438,3.209-3.207,3.209h-15.635c-1.772,0-3.208-1.438-3.208-3.209
								l0,0c0-1.771,1.437-3.208,3.208-3.208h15.635C226.237,234.541,227.675,235.978,227.675,237.749L227.675,237.749z"/>
							<path style="fill:#FFFFFF;" d="M130.044,237.749c0,1.771-1.436,3.209-3.208,3.209h-36.15c-1.771,0-3.206-1.438-3.206-3.209
								l0,0c0-1.771,1.434-3.208,3.206-3.208h36.15C128.608,234.541,130.044,235.978,130.044,237.749L130.044,237.749z"/>
							<path style="fill:#FFFFFF;" d="M227.675,222.744c0,1.771-1.438,3.21-3.207,3.21h-41.138c-1.77,0-3.208-1.439-3.208-3.21l0,0
								c0-1.771,1.439-3.207,3.208-3.207h41.138C226.237,219.537,227.675,220.973,227.675,222.744L227.675,222.744z"/>
						</g>
					</g>
				</g>
				<g>
					<path style="fill:#FFFFFF;" d="M297.629,312.934c0,7.705-6.248,13.951-13.951,13.951H144.852
						c-7.704,0-13.95-6.246-13.95-13.951v-20.026c0-7.704,6.246-13.95,13.95-13.95h138.826c7.703,0,13.951,6.246,13.951,13.95
						V312.934z"/>
					<g>
						<path style="fill:#F5E5E5;" d="M231.849,295.417c0,1.771-1.437,3.21-3.206,3.21h-81.269c-1.772,0-3.208-1.439-3.208-3.21l0,0
							c0-1.772,1.436-3.204,3.208-3.204h81.269C230.413,292.212,231.849,293.645,231.849,295.417L231.849,295.417z"/>
						<path style="fill:#F5E5E5;" d="M252.368,310.421c0,1.771-1.436,3.209-3.208,3.209h-47.424c-1.773,0-3.208-1.439-3.208-3.209
							l0,0c0-1.771,1.436-3.208,3.208-3.208h47.424C250.933,307.213,252.368,308.65,252.368,310.421L252.368,310.421z"/>
						<path style="fill:#F5E5E5;" d="M186.732,310.421c0,1.771-1.436,3.209-3.208,3.209h-36.149c-1.772,0-3.208-1.439-3.208-3.209
							l0,0c0-1.771,1.436-3.208,3.208-3.208h36.149C185.296,307.213,186.732,308.65,186.732,310.421L186.732,310.421z"/>
						<path style="fill:#F5E5E5;" d="M284.363,295.417c0,1.771-1.434,3.21-3.205,3.21h-41.14c-1.769,0-3.206-1.439-3.206-3.21l0,0
							c0-1.772,1.437-3.204,3.206-3.204h41.14C282.93,292.212,284.363,293.645,284.363,295.417L284.363,295.417z"/>
					</g>
				</g>
				<g>
					<g>
						<path style="fill:#E88282;" d="M255.04,333.524c0-11.724,9.539-21.262,21.261-21.262c11.727,0,21.264,9.538,21.264,21.262
							c0,11.724-9.537,21.264-21.264,21.264C264.579,354.788,255.04,345.248,255.04,333.524z"/>
					</g>
					<g>
						<path style="fill:#FFFFFF;" d="M272.18,344.811c-0.582,0-1.163-0.22-1.607-0.656l-6.954-6.83
							c-0.906-0.885-0.919-2.34-0.031-3.242c0.887-0.903,2.338-0.917,3.242-0.029l5.377,5.276l16.04-15.223
							c0.924-0.872,2.373-0.832,3.244,0.085c0.873,0.92,0.834,2.37-0.086,3.243L273.76,344.18
							C273.315,344.6,272.746,344.811,272.18,344.811z"/>
					</g>
				</g>
				<g>
					<path style="fill:#FFFFFF;" d="M309.953,214.992c0,4.144-3.971,7.505-8.869,7.505h-70.088c-4.898,0-8.871-3.361-8.871-7.505
						v-59.286c0-4.146,3.973-7.507,8.871-7.507h70.088c4.898,0,8.869,3.361,8.869,7.507V214.992z"/>
					<path style="fill:#E88282;" d="M301.084,148.199h-70.088c-4.898,0-8.871,3.361-8.871,7.507v12.369h87.828v-12.369
						C309.953,151.561,305.982,148.199,301.084,148.199z"/>
					<g>
						<path style="fill:#EE5768;" d="M258.89,202.916c0,1.821-1.475,3.304-3.303,3.304h-3.857c-1.827,0-3.303-1.482-3.303-3.304
							v-3.863c0-1.817,1.477-3.302,3.303-3.302h3.857c1.828,0,3.303,1.484,3.303,3.302V202.916z"/>
						<g>
							<path style="fill:#F5E5E5;" d="M246.509,177.775c0,1.821-1.478,3.299-3.303,3.299h-3.863c-1.82,0-3.3-1.478-3.3-3.299v-3.864
								c0-1.822,1.48-3.303,3.3-3.303h3.863c1.825,0,3.303,1.482,3.303,3.303V177.775z"/>
							<path style="fill:#F5E5E5;" d="M246.509,190.345c0,1.822-1.478,3.3-3.303,3.3h-3.863c-1.82,0-3.3-1.478-3.3-3.3v-3.862
								c0-1.825,1.48-3.303,3.3-3.303h3.863c1.825,0,3.303,1.478,3.303,3.303V190.345z"/>
							<path style="fill:#F5E5E5;" d="M246.509,202.916c0,1.821-1.478,3.304-3.303,3.304h-3.863c-1.82,0-3.3-1.482-3.3-3.304v-3.863
								c0-1.817,1.48-3.302,3.3-3.302h3.863c1.825,0,3.303,1.484,3.303,3.302V202.916z"/>
							<path style="fill:#F5E5E5;" d="M246.509,215.484c0,1.829-1.478,3.304-3.303,3.304h-3.863c-1.82,0-3.3-1.475-3.3-3.304v-3.857
								c0-1.828,1.48-3.302,3.3-3.302h3.863c1.825,0,3.303,1.474,3.303,3.302V215.484z"/>
							<path style="fill:#F5E5E5;" d="M258.89,177.775c0,1.821-1.475,3.299-3.303,3.299h-3.857c-1.827,0-3.303-1.478-3.303-3.299
								v-3.864c0-1.822,1.477-3.303,3.303-3.303h3.857c1.828,0,3.303,1.482,3.303,3.303V177.775z"/>
							<path style="fill:#F5E5E5;" d="M258.89,190.345c0,1.822-1.475,3.3-3.303,3.3h-3.857c-1.827,0-3.303-1.478-3.303-3.3v-3.862
								c0-1.825,1.477-3.303,3.303-3.303h3.857c1.828,0,3.303,1.478,3.303,3.303V190.345z"/>
							<path style="fill:#F5E5E5;" d="M258.89,215.484c0,1.829-1.475,3.304-3.303,3.304h-3.857c-1.827,0-3.303-1.475-3.303-3.304
								v-3.857c0-1.828,1.477-3.302,3.303-3.302h3.857c1.828,0,3.303,1.474,3.303,3.302V215.484z"/>
							<path style="fill:#F5E5E5;" d="M271.272,177.775c0,1.821-1.479,3.299-3.304,3.299h-3.859c-1.823,0-3.302-1.478-3.302-3.299
								v-3.864c0-1.822,1.479-3.303,3.302-3.303h3.859c1.824,0,3.304,1.482,3.304,3.303V177.775z"/>
							<path style="fill:#F5E5E5;" d="M271.272,190.345c0,1.822-1.479,3.3-3.304,3.3h-3.859c-1.823,0-3.302-1.478-3.302-3.3v-3.862
								c0-1.825,1.479-3.303,3.302-3.303h3.859c1.824,0,3.304,1.478,3.304,3.303V190.345z"/>
							<path style="fill:#F5E5E5;" d="M271.272,202.916c0,1.821-1.479,3.304-3.304,3.304h-3.859c-1.823,0-3.302-1.482-3.302-3.304
								v-3.863c0-1.817,1.479-3.302,3.302-3.302h3.859c1.824,0,3.304,1.484,3.304,3.302V202.916z"/>
							<path style="fill:#F5E5E5;" d="M271.272,215.484c0,1.829-1.479,3.304-3.304,3.304h-3.859c-1.823,0-3.302-1.475-3.302-3.304
								v-3.857c0-1.828,1.479-3.302,3.302-3.302h3.859c1.824,0,3.304,1.474,3.304,3.302V215.484z"/>
							<path style="fill:#F5E5E5;" d="M283.656,177.775c0,1.821-1.48,3.299-3.303,3.299h-3.863c-1.822,0-3.299-1.478-3.299-3.299
								v-3.864c0-1.822,1.477-3.303,3.299-3.303h3.863c1.822,0,3.303,1.482,3.303,3.303V177.775z"/>
							<path style="fill:#F5E5E5;" d="M283.656,190.345c0,1.822-1.48,3.3-3.303,3.3h-3.863c-1.822,0-3.299-1.478-3.299-3.3v-3.862
								c0-1.825,1.477-3.303,3.299-3.303h3.863c1.822,0,3.303,1.478,3.303,3.303V190.345z"/>
							<path style="fill:#F5E5E5;" d="M283.656,202.916c0,1.821-1.48,3.304-3.303,3.304h-3.863c-1.822,0-3.299-1.482-3.299-3.304
								v-3.863c0-1.817,1.477-3.302,3.299-3.302h3.863c1.822,0,3.303,1.484,3.303,3.302V202.916z"/>
							<path style="fill:#F5E5E5;" d="M283.656,215.484c0,1.829-1.48,3.304-3.303,3.304h-3.863c-1.822,0-3.299-1.475-3.299-3.304
								v-3.857c0-1.828,1.477-3.302,3.299-3.302h3.863c1.822,0,3.303,1.474,3.303,3.302V215.484z"/>
							<path style="fill:#F5E5E5;" d="M296.037,177.775c0,1.821-1.477,3.299-3.305,3.299h-3.859c-1.824,0-3.299-1.478-3.299-3.299
								v-3.864c0-1.822,1.475-3.303,3.299-3.303h3.859c1.828,0,3.305,1.482,3.305,3.303V177.775z"/>
							<path style="fill:#F5E5E5;" d="M296.037,190.345c0,1.822-1.477,3.3-3.305,3.3h-3.859c-1.824,0-3.299-1.478-3.299-3.3v-3.862
								c0-1.825,1.475-3.303,3.299-3.303h3.859c1.828,0,3.305,1.478,3.305,3.303V190.345z"/>
							<path style="fill:#F5E5E5;" d="M296.037,202.916c0,1.821-1.477,3.304-3.305,3.304h-3.859c-1.824,0-3.299-1.482-3.299-3.304
								v-3.863c0-1.817,1.475-3.302,3.299-3.302h3.859c1.828,0,3.305,1.484,3.305,3.302V202.916z"/>
						</g>
					</g>
				</g>
				<g>
					<path style="fill:#E88282;" d="M148.842,285.481c0,10.677-8.657,19.333-19.336,19.333c-10.677,0-19.334-8.656-19.334-19.333
						c0-10.676,8.657-19.334,19.334-19.334C140.185,266.147,148.842,274.805,148.842,285.481z"/>
					<path style="fill:#FFFFFF;" d="M134.74,277.563c0,2.891-2.343,5.232-5.233,5.232c-2.887,0-5.227-2.341-5.227-5.232
						c0-2.891,2.34-5.231,5.227-5.231C132.397,272.332,134.74,274.672,134.74,277.563z"/>
					<path style="fill:#FFFFFF;" d="M118.119,296.035c0-6.289,5.1-11.387,11.388-11.387c6.294,0,11.389,5.098,11.389,11.387H118.119
						z"/>
				</g>
			</g>
		</g>
		<g>
			<g>
				<g>
					<g>
						<path style="fill:#FFBE89;" d="M329.304,351.485c0,0,6.481,64.797-0.339,119.717c0,0-1.535,8.111-9.531,1.461
							c0,0-2.217-69.803-8.227-119.031C305.197,304.405,329.304,351.485,329.304,351.485z"/>
						<path style="fill:#EA9860;" d="M311.207,353.631c-6.01-49.227,18.097-2.147,18.097-2.147s2.268,26.74,2.709,56.639
							c-6.521,0.842-10.884-0.549-16.38-2.469C314.471,389.649,313.008,368.378,311.207,353.631z"/>
					</g>
					<g>
						<path style="fill:#502B70;" d="M317.388,471.217l-2.541,6.238c0,0-17.089,1.934-19.927,8.32c0,0,22.136,0.566,37.208,0.627
							l-1.749-15.795c0,0-3.126-1.826-8.4-1.08C318.65,470,317.388,471.217,317.388,471.217z"/>
						<g>
							<path style="fill:#F2E6FF;" d="M295.294,487.795c0.048,0.002,0.095,0.002,0.142,0c22.286-0.773,36.413,0.35,36.549,0.361
								c1.012,0.141,1.818-0.643,1.897-1.611c0.078-0.965-0.644-1.816-1.61-1.895c-0.142-0.014-14.469-1.148-36.955-0.373
								c-0.973,0.035-1.732,0.85-1.699,1.818C293.65,487.02,294.388,487.753,295.294,487.795z"/>
						</g>
						<g>
							<g>
								<path style="fill:#F2E6FF;" d="M314.11,476.118c-0.097-1.053,0.979-1.465,1.696-1.732c1.1-0.412,2.515,0.226,3.226,1.223
									c0.654,0.92-0.199,1.885-0.958,1.963c-0.822,0.084-1.672-0.473-2.498-0.625C315.048,476.846,314.19,476.995,314.11,476.118
									L314.11,476.118z"/>
							</g>
							<g>
								<path style="fill:#F2E6FF;" d="M309.194,477.368c0.647-0.772,1.748-0.75,2.489-0.719c0.968,0.039,1.837,1.025,1.627,2.043
									c-0.125,0.611-0.766,1.248-1.375,1.147c-0.635-0.107-1.018-0.545-1.49-0.891c-0.475-0.348-1.168-0.303-1.451-0.854
									C308.881,477.875,309.001,477.6,309.194,477.368L309.194,477.368z"/>
							</g>
						</g>
					</g>
				</g>
				<g>
					<g>
						<path style="fill:#FFBE89;" d="M353.93,328.043c0,0,31.723,100.115,32.381,143.397c0,0-5.618,2.973-9.252,0
							c0,0-13.877-64.43-34.031-111.346C322.871,313.174,353.93,328.043,353.93,328.043z"/>
						<path style="fill:#EA9860;" d="M353.93,328.043c0,0,12.075,38.113,21.482,77.475c-4.402,2.488-9.208,4.492-14.067,6.063
							c-5.148-17.002-11.358-35.287-18.316-51.486C322.871,313.174,353.93,328.043,353.93,328.043z"/>
					</g>
					<g>
						<path style="fill:#502B70;" d="M374.028,462.688l-0.551,6.711c0,0-15.72,6.98-16.509,13.922c0,0,21.284-6.109,35.678-10.58
							l-6.413-14.541c0,0-3.53-0.799-8.336,1.496C374.864,461.149,374.028,462.688,374.028,462.688z"/>
						<g>
							<path style="fill:#F2E6FF;" d="M357.933,485.135c0.045-0.014,0.09-0.027,0.137-0.041
								c21.022-7.434,34.833-10.605,34.967-10.639c1.009-0.168,1.542-1.158,1.328-2.103c-0.217-0.949-1.159-1.541-2.108-1.326
								c-0.137,0.031-14.143,3.254-35.357,10.746c-0.918,0.324-1.398,1.33-1.074,2.248
								C356.132,484.891,357.055,485.368,357.933,485.135z"/>
						</g>
						<g>
							<g>
								<path style="fill:#F2E6FF;" d="M372.372,468.344c-0.409-0.975,0.494-1.691,1.098-2.162c0.925-0.725,2.467-0.539,3.444,0.197
									c0.9,0.68,0.375,1.855-0.324,2.16c-0.76,0.328-1.738,0.051-2.571,0.152C373.486,468.758,372.711,469.157,372.372,468.344
									L372.372,468.344z"/>
							</g>
							<g>
								<path style="fill:#F2E6FF;" d="M368.059,471.016c0.385-0.932,1.442-1.24,2.159-1.438c0.934-0.252,2.06,0.428,2.164,1.463
									c0.065,0.617-0.354,1.418-0.965,1.506c-0.64,0.086-1.136-0.213-1.69-0.4c-0.557-0.191-1.206,0.057-1.641-0.381
									C367.913,471.592,367.944,471.293,368.059,471.016L368.059,471.016z"/>
							</g>
						</g>
					</g>
				</g>
				<g>
					<path style="fill:#BF70DB;" d="M350.597,299.067c0,0,13.929,14.148,20.771,43.598c6.842,29.447,21.504,36.406,17.663,49.74
						c-3.84,13.336-42.207,10.881-54.448,7.666c-12.242-3.217-30.807,11.002-39.769-0.5c-8.961-11.502-15.52-5.531-25.559-7.779
						c-10.035-2.246-4.552-44.969,41.169-90.99L350.597,299.067z"/>
					<path style="fill:#D07EF2;" d="M279.915,346.432c-6.312,13.641-9.3,28.037-13.898,42.066
						c-3.667-9.191,2.271-36.15,26.669-67.574c-0.145,0.275-0.29,0.557-0.433,0.832
						C287.865,329.707,283.753,338.207,279.915,346.432z"/>
					<path style="fill:#AA5ACC;" d="M290.882,383.719c9.048,1.098,9.048,15.631,18.096,15.082c6.854,0,15.902-7.953,21.935-11.516
						c3.016-2.193,5.758-4.389,9.596-4.938c6.032-1.094,12.338,0.824,17.821,2.744c7.678,2.742,15.355,5.482,23.58,3.291
						c3.268-0.908,5.586-2.395,7.211-4.297c0.698,2.67,0.771,5.336-0.09,8.318c-3.84,13.336-42.207,10.881-54.448,7.666
						c-12.242-3.217-30.807,11.002-39.769-0.5c-7.905-10.147-13.942-6.701-22.145-7.287c1.326-1.131,2.645-2.314,3.956-3.629
						C280.464,385.092,285.398,382.897,290.882,383.719z"/>
					<path style="fill:#AA5ACC;" d="M357.781,323.128c-7.402,4.934-18.37,2.74-25.772-0.275
						c-7.129-2.469-12.612-7.129-18.645-10.967c-2.883-1.922-5.876-3.463-8.923-4.809c1.921-2.084,3.896-4.176,5.982-6.275
						l40.173-1.734c0,0,5.67,5.77,11.55,17.586C361.493,319.19,360.171,321.444,357.781,323.128z"/>
					<g>
						<path style="fill:#AA5ACC;" d="M322.974,345.983c0.023-0.082,0.064-0.154,0.107-0.229c0.045-0.076,0.087-0.152,0.145-0.225
							c0.006-0.006,0.012-0.014,0.019-0.021c0.201-0.246,0.506-0.346,0.814-0.336c0.306-0.01,0.612,0.09,0.812,0.336
							c0.006,0.008,0.013,0.016,0.021,0.021c0.058,0.072,0.1,0.15,0.145,0.227c0.043,0.074,0.083,0.148,0.107,0.227
							c0.117,0.313,0.124,0.648-0.067,0.975c-0.094,0.158-0.206,0.299-0.332,0.434c-0.354,0.375-1.015,0.375-1.369,0
							c-0.126-0.135-0.238-0.275-0.331-0.434C322.85,346.631,322.856,346.295,322.974,345.983z"/>
						<path style="fill:#AA5ACC;" d="M344.322,345.983c0.023-0.082,0.064-0.154,0.108-0.229c0.044-0.076,0.086-0.152,0.144-0.225
							c0.007-0.006,0.014-0.014,0.02-0.021c0.199-0.246,0.506-0.346,0.813-0.336c0.308-0.01,0.612,0.09,0.814,0.336
							c0.007,0.008,0.013,0.016,0.018,0.021c0.059,0.072,0.102,0.15,0.147,0.227c0.042,0.074,0.083,0.148,0.105,0.227
							c0.117,0.313,0.125,0.648-0.068,0.975c-0.093,0.158-0.205,0.299-0.331,0.434c-0.354,0.375-1.015,0.375-1.369,0
							c-0.126-0.135-0.237-0.275-0.332-0.434C344.198,346.631,344.205,346.295,344.322,345.983z"/>
						<path style="fill:#AA5ACC;" d="M347.225,325.6c0.022-0.078,0.064-0.152,0.108-0.228c0.044-0.074,0.086-0.152,0.143-0.221
							c0.006-0.01,0.013-0.016,0.02-0.023c0.2-0.244,0.505-0.346,0.813-0.336c0.308-0.01,0.613,0.092,0.813,0.336
							c0.007,0.008,0.014,0.014,0.02,0.023c0.06,0.072,0.101,0.146,0.147,0.227c0.042,0.072,0.083,0.145,0.106,0.223
							c0.117,0.315,0.124,0.652-0.068,0.977c-0.093,0.158-0.206,0.299-0.332,0.432c-0.354,0.375-1.015,0.375-1.369,0
							c-0.125-0.133-0.238-0.273-0.331-0.432C347.1,326.253,347.107,325.915,347.225,325.6z"/>
						<path style="fill:#AA5ACC;" d="M335.631,337.292c0.023-0.082,0.065-0.156,0.108-0.229c0.044-0.076,0.085-0.152,0.143-0.225
							c0.007-0.006,0.014-0.014,0.02-0.023c0.2-0.244,0.506-0.346,0.813-0.334c0.308-0.012,0.613,0.09,0.814,0.334
							c0.008,0.01,0.013,0.017,0.018,0.023c0.06,0.072,0.102,0.15,0.147,0.227c0.043,0.074,0.083,0.146,0.106,0.227
							c0.117,0.313,0.124,0.648-0.068,0.975c-0.093,0.158-0.205,0.299-0.332,0.434c-0.354,0.375-1.014,0.375-1.369,0
							c-0.125-0.135-0.237-0.275-0.332-0.434C335.507,337.94,335.514,337.604,335.631,337.292z"/>
						<path style="fill:#AA5ACC;" d="M335.631,354.27c0.023-0.08,0.065-0.154,0.108-0.228c0.044-0.074,0.085-0.15,0.143-0.223
							c0.007-0.008,0.014-0.014,0.02-0.023c0.2-0.244,0.506-0.346,0.813-0.334c0.308-0.012,0.613,0.09,0.814,0.334
							c0.008,0.01,0.013,0.016,0.018,0.023c0.06,0.072,0.102,0.15,0.147,0.227c0.043,0.072,0.083,0.146,0.106,0.225
							c0.117,0.315,0.124,0.65-0.068,0.975c-0.093,0.16-0.205,0.301-0.332,0.434c-0.354,0.377-1.014,0.377-1.369,0
							c-0.125-0.133-0.237-0.273-0.332-0.434C335.507,354.92,335.514,354.585,335.631,354.27z"/>
						<path style="fill:#AA5ACC;" d="M303.059,329.221c0.022-0.08,0.064-0.154,0.108-0.228c0.043-0.076,0.086-0.152,0.144-0.223
							c0.006-0.008,0.013-0.014,0.02-0.023c0.199-0.244,0.505-0.346,0.813-0.334c0.308-0.012,0.613,0.09,0.813,0.334
							c0.007,0.01,0.014,0.016,0.02,0.023c0.059,0.07,0.1,0.148,0.146,0.225c0.042,0.074,0.083,0.148,0.107,0.227
							c0.117,0.313,0.124,0.65-0.068,0.975c-0.094,0.16-0.206,0.301-0.332,0.434c-0.353,0.375-1.016,0.375-1.369,0
							c-0.125-0.133-0.238-0.273-0.332-0.434C302.934,329.872,302.94,329.534,303.059,329.221z"/>
						<path style="fill:#AA5ACC;" d="M324.408,329.221c0.023-0.08,0.063-0.154,0.107-0.228c0.045-0.076,0.086-0.152,0.145-0.223
							c0.007-0.008,0.012-0.014,0.018-0.023c0.201-0.244,0.508-0.346,0.814-0.334c0.306-0.012,0.612,0.09,0.814,0.334
							c0.006,0.01,0.011,0.016,0.019,0.023c0.058,0.07,0.101,0.148,0.145,0.225c0.044,0.074,0.083,0.148,0.106,0.227
							c0.117,0.313,0.124,0.65-0.067,0.975c-0.094,0.16-0.205,0.301-0.332,0.434c-0.354,0.375-1.014,0.375-1.368,0
							c-0.127-0.133-0.238-0.273-0.332-0.434C324.284,329.872,324.291,329.534,324.408,329.221z"/>
						<path style="fill:#AA5ACC;" d="M315.717,320.53c0.023-0.08,0.064-0.154,0.107-0.228c0.045-0.076,0.086-0.152,0.144-0.223
							c0.007-0.008,0.013-0.016,0.019-0.023c0.2-0.244,0.507-0.346,0.814-0.334c0.307-0.012,0.613,0.09,0.813,0.334
							c0.006,0.008,0.012,0.016,0.019,0.023c0.058,0.07,0.102,0.148,0.146,0.225c0.044,0.074,0.083,0.148,0.105,0.227
							c0.118,0.313,0.125,0.65-0.066,0.975c-0.095,0.158-0.205,0.299-0.332,0.434c-0.355,0.375-1.014,0.375-1.369,0
							c-0.127-0.135-0.237-0.275-0.332-0.434C315.592,321.18,315.6,320.842,315.717,320.53z"/>
						<path style="fill:#AA5ACC;" d="M315.717,337.51c0.023-0.082,0.064-0.154,0.107-0.229c0.045-0.076,0.086-0.152,0.144-0.225
							c0.007-0.006,0.013-0.014,0.019-0.021c0.2-0.246,0.507-0.346,0.814-0.336c0.307-0.01,0.613,0.09,0.813,0.336
							c0.006,0.008,0.012,0.016,0.019,0.021c0.058,0.072,0.102,0.15,0.146,0.227c0.044,0.074,0.083,0.148,0.105,0.227
							c0.118,0.313,0.125,0.648-0.066,0.975c-0.095,0.158-0.205,0.299-0.332,0.434c-0.355,0.375-1.014,0.375-1.369,0
							c-0.127-0.135-0.237-0.275-0.332-0.434C315.592,338.159,315.6,337.823,315.717,337.51z"/>
						<path style="fill:#AA5ACC;" d="M291.217,351.366c0.023-0.08,0.064-0.154,0.107-0.227c0.045-0.076,0.088-0.152,0.146-0.225
							c0.005-0.006,0.011-0.014,0.018-0.023c0.2-0.244,0.506-0.346,0.814-0.334c0.307-0.012,0.612,0.09,0.813,0.334
							c0.005,0.01,0.013,0.018,0.02,0.023c0.058,0.072,0.1,0.15,0.145,0.227c0.043,0.072,0.083,0.146,0.106,0.225
							c0.117,0.315,0.124,0.65-0.066,0.977c-0.095,0.158-0.207,0.299-0.332,0.432c-0.355,0.377-1.016,0.377-1.369,0
							c-0.127-0.133-0.239-0.273-0.332-0.432C291.093,352.016,291.1,351.68,291.217,351.366z"/>
						<path style="fill:#AA5ACC;" d="M312.566,351.366c0.022-0.08,0.064-0.154,0.107-0.227c0.044-0.076,0.086-0.152,0.144-0.225
							c0.007-0.006,0.014-0.014,0.02-0.023c0.199-0.244,0.506-0.346,0.813-0.334c0.308-0.012,0.613,0.09,0.813,0.334
							c0.007,0.01,0.013,0.018,0.019,0.023c0.059,0.072,0.102,0.15,0.147,0.227c0.042,0.072,0.083,0.146,0.105,0.225
							c0.118,0.315,0.125,0.65-0.067,0.977c-0.094,0.158-0.205,0.299-0.332,0.432c-0.353,0.377-1.015,0.377-1.369,0
							c-0.126-0.133-0.237-0.273-0.332-0.432C312.441,352.016,312.448,351.68,312.566,351.366z"/>
						<path style="fill:#AA5ACC;" d="M303.874,342.674c0.023-0.08,0.064-0.154,0.108-0.228c0.044-0.076,0.085-0.152,0.143-0.223
							c0.008-0.008,0.015-0.014,0.021-0.023c0.199-0.244,0.506-0.346,0.811-0.334c0.309-0.012,0.613,0.09,0.814,0.334
							c0.007,0.01,0.013,0.016,0.019,0.023c0.059,0.07,0.101,0.15,0.145,0.227c0.043,0.072,0.083,0.146,0.106,0.225
							c0.117,0.315,0.124,0.65-0.068,0.975c-0.093,0.16-0.205,0.301-0.332,0.434c-0.354,0.377-1.014,0.377-1.368,0
							c-0.126-0.133-0.238-0.273-0.332-0.434C303.75,343.325,303.757,342.989,303.874,342.674z"/>
						<path style="fill:#AA5ACC;" d="M299.661,316.807c0.022-0.078,0.064-0.152,0.106-0.229c0.046-0.074,0.087-0.152,0.145-0.221
							c0.007-0.01,0.013-0.016,0.018-0.023c0.2-0.244,0.507-0.346,0.814-0.336c0.307-0.01,0.613,0.092,0.813,0.336
							c0.006,0.008,0.012,0.014,0.019,0.023c0.058,0.07,0.102,0.146,0.145,0.227c0.044,0.072,0.083,0.145,0.105,0.223
							c0.118,0.313,0.125,0.652-0.066,0.977c-0.095,0.158-0.205,0.299-0.332,0.432c-0.355,0.375-1.014,0.375-1.369,0
							c-0.127-0.133-0.237-0.273-0.332-0.432C299.536,317.46,299.543,317.12,299.661,316.807z"/>
						<path style="fill:#AA5ACC;" d="M295.482,333.659c0.022-0.078,0.063-0.152,0.106-0.228c0.045-0.074,0.088-0.152,0.146-0.221
							c0.006-0.01,0.012-0.018,0.019-0.023c0.2-0.244,0.506-0.346,0.814-0.338c0.307-0.008,0.613,0.094,0.813,0.338
							c0.006,0.006,0.013,0.014,0.02,0.023c0.058,0.07,0.101,0.146,0.146,0.225c0.042,0.074,0.083,0.146,0.105,0.225
							c0.118,0.313,0.125,0.652-0.066,0.977c-0.095,0.156-0.206,0.297-0.332,0.432c-0.354,0.375-1.016,0.375-1.369,0
							c-0.127-0.135-0.238-0.275-0.332-0.432C295.357,334.311,295.363,333.971,295.482,333.659z"/>
						<path style="fill:#AA5ACC;" d="M311.398,312.114c0.023-0.08,0.064-0.154,0.107-0.228c0.045-0.074,0.088-0.15,0.146-0.223
							c0.005-0.008,0.011-0.014,0.018-0.023c0.201-0.244,0.506-0.346,0.814-0.334c0.306-0.012,0.612,0.09,0.813,0.334
							c0.005,0.01,0.013,0.016,0.02,0.023c0.058,0.072,0.1,0.15,0.145,0.227c0.043,0.072,0.083,0.147,0.107,0.225
							c0.117,0.314,0.124,0.65-0.067,0.975c-0.094,0.16-0.206,0.301-0.331,0.434c-0.355,0.377-1.016,0.377-1.369,0
							c-0.127-0.133-0.239-0.273-0.332-0.434C311.275,312.764,311.281,312.428,311.398,312.114z"/>
						<path style="fill:#AA5ACC;" d="M286.789,341.946c0.023-0.078,0.064-0.152,0.107-0.229c0.045-0.072,0.088-0.15,0.146-0.221
							c0.006-0.01,0.011-0.016,0.019-0.023c0.2-0.244,0.506-0.346,0.814-0.336c0.307-0.01,0.612,0.092,0.813,0.336
							c0.006,0.008,0.013,0.014,0.02,0.023c0.058,0.072,0.1,0.148,0.145,0.227c0.043,0.074,0.083,0.145,0.107,0.223
							c0.117,0.315,0.124,0.652-0.066,0.978c-0.095,0.156-0.207,0.297-0.332,0.43c-0.355,0.377-1.016,0.377-1.369,0
							c-0.127-0.133-0.239-0.273-0.332-0.43C286.665,342.598,286.672,342.26,286.789,341.946z"/>
						<path style="fill:#AA5ACC;" d="M275.976,358.606c0.023-0.078,0.065-0.152,0.108-0.228c0.044-0.074,0.087-0.152,0.145-0.221
							c0.006-0.01,0.013-0.016,0.02-0.023c0.199-0.244,0.505-0.346,0.813-0.336c0.308-0.01,0.613,0.092,0.813,0.336
							c0.007,0.008,0.014,0.014,0.02,0.023c0.059,0.072,0.101,0.146,0.147,0.227c0.041,0.072,0.083,0.145,0.105,0.223
							c0.118,0.314,0.125,0.652-0.067,0.977c-0.094,0.158-0.207,0.299-0.332,0.432c-0.354,0.375-1.016,0.375-1.369,0
							c-0.126-0.133-0.238-0.273-0.332-0.432C275.852,359.258,275.858,358.92,275.976,358.606z"/>
						<path style="fill:#AA5ACC;" d="M303.874,359.655c0.023-0.08,0.064-0.154,0.108-0.228c0.044-0.076,0.085-0.152,0.143-0.223
							c0.008-0.008,0.015-0.014,0.021-0.023c0.199-0.244,0.506-0.346,0.811-0.334c0.309-0.012,0.613,0.09,0.814,0.334
							c0.007,0.01,0.013,0.016,0.019,0.023c0.059,0.07,0.101,0.148,0.145,0.225c0.043,0.074,0.083,0.148,0.106,0.227
							c0.117,0.313,0.124,0.65-0.068,0.975c-0.093,0.16-0.205,0.301-0.332,0.434c-0.354,0.375-1.014,0.375-1.368,0
							c-0.126-0.133-0.238-0.273-0.332-0.434C303.75,360.305,303.757,359.967,303.874,359.655z"/>
						<path style="fill:#AA5ACC;" d="M309.407,370.844c0.022-0.078,0.064-0.15,0.107-0.227c0.045-0.074,0.087-0.152,0.145-0.223
							c0.006-0.008,0.012-0.016,0.019-0.023c0.201-0.244,0.506-0.346,0.814-0.336c0.307-0.01,0.613,0.092,0.813,0.336
							c0.006,0.008,0.013,0.016,0.02,0.023c0.058,0.072,0.101,0.148,0.145,0.227c0.043,0.074,0.083,0.145,0.106,0.223
							c0.117,0.314,0.124,0.652-0.067,0.979c-0.095,0.156-0.206,0.297-0.332,0.43c-0.354,0.377-1.015,0.377-1.369,0
							c-0.126-0.133-0.238-0.273-0.332-0.43C309.282,371.497,309.289,371.159,309.407,370.844z"/>
						<path style="fill:#AA5ACC;" d="M330.756,370.844c0.023-0.078,0.065-0.15,0.108-0.227c0.044-0.074,0.085-0.152,0.144-0.223
							c0.007-0.008,0.014-0.016,0.02-0.023c0.199-0.244,0.506-0.346,0.813-0.336c0.308-0.01,0.612,0.092,0.814,0.336
							c0.007,0.008,0.013,0.016,0.018,0.023c0.059,0.072,0.101,0.148,0.146,0.227c0.043,0.074,0.083,0.145,0.106,0.223
							c0.117,0.314,0.124,0.652-0.068,0.979c-0.093,0.156-0.205,0.297-0.332,0.43c-0.354,0.377-1.014,0.377-1.368,0
							c-0.126-0.133-0.238-0.273-0.332-0.43C330.632,371.497,330.639,371.159,330.756,370.844z"/>
						<path style="fill:#AA5ACC;" d="M322.064,362.153c0.023-0.078,0.065-0.152,0.108-0.229c0.044-0.072,0.085-0.15,0.143-0.221
							c0.007-0.01,0.014-0.016,0.02-0.023c0.199-0.244,0.506-0.346,0.813-0.336c0.308-0.01,0.613,0.092,0.814,0.336
							c0.007,0.008,0.013,0.014,0.018,0.023c0.059,0.072,0.102,0.148,0.146,0.227c0.043,0.074,0.083,0.145,0.107,0.223
							c0.117,0.314,0.124,0.652-0.068,0.979c-0.094,0.156-0.205,0.297-0.332,0.43c-0.354,0.377-1.014,0.377-1.369,0
							c-0.125-0.133-0.237-0.273-0.332-0.43C321.939,362.805,321.947,362.467,322.064,362.153z"/>
						<path style="fill:#AA5ACC;" d="M322.064,379.133c0.023-0.078,0.065-0.152,0.108-0.229c0.044-0.074,0.085-0.152,0.143-0.221
							c0.007-0.01,0.014-0.016,0.02-0.023c0.199-0.244,0.506-0.346,0.813-0.336c0.308-0.01,0.613,0.092,0.814,0.336
							c0.007,0.008,0.013,0.014,0.018,0.023c0.059,0.07,0.102,0.146,0.146,0.227c0.043,0.072,0.083,0.145,0.107,0.223
							c0.117,0.315,0.124,0.652-0.068,0.977c-0.094,0.158-0.205,0.299-0.332,0.432c-0.354,0.375-1.014,0.375-1.369,0
							c-0.125-0.133-0.237-0.273-0.332-0.432C321.939,379.786,321.947,379.448,322.064,379.133z"/>
						<path style="fill:#AA5ACC;" d="M324.408,389.278c0.023-0.078,0.063-0.152,0.107-0.229c0.045-0.074,0.086-0.152,0.145-0.221
							c0.007-0.01,0.012-0.018,0.018-0.023c0.201-0.244,0.508-0.346,0.814-0.338c0.306-0.008,0.612,0.094,0.814,0.338
							c0.006,0.006,0.011,0.014,0.019,0.023c0.058,0.07,0.101,0.146,0.145,0.225c0.044,0.074,0.083,0.147,0.106,0.225
							c0.117,0.313,0.124,0.652-0.067,0.977c-0.094,0.156-0.205,0.297-0.332,0.432c-0.354,0.375-1.014,0.375-1.368,0
							c-0.127-0.135-0.238-0.275-0.332-0.432C324.284,389.93,324.291,389.59,324.408,389.278z"/>
						<path style="fill:#AA5ACC;" d="M277.145,372.297c0.023-0.078,0.064-0.152,0.107-0.228c0.045-0.074,0.086-0.152,0.144-0.221
							c0.007-0.01,0.013-0.018,0.018-0.023c0.2-0.244,0.507-0.346,0.814-0.336c0.307-0.01,0.613,0.092,0.813,0.336
							c0.006,0.006,0.012,0.014,0.019,0.023c0.058,0.07,0.102,0.146,0.145,0.225c0.044,0.074,0.083,0.146,0.107,0.225
							c0.117,0.313,0.124,0.652-0.067,0.977c-0.095,0.156-0.205,0.297-0.332,0.432c-0.355,0.375-1.014,0.375-1.369,0
							c-0.127-0.135-0.237-0.275-0.332-0.432C277.02,372.95,277.027,372.61,277.145,372.297z"/>
						<path style="fill:#AA5ACC;" d="M270.417,384.075c0.022-0.08,0.065-0.154,0.108-0.229c0.044-0.076,0.087-0.152,0.145-0.223
							c0.006-0.008,0.013-0.014,0.02-0.023c0.199-0.244,0.505-0.346,0.813-0.334c0.308-0.012,0.613,0.09,0.813,0.334
							c0.007,0.01,0.014,0.016,0.02,0.023c0.059,0.07,0.1,0.15,0.146,0.227c0.041,0.072,0.083,0.147,0.107,0.225
							c0.117,0.314,0.124,0.65-0.068,0.975c-0.094,0.16-0.206,0.301-0.332,0.434c-0.353,0.377-1.016,0.377-1.369,0
							c-0.126-0.133-0.238-0.273-0.332-0.434C270.292,384.725,270.299,384.389,270.417,384.075z"/>
						<path style="fill:#AA5ACC;" d="M298.492,372.297c0.023-0.078,0.065-0.152,0.108-0.228c0.044-0.074,0.087-0.152,0.145-0.221
							c0.005-0.01,0.013-0.018,0.02-0.023c0.199-0.244,0.505-0.346,0.813-0.336c0.308-0.01,0.612,0.092,0.813,0.336
							c0.007,0.006,0.014,0.014,0.02,0.023c0.059,0.07,0.1,0.146,0.147,0.225c0.041,0.074,0.083,0.146,0.105,0.225
							c0.117,0.313,0.125,0.652-0.068,0.977c-0.093,0.156-0.206,0.297-0.331,0.432c-0.354,0.375-1.016,0.375-1.369,0
							c-0.126-0.135-0.239-0.275-0.332-0.432C298.368,372.95,298.375,372.61,298.492,372.297z"/>
						<path style="fill:#AA5ACC;" d="M289.801,363.606c0.023-0.078,0.065-0.152,0.108-0.228c0.044-0.074,0.086-0.152,0.144-0.221
							c0.006-0.01,0.013-0.018,0.02-0.023c0.199-0.244,0.505-0.346,0.813-0.338c0.308-0.008,0.613,0.094,0.813,0.338
							c0.007,0.006,0.014,0.014,0.02,0.023c0.06,0.07,0.101,0.146,0.146,0.225c0.042,0.074,0.083,0.146,0.107,0.225
							c0.117,0.313,0.124,0.652-0.068,0.977c-0.093,0.156-0.206,0.297-0.332,0.432c-0.354,0.375-1.015,0.375-1.369,0
							c-0.125-0.135-0.238-0.275-0.332-0.432C289.676,364.258,289.683,363.918,289.801,363.606z"/>
						<path style="fill:#AA5ACC;" d="M289.801,380.585c0.023-0.078,0.065-0.15,0.108-0.227c0.044-0.074,0.086-0.152,0.144-0.223
							c0.006-0.008,0.013-0.016,0.02-0.022c0.199-0.246,0.505-0.346,0.813-0.338c0.308-0.008,0.613,0.092,0.813,0.338
							c0.007,0.006,0.014,0.014,0.02,0.022c0.06,0.072,0.101,0.148,0.146,0.226c0.042,0.074,0.083,0.145,0.107,0.223
							c0.117,0.314,0.124,0.652-0.068,0.978c-0.093,0.156-0.206,0.297-0.332,0.432c-0.354,0.375-1.015,0.375-1.369,0
							c-0.125-0.135-0.238-0.275-0.332-0.432C289.676,381.237,289.683,380.899,289.801,380.585z"/>
						<path style="fill:#AA5ACC;" d="M292.031,390.528c0.023-0.08,0.065-0.154,0.108-0.227c0.044-0.076,0.087-0.152,0.145-0.225
							c0.006-0.006,0.013-0.014,0.02-0.023c0.199-0.244,0.505-0.346,0.813-0.334c0.308-0.012,0.613,0.09,0.813,0.334
							c0.007,0.01,0.014,0.018,0.02,0.023c0.059,0.072,0.101,0.15,0.146,0.227c0.041,0.074,0.083,0.147,0.105,0.225
							c0.118,0.314,0.125,0.65-0.067,0.977c-0.094,0.158-0.206,0.299-0.332,0.432c-0.353,0.377-1.016,0.377-1.369,0
							c-0.126-0.133-0.238-0.273-0.332-0.432C291.907,391.178,291.914,390.842,292.031,390.528z"/>
						<path style="fill:#AA5ACC;" d="M313.382,390.528c0.023-0.08,0.064-0.154,0.107-0.227c0.045-0.076,0.086-0.152,0.144-0.225
							c0.007-0.006,0.013-0.014,0.018-0.023c0.201-0.244,0.507-0.346,0.814-0.334c0.307-0.012,0.613,0.09,0.814,0.334
							c0.006,0.01,0.012,0.018,0.018,0.023c0.058,0.072,0.102,0.15,0.146,0.227c0.044,0.074,0.083,0.147,0.106,0.225
							c0.117,0.314,0.124,0.65-0.067,0.977c-0.095,0.158-0.205,0.299-0.332,0.432c-0.355,0.377-1.014,0.377-1.369,0
							c-0.126-0.133-0.237-0.273-0.332-0.432C313.258,391.178,313.265,390.842,313.382,390.528z"/>
						<path style="fill:#AA5ACC;" d="M304.69,381.836c0.022-0.08,0.064-0.154,0.106-0.229c0.045-0.074,0.087-0.15,0.145-0.223
							c0.007-0.008,0.013-0.014,0.018-0.024c0.2-0.244,0.507-0.346,0.814-0.334c0.307-0.012,0.613,0.09,0.814,0.334
							c0.006,0.01,0.012,0.016,0.018,0.024c0.058,0.072,0.102,0.15,0.145,0.226c0.044,0.072,0.083,0.147,0.105,0.225
							c0.118,0.314,0.125,0.65-0.066,0.975c-0.095,0.16-0.205,0.301-0.332,0.434c-0.355,0.377-1.015,0.377-1.369,0
							c-0.127-0.133-0.237-0.273-0.332-0.434C304.565,382.487,304.572,382.151,304.69,381.836z"/>
						<path style="fill:#AA5ACC;" d="M304.69,398.817c0.022-0.08,0.064-0.154,0.106-0.228c0.045-0.076,0.087-0.152,0.145-0.223
							c0.007-0.008,0.013-0.014,0.018-0.023c0.2-0.244,0.507-0.346,0.814-0.334c0.307-0.012,0.613,0.09,0.814,0.334
							c0.006,0.01,0.012,0.016,0.018,0.023c0.058,0.07,0.102,0.148,0.145,0.225c0.044,0.074,0.083,0.148,0.105,0.227
							c0.118,0.315,0.125,0.65-0.066,0.975c-0.095,0.16-0.205,0.301-0.332,0.434c-0.355,0.375-1.015,0.375-1.369,0
							c-0.127-0.133-0.237-0.273-0.332-0.434C304.565,399.467,304.572,399.131,304.69,398.817z"/>
						<path style="fill:#AA5ACC;" d="M331.429,378.085c0.023-0.078,0.065-0.152,0.108-0.229c0.044-0.074,0.086-0.152,0.143-0.221
							c0.007-0.01,0.014-0.016,0.02-0.024c0.199-0.244,0.506-0.346,0.813-0.336c0.308-0.01,0.613,0.092,0.814,0.336
							c0.007,0.008,0.013,0.014,0.019,0.024c0.059,0.072,0.102,0.146,0.147,0.226c0.042,0.072,0.083,0.145,0.105,0.223
							c0.118,0.314,0.125,0.652-0.067,0.977c-0.094,0.158-0.205,0.299-0.332,0.432c-0.354,0.375-1.015,0.375-1.369,0
							c-0.126-0.133-0.237-0.273-0.332-0.432C331.305,378.737,331.312,378.399,331.429,378.085z"/>
						<path style="fill:#AA5ACC;" d="M352.778,378.085c0.022-0.078,0.063-0.152,0.107-0.229c0.045-0.074,0.087-0.152,0.145-0.221
							c0.006-0.01,0.012-0.016,0.019-0.024c0.2-0.244,0.506-0.346,0.814-0.336c0.307-0.01,0.613,0.092,0.813,0.336
							c0.006,0.008,0.013,0.014,0.02,0.024c0.058,0.072,0.101,0.146,0.146,0.226c0.043,0.072,0.083,0.145,0.106,0.223
							c0.117,0.314,0.124,0.652-0.067,0.977c-0.095,0.158-0.206,0.299-0.332,0.432c-0.354,0.375-1.015,0.375-1.369,0
							c-0.127-0.133-0.238-0.273-0.332-0.432C352.653,378.737,352.66,378.399,352.778,378.085z"/>
						<path style="fill:#AA5ACC;" d="M344.086,369.393c0.023-0.078,0.063-0.152,0.107-0.228c0.045-0.074,0.088-0.152,0.146-0.221
							c0.006-0.01,0.012-0.016,0.019-0.023c0.2-0.244,0.506-0.346,0.813-0.336c0.307-0.01,0.613,0.092,0.813,0.336
							c0.006,0.008,0.013,0.014,0.02,0.023c0.058,0.07,0.101,0.146,0.146,0.225c0.042,0.074,0.083,0.147,0.105,0.225
							c0.118,0.313,0.125,0.652-0.066,0.977c-0.095,0.158-0.206,0.299-0.332,0.432c-0.355,0.375-1.016,0.375-1.369,0
							c-0.127-0.133-0.238-0.273-0.332-0.432C343.962,370.045,343.969,369.706,344.086,369.393z"/>
						<path style="fill:#AA5ACC;" d="M344.086,386.374c0.023-0.078,0.063-0.152,0.107-0.229c0.045-0.074,0.088-0.152,0.146-0.221
							c0.006-0.01,0.012-0.017,0.019-0.023c0.2-0.244,0.506-0.346,0.813-0.336c0.307-0.01,0.613,0.092,0.813,0.336
							c0.006,0.006,0.013,0.014,0.02,0.023c0.058,0.07,0.101,0.147,0.146,0.225c0.042,0.074,0.083,0.146,0.105,0.225
							c0.118,0.313,0.125,0.652-0.066,0.977c-0.095,0.156-0.206,0.297-0.332,0.432c-0.355,0.375-1.016,0.375-1.369,0
							c-0.127-0.135-0.238-0.275-0.332-0.432C343.962,387.026,343.969,386.686,344.086,386.374z"/>
						<path style="fill:#AA5ACC;" d="M345.21,359.856c0.023-0.078,0.064-0.152,0.108-0.228c0.044-0.074,0.085-0.152,0.143-0.221
							c0.007-0.01,0.014-0.018,0.02-0.023c0.2-0.244,0.506-0.346,0.813-0.338c0.308-0.008,0.613,0.094,0.814,0.338
							c0.007,0.006,0.012,0.014,0.018,0.023c0.06,0.07,0.102,0.146,0.146,0.225c0.043,0.074,0.083,0.146,0.107,0.225
							c0.117,0.313,0.124,0.652-0.068,0.977c-0.093,0.156-0.205,0.297-0.332,0.432c-0.354,0.375-1.014,0.375-1.369,0
							c-0.125-0.135-0.237-0.275-0.331-0.432C345.086,360.508,345.093,360.168,345.21,359.856z"/>
						<path style="fill:#AA5ACC;" d="M366.559,359.856c0.023-0.078,0.064-0.152,0.107-0.228c0.045-0.074,0.088-0.152,0.146-0.221
							c0.006-0.01,0.012-0.018,0.018-0.023c0.2-0.244,0.506-0.346,0.814-0.338c0.307-0.008,0.613,0.094,0.813,0.338
							c0.006,0.006,0.013,0.014,0.02,0.023c0.058,0.07,0.101,0.146,0.146,0.225c0.042,0.074,0.083,0.146,0.105,0.225
							c0.118,0.313,0.125,0.652-0.066,0.977c-0.095,0.156-0.207,0.297-0.332,0.432c-0.355,0.375-1.016,0.375-1.369,0
							c-0.127-0.135-0.238-0.275-0.332-0.432C366.435,360.508,366.441,360.168,366.559,359.856z"/>
						<path style="fill:#AA5ACC;" d="M357.867,351.165c0.023-0.08,0.064-0.152,0.108-0.229c0.045-0.074,0.088-0.152,0.145-0.223
							c0.005-0.008,0.011-0.016,0.018-0.022c0.201-0.244,0.506-0.346,0.814-0.338c0.306-0.008,0.612,0.094,0.813,0.338
							c0.005,0.006,0.013,0.014,0.02,0.022c0.058,0.072,0.1,0.148,0.145,0.227c0.043,0.074,0.083,0.145,0.106,0.225
							c0.117,0.313,0.124,0.65-0.067,0.977c-0.094,0.156-0.206,0.297-0.331,0.432c-0.355,0.375-1.016,0.375-1.369,0
							c-0.127-0.135-0.239-0.275-0.332-0.432C357.743,351.815,357.75,351.477,357.867,351.165z"/>
						<path style="fill:#AA5ACC;" d="M363.453,387.622c0.023-0.078,0.064-0.152,0.107-0.227c0.045-0.074,0.086-0.152,0.144-0.223
							c0.007-0.008,0.013-0.016,0.018-0.023c0.201-0.244,0.507-0.346,0.814-0.336c0.307-0.01,0.613,0.092,0.814,0.336
							c0.006,0.008,0.012,0.016,0.018,0.023c0.058,0.072,0.102,0.148,0.146,0.227c0.044,0.074,0.083,0.145,0.106,0.223
							c0.117,0.314,0.124,0.652-0.067,0.978c-0.095,0.156-0.205,0.297-0.332,0.43c-0.354,0.377-1.014,0.377-1.369,0
							c-0.126-0.133-0.237-0.273-0.332-0.43C363.329,388.274,363.336,387.936,363.453,387.622z"/>
						<path style="fill:#AA5ACC;" d="M357.867,368.143c0.023-0.078,0.064-0.152,0.108-0.228c0.045-0.072,0.088-0.15,0.145-0.221
							c0.005-0.01,0.011-0.016,0.018-0.023c0.201-0.244,0.506-0.346,0.814-0.336c0.306-0.01,0.612,0.092,0.813,0.336
							c0.005,0.008,0.013,0.014,0.02,0.023c0.058,0.072,0.1,0.148,0.145,0.227c0.043,0.074,0.083,0.145,0.106,0.223
							c0.117,0.314,0.124,0.652-0.067,0.979c-0.094,0.156-0.206,0.297-0.331,0.43c-0.355,0.377-1.016,0.377-1.369,0
							c-0.127-0.133-0.239-0.273-0.332-0.43C357.743,368.795,357.75,368.457,357.867,368.143z"/>
						<path style="fill:#AA5ACC;" d="M343.271,334.862c0.023-0.078,0.064-0.152,0.108-0.228c0.045-0.074,0.086-0.152,0.143-0.221
							c0.007-0.01,0.013-0.018,0.019-0.023c0.201-0.244,0.508-0.346,0.813-0.338c0.307-0.008,0.613,0.094,0.814,0.338
							c0.005,0.006,0.011,0.014,0.018,0.023c0.058,0.07,0.102,0.147,0.146,0.225c0.044,0.074,0.083,0.146,0.106,0.225
							c0.117,0.313,0.124,0.652-0.067,0.977c-0.094,0.156-0.205,0.297-0.332,0.432c-0.354,0.375-1.014,0.375-1.369,0
							c-0.126-0.135-0.237-0.275-0.331-0.432C343.147,335.514,343.154,335.174,343.271,334.862z"/>
						<path style="fill:#AA5ACC;" d="M364.619,334.862c0.023-0.078,0.064-0.152,0.108-0.228c0.044-0.074,0.087-0.152,0.145-0.221
							c0.006-0.01,0.013-0.018,0.02-0.023c0.199-0.244,0.505-0.346,0.813-0.338c0.308-0.008,0.613,0.094,0.813,0.338
							c0.007,0.006,0.014,0.014,0.02,0.023c0.059,0.07,0.1,0.147,0.146,0.225c0.041,0.074,0.083,0.146,0.105,0.225
							c0.118,0.313,0.125,0.652-0.067,0.977c-0.094,0.156-0.207,0.297-0.332,0.432c-0.355,0.375-1.016,0.375-1.369,0
							c-0.126-0.135-0.238-0.275-0.332-0.432C364.495,335.514,364.502,335.174,364.619,334.862z"/>
						<path style="fill:#AA5ACC;" d="M355.928,326.17c0.023-0.08,0.064-0.152,0.108-0.229c0.044-0.074,0.086-0.152,0.143-0.223
							c0.006-0.008,0.013-0.016,0.02-0.021c0.2-0.244,0.505-0.346,0.813-0.338c0.309-0.008,0.613,0.094,0.813,0.338
							c0.008,0.006,0.015,0.014,0.02,0.021c0.06,0.072,0.101,0.148,0.147,0.227c0.042,0.074,0.083,0.145,0.106,0.225
							c0.117,0.313,0.124,0.652-0.068,0.977c-0.093,0.156-0.206,0.297-0.332,0.432c-0.353,0.375-1.015,0.375-1.369,0
							c-0.125-0.135-0.238-0.275-0.331-0.432C355.804,326.823,355.811,326.483,355.928,326.17z"/>
						<path style="fill:#AA5ACC;" d="M355.928,343.149c0.023-0.078,0.064-0.152,0.108-0.229c0.044-0.072,0.086-0.15,0.143-0.221
							c0.006-0.01,0.013-0.016,0.02-0.023c0.2-0.244,0.505-0.346,0.813-0.336c0.309-0.01,0.613,0.092,0.813,0.336
							c0.008,0.008,0.015,0.014,0.02,0.023c0.06,0.072,0.101,0.148,0.147,0.227c0.042,0.074,0.083,0.145,0.106,0.223
							c0.117,0.314,0.124,0.652-0.068,0.979c-0.093,0.156-0.206,0.297-0.332,0.43c-0.353,0.377-1.015,0.377-1.369,0
							c-0.125-0.133-0.238-0.273-0.331-0.43C355.804,343.801,355.811,343.463,355.928,343.149z"/>
						<path style="fill:#AA5ACC;" d="M360.202,377.036c0.023-0.078,0.064-0.152,0.107-0.229c0.045-0.072,0.087-0.152,0.145-0.221
							c0.006-0.01,0.012-0.016,0.018-0.023c0.201-0.244,0.506-0.346,0.814-0.336c0.307-0.01,0.613,0.092,0.813,0.336
							c0.006,0.008,0.013,0.014,0.02,0.023c0.058,0.072,0.101,0.148,0.146,0.227c0.043,0.072,0.083,0.145,0.106,0.223
							c0.117,0.314,0.124,0.652-0.067,0.978c-0.094,0.156-0.206,0.297-0.332,0.43c-0.354,0.377-1.015,0.377-1.369,0
							c-0.126-0.133-0.238-0.273-0.331-0.43C360.078,377.688,360.085,377.35,360.202,377.036z"/>
						<path style="fill:#AA5ACC;" d="M381.551,377.036c0.023-0.078,0.065-0.152,0.108-0.229c0.044-0.072,0.086-0.152,0.144-0.221
							c0.007-0.01,0.014-0.016,0.02-0.023c0.199-0.244,0.506-0.346,0.813-0.336c0.308-0.01,0.612,0.092,0.814,0.336
							c0.007,0.008,0.013,0.014,0.018,0.023c0.059,0.072,0.102,0.148,0.146,0.227c0.042,0.072,0.082,0.145,0.105,0.223
							c0.117,0.314,0.125,0.652-0.068,0.978c-0.093,0.156-0.205,0.297-0.331,0.43c-0.355,0.377-1.015,0.377-1.369,0
							c-0.126-0.133-0.237-0.273-0.332-0.43C381.427,377.688,381.434,377.35,381.551,377.036z"/>
						<path style="fill:#AA5ACC;" d="M372.859,368.344c0.023-0.078,0.064-0.152,0.108-0.229c0.044-0.074,0.085-0.152,0.143-0.221
							c0.007-0.01,0.014-0.016,0.019-0.023c0.2-0.244,0.506-0.346,0.813-0.336c0.308-0.01,0.613,0.092,0.813,0.336
							c0.008,0.008,0.013,0.014,0.019,0.023c0.06,0.07,0.102,0.147,0.146,0.227c0.043,0.072,0.083,0.145,0.107,0.223
							c0.117,0.313,0.124,0.652-0.068,0.977c-0.093,0.158-0.205,0.299-0.332,0.432c-0.353,0.375-1.014,0.375-1.369,0
							c-0.125-0.133-0.237-0.273-0.332-0.432C372.735,368.997,372.742,368.657,372.859,368.344z"/>
						<path style="fill:#AA5ACC;" d="M372.859,385.325c0.023-0.078,0.064-0.152,0.108-0.229c0.044-0.074,0.085-0.152,0.143-0.221
							c0.007-0.01,0.014-0.018,0.019-0.023c0.2-0.244,0.506-0.346,0.813-0.336c0.308-0.01,0.613,0.092,0.813,0.336
							c0.008,0.006,0.013,0.014,0.019,0.023c0.06,0.07,0.102,0.147,0.146,0.225c0.043,0.074,0.083,0.147,0.107,0.225
							c0.117,0.313,0.124,0.652-0.068,0.977c-0.093,0.156-0.205,0.297-0.332,0.432c-0.353,0.375-1.014,0.375-1.369,0
							c-0.125-0.135-0.237-0.275-0.332-0.432C372.735,385.977,372.742,385.637,372.859,385.325z"/>
					</g>
				</g>
			</g>
			<g>
				<g>
					<path style="fill:#FFBE89;" d="M337.017,226.446c0,0,28.477,25.648,29.309,36.472c0.833,10.822-16.984,28.809-25.811,29.141
						l-0.499-10.988c0,0,12.822-7.494,10.658-13.824c-2.166-6.328-10.492-10.49-13.656-14.154
						C333.854,249.428,326.359,221.285,337.017,226.446z"/>
					<path style="fill:#EA9860;" d="M355.029,283.483c-5.01,4.865-10.633,8.432-14.516,8.576l-0.499-10.988
						c0,0,7.021-4.107,9.792-8.809c0.085,3.307,2.176,6.281,3.939,8.926C354.238,281.975,354.65,282.731,355.029,283.483z"/>
					<path style="fill:#EA9860;" d="M337.017,226.446c0,0,22.583,20.348,28.105,32.443c-0.871,0.844-1.895,1.6-3.115,2.236
						c-3.889,2.223-9.081,2.879-11.153,6.885c-0.04-0.256-0.096-0.51-0.181-0.764c-2.166-6.328-10.492-10.49-13.656-14.154
						C333.854,249.428,326.359,221.285,337.017,226.446z"/>
				</g>
				<g>
					<path style="fill:#7E3F98;" d="M338.139,221.339c3.277,4.863,5.072,21.7,7.327,41.427c2.254,19.727,7.225,29.121,7.38,36.23
						c0.266,12.064-38.851,13.793-43.733,7.166c-3.945-5.352-6.254-38.152-2.257-62.277
						C310.398,222.522,329.403,208.378,338.139,221.339z"/>
					<path style="fill:#5F3275;" d="M310.623,269.114c-1.93-2.721-3.896-6.436-5.414-10.447c0.335-5.078,0.871-10.093,1.647-14.781
						c3.542-21.363,22.547-35.507,31.282-22.546c3.277,4.863,5.072,21.7,7.327,41.427c2.254,19.727,7.225,29.121,7.38,36.23
						c0.143,6.48-11.07,9.975-22.242,10.797c-2.575-9.475-2.219-20.936-7.917-29.713
						C319.396,275.147,313.912,273.774,310.623,269.114z"/>
				</g>
				<g>
					<path style="fill:#FFBE89;" d="M325.214,241.836c-6.446,7.074-34.493,24.717-54.219,6.965
						c-19.725-17.754-18.035-41.144-18.035-41.144s-4.491-0.578-5.087-4.758c-0.597-4.183,1.491-7.382,7.15-7.235
						c0,0-1.247-8.303-1.416-10.148c-0.151-1.67,2.328-3.746,3.898,4.466c1.567,8.212,1.785,17.658,1.785,17.658
						s3.212,21.941,23.597,28.038c17.915,5.354,31.729-13.741,40.613-13.145C332.385,223.131,331.447,234.998,325.214,241.836z"/>
					<path style="fill:#EA9860;" d="M252.646,206.294c0.551,0.191,0.314,1.363,0.311,1.391c0.001-0.008,0.003-0.027,0.003-0.027
						s-4.491-0.578-5.087-4.758c-0.09-0.634-0.111-1.241-0.076-1.822C248.566,203.295,249.32,205.139,252.646,206.294z"/>
					<path style="fill:#EA9860;" d="M255.69,195.157c-0.293,0.522-0.668,0.507-0.668,0.507s-1.247-8.303-1.416-10.148
						c-0.055-0.62,0.252-1.294,0.74-1.479C254.391,186.601,256.309,194.052,255.69,195.157z"/>
					<path style="fill:#EA9860;" d="M264.501,236.491c8.261,7.376,16.227,16.226,28.175,16.67c4.131,0.146,9.146-1.182,9.293-6.049
						c0-4.006-2.177-8.127-4.635-11.847c11.019-3.611,19.842-13.157,26.166-12.731c8.885,0.598,7.947,12.464,1.714,19.303
						c-6.446,7.074-34.493,24.717-54.219,6.965c-6.302-5.672-10.411-11.916-13.094-17.791
						C260.156,232.755,262.367,234.566,264.501,236.491z"/>
					<g>
						<path style="fill:#E99860;" d="M255.987,196.544c0.532,0.739,0.572,1.643,0.071,2.4c-0.22,0.333-0.772,0.129-0.658-0.277
							c0.154-0.54,0.267-1.094,0-1.615c-0.281-0.549-0.938-0.98-1.491-1.198c-0.086-0.034-0.076-0.16,0.021-0.163
							C254.733,195.669,255.499,195.865,255.987,196.544z"/>
						<path style="fill:#E99860;" d="M251.374,196.151c1.525,0.64,2.241,2.568,1.417,4.053c-0.141,0.254-0.497,0.122-0.514-0.139
							c-0.093-1.387,0.341-2.783-0.968-3.762C251.242,196.253,251.279,196.112,251.374,196.151z"/>
					</g>
				</g>
			</g>
			<g>
				<g>
					<g>
						<path style="fill:#FFBE89;" d="M297.601,198.863c0,9.739,3.517,17.632,17.632,17.632c9.738,0,17.633-7.893,17.633-17.632
							c0-9.738-7.895-17.632-17.633-17.632C305.494,181.231,297.601,189.125,297.601,198.863z"/>
						<path style="fill:#EA9860;" d="M311.155,201.654c-0.782-1.224-1.565-2.142-3.061-2.38c-1.905-0.306-3.775-0.476-5.646-1.122
							c-1.615-0.575-3.119-1.372-4.58-2.246c1.409-8.327,8.636-14.675,17.364-14.675c9.738,0,17.633,7.894,17.633,17.632
							c0,9.063-6.839,16.519-15.636,17.511c-0.429-2.383-1.053-4.702-2.028-7C314.08,206.722,312.719,204.069,311.155,201.654z"/>
					</g>
					<g>
						<g>
							<path style="fill:#222221;" d="M302.611,203.214c-0.272-0.649-0.357-1.351-0.625-2.008c-0.066-0.166-0.163-0.317-0.288-0.455
								c-0.316-0.356-0.615,0.003-0.771,0.263c-0.207,0.347-0.167,0.778-0.43,1.088c-0.1,0.12-0.307,0.094-0.374-0.027
								c-0.232-0.43,0.176-1.139,0.442-1.531c0.325-0.477,0.89-0.57,1.395-0.314c0.945,0.48,1.054,2.162,0.74,2.98
								C302.688,203.246,302.625,203.247,302.611,203.214L302.611,203.214z"/>
						</g>
						<path style="fill:#E88282;" d="M303.003,204.48c0.772-1.102,2.324-2.409,3.734-1.51c0.776,0.498,1.075,1.227,1.052,1.991
							c0.039,0.477-0.094,0.923-0.35,1.339c-0.072,0.146-0.151,0.292-0.245,0.431c-0.684,1.03-2.19,2.084-3.424,1.467
							c-0.151-0.044-0.3-0.096-0.442-0.181C301.983,207.219,302.218,205.601,303.003,204.48z"/>
						<g>
							<path style="fill:#E88282;" d="M304.054,209.56c0.267,0.555,0.557,1.118,0.568,1.746c0.015,0.757-0.627,1.276-1.345,1.202
								c-0.371-0.038-0.613-0.569-0.209-0.773c0.387-0.195,0.751-0.289,0.792-0.765c0.034-0.421-0.078-0.852-0.161-1.26
								C303.659,209.506,303.952,209.352,304.054,209.56L304.054,209.56z"/>
						</g>
						<g>
							<path style="fill:#E88282;" d="M295.966,205.046c0.286,0.053,0.776,0.182,0.999-0.591c0.201-0.697,0.315-1.526,0.351-2.146
								c0.032-0.633,0.018-1.038,0.018-1.038c-0.011-0.28,0.159-0.554,0.435-0.656c0.348-0.128,0.73,0.05,0.857,0.395
								c0,0,0.166,0.448,0.345,1.112c0.176,0.678,0.386,1.592,0.404,2.635c-0.008,0.528,0.083,2.246-1.493,3.298
								c-1.123,0.751-2.263,0.553-2.386,0.535c-0.978-0.129-1.667-1.024-1.537-2.006
								C294.089,205.605,294.996,204.869,295.966,205.046z"/>
							<g>
								<path style="fill:#FF9292;" d="M296.527,205.596c-0.199,0.239-0.306,0.303-0.607,0.336c-0.419,0.046-0.435-0.653,0-0.664
									c0.208-0.005,0.346,0.048,0.547,0.097C296.574,205.391,296.591,205.52,296.527,205.596L296.527,205.596z"/>
							</g>
							<g>
								<path style="fill:#FF9292;" d="M295.344,205.787c-0.357,0.236-0.268,0.769-0.491,1.115c-0.08,0.123-0.314,0.163-0.382,0
									c-0.261-0.613,0.091-1.276,0.766-1.368C295.388,205.514,295.482,205.695,295.344,205.787L295.344,205.787z"/>
							</g>
						</g>
					</g>
				</g>
				<g>
					<path style="fill:#D62956;" d="M308.488,197.186c0,0-9.401,0.321-13.783-5.557c0,0-1.282-9.189,5.343-13.571
						c6.624-4.38,13.784,0,13.784,0s9.32-4.167,19.033,3.954c9.713,8.122,2.339,29.065,12.276,35.156
						c9.938,6.092,25.22,16.775,19.77,32.271c-5.45,15.496-33.554,19.982-45.309,16.672c-11.755-3.314-15.495-14.427-13.68-21.909
						c1.819-7.479-2.562-10.044-6.624-12.824c-4.06-2.777,0.964-12.928,11.756-16.134
						C321.848,212.039,308.488,197.186,308.488,197.186z"/>
					<g>
						<path style="fill:#EA435F;" d="M335.919,209.36c-2.455-11.747-1.984-31.953-19.061-29.865
							c-0.061,0.008-0.074-0.096-0.015-0.108c16.047-3.246,18.299,14.098,20.811,25.878c1.918,8.991,3.919,17.454,11.596,23.233
							c4.525,3.407,8.629,8.215,11.253,13.232c2.43,4.64,0.103,9.061-2.808,12.726c-0.643,0.809-1.741-0.219-1.346-1.039
							c6.252-12.977-7.097-18.771-13.89-27.242C338.666,221.444,337.132,215.165,335.919,209.36z"/>
						<path style="fill:#EA435F;" d="M299.546,183.887c1.782-4.804,9.991-8.776,13.213-3.078c0.068,0.122-0.068,0.257-0.189,0.189
							c-2.239-1.248-3.908-2.23-6.572-1.546c-2.564,0.658-4.082,2.805-5.491,4.839C300.187,184.751,299.324,184.48,299.546,183.887z
							"/>
						<path style="fill:#EA435F;" d="M328.302,260.182c6.953,3.049,14.511,2.531,13.838-6.492
							c-0.278-3.752-1.817-7.431-3.222-10.872c-4.204-10.305-7.222-20.552-8.322-31.649c-0.015-0.158,0.234-0.186,0.271-0.037
							c1.991,7.928,4.679,15.715,7.585,23.351c2.206,5.79,5.338,11.725,6.129,17.951c0.499,3.926,0.092,7.732-3.094,10.379
							c-4.122,3.422-9.874,0.604-13.828-1.531C326.921,260.883,327.568,259.862,328.302,260.182z"/>
						<path style="fill:#EA435F;" d="M312.586,252.155c2.235-0.502,4.541-1.046,6.48-2.309c3.201-2.081,1.834-5.96,2.498-9.065
							c0.065-0.306,0.592-0.33,0.639,0c0.527,3.64,1.841,7.088-0.701,10.231c-2.014,2.487-5.859,3.825-8.916,2.958
							C311.72,253.725,311.654,252.366,312.586,252.155z"/>
					</g>
					<path style="fill:#EA435F;" d="M300.478,190.148c3.565,0.549,7.677-0.822,11.242,0.823c6.032,2.742,6.032,13.161,7.951,18.645
						c1.37,3.564,3.565,8.773,0.547,12.063c-2.466,3.016-7.401,1.646-10.144,4.387c-3.016,3.017,0,7.952,1.371,11.241
						c1.919,3.84,1.919,5.483,0.274,9.598c-1.61,5.189-1.456,10.842,0.743,15.594c-6.088-4.865-7.917-12.621-6.54-18.296
						c1.819-7.479-2.562-10.044-6.624-12.824c-4.06-2.777,0.964-12.928,11.756-16.134c10.793-3.206-2.566-18.059-2.566-18.059
						s-9.401,0.321-13.783-5.557c0,0-0.297-2.18,0.153-4.918C296.289,188.395,298.043,189.662,300.478,190.148z"/>
				</g>
				<g>
					<path style="fill:#FFBE89;" d="M310.188,208.43c0.748,2.532,3.503,3.952,6.153,3.169c2.65-0.783,4.189-3.473,3.441-6.004
						c-0.747-2.534-3.504-3.955-6.152-3.172C310.98,203.206,309.44,205.895,310.188,208.43z"/>
					<path style="fill:#EA9860;" d="M316.818,205.415c0.06,0.015,0.051,0.098-0.012,0.095c-1.986-0.093-3.496,0.965-3.828,2.405
						c0.203-0.186,0.45-0.339,0.741-0.419c0.781-0.218,1.707-0.168,2.309,0.458c0.547,0.573,0.346,1.633-0.316,1.983
						c-0.185,0.099-0.459-0.051-0.457-0.249c0.002-0.484,0.555-0.873,0.093-1.361c-0.393-0.416-1.194-0.258-1.619-0.073
						c-0.746,0.33-0.554,1.296-0.29,1.974c0.044,0.073,0.083,0.145,0.134,0.218c0.194,0.275-0.274,0.498-0.468,0.226
						C311.266,208.066,313.235,204.497,316.818,205.415z"/>
				</g>
			</g>
		</g>
	</g>
</g>
</svg>
