<?xml version="1.0" encoding="utf-8"?>
<!-- Generator: Adobe Illustrator 27.5.0, SVG Export Plug-In . SVG Version: 6.00 Build 0)  -->
<svg version="1.1" xmlns="http://www.w3.org/2000/svg" xmlns:xlink="http://www.w3.org/1999/xlink" x="0px" y="0px"
	 viewBox="0 0 800 500" style="enable-background:new 0 0 800 500;" xml:space="preserve">
<g id="BACKGROUND">
	<rect y="1.33" style="fill:#F2E5D0;" width="800" height="500"/>
</g>
<g id="OBJECTS">
	<g>
		<g>
			<g>
				<path style="fill:#F5C679;" d="M324.867,133.286h-63.336c-11.69,0-21.167-9.477-21.167-21.167V81.734
					c0-11.69,9.477-21.167,21.167-21.167h63.336c11.69,0,21.167,9.477,21.167,21.167v30.385
					C346.034,123.81,336.557,133.286,324.867,133.286z"/>
				<g>
					<rect x="266.429" y="92.963" style="fill:#FFFFFF;" width="18.49" height="2.412"/>
					<rect x="266.429" y="86.534" style="fill:#FFFFFF;" width="42.122" height="2.412"/>
				</g>
			</g>
			<g>
				<path style="fill:#F5C679;" d="M498.657,240.066h-38.668c-7.137,0-12.923-5.786-12.923-12.923v-18.551
					c0-7.137,5.786-12.923,12.923-12.923h38.668c7.137,0,12.923,5.786,12.923,12.923v18.551
					C511.579,234.28,505.794,240.066,498.657,240.066z"/>
				<g>
					
						<rect x="489.25" y="221.023" transform="matrix(-1 -1.224647e-16 1.224647e-16 -1 989.7882 443.5185)" style="fill:#FFFFFF;" width="11.289" height="1.472"/>
					
						<rect x="474.822" y="224.948" transform="matrix(-1 -1.224647e-16 1.224647e-16 -1 975.3609 451.3686)" style="fill:#FFFFFF;" width="25.716" height="1.472"/>
				</g>
			</g>
			<g>
				<g>
					<g>
						<path style="fill:#FFB264;" d="M525.716,138.79h-21.98c-2.568,0-4.65-2.082-4.65-4.65l0,0c0-2.568,2.082-4.649,4.65-4.649
							h21.98c2.568,0,4.65,2.082,4.65,4.649l0,0C530.366,136.708,528.284,138.79,525.716,138.79z"/>
						<g>
							
								<rect x="509.054" y="143.926" transform="matrix(-1 -1.224647e-16 1.224647e-16 -1 1022.2066 291.9504)" style="fill:#E37059;" width="4.098" height="4.098"/>
							
								<rect x="502.533" y="143.926" transform="matrix(-1 -1.224647e-16 1.224647e-16 -1 1009.1643 291.9504)" style="fill:#E37059;" width="4.098" height="4.098"/>
							
								<rect x="502.533" y="150.008" transform="matrix(-1 -1.224647e-16 1.224647e-16 -1 1009.1643 304.115)" style="fill:#E37059;" width="4.098" height="4.098"/>
						</g>
					</g>
					<path style="fill:none;stroke:#FFFFFF;stroke-miterlimit:10;" d="M658.606,157.56v-5.014c0-10.821-8.773-19.594-19.594-19.594
						H532.197"/>
				</g>
				<g>
					<g>
						<path style="fill:#FFFFFF;" d="M742.363,271.739H570.526V166.143c0-4.621,3.747-8.368,8.368-8.368h155.101
							c4.622,0,8.368,3.746,8.368,8.368V271.739z"/>
						
							<line style="fill:none;stroke:#F5C679;stroke-width:0.8925;stroke-miterlimit:10;" x1="570.526" y1="171.13" x2="742.363" y2="171.13"/>
						<circle style="fill:#F5C679;" cx="582.991" cy="164.601" r="3.561"/>
						<circle style="fill:#E37059;" cx="596.049" cy="164.601" r="3.561"/>
						<circle style="fill:#4475AB;" cx="609.108" cy="164.601" r="3.561"/>
					</g>
					<g style="opacity:0.88;">
						<path style="fill:#FFB264;" d="M613.674,219.723c0.201-10.476,8.751-18.908,19.275-18.908v-17.22
							c-20.161,0-36.504,16.344-36.504,36.504C596.445,219.633,604.902,219.615,613.674,219.723z"/>
						<path style="fill:#FFB264;" d="M652.234,220.099c0,10.65-8.634,19.284-19.284,19.284v17.22
							c20.161,0,36.504-16.343,36.504-36.504H652.234z"/>
						<path style="fill:#4475AB;" d="M613.665,220.099c0-0.126,0.007-0.251,0.01-0.376c-8.773-0.107-17.229-0.09-17.229,0.376
							c0,20.161,16.344,36.504,36.504,36.504v-17.22C622.299,239.384,613.665,230.75,613.665,220.099z"/>
						<path style="fill:#4475AB;" d="M652.234,220.099h17.22c0-20.161-16.344-36.504-36.504-36.504v17.22
							C643.6,200.815,652.234,209.449,652.234,220.099z"/>
						<g>
							<path style="fill:#1B314F;" d="M632.949,208.793c-6.17,0-11.183,4.944-11.301,11.086c5.543,0.068,11.301,0.221,11.301,0.221
								V208.793z"/>
							<path style="fill:#1B314F;" d="M632.949,231.406c6.245,0,11.307-5.062,11.307-11.307h-11.307V231.406z"/>
							<path style="fill:#1B314F;" d="M621.648,219.879c-0.001,0.074-0.006,0.147-0.006,0.221c0,6.244,5.062,11.307,11.307,11.307
								v-11.307C632.949,220.099,627.191,219.947,621.648,219.879z"/>
							<path style="fill:#D4603F;" d="M632.949,208.793v11.307h11.307C644.256,213.855,639.194,208.793,632.949,208.793z"/>
						</g>
					</g>
					<g>
						<rect x="689.832" y="195.688" style="fill:#FFB264;" width="16.502" height="2.152"/>
						<rect x="689.832" y="201.426" style="fill:#FFB264;" width="37.592" height="2.152"/>
						
							<rect x="683.699" y="187.75" style="fill:none;stroke:#F5C679;stroke-width:0.8925;stroke-miterlimit:10;" width="51.838" height="26.908"/>
					</g>
					<g>
						<rect x="699.527" y="242.778" style="fill:#FFB264;" width="16.502" height="2.152"/>
						<path style="fill:#4475AB;" d="M694.581,244.139c0-2.076-1.683-3.759-3.759-3.759c-2.076,0-3.759,1.683-3.759,3.759
							c0,2.076,1.683,3.759,3.759,3.759C692.898,247.898,694.581,246.215,694.581,244.139z"/>
					</g>
				</g>
				<g>
					<g>
						<path style="fill:#FFFFFF;" d="M240.891,379.483H69.054V273.886c0-4.621,3.746-8.368,8.368-8.368h155.101
							c4.622,0,8.368,3.746,8.368,8.368V379.483z"/>
						
							<line style="fill:none;stroke:#F5C679;stroke-width:0.8925;stroke-miterlimit:10;" x1="69.054" y1="278.874" x2="240.891" y2="278.874"/>
						<path style="fill:#F5C679;" d="M85.08,272.344c0-1.967-1.594-3.561-3.561-3.561c-1.967,0-3.561,1.595-3.561,3.561
							c0,1.967,1.594,3.561,3.561,3.561C83.486,275.906,85.08,274.311,85.08,272.344z"/>
						<path style="fill:#E37059;" d="M98.139,272.344c0-1.967-1.594-3.561-3.561-3.561c-1.967,0-3.561,1.595-3.561,3.561
							c0,1.967,1.595,3.561,3.561,3.561C96.544,275.906,98.139,274.311,98.139,272.344z"/>
						<path style="fill:#4475AB;" d="M111.197,272.344c0-1.967-1.594-3.561-3.561-3.561s-3.561,1.595-3.561,3.561
							c0,1.967,1.594,3.561,3.561,3.561S111.197,274.311,111.197,272.344z"/>
					</g>
					<g style="opacity:0.88;">
						<g>
							<path style="fill:#1B314F;" d="M131.477,300.752c-14.784,0-26.794,11.845-27.077,26.562
								c13.281,0.163,27.077,0.529,27.077,0.529V300.752z"/>
							<path style="fill:#1B314F;" d="M131.477,354.933c14.962,0,27.091-12.129,27.091-27.091h-27.091V354.933z"/>
							<path style="fill:#4475AB;" d="M104.4,327.314c-0.003,0.177-0.013,0.352-0.013,0.529c0,14.962,12.129,27.091,27.09,27.091
								v-27.091C131.477,327.843,117.681,327.476,104.4,327.314z"/>
							<path style="fill:#D4603F;" d="M131.477,300.752v27.09h27.091C158.568,312.881,146.439,300.752,131.477,300.752z"/>
						</g>
					</g>
					<g>
						<rect x="188.361" y="303.431" style="fill:#FFB264;" width="16.502" height="2.152"/>
						<rect x="188.361" y="309.169" style="fill:#FFB264;" width="37.592" height="2.152"/>
						
							<rect x="182.227" y="295.493" style="fill:none;stroke:#F5C679;stroke-width:0.8925;stroke-miterlimit:10;" width="51.838" height="26.908"/>
					</g>
					<g>
						<rect x="198.055" y="350.521" style="fill:#FFB264;" width="16.502" height="2.152"/>
						<path style="fill:#E37059;" d="M193.109,351.882c0-2.076-1.683-3.759-3.759-3.759c-2.076,0-3.759,1.683-3.759,3.759
							c0,2.076,1.683,3.759,3.759,3.759C191.426,355.641,193.109,353.958,193.109,351.882z"/>
					</g>
				</g>
				<path style="fill:none;stroke:#FFFFFF;stroke-miterlimit:10;" d="M164.978,138.168H141.3c-10.379,0-18.793,8.414-18.793,18.793
					v109.871"/>
				<g>
					<path style="fill:#E37059;" d="M169.628,142.818h21.98c2.568,0,4.65-2.082,4.65-4.65l0,0c0-2.568-2.082-4.65-4.65-4.65h-21.98
						c-2.568,0-4.65,2.082-4.65,4.65l0,0C164.978,140.736,167.06,142.818,169.628,142.818z"/>
					<g>
						<rect x="182.192" y="147.954" style="fill:#F5C679;" width="4.098" height="4.098"/>
						<rect x="188.713" y="147.954" style="fill:#F5C679;" width="4.098" height="4.098"/>
						<rect x="188.713" y="154.036" style="fill:#F5C679;" width="4.098" height="4.098"/>
					</g>
				</g>
			</g>
		</g>
	</g>
	<g>
		<g>
			<g>
				<g>
					<path style="fill:#FFB264;" d="M299.351,208.661c0,0-32.977,34.668-38.835,29.052l10.702-20.194
						c0.045,0.536,23.134-17.557,23.134-17.557s4.736-11.885,6.577-11.874c1.805,0.012-1.994,6.776-1.35,7.646
						c0.644,0.871,11.932-13.5,13.221-11.758c0.693,0.936-7.061,8.548-6.419,9.78c0.334,0.64,9.02-4.822,9.924-4.558
						c2.523,0.739-9.648,6.509-8.928,6.875c0.72,0.366,9.711-5.209,9.844-3.33c0.082,1.162-8.267,5.218-8.128,6.014
						c0.139,0.795,4.781-2.28,6.294-1.692c1.513,0.588-6.24,4.437-6.75,5.084C308.128,202.796,303.696,206.883,299.351,208.661z"/>
				</g>
				<path style="fill:#FFB264;" d="M251.798,183.387c0,0,8.029,2.687,9.947,8.776c1.918,6.089,10.487,24.366,10.487,24.366
					l-11.553,21.365C260.678,237.895,227.366,195.356,251.798,183.387z"/>
				<path style="fill:#FFFFFF;" d="M251.132,181.392c8.646-1.33,13.426,8.739,21.137,27.329l-19.734,15.834
					C252.536,224.556,224.243,185.529,251.132,181.392z"/>
			</g>
			<g>
				<path style="fill:#151F36;" d="M251.237,143.941c-4.124-5.156-13.686-8.572-21.554-5.367c0,0-0.046,0.015-0.132,0.044
					c-5.019,1.704-8.476,6.479-8.279,11.776c0.129,3.466,0.993,6.891,2.469,9.536c3.527,6.319,10.218,8.996,17.193,8.592
					c1.472-0.085,2.601,0.376,3.397,1.136l8.107-13.9C253.415,153.822,253.641,146.945,251.237,143.941z"/>
				
					<ellipse transform="matrix(0.9231 -0.3845 0.3845 0.9231 -43.8883 95.2113)" style="fill:#151F36;" cx="216.176" cy="157.369" rx="7.666" ry="7.666"/>
				<path style="fill:#FFB264;" d="M231.808,157.761c-0.088,0.273-1.073-1.842-1.343-1.94c-1.127-0.408-3.645-1.579-5.068,1.242
					c-1.438,2.852,0.806,5.547,2.484,6.251c0.484,0.203,2.046,1.276,2.286,1.743c2.108,4.101-0.672,12.816-0.969,16.149
					c-0.656,7.36-6.627-0.713-6.627-0.713s19.916,15.664,22.857,6.911c-2.404-4.206-3.901-17.448-1.79-16.658
					c2.769,1.036,8.59-2.452,9.299-15.055c-3.23-9.366-7.267-10.82-7.309-11.551C245.347,150.686,241.633,155.046,231.808,157.761z"
					/>
				<g>
					<path style="fill:#E68522;" d="M226.375,158.377c0,0,3.11-3.108,3.57,2.71"/>
					<path style="fill:#E68522;" d="M240.919,159.015c1.475,0.49,2.274,2.083,1.785,3.558c-0.49,1.475-2.083,2.274-3.558,1.785
						c-1.475-0.49-2.274-2.083-1.785-3.558C237.851,159.324,239.444,158.525,240.919,159.015z"/>
					<path style="fill:#E68522;" d="M251.609,163.949c-1.134-0.653-1.693-2.034-1.264-3.325c0.33-0.995,1.163-1.683,2.122-1.874
						C252.467,158.749,252.552,162.086,251.609,163.949z"/>
					<path style="fill:#E68522;" d="M247.822,157.747l-0.391,3.113l1.626-0.119c0.3-0.022,0.467-0.357,0.304-0.609L247.822,157.747z
						"/>
					<path d="M243.023,154.814c-0.525,0.365,0.288-1.272,1.004-1.459c0.717-0.188,1.428,0.162,1.59,0.781
						C245.618,154.135,244.285,153.938,243.023,154.814z"/>
					<path d="M251.673,154.652c0.522,0.37-0.275-1.275-0.99-1.469c-0.715-0.195-1.43,0.148-1.598,0.765
						C249.086,153.947,250.42,153.763,251.673,154.652z"/>
					<path d="M244.595,157.768c0.023,0.553,0.258,0.992,0.526,0.981c0.268-0.011,0.467-0.468,0.445-1.02
						c-0.023-0.553-0.258-0.992-0.526-0.981C244.772,156.758,244.573,157.215,244.595,157.768z"/>
					<path d="M248.975,157.322c0.021,0.528,0.246,0.947,0.502,0.937c0.256-0.011,0.446-0.447,0.425-0.975
						c-0.021-0.528-0.246-0.947-0.502-0.937C249.143,156.358,248.953,156.795,248.975,157.322z"/>
					<path style="fill:#E68522;" d="M243.007,170.714c0,0-3.901-1.381-6.385-2.453C234.138,167.189,240.287,177.416,243.007,170.714
						z"/>
				</g>
			</g>
			<g>
				<path style="fill:#FFAA06;" d="M237.894,413.452l1.945,13.814c0,0,3.12,9.161,6.017,5.615c2.897-3.546,5.765-5.421,5.765-5.421
					l0.951-14.362L237.894,413.452z"/>
				<path style="fill:#FFAA06;" d="M191.722,412.391l-4.299,13.78c0,0-3.272,2.869-4.453,2.795
					c-2.148-0.135-3.275-3.841-3.275-3.841l-0.354-12.733H191.722z"/>
				<path style="fill:#D4603F;" d="M252.576,427.388l11.569,9.378c0.592,0.44,0.169,1.18-0.677,1.187l-17.078,0.139
					c-0.411,0.003-0.78-0.184-0.917-0.465l-1.288-2.641c-0.372-0.763-1.114-0.825-1.045-0.017l-0.631,2.549
					c0.034,0.402-4.049,0.292-4.085-0.073c-0.224-2.267,0.248-9.681,0.655-11.745c0.058-0.296,0.362-0.533,0.765-0.591l0.002,0
					c0.362-0.052,0.733,0.048,0.955,0.263c1.152,1.115,4.839,4.471,6.803,3.792c1.317-0.455,3.022-1.271,3.554-1.74
					C251.517,427.106,252.181,427.095,252.576,427.388z"/>
				<path style="fill:#D4603F;" d="M179.537,424.646l-6.57,11.004c-0.702,1.07-0.311,2.347,0.957,3.102
					c2.054,1.223,3.733,3.662,5.025,3.698c2.336,0.065,5.966-2.395,8.082-3.317c1.42-0.619,2.532-1.526,2.357-2.714l-1.633-11.038
					c-0.02-0.136-0.261-0.187-0.38-0.079l-2.515,2.28c-0.824,0.747-3.061,0.647-3.616-0.247c-0.396-0.638-1.326-2.697-1.326-2.697
					C179.833,424.528,179.611,424.533,179.537,424.646z"/>
			</g>
			<g>
				<path style="fill:#1B314F;" d="M218.541,227.714c-5.304,9.377-12.267,19.395-15.315,31.316
					c-3.535,13.826-23.75,131.297-25.417,156.445c4.357,1.05,10.889,0.372,13.641,0.219c8.759-25.098,35.227-117.022,38.982-132.834
					c0.577-2.431,4.333-1.897,4.04,0.584c-2.132,18.056,3.301,84.711,3.301,134.232c2.285,1.163,12.215,0.331,14.854,0
					c2.87-30.969,18.754-149.572-4.24-187.574C237.873,228.652,229.202,227.397,218.541,227.714z"/>
				<g>
					<defs>
						<path id="SVGID_1_" d="M218.541,227.714c-5.304,9.377-12.267,19.395-15.315,31.316
							c-3.535,13.826-23.75,131.297-25.417,156.445c4.357,1.05,10.889,0.372,13.641,0.219
							c8.759-25.098,35.227-117.022,38.982-132.834c0.577-2.431,4.333-1.897,4.04,0.584c-2.132,18.056,3.301,84.711,3.301,134.232
							c2.285,1.163,12.215,0.331,14.854,0c2.87-30.969,18.754-149.572-4.24-187.574
							C237.873,228.652,229.202,227.397,218.541,227.714z"/>
					</defs>
					<clipPath id="SVGID_00000025430660396667711030000000069652028587307933_">
						<use xlink:href="#SVGID_1_"  style="overflow:visible;"/>
					</clipPath>
					<g style="clip-path:url(#SVGID_00000025430660396667711030000000069652028587307933_);">
						<g>
							<g>
								<path style="fill:#4475AB;" d="M219.494,225.624c0.056,4.818,2.443,9.115,4.863,13.14c2.309,3.84,4.877,7.545,7.886,10.874
									c5.825,6.443,13.489,11.273,22.329,11.826c4.795,0.3,9.614-0.757,13.657-3.399c0.403-0.263,0.027-0.913-0.378-0.648
									c-7.184,4.693-16.597,4.085-24.061,0.354c-7.606-3.801-13.267-10.591-17.725-17.662c-2.754-4.368-5.759-9.161-5.821-14.485
									C220.238,225.141,219.488,225.14,219.494,225.624L219.494,225.624z"/>
							</g>
						</g>
						<g>
							<g>
								<path style="fill:#4475AB;" d="M203.384,248.565c4.814,10.877,9.777,22.15,10.014,34.247
									c0.112,5.734-0.852,11.55-3.379,16.733c-2.157,4.425-5.359,8.261-9.123,11.411c-4.373,3.66-9.476,6.384-14.833,8.297
									c-0.451,0.161-0.257,0.886,0.199,0.723c9.443-3.371,18.374-9.373,23.436-18.226c5.887-10.296,5.221-22.8,2.023-33.842
									c-1.966-6.789-4.836-13.269-7.691-19.721C203.836,247.746,203.19,248.127,203.384,248.565L203.384,248.565z"/>
							</g>
						</g>
						<g>
							<g>
								<path style="fill:#4475AB;" d="M258.528,277.112c-8.142,5.876-11.729,16.268-11.018,26.053
									c0.833,11.461,7.251,21.766,14.756,30.119c4.398,4.894,9.383,9.389,15.421,12.147c0.436,0.199,0.817-0.447,0.379-0.648
									c-5.146-2.351-9.522-5.972-13.416-10.032c-3.893-4.06-7.439-8.502-10.286-13.362c-5.327-9.095-7.945-19.856-4.786-30.158
									c1.637-5.339,4.772-10.183,9.329-13.472C259.294,277.48,258.92,276.829,258.528,277.112L258.528,277.112z"/>
							</g>
						</g>
						<g>
							<g>
								<path style="fill:#4475AB;" d="M185.009,347.564c9.856,6.823,17.617,16.453,22.178,27.54
									c0.181,0.44,0.907,0.247,0.723-0.199c-4.642-11.282-12.491-21.043-22.523-27.989
									C184.99,346.641,184.615,347.291,185.009,347.564L185.009,347.564z"/>
							</g>
						</g>
						<g>
							<g>
								<path style="fill:#4475AB;" d="M177.846,359.426c11.702,12.128,19.646,27.69,22.737,44.252
									c0.885,4.741,1.352,9.548,1.421,14.37c0.007,0.482,0.757,0.484,0.75,0c-0.244-17.04-5.638-33.902-15.257-47.966
									c-2.721-3.978-5.774-7.717-9.12-11.185C178.041,358.548,177.511,359.079,177.846,359.426L177.846,359.426z"/>
							</g>
						</g>
						<g>
							<g>
								<path style="fill:#4475AB;" d="M267.141,353.902c-17.975,11.586-30.094,31.351-32.977,52.476
									c-0.81,5.935-0.879,11.948-0.17,17.897c0.057,0.473,0.807,0.479,0.75,0c-2.508-21.043,4.923-42.777,19.239-58.319
									c4.013-4.357,8.557-8.197,13.537-11.407C267.924,354.289,267.549,353.639,267.141,353.902L267.141,353.902z"/>
							</g>
						</g>
						<g>
							<g>
								<path style="fill:#4475AB;" d="M250.601,422.444c-1.214-2.982-2.42-6.138-2.316-9.411c0.103-3.235,1.754-5.96,3.977-8.211
									c4.279-4.334,9.839-7.676,15.258-10.375c0.432-0.215,0.053-0.862-0.378-0.648c-3.125,1.556-6.138,3.325-9.003,5.322
									c-2.563,1.787-5.16,3.701-7.235,6.055c-1.902,2.158-3.213,4.723-3.361,7.632c-0.175,3.414,1.071,6.727,2.336,9.835
									C250.057,423.085,250.783,422.892,250.601,422.444L250.601,422.444z"/>
							</g>
						</g>
					</g>
				</g>
			</g>
			<g>
				<path style="fill:#FFFFFF;" d="M243.595,180.395c1.032,0.825,10.77,23.804,10.406,31.084c-0.367,7.334,3.45,21.323,3.45,21.323
					s-11.877,4.459-43.27-0.484c-7.751-16.714-12.18-36.407-1.845-46.823c0,0,14.202-8.936,16.863-9.132
					c0,0,9.408,13.62,13.288,13.566C244.25,189.903,243.795,182.999,243.595,180.395z"/>
			</g>
			<path style="fill:#FFFFFF;" d="M227.633,177.069l0.222-5.542l19.952,4.877l-1.33,6.429c0,0,6.651,15.297-1.774,12.858
				C236.279,193.253,227.633,177.069,227.633,177.069z"/>
			<g>
				<path style="fill:#39194B;" d="M215.216,194.46c1.937,9.952,5.964,19.416,8.739,29.152c0.982,3.446,1.922,6.902,2.843,10.364
					c-3.628-0.366-7.803-0.901-12.618-1.659c-6.136-13.23-6.498-31.919-1.258-44.303
					C213.687,190.163,214.451,192.311,215.216,194.46z"/>
			</g>
			<g>
				<g>
					<path style="fill:#FFB264;" d="M254.79,243.577c0,0-43.284,8.546-45.666,0.788l-3.064-24.16l18.915-5.515l2.215,17.248
						c-0.222,0.49,33.04,3.89,33.04,3.89s6.736-0.057,10.523,1.763c0.2,0.096,7.648,5.653,9.976,8.979l-14.176,1.016
						C265.062,247.555,254.79,243.577,254.79,243.577z"/>
				</g>
				<path style="fill:#FFFFFF;" d="M220.381,183.601c0,0,6.803,4.942,5.514,11.195c-1.289,6.253-0.479,21.291-0.479,21.291
					l-20.023,5.156C205.393,221.244,193.214,182.162,220.381,183.601z"/>
			</g>
		</g>
	</g>
	<g>
		<g>
			<g>
				
					<ellipse transform="matrix(0.9865 -0.1637 0.1637 0.9865 -21.1914 67.6549)" style="fill:#4475AB;" cx="400" cy="162.437" rx="80.475" ry="80.475"/>
				<path style="fill:#FFFFFF;" d="M480.475,162.438c0-44.445-36.03-80.475-80.475-80.475s-80.475,36.03-80.475,80.475"/>
				<path style="fill:#1B314F;" d="M398.67,162.438h-79.145c0-44.445,36.03-80.475,80.475-80.475L398.67,162.438z"/>
			</g>
			<g>
				
					<ellipse transform="matrix(0.7071 -0.7071 0.7071 0.7071 2.2966 330.4196)" style="fill:none;stroke:#FFFFFF;stroke-miterlimit:10;" cx="400" cy="162.437" rx="91.781" ry="91.781"/>
			</g>
		</g>
		<g>
			<g>
				<polyline style="fill:none;stroke:#1B314F;stroke-width:0.75;stroke-linecap:round;stroke-miterlimit:10;" points="
					424.719,121.797 455.313,91.203 579.683,91.203 				"/>
				<circle style="fill:#1B314F;" cx="579.683" cy="90.538" r="4.726"/>
			</g>
			<g>
				<polyline style="fill:none;stroke:#1B314F;stroke-width:0.75;stroke-linecap:round;stroke-miterlimit:10;" points="
					395.455,229.611 426.049,260.204 550.419,260.204 				"/>
				<circle style="fill:#1B314F;" cx="550.419" cy="260.87" r="4.726"/>
			</g>
			<path style="fill:#D4603F;" d="M523.08,254.172h-79.207c-2.61,0-4.727-2.116-4.727-4.727l0,0c0-2.61,2.116-4.727,4.727-4.727
				h79.207c2.61,0,4.727,2.116,4.727,4.727l0,0C527.807,252.056,525.69,254.172,523.08,254.172z"/>
			<g>
				<path style="fill:#D4603F;" d="M516.242,77.26h-58.319c-1.922,0-3.48-1.558-3.48-3.48l0,0c0-1.922,1.558-3.48,3.48-3.48h58.319
					c1.922,0,3.48,1.558,3.48,3.48l0,0C519.722,75.702,518.164,77.26,516.242,77.26z"/>
				<path style="fill:#FFFFFF;" d="M499.54,62.628h-42.558c-1.403,0-2.54-1.137-2.54-2.54l0,0c0-1.403,1.137-2.54,2.54-2.54h42.558
					c1.403,0,2.54,1.137,2.54,2.54l0,0C502.08,61.491,500.943,62.628,499.54,62.628z"/>
			</g>
		</g>
	</g>
	<g>
		<g>
			<g>
				<g>
					<g>
						<polygon style="fill:#FFA47E;" points="557.59,411.616 556.027,430.841 528.365,436.719 542.631,422.513 546.076,410.464 
													"/>
						<polygon style="fill:#D4603F;" points="542.622,420.826 523.049,438.072 560.084,438.456 557.59,421.018 550.298,428.118 
													"/>
						<g>
							
								<line style="fill:none;stroke:#FFFFFF;stroke-width:0.5266;stroke-miterlimit:10;" x1="538.956" y1="423.026" x2="542.368" y2="425.215"/>
							
								<line style="fill:none;stroke:#FFFFFF;stroke-width:0.5266;stroke-miterlimit:10;" x1="535.911" y1="424.461" x2="539.323" y2="426.649"/>
						</g>
					</g>
				</g>
				<g>
					<g>
						<polygon style="fill:#FFA47E;" points="590.772,415.306 588.216,431.624 616.934,438.022 601.566,423.527 602.538,414.657 
													"/>
						<polygon style="fill:#D4603F;" points="602.877,422.553 619.973,438.89 586.775,438.506 589.326,423.253 594.433,430.229 
													"/>
						<g>
							
								<line style="fill:none;stroke:#FFFFFF;stroke-width:0.5266;stroke-miterlimit:10;" x1="606.19" y1="424.63" x2="602.679" y2="426.656"/>
							
								<line style="fill:none;stroke:#FFFFFF;stroke-width:0.5266;stroke-miterlimit:10;" x1="609.165" y1="426.205" x2="605.654" y2="428.231"/>
						</g>
					</g>
				</g>
				<g>
					<path style="fill:#25334C;" d="M600.001,230.926l-32.888,3.176c0,0-4.674,3.428-9.348,21.19
						c-5.695,21.643-14.227,77.961-17.032,159.139l21.27,0.639l17.421-123.897c0.521-1.806,3.194-1.368,3.112,0.509l5.714,124.779
						l20.959-0.815c0,0,6.305-135.744,0.778-156.933C604.777,238.741,600.001,230.926,600.001,230.926z"/>
				</g>
				<g>
					<defs>
						<path id="SVGID_00000155858956672676390930000012165962247307893667_" d="M600.001,230.926l-32.888,3.176
							c0,0-4.674,3.428-9.348,21.19c-5.695,21.643-14.227,77.961-17.032,159.139l21.27,0.639l17.421-123.897
							c0.521-1.806,3.194-1.368,3.112,0.509l5.714,124.779l20.959-0.815c0,0,6.305-135.744,0.778-156.933
							C604.777,238.741,600.001,230.926,600.001,230.926z"/>
					</defs>
					<clipPath id="SVGID_00000028320674881506495190000007903964173601705632_">
						<use xlink:href="#SVGID_00000155858956672676390930000012165962247307893667_"  style="overflow:visible;"/>
					</clipPath>
					<g style="clip-path:url(#SVGID_00000028320674881506495190000007903964173601705632_);">
						<g>
							<path style="fill:#4475AB;" d="M546.243,252.735c2.649,6.323,5.63,13.353,11.955,16.812c2.682,1.466,5.82,2.247,8.869,1.75
								c3.192-0.52,5.513-2.581,7.825-4.68c2.387-2.168,5.052-4.255,8.48-3.726c2.656,0.41,4.95,2.112,7.036,3.696
								c4.446,3.376,9.118,7.228,15.014,4.969c3.671-1.406,6.45-4.28,9.902-6.063c3.271-1.689,7.942-2.708,10.694,0.423
								c0.313,0.356,0.83-0.165,0.519-0.519c-4.331-4.927-11.412-0.875-15.561,2.052c-2.956,2.086-6.244,4.407-10.051,4.07
								c-2.786-0.247-5.232-1.864-7.421-3.485c-3.866-2.863-8.319-7.231-13.587-5.619c-2.805,0.858-4.849,3.114-6.991,4.988
								c-2.845,2.488-6.052,3.789-9.864,3.121c-8.927-1.565-12.98-10.51-16.111-17.982
								C546.772,252.11,546.061,252.299,546.243,252.735L546.243,252.735z"/>
						</g>
					</g>
					<g style="clip-path:url(#SVGID_00000028320674881506495190000007903964173601705632_);">
						<g>
							<path style="fill:#4475AB;" d="M539.754,281.866c4.255,6.808,9.071,14.594,16.807,17.841
								c6.979,2.929,12.201-2.306,17.588-5.936c3.059-2.062,6.494-3.54,10.236-2.633c3.934,0.953,7.077,3.885,9.898,6.627
								c2.349,2.282,5.124,6.114,8.776,5.977c3.695-0.138,6.046-3.817,8.899-5.65c9.464-6.077,20.525,0.686,28.513,5.986
								c0.395,0.262,0.763-0.374,0.371-0.634c-6.975-4.628-14.783-9.576-23.552-8.125c-1.885,0.312-3.73,0.946-5.371,1.933
								c-1.578,0.949-2.876,2.255-4.27,3.44c-1.543,1.311-3.421,2.647-5.564,2.247c-2.209-0.412-3.865-2.328-5.391-3.833
								c-4.745-4.676-10.569-10.74-17.923-8.504c-6.237,1.896-10.436,8.672-17.131,9.261c-4.944,0.435-9.555-3.295-12.764-6.656
								c-3.342-3.5-5.933-7.627-8.487-11.713C540.138,281.095,539.502,281.463,539.754,281.866L539.754,281.866z"/>
						</g>
					</g>
					<g style="clip-path:url(#SVGID_00000028320674881506495190000007903964173601705632_);">
						<g>
							<path style="fill:#4475AB;" d="M538.641,312.272c3.833,6.652,8.539,12.787,14.009,18.176
								c2.013,1.983,4.683,5.473,7.844,3.863c3.198-1.629,5.18-5.052,7.579-7.582c2.596-2.738,6.59-5.109,10.287-2.999
								c2.563,1.463,4.082,4.255,6.003,6.395c2.074,2.31,4.66,3.678,7.802,3.767c3.601,0.101,7.019-1.228,10.224-2.734
								c3.807-1.789,7.887-4.12,12.239-3.872c3.659,0.208,7.797,2.412,8.263,6.387c0.054,0.464,0.789,0.469,0.734,0
								c-0.729-6.215-8.106-7.948-13.238-6.62c-3.805,0.985-7.178,3.082-10.795,4.55c-3.576,1.451-7.97,2.4-11.584,0.557
								c-5.028-2.564-6.893-10.811-13.617-9.936c-3.436,0.447-6.076,3.016-8.212,5.536c-1.201,1.418-2.349,2.893-3.709,4.165
								c-0.796,0.745-1.74,1.6-2.793,1.954c-1.32,0.443-2.398-0.195-3.39-1.032c-6.85-5.784-12.555-13.206-17.013-20.943
								C539.039,311.491,538.404,311.861,538.641,312.272L538.641,312.272z"/>
						</g>
					</g>
					<g style="clip-path:url(#SVGID_00000028320674881506495190000007903964173601705632_);">
						<g>
							<path style="fill:#4475AB;" d="M535.598,344.571c4.767,6.407,6.495,15.163,13.443,19.808
								c2.762,1.847,6.264,2.991,9.566,2.081c3.529-0.972,5.488-4.129,8.193-6.315c3.65-2.95,8.516-2.333,12.312,0.024
								c1.902,1.181,3.548,2.723,5.088,4.336c1.361,1.425,2.586,3.211,4.21,4.348c2.567,1.797,4.759-0.07,6.021-2.356
								c0.778-1.41,1.336-2.96,2.245-4.296c1.034-1.519,2.565-2.574,4.283-3.184c9.008-3.201,17.142,4.428,25.862,5.173
								c0.471,0.04,0.468-0.694,0-0.734c-7.925-0.677-14.58-6.56-22.74-5.832c-2.881,0.257-5.782,1.322-7.627,3.646
								c-0.924,1.164-1.494,2.561-2.15,3.881c-0.652,1.312-1.46,3.089-2.966,3.59c-2.139,0.711-3.792-1.67-5.021-3.028
								c-1.382-1.526-2.789-3.042-4.368-4.369c-2.799-2.354-6.27-4.128-10.018-3.947c-3.74,0.181-6.093,2.56-8.585,5.058
								c-1.418,1.422-2.955,2.753-4.932,3.298c-1.806,0.498-3.711,0.32-5.476-0.257c-9.488-3.101-11.382-14.142-16.703-21.295
								C535.953,343.825,535.315,344.191,535.598,344.571L535.598,344.571z"/>
						</g>
					</g>
					<g style="clip-path:url(#SVGID_00000028320674881506495190000007903964173601705632_);">
						<g>
							<path style="fill:#4475AB;" d="M530.893,373.766c3.191,7.43,7.792,14.85,15.336,18.463c3.307,1.584,7.024,2.385,10.685,1.916
								c4.071-0.522,7.576-2.717,11.113-4.632c3.88-2.101,7.882-3.506,12.357-3.06c2.323,0.231,4.612,0.91,6.672,2.01
								c1.814,0.968,3.4,2.329,5.276,3.186c1.485,0.678,3.127,0.983,4.668,0.289c1.512-0.681,2.466-2.098,3.482-3.341
								c2.467-3.022,5.984-5.01,9.831-5.644c4.694-0.774,8.775,0.885,12.806,3.123c3.596,1.996,7.275,4.201,11.532,4.058
								c0.471-0.016,0.474-0.75,0-0.734c-7.627,0.257-13.108-6.829-20.646-7.354c-3.377-0.235-6.829,0.61-9.74,2.329
								c-1.482,0.875-2.831,1.982-3.954,3.286c-1.22,1.417-2.284,3.297-4.208,3.826c-2.242,0.616-4.47-0.978-6.24-2.144
								c-1.643-1.082-3.294-2.055-5.163-2.696c-3.562-1.221-7.514-1.359-11.141-0.335c-3.875,1.093-7.203,3.453-10.79,5.195
								c-3.922,1.904-8.051,2.565-12.318,1.486c-9.549-2.414-15.258-11.067-18.922-19.596
								C531.341,372.962,530.708,373.336,530.893,373.766L530.893,373.766z"/>
						</g>
					</g>
				</g>
			</g>
		</g>
		<g>
			<polygon style="fill:#4475AB;" points="563.73,414.686 564.834,407.63 539.219,406.762 538.784,415.453 			"/>
			<path style="fill:#4475AB;" d="M587.411,416.313c0.427-0.431-0.868-8.249-0.868-8.249l24.313-0.868l-0.111,9.025L587.411,416.313
				z"/>
		</g>
		<g>
			<g>
				<path style="fill:#FFA47E;" d="M530.646,186.507c0,0,15.61,46.098,23.393,43.841l-0.119-22.824
					c-0.288,0.454-13.291-25.37-13.291-25.37s-3.918-6.482-5.677-7.5l0,0c-1.143-0.156-2.212,0.599-2.446,1.729l-1.968,9.497"/>
				
					<line style="fill:none;stroke:#FFFFFF;stroke-width:3.045;stroke-linecap:round;stroke-miterlimit:10;" x1="535.528" y1="185.122" x2="539.547" y2="165.321"/>
				<path style="fill:#FFA47E;" d="M540.314,181.948c0,0-0.047-6.59-0.971-6.715c-0.923-0.125-5.291,0.205-5.711,1.703
					c-0.42,1.499,3.28,1.421,3.28,1.421s-1.737,3.075-0.245,4.073C538.16,183.429,540.314,181.948,540.314,181.948z"/>
			</g>
			<path style="fill:#FFFFFF;" d="M581.755,167.669c0,0-13.18,7.971-17.697,12.471c-4.517,4.5-9.427,27.34-9.427,27.34
				l-10.963-24.096l-14.544,9.877c0,0,17.025,38.084,24.422,38.315C560.942,231.808,597.832,189.573,581.755,167.669z"/>
		</g>
		<g>
			<path style="fill:#1E2F4D;" d="M563.326,143.442c-0.219,6.74,1.988,13.787,7.766,17.787c5.445,3.77,13.076,2.871,18.051-1.363
				c8.145-6.931,5.67-22.836-3.36-26.518c-1.243-0.507-4.702-0.857-5.224-1.835c-7.073-1.202-14.745,2.023-16.39,7.398
				c-0.201,0.658-0.62,1.678-1.067,2.826C563.263,142.243,563.347,142.809,563.326,143.442z"/>
			<path style="fill:#FFA47E;" d="M583.505,148.662c0.085,0.273,0.376,0.423,0.647,0.329c1.13-0.394,3.66-1.533,5.046,1.301
				c1.402,2.865-0.872,5.53-2.555,6.213c-0.486,0.197-1.595,0.691-1.805,1.172c-0.647,1.478-0.288,4.098-0.031,7.429
				c0.568,7.357,6.934,8.618,6.934,8.618s-16.414,14-19.247,5.224c1.114-1.872,0.442-15.974-1.674-15.21
				c-2.777,1.002-8.264-0.242-8.821-12.835c-0.517-11.666,7.514-13.583,9.609-13.912
				C573.375,136.713,579.287,135.087,583.505,148.662z"/>
			<path style="fill:#1E2F4D;" d="M565.782,137.829c0,0,15.793,10.624,18.094,11.165
				C583.876,148.993,585.257,128.927,565.782,137.829z"/>
			<g>
				<path style="fill:#E07B51;" d="M588.206,151.592c0,0-3.068-3.141-3.598,2.663"/>
				<path style="fill:#E07B51;" d="M573.674,152.055c-1.479,0.471-2.296,2.053-1.825,3.532c0.472,1.479,2.053,2.296,3.532,1.825
					c1.479-0.471,2.296-2.053,1.825-3.532C576.734,152.401,575.153,151.584,573.674,152.055z"/>
				<path style="fill:#E07B51;" d="M562.94,156.854c1.141-0.639,1.715-2.011,1.302-3.305c-0.318-0.998-1.141-1.694-2.097-1.897
					C562.145,151.652,562.021,154.983,562.94,156.854z"/>
				<path style="fill:#E07B51;" d="M567.084,151.187l0.353,3.113l-1.622-0.138c-0.299-0.025-0.462-0.362-0.296-0.612
					L567.084,151.187z"/>
				<path d="M571.624,147.835c0.52,0.37-0.273-1.274-0.986-1.469c-0.714-0.196-1.428,0.145-1.598,0.761
					C569.04,147.126,570.374,146.945,571.624,147.835z"/>
				<path d="M562.987,147.569c-0.525,0.363,0.29-1.27,1.006-1.456c0.716-0.186,1.426,0.165,1.587,0.783
					C565.579,146.897,564.249,146.697,562.987,147.569z"/>
				<path d="M569.684,151.624c-0.029,0.552-0.27,0.987-0.537,0.973c-0.267-0.014-0.461-0.473-0.432-1.024
					c0.029-0.552,0.269-0.988,0.537-0.973C569.519,150.614,569.713,151.073,569.684,151.624z"/>
				<path d="M564.865,151.335c-0.028,0.527-0.257,0.943-0.512,0.929c-0.255-0.013-0.44-0.451-0.413-0.978
					c0.028-0.527,0.257-0.943,0.513-0.93C564.708,150.37,564.892,150.808,564.865,151.335z"/>
				<path style="fill:#E07B51;" d="M571.449,163.713c0,0,3.913-1.332,6.406-2.373C580.349,160.299,574.085,170.439,571.449,163.713z
					"/>
			</g>
		</g>
		<path style="fill:#C20600;" d="M586.216,172.869c0,0,2.749-0.759,2.288-0.181c-0.461,0.578-1.441,1.214-2.421,1.85
			L586.216,172.869z"/>
		<path style="fill:#FFFFFF;" d="M571.781,173.074c0.297,0.745-12.075,23.942-11.798,31.217c0.279,7.329,5.134,30.846,4.731,31.944
			c0,0,11.259,5.765,42.668,1.204c3.039-27.352,3.888-50.545-6.295-59.155c0,0-11.021-7.913-13.676-8.141
			C587.411,170.143,575.747,184.566,571.781,173.074z"/>
		<path style="fill:#D4603F;" d="M599.421,175.325c-4.587-2.273-10.453-5.049-12.01-5.182c0,0-2.024,2.498-4.67,4.587
			c0.098,0.593,0.093,1.235-0.052,1.924c-4.308,20.401-7.591,48.924-5.047,69.684c6.485,0.274,26.214,2.608,37.447,0.977
			c-1.43-20.49-0.579-43.343-4.008-57.504C609.55,183.493,605.245,178.212,599.421,175.325z"/>
		<path style="fill:#D4603F;" d="M572.107,247.641c-2.353-20.838-2.255-50.858,1.891-71.42c-0.444-0.631-0.961-3.351-1.302-4.342
			c0.297,0.745-12.989,25.136-12.712,32.411c0.279,7.329-4.081,41.928-4.483,43.025C555.5,247.315,567.634,246.807,572.107,247.641z
			"/>
		<g>
			<g>
				<g>
					<path style="fill:#35445C;" d="M561.548,210.184c-0.108-0.751-0.221-1.518-0.57-2.192c-0.349-0.674-0.983-1.249-1.739-1.317
						c-0.997-0.09-1.865,0.702-2.378,1.562c-0.24,0.402-0.435,0.832-0.579,1.277c-0.039,0.119-0.062,0.275,0.041,0.346
						c0.061,0.042,0.142,0.033,0.215,0.024c1.542-0.18,3.079,0.598,4.619,0.401"/>
				</g>
				<path style="fill:#ADBEDE;" d="M556.046,211.002l5.539,0.066c0.36,0.004,0.655-0.284,0.659-0.644l0,0
					c0.004-0.36-0.284-0.655-0.644-0.66l-5.539-0.066c-0.36-0.004-0.655,0.284-0.66,0.644l0,0
					C555.398,210.702,555.686,210.997,556.046,211.002z"/>
			</g>
		</g>
		<g>
			<g>
				<path style="fill:#F5C679;" d="M556.562,218.133l-8.374-27.407c-0.464-1.519-1.543-2.754-2.957-3.385l-17.723-7.908
					c-0.525-0.234-1.072,0.282-0.894,0.844l8.471,26.854c0.456,1.445,1.471,2.63,2.803,3.272l17.761,8.561
					C556.172,219.215,556.736,218.703,556.562,218.133z"/>
				<path style="fill:#4475AB;" d="M555.407,219.855l-8.374-27.407c-0.464-1.519-1.543-2.754-2.957-3.385l-17.723-7.908
					c-0.525-0.234-1.072,0.282-0.895,0.844l8.471,26.854c0.456,1.445,1.471,2.63,2.803,3.272l17.761,8.561
					C555.017,220.937,555.581,220.425,555.407,219.855z"/>
			</g>
			<g>
				<g>
					<path style="fill:#FFA47E;" d="M555.337,214.753c0,0,27.708,32.409,33.844,27.115l-9.615-20.701
						c-0.073,0.532-22.65-17.528-22.65-17.528s-15.392-6.242-15.781-4.247c-0.27,1.387,9.221,2.485,8.321,2.474
						c-0.097-0.001-8.369-1.496-9.178-0.706c-1.196,1.167,8.485,3.049,8.366,3.704c0,0-9.672,0.064-9.975,1.03
						c-0.302,0.966,9.651,1.682,9.454,1.971c-0.197,0.289-8.291-0.686-7.113,0.051C542.312,208.729,555.337,214.753,555.337,214.753
						z"/>
					<path style="fill:#FFA47E;" d="M551.396,202.252c0,0-3.671-7.442-2.033-6.549c1.638,0.893,10.037,10.163,10.037,10.163"/>
				</g>
				<path style="fill:#FFFFFF;" d="M604.606,181.431c-2.259-3.402-7.391-3.053-9.296,0.56c-2.099,3.983-3.767,11.175-4.967,14.386
					c-2.232,5.972-11.736,23.751-11.736,23.751l-18.834-14.81l-5.485,12.78c0,0,27.521,28.531,34.342,25.66
					C594.709,241.2,616.534,199.391,604.606,181.431z"/>
			</g>
		</g>
		<circle style="fill:#1E2F4D;" cx="584.48" cy="127.812" r="8.223"/>
	</g>
	<g>
		<path style="fill:#FFFFFF;" d="M600.368,98.9c0-2.755-2.233-4.988-4.988-4.988c-2.755,0-4.988,2.233-4.988,4.988
			c0,2.755,2.233,4.988,4.988,4.988C598.135,103.888,600.368,101.655,600.368,98.9z"/>
		<circle style="fill:#FFFFFF;" cx="645.261" cy="329.351" r="3.991"/>
		<circle style="fill:#FFFFFF;" cx="178.373" cy="79.945" r="3.99"/>
		<path style="fill:#FFFFFF;" d="M185.689,244.885c0-3.306-2.68-5.986-5.986-5.986c-3.306,0-5.986,2.68-5.986,5.986
			c0,3.306,2.68,5.986,5.986,5.986C183.009,250.871,185.689,248.191,185.689,244.885z"/>
		<circle style="fill:none;stroke:#F5C679;stroke-width:2;stroke-miterlimit:10;" cx="609.347" cy="80.942" r="7.981"/>
		<path style="fill:#F5C679;" d="M652.244,376.239c0-3.857-3.127-6.983-6.983-6.983s-6.983,3.127-6.983,6.983
			c0,3.857,3.127,6.983,6.983,6.983S652.244,380.096,652.244,376.239z"/>
		<circle style="fill:none;stroke:#F5C679;stroke-width:2;stroke-miterlimit:10;" cx="713.099" cy="320.372" r="4.988"/>
		<path style="fill:none;stroke:#F5C679;stroke-width:2;stroke-miterlimit:10;" d="M118.184,128.163
			c0-2.755-2.233-4.988-4.988-4.988c-2.755,0-4.988,2.233-4.988,4.988c0,2.755,2.233,4.988,4.988,4.988
			C115.95,133.151,118.184,130.918,118.184,128.163z"/>
		<circle style="fill:#F5C679;" cx="338.991" cy="374.244" r="3.99"/>
		
			<ellipse transform="matrix(0.9732 -0.2298 0.2298 0.9732 -46.5083 40.4476)" style="fill:none;stroke:#F5C679;stroke-width:2;stroke-miterlimit:10;" cx="150.44" cy="219.945" rx="10.974" ry="10.974"/>
		<path style="fill:none;stroke:#F5C679;stroke-width:2;stroke-miterlimit:10;" d="M144.454,396.191
			c0-2.755-2.233-4.988-4.988-4.988c-2.755,0-4.988,2.233-4.988,4.988c0,2.755,2.233,4.988,4.988,4.988
			C142.221,401.18,144.454,398.946,144.454,396.191z"/>
	</g>
	<g>
		<g>
			<g>
				<path style="fill:#FFFFFF;" d="M552.981,402.865H360.44v-118.32c0-5.178,4.198-9.376,9.376-9.376h173.789
					c5.178,0,9.376,4.198,9.376,9.376V402.865z"/>
				<line style="fill:none;stroke:#F5C679;stroke-miterlimit:10;" x1="360.44" y1="290.133" x2="552.981" y2="290.133"/>
				<circle style="fill:#F5C679;" cx="374.407" cy="282.817" r="3.99"/>
				<circle style="fill:#E37059;" cx="389.039" cy="282.817" r="3.99"/>
				<circle style="fill:#4475AB;" cx="403.671" cy="282.817" r="3.99"/>
				<polyline style="fill:none;stroke:#F5C679;stroke-miterlimit:10;" points="384.383,314.741 384.383,387.235 536.687,387.235 
									"/>
				<path style="fill:#F5C679;" d="M384.383,362.627c0,0,9.755-32.441,25.273-31.924c19.953,0.665,18.622,34.584,30.594,33.254
					c21.803-2.423,15.962-53.207,39.24-47.886c10.306,2.356,6.743,48.597,16.627,55.867c6.22,4.575,19.845-12.989,25.938-16.627
					c6.093-3.638,12.637-1.995,12.637-1.995l0.665,33.254l-150.974,0.665V362.627z"/>
				<g>
					<path style="fill:#4475AB;" d="M473.472,310.751h21.98c2.568,0,4.65-2.082,4.65-4.65l0,0c0-2.568-2.082-4.65-4.65-4.65h-21.98
						c-2.568,0-4.65,2.082-4.65,4.65l0,0C468.822,308.669,470.904,310.751,473.472,310.751z"/>
					<g>
						<rect x="486.036" y="315.887" style="fill:#F5C679;" width="4.098" height="4.098"/>
						<rect x="492.557" y="315.887" style="fill:#F5C679;" width="4.098" height="4.098"/>
						<rect x="492.557" y="321.97" style="fill:#F5C679;" width="4.098" height="4.098"/>
					</g>
				</g>
			</g>
			<g>
				<path style="fill:none;stroke:#FFFFFF;stroke-miterlimit:10;" d="M299.253,256.214v146.983c0,16.529,13.4,29.929,29.929,29.929
					h89.121c16.529,0,29.929-13.4,29.929-29.929l0,0"/>
				<circle style="fill:#FFFFFF;" cx="299.253" cy="323.387" r="8.646"/>
				<circle style="fill:none;stroke:#FFFFFF;stroke-miterlimit:10;" cx="299.253" cy="323.387" r="14.783"/>
			</g>
		</g>
		<g>
			<g>
				<g>
					<rect x="236.163" y="245.402" style="fill:#000307;" width="39.004" height="4.574"/>
					<polygon style="fill:#FFFFFF;" points="236.163,245.402 261.649,245.402 259.644,249.977 236.163,249.977 					"/>
					<polygon style="fill:#FFFFFF;" points="323.923,249.977 262.449,249.977 277.288,207.58 338.762,207.58 					"/>
					<path style="fill:#000307;" d="M304.222,229.97c0-2.132-1.728-3.86-3.859-3.86c-2.132,0-3.86,1.728-3.86,3.86
						c0,2.132,1.728,3.86,3.86,3.86C302.494,233.83,304.222,232.102,304.222,229.97z"/>
				</g>
			</g>
			<rect x="225.417" y="249.961" style="fill:#4475AB;" width="136.617" height="6.136"/>
		</g>
	</g>
</g>
</svg>
