<?xml version="1.0" encoding="utf-8"?>
<!-- Generator: Adobe Illustrator 27.5.0, SVG Export Plug-In . SVG Version: 6.00 Build 0)  -->
<svg version="1.1" id="Layer_1" xmlns="http://www.w3.org/2000/svg" xmlns:xlink="http://www.w3.org/1999/xlink" x="0px" y="0px"
	 viewBox="0 2000 2000 2000" style="enable-background:new 0 2000 2000 2000;" xml:space="preserve">
<g>
	<g>
		<defs>
			<rect id="SVGID_1_" y="2000" width="2000" height="2000"/>
		</defs>
		<clipPath id="SVGID_00000064332737302545161070000000857679874599094438_">
			<use xlink:href="#SVGID_1_"  style="overflow:visible;"/>
		</clipPath>
		<g style="clip-path:url(#SVGID_00000064332737302545161070000000857679874599094438_);">
			<rect x="1661.801" y="1661.801" style="fill:none;" width="415.45" height="415.45"/>
			<g>
				<rect x="1661.801" y="1661.801" style="fill:#F8998F;" width="415.45" height="415.45"/>
			</g>
		</g>
		<g style="clip-path:url(#SVGID_00000064332737302545161070000000857679874599094438_);">
			<rect x="1661.801" y="2077.251" style="fill:none;" width="415.45" height="415.45"/>
			<g>
				<rect x="1661.801" y="2077.251" style="fill:#F8998F;" width="415.45" height="415.45"/>
			</g>
		</g>
		<g style="clip-path:url(#SVGID_00000064332737302545161070000000857679874599094438_);">
			<rect x="1661.801" y="2492.701" style="fill:none;" width="415.45" height="415.45"/>
			<g>
				<rect x="1661.801" y="2492.701" style="fill:#F8998F;" width="415.45" height="415.45"/>
			</g>
		</g>
		<g style="clip-path:url(#SVGID_00000064332737302545161070000000857679874599094438_);">
			<rect x="1661.801" y="2908.151" style="fill:none;" width="415.45" height="415.45"/>
			<g>
				<rect x="1661.801" y="2908.151" style="fill:#F8998F;" width="415.45" height="415.45"/>
			</g>
		</g>
		<g style="clip-path:url(#SVGID_00000064332737302545161070000000857679874599094438_);">
			<rect x="1661.801" y="3323.601" style="fill:none;" width="415.45" height="415.45"/>
			<g>
				<rect x="1661.801" y="3323.601" style="fill:#F8998F;" width="415.45" height="415.45"/>
			</g>
		</g>
		<g style="clip-path:url(#SVGID_00000064332737302545161070000000857679874599094438_);">
			<rect x="1661.801" y="3739.052" style="fill:none;" width="415.45" height="415.45"/>
			<g>
				<rect x="1661.801" y="3739.052" style="fill:#F8998F;" width="415.45" height="415.45"/>
			</g>
		</g>
		<g style="clip-path:url(#SVGID_00000064332737302545161070000000857679874599094438_);">
			<rect x="1246.35" y="1661.801" style="fill:none;" width="415.45" height="415.45"/>
			<g>
				<rect x="1246.35" y="1661.801" style="fill:#F8998F;" width="415.45" height="415.45"/>
			</g>
		</g>
		<g style="clip-path:url(#SVGID_00000064332737302545161070000000857679874599094438_);">
			<rect x="1246.35" y="2077.251" style="fill:none;" width="415.45" height="415.45"/>
			<g>
				<rect x="1246.35" y="2077.251" style="fill:#F8998F;" width="415.45" height="415.45"/>
			</g>
		</g>
		<g style="clip-path:url(#SVGID_00000064332737302545161070000000857679874599094438_);">
			<rect x="1246.35" y="2492.701" style="fill:none;" width="415.45" height="415.45"/>
			<g>
				<rect x="1246.35" y="2492.701" style="fill:#F8998F;" width="415.45" height="415.45"/>
			</g>
		</g>
		<g style="clip-path:url(#SVGID_00000064332737302545161070000000857679874599094438_);">
			<rect x="1246.35" y="2908.151" style="fill:none;" width="415.45" height="415.45"/>
			<g>
				<rect x="1246.35" y="2908.151" style="fill:#F8998F;" width="415.45" height="415.45"/>
			</g>
		</g>
		<g style="clip-path:url(#SVGID_00000064332737302545161070000000857679874599094438_);">
			<rect x="1246.35" y="3323.601" style="fill:none;" width="415.45" height="415.45"/>
			<g>
				<rect x="1246.35" y="3323.601" style="fill:#F8998F;" width="415.45" height="415.45"/>
			</g>
		</g>
		<g style="clip-path:url(#SVGID_00000064332737302545161070000000857679874599094438_);">
			<rect x="1246.35" y="3739.052" style="fill:none;" width="415.45" height="415.45"/>
			<g>
				<rect x="1246.35" y="3739.052" style="fill:#F8998F;" width="415.45" height="415.45"/>
			</g>
		</g>
		<g style="clip-path:url(#SVGID_00000064332737302545161070000000857679874599094438_);">
			<rect x="830.9" y="1661.801" style="fill:none;" width="415.45" height="415.45"/>
			<g>
				<rect x="830.9" y="1661.801" style="fill:#F8998F;" width="415.45" height="415.45"/>
			</g>
		</g>
		<g style="clip-path:url(#SVGID_00000064332737302545161070000000857679874599094438_);">
			<rect x="830.9" y="2077.251" style="fill:none;" width="415.45" height="415.45"/>
			<g>
				<rect x="830.9" y="2077.251" style="fill:#F8998F;" width="415.45" height="415.45"/>
			</g>
		</g>
		<g style="clip-path:url(#SVGID_00000064332737302545161070000000857679874599094438_);">
			<rect x="830.9" y="2492.701" style="fill:none;" width="415.45" height="415.45"/>
			<g>
				<rect x="830.9" y="2492.701" style="fill:#F8998F;" width="415.45" height="415.45"/>
			</g>
		</g>
		<g style="clip-path:url(#SVGID_00000064332737302545161070000000857679874599094438_);">
			<rect x="830.9" y="2908.151" style="fill:none;" width="415.45" height="415.45"/>
			<g>
				<rect x="830.9" y="2908.151" style="fill:#F8998F;" width="415.45" height="415.45"/>
			</g>
		</g>
		<g style="clip-path:url(#SVGID_00000064332737302545161070000000857679874599094438_);">
			<rect x="830.9" y="3323.601" style="fill:none;" width="415.45" height="415.45"/>
			<g>
				<rect x="830.9" y="3323.601" style="fill:#F8998F;" width="415.45" height="415.45"/>
			</g>
		</g>
		<g style="clip-path:url(#SVGID_00000064332737302545161070000000857679874599094438_);">
			<rect x="830.9" y="3739.052" style="fill:none;" width="415.45" height="415.45"/>
			<g>
				<rect x="830.9" y="3739.052" style="fill:#F8998F;" width="415.45" height="415.45"/>
			</g>
		</g>
		<g style="clip-path:url(#SVGID_00000064332737302545161070000000857679874599094438_);">
			<rect x="415.45" y="1661.801" style="fill:none;" width="415.45" height="415.45"/>
			<g>
				<rect x="415.45" y="1661.801" style="fill:#F8998F;" width="415.45" height="415.45"/>
			</g>
		</g>
		<g style="clip-path:url(#SVGID_00000064332737302545161070000000857679874599094438_);">
			<rect x="415.45" y="2077.251" style="fill:none;" width="415.45" height="415.45"/>
			<g>
				<rect x="415.45" y="2077.251" style="fill:#F8998F;" width="415.45" height="415.45"/>
			</g>
		</g>
		<g style="clip-path:url(#SVGID_00000064332737302545161070000000857679874599094438_);">
			<rect x="415.45" y="2492.701" style="fill:none;" width="415.45" height="415.45"/>
			<g>
				<rect x="415.45" y="2492.701" style="fill:#F8998F;" width="415.45" height="415.45"/>
			</g>
		</g>
		<g style="clip-path:url(#SVGID_00000064332737302545161070000000857679874599094438_);">
			<rect x="415.45" y="2908.151" style="fill:none;" width="415.45" height="415.45"/>
			<g>
				<rect x="415.45" y="2908.151" style="fill:#F8998F;" width="415.45" height="415.45"/>
			</g>
		</g>
		<g style="clip-path:url(#SVGID_00000064332737302545161070000000857679874599094438_);">
			<rect x="415.45" y="3323.601" style="fill:none;" width="415.45" height="415.45"/>
			<g>
				<rect x="415.45" y="3323.601" style="fill:#F8998F;" width="415.45" height="415.45"/>
			</g>
		</g>
		<g style="clip-path:url(#SVGID_00000064332737302545161070000000857679874599094438_);">
			<rect x="415.45" y="3739.052" style="fill:none;" width="415.45" height="415.45"/>
			<g>
				<rect x="415.45" y="3739.052" style="fill:#F8998F;" width="415.45" height="415.45"/>
			</g>
		</g>
		<g style="clip-path:url(#SVGID_00000064332737302545161070000000857679874599094438_);">
			<rect y="1661.801" style="fill:none;" width="415.45" height="415.45"/>
			<g>
				<rect y="1661.801" style="fill:#F8998F;" width="415.45" height="415.45"/>
			</g>
		</g>
		<g style="clip-path:url(#SVGID_00000064332737302545161070000000857679874599094438_);">
			<rect y="2077.251" style="fill:none;" width="415.45" height="415.45"/>
			<g>
				<rect y="2077.251" style="fill:#F8998F;" width="415.45" height="415.45"/>
			</g>
		</g>
		<g style="clip-path:url(#SVGID_00000064332737302545161070000000857679874599094438_);">
			<rect y="2492.701" style="fill:none;" width="415.45" height="415.45"/>
			<g>
				<rect y="2492.701" style="fill:#F8998F;" width="415.45" height="415.45"/>
			</g>
		</g>
		<g style="clip-path:url(#SVGID_00000064332737302545161070000000857679874599094438_);">
			<rect y="2908.151" style="fill:none;" width="415.45" height="415.45"/>
			<g>
				<rect y="2908.151" style="fill:#F8998F;" width="415.45" height="415.45"/>
			</g>
		</g>
		<g style="clip-path:url(#SVGID_00000064332737302545161070000000857679874599094438_);">
			<rect y="3323.601" style="fill:none;" width="415.45" height="415.45"/>
			<g>
				<rect y="3323.601" style="fill:#F8998F;" width="415.45" height="415.45"/>
			</g>
		</g>
		<g style="clip-path:url(#SVGID_00000064332737302545161070000000857679874599094438_);">
			<rect y="3739.052" style="fill:none;" width="415.45" height="415.45"/>
			<g>
				<rect y="3739.052" style="fill:#F8998F;" width="415.45" height="415.45"/>
			</g>
		</g>
		<g style="clip-path:url(#SVGID_00000064332737302545161070000000857679874599094438_);">
			<rect x="-415.45" y="1661.801" style="fill:none;" width="415.45" height="415.45"/>
			<g>
				<rect x="-415.45" y="1661.801" style="fill:#F8998F;" width="415.45" height="415.45"/>
			</g>
		</g>
		<g style="clip-path:url(#SVGID_00000064332737302545161070000000857679874599094438_);">
			<rect x="-415.45" y="2077.251" style="fill:none;" width="415.45" height="415.45"/>
			<g>
				<rect x="-415.45" y="2077.251" style="fill:#F8998F;" width="415.45" height="415.45"/>
			</g>
		</g>
		<g style="clip-path:url(#SVGID_00000064332737302545161070000000857679874599094438_);">
			<rect x="-415.45" y="2492.701" style="fill:none;" width="415.45" height="415.45"/>
			<g>
				<rect x="-415.45" y="2492.701" style="fill:#F8998F;" width="415.45" height="415.45"/>
			</g>
		</g>
		<g style="clip-path:url(#SVGID_00000064332737302545161070000000857679874599094438_);">
			<rect x="-415.45" y="2908.151" style="fill:none;" width="415.45" height="415.45"/>
			<g>
				<rect x="-415.45" y="2908.151" style="fill:#F8998F;" width="415.45" height="415.45"/>
			</g>
		</g>
		<g style="clip-path:url(#SVGID_00000064332737302545161070000000857679874599094438_);">
			<rect x="-415.45" y="3323.601" style="fill:none;" width="415.45" height="415.45"/>
			<g>
				<rect x="-415.45" y="3323.601" style="fill:#F8998F;" width="415.45" height="415.45"/>
			</g>
		</g>
		<g style="clip-path:url(#SVGID_00000064332737302545161070000000857679874599094438_);">
			<rect x="-415.45" y="3739.052" style="fill:none;" width="415.45" height="415.45"/>
			<g>
				<rect x="-415.45" y="3739.052" style="fill:#F8998F;" width="415.45" height="415.45"/>
			</g>
		</g>
	</g>
</g>
<g>
	<g>
		<defs>
			<path id="SVGID_00000122685832010559403740000014060932511836730281_" d="M1385.267,3054.502l-224.43-541.72
				c-18.53-44.82-57.81-77.93-105.14-88.57c-47.39-10.81-97.1,2.4-133.11,34.96l-417.25,377.76l-154.96,64.19
				c-82.86,34.36-122.3,129.69-88,212.49l62.69,151.34c25.94,62.56,86.62,100.39,150.52,100.39c14.26,0,28.6-2.65,42.82-6.57
				l87.79,211.88c16.2,39.15,54.22,62.85,94.19,62.85c12.97,0,26.1-2.49,38.81-7.76l87.88-36.43
				c25.15-10.37,44.74-29.94,55.12-55.08c10.43-25.13,10.43-52.79,0-77.91l-71.84-173.39l444.3-22.08
				c48.44-2.41,92.86-28.32,118.8-69.3C1399.407,3150.573,1403.797,3099.353,1385.267,3054.502z M527.817,3239.662
				c-0.03,0.01-0.05,0-0.079,0.01c-0.03,0.01-0.04,0.04-0.07,0.05l-31.59,13.08c-27.48,11.44-59.4-1.72-70.84-29.35l-62.69-151.34
				c-11.43-27.61,1.75-59.35,29.34-70.82l113.5-47.01l52.1,125.75l52.1,125.76L527.817,3239.662z M703.827,3523.032l-84.49-203.92
				l73.19-30.32l2.83-0.14l84.13,203.04L703.827,3523.032z M1281.867,3133.552c-7.25,11.41-19.11,18.34-32.61,19.03l-533.36,26.5
				l-32.65-78.8l-83.81-202.29l395.9-358.42c10.01-9.05,23.35-12.57,36.53-9.61c13.13,2.97,23.61,11.81,28.8,24.3l224.43,541.72
				C1290.237,3108.452,1289.067,3122.142,1281.867,3133.552z"/>
		</defs>
		<clipPath id="SVGID_00000018924228431558733090000002451111403418504590_">
			<use xlink:href="#SVGID_00000122685832010559403740000014060932511836730281_"  style="overflow:visible;"/>
		</clipPath>
		<g style="clip-path:url(#SVGID_00000018924228431558733090000002451111403418504590_);">
			<rect x="999.005" y="2137.533" style="fill:none;" width="415.45" height="415.45"/>
			<g>
				<rect x="999.005" y="2137.533" style="fill:#861B2F;" width="415.45" height="415.45"/>
			</g>
		</g>
		<g style="clip-path:url(#SVGID_00000018924228431558733090000002451111403418504590_);">
			<rect x="999.005" y="2552.984" style="fill:none;" width="415.45" height="415.45"/>
			<g>
				<rect x="999.005" y="2552.984" style="fill:#861B2F;" width="415.45" height="415.45"/>
			</g>
		</g>
		<g style="clip-path:url(#SVGID_00000018924228431558733090000002451111403418504590_);">
			<rect x="999.005" y="2968.434" style="fill:none;" width="415.45" height="415.45"/>
			<g>
				<rect x="999.005" y="2968.434" style="fill:#861B2F;" width="415.45" height="415.45"/>
			</g>
		</g>
		<g style="clip-path:url(#SVGID_00000018924228431558733090000002451111403418504590_);">
			<rect x="999.005" y="3383.884" style="fill:none;" width="415.45" height="415.45"/>
			<g>
				<rect x="999.005" y="3383.884" style="fill:#861B2F;" width="415.45" height="415.45"/>
			</g>
		</g>
		<g style="clip-path:url(#SVGID_00000018924228431558733090000002451111403418504590_);">
			<rect x="583.555" y="2137.533" style="fill:none;" width="415.45" height="415.45"/>
			<g>
				<rect x="583.555" y="2137.533" style="fill:#861B2F;" width="415.45" height="415.45"/>
			</g>
		</g>
		<g style="clip-path:url(#SVGID_00000018924228431558733090000002451111403418504590_);">
			<rect x="583.555" y="2552.984" style="fill:none;" width="415.45" height="415.45"/>
			<g>
				<rect x="583.555" y="2552.984" style="fill:#861B2F;" width="415.45" height="415.45"/>
			</g>
		</g>
		<g style="clip-path:url(#SVGID_00000018924228431558733090000002451111403418504590_);">
			<rect x="583.555" y="2968.434" style="fill:none;" width="415.45" height="415.45"/>
			<g>
				<rect x="583.555" y="2968.434" style="fill:#861B2F;" width="415.45" height="415.45"/>
			</g>
		</g>
		<g style="clip-path:url(#SVGID_00000018924228431558733090000002451111403418504590_);">
			<rect x="583.555" y="3383.884" style="fill:none;" width="415.45" height="415.45"/>
			<g>
				<rect x="583.555" y="3383.884" style="fill:#861B2F;" width="415.45" height="415.45"/>
			</g>
		</g>
		<g style="clip-path:url(#SVGID_00000018924228431558733090000002451111403418504590_);">
			<rect x="168.105" y="2137.533" style="fill:none;" width="415.45" height="415.45"/>
			<g>
				<rect x="168.105" y="2137.533" style="fill:#861B2F;" width="415.45" height="415.45"/>
			</g>
		</g>
		<g style="clip-path:url(#SVGID_00000018924228431558733090000002451111403418504590_);">
			<rect x="168.105" y="2552.984" style="fill:none;" width="415.45" height="415.45"/>
			<g>
				<rect x="168.105" y="2552.984" style="fill:#861B2F;" width="415.45" height="415.45"/>
			</g>
		</g>
		<g style="clip-path:url(#SVGID_00000018924228431558733090000002451111403418504590_);">
			<rect x="168.105" y="2968.434" style="fill:none;" width="415.45" height="415.45"/>
			<g>
				<rect x="168.105" y="2968.434" style="fill:#861B2F;" width="415.45" height="415.45"/>
			</g>
		</g>
		<g style="clip-path:url(#SVGID_00000018924228431558733090000002451111403418504590_);">
			<rect x="168.105" y="3383.884" style="fill:none;" width="415.45" height="415.45"/>
			<g>
				<rect x="168.105" y="3383.884" style="fill:#861B2F;" width="415.45" height="415.45"/>
			</g>
		</g>
		<g style="clip-path:url(#SVGID_00000018924228431558733090000002451111403418504590_);">
			<rect x="583.555" y="2552.984" style="fill:none;" width="415.45" height="415.45"/>
			<g>
				<rect x="583.555" y="2552.984" style="fill:#861B2F;" width="415.45" height="415.45"/>
			</g>
		</g>
		<g style="clip-path:url(#SVGID_00000018924228431558733090000002451111403418504590_);">
			<rect x="583.555" y="2968.434" style="fill:none;" width="415.45" height="415.45"/>
			<g>
				<rect x="583.555" y="2968.434" style="fill:#861B2F;" width="415.45" height="415.45"/>
			</g>
		</g>
		<g style="clip-path:url(#SVGID_00000018924228431558733090000002451111403418504590_);">
			<rect x="168.105" y="2552.984" style="fill:none;" width="415.45" height="415.45"/>
			<g>
				<rect x="168.105" y="2552.984" style="fill:#861B2F;" width="415.45" height="415.45"/>
			</g>
		</g>
		<g style="clip-path:url(#SVGID_00000018924228431558733090000002451111403418504590_);">
			<rect x="168.105" y="2968.434" style="fill:none;" width="415.45" height="415.45"/>
			<g>
				<rect x="168.105" y="2968.434" style="fill:#861B2F;" width="415.45" height="415.45"/>
			</g>
		</g>
		<g style="clip-path:url(#SVGID_00000018924228431558733090000002451111403418504590_);">
			<rect x="583.555" y="2968.434" style="fill:none;" width="415.45" height="415.45"/>
			<g>
				<rect x="583.555" y="2968.434" style="fill:#861B2F;" width="415.45" height="415.45"/>
			</g>
		</g>
		<g style="clip-path:url(#SVGID_00000018924228431558733090000002451111403418504590_);">
			<rect x="583.555" y="3383.884" style="fill:none;" width="415.45" height="415.45"/>
			<g>
				<rect x="583.555" y="3383.884" style="fill:#861B2F;" width="415.45" height="415.45"/>
			</g>
		</g>
		<g style="clip-path:url(#SVGID_00000018924228431558733090000002451111403418504590_);">
			<rect x="999.005" y="2137.533" style="fill:none;" width="415.45" height="415.45"/>
			<g>
				<rect x="999.005" y="2137.533" style="fill:#861B2F;" width="415.45" height="415.45"/>
			</g>
		</g>
		<g style="clip-path:url(#SVGID_00000018924228431558733090000002451111403418504590_);">
			<rect x="999.005" y="2552.984" style="fill:none;" width="415.45" height="415.45"/>
			<g>
				<rect x="999.005" y="2552.984" style="fill:#861B2F;" width="415.45" height="415.45"/>
			</g>
		</g>
		<g style="clip-path:url(#SVGID_00000018924228431558733090000002451111403418504590_);">
			<rect x="999.005" y="2968.434" style="fill:none;" width="415.45" height="415.45"/>
			<g>
				<rect x="999.005" y="2968.434" style="fill:#861B2F;" width="415.45" height="415.45"/>
			</g>
		</g>
		<g style="clip-path:url(#SVGID_00000018924228431558733090000002451111403418504590_);">
			<rect x="583.555" y="2137.533" style="fill:none;" width="415.45" height="415.45"/>
			<g>
				<rect x="583.555" y="2137.533" style="fill:#861B2F;" width="415.45" height="415.45"/>
			</g>
		</g>
		<g style="clip-path:url(#SVGID_00000018924228431558733090000002451111403418504590_);">
			<rect x="583.555" y="2552.984" style="fill:none;" width="415.45" height="415.45"/>
			<g>
				<rect x="583.555" y="2552.984" style="fill:#861B2F;" width="415.45" height="415.45"/>
			</g>
		</g>
		<g style="clip-path:url(#SVGID_00000018924228431558733090000002451111403418504590_);">
			<rect x="583.555" y="2968.434" style="fill:none;" width="415.45" height="415.45"/>
			<g>
				<rect x="583.555" y="2968.434" style="fill:#861B2F;" width="415.45" height="415.45"/>
			</g>
		</g>
	</g>
</g>
<g>
	<g>
		<defs>
			<path id="SVGID_00000114770602353866018160000005988256900275477909_" d="M1749.947,2925.403
				c-1.27,29.12-25.26,51.86-54.11,51.86c-0.79,0-1.64-0.03-2.44-0.06l-216.64-9.47c-29.91-1.3-53.1-26.63-51.78-56.52
				c1.32-29.91,27.05-52.87,56.54-51.81l216.65,9.48C1728.077,2870.182,1751.267,2895.512,1749.947,2925.403z"/>
		</defs>
		<clipPath id="SVGID_00000152244955241921480770000008309340931247290274_">
			<use xlink:href="#SVGID_00000114770602353866018160000005988256900275477909_"  style="overflow:visible;"/>
		</clipPath>
		<g style="clip-path:url(#SVGID_00000152244955241921480770000008309340931247290274_);">
			<rect x="1414.455" y="2552.984" style="fill:none;" width="415.45" height="415.45"/>
			<g>
				<rect x="1414.455" y="2552.984" style="fill:#FEFEFD;" width="415.45" height="415.45"/>
			</g>
		</g>
		<g style="clip-path:url(#SVGID_00000152244955241921480770000008309340931247290274_);">
			<rect x="1414.455" y="2968.434" style="fill:none;" width="415.45" height="415.45"/>
			<g>
				<rect x="1414.455" y="2968.434" style="fill:#FEFEFD;" width="415.45" height="415.45"/>
			</g>
		</g>
	</g>
</g>
<g>
	<g>
		<defs>
			<path id="SVGID_00000085217739853792281550000017578703146703161509_" d="M1681.697,2694.173l-200.39,82.99
				c-6.78,2.8-13.82,4.15-20.75,4.15c-21.23,0-41.46-12.63-50.09-33.49c-11.43-27.66,1.7-59.37,29.33-70.83l200.4-82.99
				c27.53-11.41,59.4,1.66,70.84,29.33C1722.467,2650.992,1709.337,2682.702,1681.697,2694.173z"/>
		</defs>
		<clipPath id="SVGID_00000120554959267112831020000007686888862144921007_">
			<use xlink:href="#SVGID_00000085217739853792281550000017578703146703161509_"  style="overflow:visible;"/>
		</clipPath>
		<g style="clip-path:url(#SVGID_00000120554959267112831020000007686888862144921007_);">
			<rect x="1414.455" y="2552.984" style="fill:none;" width="415.45" height="415.45"/>
			<g>
				<rect x="1414.455" y="2552.984" style="fill:#FEFEFD;" width="415.45" height="415.45"/>
			</g>
		</g>
		<g style="clip-path:url(#SVGID_00000120554959267112831020000007686888862144921007_);">
			<rect x="999.005" y="2552.984" style="fill:none;" width="415.45" height="415.45"/>
			<g>
				<rect x="999.005" y="2552.984" style="fill:#FEFEFD;" width="415.45" height="415.45"/>
			</g>
		</g>
	</g>
</g>
<g>
	<g>
		<defs>
			<path id="SVGID_00000016048232389975510090000005149863432950166426_" d="M1530.177,2459.042l-153.33,153.33
				c-10.59,10.59-24.46,15.88-38.33,15.88c-13.87,0-27.74-5.29-38.33-15.88c-21.18-21.18-21.18-55.49,0-76.67l153.33-153.32
				c21.17-21.18,55.48-21.18,76.66,0C1551.357,2403.563,1551.357,2437.863,1530.177,2459.042z"/>
		</defs>
		<clipPath id="SVGID_00000093890222032200994270000004048110895558611870_">
			<use xlink:href="#SVGID_00000016048232389975510090000005149863432950166426_"  style="overflow:visible;"/>
		</clipPath>
		<g style="clip-path:url(#SVGID_00000093890222032200994270000004048110895558611870_);">
			<rect x="1414.455" y="2137.533" style="fill:none;" width="415.45" height="415.45"/>
			<g>
				<rect x="1414.455" y="2137.533" style="fill:#FEFEFD;" width="415.45" height="415.45"/>
			</g>
		</g>
		<g style="clip-path:url(#SVGID_00000093890222032200994270000004048110895558611870_);">
			<rect x="1414.455" y="2552.984" style="fill:none;" width="415.45" height="415.45"/>
			<g>
				<rect x="1414.455" y="2552.984" style="fill:#FEFEFD;" width="415.45" height="415.45"/>
			</g>
		</g>
		<g style="clip-path:url(#SVGID_00000093890222032200994270000004048110895558611870_);">
			<rect x="999.005" y="2137.533" style="fill:none;" width="415.45" height="415.45"/>
			<g>
				<rect x="999.005" y="2137.533" style="fill:#FEFEFD;" width="415.45" height="415.45"/>
			</g>
		</g>
		<g style="clip-path:url(#SVGID_00000093890222032200994270000004048110895558611870_);">
			<rect x="999.005" y="2552.984" style="fill:none;" width="415.45" height="415.45"/>
			<g>
				<rect x="999.005" y="2552.984" style="fill:#FEFEFD;" width="415.45" height="415.45"/>
			</g>
		</g>
	</g>
</g>
<g>
	<g>
		<defs>
			<path id="SVGID_00000157272742194648817020000012434534112206356648_" d="M1281.867,3133.552
				c-7.25,11.41-19.11,18.34-32.61,19.03l-533.36,26.5l-32.65-78.8l-83.81-202.29l395.9-358.42c10.01-9.05,23.35-12.57,36.53-9.61
				c13.13,2.97,23.61,11.81,28.8,24.3l224.43,541.72C1290.237,3108.452,1289.067,3122.142,1281.867,3133.552z"/>
		</defs>
		<clipPath id="SVGID_00000053547632627984895090000000316384352571224762_">
			<use xlink:href="#SVGID_00000157272742194648817020000012434534112206356648_"  style="overflow:visible;"/>
		</clipPath>
		<g style="clip-path:url(#SVGID_00000053547632627984895090000000316384352571224762_);">
			<rect x="999.005" y="2137.533" style="fill:none;" width="415.45" height="415.45"/>
			<g>
				<rect x="999.005" y="2137.533" style="fill:#FEFEFD;" width="415.45" height="415.45"/>
			</g>
		</g>
		<g style="clip-path:url(#SVGID_00000053547632627984895090000000316384352571224762_);">
			<rect x="999.005" y="2552.984" style="fill:none;" width="415.45" height="415.45"/>
			<g>
				<rect x="999.005" y="2552.984" style="fill:#FEFEFD;" width="415.45" height="415.45"/>
			</g>
		</g>
		<g style="clip-path:url(#SVGID_00000053547632627984895090000000316384352571224762_);">
			<rect x="999.005" y="2968.434" style="fill:none;" width="415.45" height="415.45"/>
			<g>
				<rect x="999.005" y="2968.434" style="fill:#FEFEFD;" width="415.45" height="415.45"/>
			</g>
		</g>
		<g style="clip-path:url(#SVGID_00000053547632627984895090000000316384352571224762_);">
			<rect x="583.555" y="2137.533" style="fill:none;" width="415.45" height="415.45"/>
			<g>
				<rect x="583.555" y="2137.533" style="fill:#FEFEFD;" width="415.45" height="415.45"/>
			</g>
		</g>
		<g style="clip-path:url(#SVGID_00000053547632627984895090000000316384352571224762_);">
			<rect x="583.555" y="2552.984" style="fill:none;" width="415.45" height="415.45"/>
			<g>
				<rect x="583.555" y="2552.984" style="fill:#FEFEFD;" width="415.45" height="415.45"/>
			</g>
		</g>
		<g style="clip-path:url(#SVGID_00000053547632627984895090000000316384352571224762_);">
			<rect x="583.555" y="2968.434" style="fill:none;" width="415.45" height="415.45"/>
			<g>
				<rect x="583.555" y="2968.434" style="fill:#FEFEFD;" width="415.45" height="415.45"/>
			</g>
		</g>
	</g>
</g>
<g>
	<g>
		<defs>
			<path id="SVGID_00000135656871446922985080000000275537450713482157_" d="M609.587,3205.792l-81.77,33.87
				c-0.03,0.01-0.05,0-0.079,0.01c-0.03,0.01-0.04,0.04-0.07,0.05l-31.59,13.08c-27.48,11.44-59.4-1.72-70.84-29.35l-62.69-151.34
				c-11.43-27.61,1.75-59.35,29.34-70.82l113.5-47.01l52.1,125.75L609.587,3205.792z"/>
		</defs>
		<clipPath id="SVGID_00000058550432755728962610000002366867713568677512_">
			<use xlink:href="#SVGID_00000135656871446922985080000000275537450713482157_"  style="overflow:visible;"/>
		</clipPath>
		<g style="clip-path:url(#SVGID_00000058550432755728962610000002366867713568677512_);">
			<rect x="583.555" y="2552.984" style="fill:none;" width="415.45" height="415.45"/>
			<g>
				<rect x="583.555" y="2552.984" style="fill:#A82738;" width="415.45" height="415.45"/>
			</g>
		</g>
		<g style="clip-path:url(#SVGID_00000058550432755728962610000002366867713568677512_);">
			<rect x="583.555" y="2968.434" style="fill:none;" width="415.45" height="415.45"/>
			<g>
				<rect x="583.555" y="2968.434" style="fill:#A82738;" width="415.45" height="415.45"/>
			</g>
		</g>
		<g style="clip-path:url(#SVGID_00000058550432755728962610000002366867713568677512_);">
			<rect x="168.105" y="2552.984" style="fill:none;" width="415.45" height="415.45"/>
			<g>
				<rect x="168.105" y="2552.984" style="fill:#A82738;" width="415.45" height="415.45"/>
			</g>
		</g>
		<g style="clip-path:url(#SVGID_00000058550432755728962610000002366867713568677512_);">
			<rect x="168.105" y="2968.434" style="fill:none;" width="415.45" height="415.45"/>
			<g>
				<rect x="168.105" y="2968.434" style="fill:#A82738;" width="415.45" height="415.45"/>
			</g>
		</g>
	</g>
</g>
<g>
	<g>
		<defs>
			<polygon id="SVGID_00000061431054046938156370000012335337609300428691_" points="779.487,3491.692 703.827,3523.032 
				619.337,3319.113 692.527,3288.792 695.357,3288.653 			"/>
		</defs>
		<clipPath id="SVGID_00000143594827129007424600000015161434229426505116_">
			<use xlink:href="#SVGID_00000061431054046938156370000012335337609300428691_"  style="overflow:visible;"/>
		</clipPath>
		<g style="clip-path:url(#SVGID_00000143594827129007424600000015161434229426505116_);">
			<rect x="583.555" y="2968.434" style="fill:none;" width="415.45" height="415.45"/>
			<g>
				<rect x="583.555" y="2968.434" style="fill:#A82738;" width="415.45" height="415.45"/>
			</g>
		</g>
		<g style="clip-path:url(#SVGID_00000143594827129007424600000015161434229426505116_);">
			<rect x="583.555" y="3383.884" style="fill:none;" width="415.45" height="415.45"/>
			<g>
				<rect x="583.555" y="3383.884" style="fill:#A82738;" width="415.45" height="415.45"/>
			</g>
		</g>
	</g>
</g>
</svg>
