<?xml version="1.0" encoding="utf-8"?>
<!-- Generator: Adobe Illustrator 27.5.0, SVG Export Plug-In . SVG Version: 6.00 Build 0)  -->
<svg version="1.1" xmlns="http://www.w3.org/2000/svg" xmlns:xlink="http://www.w3.org/1999/xlink" x="0px" y="0px"
	 viewBox="0 0 1200 1200" style="enable-background:new 0 0 1200 1200;" xml:space="preserve">
<g id="Backgroud">
	<rect style="fill:#FFE2C0;" width="1200" height="1200"/>
</g>
<g id="shadow">
	
		<rect x="252.453" y="283.353" transform="matrix(0.9969 -0.0783 0.0783 0.9969 -48.6595 50.1098)" style="fill:#D3D3D3;" width="723.755" height="723.755"/>
</g>
<g id="object">
	<g>
		<g>
			
				<rect x="238.122" y="270.019" transform="matrix(0.9969 -0.0783 0.0783 0.9969 -47.659 48.9462)" style="fill:#F6F6F7;" width="723.755" height="723.755"/>
			<g>
				<polygon style="fill:#A5A7A9;" points="926.861,298.266 924.4,298.459 917.01,299.04 914.551,299.233 907.161,299.814 
					904.7,300.007 897.31,300.588 894.851,300.781 887.458,301.362 885,301.555 877.609,302.136 875.149,302.329 867.758,302.91 
					865.3,303.103 857.909,303.684 855.448,303.877 848.058,304.458 845.599,304.651 838.209,305.232 835.748,305.425 
					828.358,306.006 825.899,306.199 818.507,306.78 816.048,306.973 808.658,307.554 806.197,307.747 798.807,308.328 
					796.348,308.521 788.958,309.102 786.497,309.296 779.107,309.876 776.648,310.069 769.258,310.65 766.797,310.844 
					759.407,311.424 756.948,311.618 749.555,312.198 747.097,312.392 739.706,312.972 737.245,313.166 729.855,313.747 
					727.397,313.94 720.006,314.521 717.545,314.714 710.155,315.295 707.697,315.488 700.306,316.069 697.845,316.262 
					690.455,316.843 687.997,317.036 680.604,317.617 678.145,317.81 670.755,318.391 668.294,318.584 660.904,319.165 
					658.445,319.358 651.055,319.939 648.594,320.132 641.204,320.713 638.745,320.906 631.355,321.487 628.894,321.68 
					621.504,322.261 619.045,322.454 611.652,323.035 609.194,323.228 601.804,323.809 599.343,324.003 591.952,324.583 
					589.494,324.776 582.104,325.357 579.642,325.551 572.252,326.131 569.794,326.324 562.403,326.905 559.942,327.099 
					552.552,327.679 550.094,327.873 542.701,328.453 540.242,328.647 532.852,329.227 530.391,329.421 523.001,330.002 
					520.542,330.195 513.152,330.776 510.691,330.969 503.301,331.55 500.842,331.743 493.449,332.324 490.991,332.517 
					483.6,333.098 481.14,333.291 473.749,333.872 471.291,334.065 463.9,334.646 461.44,334.839 454.049,335.42 451.591,335.613 
					444.201,336.194 441.739,336.387 434.349,336.968 431.891,337.161 424.498,337.742 422.039,337.935 414.649,338.516 
					412.188,338.709 404.798,339.29 402.339,339.483 394.949,340.064 392.488,340.258 385.098,340.838 382.639,341.031 
					375.249,341.612 372.788,341.806 365.398,342.386 362.939,342.579 355.547,343.16 353.088,343.354 345.698,343.934 
					343.237,344.128 335.846,344.708 333.388,344.901 325.997,345.483 323.537,345.676 316.146,346.257 313.688,346.45 
					306.297,347.031 303.836,347.224 296.446,347.805 293.988,347.998 286.595,348.579 284.136,348.772 276.746,349.353 
					274.285,349.546 266.895,350.127 264.436,350.32 257.046,350.901 254.585,351.094 247.195,351.675 244.736,351.868 
					237.346,352.449 234.885,352.642 227.495,353.223 225.036,353.416 215.185,354.19 215.281,355.422 225.133,354.648 
					227.592,354.455 234.982,353.874 237.443,353.681 244.833,353.1 247.292,352.907 254.682,352.326 257.143,352.132 
					264.533,351.552 266.992,351.358 274.382,350.778 276.843,350.584 284.233,350.004 286.692,349.81 294.084,349.229 
					296.543,349.036 303.933,348.456 306.394,348.262 313.784,347.681 316.243,347.488 323.633,346.908 326.094,346.714 
					333.485,346.133 335.943,345.94 343.333,345.359 345.794,345.166 353.185,344.585 355.643,344.392 363.036,343.811 
					365.495,343.618 372.885,343.037 375.346,342.844 382.736,342.263 385.195,342.07 392.585,341.489 395.046,341.296 
					402.436,340.715 404.895,340.522 412.285,339.941 414.746,339.748 422.136,339.167 424.595,338.974 431.987,338.393 
					434.446,338.2 441.836,337.619 444.297,337.426 451.688,336.845 454.146,336.652 461.536,336.071 463.997,335.877 
					471.388,335.297 473.846,335.103 481.237,334.523 483.697,334.329 491.088,333.749 493.546,333.555 500.939,332.974 
					503.397,332.781 510.788,332.201 513.249,332.007 520.639,331.426 523.098,331.233 530.488,330.652 532.949,330.459 
					540.339,329.878 542.798,329.685 550.19,329.104 552.649,328.911 560.039,328.33 562.5,328.137 569.89,327.556 572.349,327.363 
					579.739,326.782 582.2,326.589 589.59,326.008 592.049,325.815 599.439,325.234 601.9,325.041 609.291,324.46 611.749,324.267 
					619.142,323.686 621.6,323.493 628.991,322.912 631.452,322.719 638.842,322.138 641.3,321.945 648.691,321.364 
					651.152,321.171 658.542,320.59 661,320.397 668.391,319.816 670.852,319.622 678.242,319.042 680.701,318.849 688.093,318.267 
					690.552,318.074 697.942,317.494 700.403,317.3 707.794,316.72 710.252,316.526 717.642,315.945 720.103,315.752 
					727.494,315.171 729.952,314.978 737.342,314.397 739.803,314.204 747.193,313.623 749.652,313.43 757.045,312.849 
					759.503,312.656 766.893,312.075 769.355,311.882 776.745,311.301 779.203,311.108 786.594,310.527 789.055,310.334 
					796.445,309.753 798.903,309.56 806.294,308.979 808.755,308.786 816.145,308.205 818.604,308.012 825.996,307.431 
					828.455,307.238 835.845,306.657 838.306,306.464 845.696,305.883 848.155,305.69 855.545,305.109 858.006,304.915 
					865.396,304.335 867.855,304.142 875.245,303.561 877.706,303.367 885.097,302.787 887.555,302.593 894.948,302.013 
					897.406,301.819 904.797,301.239 907.258,301.045 914.648,300.465 917.107,300.271 924.497,299.69 926.958,299.497 
					936.807,298.723 936.71,297.492 				"/>
				<polygon style="fill:#A5A7A9;" points="928.659,352.663 921.269,353.243 918.81,353.436 911.42,354.017 908.959,354.211 
					901.569,354.791 899.11,354.984 891.718,355.565 889.259,355.759 881.869,356.339 879.408,356.533 872.018,357.113 
					869.559,357.307 862.169,357.887 859.708,358.081 852.318,358.662 849.859,358.855 842.469,359.435 840.008,359.629 
					832.617,360.209 830.159,360.403 822.766,360.984 820.308,361.177 812.917,361.758 810.456,361.951 803.066,362.532 
					800.607,362.725 793.217,363.306 790.756,363.499 783.366,364.08 780.908,364.273 773.517,364.854 771.056,365.047 
					763.666,365.628 761.208,365.821 753.815,366.402 751.356,366.595 743.966,367.176 741.505,367.369 734.115,367.95 
					731.656,368.143 724.266,368.724 721.805,368.918 714.414,369.498 711.956,369.691 704.566,370.272 702.105,370.465 
					694.714,371.046 692.256,371.24 684.863,371.82 682.405,372.013 675.014,372.594 672.554,372.788 665.163,373.368 
					662.705,373.561 655.314,374.142 652.853,374.336 645.463,374.916 643.004,375.11 635.614,375.69 633.153,375.884 
					625.763,376.464 623.304,376.658 615.912,377.239 613.453,377.432 606.063,378.013 603.602,378.206 596.212,378.787 
					593.753,378.98 586.363,379.561 583.902,379.754 576.512,380.335 574.053,380.528 566.663,381.109 564.202,381.302 
					556.812,381.883 554.353,382.076 546.96,382.657 544.502,382.85 537.111,383.431 534.651,383.624 527.26,384.205 
					524.802,384.398 517.411,384.979 514.95,385.172 507.56,385.753 505.102,385.946 497.709,386.527 495.25,386.72 487.86,387.301 
					485.399,387.495 478.009,388.075 475.55,388.268 468.16,388.849 465.699,389.043 458.309,389.623 455.85,389.816 
					448.46,390.397 445.999,390.591 438.609,391.171 436.15,391.365 428.757,391.946 426.299,392.139 418.909,392.72 
					416.447,392.913 409.057,393.494 406.599,393.687 399.208,394.268 396.747,394.461 389.357,395.042 386.899,395.235 
					379.508,395.816 377.047,396.009 369.657,396.59 367.198,396.783 359.806,397.364 357.347,397.557 349.957,398.138 
					347.496,398.331 340.106,398.912 337.647,399.105 330.257,399.686 327.796,399.879 320.406,400.46 317.947,400.653 
					310.557,401.234 308.096,401.427 300.706,402.008 298.247,402.201 290.854,402.782 288.396,402.975 281.006,403.556 
					278.544,403.75 271.154,404.33 268.696,404.523 261.306,405.104 258.844,405.298 251.454,405.878 248.996,406.072 
					241.605,406.652 239.144,406.846 231.754,407.426 229.296,407.62 219.444,408.394 219.541,409.625 229.392,408.851 
					231.851,408.658 239.241,408.077 241.702,407.884 249.092,407.303 251.551,407.11 258.941,406.529 261.402,406.336 
					268.792,405.755 271.251,405.562 278.641,404.981 281.102,404.788 288.492,404.207 290.951,404.014 298.344,403.433 
					300.802,403.24 308.193,402.659 310.654,402.466 318.044,401.885 320.502,401.692 327.893,401.111 330.354,400.918 
					337.744,400.337 340.203,400.144 347.593,399.563 350.054,399.369 357.444,398.789 359.903,398.595 367.295,398.015 
					369.754,397.821 377.144,397.241 379.605,397.047 386.995,396.466 389.454,396.273 396.844,395.693 399.305,395.499 
					406.695,394.918 409.154,394.725 416.544,394.145 419.005,393.951 426.396,393.371 428.854,393.177 436.247,392.596 
					438.705,392.403 446.096,391.823 448.557,391.629 455.947,391.048 458.405,390.855 465.796,390.274 468.257,390.081 
					475.647,389.5 478.105,389.307 485.496,388.726 487.957,388.533 495.347,387.952 497.806,387.759 505.198,387.178 
					507.657,386.985 515.047,386.404 517.508,386.211 524.898,385.63 527.357,385.437 534.747,384.856 537.208,384.663 
					544.599,384.082 547.057,383.889 554.45,383.308 556.908,383.115 564.299,382.534 566.76,382.341 574.15,381.76 
					576.609,381.567 583.998,380.986 586.46,380.792 593.85,380.212 596.309,380.018 603.699,379.438 606.16,379.244 
					613.55,378.664 616.009,378.47 623.401,377.889 625.86,377.696 633.25,377.116 635.711,376.922 643.101,376.341 645.56,376.148 
					652.95,375.568 655.411,375.374 662.801,374.793 665.26,374.6 672.65,374.019 675.111,373.826 682.502,373.245 684.96,373.052 
					692.353,372.471 694.811,372.278 702.202,371.697 704.662,371.504 712.053,370.923 714.511,370.73 721.902,370.149 
					724.363,369.956 731.753,369.375 734.211,369.182 741.602,368.601 744.063,368.408 751.453,367.827 753.912,367.634 
					761.304,367.053 763.763,366.86 771.153,366.279 773.614,366.086 781.004,365.505 783.463,365.312 790.853,364.731 
					793.314,364.537 800.704,363.957 803.163,363.763 810.553,363.183 813.014,362.989 820.404,362.409 822.863,362.215 
					830.256,361.634 832.714,361.441 840.104,360.861 842.566,360.667 849.956,360.086 852.414,359.893 859.805,359.312 
					862.266,359.119 869.656,358.538 872.114,358.345 879.505,357.764 881.966,357.571 889.356,356.99 891.815,356.797 
					899.207,356.216 901.666,356.023 909.056,355.442 911.517,355.249 918.907,354.668 921.366,354.475 928.756,353.894 
					931.217,353.701 941.066,352.927 940.969,351.695 931.12,352.469 				"/>
				<polygon style="fill:#A5A7A9;" points="932.919,406.866 925.529,407.447 923.07,407.64 915.68,408.221 913.219,408.414 
					905.828,408.995 903.37,409.188 895.977,409.769 893.518,409.962 886.128,410.543 883.667,410.736 876.277,411.317 
					873.818,411.51 866.428,412.091 863.967,412.284 856.577,412.865 854.118,413.058 846.728,413.639 844.267,413.832 
					836.877,414.413 834.418,414.606 827.026,415.187 824.567,415.38 817.177,415.961 814.716,416.155 807.326,416.735 
					804.867,416.928 797.477,417.509 795.016,417.703 787.625,418.283 785.167,418.477 777.777,419.057 775.316,419.251 
					767.925,419.831 765.467,420.025 758.074,420.605 755.616,420.799 748.225,421.379 745.764,421.573 738.374,422.154 
					735.916,422.347 728.525,422.927 726.064,423.121 718.674,423.702 716.215,423.895 708.825,424.476 706.364,424.669 
					698.974,425.25 696.515,425.443 689.122,426.024 686.664,426.217 679.274,426.798 676.813,426.991 669.423,427.572 
					666.964,427.765 659.574,428.346 657.113,428.539 649.723,429.12 647.264,429.313 639.874,429.894 637.412,430.087 
					630.023,430.668 627.564,430.861 620.171,431.442 617.713,431.635 610.322,432.216 607.861,432.409 600.471,432.99 
					598.013,433.183 590.622,433.764 588.161,433.958 580.771,434.538 578.313,434.732 570.922,435.312 568.461,435.506 
					561.071,436.086 558.612,436.28 551.22,436.861 548.761,437.054 541.371,437.634 538.91,437.828 531.519,438.409 
					529.061,438.602 521.671,439.183 519.21,439.376 511.819,439.957 509.361,440.15 501.968,440.731 499.51,440.924 
					492.119,441.505 489.658,441.698 482.268,442.279 479.81,442.472 472.419,443.053 469.958,443.246 462.568,443.827 
					460.109,444.02 452.719,444.601 450.258,444.794 442.868,445.375 440.409,445.568 433.017,446.149 430.558,446.342 
					423.168,446.923 420.707,447.116 413.317,447.697 410.858,447.89 403.468,448.471 401.007,448.664 393.617,449.245 
					391.158,449.439 383.768,450.019 381.307,450.213 373.917,450.793 371.458,450.987 364.065,451.568 361.607,451.76 
					354.216,452.341 351.755,452.535 344.365,453.115 341.907,453.309 334.516,453.889 332.055,454.083 324.665,454.663 
					322.206,454.857 314.816,455.437 312.355,455.631 304.965,456.211 302.506,456.405 295.114,456.986 292.655,457.179 
					285.265,457.76 282.804,457.953 275.414,458.534 272.955,458.727 265.565,459.308 263.104,459.501 255.714,460.082 
					253.255,460.275 245.865,460.856 243.404,461.049 236.014,461.63 233.555,461.823 223.704,462.597 223.8,463.829 
					233.652,463.055 236.11,462.862 243.5,462.281 245.962,462.087 253.352,461.507 255.811,461.314 263.201,460.733 
					265.662,460.539 273.052,459.959 275.51,459.766 282.901,459.185 285.362,458.991 292.752,458.411 295.211,458.217 
					302.603,457.637 305.062,457.443 312.452,456.863 314.913,456.669 322.303,456.088 324.762,455.895 332.152,455.315 
					334.613,455.121 342.003,454.54 344.462,454.347 351.852,453.766 354.313,453.573 361.703,452.992 364.162,452.799 
					371.555,452.218 374.013,452.025 381.404,451.444 383.865,451.251 391.255,450.67 393.713,450.477 401.104,449.896 
					403.565,449.703 410.955,449.122 413.414,448.929 420.804,448.348 423.265,448.155 430.655,447.574 433.114,447.381 
					440.506,446.8 442.965,446.607 450.355,446.026 452.816,445.832 460.206,445.252 462.665,445.059 470.055,444.478 
					472.516,444.284 479.906,443.704 482.365,443.51 489.755,442.93 492.216,442.736 499.607,442.156 502.065,441.962 
					509.458,441.382 511.916,441.188 519.307,440.608 521.767,440.414 529.158,439.833 531.616,439.64 539.007,439.06 
					541.468,438.866 548.858,438.285 551.317,438.092 558.709,437.511 561.168,437.318 568.558,436.737 571.019,436.544 
					578.409,435.963 580.868,435.77 588.258,435.189 590.719,434.996 598.109,434.415 600.568,434.222 607.958,433.641 
					610.419,433.448 617.809,432.867 620.268,432.674 627.661,432.093 630.119,431.9 637.509,431.319 639.971,431.126 
					647.361,430.545 649.819,430.352 657.209,429.771 659.671,429.578 667.061,428.997 669.519,428.804 676.91,428.223 
					679.371,428.029 686.761,427.449 689.219,427.255 696.612,426.675 699.071,426.481 706.461,425.901 708.922,425.707 
					716.312,425.126 718.771,424.933 726.161,424.353 728.622,424.159 736.012,423.578 738.471,423.385 745.861,422.805 
					748.322,422.611 755.712,422.03 758.171,421.837 765.564,421.256 768.022,421.063 775.412,420.482 777.873,420.289 
					785.264,419.708 787.722,419.515 795.112,418.934 797.574,418.741 804.964,418.16 807.422,417.967 814.813,417.386 
					817.274,417.193 824.664,416.612 827.122,416.419 834.515,415.838 836.974,415.645 844.364,415.064 846.825,414.871 
					854.215,414.29 856.674,414.097 864.064,413.516 866.525,413.323 873.915,412.742 876.374,412.549 883.764,411.968 
					886.225,411.774 893.615,411.194 896.074,411 903.467,410.419 905.925,410.226 913.315,409.646 915.776,409.452 
					923.167,408.871 925.625,408.678 933.016,408.098 935.477,407.904 945.325,407.13 945.229,405.899 935.38,406.672 				"/>
				<polygon style="fill:#A5A7A9;" points="937.178,461.071 929.788,461.651 927.329,461.845 919.939,462.425 917.478,462.619 
					910.088,463.199 907.629,463.393 900.237,463.973 897.778,464.167 890.388,464.748 887.927,464.941 880.537,465.522 
					878.078,465.715 870.688,466.295 868.227,466.489 860.836,467.07 858.378,467.263 850.988,467.844 848.527,468.037 
					841.136,468.618 838.678,468.811 831.285,469.392 828.827,469.585 821.436,470.166 818.975,470.359 811.585,470.94 
					809.127,471.133 801.736,471.714 799.275,471.907 791.885,472.488 789.426,472.681 782.036,473.262 779.575,473.455 
					772.185,474.036 769.726,474.229 762.333,474.81 759.875,475.004 752.485,475.584 750.024,475.777 742.634,476.358 
					740.175,476.551 732.785,477.132 730.324,477.326 722.934,477.906 720.475,478.099 713.085,478.68 710.623,478.874 
					703.234,479.454 700.775,479.647 693.382,480.228 690.924,480.422 683.533,481.002 681.072,481.196 673.682,481.776 
					671.224,481.97 663.833,482.551 661.372,482.744 653.982,483.325 651.523,483.518 644.133,484.099 641.672,484.292 
					634.282,484.873 631.823,485.066 624.431,485.647 621.972,485.84 614.582,486.421 612.121,486.614 604.731,487.195 
					602.272,487.388 594.882,487.969 592.421,488.162 585.03,488.743 582.572,488.936 575.182,489.517 572.721,489.71 
					565.33,490.291 562.872,490.484 555.479,491.065 553.021,491.258 545.63,491.839 543.169,492.032 535.779,492.613 
					533.32,492.806 525.93,493.387 523.469,493.581 516.079,494.161 513.62,494.354 506.228,494.935 503.769,495.129 
					496.379,495.709 493.918,495.903 486.528,496.483 484.069,496.677 476.679,497.257 474.218,497.451 466.828,498.032 
					464.369,498.225 456.979,498.806 454.518,498.999 447.128,499.58 444.669,499.773 437.276,500.354 434.818,500.547 
					427.427,501.128 424.966,501.321 417.576,501.902 415.117,502.095 407.727,502.676 405.266,502.869 397.876,503.45 
					395.417,503.643 388.027,504.224 385.566,504.417 378.176,504.998 375.717,505.191 368.325,505.772 365.866,505.965 
					358.476,506.546 356.015,506.739 348.625,507.32 346.166,507.513 338.776,508.094 336.315,508.288 328.925,508.868 
					326.466,509.061 319.076,509.642 316.615,509.836 309.224,510.416 306.766,510.609 299.373,511.19 296.915,511.384 
					289.524,511.964 287.063,512.158 279.673,512.739 277.215,512.932 269.824,513.512 267.363,513.706 259.973,514.287 
					257.514,514.48 250.124,515.06 247.663,515.254 240.273,515.835 237.814,516.028 227.963,516.802 228.06,518.031 
					237.911,517.257 240.37,517.064 247.76,516.483 250.221,516.29 257.611,515.709 260.07,515.516 267.46,514.935 269.921,514.742 
					277.311,514.161 279.77,513.968 287.16,513.387 289.621,513.194 297.011,512.613 299.47,512.42 306.862,511.839 
					309.321,511.646 316.711,511.065 319.172,510.871 326.563,510.291 329.021,510.098 336.411,509.517 338.872,509.323 
					346.263,508.743 348.721,508.549 356.112,507.969 358.573,507.775 365.963,507.194 368.421,507.001 375.814,506.42 
					378.273,506.227 385.663,505.647 388.124,505.453 395.514,504.872 397.973,504.679 405.363,504.098 407.824,503.905 
					415.214,503.324 417.673,503.131 425.063,502.55 427.524,502.357 434.914,501.776 437.373,501.583 444.765,501.002 
					447.224,500.809 454.614,500.228 457.075,500.035 464.466,499.454 466.924,499.261 474.315,498.68 476.775,498.487 
					484.166,497.906 486.624,497.713 494.015,497.132 496.475,496.939 503.866,496.358 506.324,496.165 513.717,495.584 
					516.175,495.391 523.566,494.81 526.027,494.616 533.417,494.036 535.876,493.842 543.266,493.262 545.727,493.068 
					553.117,492.488 555.576,492.294 562.969,491.713 565.427,491.521 572.817,490.94 575.278,490.746 582.669,490.166 
					585.127,489.972 592.517,489.391 594.978,489.198 602.369,488.617 604.827,488.424 612.217,487.844 614.679,487.65 
					622.069,487.069 624.527,486.876 631.92,486.295 634.379,486.102 641.769,485.521 644.23,485.328 651.62,484.747 
					654.078,484.554 661.469,483.973 663.93,483.78 671.32,483.199 673.779,483.006 681.169,482.425 683.63,482.232 691.02,481.651 
					693.479,481.458 700.871,480.877 703.33,480.684 710.72,480.103 713.181,479.91 720.571,479.329 723.03,479.135 730.42,478.555 
					732.881,478.362 740.272,477.781 742.73,477.588 750.12,477.007 752.581,476.814 759.972,476.233 762.43,476.04 
					769.823,475.459 772.282,475.265 779.672,474.685 782.133,474.491 789.523,473.911 791.982,473.717 799.372,473.137 
					801.833,472.943 809.223,472.362 811.682,472.169 819.072,471.589 821.533,471.395 828.923,470.814 831.382,470.621 
					838.774,470.04 841.233,469.847 848.623,469.266 851.084,469.073 858.474,468.492 860.933,468.299 868.323,467.718 
					870.784,467.525 878.175,466.944 880.633,466.751 888.023,466.17 890.484,465.977 897.875,465.396 900.333,465.203 
					907.726,464.622 910.185,464.429 917.575,463.848 920.036,463.655 927.426,463.074 929.885,462.881 937.275,462.3 
					939.736,462.107 949.585,461.333 949.488,460.103 939.639,460.877 				"/>
				<polygon style="fill:#A5A7A9;" points="941.438,515.275 934.047,515.856 931.589,516.049 924.199,516.63 921.738,516.823 
					914.347,517.404 911.889,517.597 904.496,518.178 902.038,518.371 894.647,518.952 892.186,519.146 884.796,519.726 
					882.338,519.919 874.947,520.5 872.486,520.694 865.096,521.274 862.637,521.468 855.247,522.048 852.786,522.242 
					845.396,522.822 842.937,523.016 835.544,523.597 833.086,523.79 825.696,524.37 823.235,524.564 815.845,525.145 
					813.386,525.338 805.996,525.919 803.535,526.112 796.145,526.693 793.686,526.886 786.296,527.467 783.835,527.66 
					776.445,528.241 773.986,528.434 766.593,529.015 764.135,529.208 756.744,529.789 754.283,529.982 746.893,530.563 
					744.435,530.756 737.044,531.337 734.583,531.53 727.193,532.111 724.734,532.304 717.344,532.885 714.883,533.078 
					707.493,533.659 705.034,533.852 697.642,534.433 695.183,534.626 687.793,535.207 685.332,535.401 677.942,535.981 
					675.483,536.174 668.093,536.755 665.632,536.949 658.241,537.529 655.783,537.723 648.393,538.303 645.932,538.497 
					638.541,539.078 636.083,539.271 628.69,539.852 626.232,540.045 618.841,540.625 616.38,540.819 608.99,541.4 606.531,541.593 
					599.141,542.174 596.68,542.367 589.29,542.948 586.831,543.141 579.441,543.722 576.98,543.915 569.59,544.496 
					567.131,544.689 559.739,545.27 557.28,545.463 549.89,546.044 547.429,546.237 540.039,546.818 537.58,547.011 530.19,547.592 
					527.729,547.785 520.338,548.366 517.88,548.559 510.487,549.14 508.029,549.333 500.638,549.914 498.177,550.107 
					490.787,550.688 488.328,550.881 480.938,551.462 478.477,551.656 471.087,552.236 468.628,552.43 461.238,553.01 
					458.777,553.204 451.387,553.784 448.928,553.978 441.536,554.559 439.077,554.752 431.687,555.333 429.226,555.526 
					421.836,556.107 419.377,556.3 411.987,556.881 409.526,557.074 402.136,557.654 399.677,557.848 392.287,558.429 
					389.826,558.622 382.435,559.203 379.977,559.396 372.584,559.977 370.126,560.17 362.735,560.751 360.274,560.944 
					352.884,561.525 350.426,561.718 343.035,562.299 340.574,562.492 333.184,563.073 330.725,563.266 323.335,563.847 
					320.874,564.04 313.484,564.621 311.025,564.814 303.633,565.395 301.174,565.588 293.784,566.169 291.323,566.363 
					283.933,566.943 281.474,567.136 274.084,567.717 271.623,567.91 264.233,568.491 261.774,568.685 254.384,569.265 
					251.923,569.458 244.533,570.039 242.074,570.232 232.223,571.007 232.319,572.236 242.171,571.462 244.629,571.268 
					252.019,570.688 254.48,570.495 261.871,569.914 264.329,569.721 271.719,569.14 274.181,568.946 281.571,568.366 
					284.029,568.173 291.419,567.592 293.881,567.398 301.271,566.818 303.729,566.625 311.122,566.044 313.581,565.85 
					320.971,565.27 323.432,565.076 330.822,564.495 333.281,564.302 340.671,563.721 343.132,563.528 350.522,562.947 
					352.981,562.754 360.371,562.174 362.832,561.98 370.222,561.399 372.681,561.206 380.073,560.625 382.532,560.432 
					389.922,559.851 392.383,559.658 399.774,559.077 402.232,558.884 409.622,558.303 412.083,558.11 419.474,557.529 
					421.932,557.336 429.323,556.755 431.784,556.562 439.174,555.981 441.632,555.788 449.025,555.207 451.484,555.014 
					458.874,554.433 461.335,554.24 468.725,553.659 471.184,553.466 478.574,552.885 481.035,552.692 488.425,552.111 
					490.884,551.917 498.274,551.337 500.735,551.143 508.125,550.563 510.584,550.37 517.976,549.789 520.435,549.595 
					527.825,549.015 530.286,548.821 537.677,548.24 540.135,548.047 547.526,547.466 549.986,547.273 557.377,546.692 
					559.835,546.499 567.228,545.918 569.686,545.725 577.077,545.144 579.538,544.951 586.928,544.37 589.386,544.177 
					596.777,543.596 599.238,543.403 606.628,542.822 609.087,542.629 616.477,542.048 618.938,541.855 626.328,541.274 
					628.787,541.081 636.18,540.5 638.638,540.307 646.028,539.726 648.489,539.533 655.88,538.952 658.338,538.759 
					665.728,538.178 668.189,537.984 675.58,537.404 678.038,537.211 685.428,536.63 687.89,536.436 695.28,535.856 
					697.738,535.662 705.131,535.082 707.59,534.888 714.98,534.308 717.441,534.114 724.831,533.534 727.289,533.34 734.68,532.76 
					737.141,532.566 744.531,531.985 746.99,531.792 754.38,531.211 756.841,531.018 764.231,530.437 766.69,530.244 
					774.082,529.663 776.541,529.47 783.931,528.889 786.392,528.696 793.782,528.115 796.241,527.922 803.631,527.341 
					806.092,527.148 813.483,526.567 815.941,526.374 823.331,525.793 825.792,525.6 833.183,525.019 835.641,524.826 
					843.034,524.245 845.493,524.052 852.883,523.471 855.344,523.278 862.734,522.697 865.193,522.504 872.583,521.923 
					875.044,521.729 882.434,521.149 884.893,520.956 892.283,520.375 894.744,520.181 902.134,519.601 904.593,519.407 
					911.985,518.827 914.444,518.633 921.834,518.053 924.295,517.859 931.685,517.279 934.144,517.085 941.534,516.505 
					943.995,516.311 953.844,515.537 953.748,514.308 943.899,515.082 				"/>
				<polygon style="fill:#A5A7A9;" points="945.697,569.477 938.307,570.058 935.848,570.251 928.458,570.832 925.997,571.026 
					918.607,571.607 916.148,571.799 908.755,572.38 906.297,572.574 898.907,573.154 896.446,573.348 889.055,573.929 
					886.597,574.122 879.206,574.702 876.746,574.896 869.355,575.477 866.897,575.67 859.506,576.25 857.045,576.444 
					849.655,577.025 847.197,577.218 839.804,577.799 837.345,577.992 829.955,578.573 827.494,578.766 820.104,579.347 
					817.645,579.54 810.255,580.121 807.794,580.314 800.404,580.895 797.945,581.088 790.555,581.669 788.094,581.862 
					780.704,582.443 778.245,582.636 770.853,583.217 768.394,583.41 761.004,583.991 758.542,584.184 751.153,584.765 
					748.694,584.958 741.304,585.539 738.842,585.732 731.452,586.313 728.994,586.506 721.603,587.087 719.143,587.281 
					711.752,587.861 709.294,588.055 701.901,588.635 699.443,588.829 692.052,589.409 689.591,589.603 682.201,590.184 
					679.742,590.377 672.352,590.958 669.891,591.151 662.501,591.732 660.042,591.925 652.652,592.506 650.191,592.699 
					642.801,593.28 640.342,593.473 632.949,594.054 630.491,594.247 623.101,594.828 620.64,595.021 613.249,595.602 
					610.791,595.795 603.401,596.376 600.94,596.569 593.549,597.15 591.091,597.343 583.701,597.924 581.239,598.117 
					573.849,598.698 571.391,598.891 563.998,599.472 561.539,599.665 554.149,600.246 551.688,600.44 544.298,601.02 
					541.839,601.213 534.449,601.794 531.988,601.988 524.598,602.568 522.139,602.761 514.747,603.342 512.288,603.536 
					504.898,604.116 502.437,604.31 495.047,604.891 492.588,605.084 485.198,605.664 482.737,605.858 475.346,606.439 
					472.888,606.632 465.498,607.213 463.036,607.406 455.646,607.987 453.188,608.18 445.795,608.761 443.336,608.954 
					435.946,609.535 433.485,609.728 426.095,610.309 423.636,610.502 416.246,611.083 413.785,611.276 406.395,611.857 
					403.936,612.05 396.546,612.631 394.085,612.824 386.695,613.405 384.236,613.598 376.844,614.179 374.385,614.372 
					366.995,614.953 364.534,615.146 357.143,615.727 354.685,615.92 347.295,616.501 344.834,616.695 337.443,617.275 
					334.985,617.468 327.595,618.049 325.134,618.243 317.743,618.823 315.285,619.016 307.892,619.597 305.434,619.791 
					298.043,620.371 295.582,620.565 288.192,621.146 285.733,621.339 278.343,621.919 275.882,622.113 268.492,622.694 
					266.033,622.887 258.643,623.468 256.182,623.661 248.792,624.242 246.333,624.435 236.482,625.209 236.579,626.438 
					246.43,625.664 248.889,625.471 256.279,624.89 258.74,624.697 266.13,624.116 268.589,623.923 275.979,623.342 278.44,623.149 
					285.83,622.568 288.289,622.375 295.679,621.794 298.14,621.601 305.53,621.02 307.989,620.827 315.381,620.246 317.84,620.053 
					325.23,619.472 327.691,619.278 335.081,618.698 337.54,618.505 344.93,617.924 347.391,617.73 354.781,617.15 357.24,616.956 
					364.63,616.376 367.091,616.182 374.482,615.602 376.94,615.408 384.333,614.827 386.791,614.634 394.182,614.054 
					396.643,613.86 404.033,613.279 406.491,613.086 413.882,612.505 416.343,612.312 423.733,611.731 426.192,611.538 
					433.582,610.957 436.043,610.764 443.433,610.183 445.892,609.99 453.284,609.409 455.743,609.216 463.133,608.635 
					465.594,608.442 472.984,607.861 475.443,607.668 482.833,607.087 485.294,606.894 492.684,606.313 495.143,606.12 
					502.533,605.539 504.994,605.346 512.385,604.765 514.843,604.572 522.236,603.991 524.694,603.798 532.085,603.217 
					534.546,603.023 541.936,602.443 544.394,602.25 551.785,601.669 554.246,601.475 561.636,600.895 564.094,600.701 
					571.487,600.12 573.946,599.927 581.336,599.346 583.797,599.153 591.187,598.572 593.646,598.379 601.036,597.799 
					603.497,597.605 610.887,597.024 613.346,596.831 620.736,596.25 623.197,596.057 630.587,595.477 633.046,595.283 
					640.439,594.702 642.897,594.509 650.287,593.928 652.749,593.735 660.139,593.154 662.597,592.961 669.988,592.38 
					672.449,592.187 679.839,591.606 682.297,591.413 689.688,590.832 692.149,590.639 699.539,590.058 701.997,589.865 
					709.39,589.284 711.849,589.091 719.239,588.51 721.7,588.317 729.09,587.736 731.549,587.542 738.939,586.962 741.4,586.768 
					748.79,586.188 751.249,585.995 758.639,585.414 761.1,585.221 768.49,584.64 770.949,584.446 778.342,583.866 780.8,583.672 
					788.191,583.091 790.651,582.898 798.042,582.318 800.5,582.124 807.891,581.544 810.352,581.35 817.742,580.769 
					820.201,580.576 827.591,579.996 830.052,579.802 837.442,579.221 839.901,579.028 847.293,578.447 849.752,578.254 
					857.142,577.673 859.603,577.48 866.993,576.899 869.452,576.706 876.842,576.125 879.303,575.932 886.693,575.351 
					889.152,575.158 896.542,574.577 899.003,574.384 906.393,573.803 908.852,573.61 916.245,573.029 918.703,572.836 
					926.094,572.255 928.555,572.062 935.945,571.481 938.403,571.288 945.794,570.707 948.255,570.514 958.104,569.74 
					958.007,568.51 948.158,569.284 				"/>
				<polygon style="fill:#A5A7A9;" points="949.957,623.682 942.566,624.263 940.108,624.456 932.717,625.037 930.256,625.23 
					922.866,625.811 920.407,626.004 913.015,626.585 910.556,626.778 903.166,627.359 900.705,627.553 893.315,628.133 
					890.856,628.326 883.466,628.907 881.005,629.101 873.615,629.681 871.156,629.875 863.766,630.455 861.305,630.649 
					853.915,631.229 851.456,631.423 844.064,632.004 841.605,632.197 834.215,632.778 831.753,632.971 824.364,633.552 
					821.905,633.745 814.515,634.326 812.053,634.519 804.663,635.1 802.205,635.293 794.814,635.874 792.354,636.067 
					784.963,636.648 782.505,636.841 775.112,637.422 772.653,637.615 765.263,638.196 762.802,638.389 755.412,638.97 
					752.953,639.163 745.563,639.744 743.102,639.937 735.712,640.518 733.253,640.711 725.863,641.292 723.402,641.485 
					716.012,642.066 713.553,642.259 706.16,642.84 703.702,643.033 696.312,643.614 693.851,643.808 686.46,644.388 
					684.002,644.581 676.612,645.162 674.151,645.356 666.76,645.936 664.302,646.13 656.911,646.71 654.45,646.904 647.06,647.484 
					644.602,647.678 637.209,648.259 634.75,648.452 627.36,649.033 624.899,649.226 617.509,649.807 615.05,650 607.66,650.581 
					605.199,650.774 597.809,651.355 595.35,651.548 587.96,652.129 585.499,652.322 578.109,652.903 575.65,653.096 
					568.257,653.677 565.799,653.87 558.409,654.451 555.948,654.644 548.557,655.225 546.099,655.418 538.709,655.999 
					536.247,656.192 528.857,656.773 526.399,656.966 519.006,657.547 516.547,657.74 509.157,658.321 506.696,658.515 
					499.306,659.095 496.847,659.289 489.457,659.869 486.996,660.063 479.606,660.643 477.147,660.837 469.757,661.417 
					467.296,661.61 459.906,662.191 457.447,662.385 450.055,662.965 447.596,663.159 440.206,663.74 437.745,663.933 
					430.354,664.513 427.896,664.707 420.506,665.287 418.045,665.481 410.654,666.062 408.196,666.255 400.806,666.835 
					398.345,667.029 390.954,667.61 388.496,667.803 381.103,668.384 378.645,668.577 371.254,669.158 368.793,669.351 
					361.403,669.932 358.944,670.125 351.554,670.706 349.093,670.899 341.703,671.48 339.244,671.673 331.854,672.254 
					329.393,672.447 322.003,673.028 319.544,673.221 312.152,673.802 309.693,673.995 302.303,674.576 299.842,674.769 
					292.452,675.35 289.993,675.543 282.603,676.124 280.142,676.317 272.751,676.898 270.293,677.091 262.902,677.672 
					260.442,677.865 253.051,678.446 250.593,678.639 240.742,679.414 240.838,680.643 250.689,679.869 253.148,679.675 
					260.538,679.095 262.999,678.902 270.389,678.321 272.848,678.127 280.238,677.547 282.699,677.354 290.09,676.773 
					292.548,676.58 299.938,675.999 302.399,675.805 309.79,675.224 312.248,675.031 319.641,674.451 322.099,674.257 
					329.49,673.677 331.951,673.483 339.341,672.903 341.8,672.709 349.19,672.129 351.651,671.935 359.041,671.354 361.5,671.161 
					368.89,670.581 371.351,670.387 378.741,669.806 381.2,669.613 388.592,669.032 391.051,668.839 398.441,668.258 
					400.902,668.065 408.292,667.484 410.751,667.291 418.141,666.71 420.602,666.517 427.992,665.936 430.451,665.743 
					437.841,665.162 440.302,664.969 447.693,664.388 450.151,664.195 457.544,663.614 460.002,663.421 467.393,662.84 
					469.854,662.647 477.244,662.066 479.703,661.873 487.093,661.292 489.554,661.099 496.944,660.518 499.403,660.325 
					506.793,659.744 509.254,659.55 516.644,658.97 519.103,658.776 526.495,658.195 528.954,658.002 536.344,657.422 
					538.805,657.228 546.195,656.648 548.654,656.454 556.044,655.873 558.505,655.68 565.895,655.099 568.354,654.906 
					575.747,654.325 578.205,654.132 585.596,653.551 588.057,653.358 595.447,652.777 597.905,652.584 605.296,652.003 
					607.757,651.81 615.147,651.229 617.605,651.036 624.996,650.455 627.457,650.262 634.847,649.681 637.305,649.488 
					644.698,648.907 647.157,648.714 654.547,648.133 657.008,647.94 664.398,647.359 666.857,647.166 674.247,646.585 
					676.708,646.391 684.099,645.811 686.557,645.618 693.947,645.037 696.408,644.844 703.798,644.263 706.257,644.07 
					713.65,643.489 716.108,643.295 723.498,642.715 725.96,642.521 733.35,641.94 735.808,641.747 743.199,641.167 745.66,640.973 
					753.05,640.392 755.508,640.199 762.899,639.619 765.36,639.425 772.75,638.844 775.208,638.651 782.601,638.07 785.06,637.877 
					792.45,637.296 794.911,637.103 802.301,636.522 804.76,636.329 812.15,635.748 814.611,635.555 822.001,634.974 
					824.46,634.781 831.85,634.2 834.311,634.007 841.701,633.426 844.16,633.233 851.553,632.652 854.011,632.459 861.402,631.878 
					863.862,631.685 871.253,631.104 873.711,630.911 881.102,630.33 883.563,630.136 890.953,629.556 893.412,629.363 
					900.802,628.782 903.263,628.588 910.653,628.008 913.112,627.815 920.504,627.234 922.963,627.04 930.353,626.46 
					932.814,626.266 940.204,625.685 942.663,625.492 950.053,624.912 952.514,624.718 962.363,623.944 962.266,622.715 
					952.417,623.489 				"/>
				<polygon style="fill:#A5A7A9;" points="954.216,677.885 946.826,678.465 944.367,678.658 936.977,679.239 934.516,679.433 
					927.125,680.013 924.667,680.206 917.274,680.787 914.816,680.981 907.425,681.561 904.964,681.755 897.574,682.336 
					895.116,682.529 887.725,683.109 885.264,683.303 877.874,683.884 875.416,684.077 868.025,684.658 865.564,684.851 
					858.174,685.432 855.715,685.625 848.323,686.206 845.864,686.399 838.474,686.98 836.013,687.173 828.623,687.754 
					826.164,687.947 818.774,688.528 816.313,688.721 808.923,689.302 806.464,689.495 799.074,690.076 796.613,690.269 
					789.222,690.85 786.764,691.043 779.371,691.624 776.913,691.817 769.522,692.398 767.061,692.591 759.671,693.172 
					757.213,693.365 749.822,693.946 747.361,694.14 739.971,694.72 737.513,694.914 730.122,695.494 727.661,695.688 
					720.271,696.268 717.812,696.462 710.42,697.042 707.961,697.236 700.571,697.816 698.11,698.01 690.72,698.591 
					688.261,698.784 680.871,699.365 678.41,699.558 671.02,700.139 668.561,700.332 661.171,700.913 658.71,701.106 
					651.32,701.687 648.861,701.88 641.468,702.461 639.01,702.654 631.62,703.235 629.158,703.428 621.768,704.009 619.31,704.202 
					611.919,704.783 609.458,704.976 602.068,705.557 599.61,705.75 592.219,706.331 589.758,706.524 582.368,707.105 
					579.909,707.298 572.517,707.879 570.058,708.072 562.668,708.653 560.207,708.846 552.817,709.427 550.358,709.62 
					542.968,710.201 540.507,710.395 533.117,710.975 530.658,711.169 523.265,711.749 520.807,711.943 513.416,712.523 
					510.956,712.717 503.565,713.297 501.107,713.491 493.716,714.071 491.255,714.265 483.865,714.846 481.406,715.039 
					474.017,715.62 471.555,715.813 464.165,716.394 461.706,716.587 454.314,717.168 451.855,717.361 444.465,717.942 
					442.004,718.135 434.614,718.716 432.155,718.909 424.765,719.49 422.304,719.683 414.914,720.264 412.455,720.457 
					405.065,721.038 402.604,721.231 395.214,721.812 392.755,722.005 385.362,722.586 382.904,722.779 375.513,723.36 
					373.053,723.553 365.662,724.134 363.204,724.327 355.813,724.908 353.353,725.102 345.962,725.682 343.504,725.875 
					336.113,726.456 333.652,726.65 326.262,727.23 323.803,727.424 316.411,728.005 313.952,728.198 306.562,728.778 
					304.101,728.972 296.711,729.552 294.252,729.746 286.862,730.326 284.401,730.52 277.011,731.101 274.552,731.294 
					267.162,731.875 264.701,732.068 257.311,732.649 254.852,732.842 245.001,733.616 245.097,734.845 254.949,734.071 
					257.407,733.878 264.797,733.297 267.258,733.104 274.649,732.523 277.107,732.33 284.498,731.749 286.958,731.556 
					294.349,730.975 296.807,730.782 304.198,730.201 306.659,730.008 314.049,729.427 316.508,729.234 323.9,728.653 
					326.359,728.46 333.749,727.879 336.21,727.685 343.6,727.105 346.059,726.911 353.449,726.331 355.91,726.137 363.3,725.557 
					365.759,725.363 373.149,724.783 375.61,724.589 383,724.009 385.459,723.815 392.852,723.234 395.31,723.041 402.701,722.461 
					405.161,722.267 412.552,721.686 415.01,721.493 422.401,720.912 424.862,720.719 432.252,720.138 434.71,719.945 
					442.101,719.364 444.562,719.171 451.952,718.59 454.41,718.397 461.803,717.816 464.262,717.623 471.652,717.042 
					474.113,716.849 481.503,716.268 483.962,716.075 491.352,715.494 493.813,715.301 501.203,714.72 503.662,714.527 
					511.052,713.946 513.513,713.753 520.903,713.172 523.362,712.979 530.755,712.398 533.213,712.205 540.603,711.624 
					543.065,711.43 550.455,710.85 552.913,710.656 560.304,710.076 562.765,709.882 570.155,709.302 572.613,709.108 
					580.006,708.528 582.464,708.334 589.855,707.754 592.316,707.56 599.706,706.979 602.165,706.786 609.555,706.206 
					612.016,706.012 619.406,705.431 621.865,705.238 629.255,704.657 631.716,704.464 639.106,703.883 641.565,703.69 
					648.958,703.109 651.416,702.916 658.806,702.335 661.267,702.142 668.658,701.561 671.116,701.368 678.506,700.787 
					680.968,700.594 688.358,700.013 690.816,699.82 698.206,699.239 700.668,699.046 708.058,698.465 710.516,698.272 
					717.909,697.691 720.368,697.498 727.758,696.917 730.219,696.724 737.609,696.143 740.068,695.95 747.458,695.369 
					749.919,695.175 757.309,694.595 759.768,694.401 767.158,693.821 769.619,693.627 777.009,693.047 779.468,692.853 
					786.86,692.273 789.319,692.08 796.709,691.498 799.17,691.305 806.561,690.724 809.019,690.531 816.409,689.951 
					818.87,689.757 826.261,689.177 828.719,688.983 836.109,688.402 838.57,688.209 845.961,687.628 848.419,687.435 
					855.812,686.854 858.271,686.661 865.661,686.08 868.122,685.887 875.512,685.306 877.971,685.113 885.361,684.532 
					887.822,684.339 895.212,683.758 897.671,683.565 905.061,682.984 907.522,682.791 914.912,682.21 917.371,682.017 
					924.763,681.436 927.222,681.243 934.612,680.662 937.073,680.469 944.464,679.888 946.922,679.695 954.313,679.114 
					956.773,678.921 966.622,678.146 966.526,676.917 956.677,677.691 				"/>
				<polygon style="fill:#A5A7A9;" points="958.475,732.089 951.085,732.67 948.626,732.863 941.236,733.444 938.775,733.637 
					931.385,734.218 928.926,734.411 921.534,734.992 919.075,735.185 911.685,735.766 909.224,735.96 901.834,736.54 
					899.375,736.734 891.985,737.314 889.524,737.508 882.134,738.088 879.675,738.282 872.285,738.862 869.824,739.056 
					862.433,739.636 859.975,739.83 852.582,740.411 850.124,740.604 842.733,741.185 840.272,741.378 832.882,741.959 
					830.424,742.152 823.033,742.733 820.572,742.926 813.182,743.507 810.724,743.7 803.333,744.281 800.872,744.474 
					793.482,745.055 791.023,745.248 783.631,745.829 781.172,746.022 773.782,746.603 771.321,746.796 763.931,747.377 
					761.472,747.57 754.082,748.151 751.621,748.344 744.231,748.925 741.772,749.118 734.382,749.699 731.921,749.892 
					724.531,750.473 722.072,750.666 714.679,751.247 712.221,751.44 704.831,752.021 702.369,752.215 694.979,752.795 
					692.521,752.989 685.13,753.569 682.669,753.763 675.279,754.343 672.821,754.537 665.43,755.117 662.969,755.311 
					655.579,755.891 653.12,756.085 645.728,756.665 643.269,756.859 635.879,757.44 633.418,757.633 626.028,758.214 
					623.569,758.407 616.179,758.987 613.718,759.181 606.328,759.762 603.869,759.955 596.479,760.536 594.018,760.729 
					586.627,761.31 584.169,761.503 576.776,762.084 574.318,762.277 566.928,762.858 564.466,763.051 557.076,763.632 
					554.617,763.825 547.227,764.406 544.766,764.599 537.376,765.18 534.917,765.373 527.525,765.954 525.066,766.147 
					517.676,766.728 515.215,766.921 507.825,767.502 505.366,767.695 497.976,768.276 495.515,768.469 488.125,769.05 
					485.666,769.243 478.276,769.824 475.815,770.018 468.425,770.598 465.966,770.791 458.573,771.372 456.115,771.566 
					448.724,772.146 446.264,772.34 438.873,772.92 436.415,773.114 429.024,773.694 426.564,773.888 419.173,774.469 
					416.715,774.662 409.324,775.242 406.863,775.436 399.473,776.017 397.014,776.21 389.622,776.791 387.163,776.984 
					379.773,777.565 377.312,777.758 369.922,778.339 367.463,778.532 360.073,779.113 357.612,779.306 350.222,779.887 
					347.763,780.08 340.373,780.661 337.912,780.854 330.522,781.435 328.063,781.628 320.671,782.209 318.212,782.402 
					310.822,782.983 308.36,783.176 300.97,783.757 298.512,783.95 291.121,784.531 288.661,784.724 281.27,785.305 
					278.812,785.498 271.421,786.079 268.961,786.273 261.57,786.853 259.112,787.046 249.26,787.821 249.357,789.05 
					259.208,788.276 261.667,788.083 269.057,787.502 271.518,787.308 278.908,786.728 281.367,786.534 288.757,785.954 
					291.218,785.76 298.608,785.18 301.067,784.986 308.457,784.406 310.918,784.212 318.308,783.631 320.767,783.438 
					328.16,782.858 330.618,782.664 338.009,782.083 340.469,781.89 347.86,781.31 350.318,781.116 357.709,780.536 
					360.169,780.342 367.56,779.761 370.018,779.568 377.409,778.987 379.87,778.794 387.26,778.213 389.719,778.02 
					397.111,777.439 399.57,777.246 406.96,776.665 409.421,776.472 416.811,775.891 419.27,775.698 426.66,775.117 
					429.121,774.924 436.511,774.343 438.97,774.15 446.36,773.569 448.821,773.376 456.211,772.795 458.67,772.602 
					466.063,772.021 468.521,771.828 475.911,771.247 478.372,771.054 485.763,770.473 488.221,770.28 495.612,769.699 
					498.073,769.505 505.463,768.925 507.921,768.732 515.312,768.151 517.773,767.957 525.163,767.377 527.622,767.183 
					535.014,766.603 537.473,766.409 544.863,765.829 547.324,765.635 554.714,765.055 557.173,764.861 564.563,764.281 
					567.024,764.087 574.414,763.506 576.873,763.313 584.266,762.732 586.724,762.539 594.114,761.958 596.575,761.765 
					603.966,761.184 606.424,760.991 613.814,760.41 616.276,760.217 623.666,759.636 626.124,759.443 633.515,758.862 
					635.976,758.669 643.366,758.088 645.824,757.895 653.217,757.314 655.675,757.121 663.066,756.54 665.527,756.347 
					672.917,755.766 675.376,755.573 682.766,754.992 685.227,754.799 692.617,754.218 695.076,754.025 702.466,753.444 
					704.927,753.25 712.317,752.67 714.776,752.477 722.169,751.896 724.627,751.702 732.017,751.122 734.478,750.928 
					741.869,750.347 744.327,750.154 751.717,749.574 754.179,749.38 761.569,748.799 764.027,748.606 771.417,748.026 
					773.879,747.832 781.269,747.251 783.727,747.058 791.12,746.477 793.579,746.284 800.969,745.703 803.43,745.51 
					810.82,744.929 813.279,744.736 820.669,744.155 823.13,743.962 830.52,743.381 832.979,743.188 840.369,742.607 
					842.83,742.414 850.22,741.833 852.679,741.64 860.071,741.059 862.53,740.866 869.92,740.285 872.381,740.092 879.772,739.511 
					882.23,739.318 889.62,738.737 892.081,738.544 899.472,737.963 901.93,737.77 909.32,737.189 911.781,736.995 919.172,736.415 
					921.63,736.221 929.023,735.641 931.482,735.447 938.872,734.867 941.333,734.673 948.723,734.093 951.182,733.899 
					958.572,733.319 961.033,733.125 970.882,732.351 970.785,731.122 960.936,731.896 				"/>
				<polygon style="fill:#A5A7A9;" points="962.735,786.292 955.344,786.872 952.886,787.065 945.495,787.646 943.035,787.84 
					935.644,788.42 933.186,788.614 925.793,789.195 923.334,789.388 915.944,789.968 913.483,790.162 906.093,790.743 
					903.634,790.936 896.244,791.516 893.783,791.71 886.393,792.291 883.934,792.484 876.544,793.065 874.083,793.258 
					866.693,793.839 864.234,794.032 856.842,794.613 854.383,794.806 846.993,795.387 844.532,795.58 837.141,796.161 
					834.683,796.354 827.293,796.935 824.832,797.128 817.441,797.709 814.983,797.902 807.593,798.483 805.132,798.676 
					797.741,799.257 795.283,799.45 787.89,800.031 785.432,800.224 778.041,800.805 775.58,800.998 768.19,801.579 
					765.731,801.772 758.341,802.353 755.88,802.547 748.49,803.127 746.031,803.32 738.641,803.901 736.18,804.095 728.79,804.675 
					726.331,804.869 718.938,805.45 716.48,805.643 709.09,806.223 706.629,806.417 699.239,806.998 696.78,807.191 689.39,807.771 
					686.929,807.965 679.539,808.546 677.08,808.739 669.69,809.32 667.228,809.513 659.838,810.094 657.38,810.287 
					649.987,810.868 647.529,811.061 640.138,811.642 637.677,811.835 630.287,812.416 627.828,812.609 620.438,813.19 
					617.977,813.383 610.587,813.964 608.128,814.157 600.738,814.738 598.277,814.931 590.887,815.512 588.428,815.705 
					581.036,816.286 578.577,816.479 571.187,817.06 568.726,817.253 561.335,817.834 558.877,818.027 551.487,818.608 
					549.026,818.802 541.635,819.382 539.177,819.576 531.784,820.156 529.326,820.35 521.935,820.93 519.474,821.124 
					512.084,821.705 509.625,821.898 502.235,822.479 499.774,822.672 492.384,823.253 489.925,823.446 482.535,824.026 
					480.074,824.22 472.684,824.801 470.225,824.994 462.833,825.575 460.374,825.768 452.984,826.349 450.523,826.542 
					443.133,827.123 440.674,827.316 433.284,827.897 430.823,828.09 423.432,828.671 420.974,828.864 413.583,829.445 
					411.123,829.638 403.732,830.219 401.274,830.412 393.881,830.993 391.423,831.186 384.032,831.767 381.571,831.961 
					374.181,832.541 371.723,832.734 364.332,833.315 361.871,833.508 354.481,834.089 352.022,834.282 344.632,834.863 
					342.171,835.057 334.781,835.637 332.322,835.831 324.93,836.411 322.471,836.605 315.081,837.185 312.62,837.379 
					305.23,837.96 302.771,838.153 295.381,838.734 292.92,838.927 285.53,839.508 283.071,839.701 275.681,840.282 273.22,840.475 
					265.829,841.055 263.371,841.249 253.52,842.023 253.616,843.252 263.467,842.478 265.926,842.285 273.316,841.704 
					275.777,841.511 283.168,840.93 285.626,840.737 293.016,840.156 295.477,839.963 302.868,839.382 305.326,839.189 
					312.716,838.608 315.177,838.415 322.568,837.834 325.026,837.641 332.419,837.06 334.878,836.867 342.268,836.286 
					344.729,836.093 352.119,835.512 354.578,835.319 361.968,834.738 364.429,834.544 371.819,833.964 374.278,833.771 
					381.668,833.19 384.129,832.996 391.519,832.416 393.978,832.222 401.37,831.641 403.829,831.448 411.219,830.867 
					413.68,830.674 421.07,830.093 423.529,829.9 430.919,829.319 433.38,829.126 440.771,828.545 443.229,828.352 450.62,827.771 
					453.08,827.578 460.471,826.997 462.929,826.804 470.322,826.223 472.78,826.03 480.171,825.449 482.632,825.256 
					490.022,824.675 492.481,824.482 499.871,823.901 502.332,823.708 509.722,823.127 512.181,822.934 519.571,822.353 
					522.032,822.16 529.422,821.579 531.881,821.386 539.273,820.805 541.732,820.612 549.122,820.031 551.583,819.837 
					558.973,819.257 561.432,819.063 568.822,818.483 571.283,818.289 578.674,817.709 581.132,817.515 588.525,816.935 
					590.984,816.741 598.374,816.161 600.835,815.967 608.225,815.386 610.683,815.193 618.074,814.612 620.535,814.419 
					627.925,813.838 630.383,813.645 637.774,813.064 640.235,812.871 647.625,812.29 650.084,812.097 657.476,811.516 
					659.935,811.323 667.325,810.742 669.786,810.549 677.177,809.968 679.635,809.775 687.025,809.194 689.486,809.001 
					696.877,808.42 699.335,808.227 706.725,807.646 709.186,807.453 716.577,806.872 719.035,806.679 726.428,806.098 
					728.886,805.905 736.277,805.324 738.738,805.13 746.128,804.55 748.587,804.357 755.977,803.776 758.438,803.582 
					765.828,803.002 768.287,802.808 775.677,802.228 778.138,802.034 785.528,801.454 787.987,801.26 795.379,800.68 
					797.838,800.486 805.228,799.906 807.689,799.712 815.079,799.131 817.538,798.938 824.928,798.357 827.389,798.164 
					834.779,797.583 837.238,797.39 844.628,796.809 847.089,796.616 854.48,796.036 856.938,795.842 864.331,795.261 
					866.789,795.068 874.18,794.487 876.641,794.294 884.031,793.713 886.49,793.52 893.88,792.939 896.341,792.746 
					903.731,792.165 906.19,791.972 913.58,791.391 916.041,791.198 923.431,790.617 925.89,790.424 933.282,789.843 
					935.741,789.65 943.131,789.069 945.592,788.875 952.982,788.295 955.441,788.102 962.831,787.521 965.292,787.327 
					975.141,786.554 975.044,785.324 965.195,786.098 				"/>
				<polygon style="fill:#A5A7A9;" points="966.994,840.496 959.604,841.077 957.145,841.27 949.755,841.851 947.294,842.044 
					939.904,842.625 937.445,842.818 930.053,843.399 927.594,843.593 920.204,844.173 917.743,844.367 910.352,844.947 
					907.894,845.141 900.504,845.721 898.043,845.915 890.652,846.495 888.194,846.689 880.804,847.269 878.343,847.463 
					870.952,848.044 868.494,848.237 861.101,848.818 858.643,849.011 851.252,849.592 848.791,849.785 841.401,850.365 
					838.942,850.559 831.552,851.14 829.091,851.333 821.701,851.914 819.242,852.107 811.852,852.688 809.391,852.881 
					802.001,853.462 799.542,853.655 792.149,854.236 789.691,854.429 782.301,855.01 779.84,855.203 772.45,855.784 
					769.991,855.977 762.601,856.558 760.14,856.751 752.75,857.332 750.291,857.525 742.901,858.106 740.44,858.299 
					733.049,858.88 730.591,859.073 723.198,859.654 720.74,859.847 713.349,860.428 710.888,860.621 703.498,861.202 
					701.039,861.396 693.649,861.976 691.188,862.169 683.798,862.75 681.339,862.943 673.949,863.524 671.488,863.718 
					664.098,864.299 661.639,864.492 654.247,865.072 651.788,865.266 644.398,865.846 641.937,866.04 634.546,866.62 
					632.088,866.814 624.698,867.394 622.237,867.588 614.846,868.169 612.388,868.362 604.998,868.943 602.536,869.136 
					595.146,869.717 592.688,869.91 585.295,870.491 582.836,870.684 575.446,871.265 572.985,871.458 565.595,872.039 
					563.136,872.232 555.746,872.813 553.285,873.006 545.895,873.587 543.436,873.78 536.044,874.361 533.585,874.554 
					526.195,875.135 523.734,875.328 516.344,875.909 513.885,876.102 506.495,876.683 504.034,876.876 496.643,877.457 
					494.185,877.65 486.795,878.231 484.334,878.424 476.943,879.005 474.485,879.198 467.092,879.779 464.634,879.973 
					457.243,880.553 454.782,880.747 447.392,881.328 444.933,881.521 437.543,882.101 435.082,882.295 427.692,882.875 
					425.233,883.069 417.843,883.649 415.382,883.843 407.992,884.424 405.533,884.617 398.141,885.198 395.682,885.391 
					388.292,885.972 385.831,886.165 378.441,886.746 375.982,886.939 368.592,887.52 366.131,887.713 358.741,888.294 
					356.282,888.487 348.892,889.068 346.431,889.261 339.04,889.842 336.582,890.035 329.189,890.616 326.731,890.809 
					319.34,891.39 316.879,891.583 309.489,892.164 307.03,892.357 299.64,892.938 297.179,893.131 289.789,893.712 287.33,893.905 
					279.94,894.486 277.479,894.68 270.089,895.26 267.63,895.453 257.779,896.228 257.876,897.457 267.727,896.683 270.186,896.49 
					277.576,895.909 280.037,895.715 287.427,895.135 289.886,894.942 297.276,894.361 299.737,894.167 307.127,893.587 
					309.586,893.393 316.976,892.813 319.437,892.619 326.827,892.039 329.286,891.845 336.678,891.264 339.137,891.071 
					346.527,890.49 348.988,890.297 356.379,889.716 358.837,889.523 366.227,888.942 368.688,888.749 376.079,888.168 
					378.537,887.975 385.927,887.394 388.388,887.201 395.779,886.62 398.237,886.427 405.63,885.846 408.089,885.653 
					415.479,885.072 417.94,884.879 425.33,884.298 427.789,884.105 435.179,883.524 437.64,883.331 445.03,882.75 447.489,882.557 
					454.879,881.976 457.34,881.783 464.73,881.202 467.189,881.009 474.581,880.428 477.04,880.234 484.43,879.654 486.891,879.46 
					494.281,878.88 496.74,878.686 504.13,878.106 506.591,877.912 513.982,877.332 516.44,877.138 523.831,876.558 
					526.291,876.364 533.682,875.784 536.14,875.591 543.533,875.01 545.992,874.816 553.382,874.236 555.843,874.042 
					563.233,873.461 565.692,873.268 573.082,872.688 575.543,872.494 582.933,871.913 585.392,871.72 592.784,871.139 
					595.243,870.946 602.633,870.365 605.094,870.172 612.484,869.591 614.943,869.398 622.333,868.817 624.794,868.624 
					632.184,868.043 634.643,867.85 642.033,867.269 644.494,867.076 651.885,866.495 654.343,866.302 661.736,865.721 
					664.195,865.528 671.585,864.947 674.046,864.754 681.436,864.173 683.894,863.98 691.285,863.399 693.746,863.206 
					701.136,862.625 703.594,862.432 710.985,861.851 713.446,861.657 720.836,861.077 723.295,860.884 730.687,860.303 
					733.146,860.109 740.536,859.529 742.997,859.335 750.388,858.755 752.846,858.561 760.236,857.981 762.697,857.787 
					770.088,857.206 772.546,857.013 779.936,856.433 782.397,856.239 789.788,855.658 792.246,855.465 799.639,854.884 
					802.097,854.691 809.488,854.11 811.949,853.917 819.339,853.336 821.798,853.143 829.188,852.562 831.649,852.369 
					839.039,851.788 841.498,851.595 848.888,851.014 851.349,850.821 858.739,850.24 861.198,850.047 868.59,849.466 
					871.049,849.273 878.439,848.692 880.9,848.499 888.29,847.918 890.749,847.725 898.139,847.144 900.6,846.951 907.99,846.37 
					910.449,846.177 917.839,845.596 920.3,845.403 927.691,844.822 930.149,844.629 937.542,844.048 940,843.854 947.391,843.274 
					949.852,843.08 957.242,842.5 959.701,842.306 967.091,841.726 969.552,841.532 979.401,840.758 979.304,839.529 
					969.455,840.303 				"/>
				<polygon style="fill:#A5A7A9;" points="971.253,894.699 963.863,895.279 961.404,895.472 954.015,896.053 951.553,896.247 
					944.163,896.827 941.704,897.021 934.312,897.602 931.853,897.795 924.463,898.375 922.002,898.569 914.612,899.15 
					912.153,899.343 904.763,899.924 902.302,900.117 894.912,900.698 892.453,900.891 885.063,901.472 882.602,901.665 
					875.212,902.246 872.753,902.439 865.36,903.02 862.902,903.213 855.511,903.794 853.051,903.987 845.66,904.568 
					843.202,904.761 835.811,905.342 833.351,905.535 825.96,906.116 823.502,906.309 816.111,906.89 813.65,907.083 
					806.26,907.664 803.802,907.857 796.409,908.438 793.95,908.631 786.56,909.212 784.099,909.406 776.709,909.986 
					774.25,910.179 766.86,910.76 764.399,910.954 757.009,911.534 754.55,911.727 747.16,912.308 744.699,912.502 737.309,913.082 
					734.85,913.276 727.458,913.857 724.999,914.05 717.609,914.63 715.147,914.824 707.757,915.405 705.299,915.598 
					697.909,916.179 695.447,916.372 688.057,916.953 685.599,917.146 678.208,917.727 675.747,917.92 668.357,918.501 
					665.898,918.694 658.506,919.275 656.047,919.468 648.657,920.049 646.196,920.242 638.806,920.823 636.347,921.016 
					628.957,921.597 626.496,921.79 619.106,922.371 616.647,922.564 609.257,923.145 606.796,923.338 599.406,923.919 
					596.947,924.112 589.554,924.693 587.096,924.886 579.706,925.467 577.245,925.661 569.854,926.241 567.396,926.435 
					560.005,927.015 557.544,927.209 550.154,927.789 547.696,927.982 540.303,928.563 537.844,928.757 530.454,929.337 
					527.993,929.531 520.603,930.112 518.144,930.305 510.754,930.885 508.293,931.079 500.903,931.66 498.444,931.853 
					491.054,932.434 488.593,932.627 481.203,933.208 478.744,933.401 471.352,933.982 468.893,934.175 461.503,934.756 
					459.042,934.949 451.651,935.53 449.193,935.723 441.802,936.304 439.342,936.497 431.951,937.078 429.493,937.271 
					422.103,937.852 419.642,938.045 412.251,938.626 409.793,938.819 402.4,939.4 399.941,939.593 392.551,940.174 390.09,940.367 
					382.7,940.948 380.241,941.141 372.851,941.722 370.39,941.916 363,942.496 360.541,942.69 353.151,943.27 350.69,943.464 
					343.3,944.044 340.841,944.238 333.448,944.818 330.99,945.011 323.6,945.592 321.139,945.786 313.748,946.366 311.29,946.56 
					303.9,947.141 301.439,947.334 294.048,947.914 291.59,948.108 284.199,948.688 281.738,948.882 274.348,949.463 
					271.89,949.656 262.038,950.43 262.135,951.659 271.986,950.885 274.445,950.692 281.835,950.111 284.296,949.918 
					291.686,949.337 294.145,949.144 301.535,948.563 303.996,948.37 311.386,947.789 313.845,947.596 321.235,947.015 
					323.696,946.822 331.086,946.241 333.545,946.048 340.938,945.467 343.396,945.274 350.787,944.693 353.247,944.5 
					360.638,943.919 363.096,943.726 370.487,943.145 372.948,942.951 380.338,942.371 382.797,942.177 390.187,941.597 
					392.648,941.403 400.038,940.823 402.497,940.629 409.889,940.049 412.348,939.855 419.738,939.274 422.199,939.081 
					429.589,938.5 432.048,938.307 439.438,937.727 441.899,937.533 449.289,936.952 451.748,936.759 459.138,936.178 
					461.599,935.985 468.989,935.404 471.448,935.211 478.841,934.63 481.299,934.437 488.69,933.856 491.151,933.663 
					498.541,933.082 500.999,932.889 508.39,932.308 510.851,932.115 518.241,931.534 520.7,931.341 528.09,930.76 530.551,930.567 
					537.941,929.986 540.4,929.793 547.792,929.212 550.251,929.019 557.641,928.438 560.102,928.245 567.492,927.664 
					569.951,927.471 577.341,926.89 579.802,926.696 587.192,926.116 589.651,925.922 597.044,925.341 599.502,925.148 
					606.892,924.568 609.354,924.374 616.744,923.793 619.202,923.6 626.593,923.019 629.054,922.826 636.444,922.245 
					638.902,922.052 646.293,921.471 648.754,921.278 656.144,920.697 658.602,920.504 665.995,919.923 668.454,919.73 
					675.844,919.149 678.305,918.956 685.695,918.375 688.154,918.182 695.544,917.601 698.005,917.408 705.395,916.827 
					707.854,916.634 715.244,916.053 717.705,915.86 725.096,915.279 727.554,915.086 734.947,914.505 737.405,914.312 
					744.796,913.731 747.256,913.537 754.647,912.957 757.105,912.764 764.496,912.183 766.956,911.989 774.347,911.409 
					776.805,911.216 784.195,910.635 786.657,910.441 794.047,909.861 796.506,909.667 803.898,909.086 806.357,908.893 
					813.747,908.313 816.208,908.119 823.598,907.538 826.057,907.345 833.447,906.765 835.908,906.571 843.298,905.99 
					845.757,905.797 853.147,905.216 855.608,905.023 862.998,904.442 865.457,904.249 872.85,903.668 875.308,903.475 
					882.698,902.894 885.159,902.701 892.55,902.12 895.008,901.927 902.399,901.346 904.859,901.153 912.25,900.572 
					914.708,900.379 922.099,899.798 924.56,899.605 931.95,899.024 934.409,898.831 941.801,898.25 944.26,898.057 951.65,897.476 
					954.111,897.282 961.501,896.702 963.96,896.509 971.35,895.928 973.811,895.734 983.66,894.961 983.563,893.731 
					973.714,894.505 				"/>
				<polygon style="fill:#A5A7A9;" points="975.513,948.903 968.123,949.484 965.664,949.677 958.274,950.258 955.813,950.451 
					948.423,951.032 945.964,951.225 938.571,951.806 936.113,952 928.722,952.58 926.262,952.774 918.871,953.354 916.413,953.548 
					909.022,954.128 906.562,954.321 899.171,954.902 896.713,955.096 889.322,955.676 886.861,955.87 879.471,956.451 
					877.013,956.643 869.62,957.224 867.161,957.418 859.771,957.999 857.31,958.192 849.92,958.773 847.461,958.966 
					840.071,959.546 837.61,959.74 830.22,960.321 827.761,960.514 820.371,961.094 817.91,961.288 810.52,961.869 808.061,962.062 
					800.669,962.643 798.21,962.836 790.82,963.417 788.358,963.61 780.968,964.191 778.51,964.384 771.119,964.965 
					768.658,965.158 761.268,965.739 758.81,965.932 751.419,966.513 748.958,966.706 741.568,967.287 739.109,967.48 
					731.717,968.061 729.258,968.255 721.868,968.835 719.407,969.028 712.017,969.609 709.558,969.802 702.168,970.383 
					699.707,970.576 692.317,971.157 689.858,971.35 682.468,971.931 680.007,972.125 672.617,972.705 670.158,972.898 
					662.765,973.479 660.307,973.673 652.917,974.253 650.456,974.447 643.065,975.028 640.607,975.221 633.216,975.802 
					630.755,975.995 623.365,976.576 620.907,976.769 613.516,977.35 611.055,977.543 603.665,978.124 601.207,978.317 
					593.814,978.898 591.355,979.091 583.965,979.672 581.504,979.865 574.114,980.446 571.655,980.639 564.265,981.22 
					561.804,981.413 554.414,981.994 551.955,982.187 544.563,982.768 542.104,982.961 534.714,983.542 532.253,983.735 
					524.862,984.316 522.404,984.509 515.013,985.09 512.553,985.284 505.162,985.864 502.704,986.057 495.314,986.638 
					492.852,986.831 485.462,987.412 483.004,987.606 475.611,988.186 473.152,988.38 465.762,988.96 463.301,989.154 
					455.911,989.734 453.452,989.928 446.062,990.508 443.601,990.702 436.211,991.283 433.752,991.476 426.362,992.057 
					423.901,992.25 416.511,992.831 414.052,993.024 406.659,993.605 404.201,993.798 396.811,994.379 394.35,994.572 
					386.959,995.153 384.501,995.346 377.111,995.927 374.65,996.12 367.259,996.701 364.801,996.894 357.41,997.475 
					354.949,997.668 347.559,998.249 345.101,998.442 337.708,999.023 335.249,999.216 327.859,999.797 325.398,999.99 
					318.008,1000.571 315.549,1000.764 308.159,1001.345 305.698,1001.539 298.308,1002.119 295.849,1002.312 288.459,1002.893 
					285.998,1003.087 278.608,1003.667 276.149,1003.86 266.298,1004.635 266.395,1005.864 276.246,1005.09 278.704,1004.897 
					286.095,1004.316 288.556,1004.122 295.946,1003.542 298.405,1003.349 305.795,1002.768 308.256,1002.574 315.646,1001.994 
					318.105,1001.8 325.495,1001.22 327.956,1001.026 335.346,1000.446 337.805,1000.252 345.197,999.671 347.656,999.478 
					355.046,998.898 357.507,998.704 364.897,998.123 367.356,997.93 374.746,997.349 377.207,997.156 384.597,996.575 
					387.056,996.382 394.446,995.801 396.907,995.608 404.297,995.027 406.756,994.834 414.149,994.253 416.607,994.06 
					423.998,993.479 426.458,993.286 433.849,992.705 436.307,992.512 443.698,991.931 446.159,991.738 453.549,991.157 
					456.008,990.964 463.398,990.383 465.859,990.19 473.249,989.609 475.708,989.416 483.1,988.835 485.559,988.642 
					492.949,988.061 495.41,987.867 502.8,987.287 505.259,987.094 512.649,986.513 515.11,986.319 522.5,985.739 524.959,985.545 
					532.349,984.965 534.81,984.771 542.2,984.19 544.659,983.997 552.052,983.416 554.51,983.223 561.901,982.642 564.362,982.449 
					571.752,981.869 574.21,981.675 581.601,981.094 584.062,980.901 591.452,980.32 593.911,980.127 601.303,979.546 
					603.762,979.353 611.152,978.772 613.613,978.579 621.003,977.998 623.462,977.805 630.852,977.224 633.313,977.031 
					640.703,976.45 643.162,976.257 650.552,975.676 653.013,975.483 660.403,974.902 662.862,974.709 670.255,974.128 
					672.713,973.935 680.103,973.354 682.565,973.161 689.955,972.58 692.413,972.386 699.804,971.806 702.265,971.613 
					709.655,971.032 712.113,970.838 719.504,970.258 721.965,970.065 729.355,969.484 731.813,969.291 739.206,968.71 
					741.665,968.516 749.055,967.936 751.516,967.742 758.906,967.162 761.365,966.968 768.755,966.388 771.216,966.194 
					778.606,965.614 781.065,965.42 788.455,964.84 790.916,964.646 798.307,964.065 800.765,963.872 808.158,963.291 
					810.616,963.098 818.007,962.517 820.467,962.324 827.858,961.743 830.316,961.55 837.707,960.969 840.167,960.776 
					847.558,960.195 850.016,960.002 857.406,959.421 859.868,959.228 867.258,958.647 869.717,958.454 877.109,957.873 
					879.568,957.68 886.958,957.099 889.419,956.906 896.809,956.325 899.268,956.132 906.658,955.551 909.119,955.358 
					916.509,954.777 918.968,954.584 926.358,954.003 928.819,953.81 936.209,953.229 938.668,953.036 946.061,952.455 
					948.519,952.261 955.909,951.681 958.37,951.487 965.761,950.907 968.219,950.713 975.61,950.133 978.07,949.939 
					987.919,949.165 987.823,947.936 977.974,948.71 				"/>
			</g>
			
				<rect x="366.369" y="288.308" transform="matrix(0.9969 -0.0783 0.0783 0.9969 -49.7881 30.7571)" style="fill:#A22430;" width="1.792" height="723.755"/>
		</g>
		<g style="opacity:0.8;">
			<path style="fill:#6D7A9D;" d="M282.385,371.614c7.669-1.566,15.131-4.141,22.133-7.638c8.796-4.393,17.119-10.301,26.775-12.059
				l-39.306-132.119c-3.571,1.581-8.325,2.448-11.58,3.565c-9.439,3.24-18.935,6.317-28.48,9.229
				c-10.342,3.155-20.743,6.109-31.149,9.047l40.829,137.238c3.036-1.4,5.972-3.234,9.088-4.452
				C274.433,372.964,278.452,372.416,282.385,371.614z"/>
		</g>
		<path style="opacity:0.8;fill:#6D7A9D;" d="M829.427,178.988L815.2,321.201c10.45,0.159,20.891,0.988,31.225,2.556
			c4.303,0.653,8.689,1.427,12.979,0.686c1.67-0.289,3.365-0.807,5.028-0.481c1.271,0.249,2.393,0.969,3.61,1.413
			c1.827,0.668,3.816,0.698,5.761,0.721c4.397,0.44,11.427-1.396,15.724,0.361l14.651-146.452
			c-14.432-0.978-28.918-1.154-43.365-0.425C850.352,180.107,839.582,181.03,829.427,178.988z"/>
	</g>
</g>
</svg>
