<?xml version="1.0" encoding="utf-8"?>
<!-- Generator: Adobe Illustrator 27.5.0, SVG Export Plug-In . SVG Version: 6.00 Build 0)  -->
<svg version="1.1" xmlns="http://www.w3.org/2000/svg" xmlns:xlink="http://www.w3.org/1999/xlink" x="0px" y="0px"
	 viewBox="0 0 2000 2000" style="enable-background:new 0 0 2000 2000;" xml:space="preserve">
<g id="Layer_1">
	<rect style="fill:#FFFFFF;" width="2000" height="2000"/>
</g>
<g id="Ðåæèì_èçîëÿöèè">
	<g>
		<path style="fill:#FFC0AF;" d="M802.65,505.152c-0.125,0.05-0.224,0.075-0.349,0.075h-0.075c-0.15-0.05-0.274-0.075-0.424-0.1
			c-0.1-0.05-0.199-0.075-0.324-0.1c-0.474-0.15-1.147-0.374-2.244-0.474c-0.175,0-0.739-0.345-0.889-0.345
			c-0.449,0-1.498-0.025-1.897,0c-0.773,0.05-0.979,0.52-1.528,0.819c-0.125,0.05-0.25,0.125-0.349,0.199
			c-0.474,0.349-2.419,3.441-4.539,6.958c-2.968,4.938-6.259,10.673-6.309,10.823c-0.025,0.075-0.05,0.199-0.075,0.374
			c0,0,0,0.025-0.025,0.025c-0.274,1.097-0.973,3.691-1.322,5.062c-0.075,0.224-0.125,0.424-0.15,0.574
			c-0.025,0.1-0.025,0.175-0.05,0.224c0.299,1.97,0.449,4.314,0.474,7.008v0.15c-2.02,32.644-7.631,63.467-16.833,95.862
			c-0.449,1.546-0.898,3.117-1.372,4.663c-0.673,2.294-1.347,4.564-2.045,6.833c-0.225,0.748-0.474,1.496-0.698,2.269
			c-0.474,1.496-0.923,2.993-1.397,4.489c-0.723,2.245-1.421,4.464-2.145,6.658c-0.399,1.272-0.823,2.544-1.272,3.841
			c-0.773,2.319-1.546,4.613-2.319,6.858c-3.242,9.377-6.658,18.679-10.224,27.931c-10.724-24.564-20.599-49.502-29.527-74.789
			c-3.242-9.177-6.309-18.429-9.377-27.656c-2.718-8.13-5.811-16.16-11.322-22.843c-2.793-3.367-6.259-6.01-9.501-8.903
			c-3.466-3.092-6.035-6.484-8.18-10.599c-3.566-6.908-5.985-14.614-7.88-22.145c-2.743-10.948-4.165-23.591-0.923-34.739
			c13.816-7.082,23.566-14.813,29.926-20.599c0,0,21.521-19.551,39.901-53.193c0.973-1.746,3.99-7.357,8.753-14.564
			c3.815-5.761,7.207-10.199,9.327-12.868c4.913,2.469,12.02,6.883,18.279,14.489c3.866,4.688,6.659,10.15,11.222,22.095
			c4.863,12.694,7.656,26.035,10.025,39.377c1.272,0.374,2.419,1.222,3.242,2.319c0.15,0.199,0.274,0.399,0.374,0.598
			c1.047,1.87,0.723,3.99,0.648,4.713c-0.374,3.716,0.648,8.903,1.795,13.841C802.725,497.571,804.62,504.255,802.65,505.152z"/>
		<path style="fill:#FFC0AF;" d="M782.925,529.716c-0.1,2.195-0.224,4.389-0.349,6.559c-0.025-2.693-0.174-5.037-0.474-7.008
			C782.376,529.417,782.65,529.567,782.925,529.716z"/>
		<path style="fill:#FFC0AF;" d="M805.194,566.3c-0.923,6.259-2.519,12.619-4.539,18.604c-1.646,4.888-3.616,9.177-9.003,10.499
			c-3.841,0.923-6.933,0.499-9.701-1.222c1.122,4.589,2.319,9.152,3.416,13.741c3.566,14.913,5.811,30.05,2.469,45.238
			c-2.868,12.943-9.152,25.611-17.157,36.16c-7.332,9.676-17.132,18.828-29.377,21.522c-27.332,6.035-45.088-21.197-53.916-42.868
			c-9.776-23.99-12.868-50.076-21.098-74.565c-8.629-25.711-21.222-49.951-37.033-71.971c-1.97-2.743-0.449-6.958,2.245-8.529
			c1.422-0.823,2.918-0.973,4.314-0.648c0.623-0.599,1.422-1.072,2.419-1.372c10.05-3.018,25.511-14.489,27.482-15.611
			c0.623-0.349,1.222-0.723,1.845-1.122c-3.242,11.147-1.821,23.791,0.923,34.739c1.895,7.531,4.314,15.237,7.88,22.145
			c2.145,4.115,4.713,7.506,8.18,10.599c3.242,2.893,6.708,5.536,9.501,8.903c5.511,6.683,8.604,14.714,11.322,22.843
			c3.067,9.227,6.135,18.479,9.377,27.656c8.928,25.287,18.803,50.225,29.527,74.789c3.566-9.252,6.983-18.554,10.224-27.931
			c16.758-48.479,26.26-91.248,28.429-138.182c3.042,1.596,5.96,3.441,8.604,5.711c4.713,4.04,7.856,9.227,10.449,14.788
			C804.446,555.452,806.067,560.465,805.194,566.3z"/>
		<g>
			<path style="fill:#F0B492;" d="M1310.347,1029.543c-1.979-4.769-6.27-15.162-15.434-26.228
				c-15.85-19.14-37.14-29.069-58.826-37.502c-22.931-8.918-42.785-13.566-62.736-18.778c-6.609-1.771-13.267-3.342-20-4.863
				c-3.392-0.773-6.634-1.496-9.751-2.17c-43.991-9.626-66.161-11.696-164.142-22.145c-57.956-6.184-117.458-14.564-175.489-4.563
				c-6.983,1.197-13.915,2.693-20.773,4.489c-0.898,0.224-1.646,0.598-2.245,1.072l-34.813,8.803
				c-9.427,2.369-18.928,5.212-28.579,7.057c-8.803-1.072-17.88-0.125-26.758,0.623c0,0-19.942,1.46-39.377,5.836
				c-57.631,12.974-176.777,123.282-176.777,123.282c-59.37,54.966-65.55,65.535-69.826,74.26
				c-9.565,19.519-17.505,45.945-13.3,136.328c1.766,37.966,5.783,89.533,15.517,150.736c9.162,14.076,29.67,40.618,64.31,52.084
				c20.37,6.743,38.396,7.197,66.859,4.414c13.516-1.322,26.958-3.741,40.1-7.307c10.324-2.843,21.247-6.634,27.856-15.561
				c7.781-10.474,4.788-25.287,4.14-37.407c-0.748-13.791-1.496-27.606-2.244-41.422c-1.496-27.631-2.968-55.263-4.464-82.894
				c-0.723-13.217-3.696-43.401-4.533-46.75c-2.771-11.083,7.276-13.799,14.733-21.779c7.905-8.479,18.055-14.215,28.579-18.878
				c11.322-5.013,23.167-8.978,34.763-13.342c47.582-17.88,95.288-36.609,138.955-62.894c1.521-0.898,3.018-1.845,4.514-2.768
				c0.199-0.05,0.399-0.1,0.599-0.125c0.1,0.075,0.224,0.175,0.349,0.249c0.599,0.349,1.347,0.599,2.095,0.748
				c5.062-3.616,10.723-6.21,17.207-7.157c11.821-1.696,23.118,2.743,33.716,8.105c8.853,1.796,17.556,4.639,26.21,7.357
				c16.035,5.012,32.245,9.551,48.554,13.666c0.524,0.125,1.047,0.274,1.571,0.399c16.459,4.115,33.018,7.731,49.677,10.898
				c14.626,2.781,16.026,2.624,51.871,8.354c14.713,2.352,26.787,4.34,34.838,5.677c-0.951,6.792-6.169,45.165-3.367,79.261
				c1.602,19.482,2.377,22.6,4.888,36.01c1.097,5.86,2.22,11.771,3.716,17.556c0.723,2.843,1.945,5.361,4.389,7.132
				c2.743,1.945,6.01,2.145,9.277,2.519c24.58,2.815,49.372,6.329,74.066,4.813c21.225-1.303,49.934-2.421,89.303-2.394
				c15.193-72.129,28.11-125.839,37.459-162.909C1314.232,1132.849,1329.202,1074.973,1310.347,1029.543z"/>
			<g>
				<g>
					<path style="fill:#C7835B;" d="M1131.6,1121.643c-7.897,7.498-14.123,16.552-20.08,25.609
						c-5.59,8.499-10.874,17.407-17.737,24.969c-0.854,0.941-3.173,4.291-4.58,2.314c-0.512-0.72-0.293-2.485-0.302-3.341
						c-0.014-1.292,0.026-2.585,0.111-3.874c0.368-5.568,1.593-11.055,3.185-16.391c3.54-11.867,8.921-23.119,14.427-34.176
						c2.364-4.749,4.585-9.607,7.424-14.095c2.103-3.324,4.243-6.643,6.523-9.849c0.745-1.048-0.984-2.046-1.723-1.007
						c-2.12,2.982-4.11,6.067-6.078,9.15c-2.536,3.972-4.56,8.19-6.672,12.4c-5.766,11.494-11.463,23.155-15.334,35.449
						c-1.744,5.538-3.088,11.23-3.627,17.021c-0.249,2.676-0.345,5.4-0.122,8.082c0.17,2.04,1.907,3.463,3.991,3.168
						c1.073-0.152,1.712-0.857,2.444-1.596c0.823-0.831,1.619-1.689,2.392-2.567c1.62-1.838,3.142-3.761,4.611-5.721
						c3.248-4.333,6.218-8.866,9.177-13.399c7.029-10.767,13.995-21.823,23.381-30.734
						C1133.944,1122.168,1132.532,1120.759,1131.6,1121.643L1131.6,1121.643z"/>
				</g>
				<g>
					<path style="fill:#C7835B;" d="M832.827,1081.023c32.784,4.696,65.266,11.46,97.194,20.264
						c15.962,4.402,31.785,9.311,47.436,14.718c15.246,5.268,30.278,11.905,46.154,15.078c7.875,1.574,15.883,2.104,23.868,1.126
						c7.629-0.934,15.089-2.837,22.677-4.018c7.412-1.154,15.53-1.694,22.7,0.98c0.854,0.318,1.861,0.738,2.365,1.553
						c0.484,0.782,0.377,1.705,0.232,2.563c-0.271,1.601-0.684,3.181-0.155,4.777c0.912,2.754,3.782,4.43,6.47,5.042
						c3.553,0.81,7.442,0.112,10.755,1.89c2.67,1.432,4.501,4.065,5.485,6.88c2.522,7.216-0.501,14.632-3.156,21.345
						c-5.655,14.294-8.926,29.249-10.799,44.479c-3.827,31.122-2.261,62.712-7.333,93.706c-0.608,3.715-1.315,7.412-2.127,11.088
						c-0.276,1.251,1.647,1.786,1.924,0.53c6.828-30.916,5.65-62.751,8.369-94.126c1.354-15.632,3.734-31.257,8.629-46.205
						c2.423-7.401,6.375-14.606,7.295-22.412c0.685-5.815-0.982-12.425-5.854-16.086c-2.801-2.105-6.12-2.374-9.501-2.622
						c-3.053-0.224-8.021-1.035-8.427-4.906c-0.171-1.628,0.625-3.216,0.538-4.853c-0.08-1.506-0.852-2.737-2.09-3.573
						c-2.785-1.881-6.809-2.367-10.074-2.718c-15.804-1.697-31.015,5.351-46.772,5.216c-16.627-0.143-32.393-6.469-47.782-12.088
						c-15.725-5.742-31.634-10.98-47.695-15.699c-31.948-9.388-64.495-16.737-97.379-21.977c-4.133-0.659-8.271-1.282-12.414-1.876
						C832.101,1078.92,831.559,1080.842,832.827,1081.023L832.827,1081.023z"/>
				</g>
			</g>
			<path style="fill:#C7835B;" d="M1151.134,941.617c-3.392-0.773-6.633-1.496-9.751-2.17
				c-37.033,15.088-70.151,39.302-99.553,66.285c-19.452,17.881-37.532,37.307-53.367,58.505
				c-7.93,10.624-15.287,21.696-21.921,33.217c-6.609,11.521-12.519,23.591-16.135,36.409c-1.771,6.309-2.943,12.993-3.292,19.701
				c0.524,0.125,1.047,0.274,1.571,0.399c16.459,4.115,33.018,7.731,49.677,10.898c0.673-10,2.045-20.1,6.833-28.978
				c5.985-11.122,16.783-18.08,26.335-25.811c19.252-15.561,31.572-37.033,36.235-61.248c2.444-12.594,4.065-25.861,12.419-36.16
				c4.189-5.137,9.302-9.402,14.389-13.591c5.611-4.614,11.347-9.078,17.182-13.392c11.272-8.304,22.943-16.06,34.963-23.242
				c8.205-4.888,17.332-9.327,24.414-15.96C1164.526,944.71,1157.867,943.139,1151.134,941.617z"/>
			<g>
				<g>
					<path style="fill:#C7835B;" d="M758.876,1071.011c-32.663,19.055-65.346,38.16-96.624,59.447
						c-30.842,20.991-60.358,44.172-86.326,71.036c-3.111,3.219-6.333,6.521-8.4,10.541c-2.061,4.006-3.01,8.7-2.893,13.191
						c0.124,4.758,1.194,9.567,1.833,14.278c0.665,4.906,1.296,9.817,1.891,14.733c1.827,15.122,3.321,30.298,4.061,45.516
						c0.903,18.554,0.324,37.004-1.885,55.445c-1.899,15.856-3.953,31.605-4.205,47.601c-0.039,2.485-0.046,4.971-0.028,7.457
						c0.009,1.283,2.004,1.286,1.995,0c-0.12-16.574,1.456-32.916,3.526-49.336c2.154-17.083,3.372-34.121,2.953-51.353
						c-0.33-13.583-1.382-27.142-2.775-40.654c-0.914-8.869-1.984-17.722-3.157-26.56c-0.677-5.101-1.614-10.211-2.106-15.331
						c-0.451-4.704,0.339-9.755,2.512-13.979c2.173-4.225,5.641-7.622,8.917-10.992c3.179-3.27,6.412-6.488,9.694-9.654
						c6.694-6.458,13.594-12.703,20.66-18.751c14.233-12.182,29.139-23.557,44.452-34.344
						c30.604-21.557,62.776-40.759,95.067-59.651c3.946-2.309,7.894-4.613,11.843-6.916
						C760.991,1072.087,759.988,1070.362,758.876,1071.011L758.876,1071.011z"/>
				</g>
				<g>
					<path style="fill:#C7835B;" d="M546.172,1230.077c7.285-1.008,14.836-0.361,21.966,1.338c4.062,0.968,8.048,2.298,11.847,4.037
						c1.959,0.897,3.872,1.896,5.722,3.001c1.732,1.034,3.323,2.273,5.037,3.326c1.418,0.871,3.379,2.417,5.097,1.472
						c1.626-0.895,1.503-2.583,0.868-4.057c-0.899-2.085-2.021-4.059-3.118-6.044c-1.083-1.96-2.007-3.992-3.051-5.97
						c-3.736-7.08-9.261-13.053-15.405-18.117c-7.112-5.862-15.025-10.638-22.945-15.31c-1.108-0.654-2.113,1.07-1.007,1.723
						c13.101,7.728,27.063,16.015,35.512,29.09c2.213,3.424,3.841,7.178,5.811,10.741c0.495,0.895,0.987,1.792,1.45,2.704
						c0.357,0.703,1.48,2.35,1.217,3.114c-0.443,1.284-4.268-1.637-5.034-2.175c-6.433-4.516-13.837-7.643-21.47-9.458
						c-7.509-1.786-15.365-2.399-23.027-1.338C544.376,1228.328,544.915,1230.251,546.172,1230.077L546.172,1230.077z"/>
				</g>
			</g>
		</g>
		<g>
			<path style="fill:#FCE8E1;" d="M881.413,660.184c8.411-26.329,12.617-39.494,13.716-52.37c0,0,1.24-14.519-11.654-64.207
				c-0.16-0.618-0.588-2.142-1.916-3.228c-1.18-0.966-2.707-1.328-4.218-1.186c0.299-22.918,0.623-45.861,0.923-68.779
				c0.075-5.187,0.15-10.374,0.224-15.561c0.05-4.115-4.04-6.983-7.905-6.01c-16.684,4.24-33.367,8.479-50.051,12.718
				c-3.591,0.923-8.504,2.544-13.466,4.838c-3.018,1.372-6.06,2.968-8.828,4.813c0.15,0.199,0.274,0.399,0.374,0.598
				c0.923,1.422,1.247,3.117,0.648,4.713c-0.948,9.102,6.708,27.133,3.391,28.629c-0.748,0.324-1.14-0.084-3.758-0.729
				c-1.539-0.379-2.777-0.293-4.347,0.529c-0.748,1.222-10.748,17.806-10.823,18.055c-0.15,0.623-1.022,3.865-1.421,5.461
				c-0.05,0.2-0.1,0.374-0.15,0.574c-0.025,0.1-0.025,0.175-0.05,0.224c0.299,1.97,0.449,4.314,0.474,7.008v0.15
				c0.175,20.2-6.284,59.377-16.833,95.862c-0.449,1.546-0.898,3.117-1.372,4.663c-1.132,3.692-1.922,6.426-2.045,6.833
				c-4.737,15.672-12.853,52.416-18.055,52.046c-3.158-0.225-0.78-13.809-8.052-33.982c-6.855-19.018-13.128-18.484-21.474-40.807
				c-0.362-0.968-0.085,0.136-9.377-27.656c-2.718-8.13-5.811-16.16-11.322-22.843c-2.793-3.367-6.259-6.01-9.501-8.903
				c-3.466-3.092-6.035-6.484-8.18-10.599c-3.566-6.908-5.985-14.614-7.88-22.145c-2.743-10.948-4.165-23.591-0.923-34.739
				c0.823-2.868,1.97-5.636,3.491-8.254c1.023-0.798,1.596-1.796,1.845-2.843c0.399-0.549,0.773-1.097,1.197-1.621
				c2.145-2.618,2.569-6.284,0-8.828c-2.195-2.194-6.658-2.619-8.803,0c-1.022,1.247-1.945,2.519-2.818,3.815
				c-1.596,0.798-3.192,1.596-4.788,2.419c-7.681,3.89-15.287,7.93-22.818,12.095c-12.668,6.958-25.112,14.289-37.332,21.995
				c-18.255,11.546-38.479,23.516-50.624,41.971c-6.135,9.352-9.028,20.175-8.654,31.347c0.424,12.943,3.192,25.986,5.037,38.779
				c3.791,25.985,7.806,51.971,11.322,78.006c1.696,12.519,2.045,24.763-0.623,37.158c-2.618,12.095-6.783,23.791-9.476,35.836
				c-5.436,24.514-4.663,49.726-0.175,74.29c4.514,24.564,12.694,48.33,21.896,71.472c4.713,11.846,9.626,23.641,14.738,35.312
				c2.394,5.461,5.137,10.674,9.102,15.137c3.242,3.641,7.382,6.534,11.696,8.803c0.524,0.274,1.047,0.549,1.571,0.798
				c10.624,5.212,22.22,8.778,33.367,12.644c11.995,4.14,24.115,8.005,36.434,11.122c23.99,6.06,48.878,9.202,73.517,5.686
				c1.721-0.249,3.441-0.549,5.137-0.873c0.873,1.945,2.643,3.491,5.387,3.591c18.205,0.798,34.764-10,46.01-23.591
				c11.397-13.791,18.728-30.25,25.686-46.584c6.634-15.561,12.668-31.397,17.656-47.507c6.534-21.073,11.322-42.644,13.392-64.714
				c2.668-28.529-7.506-37.357-0.274-58.33c2.369-6.858,5.761-13.392,6.234-24.165c0.549-12.245-3.067-22.469-6.284-29.302
				c1.188-2.936,2.85-7.085,4.788-12.07C866.326,702.787,874.844,680.748,881.413,660.184z"/>
			<g>
				<path style="fill:#D9B1A3;" d="M743.464,697.383c0.485,11.505-0.438,23.026-2.778,34.302c-0.26,1.253,1.663,1.789,1.924,0.53
					c2.375-11.447,3.342-23.152,2.849-34.832C745.405,696.104,743.41,696.097,743.464,697.383L743.464,697.383z"/>
			</g>
			<g>
				<path style="fill:#D9B1A3;" d="M804.831,797.251c9.244-9.603,18.333-19.486,26.62-29.936
					c8.36-10.543,14.155-22.628,20.379-34.485c3.622-6.9,7.243-13.8,10.865-20.7c0.596-1.136-1.125-2.145-1.723-1.007
					c-6.368,12.132-12.666,24.304-19.114,36.395c-3.12,5.851-6.509,11.495-10.549,16.762c-3.962,5.164-8.266,10.076-12.572,14.954
					c-4.984,5.647-10.094,11.181-15.317,16.607C802.529,796.765,803.938,798.178,804.831,797.251L804.831,797.251z"/>
			</g>
			<g>
				<path style="fill:#D9B1A3;" d="M805.13,811.739c12.371-8.972,24.992-18.17,34.433-30.351c2.648-3.416,5.01-7.034,7.006-10.87
					c0.592-1.138-1.129-2.148-1.723-1.007c-7.004,13.463-18.459,23.764-30.365,32.852c-3.413,2.605-6.883,5.132-10.358,7.653
					C803.094,810.762,804.088,812.494,805.13,811.739L805.13,811.739z"/>
			</g>
		</g>
		<path style="fill:#D9B1A3;" d="M733.172,1112.702c-2.129-7.957-5.387-15.653-9.275-22.904
			c-15.595-29.085-41.667-50.234-60.404-77.019c-9.139-13.064-16.463-27.639-18.771-43.571c-1.087-7.503-0.935-15.315,0.849-22.695
			c1.838-7.605,5.518-14.522,8.13-21.856c2.861-8.032,3.656-16.293,1.733-24.641c-1.793-7.784-5.612-14.986-9.001-22.16
			c-3.423-7.244-6.03-14.764-7.068-22.745c-1.08-8.297-0.792-16.778-0.03-25.088c1.567-17.083,5.526-33.863,6.883-50.971
			c1.258-15.864,2.871-54.777-10.028-65.666c-5.711-4.822-16.479,13.385-24.028,13.457c-2.194,0.021-3.767,0.984-4.762,2.35
			c-28.129,10.531-47.745,35.119-58.263,62.609c-6.158,16.096-9.238,33.143-11.131,50.216c-1.916,17.286-3.764,35.444-1.744,52.784
			c2.045,17.55,9.683,33.171,17.436,48.816c7.409,14.951,15.063,29.782,23.056,44.429c15.965,29.257,33.291,57.81,52.651,84.955
			c9.856,13.82,20.226,27.288,31.159,40.273c5.31,6.307,10.725,12.545,16.363,18.562c5.483,5.851,11.586,11.546,18.961,14.905
			c12.56,5.721,30.649,3.76,37.013-10.173C736.373,1128.964,735.267,1120.53,733.172,1112.702z"/>
		<g>
			<path style="fill:#373B4F;" d="M1169.667,946.042c-2.792-0.18-6.905-0.301-11.858,0.09
				c-23.236,1.891-39.628,13.179-45.722,17.472c-5.884,4.143-9.516,7.655-15.371,13.299c-14.62,14.08-24.347,27.469-29.931,35.725
				c-17.682,26.149-14.32,31.042-29.721,55.9c-19.303,31.131-26.359,26.328-37.196,48.844c-16.121,33.473-0.39,43.681-16.211,66.106
				c-18.463,26.149-56.53,36.265-71.93,39.868c-12.159,2.852-25.998,6.214-54.008,6.995c-19.064,0.51-37.947,1.982-56.74,5.584
				c-17.082,3.272-33.893,7.925-50.225,13.869c-4.293,2.672-8.826,4.864-13.569,6.665c-21.855,8.286-46.052,6.155-68.388,1.141
				c-11.709-2.642-23.326-5.854-34.795-9.307c-15.941-4.833-23.807-8.136-30.471-14.08c-7.385-6.574-6.034-9.577-18.133-29.631
				c-8.826-14.65-13.509-22.456-21.615-31.042c-15.13-16.062-21.765-14.89-25.007-24.948c-3.813-11.708,2.131-23.927,8.466-37.046
				c6.905-14.2,11.198-14.861,16.631-28.79c2.341-6.034,3.633-12.699,6.184-26.059c2.161-11.198,3.662-19.664,4.714-25.788
				c1.051-6.124,1.651-9.937,2.011-11.918c0.991-5.434,1.862-10.898,4.293-15.911c0.811-1.651,1.801-3.122,2.942-4.443
				c1.681-2.042,3.182-3.303,3.422-3.513c1.051-0.87,2.852-3.543,4.684-7.205c4.713-9.396,9.697-25.278,3.122-34.104
				c-6.875-9.246-19.664-1.681-49.055-8.315c-20.024-4.533-37.286-13.27-36.566-16.212c1.321-5.314,65.086-3.542,88.532-1.651
				c3.392,0.24,12.639,1.051,19.934-4.593c0.991-0.781,1.862-1.591,2.642-2.431c0.93-1.051,1.711-2.072,2.372-3.122
				c1.591-2.552,2.582-5.133,3.332-7.325c7.535-21.825,7.325-38.307,7.325-38.307c-0.66-48.694,10.357-102.612,9.877-123.597
				c-0.09-3.242-0.24-6.274-0.45-9.066c-0.18-2.072-0.63-6.605,0.24-10.567c0.27-1.201,0.66-2.341,1.201-3.332
				c0.6-1.111,1.261-2.282,2.432-2.672c2.491-0.87,8.856,0.24,12.729,0.781c-0.24-8.526-0.811-20.625-2.672-36.205
				c-4.353-36.626-11.258-52.897-17.862-75.953c0-0.03,0-0.06,0-0.06c-2.972-10.177-5.854-21.765-8.436-37.016
				c-3.332-19.424-4.443-39.838-1.351-59.352c1.321-8.376,8.136-18.763,11.168-26.719c7.505-4.143,10.387-6.004,18.073-9.907
				c-6.064,17.802-9.306,36.355-9.607,55.239c-0.12,9.216-0.06,18.493,0.51,27.679c0.571,9.307,3.032,18.283,4.593,27.439
				c1.501,8.857,2.492,17.803,4.293,26.629c1.801,9.006,4.683,17.682,7.896,26.268c6.364,17.052,12.759,33.684,16.001,51.726
				c1.921,10.957,3.152,22.065,4.083,33.173c2.672,0.54,5.344,0.961,8.046,1.261c11.288,1.261,22.636,1.141,33.984,0.75
				c10.958-0.39,21.946-0.931,32.843-2.161c13.24-1.471,26.809-4.233,39.238-9.457c0.6-7.355,1.201-14.65,1.832-21.975
				c1.501-18.403,3.242-36.836,4.443-55.299c1.261-18.673,0.93-37.346,0.09-56.049c-1.711-36.956-5.434-73.762-11.198-110.267
				c-0.09-0.54-0.18-1.051-0.24-1.591c-0.571-3.332,0.781-6.695,4.323-7.685c1.411-0.36,3.122-0.15,4.533,0.54
				c1.321,0.06,2.672,0.54,3.723,1.351c1.051,0.751,1.861,1.831,2.101,3.152c3.723,20.084,7.475,40.168,10.357,60.402
				c5.314,36.836,5.164,19.364,6.124,109.367c0.18,16.181,0.12,38.547-0.81,65.416c1.321-0.751,4.924-3.122,7.385-2.041
				c2.522,1.141,2.792,5.224,2.912,6.665c3.242,41.609,10.627,25.638,6.935,83.549c-1.711,26.839-4.503,49.174-2.221,63.735
				c0.99,6.274,2.942,11.078,2.582,19.093c0,0-0.57,6.965,1.321,14.17c0.601,2.312,1.111,3.783,2.342,5.764
				c0.12,0.21,0.271,0.42,0.45,0.66c0.69,0.901,1.711,1.801,2.732,2.312c1.411,0.66,4.773,1.201,6.725,2.492
				c1.591,1.051,2.732,2.522,3.332,4.173c13.72-0.6,33.534-0.45,57.07,3.513c7.805,1.291,11.708,2.311,16.631,3.332
				c50.045,10.297,68.148-6.215,112.729,3.332c21.675,4.623,25.398,10.237,46.322,11.348c16.752,0.87,24.557-2.162,38.788,0.541
				C1149.222,930.04,1161.922,939.227,1169.667,946.042z"/>
			<g>
				<path style="fill:#1F2330;" d="M1136.92,938.696c-41.119,18.801-84.937,39.196-113.431,75.73
					c-16.131,20.682-23.301,46.057-36.618,68.373c-7.13,11.948-15.138,23.414-21.081,36.034
					c-5.517,11.715-9.262,24.149-12.631,36.622c-3.541,13.107-6.697,26.343-11.21,39.164c-4.514,12.823-9.882,25.094-22.253,32.017
					c-11.717,6.557-25.448,10.49-38.365,13.915c-12.944,3.432-26.143,5.881-39.439,7.451c-54.131,6.394-108.997-1.221-161.855-13.04
					c-12.833-2.87-25.787-5.701-38.367-9.556c-12.389-3.796-24.133-9.348-32.884-19.167c-15.612-17.52-21.508-43.181-42.694-55.719
					c-4.47-2.645-9.33-4.289-14.489-4.875c-1.273-0.145-1.263,1.852,0,1.995c26.418,3,36.412,32.691,49.287,51.604
					c6.683,9.817,15.087,17.551,25.873,22.647c11.464,5.417,24.009,8.2,36.273,11.16c52.599,12.697,106.975,21.955,161.262,18.529
					c26.345-1.662,52.548-6.434,77.466-15.249c11.394-4.03,23.68-8.403,31.214-18.411c7.575-10.062,11.368-23.27,14.866-35.191
					c3.776-12.869,6.772-25.955,10.663-38.792c4.071-13.431,9.44-26.132,16.596-38.216c7.01-11.838,14.851-23.171,20.95-35.532
					c6.07-12.305,10.87-25.221,17.532-37.236c23.167-41.778,67.021-65.688,108.761-85.328c5.178-2.437,10.378-4.828,15.583-7.208
					C1139.093,939.886,1138.08,938.166,1136.92,938.696L1136.92,938.696z"/>
			</g>
			<g>
				<path style="fill:#1F2330;" d="M644.446,748.07c2.264,4.643,8.667,5.148,13.118,5.993c6.107,1.159,12.252,2.116,18.42,2.884
					c12.456,1.55,25.012,2.291,37.563,2.234c25.041-0.114,50.083-3.396,74.302-9.762c13.673-3.594,27.065-8.192,40.076-13.721
					c1.178-0.5,0.162-2.22-1.007-1.723c-22.615,9.61-46.466,16.281-70.76,19.937c-24.142,3.634-48.753,4.253-73.047,1.837
					c-6.9-0.686-13.774-1.622-20.606-2.809c-3.275-0.569-6.569-1.135-9.807-1.89c-2.539-0.592-5.307-1.48-6.529-3.988
					C645.606,745.909,643.884,746.92,644.446,748.07L644.446,748.07z"/>
			</g>
			<g>
				<path style="fill:#1F2330;" d="M869.594,938.346c-15.364,12.229-25.973,29.117-34.697,46.461
					c-4.606,9.156-8.766,18.529-12.996,27.863c-4.968,10.964-9.936,21.928-14.904,32.891c-5.585,12.325-11.17,24.65-16.755,36.974
					c-0.526,1.161,1.193,2.176,1.723,1.007c9.868-21.776,19.735-43.553,29.603-65.329c8.36-18.449,16.264-37.396,27.614-54.267
					c6.091-9.054,13.266-17.379,21.822-24.19C872.009,938.957,870.589,937.554,869.594,938.346L869.594,938.346z"/>
			</g>
			<g>
				<path style="fill:#1F2330;" d="M875.748,972.054c-11.272,9.893-17.797,23.607-22.662,37.531
					c-5.161,14.771-8.721,30.1-15.048,44.454c-6.844,15.528-16.392,29.938-28.924,41.459c-12.756,11.728-28.023,20.273-43.495,27.86
					c-8.033,3.939-16.124,7.92-24.422,11.275c-8.342,3.373-17.35,6.093-26.448,5.237c-2.274-0.214-4.505-0.693-6.683-1.373
					c-1.228-0.384-1.754,1.542-0.53,1.924c17.723,5.534,35.894-4.31,51.515-11.699c15.706-7.429,31.326-15.404,44.98-26.266
					c13.508-10.746,24.235-24.434,32.094-39.768c7.366-14.373,11.552-29.852,16.425-45.166c4.568-14.357,10.074-29.058,20.595-40.2
					c1.275-1.351,2.618-2.634,4.014-3.859C878.126,972.616,876.71,971.21,875.748,972.054L875.748,972.054z"/>
			</g>
			<path style="fill:#1F2330;" d="M714.277,1034.034c-8.946-13.9-20.294-26.268-25.488-42.27
				c-5.224-16.001-4.953-33.113-5.224-49.715c-0.15-8.796-0.54-17.532-1.651-26.238c-1.201-9.216-3.062-18.342-5.193-27.379
				c-8.08-34.255-10.654-41.064-13.63-53.708c-8.127-34.532-5.945-43.92-17.552-99.079c-0.75-3.564-1.378-6.467-1.772-8.275
				c-0.387,1.638-0.848,4.152-0.854,7.253c-0.003,1.633,0.133,2.693,0.274,4.575c0.21,2.792,0.36,5.824,0.45,9.066
				c0.48,20.985-10.537,74.903-9.877,123.597c0,0,0.21,16.482-7.325,38.307c-0.751,2.192-1.741,4.773-3.332,7.325
				c-0.66,1.051-1.441,2.071-2.372,3.122c-0.781,0.841-1.651,1.651-2.642,2.431c-7.295,5.644-16.542,4.833-19.934,4.593
				c-23.447-1.891-87.211-3.663-88.532,1.651c-0.72,2.942,16.542,11.679,36.566,16.212c29.391,6.635,42.18-0.931,49.055,8.315
				c6.574,8.826,1.591,24.708-3.122,34.104c-1.832,3.662-3.633,6.335-4.684,7.205c-0.24,0.21-1.741,1.471-3.422,3.513
				c-1.141,1.321-2.132,2.792-2.942,4.443c-2.432,5.013-3.302,10.477-4.293,15.911c-0.36,1.981-0.961,5.794-2.011,11.918
				c2.822,2.822,6.124,5.134,9.877,6.905c13.389,6.304,28.64,5.464,43.05,6.334c14.08,0.871,29.121,3.453,39.177,14.26
				c8.286,8.856,12.339,21.075,21.405,29.21c4.683,4.173,10.957,6.485,17.202,5.134c6.905-1.471,12.639-6.515,16.121-12.519
				C730.308,1065.285,722.803,1047.213,714.277,1034.034z"/>
		</g>
		<path style="fill:#FCE8E1;" d="M864.023,539.268c-5.9-11.907-22.875-40.583-43.093-58.13c-2.643-2.294-5.711-4.165-9.377-3.317
			c-3.417,0.823-5.486,3.616-7.282,6.409c-1.247,1.945-2.319,3.99-3.217,6.135c1.671,7.207,3.566,13.891,1.596,14.788
			c-0.748,0.324-1.247-0.499-3.94-0.623c-0.623-0.025-1.197-0.025-1.721,0c-0.873,4.638-1.422,9.352-2.07,14.04
			c-0.948,6.783-2.27,13.491-3.616,20.2c-2.643,13.267-4.938,26.484-4.09,39.901c-1.747,3.325-2.196,5.445-1.347,6.359
			c1.348,1.452,5.97-0.135,13.865-4.763c2.103-5.519,4.178-9.838,5.689-12.768c3.02-5.859,3.277-5.186,5.957-10.668
			c1.223-2.502,3.075-6.539,6.26-11.577c1.585-2.507,1.997-2.884,2.399-3.178c3.107-2.268,7.145-0.67,14.686,1.316
			c0,0,7.237,1.906,17.595,3.464c9.756,1.467,11.853,0.781,12.746-0.485C866.491,544.349,864.826,540.889,864.023,539.268z"/>
		<g>
			<g>
				<path style="fill:#C1BECF;" d="M1717.374,1360.731c-184.443-27.085-368.887-54.169-553.33-81.254
					c-299.141,49.349-842.074,138.921-845.115,139.475c-0.274,0.05-0.942,0.27-1.339,0.763c-1.144,1.424,0.006,4.161,2.257,4.048
					c-1.038,0.845-1.546,2.436-0.38,3.715c11.214,12.309,26.829,18.716,42.209,24.138c18.019,6.353,35.888,12.891,53.427,20.498
					c35.533,15.412,69.798,33.546,103.803,52.036c34.52,18.77,68.894,37.782,104.101,55.251
					c36.406,18.064,73.414,34.891,110.701,51.049c37.139,16.095,74.558,31.534,112.004,46.897c4.632,1.9,9.264,3.799,13.897,5.698
					c0.836,0.343,1.532,0.196,2.045-0.203c0.53,0.447,1.062,0.89,1.631,1.288c0.052,0.037,0.112,0.064,0.165,0.099
					c0.062,1.482,1.213,2.889,2.996,2.254c56.687-20.191,113.373-40.383,170.06-60.574c56.395-20.087,112.79-40.173,169.185-60.262
					c55.676-19.833,111.294-39.823,166.707-60.379c78.351-29.065,117.537-43.567,164.093-62.726
					C1581.179,1424.152,1643.5,1397.182,1717.374,1360.731z"/>
				<path style="fill:#72748A;" d="M1549.732,1422.806c-53.84,20.286-654.111,247.424-660.508,248.186
					c-74.848-32.487-149.632-65.122-224.348-97.91c-74.988-32.907-149.909-65.965-224.764-99.174
					c-39.098-17.346-122.149-54.359-122.541-54.533c0.085,1.848,0.659,5.721,0.858,5.81c3.064,18.02,6.127,36.04,9.19,54.06
					c1.448,1.14,51.843,26.215,57.225,28.958c17.52,8.928,34.666,18.617,51.946,27.996c35.613,19.329,452.486,213.133,453.6,213.03
					c0.89,0.2,1.442-0.486,2.214-0.792c242.621-95.997,793.109-323.25,825.755-339.142c0.482-8.88-0.514-42.901-0.986-48.562
					C1714.99,1361.42,1600.986,1403.494,1549.732,1422.806z"/>
			</g>
			<ellipse style="fill:#72748A;" cx="1350.117" cy="1378.478" rx="106.575" ry="24.127"/>
			<ellipse style="fill:#72748A;" cx="966.553" cy="1470.402" rx="254.164" ry="69.799"/>
			<ellipse style="fill:#72748A;" cx="623.39" cy="1484.687" rx="75.269" ry="26.773"/>
			<g>
				<path style="fill:#373B4F;" d="M961.399,1306.357c-0.243-8.93-0.562-17.406-0.562-17.406
					c-0.221-5.801-0.472-11.601-0.746-17.399c1.775-0.841,1.703-3.777-0.203-4.548c-0.014-0.276-0.023-0.552-0.037-0.828
					c-0.161-3.194-5.15-3.213-4.988,0c0.009,0.187,0.016,0.374,0.025,0.561c-22.578-0.351-45.167,0.624-67.623,3.018
					c-11.606,1.237-23.151,3.256-34.8,4.054c-11.855,0.813-23.619-0.718-35.459-1.029c-13.822-0.363-27.637,0.451-41.429,1.263
					c-2.898,0.171-3.152,4.261-0.773,4.876c2.204,54.6,4.408,109.199,6.612,163.799c0.399,9.88,14.188,22.096,21.67,26.745
					c20.504,12.741,44.898,13.708,68.345,13.611c24.198-0.101,49.944-1.178,71.423-13.619c23.374-13.539,18.328-35.394,18.511-58.6
					c0.131-16.602,0.225-33.205,0.266-49.808C961.677,1342.827,961.896,1324.573,961.399,1306.357z"/>
				<path style="fill:#FCE8E1;" d="M1119.588,1252.432c-0.662-8.234-2.044-16.332-5.954-23.824
					c-8.381-16.062-26.374-24.87-44.084-28.693c-69.077-14.915-142.579-12.074-212.616-7.825
					c-65.276,3.96-130.523,9.258-193.713,27.189c-16.066,4.559-33.196,10.842-42.058,24.998
					c-8.312,13.279-6.716,28.832-5.506,43.665c1.087,13.323,0.831,24.905,4.461,33.376c4.156,9.698,33.528,26.323,109.45,40.732
					c51.709,9.813,85.883,8.283,134.111,7.758c9.541-0.104,53.483-0.762,110.281-9.421c30.171-4.599,47.823-9.532,83.127-19.396
					c43.025-12.022,60.255-26.333,64.285-39.901c0.764-2.572,1-7.211-0.712-29.636
					C1120.18,1265.176,1120.097,1258.764,1119.588,1252.432z"/>
				<g>
					<path style="fill:#D9B1A3;" d="M623.191,1252.999c3.797,13.305,16.244,21.1,27.977,26.813
						c15.683,7.635,32.085,13.557,49.022,17.726c38.001,9.352,77.385,10.795,116.345,11.13c37.385,0.321,74.844-0.177,112.083-3.764
						c37.077-3.572,74.003-10.238,109.326-22.253c13.723-4.668,27.552-9.888,40.581-16.284c11.258-5.526,23.002-12.771,29.4-23.951
						c1.459-2.55,2.565-5.277,3.324-8.115c0.332-1.242-1.592-1.771-1.924-0.53c-3.394,12.682-14.291,21.237-25.24,27.422
						c-11.68,6.598-24.467,11.44-37.018,16.1c-34.251,12.719-70.251,20.178-106.49,24.352c-36.004,4.147-72.291,5.151-108.507,5.106
						c-38.153-0.048-76.659-0.488-114.287-7.472c-18.364-3.408-36.517-8.385-53.703-15.759c-12.218-5.243-26.49-11.003-34.59-22.098
						c-1.986-2.721-3.453-5.714-4.377-8.953C624.763,1251.236,622.837,1251.76,623.191,1252.999L623.191,1252.999z"/>
				</g>
			</g>
			<g>
				<g>
					<path style="fill:#FA9B5D;" d="M674.186,1430.821c-0.087,3.019-0.5,11.338-3.866,21.721
						c-2.194,6.755-7.624,23.458-23.654,36.686c-13.51,11.143-27.542,14.01-36.208,15.682c-7.993,1.542-24.154,4.431-43.29-2.129
						c-20.526-7.037-31.951-20.656-34.406-23.698c-8.645-10.687-12.3-20.449-16.207-42.109c-0.905-5.017-1.72-8.869-0.724-18.463
						c0.147-1.413,1.269-3.866,1.448-4.208c3.099-5.92,7.984-7.264,12.128-9.277c8.896-4.321,18.673-6.841,27.966-8.417
						c9.269-1.572,17.04-2.031,25.797-2.549c5.763-0.341,10.467-0.477,13.474-0.535c17.876-0.347,27.955-0.478,41.639,1.825
						c16.573,2.78,27.694,4.822,32.994,13.749c0.999,1.694,1.694,3.453,2.15,5.322
						C674.555,1418.961,674.36,1424.196,674.186,1430.821z"/>
					<path style="fill:#D9702B;" d="M671.276,1409.1c-4.645-7.875-14.628-10.194-22.944-11.913
						c-19.133-3.956-38.651-4.511-58.12-3.538c-7.828,0.392-15.641,1.032-23.438,1.823c-8.59,0.871-17.213,1.922-25.562,4.197
						c-7.561,2.06-16.77,5.093-21.922,11.362c-1.196,1.455-2.321,2.845-2.646,4.72c0.456,1.933,2.607,6.033,10.991,10.334
						c12.164,6.212,25.088,6.407,34.123,7.363c16.725,1.803,33.689,2.411,50.588,1.781c16.204-0.608,33.168-2.476,47.373-8.732
						c5.3-2.346,10.057-5.582,12.598-9.774c0.456-0.739,0.825-1.499,1.108-2.302C672.97,1412.554,672.275,1410.794,671.276,1409.1z"
						/>
				</g>
				<g>
					<path style="fill:#D9702B;" d="M517.236,1430.248c6.721,6.32,15.765,9.149,24.638,10.864
						c10.328,1.996,20.903,3.285,31.388,4.046c23.57,1.712,47.777,0.98,70.941-3.939c5.544-1.177,11.086-2.572,16.355-4.689
						c4.508-1.811,8.949-4.156,12.289-7.758c0.872-0.94-0.535-2.354-1.411-1.411c-6.199,6.685-16.128,9.266-24.695,11.254
						c-11.075,2.569-22.365,4.04-33.706,4.736c-22.267,1.366-44.528,0.145-66.538-3.44c-9.852-1.605-20.358-4.029-27.85-11.074
						C517.712,1427.958,516.299,1429.366,517.236,1430.248L517.236,1430.248z"/>
				</g>
			</g>
			<g>
				<path style="fill:#915950;" d="M1385.105,1327.71c-2.247,10.684-3.792,18.597-4.298,20.256
					c-3.926,12.879-7.835,25.703-18.922,35.42c-6.519,5.713-12.729,7.907-21.965,11.17c-15.289,5.402-28.017,5.8-37.055,6.009
					c-8.457,0.196-22.198-0.236-38.238-4.433c-9.387-2.456-15.141-4.021-21.613-8.59c-7.48-5.281-11.161-11.215-17.457-21.613
					c-6.329-10.453-11.917-19.681-15.517-33.528c-3.644-14.018-6.895-25.479-1.662-36.576c5.487-11.635,14.453-11.26,21.059-24.384
					c3.627-7.206,3.76-15.082,3.879-30.541c0.169-21.894,0.287-32.849-2.938-47.206c-2.625-11.687-8.328-26.114-1.138-37.286
					c0.265-0.411,0.798-1.458,1.895-2.469c4.763-4.389,15.287-6.633,20.574-8.005c16.459-2.17,33.093-3.092,49.701-2.693
					c10.798,0.274,21.821,0.773,32.494,2.569c5.636,0.973,11.471,2.843,15.611,6.708c0,0,1.082,1.03,1.97,2.145
					c6.338,7.953,1.804,26.365,0.147,37.532c-2.241,15.099-0.673,26.712,1.108,39.901c2.057,15.232,3.352,24.822,9.698,35.19
					c9.224,15.071,17.287,12.45,22.311,25.451C1388.779,1303.159,1387.95,1314.184,1385.105,1327.71z"/>
			</g>
			<path style="fill:#69332B;" d="M1333.905,1145.81c-10.673-1.796-21.696-2.294-32.494-2.569
				c-16.609-0.399-33.242,0.524-49.701,2.693c-5.287,1.372-15.811,3.616-20.574,8.005c0.324,1.895,1.446,4.738,5.362,7.082
				c11.322,6.783,25.013,8.728,38.006,8.928c15.237,0.224,31.098,0.15,46.26-1.596c4.24-0.499,8.429-1.197,12.569-2.245
				c3.117-0.773,6.21-1.746,8.928-3.417c3.167-1.97,6.808-6.06,7.257-10.175C1345.376,1148.653,1339.541,1146.782,1333.905,1145.81z
				"/>
			<g>
				<g>
					<path style="fill:#69332B;" d="M1228.795,1166.871c4.295,3.06,8.82,5.807,13.667,7.904c4.754,2.057,9.675,3.384,14.779,4.23
						c9.824,1.628,19.786,1.986,29.73,1.909c10.384-0.08,20.844-0.764,31.165-1.896c5.492-0.602,11.057-1.311,16.391-2.801
						c5.862-1.638,11.357-4.678,16.281-8.199c1.035-0.74,0.04-2.471-1.007-1.723c-4.489,3.21-9.456,6.055-14.755,7.691
						c-4.646,1.434-9.528,2.147-14.34,2.739c-9.828,1.209-19.777,1.83-29.673,2.12c-9.956,0.291-20.059,0.115-29.938-1.255
						c-5.517-0.766-10.944-1.868-16.139-3.922c-5.409-2.139-10.427-5.151-15.153-8.518
						C1228.754,1164.402,1227.756,1166.131,1228.795,1166.871L1228.795,1166.871z"/>
				</g>
				<g>
					<path style="fill:#69332B;" d="M1207.535,1301.46c3.643,12.532,17.895,16.484,29.002,19.543
						c13.035,3.59,26.41,5.944,39.881,7.083c13.538,1.145,27.183,1.037,40.7-0.328c6.693-0.676,13.358-1.653,19.961-2.939
						c6.518-1.269,13.044-2.744,19.318-4.945c12.336-4.327,24.256-12.344,28.585-25.268c0.409-1.22-1.518-1.744-1.924-0.53
						c-3.723,11.117-13.73,18.583-24.255,22.777c-5.863,2.337-12.011,3.882-18.17,5.206c-6.403,1.376-12.869,2.464-19.371,3.246
						c-25.819,3.106-52.184,1.603-77.467-4.489c-7.025-1.693-14.318-3.462-20.927-6.434c-5.924-2.664-11.523-6.968-13.408-13.451
						C1209.101,1299.7,1207.175,1300.223,1207.535,1301.46L1207.535,1301.46z"/>
				</g>
			</g>
		</g>
		<g>
			<ellipse style="fill:#C7835B;" cx="909.349" cy="1252.3" rx="96.988" ry="34.499"/>
			<path style="fill:#F0B492;" d="M966.194,1112.842c-2.868-33.043-23.741-58.704-38.604-73.218
				c-5.761-5.661-9.003-13.367-9.152-21.447c-0.075-3.815-0.1-7.731-0.125-11.771c-0.05-17.232-0.449-18.005,0.673-37.033
				c0.773-12.893,1.347-21.796,2.544-33.916c1.771-18.005,3.342-26.659,1.471-33.118c-0.573-1.945-1.446-3.716-2.718-5.462
				c-2.244-3.042-4.638-4.638-7.706-6.633c-7.432-4.888-16.185-7.606-39.976-8.579c-16.035-0.648-26.459,0.15-47.307,1.721
				c-5.436,0.399-14.863,1.197-25.561,5.811c-12.494,5.411-14.614,10.798-15.088,12.594c-0.025,0.125-0.05,0.225-0.075,0.299
				c-0.249,1.197-0.623,4.165-0.623,7.057c0,3.541,0.349,6.21,0.424,6.658c2.918,22.045,5.187,44.19,7.88,66.285
				c0.399,3.192,1.022,13.342,2.294,33.666c0.374,5.935,0.823,14.863-3.816,23.965c-1.845,3.616-3.791,5.985-4.564,6.883
				c-11.796,13.292-27.457,35.836-30.125,65.338c-1.895,20.898,3.342,38.704,5.636,46.31c4.539,14.988,9.751,22.743,21.147,43.741
				c7.282,13.367,14.215,26.883,20.823,40.524c8.379,17.232,17.457,27.731,39.252,31.572c22.295,3.915,50.849,5.262,68.829-9.302
				c15.112-12.245,19.701-30.873,26.659-47.283c6.708-15.811,15.137-30.798,20.05-47.257
				C960.433,1163.541,968.314,1137.206,966.194,1112.842z"/>
			<path style="fill:#69332B;" d="M920.283,896.878c-2.244-3.042-4.638-4.638-7.706-6.633c-7.432-4.888-16.185-7.606-39.976-8.579
				c-16.035-0.648-26.534-0.639-47.307,1.721c-15.786,1.793-23.088,4.009-26.315,5.395c-5.494,2.36-14.035,6.89-14.334,13.009
				c-0.171,3.511,2.686,6.301,3.943,7.495c13.693,13.011,53.445,13.501,67.471,13.577c0,0,52.787,0.289,63.488-11.949
				c0.685-0.783,4.305-5.449,3.454-8.575c-0.049-0.179-0.302-1.05-0.782-2.134C922.22,900.206,921.465,898.48,920.283,896.878z"/>
			<g>
				<path style="fill:#C7835B;" d="M785.879,920.474c7.459,5.295,16.738,7.63,25.594,9.316c9.206,1.753,18.577,2.602,27.937,2.903
					c18.224,0.584,36.538-0.825,54.548-3.596c4.163-0.64,8.363-1.278,12.472-2.21c5.436-1.233,10.666-3.781,15.387-6.695
					c1.091-0.673,0.09-2.399-1.007-1.723c-4.273,2.637-8.901,4.903-13.765,6.209c-3.503,0.941-7.165,1.453-10.742,2.038
					c-8.275,1.354-16.607,2.368-24.964,3.063c-18.566,1.545-37.529,1.735-55.958-1.313c-9.786-1.619-20.269-3.875-28.496-9.716
					C785.837,918.007,784.839,919.736,785.879,920.474L785.879,920.474z"/>
			</g>
			<g>
				<path style="fill:#C7835B;" d="M794.175,1038.163c14.104,9.512,31.848,11.751,48.433,12.911
					c16.95,1.185,34.21,0.423,50.737-3.738c9.188-2.313,18.096-5.716,26.393-10.301c1.124-0.621,0.119-2.345-1.007-1.723
					c-14.621,8.079-31.05,12.254-47.627,13.667c-8.327,0.71-16.704,0.76-25.047,0.313c-8.286-0.444-16.612-1.26-24.765-2.834
					c-9.224-1.782-18.271-4.73-26.111-10.017C794.115,1035.72,793.115,1037.448,794.175,1038.163L794.175,1038.163z"/>
			</g>
		</g>
		<path style="fill:#FCE8E1;" d="M695.435,604.289c-5.988-11.299-11.712-22.736-17.141-34.314
			c-2.823-6.02-11.644-18.087-12.716-33.058c0,0-2.276-31.812,29.215-60.651c0.511-0.468,3.315-2.995,7.066-6.65
			c4.083-3.978,6.943-8.177,9.005-10.391c-4.297,0.174-10.255,1.398-17.838,2.39c-10.616,1.389-18.215,2.136-26.185,5.715
			c-4.713,2.116-11.279,5.699-20.262,13.716c-12.496,11.153-13.808,16.732-30.421,37.863
			c-12.201,15.519-18.659,22.979-23.564,29.196c-7.113,9.014-16.291,18.502-16.158,30.761c0.054,4.941,5.198,7.482,9.381,5.383
			c9.397-4.714,19.048-8.835,28.977-12.294c5.033-1.753,10.121-3.346,15.255-4.775c2.567-0.715,5.146-1.388,7.734-2.021
			c1.915-0.468,4.713-1.599,6.723-1.075c1.657,0.432,2.823,2.063,3.95,3.257c1.842,1.95,3.669,3.914,5.486,5.888
			c3.634,3.948,7.218,7.943,10.729,12.001c7.049,8.149,13.772,16.557,19.997,25.353C689.254,617.062,699.25,611.487,695.435,604.289
			z"/>
		<g>
			<path style="fill:#915950;" d="M591.301,918.708c-12.5-6.023-28.678-1.663-28.679-1.663c-15.561,4.194-13.07,9.03-28.722,14.031
				c-7.018,2.242-20.021,4.104-32.302,6.622c-4.941,1.013-10.275,1.525-14.761,4.312c-3.818,2.372-5.816,5.531-5.992,10.624
				c0.069,2.208,1.04,8.111,1.144,11.794c0,0,0.775,6.927,7.604,9.352c9.212,3.271,20.694-0.846,39.011-7.983
				c31.976-12.458,48.27-14.433,60.203-27.969c2.439-2.767,8.92-10.118,6.65-15.378C594.61,920.484,592.813,919.436,591.301,918.708
				z"/>
			<path style="fill:#FFC0AF;" d="M866.716,1162.418c0.574,1.396,1.372,3.815,1.122,6.783c-0.125,1.471-0.599,4.04-3.317,8.03
				c-3.741,5.437-8.255,8.479-9.701,9.427c-11.846,7.781-24.414,11.372-26.335,11.921c-10.848,3.017-20,3.716-27.058,4.24
				c-4.04,0.299-7.407,0.424-9.801,0.449c2.519,0.948,6.11,2.195,10.549,3.342c6.484,1.671,9.726,2.519,13.292,2.494
				c10.424-0.1,15.86-3.666,18.554-3.192c3.516,0.624,6.309,4.339,6.11,7.631c-0.399,6.185-9.452,9.875-13.018,11.347
				c-8.629,3.541-22.344,5.885-56.809-4.988c-13.99-4.414-12.619-5.511-42.195-16.833c-20.275-7.756-21.521-7.581-29.576-11.147
				c-12.793-5.686-24.788-12.893-43.791-27.706c-40.624-31.696-69.253-63.467-69.253-63.467
				c-17.556-19.427-73.243-80.999-86.884-136.311c-0.199-0.823-0.524-2.145-0.948-3.89c-1.322-5.536-3.741-15.487-7.257-28.504
				c-5.686-21.172-10.973-38.38-14.639-49.901c12.319-4.788,31.048-10.374,54.39-11.347c20.25-0.823,37.108,2.12,49.028,5.162
				c0.15-0.025,0.299-0.025,0.449-0.05c1.671-0.15,4.115,0.025,7.107,1.646c1.97,12.644,3.716,25.911,5.112,39.776
				c0.998,9.875,1.771,19.502,2.369,28.803c5.661,8.13,13.94,20.599,22.943,36.435c9.501,16.708,11.372,22.02,20.424,39.227
				c8.753,16.659,18.155,34.539,32.145,51.896c8.753,10.848,22.668,25.636,43.741,39.951c9.352-2.419,18.803-4.264,28.404-3.616
				c6.708,0.449,13.417,1.347,20.125,2.095c6.683,0.723,13.317,2.02,20.05,2.194c6.01,0.15,9.427-0.224,11.521,2.244
				c2.818,3.292,0.923,8.978,0.549,9.975c-3.142,8.728-14.115,10.948-15.287,11.172c4.289,0.075,10.25,0.025,17.357-0.599
				c10.798-0.948,18.03-1.596,26.759-4.763c4.214-1.546,6.06-2.668,20.225-8.304c5.736-2.294,9.027-3.541,12.22-1.995
				c3.741,1.771,6.01,6.633,5.536,10.574c-0.599,4.838-4.04,8.379-7.307,11.347c-2.494,2.244-5.112,4.314-7.856,6.16
				c5.861-1.895,11.646-3.94,17.332-5.935c1.322-0.474,4.638,1.122,6.409,3.99C871.828,1151.87,870.806,1157.58,866.716,1162.418z"
				/>
			<path style="fill:#ED947B;" d="M593.518,917.807c-23.068-0.873-47.853,0.593-70.472,5.306
				c-11.048,2.319-21.945,5.287-32.644,8.928c3.516,13.018,5.935,22.968,7.257,28.504c1.687-3.273,3.63-5.235,4.974-6.37
				c9.376-7.925,20.754-1.985,41.869-7.594c2.006-0.533,3.965-0.989,7.722-2.37c10.923-4.015,14.913-7.407,24.115-7.781
				c7.057-0.274,13.566,1.726,17.457,3.198C593.518,932.354,593.867,925.139,593.518,917.807z"/>
			<path style="fill:#FCE8E1;" d="M638.209,611.887c-0.449,28.479-1.621,56.958-3.541,85.363c-1.023,15.437-1.97,30.998-3.915,46.36
				c-0.973,7.531-2.195,15.038-4.314,22.344c-2.095,7.232-5.262,13.916-8.728,20.574c-2.516,4.833-2.41,9.684-1.521,15.312
				c1.006,6.371,3.373,7.032,4.899,14.622c0.623,3.096,1.7,8.753,0,14.824c-1.549,5.529-4.667,8.779-7.443,12.001
				c-9.461,10.982-15.109,17.836-16.758,25.387c-2.551,11.682,6.735,15.85,6.883,30.915c0.102,10.375-4.2,18.899-7.897,24.522
				c-3.99-2.776-7.45-3.987-9.56-4.572c-15.335-4.251-27.249,5.757-46.834,9.984c-3.407,0.735-6.535,1.418-11.003,3.073
				c-3.236,1.198-5.237,2.292-8.357,3.42c-5.771,2.087-7.077,1.577-10.914,2.859c-0.231,0.077-0.587,0.196-1.043,0.362
				c-5.942,2.162-14.95,11.683-14.95,11.683c-7.121,7.519-8.501,10.41-9.283,12.954c-0.483,1.571-0.712,2.928-0.834,3.874
				c0.796-6.177-7.42-22.625-8.946-29.672c-2.212-10.217-4.619-20.161-9.502-29.51c-3.859-7.39-8.55-14.348-12.147-21.875
				c-17.243-36.077-6.814-89.026,1.741-126.031c11.225-48.552,29.116-96.692,47.578-142.887c20-50.044,58.112-84.15,104.495-109.701
				c0.574-0.316,1.956-1.05,3.671-0.871c1.272,0.133,2.418,0.717,3.336,1.569c0.249,0,0.474-0.05,0.698-0.025
				c5.636,0.524,10.549,2.918,14.414,6.708c-3.092,19.526-1.97,39.926,1.347,59.352
				C632.374,590.066,635.242,601.638,638.209,611.887z"/>
			<g>
				<path style="fill:#D9B1A3;" d="M480.772,948.721c2.773-4.978,6.43-9.456,10.969-12.93c3.791-2.902,8.095-4.747,12.621-6.176
					c9.298-2.935,18.774-5.262,28.013-8.396c5.084-1.725,10.174-3.172,15.409-4.389c8.516-1.98,17.433-4.013,26.238-3.843
					c7.271,0.14,14.547,3.506,20.515,7.83c1.041,0.754,2.038-0.976,1.007-1.723c-5.695-4.127-12.597-7.482-19.708-8.02
					c-7.637-0.578-15.542,1.043-22.968,2.591c-6.628,1.381-13.204,2.952-19.611,5.148c-8.783,3.009-17.734,5.426-26.64,8.035
					c-5.32,1.558-10.571,3.374-15.107,6.645c-5.178,3.733-9.362,8.659-12.461,14.222
					C478.424,948.837,480.147,949.844,480.772,948.721L480.772,948.721z"/>
			</g>
			<g>
				<path style="fill:#D9B1A3;" d="M631.425,641.386c3.529,10.477,4.285,21.553,4.118,32.538c-0.174,11.41-1.03,22.821-1.649,34.214
					c-0.36,6.627-0.719,13.253-1.079,19.88c-0.07,1.283,1.926,1.279,1.995,0c0.647-11.928,1.295-23.856,1.942-35.784
					c0.602-11.097,1.335-22.261,0.281-33.354c-0.582-6.124-1.719-12.187-3.685-18.023
					C632.941,639.645,631.014,640.165,631.425,641.386L631.425,641.386z"/>
			</g>
			<g>
				<path style="fill:#D9B1A3;" d="M541.269,887.707c16.726-3.445,34.07-7.092,48.284-17.108c3.672-2.588,7.06-5.554,10.029-8.929
					c0.845-0.961-0.561-2.377-1.411-1.411c-10.946,12.441-26.875,18.448-42.58,22.278c-4.924,1.201-9.889,2.224-14.852,3.246
					C539.482,886.042,540.013,887.966,541.269,887.707L541.269,887.707z"/>
			</g>
			<g>
				<path style="fill:#ED947B;" d="M743.681,1132.884c11.284,3.573,23.079,5.387,34.915,5.384c1.284,0,1.286-1.995,0-1.995
					c-11.669,0.003-23.26-1.79-34.384-5.312C742.985,1130.571,742.459,1132.497,743.681,1132.884L743.681,1132.884z"/>
			</g>
			<g>
				<path style="fill:#ED947B;" d="M772.517,1164.721c11.177,0.049,22.377-0.203,33.529-0.977c8.57-0.595,16.763-2.051,24.892-4.928
					c5.644-1.998,11.096-4.525,16.273-7.531c1.11-0.644,0.107-2.369-1.007-1.723c-8.768,5.091-18.399,8.873-28.367,10.805
					c-8.396,1.627-17.111,1.776-25.633,2.07c-6.56,0.227-13.124,0.318-19.687,0.289
					C771.233,1162.72,771.232,1164.715,772.517,1164.721L772.517,1164.721z"/>
			</g>
			<g>
				<path style="fill:#ED947B;" d="M770.439,1185.087c13.631,1.138,27.257,1.044,40.889,0.016
					c6.039-0.455,11.971-1.312,17.764-3.129c5.441-1.707,10.605-4.142,15.714-6.65c6.941-3.408,13.824-6.921,20.561-10.719
					c1.118-0.631,0.114-2.355-1.007-1.723c-5.846,3.296-11.8,6.378-17.811,9.361c-5.286,2.623-10.586,5.29-16.178,7.213
					c-5.61,1.929-11.363,3.006-17.265,3.511c-6.038,0.516-12.103,0.853-18.163,0.958c-8.176,0.143-16.355-0.152-24.504-0.832
					C769.159,1182.985,769.167,1184.981,770.439,1185.087L770.439,1185.087z"/>
			</g>
			<g>
				<path style="fill:#ED947B;" d="M768.621,1204.405c7.723,1.327,15.55,1.396,23.296,0.215c1.265-0.193,0.728-2.116-0.53-1.924
					c-7.365,1.123-14.894,1.046-22.236-0.215C767.896,1202.265,767.356,1204.187,768.621,1204.405L768.621,1204.405z"/>
			</g>
			<g>
				<path style="fill:#ED947B;" d="M572.031,949.318c7.067-1.535,14.274-2.249,21.505-2.15c1.284,0.018,1.285-1.977,0-1.995
					c-7.404-0.101-14.799,0.65-22.035,2.221C570.247,947.667,570.778,949.59,572.031,949.318L572.031,949.318z"/>
			</g>
		</g>
		<g>
			<path style="fill:#915950;" d="M1024.53,491.852c-0.172-1.076-0.651-4.068-3.035-5.781c-0.708-0.509-2.625-1.652-6.983-0.937
				c-6.572,1.078-11.032,5.256-12.064,5.997c-14.564,10.453-25.948,24.61-36.739,38.756c-6.352,8.327-12.352,16.922-17.978,25.754
				c-5.552,8.716-11.158,17.503-12.078,28.045c-0.099,1.133,0.243,2.199,0.829,3.131c-0.005,3.12,1.178,10.974,5.198,11.021
				c9.016,0.105,17.387-12.122,23.35-18.103c6.314-6.333,11.965-13.354,17.58-20.303c5.926-7.333,11.683-14.834,16.813-22.751
				c9.457-14.593,6.657-11.887,14.037-22.266C1020.014,505.199,1025.643,498.816,1024.53,491.852z"/>
			<path style="fill:#FFC0AF;" d="M1101.707,549.617c-1.596-5.087-4.913-11.272-19.127-22.444
				c-13.641-10.723-32.968-22.619-59.976-30.998c-6.359-1.995-13.142-3.766-20.374-5.287c-1.87-0.399-3.666-0.773-5.362-1.122
				c-17.332-3.591-27.083-5.037-37.582-1.372c-14.664,5.063-23.766,16.085-37.407,32.569c-9.028,10.898-14.689,17.98-18.479,29.427
				c-4.464,13.466-3.766,26.06-2.045,35.262h75.388c-7.332,11.696-18.329,29.826-30.873,52.519
				c-17.581,31.871-18.953,37.931-41.397,79.877c-20.424,38.13-30.649,57.208-37.881,66.884
				c-3.566,4.788-12.544,17.307-22.369,35.487c-3.741,6.858-6.908,14.04-9.501,21.422c-4.888,8.279-9.526,16.683-13.841,25.262
				c-2.195,4.314-5.237,9.003-6.359,13.716c-1.471,6.06,2.818,9.526,7.756,11.696c9.352,4.14,19.601,5.885,29.776,4.813
				c1.147-0.125,2.195-0.499,3.067-1.122c0.902,1.832,2.263,4.392,4.165,7.304c3.607,5.523,5.516,8.366,9.202,10.028
				c1.174,0.529,4.525,1.982,8.493,0.876c2.662-0.742,4.413-2.304,5.265-3.186c1.323,0.597,3.396,1.301,5.957,1.247
				c6.326-0.133,10.333-4.774,11.059-5.644c2.125,0.055,5.294-0.119,8.753-1.422c2.165-0.816,8.679-3.553,21.122-26.434
				c4.742-8.719,6.761-13.769,7.66-19.909c0.656-4.476,1.513-10.885-2.078-13.612c-3.002-2.28-7.634-0.863-8.417-0.623
				c-3.968,1.214-6.982,4.574-8.936,6.754c-1.364,1.521-1.878,2.382-2.07,2.278c-0.682-0.369,6.133-11.144,9.352-22.993
				c2.818-10.374,3.541-19.501,3.591-26.31c5.362-7.581,13.965-19.502,24.938-33.816c35.861-46.784,49.826-57.457,83.418-99.752
				c0,0,25.487-30.15,54.29-78.131C1097.542,581.787,1106.695,565.777,1101.707,549.617z M844.945,879.871
				c-1.272-0.623-2.519-1.322-3.741-2.07c1.721-2.12,3.442-4.239,5.162-6.384c0.748,3.092,1.546,6.16,2.494,9.177
				C847.564,880.32,846.242,880.12,844.945,879.871z"/>
			<path style="fill:#ED947B;" d="M1002.229,490.888c-1.87-0.399-3.666-0.773-5.362-1.122c-0.798,0.823-1.596,1.646-2.394,2.519
				c-3.741,4.065-7.432,8.18-11.023,12.369c-6.908,8.005-13.591,16.21-19.901,24.689c-11.87,15.91-23.142,34.838-23.467,55.313
				c0,0.324,0,0.673,0.025,0.997h25.736c0.798-2.918,1.671-5.81,2.943-8.628c4.115-9.102,11.097-16.16,17.681-23.467
				c6.409-7.132,11.895-14.689,15.287-23.716c2.02-5.362,2.768-11.222,5.586-16.284c2.718-4.913,6.534-9.302,10.698-13.092
				c1.297-1.197,3.367-2.643,4.564-4.289C1016.245,494.18,1009.461,492.409,1002.229,490.888z"/>
			<path style="fill:#FCE8E1;" d="M1007.182,478.999c-6.055-0.948-8.598,1.032-14.935-0.932c-4.775-1.48-4.176-2.865-9.958-4.691
				c-3.634-1.147-3.675-0.538-12.035-2.409c-3.941-0.882-4.971-1.25-7.481-1.455c-2.956-0.241-5.261-0.429-8.105,0.312
				c-3.796,0.989-4.922,2.687-7.17,1.974c-1.24-0.393-2.478-1.411-3.221-2.598c-0.663-1.059-0.807-2.053-0.831-2.182
				c-0.572-3.015-32.108-16.591-74.928-19.642c0,0-20.686,2.955-46.56,20.346c-2.747,1.846-3.262,4.777-2.473,7.264
				c4.931,49.739,7.39,83.997,8.727,106.781c0.673,11.474,2.145,22.891,2.909,34.359c2.63,39.479,1.208,54.905,10.114,59.287
				c7.101,3.494,17.89-1.014,22.313-3.958c5.085-3.385,9.806-7.296,14.323-11.411c4.205-5.959,8.052-14.37,11.231-26.876
				c3.253-12.797,2.804-18.348,7.828-25.354c5.5-7.67,5.346-13.659,16.625-12.192c4.943,0.643,20.331,6.645,26.601,4.78
				c3.522-1.048,6.105-2.956,7.758-4.433c3.005-14.023,8.732-29.861,12.374-36.82c8.853-16.913,16.379-19.12,24.127-28.668
				c2.275-2.803,4.077-6.041,7.723-12.486c10.531-18.616,11.709-25.456,19.367-29.467c2.11-1.105,5.35-2.33,9.988-2.456
				C1015.727,481.13,1010.678,479.546,1007.182,478.999z"/>
			<g>
				<path style="fill:#D9B1A3;" d="M1001.128,481.271c-7.954,2.677-13.344,9.465-17.324,16.537
					c-2.317,4.117-4.288,8.419-6.616,12.53c-2.093,3.695-4.516,7.19-7.108,10.551c-5.098,6.613-10.785,12.745-15.87,19.368
					c-5.269,6.861-9.519,14.213-12.195,22.469c-1.652,5.096-2.816,10.335-3.914,15.574c-1.135,5.416-2.134,10.922-1.642,16.475
					c0.112,1.269,2.108,1.281,1.995,0c-0.434-4.898,0.305-9.738,1.278-14.529c0.918-4.522,1.899-9.042,3.149-13.485
					c2.367-8.411,6.096-16.009,11.233-23.068c4.782-6.57,10.299-12.557,15.391-18.88c2.515-3.123,4.942-6.325,7.12-9.695
					c2.415-3.738,4.401-7.712,6.432-11.666c4.195-8.168,9.362-17.148,18.601-20.258
					C1002.868,482.787,1002.349,480.859,1001.128,481.271L1001.128,481.271z"/>
			</g>
			<g>
				<path style="fill:#D9B1A3;" d="M913.923,544.312c-3.395,16.096-10.708,30.948-15.536,46.604
					c-1.357,4.401-2.502,8.865-3.315,13.4c-0.225,1.255,1.697,1.794,1.924,0.53c2.906-16.203,10.124-31.116,15.212-46.666
					c1.434-4.383,2.688-8.823,3.64-13.337C916.111,543.589,914.188,543.054,913.923,544.312L913.923,544.312z"/>
			</g>
			<g>
				<path style="fill:#D9B1A3;" d="M878.675,492.167c19.031,3.141,37.312-4.179,54.951-10.302
					c5.081-1.764,10.197-3.431,15.411-4.763c1.243-0.318,0.716-2.242-0.53-1.924c-17.977,4.593-34.893,13.45-53.521,15.4
					c-5.25,0.55-10.565,0.526-15.781-0.335C877.95,490.036,877.409,491.958,878.675,492.167L878.675,492.167z"/>
			</g>
			<g>
				<path style="fill:#ED947B;" d="M842.232,857.198c-0.262,4.033,0.246,8.104,1.485,11.951c0.392,1.217,2.319,0.697,1.924-0.53
					c-1.191-3.696-1.665-7.546-1.414-11.421C844.31,855.916,842.315,855.921,842.232,857.198L842.232,857.198z"/>
			</g>
			<g>
				<path style="fill:#ED947B;" d="M834.238,887.612c2.241-1.953,4.2-4.213,5.841-6.691c0.297-0.449,0.089-1.104-0.358-1.365
					c-0.488-0.285-1.067-0.093-1.365,0.358c-1.538,2.322-3.385,4.419-5.529,6.287c-0.406,0.354-0.362,1.048,0,1.411
					C833.231,888.016,833.831,887.967,834.238,887.612L834.238,887.612z"/>
			</g>
			<g>
				<path style="fill:#ED947B;" d="M865.738,860.709c-3.365,17.655,3.12,35.636,13.639,49.724c0.759,1.017,2.492,0.023,1.723-1.007
					c-10.177-13.63-16.702-31.061-13.438-48.187C867.901,859.985,865.979,859.448,865.738,860.709L865.738,860.709z"/>
			</g>
			<g>
				<path style="fill:#ED947B;" d="M885.876,859.414c0.129,9.351,1.057,18.684,2.794,27.874c1.298,6.864,2.75,15.187,9.206,19.164
					c1.096,0.675,2.099-1.05,1.007-1.723c-6.163-3.797-7.281-12.439-8.467-18.93c-1.591-8.707-2.423-17.536-2.545-26.385
					C887.853,858.132,885.858,858.128,885.876,859.414L885.876,859.414z"/>
			</g>
			<g>
				<path style="fill:#ED947B;" d="M914.728,853.869c-0.204,4.259-0.407,8.517-0.613,12.776c-0.191,3.943-0.423,7.887-1.767,11.636
					c-0.434,1.211,1.493,1.732,1.924,0.53c1.349-3.763,1.623-7.758,1.817-11.719c0.216-4.408,0.423-8.816,0.634-13.223
					C916.784,852.586,914.789,852.589,914.728,853.869L914.728,853.869z"/>
			</g>
			<g>
				<path style="fill:#ED947B;" d="M848.923,883.26c0.418,2.099,0.911,4.183,1.484,6.245c0.282,1.014,0.583,2.023,0.902,3.025
					c0.314,0.984,0.509,2.053,1.575,2.453c0.504,0.19,1.094-0.211,1.227-0.697c0.154-0.56-0.19-1.037-0.697-1.227
					c0.323,0.122,0.163,0,0.078-0.259c-0.077-0.233-0.153-0.467-0.228-0.701c-0.128-0.401-0.254-0.803-0.376-1.206
					c-0.275-0.906-0.535-1.817-0.78-2.732c-0.48-1.797-0.899-3.609-1.263-5.432C850.596,881.472,848.672,882.004,848.923,883.26
					L848.923,883.26z"/>
			</g>
			<g>
				<path style="fill:#ED947B;" d="M989.465,559.311c-2.958,3.319-5.186,7.324-7.325,11.195c-2.184,3.952-4.225,7.987-6.139,12.076
					c-0.541,1.156,1.178,2.17,1.723,1.007c1.866-3.989,3.856-7.924,5.977-11.783c2.096-3.814,4.262-7.817,7.174-11.084
					C991.728,559.766,990.321,558.35,989.465,559.311L989.465,559.311z"/>
			</g>
		</g>
		<g>
			<path style="fill:#FFC0AF;" d="M921.393,348.182c-2.45-12.664-4.763-20.056-11.067-26.824
				c-5.952-6.391-12.856-8.818-22.539-11.691c-30.847-9.155-46.271-13.732-57.912-12.469c-4.152,0.451-30.005,3.61-50.695,23.18
				c-4.688,4.434-9.718,10.131-17.943,22.785c-5.426,8.348-11.084,17.553-14.067,27.105c-0.926,2.963-1.296,5.873-1.285,8.743
				c-0.569,0.955-0.935,2.064-1.039,3.244c-1.392,15.786,1.838,31.898,8.991,46.025c-0.207,0.887-0.219,1.873,0.051,2.955
				c5.032,20.151,13.274,39.58,24.41,57.121c0.216,0.341,0.48,0.759,0.853,1.297c6.605,9.493,16.256,13.46,19.897,14.889
				c3.751,1.472,14.231,5.038,26.461,2.482c3.94-0.824,7.056-2.073,9.144-2.909c1.583-0.634,7.78-3.19,16.002-9.144
				c10.412-7.541,19.225-17.016,23.275-23.483c0.304-0.486,2.702-4.243,5.948-8.968c0.915-1.332,2.013-2.853,3.474-4.748
				c5.723-7.428,9.359-10.695,13.577-15.378c2.777-3.084,11.985-13.447,18.773-27.744c7.387-15.557,8.761-29.143,9.061-32.619
				C925.997,367.745,923.148,357.254,921.393,348.182z"/>
			<path style="fill:#7D4E3D;" d="M806.969,299.88c7.978-2.17,17.411-4.061,28.078-4.943c5.318-0.439,10.33-0.577,14.985-0.511
				c1.835-1.282,4.802-3.715,7.066-7.689c0.874-1.534,6.102-11.067,1.455-20.366c-0.589-1.178-3.66-7.323-9.56-8.936
				c-3.463-0.947-5.325,0.372-10.391-0.831c-3.199-0.76-4.376-1.099-7.066-2.909c-8.456-5.692-20.689-1.485-21.752-1.108
				c-2.324,0.825-5.572,1.977-7.758,5.057c-1.429,2.013-1.349,3.361-2.91,6.962c-1.691,3.901-3.072,5.286-4.364,7.585
				c-0.415,0.737-5.978,10.959-1.663,19.119C796.783,298.29,805.543,299.676,806.969,299.88z"/>
			<path style="fill:#ED947B;" d="M790.605,498.918c-10.599-9.177-15.063-20.225-17.457-26.384
				c-1.696-4.339-2.768-7.107-3.342-11.222c-0.499-3.716-0.349-6.883,1.471-19.327c0.499-3.516,1.197-8.13,2.07-13.516
				c-4.414,6.085-12.444,19.102-13.292,36.983c-0.798,16.758,5.013,31.447,11.621,38.878c1.546,1.721,5.112,5.262,10.599,7.057
				c2.17,0.698,5.162,1.671,7.756,0.798c2.12-3.516,4.051-6.629,4.539-6.958c1.332-0.899,2.327-1.077,4.479-0.686
				C799.074,504.541,793.723,501.636,790.605,498.918z"/>
			<g>
				<path style="fill:#7D4E3D;" d="M917.434,328.785c-3.338-5.331-7.157-10.438-11.861-14.647c-2.401-2.148-5.047-4.119-7.911-5.608
					c-3.008-1.563-6.379-2.306-9.323-4.06c-3.536-2.107-6.736-4.367-10.548-6c-7.193-3.081-15.026-4.584-22.685-6.01
					c-3.2-0.593-6.459-1.166-9.714-1.359c-23.61-1.399-68.544,8.657-82.295,36.853c-2.639,5.411-5.21,13.908-13.854,22.444
					c-7.281,7.189-11.221,6.853-17.457,13.854c-1.594,1.79-10.004,11.545-11.222,25.769c-1.632,19.067,10.456,35.483,14.132,35.121
					c1.901-0.187,2.023-3.954,7.585-9.04c2.593-2.37,4.971-3.764,6.546-4.676c5.299-3.066,9.329-3.882,12.513-4.905
					c13.739-4.414,15.16-13.788,23.647-13.591c2.64,0.061,6.721,1.066,11.692,6.358c0.094,0.068,12.612,9.016,32.027,9.06
					c21.13,0.047,55.932-2.484,74.047-30.917c0.305-0.479,1.082-0.423,1.244,0.121c4.433,14.963,3.501,19.485,1.477,33.909
					c-0.646,4.607-2.378,10.01-2.309,11.742c0.017,0.419,1.651,1.622,2.909,0.069c6.512-8.036,10.028-33.055,10.391-31.034
					c0.659,3.674,0.736,6.139,0.71,7.148c-0.031,1.217-0.089,1.824-0.156,2.412c-1.385,12.064-5.403,18.842-5.403,18.842
					c-5.403,9.975-10.854,17.602-14.131,20.92c1.763,0.795,4.477,1.737,7.758,1.663c15.663-0.356,25.925-23.532,29.371-31.311
					c4.795-10.823,11.005-24.839,6.096-39.07c-2.821-8.177-6.227-7.479-13.577-22.444
					C920.906,337.723,922.847,337.429,917.434,328.785z M839.638,396.333c-14.125,5.107-27.067,1.531-32.402-0.301
					c-0.061-0.021-0.113-0.048-0.167-0.083c-1.844-1.216-3.593-2.513-5.228-3.915c3.967,0.734,8.026,1.12,12.116,1.179
					c0,0,6.168,0.105,12.302-0.787c16.995-2.473,33.88-14.658,34.927-13.209C862.026,380.377,853.422,391.349,839.638,396.333z"/>
				<g>
					<path style="fill:#633626;" d="M803.217,296.374c-0.003,0.001-0.005,0.002-0.008,0.003c0.256,0.608,0.513,1.216,0.769,1.823
						c2.237-1.34,4.782-2.356,7.159-3.416c4.228-1.885,8.755-3.057,13.344-3.628c8.283-1.031,16.726-0.726,24.871,1.116
						c1.25,0.283,1.784-1.64,0.53-1.924c-13.169-2.979-28.022-2.638-40.437,3.023c-2.148,0.979-4.446,1.892-6.474,3.107
						c-0.94,0.563-0.332,2.199,0.769,1.823c0.003-0.001,0.005-0.002,0.008-0.003C804.955,297.885,804.436,295.957,803.217,296.374
						L803.217,296.374z"/>
				</g>
				<g>
					<path style="fill:#633626;" d="M853.733,356.101c-3.188,4.579-6.517,9.091-10.487,13.032
						c-4.032,4.003-8.701,7.117-13.894,9.412c-5.271,2.329-10.885,3.874-16.487,5.174c-6.115,1.419-12.319,2.446-18.566,3.058
						c-6.549,0.641-13.298,0.564-19.57,2.803c-1.201,0.429-0.683,2.357,0.53,1.924c5.885-2.102,12.168-2.091,18.317-2.663
						c6.186-0.575,12.339-1.533,18.404-2.878c11.284-2.501,22.622-6.1,31.284-14.087c4.709-4.342,8.543-9.531,12.19-14.768
						C856.191,356.052,854.462,355.053,853.733,356.101L853.733,356.101z"/>
				</g>
				<g>
					<path style="fill:#633626;" d="M759.667,350.491c-11.126,14.096-23.218,29.934-21.935,48.941
						c0.328,4.857,1.594,9.585,3.917,13.872c0.612,1.129,2.335,0.123,1.723-1.007c-4.075-7.519-4.52-16.397-2.713-24.637
						c1.886-8.6,6.212-16.391,11.196-23.563c2.91-4.187,6.064-8.195,9.222-12.195C761.865,350.905,760.462,349.484,759.667,350.491
						L759.667,350.491z"/>
				</g>
				<g>
					<path style="fill:#633626;" d="M729.681,398.034c0.18,4.635,0.514,9.161,1.87,13.621c0.997,3.279,2.458,5.891,5.41,7.769
						c1.086,0.691,2.088-1.035,1.007-1.723c-2.702-1.719-3.783-4.166-4.661-7.137c-1.212-4.1-1.467-8.281-1.631-12.53
						C731.627,396.754,729.631,396.747,729.681,398.034L729.681,398.034z"/>
				</g>
				<g>
					<path style="fill:#633626;" d="M800.247,267.855c-0.843,4.089-0.874,8.357,0.064,12.432c1.339,5.819,4.768,10.818,9.525,14.376
						c1.028,0.77,2.024-0.962,1.007-1.723c-7.633-5.711-10.562-15.393-8.672-24.556C802.43,267.133,800.507,266.597,800.247,267.855
						L800.247,267.855z"/>
				</g>
				<g>
					<path style="fill:#633626;" d="M837.241,266.194c1.08,7.607,0.326,15.339-2.302,22.564c-0.44,1.208,1.488,1.729,1.924,0.53
						c2.759-7.585,3.433-15.657,2.302-23.625C838.985,264.397,837.063,264.936,837.241,266.194L837.241,266.194z"/>
				</g>
				<g>
					<path style="fill:#633626;" d="M888.355,307.63c11.245,14.124,19.512,31.598,18.105,50.045
						c-0.415,5.441-1.743,10.757-3.05,16.038c-0.308,1.246,1.615,1.778,1.924,0.53c1.183-4.779,2.351-9.57,2.918-14.469
						c0.551-4.756,0.436-9.559-0.219-14.299c-1.29-9.333-4.703-18.262-9.404-26.397c-2.61-4.516-5.617-8.782-8.864-12.86
						C888.966,305.215,887.563,306.635,888.355,307.63L888.355,307.63z"/>
				</g>
				<g>
					<path style="fill:#633626;" d="M911.646,362.707c3.153,3.168,3.472,7.999,4.026,12.192c0.338,2.56,0.685,5.118,1.015,7.678
						c0.318,2.469,0.578,4.955-0.045,7.397c-0.317,1.245,1.606,1.776,1.924,0.53c0.669-2.625,0.459-5.271,0.116-7.928
						c-0.372-2.882-0.761-5.762-1.142-8.642c-0.591-4.472-1.143-9.282-4.483-12.639
						C912.149,360.385,910.739,361.796,911.646,362.707L911.646,362.707z"/>
				</g>
			</g>
			<path style="fill:#FFC0AF;" d="M795.31,393.185c-0.48-6.085-5.499-11.743-11.57-13.45c-8.573-2.409-16.294,3.888-19.743,8.936
				c-3.033,4.44-5.932,12.555-2.078,18.807c2.48,4.025,6.661,5.497,8.067,5.992c0.84,0.296,6.826,2.298,13.13-0.692
				c4.648-2.205,6.867-5.889,8.489-8.579C793.541,400.984,795.655,397.563,795.31,393.185z"/>
			<g>
				<g>
					<path style="fill:#ED947B;" d="M868.433,438.876c-5.822,5.083-9.631,12.256-10.601,19.922c-0.245,1.939-0.065,3.99-0.55,5.889
						c-0.52,2.037-2.231,3.423-4.071,4.28c-3.43,1.597-7.54,1.226-10.657-0.88c-1.067-0.721-2.066,1.007-1.007,1.723
						c4.807,3.248,12.241,2.846,16.155-1.704c2.261-2.628,1.7-6.172,2.134-9.37c0.451-3.32,1.488-6.572,3.022-9.549
						c1.748-3.392,4.111-6.391,6.984-8.899C870.813,439.441,869.397,438.035,868.433,438.876L868.433,438.876z"/>
				</g>
				<g>
					<path style="fill:#ED947B;" d="M835.881,454.306c-0.847,1.207-1.487,2.568-1.885,3.987c-0.204,0.726-0.333,1.47-0.414,2.219
						c-0.092,0.843-0.018,1.57,0.516,2.258c0.331,0.426,1.063,0.347,1.411,0c0.421-0.42,0.331-0.984,0-1.411
						c0.121,0.156,0.01-0.114,0.031,0.015c-0.023-0.143-0.01-0.3-0.001-0.443c0.015-0.249,0.045-0.512,0.076-0.71
						c0.091-0.595,0.231-1.183,0.411-1.757c0.354-1.129,0.888-2.17,1.578-3.152c0.31-0.441,0.08-1.109-0.358-1.365
						C836.748,453.657,836.192,453.864,835.881,454.306L835.881,454.306z"/>
				</g>
				<path style="fill:#7D4E3D;" d="M893.155,448.003c0.292-0.659,0.368-1.459,0-2.909c-0.426-1.677-1.255-3.47-4.26-7.066
					c-3.363-4.024-4.324-4.17-4.884-4.156c-1.369,0.033-2.591,1.076-3.221,2.078c-0.915,1.458-0.681,2.997-0.623,3.325
					c0.23,1.305,0.866,1.645,4.884,5.923c1.702,1.812,2.54,2.726,2.598,2.806c0.755,1.043,1.067,1.748,1.974,2.182
					c0.018,0.008,0.026,0.013,0.041,0.019C890.733,450.679,892.538,449.397,893.155,448.003z"/>
				<path style="fill:#7D4E3D;" d="M864.684,427.429c1.231-0.324,2.11-1.34,2.39-1.663c0.093-0.108,1.855-2.224,1.324-4.661
					c-0.26-1.192-0.958-1.96-2.224-3.166c0,0-5.44-5.186-11.605-8.646c-0.791-0.444-1.532-0.808-1.589-0.833
					c-0.801-0.363-1.618-0.692-2.422-1.047c-3.985-1.569-8.487-2.599-12.338-1.475c-0.368,0.107-0.927,0.29-1.111,0.748
					c-0.428,1.072,1.538,2.76,1.91,3.079c1.175,1.008,2.083,1.313,3.429,1.974c1.359,0.668,2.437,1.395,4.592,2.85
					c1.939,1.309,3.181,2.393,5.487,4.423C860.843,426.333,862.664,427.961,864.684,427.429z"/>
				<path style="fill:#301F19;" d="M844.396,432.515c-2.707,3.884-6.867,5.663-9.292,3.973c-2.425-1.69-2.196-6.208,0.512-10.093
					c2.707-3.884,6.867-5.663,9.292-3.973C847.332,424.112,847.103,428.631,844.396,432.515z"/>
				<path style="fill:#301F19;" d="M880.32,455.975c-2.193,3.798-5.892,5.767-8.263,4.398c-2.371-1.369-2.515-5.557-0.322-9.355
					s5.892-5.767,8.263-4.398C882.368,447.989,882.512,452.177,880.32,455.975z"/>
			</g>
			<g>
				<path style="fill:#ED947B;" d="M779.899,392.411c-3.334,2.671-5.617,6.63-6.251,10.856c-0.08,0.532,0.134,1.072,0.697,1.227
					c0.471,0.13,1.147-0.161,1.227-0.697c0.592-3.939,2.63-7.485,5.738-9.975c0.421-0.337,0.352-1.059,0-1.411
					C780.893,391.996,780.32,392.073,779.899,392.411L779.899,392.411z"/>
			</g>
			<g>
				<path style="fill:#ED947B;" d="M760.956,408.056c1.631,5.143,5.8,8.939,10.984,10.36c1.24,0.34,1.769-1.584,0.53-1.924
					c-4.499-1.234-8.17-4.488-9.59-8.967C762.494,406.306,760.567,406.827,760.956,408.056L760.956,408.056z"/>
			</g>
		</g>
		<g>
			<path style="fill:#373B4F;" d="M889.826,1679.302c-0.539,20.244-0.214,40.506,0.976,60.723c0.075,1.276,2.071,1.285,1.995,0
				c-1.19-20.217-1.515-40.478-0.976-60.723C891.855,1678.017,889.86,1678.018,889.826,1679.302L889.826,1679.302z"/>
		</g>
		<g>
			<path style="fill:#D9B1A3;" d="M631.995,495.938c-7.999,11.182-16.247,22.23-23.922,33.638
				c-7.166,10.652-12.51,22.116-16.714,34.227c-2.362,6.805-4.424,13.708-6.481,20.61c-0.243,0.815,0.731,1.597,1.465,1.127
				c9.791-6.278,20.579-10.687,31.396-14.848c5.393-2.074,10.825-4.371,16.555-5.327c5.66-0.944,11.108,0.052,16.087,2.88
				c2.336,1.327,4.505,2.929,6.559,4.656c1.899,1.596,3.681,3.819,5.943,4.897c2.29,1.091,4.962,0.411,7.4,0.566
				c2.29,0.145,4.542,0.687,6.683,1.503c9.182,3.497,15.838,11.766,20.667,19.986c5.858,9.973,10.345,20.957,18.633,29.27
				c0.908,0.91,2.319-0.5,1.411-1.411c-14.465-14.508-17.753-38.414-37.093-48.392c-4.402-2.271-8.931-3.09-13.846-2.918
				c-1.454,0.051-2.703-0.077-3.905-0.958c-1.151-0.843-2.149-1.923-3.219-2.866c-1.99-1.752-4.07-3.419-6.291-4.871
				c-4.486-2.935-9.552-4.794-14.961-4.713c-6.011,0.09-11.769,2.191-17.317,4.305c-12.257,4.671-24.62,9.407-35.71,16.519
				c0.488,0.375,0.977,0.751,1.465,1.127c3.643-12.223,7.293-24.52,12.64-36.13c5.449-11.834,13.1-22.265,20.646-32.815
				c4.543-6.351,9.086-12.703,13.63-19.054C634.466,495.899,632.736,494.902,631.995,495.938L631.995,495.938z"/>
		</g>
		<g>
			<path style="fill:#D9B1A3;" d="M845.979,499.379c10.047,11.621,18.365,24.708,24.614,38.744c1.638,3.68,4.518,8.731,2.741,12.812
				c0.375-0.153,0.751-0.306,1.126-0.458c-11.204-2.231-22.408-4.462-33.612-6.693c-5.45-1.085-10.929-2.471-16.434-3.227
				c-2.133-0.293-4.211-0.06-5.924,1.335c-1.637,1.333-2.575,3.306-3.478,5.164c-4.927,10.145-9.841,20.297-14.771,30.441
				c-2.039,4.194-4.195,8.61-7.91,11.59c-1.909,1.531-4.17,2.547-6.127,4.01c-1.824,1.364-3.294,3.076-4.506,4.998
				c-1.442,2.287-2.505,4.786-3.592,7.254c-1.263,2.867-2.52,5.736-3.772,8.607c-2.57,5.894-5.118,11.797-7.644,17.71
				c-0.499,1.168,1.219,2.185,1.723,1.007c4.254-9.954,8.356-20.031,12.989-29.816c0.997-2.106,2.113-4.205,3.642-5.978
				c1.558-1.806,3.523-3.004,5.541-4.226c3.963-2.402,6.789-5.571,9.051-9.601c2.476-4.411,4.53-9.083,6.737-13.631
				c2.447-5.043,4.894-10.086,7.341-15.129c1.157-2.385,2.294-4.782,3.475-7.156c0.88-1.768,1.98-3.889,4.013-4.508
				c2.455-0.747,5.489,0.365,7.913,0.847c2.679,0.534,5.359,1.067,8.038,1.6c12.26,2.441,24.519,4.882,36.779,7.323
				c0.393,0.078,0.945-0.042,1.127-0.458c1.603-3.68,0.372-7.458-1.086-10.974c-1.568-3.78-3.277-7.501-5.132-11.148
				c-3.731-7.336-8.039-14.379-12.873-21.04c-2.702-3.724-5.566-7.329-8.575-10.81C846.549,496.996,845.143,498.412,845.979,499.379
				L845.979,499.379z"/>
		</g>
		<g>
			<path style="fill:#D9B1A3;" d="M685.416,475.953c-3.716,2.537-7.389,5.179-10.861,8.044c-3.22,2.656-5.953,5.714-7.77,9.502
				c-3.957,8.251-3.679,17.555-3.306,26.473c0.053,1.279,2.049,1.286,1.995,0c-0.356-8.519-0.753-17.57,3.034-25.466
				c1.75-3.649,4.357-6.541,7.458-9.098c3.342-2.756,6.882-5.291,10.458-7.732C687.477,476.957,686.48,475.227,685.416,475.953
				L685.416,475.953z"/>
		</g>
		<g>
			<path style="fill:#D9B1A3;" d="M793.288,511.548c2.615,1.397,4.659,3.509,6.703,5.616c1.928,1.987,3.838,3.995,5.613,6.121
				c3.503,4.197,6.419,8.938,7.267,14.418c0.196,1.265,2.118,0.728,1.924-0.53c-0.878-5.68-3.921-10.617-7.521-14.987
				c-1.847-2.242-3.85-4.349-5.871-6.433c-2.158-2.225-4.346-4.453-7.106-5.928C793.163,509.221,792.154,510.942,793.288,511.548
				L793.288,511.548z"/>
		</g>
		<g>
			<path style="fill:#ED947B;" d="M730.212,530.063c4.724-2.681,10.415-1.403,15.552-1.201c5.662,0.224,11.341-0.682,16.673-2.585
				c1.201-0.428,0.683-2.357-0.53-1.924c-5.603,1.999-11.475,2.817-17.411,2.447c-5.152-0.32-10.585-1.132-15.291,1.539
				C728.089,528.974,729.093,530.699,730.212,530.063L730.212,530.063z"/>
		</g>
		<g>
			<path style="fill:#ED947B;" d="M817.098,466.82c2.699,4.567,6.336,8.677,10.606,11.838c5.069,3.752,11.266,5.674,17.55,5.74
				c1.284,0.013,1.285-1.982,0-1.995c-5.958-0.062-11.742-1.914-16.543-5.468c-3.985-2.951-7.376-6.868-9.89-11.122
				C818.167,464.709,816.442,465.711,817.098,466.82L817.098,466.82z"/>
		</g>
		<g>
			<path style="fill:#1F2330;" d="M660.849,725.733c7.468,0.892,14.903,1.629,22.433,1.664c1.284,0.006,1.286-1.989,0-1.995
				c-7.53-0.035-14.965-0.772-22.433-1.664C659.577,723.586,659.588,725.583,660.849,725.733L660.849,725.733z"/>
		</g>
		<g>
			<path style="fill:#1F2330;" d="M801.589,717.643c7.959-2.834,15.468-6.796,22.274-11.803c1.023-0.753,0.029-2.485-1.007-1.723
				c-6.665,4.904-14.001,8.826-21.797,11.602C799.858,716.147,800.375,718.075,801.589,717.643L801.589,717.643z"/>
		</g>
	</g>
</g>
</svg>
