<?xml version="1.0" encoding="utf-8"?>
<!-- Generator: Adobe Illustrator 27.5.0, SVG Export Plug-In . SVG Version: 6.00 Build 0)  -->
<svg version="1.1" xmlns="http://www.w3.org/2000/svg" xmlns:xlink="http://www.w3.org/1999/xlink" x="0px" y="0px"
	 viewBox="0 0 750 500" style="enable-background:new 0 0 750 500;" xml:space="preserve">
<g id="BACKGROUND">
	<rect style="fill:#FBC8C8;" width="750" height="500"/>
</g>
<g id="OBJECTS">
	<g>
		<g>
			<g style="opacity:0.2;">
				<g>
					<path style="fill:#FFE6E6;" d="M625.673,416.092c30.606-40.259,65.312-130.796,12.262-171.388
						c-53.05-40.593-91.506,11.348-148.313-56.142C409.9,93.848,257.207,107.57,247.908,207.769
						c-0.221,2.382-4.381,58.891-61.753,61.962c-66.346,3.551-100.546,24.079-100.843,56.035
						c-0.192,20.677,10.836,74.075,73.713,120.218l442.272-0.55C611.414,434.714,619.299,424.476,625.673,416.092z"/>
				</g>
			</g>
			<g>
				<path style="fill:none;stroke:#FFE6E6;stroke-width:1.4942;stroke-linecap:round;stroke-miterlimit:10;" d="M112.539,446.044
					c-8.175-16.764-9.535-29.984-2.269-35.584c11.446-8.821,39.148-1.61,56.344,4.177c5.077,1.709,9.643-3.594,7.21-8.366
					c-16.14-31.645-50.532-107.842-15.73-122.319c29.095-12.103,54.941,34.826,69.19,68.255c3.339,7.833,14.72,7.285,17.177-0.867
					c5.937-19.696,14.936-28.86,21.418-33.079c4.655-3.03,10.6-3.41,15.534-0.859c33.671,17.404,34.89,100.131,34.155,128.39"/>
				<path style="fill:none;stroke:#FFE6E6;stroke-width:1.4942;stroke-linecap:round;stroke-miterlimit:10;" d="M613.811,445.223
					c6.85-14.136,7.968-25.273,1.837-29.974c-9.658-7.405-32.974-1.274-47.445,3.636c-4.272,1.45-8.129-3.007-6.089-7.03
					c13.527-26.685,42.332-90.93,12.992-103.05c-24.529-10.133-46.199,29.446-58.13,57.629c-2.795,6.604-12.381,6.166-14.468-0.694
					c-5.042-16.576-12.64-24.275-18.108-27.815c-3.927-2.542-8.934-2.849-13.085-0.691c-28.321,14.728-29.175,84.404-28.497,108.202
					"/>
				<g>
					<g>
						<path style="fill:none;stroke:#1D0A03;stroke-width:1.5463;stroke-linecap:round;stroke-miterlimit:10;" d="M632.447,409.706
							c0,0-23.046-17.075-13.865-40.769c9.181-23.694,18.365-44.099,17.03-59.227c-1.334-15.129,10.473-42.115,27.586-34.9
							c17.113,7.215,4.654,39.465,4.654,39.465s-10.487,30.932,0.056,45.391C678.452,374.125,643.63,409.691,632.447,409.706z"/>
						
							<line style="fill:none;stroke:#1D0A03;stroke-width:1.5463;stroke-linecap:round;stroke-miterlimit:10;" x1="657.975" y1="306.392" x2="625.913" y2="445.237"/>
						
							<line style="fill:none;stroke:#1D0A03;stroke-width:1.5463;stroke-linecap:round;stroke-miterlimit:10;" x1="640.585" y1="301.759" x2="652.294" y2="329.51"/>
						
							<line style="fill:none;stroke:#1D0A03;stroke-width:1.5463;stroke-linecap:round;stroke-miterlimit:10;" x1="630.552" y1="352.57" x2="641.78" y2="374.801"/>
						
							<line style="fill:none;stroke:#1D0A03;stroke-width:1.5463;stroke-linecap:round;stroke-miterlimit:10;" x1="660.859" y1="366.258" x2="640.214" y2="383.953"/>
						
							<line style="fill:none;stroke:#1D0A03;stroke-width:1.5463;stroke-linecap:round;stroke-miterlimit:10;" x1="658.295" y1="334.709" x2="649.63" y2="344.027"/>
					</g>
					<g>
						<g>
							<path style="fill:none;stroke:#1D0A03;stroke-width:1.5463;stroke-linecap:round;stroke-miterlimit:10;" d="M146.375,445.869
								c-1.98-36.058-8.025-71.892-17.983-106.605c-9.128-31.82-22.252-63.77-46.388-86.427"/>
							<g>
								<path style="fill:#FFFFFF;" d="M83.842,255.123c0.74,0.058,1.387-0.494,1.446-1.234c0.058-0.74-0.494-1.387-1.234-1.446
									c-0.74-0.058-1.387,0.494-1.445,1.234C82.55,254.417,83.102,255.064,83.842,255.123z"/>
								<path style="fill:#FFFFFF;" d="M89.559,258.271c0.74,0.058,1.387-0.494,1.446-1.234c0.059-0.74-0.494-1.387-1.234-1.446
									c-0.74-0.058-1.387,0.494-1.446,1.234C88.266,257.565,88.819,258.212,89.559,258.271z"/>
								<path style="fill:#FFFFFF;" d="M84.83,259.692c0.74,0.058,1.387-0.494,1.446-1.234c0.058-0.74-0.494-1.387-1.234-1.446
									c-0.74-0.058-1.387,0.494-1.446,1.234C83.537,258.986,84.09,259.633,84.83,259.692z"/>
								<path style="fill:#FFFFFF;" d="M88.952,261.366c0.74,0.059,1.387-0.494,1.446-1.234c0.059-0.74-0.494-1.387-1.234-1.446
									c-0.74-0.059-1.387,0.494-1.445,1.234C87.66,260.66,88.213,261.307,88.952,261.366z"/>
								<path style="fill:#FFFFFF;" d="M87.051,255.876c0.74,0.058,1.387-0.494,1.445-1.234c0.059-0.74-0.494-1.387-1.234-1.445
									c-0.74-0.058-1.387,0.494-1.445,1.234C85.759,255.17,86.312,255.818,87.051,255.876z"/>
								<path style="fill:#FFFFFF;" d="M88.104,265.313c0.74,0.058,1.387-0.494,1.446-1.234c0.058-0.74-0.494-1.387-1.234-1.446
									c-0.74-0.059-1.387,0.494-1.446,1.234C86.812,264.607,87.364,265.254,88.104,265.313z"/>
								<path style="fill:#FFFFFF;" d="M92.845,264.339c0.74,0.058,1.387-0.494,1.445-1.234c0.058-0.74-0.494-1.387-1.234-1.446
									c-0.74-0.058-1.387,0.494-1.446,1.234C91.553,263.634,92.105,264.281,92.845,264.339z"/>
							</g>
						</g>
						<g>
							<path style="fill:none;stroke:#1D0A03;stroke-width:1.5463;stroke-linecap:round;stroke-miterlimit:10;" d="M77.84,302.117
								c0,0,31.361,66.576,44.895,143.782"/>
							<g>
								<path style="fill:#FFFFFF;" d="M77.834,300.334c-0.405,0.622-1.237,0.798-1.859,0.394c-0.622-0.405-0.798-1.238-0.394-1.86
									c0.405-0.622,1.237-0.798,1.859-0.394C78.062,298.88,78.238,299.712,77.834,300.334z"/>
								<path style="fill:#FFFFFF;" d="M76.844,306.784c-0.405,0.622-1.237,0.798-1.859,0.394c-0.622-0.405-0.798-1.237-0.394-1.859
									c0.405-0.622,1.237-0.798,1.859-0.393C77.072,305.329,77.248,306.162,76.844,306.784z"/>
								<path style="fill:#FFFFFF;" d="M80.854,303.902c-0.405,0.622-1.237,0.798-1.859,0.393c-0.622-0.405-0.798-1.237-0.394-1.859
									c0.405-0.622,1.237-0.799,1.86-0.394C81.082,302.448,81.258,303.28,80.854,303.902z"/>
								<path style="fill:#FFFFFF;" d="M79.666,308.191c-0.405,0.622-1.237,0.798-1.859,0.393c-0.622-0.405-0.798-1.237-0.394-1.859
									c0.405-0.622,1.237-0.798,1.859-0.393C79.895,306.736,80.071,307.569,79.666,308.191z"/>
								<path style="fill:#FFFFFF;" d="M76.474,303.337c-0.405,0.622-1.237,0.798-1.859,0.394c-0.622-0.405-0.798-1.237-0.394-1.86
									c0.405-0.622,1.237-0.798,1.859-0.393C76.703,301.883,76.879,302.715,76.474,303.337z"/>
								<path style="fill:#FFFFFF;" d="M83.312,309.925c-0.405,0.622-1.237,0.798-1.859,0.393c-0.622-0.405-0.798-1.237-0.394-1.859
									c0.405-0.622,1.237-0.798,1.859-0.394C83.541,308.47,83.717,309.303,83.312,309.925z"/>
								<path style="fill:#FFFFFF;" d="M79.65,313.089c-0.405,0.622-1.237,0.798-1.859,0.393c-0.622-0.405-0.798-1.237-0.393-1.859
									c0.405-0.622,1.237-0.798,1.859-0.394C79.879,311.635,80.055,312.467,79.65,313.089z"/>
							</g>
						</g>
					</g>
				</g>
			</g>
		</g>
		<g>
			<g>
				<g>
					<g>
						<path style="fill:none;stroke:#1D0A03;stroke-width:1.6361;stroke-linecap:round;stroke-miterlimit:10;" d="M346.433,78.07
							c2.414,10.773-4.363,21.464-15.137,23.877c-10.773,2.414-21.464-4.363-23.878-15.137
							c-2.414-10.773,4.363-21.464,15.137-23.878C333.329,60.519,344.019,67.296,346.433,78.07z"/>
						<g>
							<path style="fill:none;stroke:#1D0A03;stroke-width:1.6361;stroke-linecap:round;stroke-miterlimit:10;" d="M320.785,78.113
								c0,0-0.926-1.795-3.308-1.256c-2.25,0.509-2.455,2.548-2.455,2.548"/>
							<path style="fill:none;stroke:#1D0A03;stroke-width:1.6361;stroke-linecap:round;stroke-miterlimit:10;" d="M335.159,74.893
								c0,0-0.926-1.795-3.308-1.256c-2.25,0.509-2.456,2.548-2.456,2.548"/>
						</g>
					</g>
					<path style="fill:none;stroke:#1D0A03;stroke-width:1.6361;stroke-linecap:round;stroke-miterlimit:10;" d="M321.981,87.252
						c0,0,5.941,2.051,10.661-2.389"/>
				</g>
				<g>
					<g>
						<path style="fill:none;stroke:#1D0A03;stroke-width:1.6361;stroke-linecap:round;stroke-miterlimit:10;" d="M144.127,260.734
							c1.381,7.983-3.972,15.574-11.955,16.955c-7.983,1.38-15.574-3.972-16.955-11.955c-1.381-7.983,3.972-15.574,11.955-16.955
							C135.156,247.398,142.747,252.751,144.127,260.734z"/>
						<g>
							<path style="fill:none;stroke:#1D0A03;stroke-width:1.6361;stroke-linecap:round;stroke-miterlimit:10;" d="M125.327,259.841
								c0,0-0.614-1.349-2.379-1.04c-1.667,0.292-1.892,1.779-1.892,1.779"/>
							<path style="fill:none;stroke:#1D0A03;stroke-width:1.6361;stroke-linecap:round;stroke-miterlimit:10;" d="M135.979,257.999
								c0,0-0.614-1.349-2.379-1.04c-1.667,0.292-1.892,1.779-1.892,1.779"/>
						</g>
					</g>
					<path style="fill:none;stroke:#1D0A03;stroke-width:1.6361;stroke-linecap:round;stroke-miterlimit:10;" d="M125.874,266.583
						c0,0,4.28,1.717,7.9-1.366"/>
				</g>
				<g>
					<g>
						<path style="fill:none;stroke:#1D0A03;stroke-width:1.6361;stroke-linecap:round;stroke-miterlimit:10;" d="M539.929,167.142
							c-1.672,7.46-9.075,12.153-16.536,10.481c-7.46-1.672-12.153-9.075-10.481-16.536c1.672-7.46,9.075-12.153,16.536-10.481
							C536.909,152.278,541.601,159.682,539.929,167.142z"/>
						<g>
							<path style="fill:#1D0A03;" d="M523.509,158.558c-0.26,1.159-1.044,1.97-1.751,1.812c-0.707-0.159-1.07-1.227-0.81-2.386
								c0.26-1.159,1.044-1.97,1.751-1.812C523.406,156.331,523.769,157.399,523.509,158.558z"/>
							<path style="fill:#1D0A03;" d="M533.641,160.828c-0.26,1.159-1.044,1.97-1.751,1.812c-0.707-0.158-1.07-1.227-0.81-2.386
								c0.26-1.159,1.044-1.97,1.751-1.812C533.538,158.601,533.9,159.669,533.641,160.828z"/>
						</g>
					</g>
					<path style="fill:none;stroke:#1D0A03;stroke-width:1.6361;stroke-linecap:round;stroke-miterlimit:10;" d="M527.153,166.096
						c0,0,1.977,0.792,1.76,2.049c-0.216,1.257-2.392,0.77-2.392,0.77s2.233,0.827,1.78,1.966c-0.452,1.139-2.337,0.52-2.337,0.52"
						/>
					<path style="fill-rule:evenodd;clip-rule:evenodd;fill:#FFFFFF;" d="M536.751,166.748c-0.589-0.802-1.67-0.997-2.504-0.385
						c-1.123,0.824-1.127,2.703-1.571,5.597c2.894,0.444,4.687,1.005,5.81,0.18c0.835-0.612,0.973-1.701,0.385-2.504
						c-0.471-0.642-1.312-0.913-2.023-0.738C537.229,168.274,537.222,167.39,536.751,166.748L536.751,166.748z"/>
				</g>
				<g>
					<g>
						<g>
							
								<circle style="fill:none;stroke:#1D0A03;stroke-width:1.6361;stroke-linecap:round;stroke-miterlimit:10;" cx="604.08" cy="282.158" r="11.853"/>
						</g>
					</g>
					<path style="fill:#FFFFFF;" d="M608.309,280.892c-0.005-0.155-0.025-0.314-0.061-0.474c-0.208-0.926-0.977-1.657-1.91-1.828
						c-0.967-0.177-1.842,0.228-2.369,0.913c-0.443-0.577-1.133-0.955-1.917-0.955c-1.339,0-2.425,1.086-2.425,2.425
						c0,0.081,0.011,0.174,0.029,0.272c0.09,0.499,0.349,0.952,0.708,1.311l3.447,3.448l3.66-3.288
						C607.991,282.249,608.332,281.589,608.309,280.892z"/>
				</g>
				<g>
					<g>
						<g>
							
								<circle style="fill:none;stroke:#1D0A03;stroke-width:1.6361;stroke-linecap:round;stroke-miterlimit:10;" cx="226.119" cy="147.281" r="11.853"/>
						</g>
					</g>
					<path style="fill:#FFFFFF;" d="M230.112,145.164c-0.035-0.151-0.085-0.303-0.151-0.454c-0.382-0.868-1.278-1.439-2.226-1.426
						c-0.983,0.012-1.764,0.578-2.149,1.352c-0.546-0.481-1.295-0.719-2.064-0.568c-1.314,0.258-2.171,1.532-1.913,2.846
						c0.016,0.079,0.044,0.169,0.081,0.262c0.185,0.473,0.526,0.867,0.947,1.15l4.046,2.72l2.959-3.931
						C230.061,146.557,230.269,145.844,230.112,145.164z"/>
				</g>
			</g>
			<g>
				<path style="fill:#FFFFFF;" d="M192.529,173.413c-0.096-0.414-0.232-0.83-0.414-1.243c-1.046-2.378-3.499-3.939-6.096-3.906
					c-2.693,0.034-4.83,1.582-5.884,3.702c-1.495-1.316-3.547-1.969-5.653-1.556c-3.599,0.706-5.944,4.195-5.239,7.794
					c0.043,0.218,0.122,0.463,0.221,0.717c0.505,1.294,1.44,2.375,2.593,3.149l11.08,7.448l8.104-10.764
					C192.389,177.228,192.958,175.274,192.529,173.413z"/>
				<path style="fill:#FFFFFF;" d="M605.727,206.848c0.131-0.405,0.227-0.831,0.283-1.279c0.324-2.577-0.98-5.176-3.226-6.482
					c-2.328-1.353-4.957-1.122-6.95,0.156c-0.607-1.897-2.033-3.511-4.052-4.238c-3.45-1.242-7.255,0.548-8.497,3.999
					c-0.075,0.209-0.133,0.46-0.179,0.728c-0.23,1.37,0.017,2.777,0.608,4.034l5.685,12.079l12.48-5.076
					C603.648,210.051,605.14,208.666,605.727,206.848z"/>
				<path style="fill:#FFFFFF;" d="M383.445,56.969c0.022-0.291,0.017-0.591-0.018-0.898c-0.201-1.77-1.489-3.291-3.197-3.798
					c-1.77-0.525-3.484,0.054-4.606,1.227c-0.711-1.166-1.922-2.011-3.385-2.169c-2.5-0.27-4.745,1.537-5.015,4.037
					c-0.016,0.151-0.014,0.328-0.001,0.514c0.068,0.95,0.46,1.848,1.057,2.589l5.739,7.13l7.495-5.399
					C382.578,59.438,383.348,58.275,383.445,56.969z"/>
			</g>
		</g>
	</g>
	<g>
		<g>
			<g>
				<g>
					<path style="fill:#FF8095;" d="M422.936,94.51c-7.754,1.495-15.763,2.779-21.626,2.69c1.952-13.286,5.117-23.019,8.358-31.678
						c0.846-2.228,1.634-4.282,2.238-5.847c0.193-0.497,0.385-0.994,0.577-1.487c-0.001,0-0.001,0-0.001,0
						c0.364-0.94,0.581-1.495,0.581-1.495c0,0,3.31-3.97,5.433-3.991c0.052-0.304-0.122-0.83-0.516-0.964
						c-1.55-0.524-3.095,0.369-3.095,0.369s2.626-7.189,1.899-7.182c-0.726,0.008-2.502,3.602-2.502,3.602s2.097-5.727,1.392-5.491
						c-0.272,0.091,0,0-2.599,4.645c0,0,0.948-4.696,0.283-4.086c-0.836,0.766-2.151,4.085-2.151,4.085s0.69-3.64,0.176-3.116
						c-0.514,0.524-3.742,9.691-3.742,9.691l-1.699,2.782l0,0c-1.263,2.292-2.362,4.459-3.323,6.514l-1.306,2.479
						c-15.523,29.102-11.096,40.013-10.085,40.984c1.187,2.233,17.003,2.167,33.476,0.782c3.218-0.27,5.795-2.802,6.071-6.02
						c0.006-0.066,0.011-0.133,0.017-0.199C431.159,97.206,427.246,93.679,422.936,94.51z"/>
					<polygon style="fill:#8D95B9;" points="432.272,93.385 403.626,96.701 404.093,112.288 429.638,111.262 					"/>
				</g>
				<g>
					<g>
						<g>
							<circle style="fill:#1F1D2E;" cx="433.313" cy="71.749" r="12.865"/>
							<path style="fill:#1F1D2E;" d="M451.037,55.966c0,5.158-4.181,9.34-9.34,9.34c-5.158,0-9.34-4.182-9.34-9.34
								c0-5.158,4.181-9.34,9.34-9.34C446.855,46.627,451.037,50.808,451.037,55.966z"/>
						</g>
						<g>
							<g>
								<g>
									<polygon style="fill:#FF8E9C;" points="427.837,82.803 426.935,98.856 438.47,98.671 437.648,85.428 									"/>
									<path style="fill:#F96B80;" d="M427.475,89.319c5.998,1.573,10.173-3.89,10.173-3.89l-9.811-2.625L427.475,89.319z"/>
								</g>
								<g>
									<path style="fill:#FF8E9C;" d="M443.848,72.342c0,8.046-4.532,14.652-11.088,14.652c-6.514,0-11.088-6.605-11.088-14.652
										c0-8.046,2.774-11.471,11.088-11.471C441.074,60.871,443.848,64.296,443.848,72.342z"/>
									<g>
										<g>
											<defs>
												<path id="SVGID_1_" d="M443.848,72.342c0,8.046-4.532,14.652-11.088,14.652c-6.514,0-11.088-6.605-11.088-14.652
													c0-8.046,2.95-10.032,11.263-10.032C441.249,62.31,443.848,64.296,443.848,72.342z"/>
											</defs>
											<clipPath id="SVGID_00000178925494869122281600000005796328543182380470_">
												<use xlink:href="#SVGID_1_"  style="overflow:visible;"/>
											</clipPath>
											<path style="clip-path:url(#SVGID_00000178925494869122281600000005796328543182380470_);fill:#FF7686;" d="
												M426.49,79.568c0,1.458-1.31,2.64-2.926,2.64c-1.616,0-2.925-1.182-2.925-2.64c0-1.458,1.31-2.64,2.925-2.64
												C425.18,76.928,426.49,78.11,426.49,79.568z"/>
											<path style="clip-path:url(#SVGID_00000178925494869122281600000005796328543182380470_);fill:#FF7686;" d="
												M444.773,79.437c0,1.458-1.31,2.64-2.926,2.64s-2.926-1.182-2.926-2.64c0-1.458,1.31-2.64,2.926-2.64
												S444.773,77.979,444.773,79.437z"/>
										</g>
										<g>
											<g>
												<path style="fill:#FF8E9C;" d="M423.564,75.711c0,1.369-1.11,2.48-2.479,2.48c-1.37,0-2.48-1.11-2.48-2.48
													s1.11-2.479,2.48-2.479C422.454,73.231,423.564,74.341,423.564,75.711z"/>
											</g>
											<g>
												<path style="fill:#FF8E9C;" d="M442.831,75.711c0,1.369,1.11,2.48,2.48,2.48c1.369,0,2.479-1.11,2.479-2.48
													s-1.11-2.479-2.479-2.479C443.941,73.231,442.831,74.341,442.831,75.711z"/>
												<path style="fill:none;stroke:#0F1B3C;stroke-width:0.3667;stroke-linecap:round;stroke-miterlimit:10;" d="
													M446.396,75.289c0,0-0.804-0.57-1.622,0.668"/>
											</g>
											<path style="fill:none;stroke:#0F1B3C;stroke-width:0.3667;stroke-linecap:round;stroke-miterlimit:10;" d="
												M419.951,75.289c0,0,0.804-0.57,1.622,0.668"/>
											<path style="fill:#0F1B3C;" d="M428.231,74.649c0,0.39-0.272,0.707-0.608,0.707c-0.336,0-0.608-0.316-0.608-0.707
												c0-0.39,0.272-0.707,0.608-0.707C427.959,73.942,428.231,74.258,428.231,74.649z"/>
											<path style="fill:#0F1B3C;" d="M438.484,74.649c0,0.39-0.272,0.707-0.608,0.707c-0.336,0-0.608-0.316-0.608-0.707
												c0-0.39,0.272-0.707,0.608-0.707C438.212,73.942,438.484,74.258,438.484,74.649z"/>
											<path style="fill:none;stroke:#0F1B3C;stroke-width:0.3667;stroke-linecap:round;stroke-miterlimit:10;" d="
												M432.311,77.813l-0.953-0.961c0.707-0.707,1.243-1.439,1.243-1.439"/>
											<path style="fill:none;stroke:#0F1B3C;stroke-width:0.3667;stroke-linecap:round;stroke-miterlimit:10;" d="
												M431.071,79.496c0,0,2.271,2.384,4.282-1.302"/>
											<g>
												<path id="XMLID_2_" style="fill:#241F1C;" d="M435.9,71.99c1.32-0.209,2.685-0.288,4.02-0.214
													c0.591,0.033,0.514,0.949-0.078,0.916c-1.259-0.07-2.536,0.006-3.782,0.203C435.478,72.987,435.314,72.082,435.9,71.99
													L435.9,71.99z"/>
												<path id="XMLID_1_" style="fill:#241F1C;" d="M429.55,72.153c-1.142-0.303-2.348-0.487-3.555-0.521
													c-0.534-0.015-0.629,0.865-0.094,0.88c1.138,0.033,2.266,0.206,3.344,0.492
													C429.749,73.138,430.057,72.288,429.55,72.153L429.55,72.153z"/>
											</g>
										</g>
									</g>
								</g>
							</g>
							<path style="fill:#1F1D2E;" d="M421.353,71.255c0,0,9.931,0.599,16.296-6.373c0,0-0.507,8.372,6.863,5.905
								c0,0,0.799-11.898-11.198-11.903C420.762,58.878,421.353,71.255,421.353,71.255z"/>
						</g>
					</g>
					<path style="fill:#8D95B9;" d="M426.935,98.856c0,0-1.666-7.304,0-6.81c9.189,2.723,12.734-1.743,12.734,1.162
						s-0.337,6.535-0.337,6.535L426.935,98.856z"/>
				</g>
			</g>
			<g>
				<g>
					<g>
						<g>
							<g>
								
									<rect x="370.429" y="148.585" transform="matrix(-1 -6.886075e-04 6.886075e-04 -1 750.6267 310.7771)" style="fill:#FF8E9C;" width="9.875" height="13.35"/>
								<g>
									<g>
										<defs>
											<path id="XMLID_90_" d="M380.301,160.342l-12.524-0.009l-9.155,4.359c-2.07,1.062-3.373,3.193-3.375,5.52l0,0
												l25.047,0.017L380.301,160.342z"/>
										</defs>
										<use xlink:href="#XMLID_90_"  style="overflow:visible;fill:#FFFFFF;"/>
										<clipPath id="XMLID_00000008871718509596367190000004280724318380854193_">
											<use xlink:href="#XMLID_90_"  style="overflow:visible;"/>
										</clipPath>
									</g>
									<path style="fill:#FFFFFF;" d="M366.757,160.801l2.821-3.816c0,0,4.411-0.802,4.023,3.993L366.757,160.801z"/>
								</g>
							</g>
							<path style="fill:#F4B65B;" d="M385.974,105.81l-2.577,45.959l-17.902-0.491l0.912-44.583
								c-0.15-6.042,4.903-10.955,11.526-10.317l0,0C381.49,96.933,386.21,100.007,385.974,105.81z"/>
							<path style="fill:#F4B65B;" d="M415.32,134.162l-31.902-34.994l-3.117,22.284l34.609,36.339
								c1.349,1.348,2.981,2.398,4.801,2.965c4.275,1.331,12.564-0.034,17.154-11.302L415.32,134.162z"/>
						</g>
						<g>
							
								<rect x="332.01" y="151.592" transform="matrix(-0.526 -0.8505 0.8505 -0.526 379.5898 528.082)" style="fill:#FF8E9C;" width="9.875" height="13.35"/>
							<g>
								<g>
									<defs>
										<path id="XMLID_89_" d="M335.225,165.138l-6.588-10.651l-8.526-5.488c-1.993-1.201-4.491-1.186-6.47,0.038l0,0
											l13.175,21.302L335.225,165.138z"/>
									</defs>
									<use xlink:href="#XMLID_89_"  style="overflow:visible;fill:#FFFFFF;"/>
									<clipPath id="XMLID_00000090263960652505789990000017153102851104500390_">
										<use xlink:href="#XMLID_89_"  style="overflow:visible;"/>
									</clipPath>
								</g>
								<path style="fill:#FFFFFF;" d="M327.702,153.865l4.73,0.389c0,0,3.005,3.328-1.276,5.523L327.702,153.865z"/>
							</g>
						</g>
						<g>
							<path style="fill:#FCC66D;" d="M418.938,136.687l-32.236-22.385l-5.634,18.439l33.842,33.84
								c1.349,1.348,2.981,2.398,4.801,2.965c4.275,1.331,12.564-0.034,17.154-11.302L418.938,136.687z"/>
							<g>
								<path style="fill:#FCC66D;" d="M387.051,135.491l-41.932,25.671l-8.419-13.834l40.996-32.937
									c5.094-3.253,11.859-0.297,12.931,5.652l0,0C391.26,123.553,390.132,133.693,387.051,135.491z"/>
							</g>
						</g>
					</g>
					<g>
						<g>
							<path style="fill:#8D95B9;" d="M432.272,93.385c0,0,6.766-1.431,10.656,14.603c4.218,17.384-5.907,51.663-5.907,51.663
								s-19.401-9.59-21.701-25.488c0,0,7.359-21.616,8.726-33.169C424.046,100.993,424.586,93.098,432.272,93.385z"/>
							<g>
								<g>
									<g>
										<g>
											<g>
												<path style="fill:#1E1E1C;" d="M396.938,97.774l-5.347,1.851c-1.164,0.403-2.607-0.26-3.223-1.48l-7.724-15.304
													c-0.616-1.221-0.171-2.536,0.993-2.939l5.347-1.851c1.164-0.403,2.607,0.26,3.223,1.48l7.724,15.304
													C398.546,96.055,398.102,97.371,396.938,97.774z"/>
												<polygon style="fill:#FFFFFF;" points="383.418,81.865 388.929,79.92 395.736,93.352 390.355,95.74 												"/>
											</g>
										</g>
									</g>
								</g>
							</g>
						</g>
					</g>
				</g>
				<g>
					<g>
						<path style="fill:#FF8E9C;" d="M426.476,107.791c-3.095,7.265-6.509,14.623-9.86,19.434
							c-9.924-9.046-16.224-17.112-21.591-24.641c-1.375-1.947-2.637-3.749-3.597-5.125c-0.304-0.438-0.608-0.875-0.911-1.31
							c0,0-0.001,0.001-0.001,0.001c-0.576-0.828-0.915-1.317-0.915-1.318c0,0-1.441-4.964-0.272-6.736
							c-0.223-0.213-0.756-0.363-1.087-0.111c-1.301,0.993-1.424,2.773-1.424,2.773s-4.493-6.196-4.893-5.59
							c-0.4,0.607,1.588,4.089,1.588,4.089s-3.575-4.94-3.774-4.224c-0.077,0.276,0,0,2.398,4.752c0,0-3.364-3.411-3.23-2.519
							c0.168,1.121,2.184,4.068,2.184,4.068s-2.632-2.607-2.485-1.888c0.147,0.719,5.943,8.521,5.943,8.521l1.357,2.964l0,0
							c1.194,2.328,2.377,4.451,3.543,6.398l1.326,2.469c15.449,29.141,26.972,31.57,28.342,31.275
							c2.515,0.264,11.303-12.886,19.364-27.317c1.575-2.819,0.917-6.372-1.597-8.399c-0.052-0.042-0.104-0.084-0.156-0.126
							C433.309,102.48,428.197,103.752,426.476,107.791z"/>
						<path style="fill:#8D95B9;" d="M419.015,123.389c0,0,8.717-30.983,16.841-23.645c8.527,7.703,4.827,20.852,4.827,20.852
							l-9.868,18.76L419.015,123.389z"/>
					</g>
					<path style="fill:none;stroke:#1D0A03;stroke-width:0.7471;stroke-linecap:round;stroke-miterlimit:10;" d="M419.015,123.389
						l11.799,15.967l5.101-8.572c2.224-3.737,3.806-7.842,4.464-12.14c0.517-3.376,0.507-7.081-1.047-9.865"/>
				</g>
			</g>
		</g>
		<g>
			<g>
				<g>
					<g>
						<path style="fill:#FF8095;" d="M523.687,249.584c-5.698,5.468-11.724,10.896-16.695,14.007
							c-5.579-12.214-8.209-22.105-10.191-31.136c-0.501-2.33-0.954-4.483-1.298-6.125c-0.108-0.522-0.216-1.044-0.324-1.562
							c-0.001,0-0.001,0-0.001,0.001c-0.205-0.987-0.325-1.571-0.324-1.571c0,0,0.622-5.131,2.393-6.303
							c-0.122-0.283-0.553-0.631-0.957-0.528c-1.586,0.402-2.398,1.992-2.398,1.992s-1.701-7.462-2.307-7.061
							c-0.606,0.401-0.144,4.384-0.144,4.384s-1.35-5.947-1.814-5.367c-0.179,0.224,0,0,0.341,5.312c0,0-1.755-4.458-1.982-3.584
							c-0.285,1.097,0.413,4.598,0.413,4.598s-1.398-3.431-1.545-2.712c-0.146,0.719,2.123,10.169,2.123,10.169l0.085,3.259l0,0
							c0.184,2.61,0.44,5.027,0.749,7.275l0.251,2.791c2.776,32.866,12.422,39.622,13.798,39.888
							c2.21,1.23,15.452-7.418,28.53-17.529c2.555-1.975,3.343-5.501,1.827-8.352c-0.031-0.059-0.063-0.117-0.094-0.176
							C532.056,247.38,526.854,246.545,523.687,249.584z"/>
						<path style="fill:#A9C9D3;" d="M528.852,245.106l-21.13,16.533l-10.554-32.832l-8.454,2.401c0,0,4.88,47.485,13.889,49.362
							c9.009,1.877,30.517-22.74,30.517-22.74L528.852,245.106z"/>
					</g>
					<g>
						<g>
							<g>
								<path style="fill:#CE6C4E;" d="M194.979,266.476c-3.265-0.829-5.314-4.064-4.668-7.37c0.722-3.695,4.482-5.954,8.083-4.855
									l24.436,8.746l22.026-25.418l4.565,3.439c0,0-15.125,28.726-22.414,33.939C224.284,276.905,194.979,266.476,194.979,266.476
									z"/>
								<g>
									<path style="fill:#CE6C4E;" d="M241.369,242.939c0.321-1.989,3.904-9.118,2.056-11.997c0.29-0.261,0.973-0.438,1.387-0.115
										c1.629,1.27,1.738,3.501,1.738,3.501s7.03-7.166,7.522-6.398c0.493,0.768-2.992,4.062-2.992,4.062s5.055-4.453,5.289-3.552
										c0.09,0.347-0.922,0.508-3.27,3.955c0,0,4.799-3.624,4.605-2.51c-0.244,1.4-2.996,3.756-2.996,3.756s3.548-1.897,3.341-1
										c-0.151,0.654-10.332,10.957-12.529,13.781C244.546,245.995,241.15,243.199,241.369,242.939z"/>
								</g>
							</g>
						</g>
						<polygon style="fill:#0885AD;" points="199.828,251.537 219.645,260.854 214.052,275.199 199.828,268.152 						"/>
					</g>
					<g>
						<path style="fill:none;stroke:#1D0A03;stroke-width:1.5463;stroke-miterlimit:10;" d="M480.028,444.949h-222.29
							c-6.406,0-11.599-5.193-11.599-11.599V181.937c0-6.406,5.193-11.599,11.599-11.599h222.29c6.406,0,11.598,5.193,11.598,11.599
							v251.414C491.626,439.757,486.434,444.949,480.028,444.949z"/>
						<g>
							<g>
								<rect x="264.396" y="187.949" style="fill:#FFFFFF;" width="208.974" height="196.855"/>
								<g>
									<defs>
										
											<rect id="SVGID_00000160908346765128615410000008906275587102132669_" x="264.396" y="187.949" width="208.974" height="196.855"/>
									</defs>
									<clipPath id="SVGID_00000075852496316773369640000003375173830934679686_">
										<use xlink:href="#SVGID_00000160908346765128615410000008906275587102132669_"  style="overflow:visible;"/>
									</clipPath>
									<g style="clip-path:url(#SVGID_00000075852496316773369640000003375173830934679686_);">
										<path style="fill:#124847;" d="M333.367,325.483c0,0,17.263-16.142,33.232-16.142c0,0,82.136-5.694,52.376,27.701
											C389.241,370.408,333.367,325.483,333.367,325.483z"/>
										<path style="fill:#1F1D2E;" d="M320.526,245.111c5.278-7.121,0-49.736,49.175-49.68
											c41.014,0.046,36.981,39.103,50.974,53.096c17.325,17.325,5.34,41.963,5.34,41.963l-113.686-0.129
											C304.769,264,313.105,255.124,320.526,245.111z"/>
										<g>
											<polygon style="fill:#FF8E9C;" points="351.37,282.525 348.357,336.157 386.895,335.54 384.151,291.296 											"/>
											<path style="fill:#F96B80;" d="M350.161,304.293c20.041,5.255,33.99-12.997,33.99-12.997l-32.781-8.77L350.161,304.293z"
												/>
										</g>
										<g>
											<g>
												<circle style="fill:#FF8E9C;" cx="409.751" cy="258.828" r="8.284"/>
												<path style="fill:none;stroke:#0F1B3C;stroke-width:1.2251;stroke-linecap:round;stroke-miterlimit:10;" d="
													M413.376,257.421c0,0-2.686-1.905-5.421,2.233"/>
											</g>
											<g>
												<g>
													<circle style="fill:#FF8E9C;" cx="328.81" cy="258.828" r="8.284"/>
												</g>
												<path style="fill:none;stroke:#0F1B3C;stroke-width:1.2251;stroke-linecap:round;stroke-miterlimit:10;" d="
													M325.023,257.421c0,0,2.686-1.905,5.42,2.233"/>
											</g>
											<g>
												<path style="fill:#FF8E9C;" d="M404.864,247.573c0,26.883-15.142,48.952-37.045,48.952
													c-21.765,0-37.046-22.068-37.046-48.952s9.269-38.325,37.046-38.325C395.595,209.248,404.864,220.69,404.864,247.573z"
													/>
												<g>
													<defs>
														<path id="SVGID_00000057138602055313488930000007919459743000260014_" d="M404.864,247.573
															c0,26.883-15.142,48.952-37.045,48.952c-21.765,0-37.046-22.068-37.046-48.952s9.269-35.828,37.046-35.828
															C395.595,211.746,404.864,220.69,404.864,247.573z"/>
													</defs>
													<clipPath id="SVGID_00000168097849499257333650000004454225437688677516_">
														<use xlink:href="#SVGID_00000057138602055313488930000007919459743000260014_"  style="overflow:visible;"/>
													</clipPath>
													
														<ellipse style="clip-path:url(#SVGID_00000168097849499257333650000004454225437688677516_);fill:#FF7686;" cx="337.095" cy="271.717" rx="9.774" ry="8.821"/>
													
														<ellipse style="clip-path:url(#SVGID_00000168097849499257333650000004454225437688677516_);fill:#FF7686;" cx="398.181" cy="271.278" rx="9.774" ry="8.821"/>
												</g>
											</g>
										</g>
										<path style="fill:#0F1B3C;" d="M352.687,255.279c0,1.304-0.909,2.361-2.03,2.361c-1.121,0-2.03-1.057-2.03-2.361
											c0-1.304,0.909-2.361,2.03-2.361C351.778,252.918,352.687,253.975,352.687,255.279z"/>
										<path style="fill:#0F1B3C;" d="M386.942,255.279c0,1.304-0.909,2.361-2.03,2.361c-1.121,0-2.03-1.057-2.03-2.361
											c0-1.304,0.909-2.361,2.03-2.361C386.033,252.918,386.942,253.975,386.942,255.279z"/>
										<g>
											<path style="fill:none;stroke:#0F1B3C;stroke-width:1.2251;stroke-linecap:round;stroke-miterlimit:10;" d="
												M366.318,265.852l-3.185-3.21c2.361-2.361,4.152-4.808,4.152-4.808"/>
											<path style="fill:none;stroke:#0F1B3C;stroke-width:1.2251;stroke-linecap:round;stroke-miterlimit:10;" d="
												M362.175,271.474c0,0,7.588,7.965,14.306-4.351"/>
										</g>
										<path style="fill:#124847;" d="M434.657,358.31c1.17-5.506-0.907-12.382-6.263-16.721
											c-9.774-7.918-28.398-16.664-41.5-18.819c-2.098,2.098-15.613,5.86-19.739,5.566c-8.575-0.612-16.429-3.547-18.087-4.848
											c-10.387,0.917-21.905,1.625-32.488,3.583c-3.102,3.682-6.496,7.136-9.733,10.698c-1.306,1.438-2.859,1.791-4.272,1.459
											c-14.429,31.213-30.086,119.575-16.006,149.44l143.872,9.118C451.484,488.826,434.657,358.31,434.657,358.31z"/>
										<g>
											<path style="fill:#124847;" d="M390.757,322.673c0,0-11.832-2.553-18.877,13.152"/>
											<path style="fill:none;stroke:#FA441F;stroke-width:0.9961;stroke-miterlimit:10;" d="M390.757,322.673
												c0,0-11.832-2.553-18.877,13.152"/>
										</g>
										<g>
											<path style="fill:#124847;" d="M344.437,319.698c0,0,12.089-0.606,16.501,16.033"/>
											<path style="fill:none;stroke:#FA441F;stroke-width:0.9961;stroke-miterlimit:10;" d="M344.437,319.698
												c0,0,12.089-0.606,16.501,16.033"/>
										</g>
										<g>
											<path style="fill:#124847;" d="M399.081,344.052c0.265-0.21-7.404-5.194-7.138-5.398
												c23.551-18.08,54.081,9.347,63.7,37.437c5.791,16.911,13.092,34.648,19.449,39.148c9.578,6.78,57.598-68.13,57.598-68.13
												l33.901,28.574c-29.981,65.921-37.758,86.834-52.47,105.863c-10.111,13.078-28.066,24.233-44.205,21.264
												c-21.9-4.03-44.676-27.764-55.059-43.656C384.547,404.634,379.502,359.546,399.081,344.052z"/>
										</g>
										<path style="fill:#1F1D2E;" d="M330.444,249.878c0,0,37.068-5.826,38.884-30.126c0,0,3.69,32.79,36.195,30.792
											c0,0,7.182-48.724-40.314-44.328C365.21,206.216,320.526,199.453,330.444,249.878z"/>
										<g>
											<path style="fill:#FF8E9C;" d="M191.631,332.793L191.631,332.793c2.723,7.792,5.503,14.937,8.305,21.523l3.075,8.288
												c2.029,5.557,4.055,10.826,6.073,15.846c6.401-6.644,12.854-13.232,19.445-19.665
												c-3.213-5.738-6.236-11.363-9.124-16.885c-3.454-6.678-6.618-12.854-9.023-17.568c-0.761-1.499-1.522-2.998-2.28-4.486
												c-0.001,0.001-0.002,0.002-0.004,0.003c-1.441-2.835-2.289-4.511-2.289-4.512c0,0-2.356-16.133,2.064-21.166
												c-0.606-0.761-2.207-1.462-3.35-0.816c-4.493,2.539-5.65,8.049-5.65,8.049s-11.359-21.304-12.871-19.581
												c-1.512,1.722,3.194,13.462,3.194,13.462s-9.036-16.983-9.967-14.832c-0.36,0.829,0,0,5.439,15.885
												c0,0-9.035-12.114-9.002-9.267c0.04,3.575,5.067,13.654,5.067,13.654s-7.098-9.283-6.948-6.973
												c0.15,2.31,14.886,29.194,14.886,29.194L191.631,332.793z"/>
											<path style="fill:#124847;" d="M336.234,332.209c-0.229-0.181-1.784-7.362-2.061-7.448
												c-15.026-4.708-37.759,6.173-50.694,39.023c-5.656,14.365-7.402,26.019-12.892,29.905
												c-8.272,5.855-49.745-58.84-49.745-58.84l-29.279,24.678c25.893,56.933,32.61,74.994,45.316,91.429
												c8.733,11.295,24.239,20.929,38.177,18.365c18.914-3.48,38.585-23.979,47.551-37.704
												C348.786,384.531,353.143,345.591,336.234,332.209z"/>
										</g>
									</g>
								</g>
							</g>
							<g>
								<path style="fill:none;stroke:#1D0A03;stroke-width:1.5463;stroke-miterlimit:10;" d="M283.477,397.317
									c-0.011-0.341-0.055-0.69-0.134-1.043c-0.456-2.035-2.148-3.643-4.199-4.018c-2.126-0.389-4.048,0.501-5.206,2.007
									c-0.974-1.268-2.49-2.099-4.212-2.099c-2.944,0-5.33,2.386-5.33,5.33c0,0.178,0.024,0.384,0.063,0.598
									c0.198,1.097,0.767,2.093,1.556,2.881l7.577,7.577l8.045-7.227C282.778,400.3,283.527,398.849,283.477,397.317z"/>
								<path style="fill:none;stroke:#1D0A03;stroke-width:1.5463;stroke-miterlimit:10;" d="M319.11,408.982l-1.558-4.096
									c0.99-1.748,1.433-3.846,1.068-6.07c-0.63-3.84-3.727-6.938-7.569-7.551c-6.282-1.002-11.626,4.351-10.607,10.635
									c0.62,3.826,3.703,6.91,7.527,7.543c2.202,0.364,4.284-0.06,6.025-1.026l4.457,1.281
									C318.882,409.822,319.27,409.401,319.11,408.982z"/>
							</g>
						</g>
					</g>
				</g>
				<g>
					<g>
						<g>
							<g>
								<polygon style="fill:#FF8E9C;" points="569.616,430.696 578.724,426.263 567.551,408.63 558.443,413.063 								"/>
								<g>
									<g>
										<defs>
											<path id="XMLID_85_" d="M578.008,424.792l-11.551,5.622l-7.651,8.703c-1.432,1.91-1.675,4.46-0.63,6.607h0l25.725-12.52
												L578.008,424.792z"/>
										</defs>
										<use xlink:href="#XMLID_85_"  style="overflow:visible;fill:#FFFFFF;"/>
										<clipPath id="XMLID_00000021077936889020507200000018150802560301600695_">
											<use xlink:href="#XMLID_85_"  style="overflow:visible;"/>
										</clipPath>
									</g>
									<path style="fill:#FFFFFF;" d="M565.726,431.303l0.886-4.787c0,0,3.706-2.722,5.504,1.874L565.726,431.303z"/>
								</g>
							</g>
							<polygon style="fill:#14141E;" points="521.071,309.921 525.734,362.024 559.459,422.37 576.696,413.318 545.687,349.501 
								533.15,309.624 							"/>
						</g>
						<g>
							<g>
								<polygon style="fill:#FF8E9C;" points="536.97,437.016 547.1,437.016 545.675,422.897 535.545,422.897 								"/>
								<g>
									<g>
										<defs>
											<path id="XMLID_37_" d="M547.1,435.38h-12.846l-10.688,4.477c-2.123,1.091-3.458,3.278-3.458,5.665l0,0h28.61
												L547.1,435.38z"/>
										</defs>
										<use xlink:href="#XMLID_37_"  style="overflow:visible;fill:#FFFFFF;"/>
										<clipPath id="XMLID_00000183222916176169664900000006829543429353674140_">
											<use xlink:href="#XMLID_37_"  style="overflow:visible;"/>
										</clipPath>
									</g>
									<path style="fill:#FFFFFF;" d="M533.207,435.86l2.892-3.917c0,0,4.524-0.826,4.129,4.093L533.207,435.86z"/>
								</g>
							</g>
							<path style="fill:#564752;" d="M525.282,312.739l0.452,49.285c0.018,1.813,0.233,3.618,0.642,5.384l6.917,58.868h18.008
								l-0.082-62.526l0.377-60.055L525.282,312.739z"/>
						</g>
					</g>
					<g>
						<g>
							
								<ellipse transform="matrix(0.3858 -0.9226 0.9226 0.3858 123.6896 630.3458)" style="fill:#1F1D2E;" cx="535.268" cy="222.275" rx="13.316" ry="13.316"/>
							<g>
								<g>
									<g>
										<circle style="fill:#FF8E9C;" cx="523.112" cy="226.292" r="2.538"/>
									</g>
									<g>
										<path style="fill:#FF8E9C;" d="M545.368,226.292c0,1.402,1.136,2.538,2.538,2.538c1.401,0,2.538-1.136,2.538-2.538
											c0-1.401-1.136-2.538-2.538-2.538C546.504,223.755,545.368,224.891,545.368,226.292z"/>
										<path style="fill:none;stroke:#0F1B3C;stroke-width:0.3753;stroke-linecap:round;stroke-miterlimit:10;" d="
											M549.016,225.861c0,0-0.823-0.583-1.661,0.684"/>
									</g>
									<g>
										<polygon style="fill:#FF8E9C;" points="530.022,233.552 529.099,249.98 540.904,249.791 540.064,236.238 										"/>
										<path style="fill:#F96B80;" d="M529.652,240.219c6.139,1.61,10.412-3.981,10.412-3.981l-10.042-2.687L529.652,240.219z"/>
									</g>
									<path style="fill:#FF8E9C;" d="M546.409,222.845c0,8.235-4.638,14.995-11.348,14.995c-6.667,0-11.348-6.76-11.348-14.995
										c0-8.235,2.839-11.74,11.348-11.74C543.569,211.105,546.409,214.61,546.409,222.845z"/>
									<path style="fill:none;stroke:#0F1B3C;stroke-width:0.3753;stroke-linecap:round;stroke-miterlimit:10;" d="
										M521.951,225.861c0,0,0.823-0.583,1.66,0.684"/>
									<path style="fill:#0F1B3C;" d="M530.426,225.205c0,0.399-0.279,0.723-0.622,0.723c-0.343,0-0.622-0.324-0.622-0.723
										c0-0.4,0.279-0.723,0.622-0.723C530.147,224.482,530.426,224.806,530.426,225.205z"/>
									<path style="fill:#0F1B3C;" d="M540.919,225.205c0,0.399-0.278,0.723-0.622,0.723s-0.622-0.324-0.622-0.723
										c0-0.4,0.279-0.723,0.622-0.723S540.919,224.806,540.919,225.205z"/>
									<g>
										<defs>
											<path id="SVGID_00000066498462523487025350000015772473838716454033_" d="M546.409,222.845
												c0,8.235-4.638,14.995-11.348,14.995c-6.667,0-11.348-6.76-11.348-14.995c0-8.235,2.78-8.823,11.289-8.823
												S546.409,214.61,546.409,222.845z"/>
										</defs>
										<clipPath id="SVGID_00000165918031021144986360000003038332835788373147_">
											<use xlink:href="#SVGID_00000066498462523487025350000015772473838716454033_"  style="overflow:visible;"/>
										</clipPath>
										<path style="clip-path:url(#SVGID_00000165918031021144986360000003038332835788373147_);fill:#FF7686;" d="
											M528.643,230.241c0,1.492-1.341,2.702-2.994,2.702c-1.654,0-2.994-1.21-2.994-2.702c0-1.492,1.34-2.702,2.994-2.702
											C527.303,227.538,528.643,228.748,528.643,230.241z"/>
										<path style="clip-path:url(#SVGID_00000165918031021144986360000003038332835788373147_);fill:#FF7686;" d="
											M547.356,230.106c0,1.492-1.34,2.702-2.994,2.702c-1.654,0-2.994-1.21-2.994-2.702s1.341-2.702,2.994-2.702
											C546.015,227.404,547.356,228.614,547.356,230.106z"/>
									</g>
									<path style="fill:none;stroke:#0F1B3C;stroke-width:0.3753;stroke-linecap:round;stroke-miterlimit:10;" d="
										M534.601,228.444l-0.975-0.983c0.723-0.723,1.272-1.473,1.272-1.473"/>
									<path style="fill:none;stroke:#0F1B3C;stroke-width:0.3753;stroke-linecap:round;stroke-miterlimit:10;" d="
										M533.332,230.166c0,0,2.325,2.44,4.382-1.333"/>
								</g>
								<g>
									<path style="fill:#1F1D2E;" d="M536.664,222.537l-14.06,0.227c0,0,0.033-1.353,0.198-2.122
										c1.386-6.463,6.42-10.764,13.01-10.256c3.254,0.251,6.96,1.243,9.034,4.16
										C544.846,214.546,537.702,214.542,536.664,222.537z"/>
									<path style="fill:#1F1D2E;" d="M546.409,222.845c0,0-2.877,1.624-2.348-4.869c0.053-0.647,0.17-1.28,0.338-1.868
										l0.447-1.562c0,0,1.252,1.294,1.652,3.625C547.211,222.315,546.409,222.845,546.409,222.845z"/>
								</g>
							</g>
						</g>
						<g>
							<g>
								<g>
									<g>
										<g>
											<path style="fill:#BBD6E1;" d="M525.012,258.1l3.84-12.994c0,0,10.234-0.465,10.845,0
												c2.705,2.06,8.26,8.73,10.953,20.814c2.593,11.638,10.05,53.987,10.05,53.987c-11.356,5.827-46.795-1.707-46.795-1.707
												C516.458,298.294,520.599,276.527,525.012,258.1z"/>
										</g>
									</g>
								</g>
							</g>
							<path style="fill:#BBD6E1;" d="M528.659,243.47c0,0,11.443-2.547,12.774-1.216c1.331,1.331-0.081,4.366-0.081,4.366
								l-12.5-1.515L528.659,243.47z"/>
							<g>
								<path style="fill:#FF8E9C;" d="M529.404,254.114c-0.79,7.857-1.855,15.898-3.621,21.49
									c-12.169-5.677-20.587-11.499-27.953-17.086c-1.893-1.449-3.634-2.793-4.961-3.82c-0.421-0.327-0.841-0.654-1.26-0.979
									c0,0,0,0.001-0.001,0.001c-0.796-0.618-1.266-0.985-1.266-0.985c0,0-2.855-4.309-2.267-6.349
									c-0.276-0.137-0.83-0.121-1.071,0.219c-0.946,1.335-0.533,3.072-0.533,3.072s-6.135-4.576-6.336-3.878
									c-0.201,0.698,2.734,3.43,2.734,3.43s-4.885-3.651-4.862-2.908c0.009,0.286,0,0,3.705,3.822c0,0-4.227-2.254-3.833-1.442
									c0.494,1.02,3.297,3.232,3.297,3.232s-3.289-1.704-2.934-1.062c0.355,0.642,8.212,6.363,8.212,6.363l2.179,2.425l0,0
									c1.833,1.867,3.595,3.541,5.289,5.051l2.001,1.962c23.432,23.213,35.155,22.098,36.374,21.408
									c2.48-0.497,6.949-15.669,10.344-31.847c0.663-3.16-1.024-6.355-4.027-7.542c-0.062-0.024-0.124-0.049-0.186-0.073
									C534.343,247.008,529.842,249.746,529.404,254.114z"/>
								<path style="fill:#BBD6E1;" d="M495.476,256.164l-1.695,12.581c0,0,19.601,24.024,38.892,23.086
									c0,0,24.913-32.931,7.181-44.149l-8.645-1.503l-3.832,7.935l-3.826,19.323L495.476,256.164z"/>
								<path style="fill:none;stroke:#1D0A03;stroke-width:0.7471;stroke-linecap:round;stroke-miterlimit:10;" d="
									M508.215,282.366c6.999,5.236,16.757,13.531,24.457,9.464c4.944-2.611,11.172-10.844,13.948-19.826"/>
								
									<line style="fill:none;stroke:#1D0A03;stroke-width:0.7471;stroke-linecap:round;stroke-miterlimit:10;" x1="523.55" y1="273.437" x2="514.488" y2="267.862"/>
							</g>
						</g>
					</g>
				</g>
				<g>
					<g>
						<g>
							<ellipse cx="184.857" cy="215.158" rx="10.416" ry="10.141"/>
							<g>
								<path d="M207.537,226.838c-0.422,7.83-1.936,11.207-13.507,10.683c-11.656-0.527-11.903-3.796-12.63-10.886
									c-0.815-7.942,5.433-12.702,12.799-12.702C201.566,213.932,208.068,216.992,207.537,226.838z"/>
								<g>
									<g>
										<polygon style="fill:#DF7953;" points="199.497,237.521 200.416,253.888 188.655,253.7 189.492,240.198 										"/>
										<path style="fill:#BC5839;" d="M199.866,244.164c-6.116,1.604-10.373-3.966-10.373-3.966l10.004-2.677L199.866,244.164z"
											/>
									</g>
									<g>
										<path style="fill:#DF7953;" d="M183.171,226.854c0,8.204,4.621,14.939,11.305,14.939c6.642,0,11.305-6.735,11.305-14.939
											s-2.829-11.696-11.305-11.696C186,215.158,183.171,218.65,183.171,226.854z"/>
										<g>
											<g>
												<g>
													<g>
														<defs>
															<path id="SVGID_00000160897261674634939280000008773562258638806145_" d="M183.171,226.854
																c0,8.204,4.621,14.939,11.305,14.939c6.642,0,11.305-6.735,11.305-14.939s-2.829-11.696-11.305-11.696
																C186,215.158,183.171,218.65,183.171,226.854z"/>
														</defs>
														<clipPath id="SVGID_00000155117096179804755700000002985192885473025200_">
															<use xlink:href="#SVGID_00000160897261674634939280000008773562258638806145_"  style="overflow:visible;"/>
														</clipPath>
														<path style="clip-path:url(#SVGID_00000155117096179804755700000002985192885473025200_);fill:#F7AD97;" d="
															M200.87,234.223c0,1.487,1.336,2.692,2.983,2.692c1.647,0,2.983-1.205,2.983-2.692s-1.336-2.692-2.983-2.692
															C202.206,231.53,200.87,232.736,200.87,234.223z"/>
														<path style="clip-path:url(#SVGID_00000155117096179804755700000002985192885473025200_);fill:#F7AD97;" d="
															M182.228,234.089c0,1.487,1.335,2.692,2.983,2.692c1.647,0,2.983-1.205,2.983-2.692c0-1.487-1.335-2.692-2.983-2.692
															C183.563,231.396,182.228,232.602,182.228,234.089z"/>
													</g>
													<g>
														<g>
															<path style="fill:#DF7953;" d="M184.208,230.289c0,1.396-1.132,2.528-2.528,2.528s-2.528-1.132-2.528-2.528
																s1.132-2.528,2.528-2.528S184.208,228.893,184.208,230.289z"/>
															<path style="fill:none;stroke:#0F1B3C;stroke-width:0.3739;stroke-linecap:round;stroke-miterlimit:10;" d="
																M180.574,229.859c0,0,0.82-0.581,1.654,0.681"/>
														</g>
														<g>
															<g>
																<path style="fill:#DF7953;" d="M203.853,230.289c0,1.396,1.132,2.528,2.528,2.528c1.396,0,2.528-1.132,2.528-2.528
																	s-1.132-2.528-2.528-2.528C204.985,227.761,203.853,228.893,203.853,230.289z"/>
															</g>
															<path style="fill:none;stroke:#0F1B3C;stroke-width:0.3739;stroke-linecap:round;stroke-miterlimit:10;" d="
																M207.537,229.859c0,0-0.82-0.581-1.654,0.681"/>
														</g>
														<g>
															<path style="fill:#0F1B3C;" d="M199.095,229.206c0,0.398,0.277,0.721,0.62,0.721c0.342,0,0.62-0.323,0.62-0.721
																s-0.277-0.721-0.62-0.721C199.372,228.486,199.095,228.808,199.095,229.206z"/>
															<path style="fill:#0F1B3C;" d="M188.641,229.206c0,0.398,0.277,0.721,0.62,0.721c0.342,0,0.619-0.323,0.619-0.721
																s-0.277-0.721-0.619-0.721C188.918,228.486,188.641,228.808,188.641,229.206z"/>
															<path style="fill:none;stroke:#0F1B3C;stroke-width:0.3739;stroke-linecap:round;stroke-miterlimit:10;" d="
																M194.935,232.433l0.972-0.98c-0.721-0.72-1.267-1.467-1.267-1.467"/>
															<path style="fill:none;stroke:#0F1B3C;stroke-width:0.3739;stroke-linecap:round;stroke-miterlimit:10;" d="
																M196.199,234.148c0,0-2.316,2.431-4.366-1.328"/>
														</g>
													</g>
												</g>
												<path d="M185.611,217.968c0,0,7.668,10.324,20.171,9.869c3.127-4.261,0.928-13.207-9.056-14.321
													c-3.572-0.399-8.293,0.566-10.425,2.971c-0.07,0.079-0.158,0.389-0.158,0.389L185.611,217.968z"/>
											</g>
											<path d="M183.22,228.295c0,0,2.475-4.888,3.017-9.777c0,0,0.532-1.834,0.063-2.03
												C183.486,215.313,179.832,223.301,183.22,228.295z"/>
										</g>
									</g>
								</g>
							</g>
						</g>
						<g>
							<g>
								<g>
									<polygon style="fill:#DF7953;" points="166.744,403.976 160.976,397.452 185.378,379.281 192.439,387.268 									"/>
									<g>
										<g>
											<defs>
												<path id="XMLID_113_" d="M162.052,395.763l9.491,10.736l3.072,10.724c0.631,2.481-0.177,5.106-2.095,6.802l0,0
													l-18.748-21.718L162.052,395.763z"/>
											</defs>
											<use xlink:href="#XMLID_113_"  style="overflow:visible;fill:#231B22;"/>
											<clipPath id="XMLID_00000033362095881379858400000008130842247801754261_">
												<use xlink:href="#XMLID_113_"  style="overflow:visible;"/>
											</clipPath>
										</g>
										<path style="fill:#231B22;" d="M171.901,407.68l1.093-5.105c0,0-2.55-4.222-6.222-0.41L171.901,407.68z"/>
									</g>
								</g>
								<path style="fill:#F94141;" d="M203.706,294.381c0,0,11.829,44.14,13.569,52.843c1.741,8.703,5.222,26.11-2.089,32.376
									c-7.311,6.266-24.608,16.384-24.608,16.384l-12.863-11.884l8.479-11.811L203.706,294.381z"/>
								<g>
									<polygon style="fill:#DF7953;" points="187.559,436.771 178.851,436.771 181.4,406.454 192.06,406.454 									"/>
									<g>
										<g>
											<defs>
												<path id="XMLID_112_" d="M178.298,434.846h14.33l10.068,4.802c2.277,1.17,3.708,3.515,3.708,6.075l0,0l-28.689-0.339
													L178.298,434.846z"/>
											</defs>
											<use xlink:href="#XMLID_112_"  style="overflow:visible;fill:#231B22;"/>
											<clipPath id="XMLID_00000058558108632655990340000005682246733552176023_">
												<use xlink:href="#XMLID_112_"  style="overflow:visible;"/>
											</clipPath>
										</g>
										<path style="fill:#231B22;" d="M193.75,435.361l-3.101-4.2c0,0-4.852-0.886-4.428,4.39L193.75,435.361z"/>
									</g>
								</g>
								<path style="fill:#0885AD;" d="M188.62,246.424c0,0-14.249,17.756-7.16,48.079l22.246-0.121c0,0,9.398-19.19-2.603-46.114
									L188.62,246.424z"/>
								<path style="fill:#FF5752;" d="M203.706,294.381l1.174,66.589c0.042,2.388-0.148,4.774-0.568,7.125l-7.981,51.567h-20.702
									c0,0-2.634-112.019,5.831-125.16L203.706,294.381z"/>
							</g>
							<g>
								<path style="fill:#DF7953;" d="M196.341,262.277c0.79,7.857,1.855,15.898,3.621,21.49
									c12.169-5.677,20.587-11.499,27.953-17.086c1.893-1.449,3.634-2.793,4.961-3.82c0.421-0.327,0.841-0.654,1.26-0.979
									c0,0,0,0.001,0.001,0.001c0.796-0.618,1.266-0.985,1.266-0.985c0,0,2.854-4.309,2.267-6.349
									c0.276-0.137,0.83-0.121,1.071,0.219c0.946,1.335,0.533,3.071,0.533,3.071s6.135-4.576,6.336-3.878
									c0.201,0.698-2.734,3.43-2.734,3.43s4.885-3.651,4.862-2.908c-0.009,0.286,0,0-3.705,3.822c0,0,4.227-2.254,3.833-1.442
									c-0.494,1.02-3.297,3.232-3.297,3.232s3.29-1.704,2.935-1.062c-0.355,0.642-8.212,6.363-8.212,6.363l-2.179,2.425h0
									c-1.833,1.867-3.596,3.541-5.289,5.051l-2.001,1.962c-23.432,23.213-35.155,22.098-36.374,21.408
									c-2.48-0.497-6.949-15.669-10.344-31.847c-0.663-3.16,1.024-6.355,4.027-7.542c0.062-0.024,0.124-0.049,0.186-0.073
									C191.401,255.172,195.902,257.91,196.341,262.277z"/>
								<path style="fill:#0885AD;" d="M185.736,286.376l14.717-6.484l-2.45-19.231c-0.484-3.803-3.721-6.653-7.554-6.653l0,0
									c-3.278,0-6.22,2.084-7.226,5.204c-0.595,1.847-1.061,4.119-1.061,6.708L185.736,286.376z"/>
								<polyline style="fill:none;stroke:#1D0A03;stroke-width:0.7471;stroke-linecap:round;stroke-miterlimit:10;" points="
									183.413,273.082 185.736,286.376 200.453,279.892 								"/>
							</g>
						</g>
					</g>
					
						<line style="fill:none;stroke:#1D0A03;stroke-width:0.7471;stroke-linecap:round;stroke-miterlimit:10;" x1="204.886" y1="257.247" x2="207.207" y2="273.082"/>
				</g>
			</g>
			
				<line style="fill:none;stroke:#1D0A03;stroke-width:1.5463;stroke-miterlimit:10;" x1="95.132" y1="444.949" x2="642.541" y2="444.949"/>
		</g>
	</g>
</g>
</svg>
