<svg xmlns="http://www.w3.org/2000/svg" width="18" height="18" viewBox="0 0 18 18" fill="none">
  <path d="M9.00047 18.0009C13.9713 18.0009 18.0009 13.9713 18.0009 9.00047C18.0009 4.02965 13.9713 0 9.00047 0C4.02965 0 0 4.02965 0 9.00047C0 13.9713 4.02965 18.0009 9.00047 18.0009Z" fill="#9CE5D7"/>
  <path d="M17.9359 10.0809L17.0669 9.05921L0.886963 9L9.00024 18.0005C13.6053 18.0005 17.4018 14.5421 17.9359 10.0809Z" fill="#87D6C7"/>
  <path d="M0.886963 9.01489C0.886963 9.01489 0.902829 8.99505 0.933576 8.95676C0.964323 8.91957 1.00985 8.85828 1.06926 8.79212C1.12877 8.72279 1.20197 8.63809 1.28816 8.54783C1.3312 8.50191 1.37742 8.45262 1.42691 8.39995C1.47621 8.35095 1.52868 8.29888 1.58432 8.24384C1.80609 8.02077 2.07538 7.77946 2.38443 7.52942C2.69339 7.28037 3.04202 7.02716 3.42228 6.78703C3.80265 6.54671 4.21456 6.31958 4.65047 6.11804C5.08618 5.91253 5.54569 5.73896 6.02108 5.59525C6.97185 5.30663 7.98609 5.15845 9.00014 5.15626C9.50727 5.15547 10.0143 5.18959 10.5135 5.26209C11.0126 5.33271 11.5038 5.4436 11.9792 5.58513C12.4546 5.72746 12.9142 5.90222 13.3498 6.10664C13.7857 6.30808 14.1976 6.5355 14.578 6.77642C14.9583 7.01714 15.3069 7.27134 15.6159 7.52158C15.9249 7.77262 16.1942 8.01502 16.416 8.23917C16.4716 8.29462 16.5241 8.34699 16.5734 8.39628C16.6229 8.44716 16.6692 8.49903 16.7121 8.54496C16.7983 8.63571 16.8715 8.72071 16.931 8.79053C16.9905 8.85718 17.0361 8.91868 17.0667 8.95627C17.0975 8.99485 17.1133 9.01469 17.1133 9.01469C17.1133 9.01469 17.0975 9.03472 17.0667 9.07321C17.0361 9.1108 16.9905 9.17209 16.931 9.23894C16.8715 9.30876 16.7983 9.39366 16.7121 9.48452C16.6691 9.53054 16.6229 9.58231 16.5734 9.63299C16.5241 9.68239 16.4716 9.73476 16.416 9.7901C16.1942 10.0143 15.9249 10.2569 15.6159 10.5079C15.3069 10.758 14.9583 11.0122 14.578 11.253C14.1976 11.4939 13.7857 11.7214 13.3498 11.9228C12.9141 12.1272 12.4546 12.302 11.9792 12.4443C11.5038 12.586 11.0126 12.6968 10.5135 12.7674C10.0143 12.8398 9.50727 12.874 9.00014 12.8732C7.986 12.871 6.97185 12.7226 6.02108 12.4342C5.54569 12.2905 5.08608 12.1168 4.65047 11.9114C4.21456 11.71 3.80265 11.4828 3.42228 11.2425C3.04202 11.0024 2.69339 10.7491 2.38443 10.5001C2.07538 10.25 1.80609 10.0089 1.58432 9.78574C1.52878 9.73069 1.47621 9.67852 1.42691 9.62962C1.37742 9.57686 1.3311 9.52746 1.28816 9.48154C1.20197 9.39148 1.12877 9.30658 1.06926 9.23745C1.00975 9.1711 0.964224 9.1099 0.933576 9.07271C0.902829 9.03462 0.886963 9.01489 0.886963 9.01489Z" fill="#F7F5F5"/>
  <path d="M12.8696 9.00254C12.8696 11.1396 11.1372 12.8721 8.99991 12.8721C6.86281 12.8721 5.13037 11.1396 5.13037 9.00254C5.13037 6.86524 6.86281 5.13281 8.99991 5.13281C11.1372 5.13291 12.8696 6.86524 12.8696 9.00254Z" fill="#4FD9E0"/>
  <path d="M11.5879 9.00215C11.5879 10.4316 10.4293 11.5901 8.99985 11.5901C7.57062 11.5901 6.41187 10.4316 6.41187 9.00215C6.41187 7.57272 7.57062 6.41406 8.99985 6.41406C10.4294 6.41416 11.5879 7.57272 11.5879 9.00215Z" fill="#454545"/>
  <path d="M9.00063 7.55863C9.80262 7.58015 10.4194 8.19727 10.4411 8.99906C10.4496 9.31814 10.9455 9.31893 10.937 8.99906C10.9079 7.92412 10.0756 7.09157 9.00063 7.06261C8.68066 7.05398 8.68155 7.5499 9.00063 7.55863Z" fill="#F7F5F5"/>
</svg>