<?xml version="1.0" encoding="utf-8"?>
<!-- Generator: Adobe Illustrator 27.5.0, SVG Export Plug-In . SVG Version: 6.00 Build 0)  -->
<svg version="1.1" xmlns="http://www.w3.org/2000/svg" xmlns:xlink="http://www.w3.org/1999/xlink" x="0px" y="0px"
	 viewBox="0 0 600 500" style="enable-background:new 0 0 600 500;" xml:space="preserve">
<g id="BACKGROUND">
	<rect style="fill:#B8D0FF;" width="600" height="500"/>
</g>
<g id="OBJECTS">
	<g>
		<g>
			<g>
				<rect x="461.413" y="190.539" style="fill:#9EC0FF;" width="85.43" height="58.219"/>
				<polygon style="fill:#5181DB;" points="537.472,261.507 531.68,257.476 525.888,261.507 525.888,240.535 537.472,240.535 				
					"/>
				<circle style="fill:#5181DB;" cx="531.68" cy="239.615" r="8.483"/>
				
					<ellipse transform="matrix(0.1602 -0.9871 0.9871 0.1602 211.2421 724.9848)" style="fill:#FFFFFF;" cx="531.68" cy="238.35" rx="8.483" ry="8.483"/>
				<path style="fill:none;stroke:#9EC0FF;stroke-width:0.7631;stroke-miterlimit:10;" d="M537.678,238.35
					c0,3.313-2.685,5.998-5.998,5.998c-3.313,0-5.998-2.686-5.998-5.998c0-3.313,2.685-5.998,5.998-5.998
					C534.993,232.351,537.678,235.037,537.678,238.35z"/>
				<line style="fill:none;stroke:#89A4D9;stroke-miterlimit:10;" x1="468.281" y1="210.601" x2="537.678" y2="210.601"/>
				<line style="fill:none;stroke:#89A4D9;stroke-miterlimit:10;" x1="487.053" y1="205.21" x2="518.906" y2="205.21"/>
				<line style="fill:none;stroke:#89A4D9;stroke-miterlimit:10;" x1="468.281" y1="215.992" x2="537.678" y2="215.992"/>
				<line style="fill:none;stroke:#89A4D9;stroke-miterlimit:10;" x1="468.281" y1="221.382" x2="537.678" y2="221.382"/>
				<line style="fill:none;stroke:#89A4D9;stroke-miterlimit:10;" x1="468.281" y1="226.773" x2="537.678" y2="226.773"/>
				<line style="fill:none;stroke:#89A4D9;stroke-miterlimit:10;" x1="488.085" y1="232.163" x2="517.874" y2="232.163"/>
			</g>
			<g>
				<rect x="495.867" y="283.823" style="fill:#2E6ADB;" width="13.797" height="66.592"/>
				<rect x="479.052" y="296.116" style="fill:#9EC0FF;" width="13.797" height="54.299"/>
				<rect x="462.237" y="288.806" style="fill:#89A4D9;" width="13.797" height="61.61"/>
				<rect x="445.422" y="316.449" style="fill:#5181DB;" width="13.797" height="33.966"/>
				<rect x="428.607" y="332.334" style="fill:#FFFFFF;" width="13.797" height="18.081"/>
				<polyline style="fill:none;stroke:#FFFFFF;stroke-width:1.1497;stroke-miterlimit:10;" points="517.209,353.944 
					425.541,353.944 425.541,281.618 				"/>
			</g>
			<g>
				<path style="fill:#9EC0FF;" d="M502.218,86.596c-25.681,0-46.5,20.819-46.5,46.5c0,25.681,20.819,46.5,46.5,46.5
					c25.681,0,46.5-20.819,46.5-46.5C548.718,107.414,527.899,86.596,502.218,86.596z M502.218,171.861
					c-21.41,0-38.766-17.356-38.766-38.766c0-21.41,17.356-38.765,38.766-38.765c21.41,0,38.766,17.356,38.766,38.765
					C540.984,154.505,523.628,171.861,502.218,171.861z"/>
				<g>
					<path style="fill:#9EC0FF;" d="M503.825,99.178c0,1.046-0.848,1.894-1.894,1.894s-1.894-0.848-1.894-1.894
						c0-1.046,0.848-1.894,1.894-1.894S503.825,98.132,503.825,99.178z"/>
					<path style="fill:#9EC0FF;" d="M503.825,167.013c0,1.046-0.848,1.894-1.894,1.894s-1.894-0.848-1.894-1.894
						c0-1.046,0.848-1.894,1.894-1.894S503.825,165.967,503.825,167.013z"/>
					<path style="fill:#9EC0FF;" d="M486.678,102.873c0.523,0.906,0.213,2.065-0.693,2.588c-0.906,0.523-2.065,0.213-2.588-0.693
						c-0.523-0.906-0.213-2.065,0.693-2.588C484.996,101.657,486.154,101.967,486.678,102.873z"/>
					<path style="fill:#9EC0FF;" d="M520.595,161.619c0.523,0.906,0.213,2.065-0.693,2.588c-0.906,0.523-2.065,0.213-2.588-0.693
						c-0.523-0.906-0.213-2.065,0.693-2.588C518.913,160.403,520.072,160.713,520.595,161.619z"/>
					<path style="fill:#9EC0FF;" d="M473.675,114.646c0.906,0.523,1.216,1.682,0.693,2.588s-1.682,1.216-2.588,0.693
						c-0.906-0.523-1.216-1.682-0.693-2.588C471.61,114.434,472.769,114.123,473.675,114.646z"/>
					<path style="fill:#9EC0FF;" d="M532.421,148.564c0.906,0.523,1.216,1.682,0.693,2.588c-0.523,0.906-1.682,1.217-2.588,0.693
						c-0.906-0.523-1.216-1.682-0.693-2.588C530.357,148.351,531.515,148.04,532.421,148.564z"/>
					<path style="fill:#9EC0FF;" d="M468.301,131.344c1.046,0,1.894,0.848,1.894,1.894s-0.848,1.894-1.894,1.894
						c-1.046,0-1.894-0.848-1.894-1.894S467.255,131.344,468.301,131.344z"/>
					<path style="fill:#9EC0FF;" d="M536.135,131.344c1.046,0,1.894,0.848,1.894,1.894s-0.848,1.894-1.894,1.894
						c-1.046,0-1.894-0.848-1.894-1.894S535.089,131.344,536.135,131.344z"/>
					<path style="fill:#9EC0FF;" d="M471.996,148.491c0.906-0.523,2.065-0.213,2.588,0.693c0.523,0.906,0.213,2.065-0.693,2.588
						c-0.906,0.523-2.065,0.213-2.588-0.693C470.779,150.173,471.089,149.014,471.996,148.491z"/>
					<path style="fill:#9EC0FF;" d="M530.742,114.574c0.906-0.523,2.065-0.213,2.588,0.693c0.523,0.906,0.213,2.065-0.693,2.588
						c-0.906,0.523-2.065,0.213-2.588-0.693C529.525,116.256,529.836,115.097,530.742,114.574z"/>
					<path style="fill:#9EC0FF;" d="M483.769,161.494c0.523-0.906,1.682-1.216,2.588-0.693c0.906,0.523,1.216,1.682,0.693,2.588
						c-0.523,0.906-1.682,1.216-2.588,0.693C483.556,163.558,483.246,162.4,483.769,161.494z"/>
					<path style="fill:#9EC0FF;" d="M517.686,102.747c0.523-0.906,1.682-1.216,2.588-0.693c0.906,0.523,1.216,1.682,0.693,2.588
						c-0.523,0.906-1.682,1.216-2.588,0.693C517.473,104.812,517.163,103.654,517.686,102.747z"/>
				</g>
				<polyline style="fill:none;stroke:#FFFFFF;stroke-miterlimit:10;" points="502.218,103.695 502.218,133.096 485.037,144.133 
									"/>
				<circle style="fill:#9EC0FF;" cx="502.218" cy="133.096" r="3.188"/>
			</g>
			<g>
				<rect x="396.223" y="127.965" style="fill:#FFFFFF;" width="77.321" height="93.527"/>
				<g>
					<line style="fill:none;stroke:#B8D0FF;stroke-miterlimit:10;" x1="407.04" y1="139.986" x2="430.384" y2="139.986"/>
					<line style="fill:none;stroke:#B8D0FF;stroke-miterlimit:10;" x1="407.04" y1="146.643" x2="462.728" y2="146.643"/>
					<line style="fill:none;stroke:#B8D0FF;stroke-miterlimit:10;" x1="407.04" y1="153.299" x2="462.728" y2="153.299"/>
					<line style="fill:none;stroke:#B8D0FF;stroke-miterlimit:10;" x1="407.04" y1="159.955" x2="462.728" y2="159.955"/>
					<line style="fill:none;stroke:#B8D0FF;stroke-miterlimit:10;" x1="407.04" y1="166.611" x2="462.728" y2="166.611"/>
					<line style="fill:none;stroke:#B8D0FF;stroke-miterlimit:10;" x1="407.04" y1="173.268" x2="462.728" y2="173.268"/>
					<line style="fill:none;stroke:#B8D0FF;stroke-miterlimit:10;" x1="407.04" y1="179.924" x2="462.728" y2="179.924"/>
					<line style="fill:none;stroke:#B8D0FF;stroke-miterlimit:10;" x1="407.04" y1="186.58" x2="462.728" y2="186.58"/>
					<line style="fill:none;stroke:#B8D0FF;stroke-miterlimit:10;" x1="407.04" y1="193.236" x2="462.728" y2="193.236"/>
					<line style="fill:none;stroke:#B8D0FF;stroke-miterlimit:10;" x1="407.04" y1="199.892" x2="462.728" y2="199.892"/>
					<line style="fill:none;stroke:#B8D0FF;stroke-miterlimit:10;" x1="407.04" y1="206.549" x2="430.384" y2="206.549"/>
				</g>
				<path style="fill:none;stroke:#2E6ADB;stroke-width:2;stroke-miterlimit:10;" d="M455.929,123.463v22.992
					c0,2.874-2.329,5.203-5.203,5.203l0,0c-2.874,0-5.203-2.33-5.203-5.203v-23.977c0-4.388,3.557-7.945,7.945-7.945l0,0
					c4.388,0,7.945,3.557,7.945,7.945v5.486"/>
			</g>
			<g>
				<path style="fill:#9EC0FF;" d="M196.162,100.959l22.465,2.24c1.446-14.614-5.234-29.481-18.511-37.827l-12.007,19.102
					C193.896,88.111,196.792,94.59,196.162,100.959z"/>
				<path style="fill:#2E6ADB;" d="M193.59,108.508c-5.123,8.15-15.884,10.604-24.034,5.481c-1.935-1.216-3.537-2.757-4.805-4.499
					l-18.242,13.29c2.908,3.995,6.601,7.52,11.04,10.31c18.7,11.755,43.388,6.124,55.143-12.576
					c3.408-5.422,5.346-11.348,5.936-17.316l-22.465-2.24C195.905,103.56,195.076,106.144,193.59,108.508z"/>
				<path style="fill:#5181DB;" d="M146.509,122.78l18.242-13.29c-1.55-2.129-2.574-4.563-3.043-7.11l-22.205,4.083
					C140.579,112.306,142.953,117.896,146.509,122.78z"/>
				<path style="fill:#89A4D9;" d="M164.075,89.955c3.82-6.077,10.775-8.982,17.445-7.945l3.479-22.298
					c-15.303-2.38-31.26,4.291-40.025,18.236c-5.553,8.834-7.221,19.003-5.47,28.515l22.205-4.083
					C160.945,98.234,161.655,93.805,164.075,89.955z"/>
				<path style="fill:#FFFFFF;" d="M181.52,82.009c2.275,0.354,4.517,1.161,6.589,2.464l12.007-19.102
					c-4.755-2.989-9.899-4.849-15.117-5.66L181.52,82.009z"/>
			</g>
			<g>
				<rect x="82.175" y="250" style="fill:#FFFFFF;" width="86.286" height="114.039"/>
				<path style="fill:#B8D0FF;" d="M96.469,351.856c-3.618-8.121-8.468-15.805-14.294-22.82v35.004h74.152
					C141.382,351.765,120.436,345.671,96.469,351.856z"/>
				<g>
					<line style="fill:none;stroke:#B8D0FF;stroke-miterlimit:10;" x1="89.458" y1="314.71" x2="161.179" y2="314.71"/>
					<line style="fill:none;stroke:#B8D0FF;stroke-miterlimit:10;" x1="89.458" y1="320.898" x2="161.179" y2="320.898"/>
					<line style="fill:none;stroke:#B8D0FF;stroke-miterlimit:10;" x1="89.458" y1="327.085" x2="161.179" y2="327.085"/>
					<line style="fill:none;stroke:#B8D0FF;stroke-miterlimit:10;" x1="89.458" y1="333.273" x2="161.179" y2="333.273"/>
					<line style="fill:none;stroke:#B8D0FF;stroke-miterlimit:10;" x1="89.458" y1="339.46" x2="161.179" y2="339.46"/>
					<line style="fill:none;stroke:#B8D0FF;stroke-miterlimit:10;" x1="89.458" y1="345.648" x2="161.179" y2="345.648"/>
				</g>
				<g>
					<g>
						<rect x="89.458" y="262.945" style="fill:#B8D0FF;" width="15.187" height="8.599"/>
						<rect x="108.302" y="262.945" style="fill:#B8D0FF;" width="15.187" height="8.599"/>
						<rect x="127.147" y="262.945" style="fill:#B8D0FF;" width="15.188" height="8.599"/>
						<rect x="145.991" y="262.945" style="fill:#B8D0FF;" width="15.188" height="8.599"/>
					</g>
					<g>
						<rect x="89.458" y="274.866" style="fill:#B8D0FF;" width="15.187" height="8.599"/>
						<rect x="108.302" y="274.866" style="fill:#B8D0FF;" width="15.187" height="8.599"/>
						<rect x="127.147" y="274.866" style="fill:#B8D0FF;" width="15.188" height="8.599"/>
						<rect x="145.991" y="274.866" style="fill:#B8D0FF;" width="15.188" height="8.599"/>
					</g>
					<g>
						<rect x="89.458" y="286.788" style="fill:#B8D0FF;" width="15.187" height="8.599"/>
						<rect x="108.302" y="286.788" style="fill:#B8D0FF;" width="15.187" height="8.599"/>
						<rect x="127.147" y="286.788" style="fill:#B8D0FF;" width="15.188" height="8.599"/>
						<rect x="145.991" y="286.788" style="fill:#B8D0FF;" width="15.188" height="8.599"/>
					</g>
					<g>
						<rect x="89.458" y="298.709" style="fill:#B8D0FF;" width="15.187" height="8.599"/>
						<rect x="108.302" y="298.709" style="fill:#B8D0FF;" width="15.187" height="8.599"/>
						<rect x="127.147" y="298.709" style="fill:#B8D0FF;" width="15.188" height="8.599"/>
						<rect x="145.991" y="298.709" style="fill:#B8D0FF;" width="15.188" height="8.599"/>
					</g>
				</g>
			</g>
			<g>
				<rect x="103.955" y="206.25" style="fill:#89A4D9;" width="123.41" height="4.679"/>
				<g>
					<polygon style="fill:#FFFFFF;" points="181.516,210.929 92.422,210.929 79.805,151.61 168.9,151.61 					"/>
					
						<line style="fill:none;stroke:#89A4D9;stroke-width:0.8758;stroke-miterlimit:10;" x1="165.972" y1="152.963" x2="178.302" y2="210.929"/>
					<path style="fill:none;stroke:#89A4D9;stroke-width:0.759;stroke-miterlimit:10;" d="M138.463,180.583
						c0.994,4.676-2.52,8.466-7.85,8.466c-5.33,0-10.457-3.79-11.452-8.466c-0.994-4.676,2.52-8.466,7.85-8.466
						C132.341,172.117,137.468,175.907,138.463,180.583z"/>
				</g>
			</g>
			<g>
				<path style="fill:#9EC0FF;" d="M115.682,104.968H63.234c-5.679,0-10.283,4.604-10.283,10.283v23.405
					c0,5.679,4.604,10.283,10.283,10.283h14.087c2.88,0,5.4,1.939,6.138,4.723l5.999,22.62l5.999-22.62
					c0.738-2.784,3.258-4.723,6.138-4.723h14.087c5.679,0,10.283-4.604,10.283-10.283v-23.405
					C125.965,109.572,121.361,104.968,115.682,104.968z"/>
				<g>
					
						<rect x="72.164" y="115.945" style="fill:none;stroke:#FFFFFF;stroke-width:0.8758;stroke-miterlimit:10;" width="37.224" height="24.68"/>
					<g>
						<polyline style="fill:none;stroke:#FFFFFF;stroke-width:0.8758;stroke-miterlimit:10;" points="74.815,118.547 
							90.776,130.593 106.737,118.547 						"/>
						
							<line style="fill:none;stroke:#FFFFFF;stroke-width:0.8758;stroke-miterlimit:10;" x1="93.928" y1="128.214" x2="106.737" y2="138.023"/>
						
							<line style="fill:none;stroke:#FFFFFF;stroke-width:0.8758;stroke-miterlimit:10;" x1="74.815" y1="138.023" x2="87.718" y2="128.285"/>
					</g>
				</g>
				<g>
					<path style="fill:#2E6ADB;" d="M80.25,115.945c0,3.935-3.19,7.125-7.125,7.125c-3.935,0-7.125-3.19-7.125-7.125
						c0-3.935,3.19-7.125,7.125-7.125C77.06,108.82,80.25,112.01,80.25,115.945z"/>
					
						<polyline style="fill:none;stroke:#FFFFFF;stroke-width:0.75;stroke-linecap:round;stroke-linejoin:round;stroke-miterlimit:10;" points="
						68.829,115.243 72.232,118.16 77.421,113.73 					"/>
				</g>
			</g>
			<g>
				<polygon style="fill:#5181DB;" points="383.546,78.494 388.94,108.315 438.399,108.315 433.005,78.494 				"/>
				<rect x="389.102" y="69.039" style="fill:#FFFFFF;" width="48.706" height="39.276"/>
				<polygon style="fill:#9EC0FF;" points="419.625,74.237 414.307,80.919 393.76,80.919 389.102,108.315 438.561,108.315 
					444.354,74.237 				"/>
			</g>
			<path style="fill:#2E6ADB;" d="M72.804,221.467c-7.47,2.063-9.142,3.735-11.205,11.205c-2.063-7.47-3.735-9.142-11.205-11.205
				c7.47-2.063,9.142-3.735,11.205-11.205C63.662,217.733,65.334,219.405,72.804,221.467z"/>
			<path style="fill:#2E6ADB;" d="M474.657,70.057c-7.47,2.063-9.142,3.735-11.205,11.205c-2.063-7.47-3.735-9.142-11.205-11.205
				c7.47-2.063,9.142-3.735,11.205-11.205C465.515,66.322,467.187,67.994,474.657,70.057z"/>
			<path style="fill:#2E6ADB;" d="M547.34,291.087c-7.47,2.063-9.142,3.735-11.205,11.205c-2.063-7.47-3.735-9.142-11.205-11.205
				c7.47-2.063,9.142-3.735,11.205-11.205C538.198,287.352,539.87,289.025,547.34,291.087z"/>
			<path style="fill:#2E6ADB;" d="M212.064,161.39c-7.47,2.063-9.142,3.735-11.205,11.205c-2.063-7.47-3.735-9.142-11.205-11.205
				c7.47-2.063,9.142-3.735,11.205-11.205C202.923,157.656,204.595,159.328,212.064,161.39z"/>
			<path style="fill:#2E6ADB;" d="M312.723,440.488c-7.47,2.063-9.142,3.735-11.205,11.205c-2.063-7.47-3.735-9.142-11.205-11.205
				c7.47-2.063,9.142-3.735,11.205-11.205C303.581,436.753,305.253,438.425,312.723,440.488z"/>
		</g>
		<g>
			<path style="fill:#FFFFFF;" d="M0,500h277.969c-0.375-40.413-45.562-79.399-97.875-79.212
				c-1.999-35.906-37.125-70.125-83.625-58.125C80.787,327.465,42.108,300.382,0,301.242V500z"/>
			<path style="fill:#E8F0FF;" d="M0,500h219.469c-0.563-22.5-34.398-44.769-71.47-44.769
				c-15.783-36.894-47.217-46.918-87.717-39.606C46.174,384.589,15.983,380.701,0,380.99V500z"/>
		</g>
		<g>
			<path style="fill:#FFFFFF;" d="M600,500H322.031c0.375-40.413,45.562-79.399,97.875-79.212
				c1.999-35.906,37.125-70.125,83.625-58.125c15.682-35.198,54.361-62.281,96.469-61.422V500z"/>
			<path style="fill:#E8F0FF;" d="M600,500H380.531c0.563-22.5,34.398-44.769,71.47-44.769
				c15.783-36.894,47.217-46.918,87.717-39.606c14.107-31.036,44.299-34.924,60.281-34.635V500z"/>
		</g>
		<g>
			<g>
				<circle style="fill:none;stroke:#FFFFFF;stroke-miterlimit:10;" cx="300.063" cy="113.782" r="68.368"/>
				
					<ellipse transform="matrix(0.7071 -0.7071 0.7071 0.7071 7.4306 245.5024)" style="fill:none;stroke:#FFFFFF;stroke-miterlimit:10;" cx="300.063" cy="113.782" rx="59.883" ry="59.883"/>
			</g>
			<g>
				<polygon style="fill:#141D30;" points="300.035,266.101 185.092,289.194 300.035,361.466 414.978,289.194 				"/>
				<path style="fill:#26395E;" d="M356.566,268.539l-4.125-8.461l22.125-98.039l-57.375-17.25h-17.156h-17.156l-57.375,17.25
					l22.125,98.039l-4.125,8.461l-22.875,12.536l53.257,38.048c7.91,4.728,18.147,0.597,20.561-8.296l5.588-20.585l5.588,20.585
					c2.414,8.893,12.651,13.024,20.561,8.296l53.258-38.048L356.566,268.539z"/>
				<polygon style="fill:#DEDEDE;" points="282.914,147.068 317.156,147.068 300.035,229.913 				"/>
				<polygon style="fill:#ABABAB;" points="283.309,148.98 306.115,228.226 295.806,235.181 				"/>
				<path style="fill:#141D30;" d="M343.477,174.789c0,0-10.734-19.16-26.32-27.721l-17.121,82.846l-17.121-82.846
					c-15.586,8.561-26.32,27.721-26.32,27.721l15.469,9l-15.469-0.281c0,0,13.786,31.192,47.111,60.643
					c8.449-9.564,29.37-34.749,39.772-60.643l-15.469,0.281L343.477,174.789z"/>
				<polygon style="fill:#FFFFFF;" points="284.233,140.625 315.766,140.625 300,155.617 				"/>
				<path style="fill:#142F61;" d="M317.156,113.382c0,0,1.968-7.313,3.375-13.688c1.406-6.375-1.688-9.375-4.125-10.5
					c-2.109-11.388-9.91-16.134-17.599-16.136c-0.683,0-0.959,0.895-0.387,1.269c2.913,1.906,4.111,4.649,4.111,4.649
					s-9.938-2.344-19.688,3.375c-9.75,5.719-7.969,9.937-3.375,12.563c0,0,0.375,9.094,2.906,18.187L317.156,113.382z"/>
				<path style="fill:none;stroke:#141D30;stroke-width:0.7631;stroke-miterlimit:10;" d="M300.035,229.913
					c2.683,13.5,8.449,28.125,8.449,28.125l-7.734,29.719"/>
				<circle style="fill:#DEDEDE;" cx="300.14" cy="257.804" r="3.141"/>
				<path style="fill:#DEDEDE;" d="M296.859,286.054c0,1.734-1.406,3.141-3.141,3.141c-1.735,0-3.141-1.406-3.141-3.141
					s1.406-3.141,3.141-3.141C295.452,282.913,296.859,284.319,296.859,286.054z"/>
				
					<line style="fill:none;stroke:#141D30;stroke-width:0.7631;stroke-miterlimit:10;" x1="286.687" y1="239.851" x2="301.781" y2="253.163"/>
				
					<line style="fill:none;stroke:#141D30;stroke-width:0.7631;stroke-miterlimit:10;" x1="298.5" y1="262.632" x2="287.812" y2="269.57"/>
				<g>
					
						<rect x="250.99" y="273.413" transform="matrix(0.9667 0.2559 -0.2559 0.9667 79.359 -58.8988)" style="fill:#496EB5;" width="30" height="4.125"/>
					
						<rect x="319.081" y="273.413" transform="matrix(-0.9667 0.2559 -0.2559 -0.9667 727.5363 456.2787)" style="fill:#496EB5;" width="30" height="4.125"/>
				</g>
				<g>
					<g>
						<polygon style="fill:#FFFFFF;" points="343.02,370.563 364.736,382.935 360.602,409.026 333.11,392.67 						"/>
						<path style="fill:#141D30;" d="M358.03,377.838l1.427,20.603l-5.017-3.919l-9.993,8.658l10.69,7.059l8.318,21.931l3.66,13.574
							c0.487,1.804,2.728,2.396,4.062,1.087c3.059-3.001,7.333-8.806,7.666-18.014c0.541-14.959-2.541-27.086-2.541-27.086
							l3.91,0.651l1.449-17.615l-4.154-0.287C377.507,384.48,369.921,376.487,358.03,377.838z"/>
						<path style="fill:#26395E;" d="M159.859,310.736c4.125-21.335,33.375-30.04,61.125-15.15
							c27.75,14.89,128.625,70.985,128.625,70.985l-17.063,44.625c-11.006-3.703-12.14-8.767-20.953-12.003
							c-7.266-2.668-9.422,0.707-20.953-3.231c-11.531-3.938-15.293-8.243-21.938-10.547c-10.547-3.656-20.363-2.612-30.131-5.926
							c-16.468-5.582-30.638-10.409-37.837-12.918C171.505,356.385,155.734,332.071,159.859,310.736z"/>
						<path style="fill:#141D30;" d="M324.294,401.35l10.153-43.203c3.261,1.811,6.11,3.393,8.422,4.677L324.294,401.35z"/>
						
							<line style="fill:none;stroke:#141D30;stroke-width:0.7631;stroke-miterlimit:10;" x1="342.868" y1="371.821" x2="237.399" y2="304.509"/>
						
							<line style="fill:none;stroke:#496EB5;stroke-width:0.6883;stroke-miterlimit:10;" x1="376.89" y1="386.331" x2="375.671" y2="399.383"/>
						<path style="fill:#496EB5;" d="M332.546,411.196c-4.725-1.59-7.629-3.43-10.104-5.269l17.98-44.46
							c5.756,3.197,9.186,5.105,9.186,5.105L332.546,411.196z"/>
					</g>
					<path style="fill:#141D30;" d="M380.414,399.923l1.247-15.157l-4.154-0.287c0,0-7.586-7.992-19.477-6.642l0.092,1.329
						l-10.945-6.236l2.432-6.36c0,0-32.169-17.888-65.172-36.143l-66.274,42.127c6.056,2.064,12.994,4.421,20.408,6.934
						c9.768,3.314,19.585,2.27,30.132,5.926c6.645,2.303,10.406,6.609,21.938,10.547c11.531,3.938,13.687,0.563,20.953,3.231
						c8.813,3.237,9.947,8.3,20.953,12.003l5.875-15.366l8.602,5.118l-2.576,2.232l10.69,7.059l0.287,0.757l20.88-9.251
						c-0.001-0.004-0.003-0.014-0.003-0.014l0.025,0.004L380.414,399.923z"/>
					<path style="fill:#26395E;" d="M440.211,310.736c-4.125-21.335-33.375-30.04-61.125-15.15
						c-27.75,14.89-128.625,70.985-128.625,70.985l17.063,44.625c11.006-3.703,12.14-8.767,20.953-12.003
						c7.266-2.668,9.422,0.707,20.953-3.231c11.531-3.938,15.293-8.243,21.938-10.547c10.547-3.656,20.363-2.612,30.131-5.926
						c16.468-5.582,30.638-10.409,37.837-12.918C428.565,356.385,444.336,332.071,440.211,310.736z"/>
					<path style="fill:#141D30;" d="M275.777,401.35l-10.153-43.203c-3.261,1.811-6.11,3.393-8.421,4.677L275.777,401.35z"/>
					
						<line style="fill:none;stroke:#141D30;stroke-width:0.7631;stroke-miterlimit:10;" x1="257.202" y1="371.821" x2="362.671" y2="304.509"/>
					<polygon style="fill:#FFFFFF;" points="257.051,370.563 235.334,382.935 239.468,409.026 266.96,392.67 					"/>
					<path style="fill:#141D30;" d="M242.04,377.838l-1.427,20.603l5.018-3.919l9.993,8.658l-10.69,7.059l-8.317,21.931
						l-3.66,13.574c-0.486,1.804-2.728,2.396-4.062,1.087c-3.059-3.001-7.333-8.806-7.666-18.014
						c-0.541-14.959,2.541-27.086,2.541-27.086l-3.91,0.651l-1.449-17.615l4.154-0.287
						C222.563,384.48,230.149,376.487,242.04,377.838z"/>
					
						<line style="fill:none;stroke:#496EB5;stroke-width:0.6883;stroke-miterlimit:10;" x1="223.18" y1="386.331" x2="224.399" y2="399.383"/>
					<path style="fill:#496EB5;" d="M267.524,411.196c4.725-1.59,7.629-3.43,10.103-5.269l-17.98-44.46
						c-5.756,3.197-9.186,5.105-9.186,5.105L267.524,411.196z"/>
				</g>
				<path style="fill:#26395E;" d="M225.504,162.039"/>
				<g>
					<path style="fill:#ABABAB;" d="M126.094,259.445c-5.73-3.145,6.086-30.747,6.086-30.747l9.955,4.288
						C142.135,232.985,131.859,262.609,126.094,259.445z"/>
					<path style="fill:#FF8C8C;" d="M146.297,234.778l-21.82-9.398c0,0,1.395-6.374-3.656-11.18c-2.883-2.742-6.539-5.43-6.539-5.43
						l-2.242,2.081l3.868,4.597l-0.116,5.824l-10.58,0.029l-12.305-3.797l-0.914,2.953l-1.406-0.703l-1.547,4.289l2.612,1.551
						l-1.206,3.089l5.344,3.867l5.906,1.266l-6.68,0.07l-3.797-2.32l-0.773,2.32l4.781,2.742c0,0,10.758,4.242,22.922,1.336
						l19.898,16.826L146.297,234.778z"/>
					<path style="fill:#D45151;" d="M138.047,254.791l8.25-20.013l-16.973-7.311c1.47,5.872,1.454,12.512,0.425,20.307
						L138.047,254.791z"/>
					<path style="fill:#141D30;" d="M128.063,275.476c-4.995-2.717,2.694-17.645,2.694-17.645l16.201,6.917
						C146.958,264.748,133.56,278.467,128.063,275.476z"/>
					<path style="fill:#FFFFFF;" d="M150,235.82l-12.094-4.74c0,0-3.469,25.271-11.813,28.365L150,274.492V235.82z"/>
					<path style="fill:#141D30;" d="M209.58,292.91c0.577-0.618,0.92-1.214,1.073-1.79c-21.75-7.23-42.387-0.763-49.051,14.1
						C174.57,315.087,199.21,304.019,209.58,292.91z"/>
					<path style="fill:#26395E;" d="M225.504,162.039l14.627,64.815l-18.141,49.418c-7.387,20.122-30.485,29.524-49.824,20.281
						l-44.102-21.077c0,0,10.688,2.813,21.937-39.656l30.094,12.937l32.625-61.594C212.719,187.164,212.695,176.289,225.504,162.039
						z"/>
					
						<line style="fill:none;stroke:#141D30;stroke-width:0.7631;stroke-miterlimit:10;" x1="139.889" y1="263.908" x2="172.031" y2="279.695"/>
					<circle style="fill:#DEDEDE;" cx="150.422" cy="261.484" r="2.18"/>
					<path style="fill:#DEDEDE;" d="M165.193,268.281c0,1.204-0.976,2.18-2.18,2.18c-1.204,0-2.18-0.976-2.18-2.18
						s0.976-2.18,2.18-2.18C164.217,266.101,165.193,267.077,165.193,268.281z"/>
					
						<line style="fill:none;stroke:#141D30;stroke-width:0.7631;stroke-miterlimit:10;" x1="180.094" y1="248.757" x2="199.406" y2="257.382"/>
					
						<line style="fill:none;stroke:#141D30;stroke-width:0.7631;stroke-miterlimit:10;" x1="185.092" y1="247.913" x2="204.984" y2="248.757"/>
					<path style="fill:#141D30;" d="M230.042,182.15c-1.286,4.241-4.26,16.865-1.614,36.578c0.328,2.441,0.146,4.936-0.635,7.272
						c-4.616,13.792-1.261,26.759,0.738,32.452l11.6-31.598L230.042,182.15z"/>
					<polyline style="fill:none;stroke:#D45151;stroke-miterlimit:10;" points="91.992,220.458 104.297,224.851 108.609,225.226 
											"/>
					<polyline style="fill:none;stroke:#D45151;stroke-miterlimit:10;" points="91.651,225.595 99.891,229.21 107.156,229.867 					
						"/>
					<line style="fill:none;stroke:#D45151;stroke-miterlimit:10;" x1="109.219" y1="223.498" x2="106.594" y2="232.679"/>
					<path style="fill:none;stroke:#D45151;stroke-miterlimit:10;" d="M108.609,231.78c2.719-2.101,7.734-4.445,12.328-1.398"/>
				</g>
				<g>
					<path style="fill:#ABABAB;" d="M473.983,259.445c5.73-3.145-6.086-30.747-6.086-30.747l-9.955,4.288
						C457.943,232.985,468.218,262.609,473.983,259.445z"/>
					<path style="fill:#FF8C8C;" d="M453.78,234.778l21.82-9.398c0,0-1.395-6.374,3.656-11.18c2.883-2.742,6.539-5.43,6.539-5.43
						l2.242,2.081l-3.868,4.597l0.116,5.824l10.58,0.029l12.305-3.797l0.914,2.953l1.406-0.703l1.547,4.289l-2.612,1.551
						l1.206,3.089l-5.344,3.867l-5.906,1.266l6.68,0.07l3.797-2.32l0.773,2.32l-4.781,2.742c0,0-10.758,4.242-22.922,1.336
						l-19.898,16.826L453.78,234.778z"/>
					<path style="fill:#D45151;" d="M462.03,254.791l-8.25-20.013l16.973-7.311c-1.47,5.872-1.454,12.512-0.425,20.307
						L462.03,254.791z"/>
					<path style="fill:#141D30;" d="M472.015,275.476c4.995-2.717-2.694-17.645-2.694-17.645l-16.202,6.917
						C453.119,264.748,466.517,278.467,472.015,275.476z"/>
					<path style="fill:#FFFFFF;" d="M450.077,235.82l12.094-4.74c0,0,3.469,25.271,11.813,28.365l-23.906,15.047V235.82z"/>
					<path style="fill:#141D30;" d="M390.497,292.91c-0.577-0.618-0.92-1.214-1.073-1.79c21.75-7.23,42.387-0.763,49.051,14.1
						C425.507,315.087,400.867,304.019,390.497,292.91z"/>
					<path style="fill:#26395E;" d="M374.573,162.039l-14.627,64.815l18.142,49.418c7.387,20.122,30.485,29.524,49.824,20.281
						l44.102-21.077c0,0-10.688,2.813-21.937-39.656l-30.094,12.937l-32.625-61.594
						C387.359,187.164,387.382,176.289,374.573,162.039z"/>
					
						<line style="fill:none;stroke:#141D30;stroke-width:0.7631;stroke-miterlimit:10;" x1="460.188" y1="263.908" x2="428.046" y2="279.695"/>
					<circle style="fill:#DEDEDE;" cx="449.655" cy="261.484" r="2.18"/>
					<path style="fill:#DEDEDE;" d="M434.884,268.281c0,1.204,0.976,2.18,2.18,2.18s2.18-0.976,2.18-2.18s-0.976-2.18-2.18-2.18
						S434.884,267.077,434.884,268.281z"/>
					
						<line style="fill:none;stroke:#141D30;stroke-width:0.7631;stroke-miterlimit:10;" x1="419.984" y1="248.757" x2="400.671" y2="257.382"/>
					
						<line style="fill:none;stroke:#141D30;stroke-width:0.7631;stroke-miterlimit:10;" x1="414.985" y1="247.913" x2="395.093" y2="248.757"/>
					<path style="fill:#141D30;" d="M370.035,182.15c1.286,4.241,4.26,16.865,1.614,36.578c-0.328,2.441-0.146,4.936,0.635,7.272
						c4.616,13.792,1.261,26.759-0.738,32.452l-11.6-31.598L370.035,182.15z"/>
					<polyline style="fill:none;stroke:#D45151;stroke-miterlimit:10;" points="508.085,220.458 495.78,224.851 491.468,225.226 
											"/>
					<polyline style="fill:none;stroke:#D45151;stroke-miterlimit:10;" points="508.426,225.595 500.186,229.21 492.921,229.867 
											"/>
					<line style="fill:none;stroke:#D45151;stroke-miterlimit:10;" x1="490.858" y1="223.498" x2="493.483" y2="232.679"/>
					<path style="fill:none;stroke:#D45151;stroke-miterlimit:10;" d="M491.468,231.78c-2.719-2.101-7.734-4.445-12.328-1.398"/>
				</g>
				<polygon style="fill:#FF8C8C;" points="311.719,122.664 300,122.664 288.281,122.664 287.062,144.601 300,152.195 
					312.938,144.601 				"/>
				<polygon style="fill:#125EC9;" points="303.141,158.382 296.859,158.382 293.885,148.304 306.115,148.304 				"/>
				<path style="fill:#D45151;" d="M304.453,137.929c2.006,0,4.944-0.484,8.012-1.843l-0.746-13.422H300h-11.719l-0.371,6.669
					C292.976,136.079,300.51,137.929,304.453,137.929z"/>
				<g>
					<g>
						<g>
							<path style="fill:#D45151;" d="M286.706,112.211c1.482,2.863,0.673,6.224-1.805,7.507c-2.479,1.283-5.689,0.001-7.171-2.862
								c-1.482-2.863-0.673-6.224,1.805-7.507S285.224,109.348,286.706,112.211z"/>
							<path style="fill:none;stroke:#FF8C8C;stroke-width:0.7091;stroke-miterlimit:10;" d="M279.336,113.695
								c0.709-3.124,4.103-3.433,6.919,0.156"/>
						</g>
					</g>
					<g>
						<g>
							<path style="fill:#D45151;" d="M313.294,112.211c-1.482,2.863-0.673,6.224,1.805,7.507s5.689,0.001,7.171-2.862
								c1.482-2.863,0.673-6.224-1.805-7.507S314.776,109.348,313.294,112.211z"/>
							<path style="fill:none;stroke:#FF8C8C;stroke-width:0.7091;stroke-miterlimit:10;" d="M320.663,113.695
								c-0.709-3.124-4.103-3.433-6.919,0.156"/>
						</g>
					</g>
				</g>
				<path style="fill:#FF8C8C;" d="M315.769,105.898c-2.047-2.327-2.957-5.442-2.486-8.505v-0.001
					c0.201-1.303-0.808-2.479-2.127-2.479H300h-11.156c-1.319,0-2.327,1.175-2.127,2.479l0,0c0.471,3.063-0.439,6.178-2.486,8.506
					l-1.388,1.578c0.938,19.5,12.375,23.812,17.156,23.812s16.219-4.313,17.156-23.812L315.769,105.898z"/>
				<g>
					<g>
						<path style="fill:none;stroke:#142F61;stroke-width:0.75;stroke-miterlimit:10;" d="M289.554,108.226
							c1.5,1.969,4.734,1.922,6.844-0.188"/>
						<path style="fill:none;stroke:#142F61;stroke-miterlimit:10;" d="M288.429,103.632c2.672-1.453,5.672-1.688,8.344,0"/>
					</g>
					<g>
						<path style="fill:none;stroke:#142F61;stroke-width:0.75;stroke-miterlimit:10;" d="M310.446,108.226
							c-1.5,1.969-4.734,1.922-6.844-0.188"/>
						<path style="fill:none;stroke:#142F61;stroke-miterlimit:10;" d="M311.571,103.632c-2.672-1.453-5.672-1.688-8.344,0"/>
					</g>
				</g>
				<polyline style="fill:none;stroke:#D45151;stroke-miterlimit:10;" points="299.203,106.023 299.203,113.23 302.474,112.562 				
					"/>
				<path style="fill:none;stroke:#142F61;stroke-miterlimit:10;" d="M294.398,115.553c0,0,4.406,3.047,11.203,0"/>
				<line style="fill:none;stroke:#D45151;stroke-miterlimit:10;" x1="298.059" y1="119.945" x2="301.94" y2="119.945"/>
				<g>
					<polygon style="fill:#FFFFFF;" points="298.481,148.304 294.298,157.246 280.727,147.039 284.233,140.625 					"/>
					<polygon style="fill:#FFFFFF;" points="301.519,148.304 305.702,157.246 319.272,147.039 315.766,140.625 					"/>
				</g>
				<g>
					<path style="fill:#125EC9;" d="M303.141,158.382h-6.283c0,0,0.516,17.063,5.485,26.063
						c8.869,16.064,28.406,12.75,33.375,20.156c4.969,7.406,10.313,18.75,33.938,15.281l14.437-14.156l-15-6.938
						c0,0-10.219,4.313-16.969-3.375c-6.75-7.688-12.562-10.125-22.031-9.844C320.625,185.851,305.062,180.601,303.141,158.382z"/>
					<path style="fill:#0E4899;" d="M304.076,164.398c-0.428-1.853-0.748-3.852-0.935-6.016h-6.283c0,0,0.006,0.201,0.023,0.553
						C298.997,160.195,302,162.184,304.076,164.398z"/>
				</g>
			</g>
		</g>
	</g>
</g>
</svg>
