<?xml version="1.0" encoding="utf-8"?>
<!-- Generator: Adobe Illustrator 27.5.0, SVG Export Plug-In . SVG Version: 6.00 Build 0)  -->
<svg version="1.1" xmlns="http://www.w3.org/2000/svg" xmlns:xlink="http://www.w3.org/1999/xlink" x="0px" y="0px"
	 viewBox="0 0 800 800" style="enable-background:new 0 0 800 800;" xml:space="preserve">
<g id="background">
	<g>
		<path style="fill:#363738;" d="M289.135,775.598c-0.338,0-0.602,0.119-0.787,0.353c-0.184,0.236-0.275,0.588-0.275,1.049v3.328
			c-0.424-0.461-0.855-0.805-1.303-1.027c-0.447-0.223-0.996-0.336-1.645-0.336c-1.125,0-2.029,0.395-2.718,1.182
			c-0.686,0.789-1.032,1.887-1.032,3.293c0,0.67,0.084,1.287,0.262,1.859c0.172,0.572,0.425,1.074,0.763,1.492
			c0.335,0.426,0.732,0.752,1.193,0.982c0.46,0.225,0.959,0.344,1.499,0.344c0.406,0,0.782-0.059,1.125-0.172
			c0.346-0.111,0.664-0.275,0.961-0.496c0.293-0.217,0.591-0.5,0.895-0.844v0.221c0,0.412,0.099,0.732,0.302,0.957
			c0.201,0.223,0.452,0.334,0.761,0.334c0.316,0,0.57-0.111,0.77-0.326c0.198-0.213,0.299-0.535,0.299-0.965v-9.939
			c0-0.428-0.093-0.744-0.275-0.965C289.742,775.705,289.478,775.598,289.135,775.598z M287.656,785.113
			c-0.196,0.428-0.459,0.74-0.787,0.947c-0.326,0.209-0.689,0.313-1.084,0.313c-0.393,0-0.753-0.109-1.082-0.328
			c-0.331-0.217-0.59-0.541-0.779-0.969c-0.191-0.428-0.287-0.949-0.287-1.563c0-0.576,0.092-1.086,0.27-1.518
			c0.18-0.44,0.433-0.777,0.757-1.012c0.323-0.236,0.692-0.352,1.104-0.352c0.397,0,0.763,0.115,1.096,0.346
			c0.335,0.227,0.598,0.557,0.794,0.988c0.193,0.432,0.292,0.947,0.292,1.547C287.948,784.152,287.85,784.688,287.656,785.113z"/>
		<path style="fill:#363738;" d="M300.127,783.836c0.324-0.17,0.49-0.539,0.49-1.105c0-0.609-0.158-1.211-0.473-1.801
			c-0.315-0.588-0.787-1.066-1.416-1.44c-0.631-0.373-1.387-0.557-2.266-0.557c-0.676,0-1.296,0.109-1.85,0.326
			c-0.558,0.217-1.025,0.529-1.404,0.935c-0.381,0.408-0.67,0.898-0.867,1.467c-0.198,0.57-0.299,1.19-0.299,1.852
			c0,1.418,0.406,2.535,1.208,3.361c0.802,0.826,1.927,1.242,3.376,1.242c0.633,0,1.193-0.086,1.68-0.25
			c0.486-0.166,0.893-0.375,1.216-0.621c0.32-0.252,0.56-0.516,0.722-0.787c0.159-0.271,0.238-0.512,0.238-0.715
			c0-0.23-0.072-0.41-0.216-0.535c-0.142-0.125-0.33-0.191-0.56-0.191c-0.215,0-0.381,0.051-0.497,0.148
			c-0.28,0.264-0.509,0.473-0.683,0.629c-0.179,0.152-0.369,0.295-0.579,0.434c-0.21,0.135-0.425,0.234-0.647,0.299
			c-0.223,0.061-0.472,0.094-0.739,0.094c-0.402,0-0.768-0.1-1.101-0.301c-0.336-0.195-0.603-0.492-0.803-0.881
			c-0.202-0.391-0.305-0.842-0.309-1.356h4.409C299.347,784.084,299.805,784.002,300.127,783.836z M294.35,782.809
			c0.072-0.764,0.293-1.338,0.654-1.725c0.36-0.389,0.824-0.58,1.383-0.58c0.59,0,1.065,0.19,1.422,0.574
			c0.364,0.381,0.573,0.959,0.626,1.73H294.35z"/>
		<path style="fill:#363738;" d="M308.424,783.227c-0.444-0.236-1.018-0.44-1.715-0.611c-0.59-0.142-1.051-0.266-1.387-0.363
			c-0.336-0.1-0.604-0.225-0.804-0.375c-0.196-0.152-0.296-0.346-0.296-0.582c0-0.258,0.136-0.475,0.405-0.648
			c0.271-0.174,0.607-0.262,1.015-0.262c0.397,0,0.711,0.066,0.942,0.201c0.233,0.131,0.431,0.307,0.603,0.529
			c0.209,0.262,0.396,0.457,0.558,0.594c0.161,0.129,0.358,0.197,0.592,0.197c0.317,0,0.565-0.084,0.738-0.248
			c0.174-0.166,0.26-0.379,0.26-0.637c0-0.236-0.083-0.477-0.243-0.727c-0.161-0.25-0.398-0.473-0.71-0.676
			c-0.312-0.203-0.7-0.365-1.165-0.49c-0.466-0.119-0.988-0.178-1.574-0.178c-0.742,0-1.375,0.115-1.903,0.359
			c-0.522,0.238-0.923,0.559-1.192,0.959c-0.271,0.402-0.403,0.832-0.403,1.279c0,0.508,0.146,0.932,0.436,1.283
			c0.293,0.344,0.681,0.625,1.17,0.836c0.486,0.211,1.118,0.414,1.893,0.605c0.691,0.166,1.182,0.34,1.483,0.522
			c0.3,0.184,0.452,0.471,0.452,0.869c0,0.256-0.148,0.488-0.438,0.685c-0.285,0.203-0.658,0.305-1.111,0.305
			c-0.554,0-0.994-0.102-1.315-0.301c-0.32-0.197-0.6-0.494-0.828-0.898c-0.115-0.209-0.238-0.371-0.366-0.488
			c-0.126-0.113-0.306-0.172-0.544-0.172c-0.27,0-0.493,0.088-0.67,0.266c-0.175,0.176-0.263,0.389-0.263,0.635
			c0,0.373,0.14,0.748,0.411,1.119c0.275,0.371,0.701,0.682,1.28,0.926c0.577,0.25,1.272,0.377,2.082,0.377
			c0.848,0,1.569-0.119,2.162-0.344c0.589-0.23,1.034-0.564,1.339-1.01c0.303-0.443,0.455-0.977,0.455-1.598
			c0-0.41-0.115-0.779-0.344-1.104C309.201,783.742,308.866,783.465,308.424,783.227z"/>
		<path style="fill:#363738;" d="M312.795,778.951c-0.328,0-0.602,0.109-0.805,0.338c-0.208,0.223-0.311,0.559-0.311,1.006v6.451
			c0,0.439,0.103,0.775,0.311,1.014c0.203,0.236,0.477,0.357,0.805,0.357c0.329,0,0.602-0.119,0.815-0.35
			c0.216-0.23,0.324-0.572,0.324-1.021v-6.518c0-0.398-0.108-0.717-0.324-0.939C313.396,779.06,313.124,778.951,312.795,778.951z"/>
		<path style="fill:#363738;" d="M312.819,775.695c-0.302,0-0.568,0.104-0.796,0.313c-0.23,0.203-0.344,0.465-0.344,0.785
			c0,0.355,0.113,0.627,0.334,0.818c0.224,0.193,0.49,0.291,0.806,0.291c0.302,0,0.563-0.102,0.784-0.295
			c0.222-0.197,0.331-0.467,0.331-0.814c0-0.358-0.114-0.629-0.339-0.818C313.367,775.791,313.109,775.695,312.819,775.695z"/>
		<path style="fill:#363738;" d="M323.471,778.951c-0.305,0-0.551,0.104-0.741,0.322c-0.192,0.213-0.29,0.516-0.29,0.908v0.301
			c-0.403-0.522-0.837-0.904-1.305-1.148c-0.469-0.246-1.022-0.369-1.657-0.369c-0.537,0-1.027,0.096-1.472,0.287
			c-0.449,0.189-0.841,0.469-1.183,0.844c-0.341,0.373-0.603,0.834-0.788,1.379c-0.185,0.547-0.275,1.156-0.275,1.832
			c0,0.91,0.15,1.711,0.455,2.404c0.299,0.695,0.734,1.233,1.301,1.619c0.563,0.385,1.223,0.578,1.975,0.578
			c0.63,0,1.168-0.125,1.622-0.381c0.456-0.252,0.858-0.621,1.204-1.105c-0.013,0.74-0.029,1.275-0.05,1.605
			c-0.023,0.336-0.098,0.645-0.227,0.94c-0.132,0.291-0.356,0.516-0.68,0.68c-0.319,0.164-0.774,0.244-1.356,0.244
			c-0.286,0-0.542-0.027-0.761-0.08c-0.219-0.051-0.41-0.129-0.564-0.238c-0.159-0.109-0.303-0.238-0.43-0.391
			c-0.132-0.148-0.257-0.299-0.377-0.447c-0.248-0.293-0.538-0.439-0.865-0.439c-0.267,0-0.494,0.086-0.68,0.264
			c-0.186,0.172-0.28,0.396-0.28,0.672c0,0.363,0.167,0.715,0.496,1.063c0.329,0.34,0.8,0.621,1.412,0.84
			c0.61,0.217,1.307,0.326,2.082,0.326c0.847,0,1.556-0.086,2.124-0.254c0.57-0.172,1.033-0.434,1.383-0.787
			c0.354-0.354,0.609-0.797,0.767-1.338c0.161-0.541,0.241-1.184,0.241-1.932V780.6c0-0.535-0.071-0.943-0.213-1.223
			C324.192,779.094,323.904,778.951,323.471,778.951z M322.044,785.021c-0.209,0.404-0.481,0.711-0.815,0.91
			c-0.333,0.199-0.685,0.301-1.06,0.301c-0.634,0-1.148-0.234-1.549-0.701c-0.4-0.469-0.599-1.16-0.599-2.074
			c0-0.904,0.194-1.598,0.583-2.088c0.389-0.492,0.903-0.736,1.549-0.736c0.658,0,1.193,0.258,1.598,0.766
			c0.402,0.514,0.607,1.231,0.607,2.148C322.357,784.127,322.251,784.617,322.044,785.021z"/>
		<path style="fill:#363738;" d="M334.444,780.435c-0.23-0.475-0.581-0.84-1.046-1.1c-0.471-0.258-1-0.385-1.596-0.385
			c-0.611,0-1.153,0.121-1.622,0.365c-0.474,0.246-0.904,0.629-1.3,1.152v-0.273c0-0.271-0.049-0.496-0.146-0.685
			c-0.095-0.186-0.226-0.326-0.383-0.42c-0.16-0.092-0.34-0.139-0.535-0.139c-0.328,0-0.584,0.104-0.769,0.314
			c-0.188,0.213-0.282,0.533-0.282,0.963v6.518c0,0.439,0.103,0.775,0.313,1.014c0.211,0.236,0.478,0.357,0.803,0.357
			c0.334,0,0.609-0.119,0.821-0.344c0.21-0.23,0.317-0.572,0.317-1.027v-2.826c0-0.918,0.056-1.547,0.164-1.883
			c0.154-0.42,0.398-0.75,0.727-0.988c0.332-0.238,0.697-0.357,1.1-0.357c0.616,0,1.029,0.199,1.235,0.588
			c0.206,0.396,0.308,0.965,0.308,1.709v3.758c0,0.439,0.105,0.775,0.313,1.014c0.213,0.236,0.483,0.357,0.818,0.357
			c0.332,0,0.598-0.119,0.806-0.35c0.206-0.23,0.31-0.572,0.31-1.021v-4.197c0-0.494-0.022-0.902-0.064-1.223
			C334.689,781.008,334.592,780.713,334.444,780.435z"/>
		<path style="fill:#363738;" d="M344.709,783.836c0.322-0.17,0.484-0.539,0.484-1.105c0-0.609-0.152-1.211-0.469-1.801
			c-0.314-0.588-0.785-1.066-1.417-1.44c-0.632-0.373-1.386-0.557-2.264-0.557c-0.679,0-1.296,0.109-1.85,0.326
			c-0.558,0.217-1.025,0.529-1.404,0.935c-0.38,0.408-0.671,0.898-0.868,1.467c-0.194,0.57-0.299,1.19-0.299,1.852
			c0,1.418,0.405,2.535,1.208,3.361c0.805,0.826,1.926,1.242,3.377,1.242c0.631,0,1.193-0.086,1.682-0.25
			c0.486-0.166,0.891-0.375,1.211-0.621c0.323-0.252,0.563-0.516,0.725-0.787c0.159-0.271,0.238-0.512,0.238-0.715
			c0-0.23-0.072-0.41-0.215-0.535c-0.145-0.125-0.328-0.191-0.561-0.191c-0.214,0-0.381,0.051-0.497,0.148
			c-0.28,0.264-0.509,0.473-0.684,0.629c-0.177,0.152-0.368,0.295-0.578,0.434c-0.21,0.135-0.427,0.234-0.648,0.299
			c-0.224,0.061-0.469,0.094-0.739,0.094c-0.402,0-0.768-0.1-1.102-0.301c-0.334-0.195-0.603-0.492-0.803-0.881
			c-0.202-0.391-0.303-0.842-0.309-1.356h4.409C343.927,784.084,344.383,784.002,344.709,783.836z M338.928,782.809
			c0.078-0.764,0.297-1.338,0.655-1.725c0.36-0.389,0.823-0.58,1.387-0.58c0.587,0,1.062,0.19,1.423,0.574
			c0.359,0.381,0.568,0.959,0.623,1.73H338.928z"/>
		<path style="fill:#363738;" d="M354.336,775.598c-0.345,0-0.603,0.119-0.787,0.353c-0.186,0.236-0.279,0.588-0.279,1.049v3.328
			c-0.424-0.461-0.856-0.805-1.305-1.027c-0.445-0.223-0.988-0.336-1.64-0.336c-1.125,0-2.032,0.395-2.719,1.182
			c-0.688,0.789-1.032,1.887-1.032,3.293c0,0.67,0.088,1.287,0.261,1.859c0.171,0.572,0.431,1.074,0.762,1.492
			c0.337,0.426,0.734,0.752,1.192,0.982c0.461,0.225,0.961,0.344,1.5,0.344c0.405,0,0.783-0.059,1.128-0.172
			c0.343-0.111,0.663-0.275,0.956-0.496c0.297-0.217,0.596-0.5,0.897-0.844v0.221c0,0.412,0.102,0.732,0.303,0.957
			c0.201,0.223,0.456,0.334,0.764,0.334c0.313,0,0.567-0.111,0.768-0.326c0.197-0.213,0.299-0.535,0.299-0.965v-9.939
			c0-0.428-0.091-0.744-0.275-0.965C354.938,775.705,354.678,775.598,354.336,775.598z M352.853,785.113
			c-0.195,0.428-0.458,0.74-0.781,0.947c-0.331,0.209-0.692,0.313-1.09,0.313c-0.389,0-0.751-0.109-1.08-0.328
			c-0.332-0.217-0.59-0.541-0.779-0.969c-0.191-0.428-0.286-0.949-0.286-1.563c0-0.576,0.089-1.086,0.269-1.518
			c0.178-0.44,0.43-0.777,0.754-1.012c0.326-0.236,0.693-0.352,1.109-0.352c0.395,0,0.759,0.115,1.092,0.346
			c0.335,0.227,0.598,0.557,0.793,0.988c0.195,0.432,0.297,0.947,0.297,1.547C353.15,784.152,353.049,784.688,352.853,785.113z"/>
		<path style="fill:#363738;" d="M368.873,779.498c-0.564-0.355-1.221-0.533-1.97-0.533c-0.647,0-1.193,0.115-1.636,0.352
			c-0.439,0.234-0.871,0.568-1.295,1.012v-3.441c0-0.416-0.094-0.734-0.281-0.957c-0.188-0.221-0.453-0.332-0.801-0.332
			c-0.331,0-0.586,0.117-0.771,0.35c-0.186,0.232-0.278,0.58-0.278,1.037v9.842c0,0.428,0.096,0.742,0.283,0.965
			c0.191,0.215,0.447,0.326,0.766,0.326c0.314,0,0.572-0.111,0.777-0.326c0.203-0.223,0.305-0.537,0.305-0.965v-0.221
			c0.249,0.283,0.445,0.502,0.598,0.642c0.151,0.141,0.336,0.281,0.55,0.416c0.214,0.135,0.475,0.244,0.781,0.326
			c0.305,0.084,0.63,0.127,0.977,0.127c0.567,0,1.085-0.119,1.557-0.344c0.471-0.23,0.872-0.555,1.202-0.973
			c0.328-0.416,0.582-0.912,0.757-1.48c0.173-0.57,0.258-1.195,0.258-1.881c0-0.922-0.154-1.725-0.466-2.398
			C369.874,780.367,369.438,779.852,368.873,779.498z M367.776,785.633c-0.413,0.492-0.901,0.74-1.468,0.74
			c-0.666,0-1.202-0.242-1.613-0.723c-0.412-0.482-0.617-1.17-0.617-2.068c0-0.609,0.097-1.139,0.291-1.58
			c0.191-0.445,0.456-0.783,0.791-1.018c0.338-0.236,0.718-0.352,1.148-0.352c0.42,0,0.785,0.115,1.099,0.352
			c0.314,0.234,0.554,0.564,0.726,0.996c0.172,0.43,0.256,0.939,0.256,1.533C368.389,784.434,368.185,785.141,367.776,785.633z"/>
		<path style="fill:#363738;" d="M379.277,779.086c-0.158-0.092-0.32-0.135-0.492-0.135c-0.234,0-0.419,0.039-0.549,0.121
			c-0.129,0.082-0.252,0.244-0.369,0.478c-0.113,0.238-0.244,0.564-0.386,0.984l-1.808,5.16l-1.908-5.549
			c-0.127-0.389-0.274-0.678-0.436-0.887c-0.167-0.207-0.412-0.309-0.737-0.309c-0.187,0-0.366,0.049-0.542,0.147
			c-0.172,0.1-0.309,0.228-0.408,0.394c-0.098,0.164-0.149,0.346-0.149,0.539c0,0.182,0.085,0.473,0.257,0.875l2.773,6.986
			l-0.203,0.504c-0.158,0.365-0.292,0.648-0.411,0.836c-0.116,0.189-0.253,0.324-0.399,0.4c-0.151,0.078-0.353,0.115-0.61,0.115
			c-0.106,0-0.229-0.016-0.372-0.049c-0.116-0.031-0.233-0.051-0.357-0.051c-0.307,0-0.541,0.072-0.695,0.213
			c-0.159,0.141-0.234,0.34-0.234,0.6c0,0.379,0.166,0.639,0.494,0.783c0.33,0.145,0.825,0.215,1.484,0.215
			c0.675,0,1.217-0.103,1.614-0.311c0.401-0.209,0.722-0.504,0.962-0.889c0.246-0.385,0.489-0.914,0.746-1.596l2.938-7.69
			c0.072-0.201,0.133-0.396,0.184-0.59c0.05-0.191,0.084-0.342,0.105-0.445c0-0.17-0.042-0.33-0.129-0.486
			C379.553,779.299,379.434,779.178,379.277,779.086z"/>
		<path style="fill:#363738;" d="M419.502,775.598c-0.743,0-1.329,0.09-1.755,0.283c-0.427,0.189-0.733,0.492-0.908,0.91
			c-0.178,0.414-0.269,0.975-0.269,1.68v0.678h-0.536c-0.755,0-1.132,0.272-1.132,0.807c0,0.244,0.089,0.441,0.273,0.59
			c0.181,0.154,0.438,0.228,0.776,0.228h0.618v5.973c0,0.443,0.107,0.783,0.32,1.016c0.211,0.236,0.475,0.355,0.792,0.355
			c0.338,0,0.612-0.119,0.824-0.355c0.21-0.232,0.318-0.572,0.318-1.016v-5.973h0.554c0.401,0,0.716-0.049,0.946-0.146
			c0.225-0.102,0.34-0.334,0.34-0.705c0-0.514-0.427-0.773-1.286-0.773h-0.554v-0.539c0-0.443,0.058-0.787,0.173-1.027
			c0.117-0.24,0.378-0.357,0.784-0.357c0.15,0,0.331,0.014,0.544,0.047c0.214,0.033,0.366,0.051,0.453,0.051
			c0.189,0,0.351-0.074,0.49-0.223c0.138-0.148,0.207-0.326,0.207-0.537C421.477,775.918,420.817,775.598,419.502,775.598z"/>
		<path style="fill:#363738;" d="M427.354,779.303c-0.447-0.236-0.906-0.352-1.379-0.352c-0.474,0-0.852,0.115-1.134,0.352
			c-0.284,0.238-0.561,0.59-0.832,1.051c-0.019-0.461-0.108-0.813-0.272-1.051c-0.165-0.236-0.433-0.352-0.81-0.352
			c-0.731,0-1.099,0.504-1.099,1.518v6.277c0,0.449,0.105,0.791,0.315,1.021c0.209,0.23,0.474,0.35,0.799,0.35
			c0.331,0,0.604-0.119,0.82-0.344c0.214-0.23,0.321-0.572,0.321-1.027v-1.887c0-0.674,0.02-1.248,0.066-1.719
			c0.044-0.473,0.125-0.877,0.239-1.219c0.113-0.342,0.279-0.6,0.486-0.773c0.208-0.17,0.477-0.258,0.81-0.258
			c0.24,0,0.522,0.051,0.838,0.15c0.314,0.102,0.518,0.154,0.6,0.154c0.22,0,0.421-0.092,0.61-0.268
			c0.194-0.18,0.285-0.406,0.285-0.682C428.02,779.856,427.801,779.541,427.354,779.303z"/>
		<path style="fill:#363738;" d="M436.496,783.836c0.326-0.17,0.486-0.539,0.486-1.105c0-0.609-0.159-1.211-0.472-1.801
			c-0.311-0.588-0.784-1.066-1.415-1.44c-0.631-0.373-1.388-0.557-2.267-0.557c-0.676,0-1.291,0.109-1.849,0.326
			c-0.557,0.217-1.024,0.529-1.406,0.935c-0.379,0.408-0.668,0.898-0.865,1.467c-0.196,0.57-0.3,1.19-0.3,1.852
			c0,1.418,0.405,2.535,1.207,3.361c0.804,0.826,1.928,1.242,3.376,1.242c0.634,0,1.197-0.086,1.68-0.25
			c0.49-0.166,0.896-0.375,1.218-0.621c0.319-0.252,0.559-0.516,0.719-0.787c0.162-0.271,0.24-0.512,0.24-0.715
			c0-0.23-0.069-0.41-0.213-0.535c-0.142-0.125-0.332-0.191-0.559-0.191c-0.215,0-0.384,0.051-0.5,0.148
			c-0.276,0.264-0.509,0.473-0.684,0.629c-0.175,0.152-0.368,0.295-0.581,0.434c-0.207,0.135-0.422,0.234-0.646,0.299
			c-0.223,0.061-0.47,0.094-0.74,0.094c-0.398,0-0.766-0.1-1.102-0.301c-0.335-0.195-0.601-0.492-0.802-0.881
			c-0.198-0.391-0.304-0.842-0.307-1.356h4.407C435.714,784.084,436.169,784.002,436.496,783.836z M430.717,782.809
			c0.078-0.764,0.295-1.338,0.656-1.725c0.358-0.389,0.82-0.58,1.384-0.58c0.588,0,1.063,0.19,1.422,0.574
			c0.363,0.381,0.566,0.959,0.624,1.73H430.717z"/>
		<path style="fill:#363738;" d="M446.544,783.836c0.325-0.17,0.486-0.539,0.486-1.105c0-0.609-0.156-1.211-0.47-1.801
			c-0.313-0.588-0.786-1.066-1.415-1.44c-0.632-0.373-1.386-0.557-2.268-0.557c-0.675,0-1.293,0.109-1.85,0.326
			c-0.557,0.217-1.022,0.529-1.401,0.935c-0.381,0.408-0.669,0.898-0.87,1.467c-0.197,0.57-0.294,1.19-0.294,1.852
			c0,1.418,0.401,2.535,1.203,3.361c0.805,0.826,1.93,1.242,3.379,1.242c0.632,0,1.191-0.086,1.678-0.25
			c0.489-0.166,0.893-0.375,1.217-0.621c0.319-0.252,0.562-0.516,0.724-0.787c0.155-0.271,0.234-0.512,0.234-0.715
			c0-0.23-0.07-0.41-0.213-0.535c-0.144-0.125-0.329-0.191-0.56-0.191c-0.218,0-0.38,0.051-0.495,0.148
			c-0.282,0.264-0.511,0.473-0.686,0.629c-0.175,0.152-0.37,0.295-0.577,0.434c-0.211,0.135-0.427,0.234-0.649,0.299
			c-0.224,0.061-0.471,0.094-0.739,0.094c-0.402,0-0.769-0.1-1.103-0.301c-0.332-0.195-0.601-0.492-0.801-0.881
			c-0.2-0.391-0.303-0.842-0.309-1.356h4.409C445.766,784.084,446.22,784.002,446.544,783.836z M440.765,782.809
			c0.074-0.764,0.299-1.338,0.654-1.725c0.364-0.389,0.822-0.58,1.386-0.58c0.587,0,1.063,0.19,1.423,0.574
			c0.36,0.381,0.569,0.959,0.623,1.73H440.765z"/>
		<path style="fill:#363738;" d="M455.578,779.504c-0.583-0.361-1.223-0.539-1.917-0.539c-0.578,0-1.093,0.123-1.552,0.369
			c-0.454,0.244-0.895,0.627-1.32,1.148v-0.27c0-0.406-0.101-0.721-0.302-0.94c-0.201-0.219-0.462-0.322-0.781-0.322
			c-0.326,0-0.579,0.104-0.77,0.314c-0.182,0.213-0.276,0.533-0.276,0.963v9.727c0,0.488,0.067,0.863,0.205,1.117
			c0.138,0.258,0.418,0.387,0.841,0.387c0.721,0,1.083-0.492,1.083-1.484v-3.391c0.395,0.506,0.813,0.885,1.249,1.141
			c0.44,0.26,0.98,0.393,1.623,0.393c0.535,0,1.035-0.107,1.498-0.322c0.467-0.207,0.867-0.512,1.21-0.906
			c0.343-0.393,0.61-0.881,0.807-1.463c0.195-0.582,0.292-1.217,0.292-1.912c0-0.943-0.168-1.754-0.505-2.443
			C456.622,780.385,456.163,779.863,455.578,779.504z M454.917,785.068c-0.195,0.434-0.448,0.76-0.77,0.977
			c-0.316,0.219-0.665,0.328-1.038,0.328c-0.629,0-1.151-0.248-1.579-0.748c-0.424-0.498-0.634-1.197-0.634-2.092
			c0-0.955,0.211-1.674,0.64-2.164c0.425-0.492,0.953-0.736,1.573-0.736c0.393,0,0.745,0.115,1.068,0.346
			c0.322,0.227,0.575,0.553,0.755,0.98c0.183,0.426,0.272,0.938,0.272,1.531C455.205,784.109,455.107,784.635,454.917,785.068z"/>
		<path style="fill:#363738;" d="M460.391,778.951c-0.33,0-0.597,0.109-0.805,0.338c-0.207,0.223-0.309,0.559-0.309,1.006v6.451
			c0,0.439,0.102,0.775,0.309,1.014c0.208,0.236,0.475,0.357,0.805,0.357c0.331,0,0.601-0.119,0.817-0.35
			c0.216-0.23,0.322-0.572,0.322-1.021v-6.518c0-0.398-0.106-0.717-0.322-0.939C460.991,779.06,460.722,778.951,460.391,778.951z"/>
		<path style="fill:#363738;" d="M460.417,775.695c-0.302,0-0.571,0.104-0.798,0.313c-0.227,0.203-0.342,0.465-0.342,0.785
			c0,0.355,0.113,0.627,0.335,0.818c0.219,0.193,0.49,0.291,0.805,0.291c0.303,0,0.565-0.102,0.785-0.295
			c0.218-0.197,0.328-0.467,0.328-0.814c0-0.358-0.113-0.629-0.338-0.818C460.965,775.791,460.709,775.695,460.417,775.695z"/>
		<path style="fill:#363738;" d="M471.298,785.943l-2.311-3.635l1.196-1.098c0.612-0.549,0.919-0.99,0.919-1.318
			c0-0.271-0.096-0.494-0.282-0.672c-0.189-0.182-0.422-0.27-0.702-0.27c-0.235,0-0.437,0.059-0.605,0.178
			c-0.162,0.125-0.4,0.348-0.715,0.682l-2.534,2.656V777c0-0.461-0.105-0.813-0.307-1.049c-0.204-0.234-0.478-0.353-0.823-0.353
			c-0.36,0-0.636,0.131-0.83,0.392c-0.193,0.26-0.287,0.643-0.287,1.143v9.613c0,0.449,0.1,0.791,0.297,1.021
			c0.199,0.23,0.47,0.35,0.82,0.35c0.294,0,0.558-0.119,0.787-0.355c0.228-0.232,0.343-0.566,0.343-1.002v-1.793l1.222-1.154
			l1.988,3.269c0.253,0.393,0.454,0.658,0.603,0.811c0.148,0.148,0.362,0.225,0.637,0.225c0.316,0,0.576-0.104,0.768-0.313
			c0.197-0.209,0.297-0.486,0.297-0.846c0-0.127-0.039-0.262-0.113-0.4C471.593,786.416,471.469,786.211,471.298,785.943z"/>
		<path style="fill:#363738;" d="M475.024,785.629c-0.345,0-0.64,0.121-0.878,0.365c-0.235,0.238-0.353,0.529-0.353,0.865
			c0,0.397,0.125,0.703,0.372,0.924c0.248,0.223,0.544,0.334,0.884,0.334c0.328,0,0.614-0.111,0.862-0.334
			c0.244-0.225,0.367-0.529,0.367-0.924c0-0.344-0.123-0.631-0.367-0.873C475.663,785.748,475.368,785.629,475.024,785.629z"/>
		<path style="fill:#363738;" d="M485.972,784.344c-0.232,0-0.425,0.068-0.586,0.213c-0.16,0.139-0.308,0.342-0.444,0.594
			c-0.251,0.432-0.534,0.748-0.853,0.959c-0.325,0.209-0.713,0.313-1.163,0.313c-0.333,0-0.645-0.068-0.926-0.193
			c-0.277-0.131-0.522-0.318-0.716-0.57c-0.198-0.25-0.351-0.553-0.457-0.908c-0.105-0.354-0.155-0.746-0.155-1.168
			c0-0.9,0.204-1.615,0.612-2.135c0.406-0.52,0.942-0.781,1.608-0.781c0.462,0,0.845,0.107,1.145,0.315
			c0.301,0.211,0.587,0.523,0.862,0.941c0.153,0.215,0.293,0.371,0.416,0.463c0.124,0.1,0.279,0.148,0.467,0.148
			c0.286,0,0.53-0.094,0.728-0.281c0.204-0.188,0.304-0.416,0.304-0.684c0-0.266-0.09-0.551-0.266-0.856
			c-0.181-0.305-0.44-0.594-0.777-0.865c-0.339-0.268-0.754-0.488-1.24-0.66c-0.487-0.17-1.021-0.254-1.605-0.254
			c-0.94,0-1.75,0.193-2.424,0.582c-0.678,0.385-1.199,0.936-1.557,1.645c-0.356,0.711-0.533,1.529-0.533,2.453
			c0,1.365,0.391,2.455,1.173,3.268c0.779,0.813,1.867,1.215,3.257,1.215c0.658,0,1.247-0.086,1.771-0.26
			c0.52-0.178,0.955-0.41,1.302-0.699c0.34-0.291,0.597-0.596,0.764-0.912c0.169-0.32,0.255-0.621,0.255-0.902
			c0-0.236-0.092-0.455-0.276-0.666C486.477,784.445,486.249,784.344,485.972,784.344z"/>
		<path style="fill:#363738;" d="M496.12,780.221c-0.395-0.408-0.874-0.721-1.43-0.941c-0.556-0.221-1.174-0.328-1.858-0.328
			c-0.67,0-1.283,0.104-1.84,0.322c-0.557,0.219-1.031,0.529-1.42,0.932c-0.391,0.402-0.692,0.883-0.898,1.453
			c-0.213,0.568-0.314,1.193-0.314,1.875c0,0.676,0.102,1.295,0.31,1.855c0.206,0.555,0.509,1.039,0.908,1.449
			c0.398,0.416,0.872,0.725,1.415,0.945c0.545,0.223,1.16,0.334,1.84,0.334c0.689,0,1.307-0.111,1.858-0.326
			c0.552-0.223,1.024-0.535,1.42-0.939c0.396-0.408,0.701-0.893,0.911-1.463c0.207-0.566,0.311-1.186,0.311-1.855
			c0-0.68-0.104-1.297-0.307-1.857C496.817,781.115,496.515,780.629,496.12,780.221z M494.465,785.666
			c-0.406,0.514-0.948,0.771-1.633,0.771c-0.45,0-0.841-0.117-1.176-0.35c-0.332-0.234-0.59-0.572-0.769-1.012
			c-0.178-0.441-0.268-0.953-0.268-1.543c0-0.596,0.09-1.117,0.272-1.563c0.182-0.445,0.442-0.779,0.775-1.012
			c0.34-0.228,0.727-0.342,1.165-0.342c0.685,0,1.227,0.256,1.633,0.768c0.402,0.514,0.604,1.228,0.604,2.148
			C495.069,784.44,494.867,785.152,494.465,785.666z"/>
		<path style="fill:#363738;" d="M511.593,780.371c-0.223-0.451-0.552-0.799-0.996-1.045c-0.448-0.24-0.978-0.361-1.596-0.361
			c-0.528,0-1.012,0.113-1.444,0.336c-0.438,0.223-0.842,0.566-1.222,1.027c-0.264-0.457-0.601-0.797-1.01-1.025
			c-0.403-0.225-0.892-0.338-1.46-0.338c-0.545,0-1.038,0.113-1.487,0.332c-0.445,0.219-0.862,0.566-1.251,1.031v-0.213
			c0-0.365-0.106-0.646-0.316-0.855c-0.203-0.207-0.461-0.309-0.771-0.309c-0.316,0-0.577,0.107-0.771,0.328
			c-0.197,0.221-0.294,0.543-0.294,0.967v6.447c0,0.471,0.111,0.822,0.326,1.06c0.219,0.242,0.5,0.363,0.839,0.363
			c0.349,0,0.625-0.121,0.838-0.363c0.212-0.238,0.319-0.59,0.319-1.06v-3.047c0-0.943,0.115-1.672,0.35-2.18
			c0.232-0.504,0.718-0.758,1.457-0.758c0.368,0,0.641,0.1,0.809,0.303c0.169,0.199,0.276,0.455,0.314,0.77
			c0.038,0.316,0.06,0.752,0.06,1.32v3.592c0,0.475,0.104,0.828,0.317,1.066c0.21,0.236,0.488,0.357,0.83,0.357
			c0.351,0,0.636-0.121,0.851-0.357c0.213-0.238,0.32-0.592,0.32-1.066v-2.996c0-0.967,0.084-1.635,0.246-2.014
			c0.15-0.299,0.36-0.535,0.624-0.709c0.268-0.18,0.551-0.266,0.85-0.266c0.366,0,0.643,0.098,0.822,0.297
			c0.18,0.197,0.293,0.443,0.337,0.732c0.038,0.295,0.061,0.684,0.061,1.166v3.789c0,0.471,0.11,0.822,0.326,1.06
			c0.218,0.242,0.5,0.363,0.838,0.363c0.353,0,0.637-0.121,0.85-0.357c0.215-0.238,0.322-0.592,0.322-1.066v-4.4
			C511.882,781.416,511.788,780.779,511.593,780.371z"/>
		<path style="fill:#363738;" d="M394.884,774.951c1.021-0.445,2.109-0.602,3.211-0.621c0.967-0.016,1.944,0.074,2.893,0.164
			c0.068-0.264,0.136-0.535,0.202-0.799c-0.915-0.414-1.921-0.566-2.917-0.559c-0.048-0.143-0.096-0.287-0.145-0.434
			c0.759-0.066,1.268-0.973,0.894-1.647c-0.167-0.381-0.54-0.592-0.927-0.625c-0.393-0.031-0.801,0.119-1.025,0.467
			c-0.484,0.615-0.105,1.59,0.633,1.783c0.043,0.156,0.088,0.313,0.134,0.471c-1.135,0.067-2.293,0.32-3.243,0.973
			C394.691,774.398,394.786,774.674,394.884,774.951z"/>
		<path style="fill:#363738;" d="M409.697,776.238c-0.305,0.156-0.361,0.518-0.345,0.826c-0.337,0.33-0.178,0.824-0.216,1.238
			c-0.075,0.231-0.352,0.258-0.544,0.344c-0.267-0.406-0.548-0.795-0.902-1.125l0.001-0.019c-0.386-0.361-0.805-0.69-1.247-0.979
			c-0.357,0.381-0.729,0.752-1.072,1.15c0.676,0.746,1.305,1.541,1.855,2.383c0.38,0.643,0.689,1.32,0.954,2.016
			c0.571-0.291,1.135-0.598,1.703-0.897c-0.299-0.695-0.646-1.377-1.011-2.043c0.254-0.135,0.594-0.27,0.631-0.6
			c0.032-0.363-0.053-0.758,0.17-1.08c0.438,0.291,1.111-0.039,1.118-0.574C410.849,776.326,410.154,775.922,409.697,776.238z"/>
		<path style="fill:#363738;" d="M403.965,776.971c-1.268-1.113-2.909-1.865-4.614-1.856c-0.417-0.004-0.838,0.01-1.256,0.031
			c-1.739,0.1-3.463,0.459-5.061,1.156c-1.868,0.82-3.495,2.279-4.318,4.178c-0.793,1.699-0.783,3.658-0.425,5.467
			c1.983,0.496,3.996,0.939,6.04,1.037c1.253,0.037,2.512,0.07,3.765,0.022c0.763-0.029,1.525-0.088,2.286-0.193
			c2.752-0.363,5.447-1.236,7.848-2.641c0,0-0.329-1.811-1.623-3.787C405.862,779.15,405.057,777.924,403.965,776.971z
			 M396.868,782.82c-0.374,0.541-0.909,0.965-1.525,1.201c-1.159,0.43-2.568,0.139-3.4-0.787c-0.582-0.643-0.929-1.502-0.864-2.371
			c0.043-1.09,0.714-2.098,1.668-2.607c0.726-0.397,1.606-0.467,2.396-0.244c0.332,0.084,0.641,0.24,0.926,0.43
			c0.582,0.416,1.024,1.031,1.215,1.723C397.559,781.051,397.387,782.051,396.868,782.82z M405.215,780.863
			c-0.134,0.924-1.023,1.715-1.97,1.654c-0.551,0.045-1.082-0.217-1.454-0.603c-0.268-0.33-0.489-0.717-0.525-1.15
			c-0.128-0.945,0.536-1.916,1.459-2.143c0.408-0.113,0.831-0.053,1.232,0.041C404.826,778.971,405.396,779.953,405.215,780.863z"/>
		<path style="fill:#363738;" d="M388.74,777.625c-0.805,0.486-1.468,1.172-2.02,1.926c-0.164-0.297-0.209-0.654-0.42-0.924
			c-0.121-0.158-0.334-0.094-0.502-0.098c-0.213,0.023-0.422-0.033-0.624-0.094c0.235-0.332,0.175-0.842-0.188-1.058
			c-0.385-0.273-0.98-0.035-1.083,0.422c-0.16,0.504,0.372,1.008,0.864,0.875c0.263,0.385,0.735,0.324,1.138,0.34
			c0.184,0.313,0.318,0.66,0.553,0.941c-0.432,0.855-0.675,1.807-0.693,2.762c0.551,0.231,1.104,0.467,1.66,0.697
			c0.029-0.6,0.098-1.201,0.191-1.793c0.185-1.293,0.934-2.418,1.82-3.344C389.217,778.047,388.974,777.844,388.74,777.625z"/>
		<path style="fill:#363738;" d="M398.095,787.85c-0.879,0.045-1.76,0.051-2.637,0.012c-1.412-0.072-2.821-0.203-4.201-0.508
			c-0.98-0.199-1.936-0.482-2.898-0.756c0.154,1.23,0.65,2.406,1.359,3.414c0.838,1.178,1.957,2.258,3.35,2.693
			c1.085,0.291,2.382,0.666,4.614,0.629c0.138-0.002,0.275-0.01,0.413-0.014c1.703-0.063,3.367-0.307,4.869-0.943
			c1.043-0.451,2.023-1.063,2.864-1.83c0.728-0.684,1.297-1.539,1.689-2.459c0.382-0.865,0.724-2.42,0.687-3.221
			c-1.995,1.141-4.232,2.127-6.509,2.514C400.51,787.637,399.304,787.783,398.095,787.85z"/>
	</g>
</g>
<g id="object">
	<g>
		<g>
			<path style="fill:#900917;" d="M582.866,714.133c0,9.698-7.861,17.56-17.559,17.56H129.876c-14.543,0-21.045-18.36-21.045-28.059
				l7.859-535.128c0-9.698,7.862-17.56,17.559-17.56l424.854-7.74c9.697,0,23.763,7.177,23.763,18.477V714.133z"/>
			<path style="fill:#A7202E;" d="M576.662,706.393c0,9.698-7.861,17.56-17.559,17.56H128.045c-9.697,0-17.559-7.861-17.559-17.56
				V160.765c0-9.698,7.862-17.56,17.559-17.56h431.058c9.697,0,17.559,7.862,17.559,17.56V706.393z"/>
			<path style="fill:#EEEFEF;" d="M552.535,676.32c0,8.512-6.899,15.41-15.409,15.41l-382.69-0.854
				c-8.51,0-15.409-6.898-15.409-15.41l4.414-477.962c0-8.51,6.899-15.409,15.409-15.409l378.276-3.334
				c8.51,0,15.409,6.899,15.409,15.409V676.32z"/>
			<path style="fill:#EEEFEF;" d="M548.121,672.986c0,8.512-6.899,15.41-15.409,15.41H154.436c-8.51,0-15.409-6.898-15.409-15.41
				V194.17c0-8.51,6.899-15.409,15.409-15.409h378.276c8.51,0,15.409,6.899,15.409,15.409V672.986z"/>
			<g>
				<path style="opacity:0.1;fill:#231F20;" d="M220.644,143.216v65.722c0,9.698,8.245,17.559,18.414,17.559h209.033
					c10.171,0,18.414-7.861,18.414-17.559v-65.722H220.644z"/>
				<path style="fill:#900917;" d="M443.679,114.674h-15.087v-9.935c0-6.998-5.672-12.67-12.669-12.67h-18.938V64.794
					c0-6.998-5.672-12.67-12.669-12.67H303.71c-6.996,0-12.668,5.672-12.668,12.67v27.276h-18.938
					c-6.998,0-12.669,5.672-12.669,12.67v9.935h-15.087c-9.698,0-17.559,7.862-17.559,17.56v68.915
					c0,9.698,7.861,17.559,17.559,17.559h199.33c9.697,0,17.559-7.861,17.559-17.559v-68.915
					C461.237,122.536,453.376,114.674,443.679,114.674z M383.143,109.687c0,3.661-2.969,6.629-6.63,6.629H312.39
					c-3.66,0-6.628-2.968-6.628-6.629V71.379c0-3.661,2.969-6.628,6.628-6.628h64.123c3.661,0,6.63,2.967,6.63,6.628V109.687z"/>
			</g>
			<path style="fill:#A7202E;" d="M201.248,202.639c0,6.304-5.11,11.414-11.414,11.414c-6.303,0-11.413-5.11-11.413-11.414
				c0-6.303,5.11-11.413,11.413-11.413C196.137,191.226,201.248,196.336,201.248,202.639z"/>
			<path style="fill:#A7202E;" d="M516.144,202.639c0,6.304-5.11,11.414-11.414,11.414c-6.303,0-11.413-5.11-11.413-11.414
				c0-6.303,5.11-11.413,11.413-11.413C511.034,191.226,516.144,196.336,516.144,202.639z"/>
			<g>
				<path style="fill:#DCDDDE;" d="M504.729,340.861c0,3.292-2.668,5.961-5.96,5.961h-55.575c-3.293,0-5.962-2.669-5.962-5.961
					v-55.577c0-3.292,2.669-5.961,5.962-5.961h55.575c3.292,0,5.96,2.669,5.96,5.961V340.861z"/>
				<path style="fill:#DCDDDE;" d="M504.729,441.895c0,3.294-2.668,5.963-5.96,5.963h-55.575c-3.293,0-5.962-2.669-5.962-5.963
					v-55.576c0-3.292,2.669-5.961,5.962-5.961h55.575c3.292,0,5.96,2.669,5.96,5.961V441.895z"/>
				<path style="fill:#DCDDDE;" d="M504.729,542.93c0,3.292-2.668,5.961-5.96,5.961h-55.575c-3.293,0-5.962-2.669-5.962-5.961
					v-55.577c0-3.29,2.669-5.961,5.962-5.961h55.575c3.292,0,5.96,2.671,5.96,5.961V542.93z"/>
				<path style="fill:#DCDDDE;" d="M504.729,643.963c0,3.293-2.668,5.961-5.96,5.961h-55.575c-3.293,0-5.962-2.668-5.962-5.961
					v-55.577c0-3.292,2.669-5.959,5.962-5.959h55.575c3.292,0,5.96,2.667,5.96,5.959V643.963z"/>
			</g>
			<g>
				<rect x="192.729" y="290.353" style="fill:#DCDDDE;" width="208.865" height="51.458"/>
				<rect x="192.729" y="389.381" style="fill:#DCDDDE;" width="208.865" height="51.459"/>
				<rect x="192.729" y="488.408" style="fill:#DCDDDE;" width="208.865" height="51.459"/>
				<rect x="192.729" y="587.435" style="fill:#DCDDDE;" width="208.865" height="51.458"/>
			</g>
			<path style="fill:#F0A71E;" d="M461.464,344.228c-2.383,0-4.669-0.944-6.357-2.633l-16.49-16.657
				c-3.51-3.511-3.51-9.202,0-12.713c3.511-3.511,9.203-3.511,12.713,0l9.836,10.003l28.813-31.574
				c3.346-3.668,9.033-3.927,12.698-0.582c3.667,3.347,3.929,9.032,0.582,12.7l-35.155,38.525c-1.654,1.814-3.979,2.872-6.434,2.928
				C461.6,344.228,461.532,344.228,461.464,344.228z"/>
		</g>
		<g>
			<path style="fill:#D6C7B9;" d="M700.476,667.499C712.252,638.521,731.178,600,731.178,600l-46.073-12.029l-44.536,12.128
				c0,0,18.315,38.108,30.399,67.4H700.476z"/>
			<path style="fill:#F0A71E;" d="M677.991,684.216c6.338,14.596,13.724,4.868,15.743-0.114c1.638-4.037,3.995-9.844,6.741-16.603
				h-29.508C673.733,674.204,676.173,680.028,677.991,684.216z"/>
			<path style="fill:#F0A71E;" d="M701.171,260.521c0-6.982,6.855-12.645,15.313-12.645l0,0c8.46,0,15.315,5.662,15.315,12.645
				v335.908c0,6.983-6.856,12.644-15.315,12.644l0,0c-8.458,0-15.313-5.661-15.313-12.644V260.521z"/>
			<path style="fill:#D99007;" d="M670.541,260.521c0-6.982,6.856-12.645,15.313-12.645l0,0c8.459,0,15.316,5.662,15.316,12.645
				v335.908c0,6.983-6.857,12.644-15.316,12.644l0,0c-8.457,0-15.313-5.661-15.313-12.644V260.521z"/>
			<path style="fill:#F0A71E;" d="M639.912,260.521c0-6.982,6.855-12.645,15.313-12.645l0,0c8.459,0,15.315,5.662,15.315,12.645
				v335.908c0,6.983-6.856,12.644-15.315,12.644l0,0c-8.458,0-15.313-5.661-15.313-12.644V260.521z"/>
			<rect x="639.912" y="246.192" style="fill:#D6C7B9;" width="91.888" height="22.475"/>
			<path style="fill:#A7202E;" d="M639.912,246.192H731.8V222.73h-0.039c0.018-0.356,0.039-0.711,0.039-1.07
				c0-17.617-20.569-31.898-45.944-31.898c-25.374,0-45.943,14.281-45.943,31.898c0,0.359,0.021,0.715,0.039,1.07h-0.039V246.192z"
				/>
		</g>
	</g>
</g>
</svg>
