<?xml version="1.0" encoding="utf-8"?>
<!-- Generator: Adobe Illustrator 27.5.0, SVG Export Plug-In . SVG Version: 6.00 Build 0)  -->
<svg version="1.1" xmlns="http://www.w3.org/2000/svg" xmlns:xlink="http://www.w3.org/1999/xlink" x="0px" y="0px"
	 viewBox="0 0 800 800" style="enable-background:new 0 0 800 800;" xml:space="preserve">
<g id="BACKGROUND">
	<rect style="fill:#D3EAE6;" width="800" height="800"/>
</g>
<g id="DESIGNED_BY_FREEPIK">
	<g>
		<g>
			<path style="fill:#8EA8A3;" d="M288.492,764.51v-0.258c-0.348,0.398-0.691,0.725-1.03,0.973c-0.339,0.252-0.706,0.441-1.102,0.57
				c-0.395,0.133-0.826,0.195-1.295,0.195c-0.621,0-1.196-0.131-1.725-0.392c-0.529-0.264-0.986-0.639-1.372-1.127
				c-0.388-0.486-0.68-1.059-0.879-1.719c-0.199-0.658-0.3-1.371-0.3-2.137c0-1.621,0.396-2.885,1.188-3.791
				c0.792-0.904,1.834-1.357,3.125-1.357c0.747,0,1.377,0.129,1.891,0.385c0.513,0.256,1.013,0.652,1.5,1.182v-3.826
				c0-0.533,0.105-0.934,0.318-1.207c0.212-0.271,0.514-0.408,0.907-0.408c0.393,0,0.694,0.125,0.907,0.375
				c0.212,0.252,0.318,0.619,0.318,1.107v11.436c0,0.494-0.113,0.863-0.342,1.111c-0.229,0.246-0.522,0.369-0.884,0.369
				c-0.355,0-0.648-0.127-0.879-0.383C288.607,765.35,288.492,764.984,288.492,764.51z M283.393,760.701
				c0,0.703,0.109,1.301,0.327,1.795c0.219,0.494,0.518,0.865,0.897,1.115c0.381,0.25,0.795,0.377,1.244,0.377
				c0.456,0,0.872-0.119,1.25-0.357c0.376-0.236,0.677-0.602,0.901-1.092c0.226-0.49,0.337-1.106,0.337-1.838
				c0-0.691-0.111-1.285-0.337-1.783c-0.225-0.496-0.528-0.875-0.911-1.139c-0.384-0.262-0.803-0.393-1.259-0.393
				c-0.475,0-0.899,0.135-1.273,0.402c-0.374,0.269-0.664,0.654-0.869,1.158C283.494,759.451,283.393,760.035,283.393,760.701z"/>
			<path style="fill:#8EA8A3;" d="M299.926,761.357h-5.07c0.006,0.588,0.124,1.107,0.355,1.557c0.23,0.449,0.539,0.789,0.922,1.016
				c0.383,0.229,0.806,0.342,1.268,0.342c0.311,0,0.594-0.035,0.85-0.107c0.258-0.074,0.506-0.188,0.746-0.344
				c0.241-0.154,0.463-0.32,0.665-0.498c0.202-0.178,0.464-0.42,0.788-0.723c0.133-0.113,0.323-0.172,0.57-0.172
				c0.266,0,0.48,0.074,0.645,0.221c0.165,0.147,0.248,0.35,0.248,0.617c0,0.234-0.092,0.506-0.275,0.82
				c-0.185,0.315-0.461,0.615-0.831,0.902c-0.372,0.289-0.835,0.527-1.397,0.717c-0.559,0.191-1.203,0.285-1.932,0.285
				c-1.665,0-2.961-0.475-3.885-1.424s-1.387-2.238-1.387-3.865c0-0.768,0.113-1.478,0.342-2.133
				c0.228-0.656,0.56-1.217,0.997-1.686c0.437-0.469,0.976-0.828,1.615-1.078c0.64-0.25,1.349-0.375,2.128-0.375
				c1.012,0,1.881,0.213,2.605,0.641c0.727,0.428,1.27,0.98,1.63,1.656c0.36,0.678,0.542,1.369,0.542,2.07
				c0,0.654-0.187,1.076-0.561,1.27C301.131,761.26,300.604,761.357,299.926,761.357z M294.855,759.885h4.701
				c-0.063-0.887-0.303-1.551-0.717-1.99c-0.416-0.441-0.961-0.66-1.639-0.66c-0.647,0-1.177,0.223-1.591,0.668
				C295.195,758.35,294.944,759.01,294.855,759.885z"/>
			<path style="fill:#8EA8A3;" d="M311.741,762.6c0,0.715-0.173,1.328-0.522,1.838c-0.348,0.51-0.862,0.896-1.543,1.16
				c-0.681,0.262-1.509,0.392-2.484,0.392c-0.93,0-1.729-0.142-2.393-0.428c-0.665-0.283-1.156-0.641-1.473-1.066
				c-0.316-0.43-0.475-0.857-0.475-1.289c0-0.285,0.1-0.527,0.305-0.73c0.201-0.201,0.459-0.303,0.77-0.303
				c0.272,0,0.48,0.066,0.625,0.199c0.147,0.133,0.286,0.32,0.418,0.559c0.266,0.465,0.585,0.807,0.955,1.037
				c0.371,0.227,0.875,0.342,1.516,0.342c0.52,0,0.945-0.117,1.277-0.348c0.332-0.232,0.498-0.496,0.498-0.793
				c0-0.457-0.172-0.787-0.517-0.996c-0.346-0.209-0.914-0.41-1.705-0.6c-0.893-0.221-1.619-0.455-2.18-0.699
				c-0.56-0.242-1.008-0.565-1.344-0.963c-0.336-0.398-0.504-0.891-0.504-1.473c0-0.518,0.155-1.01,0.466-1.473
				c0.31-0.461,0.768-0.83,1.374-1.105c0.604-0.275,1.332-0.414,2.188-0.414c0.672,0,1.275,0.07,1.809,0.211
				c0.536,0.137,0.983,0.326,1.34,0.561c0.358,0.232,0.631,0.492,0.816,0.777c0.188,0.285,0.28,0.563,0.28,0.836
				c0,0.297-0.1,0.541-0.298,0.733c-0.199,0.188-0.482,0.285-0.852,0.285c-0.266,0-0.492-0.076-0.678-0.231
				c-0.188-0.15-0.4-0.379-0.642-0.682c-0.196-0.254-0.427-0.457-0.692-0.609c-0.267-0.152-0.627-0.227-1.084-0.227
				c-0.469,0-0.857,0.098-1.168,0.299c-0.31,0.199-0.465,0.447-0.465,0.744c0,0.274,0.113,0.496,0.341,0.67
				c0.228,0.176,0.535,0.32,0.923,0.433c0.386,0.113,0.916,0.252,1.596,0.416c0.803,0.197,1.459,0.432,1.97,0.703
				c0.509,0.271,0.896,0.594,1.159,0.965C311.61,761.703,311.741,762.125,311.741,762.6z"/>
			<path style="fill:#8EA8A3;" d="M314.391,754.242c-0.361,0-0.67-0.111-0.926-0.332c-0.257-0.221-0.385-0.535-0.385-0.941
				c0-0.367,0.131-0.668,0.394-0.906s0.569-0.357,0.917-0.357c0.336,0,0.633,0.107,0.893,0.324c0.26,0.215,0.39,0.527,0.39,0.94
				c0,0.4-0.128,0.711-0.381,0.935S314.738,754.242,314.391,754.242z M315.673,756.92v7.494c0,0.519-0.124,0.912-0.37,1.178
				c-0.248,0.266-0.561,0.398-0.941,0.398c-0.38,0-0.688-0.135-0.926-0.408c-0.238-0.271-0.355-0.662-0.355-1.168v-7.418
				c0-0.512,0.117-0.898,0.355-1.158c0.237-0.26,0.546-0.391,0.926-0.391c0.381,0,0.693,0.131,0.941,0.391
				C315.549,756.098,315.673,756.459,315.673,756.92z"/>
			<path style="fill:#8EA8A3;" d="M327.031,757.348v7.531c0,0.861-0.092,1.604-0.276,2.225c-0.183,0.619-0.478,1.133-0.883,1.537
				c-0.405,0.404-0.936,0.707-1.591,0.902c-0.654,0.197-1.471,0.295-2.445,0.295c-0.893,0-1.691-0.125-2.395-0.375
				c-0.701-0.252-1.242-0.574-1.623-0.969c-0.38-0.396-0.57-0.803-0.57-1.221c0-0.316,0.108-0.576,0.323-0.773
				c0.215-0.201,0.476-0.301,0.778-0.301c0.38,0,0.713,0.168,0.998,0.504c0.139,0.17,0.282,0.344,0.432,0.518
				c0.148,0.176,0.314,0.324,0.494,0.447c0.18,0.123,0.396,0.215,0.65,0.275c0.253,0.059,0.545,0.09,0.873,0.09
				c0.672,0,1.193-0.094,1.563-0.281c0.37-0.186,0.63-0.447,0.778-0.783c0.149-0.334,0.236-0.693,0.262-1.078
				c0.025-0.383,0.044-0.998,0.057-1.848c-0.399,0.559-0.859,0.982-1.383,1.273c-0.521,0.291-1.145,0.438-1.865,0.438
				c-0.867,0-1.625-0.223-2.275-0.666c-0.648-0.443-1.147-1.063-1.495-1.861c-0.349-0.799-0.523-1.719-0.523-2.764
				c0-0.777,0.105-1.482,0.318-2.107c0.213-0.629,0.515-1.156,0.906-1.588c0.393-0.43,0.846-0.754,1.358-0.973
				s1.076-0.328,1.69-0.328c0.734,0,1.371,0.143,1.91,0.422c0.537,0.283,1.038,0.725,1.5,1.326v-0.352
				c0-0.449,0.11-0.797,0.332-1.045c0.223-0.246,0.508-0.371,0.855-0.371c0.5,0,0.832,0.164,0.996,0.49
				C326.949,756.264,327.031,756.734,327.031,757.348z M319.519,760.635c0,1.051,0.229,1.846,0.688,2.383
				c0.459,0.539,1.053,0.809,1.781,0.809c0.43,0,0.836-0.117,1.219-0.348c0.385-0.231,0.695-0.58,0.938-1.045
				c0.239-0.465,0.36-1.029,0.36-1.695c0-1.057-0.232-1.881-0.698-2.469c-0.466-0.588-1.078-0.883-1.838-0.883
				c-0.742,0-1.335,0.281-1.781,0.846C319.741,758.795,319.519,759.596,319.519,760.635z"/>
			<path style="fill:#8EA8A3;" d="M331.152,756.883v0.313c0.455-0.602,0.954-1.043,1.496-1.324c0.541-0.281,1.162-0.424,1.865-0.424
				c0.684,0,1.295,0.15,1.834,0.447c0.537,0.299,0.941,0.719,1.205,1.262c0.172,0.318,0.283,0.66,0.333,1.027
				c0.051,0.367,0.077,0.836,0.077,1.406v4.824c0,0.519-0.119,0.912-0.357,1.178c-0.236,0.266-0.545,0.398-0.926,0.398
				c-0.387,0-0.699-0.135-0.939-0.408c-0.242-0.271-0.361-0.662-0.361-1.168v-4.322c0-0.854-0.119-1.508-0.356-1.961
				c-0.237-0.451-0.71-0.68-1.421-0.68c-0.461,0-0.883,0.139-1.262,0.414c-0.381,0.275-0.659,0.654-0.836,1.135
				c-0.127,0.387-0.19,1.107-0.19,2.166v3.248c0,0.525-0.122,0.92-0.365,1.184c-0.243,0.262-0.559,0.392-0.944,0.392
				c-0.375,0-0.682-0.135-0.922-0.408c-0.24-0.271-0.361-0.662-0.361-1.168v-7.494c0-0.494,0.107-0.863,0.322-1.107
				c0.216-0.242,0.51-0.365,0.883-0.365c0.229,0,0.436,0.055,0.619,0.162c0.183,0.109,0.33,0.27,0.441,0.484
				C331.098,756.309,331.152,756.572,331.152,756.883z"/>
			<path style="fill:#8EA8A3;" d="M346.927,761.357h-5.071c0.007,0.588,0.125,1.107,0.356,1.557
				c0.232,0.449,0.538,0.789,0.921,1.016c0.383,0.229,0.806,0.342,1.268,0.342c0.31,0,0.594-0.035,0.852-0.107
				c0.255-0.074,0.504-0.188,0.745-0.344c0.239-0.154,0.461-0.32,0.665-0.498c0.201-0.178,0.465-0.42,0.787-0.723
				c0.133-0.113,0.323-0.172,0.57-0.172c0.266,0,0.482,0.074,0.646,0.221c0.164,0.147,0.246,0.35,0.246,0.617
				c0,0.234-0.092,0.506-0.275,0.82c-0.184,0.315-0.461,0.615-0.832,0.902c-0.37,0.289-0.834,0.527-1.395,0.717
				c-0.561,0.191-1.205,0.285-1.934,0.285c-1.665,0-2.96-0.475-3.885-1.424c-0.924-0.949-1.387-2.238-1.387-3.865
				c0-0.768,0.114-1.478,0.342-2.133c0.228-0.656,0.56-1.217,0.998-1.686c0.436-0.469,0.975-0.828,1.614-1.078
				c0.64-0.25,1.349-0.375,2.128-0.375c1.013,0,1.881,0.213,2.605,0.641c0.727,0.428,1.27,0.98,1.631,1.656
				c0.359,0.678,0.541,1.369,0.541,2.07c0,0.654-0.187,1.076-0.561,1.27C348.131,761.26,347.605,761.357,346.927,761.357z
				 M341.855,759.885h4.701c-0.063-0.887-0.303-1.551-0.717-1.99c-0.415-0.441-0.961-0.66-1.639-0.66
				c-0.647,0-1.177,0.223-1.592,0.668C342.195,758.35,341.944,759.01,341.855,759.885z"/>
			<path style="fill:#8EA8A3;" d="M357.496,764.51v-0.258c-0.348,0.398-0.691,0.725-1.029,0.973c-0.34,0.252-0.706,0.441-1.102,0.57
				c-0.396,0.133-0.828,0.195-1.297,0.195c-0.621,0-1.195-0.131-1.724-0.392c-0.528-0.264-0.986-0.639-1.372-1.127
				c-0.387-0.486-0.68-1.059-0.879-1.719c-0.199-0.658-0.299-1.371-0.299-2.137c0-1.621,0.395-2.885,1.186-3.791
				c0.792-0.904,1.833-1.357,3.125-1.357c0.747,0,1.378,0.129,1.89,0.385c0.514,0.256,1.014,0.652,1.5,1.182v-3.826
				c0-0.533,0.107-0.934,0.319-1.207c0.212-0.271,0.515-0.408,0.907-0.408c0.393,0,0.694,0.125,0.906,0.375
				c0.213,0.252,0.318,0.619,0.318,1.107v11.436c0,0.494-0.113,0.863-0.342,1.111c-0.228,0.246-0.521,0.369-0.883,0.369
				c-0.354,0-0.647-0.127-0.879-0.383C357.612,765.35,357.496,764.984,357.496,764.51z M352.396,760.701
				c0,0.703,0.109,1.301,0.328,1.795c0.218,0.494,0.518,0.865,0.898,1.115c0.379,0.25,0.793,0.377,1.242,0.377
				c0.457,0,0.873-0.119,1.25-0.357c0.377-0.236,0.678-0.602,0.902-1.092c0.225-0.49,0.337-1.106,0.337-1.838
				c0-0.691-0.112-1.285-0.337-1.783c-0.225-0.496-0.529-0.875-0.912-1.139c-0.384-0.262-0.803-0.393-1.259-0.393
				c-0.474,0-0.899,0.135-1.272,0.402c-0.373,0.269-0.663,0.654-0.869,1.158C352.499,759.451,352.396,760.035,352.396,760.701z"/>
			<path style="fill:#8EA8A3;" d="M368.095,753.074v3.959c0.487-0.506,0.984-0.895,1.491-1.162c0.506-0.269,1.134-0.404,1.881-0.404
				c0.861,0,1.615,0.205,2.266,0.611c0.648,0.41,1.151,1.002,1.51,1.777c0.357,0.775,0.537,1.695,0.537,2.76
				c0,0.785-0.1,1.504-0.299,2.16c-0.2,0.656-0.49,1.225-0.869,1.705c-0.381,0.48-0.842,0.853-1.383,1.117
				c-0.541,0.262-1.139,0.392-1.79,0.392c-0.399,0-0.774-0.047-1.126-0.142c-0.352-0.094-0.65-0.219-0.897-0.375
				c-0.246-0.154-0.457-0.315-0.632-0.479c-0.174-0.164-0.404-0.412-0.689-0.742v0.258c0,0.486-0.117,0.855-0.352,1.107
				c-0.233,0.25-0.531,0.373-0.893,0.373c-0.367,0-0.66-0.123-0.878-0.373c-0.219-0.252-0.328-0.621-0.328-1.107v-11.322
				c0-0.525,0.105-0.924,0.317-1.191c0.212-0.269,0.509-0.404,0.889-0.404c0.399,0,0.706,0.129,0.921,0.385
				C367.986,752.234,368.095,752.598,368.095,753.074z M368.219,760.777c0,1.031,0.235,1.824,0.707,2.377
				c0.472,0.555,1.091,0.834,1.857,0.834c0.651,0,1.214-0.283,1.686-0.852c0.471-0.566,0.707-1.379,0.707-2.436
				c0-0.684-0.098-1.273-0.294-1.768c-0.196-0.494-0.475-0.875-0.835-1.144c-0.361-0.268-0.783-0.402-1.264-0.402
				c-0.494,0-0.936,0.135-1.32,0.402c-0.387,0.269-0.69,0.658-0.912,1.168C368.329,759.467,368.219,760.074,368.219,760.777z"/>
			<path style="fill:#8EA8A3;" d="M379.141,766.315l0.237-0.58l-3.191-8.035c-0.196-0.461-0.295-0.799-0.295-1.008
				c0-0.221,0.058-0.426,0.171-0.615c0.115-0.191,0.272-0.344,0.471-0.457c0.199-0.115,0.406-0.172,0.622-0.172
				c0.373,0,0.655,0.119,0.846,0.357c0.19,0.236,0.357,0.576,0.503,1.02l2.194,6.383l2.08-5.935c0.164-0.48,0.314-0.857,0.446-1.131
				c0.133-0.272,0.273-0.455,0.422-0.549c0.148-0.096,0.359-0.144,0.633-0.144c0.197,0,0.385,0.053,0.564,0.158
				c0.181,0.103,0.32,0.244,0.418,0.422c0.098,0.178,0.148,0.363,0.148,0.561c-0.027,0.119-0.066,0.291-0.125,0.514
				c-0.057,0.221-0.126,0.447-0.208,0.674l-3.382,8.852c-0.291,0.779-0.576,1.389-0.855,1.832c-0.278,0.443-0.646,0.785-1.105,1.022
				c-0.46,0.238-1.078,0.357-1.857,0.357c-0.76,0-1.33-0.082-1.709-0.246c-0.381-0.166-0.57-0.467-0.57-0.904
				c0-0.297,0.09-0.527,0.271-0.688c0.18-0.162,0.447-0.244,0.801-0.244c0.141,0,0.277,0.019,0.41,0.059
				c0.164,0.037,0.307,0.057,0.426,0.057c0.298,0,0.533-0.043,0.704-0.133c0.171-0.088,0.323-0.242,0.46-0.461
				C378.807,767.06,378.963,766.738,379.141,766.315z"/>
		</g>
		<g>
			<path style="fill:#8EA8A3;" d="M416.703,755.672h0.619v-0.777c0-0.814,0.1-1.457,0.307-1.938
				c0.203-0.478,0.555-0.826,1.047-1.045c0.49-0.217,1.162-0.326,2.016-0.326c1.52,0,2.273,0.367,2.273,1.113
				c0,0.238-0.08,0.445-0.24,0.615c-0.154,0.17-0.344,0.256-0.559,0.256c-0.1,0-0.277-0.018-0.527-0.059
				c-0.236-0.033-0.451-0.057-0.623-0.057c-0.467,0-0.766,0.141-0.904,0.416c-0.127,0.275-0.195,0.668-0.195,1.184v0.617h0.633
				c0.99,0,1.48,0.297,1.48,0.897c0,0.418-0.127,0.689-0.393,0.805c-0.262,0.113-0.623,0.17-1.088,0.17h-0.633v6.871
				c0,0.512-0.121,0.9-0.369,1.168c-0.242,0.274-0.555,0.406-0.943,0.406c-0.367,0-0.67-0.133-0.918-0.406
				c-0.244-0.267-0.363-0.656-0.363-1.168v-6.871h-0.715c-0.389,0-0.682-0.084-0.893-0.262c-0.209-0.17-0.314-0.398-0.314-0.678
				C415.4,755.981,415.834,755.672,416.703,755.672"/>
			<path style="fill:#8EA8A3;" d="M425.193,762.246v2.168c0,0.523-0.133,0.92-0.375,1.18c-0.246,0.266-0.559,0.394-0.938,0.394
				c-0.381,0-0.688-0.131-0.926-0.4c-0.236-0.264-0.361-0.656-0.361-1.174v-7.223c0-1.166,0.42-1.748,1.262-1.748
				c0.434,0,0.742,0.135,0.934,0.408c0.189,0.273,0.295,0.674,0.316,1.207c0.309-0.533,0.625-0.934,0.949-1.207
				c0.332-0.273,0.762-0.408,1.309-0.408c0.549,0,1.072,0.135,1.586,0.408c0.516,0.273,0.772,0.637,0.772,1.084
				c0,0.315-0.111,0.58-0.326,0.781c-0.221,0.209-0.455,0.313-0.707,0.313c-0.1,0-0.33-0.063-0.691-0.18
				c-0.365-0.113-0.69-0.174-0.963-0.174c-0.381,0-0.693,0.104-0.932,0.299c-0.242,0.205-0.432,0.496-0.565,0.887
				c-0.129,0.395-0.219,0.865-0.273,1.404C425.215,760.807,425.193,761.469,425.193,762.246"/>
			<path style="fill:#8EA8A3;" d="M437.113,761.354h-5.074c0.01,0.588,0.125,1.111,0.355,1.559c0.234,0.447,0.539,0.787,0.924,1.018
				c0.385,0.227,0.805,0.34,1.27,0.34c0.31,0,0.592-0.033,0.85-0.111c0.254-0.07,0.504-0.185,0.744-0.342
				c0.242-0.152,0.461-0.318,0.664-0.5c0.203-0.174,0.467-0.416,0.791-0.719c0.135-0.113,0.324-0.174,0.568-0.174
				c0.268,0,0.48,0.074,0.648,0.223c0.166,0.147,0.244,0.35,0.244,0.617c0,0.234-0.09,0.508-0.268,0.818
				c-0.188,0.318-0.463,0.617-0.836,0.906c-0.375,0.285-0.84,0.527-1.398,0.715c-0.559,0.189-1.205,0.285-1.932,0.285
				c-1.67,0-2.963-0.473-3.887-1.422c-0.924-0.951-1.391-2.242-1.391-3.867c0-0.768,0.117-1.479,0.348-2.135
				c0.225-0.658,0.557-1.217,0.998-1.688c0.436-0.471,0.971-0.828,1.613-1.078c0.637-0.25,1.346-0.375,2.127-0.375
				c1.012,0,1.881,0.215,2.607,0.646c0.723,0.422,1.273,0.977,1.629,1.654c0.361,0.68,0.541,1.367,0.541,2.074
				c0,0.648-0.188,1.07-0.561,1.266C438.316,761.258,437.791,761.354,437.113,761.354 M432.039,759.879h4.701
				c-0.063-0.885-0.297-1.549-0.713-1.986c-0.418-0.441-0.959-0.66-1.641-0.66c-0.646,0-1.178,0.221-1.592,0.67
				C432.381,758.348,432.127,759.006,432.039,759.879"/>
			<path style="fill:#8EA8A3;" d="M447.9,761.354h-5.072c0.006,0.588,0.125,1.111,0.353,1.559c0.233,0.447,0.539,0.787,0.922,1.018
				c0.383,0.227,0.805,0.34,1.272,0.34c0.307,0,0.592-0.033,0.844-0.111c0.26-0.07,0.506-0.185,0.75-0.342
				c0.242-0.152,0.461-0.318,0.664-0.5c0.199-0.174,0.465-0.416,0.789-0.719c0.135-0.113,0.326-0.174,0.568-0.174
				c0.268,0,0.482,0.074,0.65,0.223c0.164,0.147,0.24,0.35,0.24,0.617c0,0.234-0.088,0.508-0.273,0.818
				c-0.178,0.318-0.455,0.617-0.83,0.906c-0.371,0.285-0.84,0.527-1.396,0.715c-0.557,0.189-1.207,0.285-1.934,0.285
				c-1.668,0-2.959-0.473-3.887-1.422c-0.924-0.951-1.389-2.242-1.389-3.867c0-0.768,0.115-1.479,0.348-2.135
				c0.227-0.658,0.559-1.217,0.996-1.688c0.436-0.471,0.973-0.828,1.613-1.078c0.639-0.25,1.352-0.375,2.129-0.375
				c1.01,0,1.879,0.215,2.613,0.646c0.721,0.422,1.266,0.977,1.621,1.654c0.359,0.68,0.545,1.367,0.545,2.074
				c0,0.648-0.191,1.07-0.56,1.266C449.102,761.258,448.576,761.354,447.9,761.354 M442.828,759.879h4.701
				c-0.065-0.885-0.305-1.549-0.715-1.986c-0.422-0.441-0.963-0.66-1.643-0.66c-0.646,0-1.176,0.221-1.594,0.67
				C443.166,758.348,442.912,759.006,442.828,759.879"/>
			<path style="fill:#8EA8A3;" d="M453.58,756.902v0.311c0.486-0.602,0.994-1.043,1.525-1.324c0.517-0.285,1.117-0.428,1.781-0.428
				c0.795,0,1.535,0.209,2.207,0.617c0.672,0.414,1.199,1.016,1.59,1.807c0.389,0.795,0.586,1.73,0.586,2.814
				c0,0.795-0.113,1.531-0.336,2.201c-0.225,0.668-0.537,1.227-0.93,1.68c-0.393,0.449-0.855,0.801-1.389,1.045
				c-0.543,0.242-1.111,0.363-1.728,0.363c-0.738,0-1.363-0.148-1.865-0.447c-0.502-0.291-0.982-0.732-1.441-1.305v3.893
				c0,1.135-0.416,1.709-1.244,1.709c-0.49,0-0.809-0.146-0.971-0.44c-0.152-0.299-0.234-0.723-0.234-1.291v-11.193
				c0-0.494,0.107-0.859,0.32-1.108c0.215-0.238,0.512-0.363,0.885-0.363c0.369,0,0.666,0.125,0.897,0.373
				C453.467,756.07,453.58,756.428,453.58,756.902 M458.664,760.67c0-0.686-0.105-1.273-0.315-1.764
				c-0.209-0.492-0.498-0.867-0.865-1.127c-0.367-0.264-0.783-0.396-1.232-0.396c-0.715,0-1.318,0.283-1.809,0.844
				c-0.492,0.566-0.74,1.394-0.74,2.492c0,1.027,0.244,1.834,0.736,2.406c0.486,0.574,1.086,0.859,1.813,0.859
				c0.428,0,0.83-0.127,1.197-0.373c0.371-0.252,0.664-0.627,0.883-1.127C458.553,761.982,458.664,761.377,458.664,760.67"/>
			<path style="fill:#8EA8A3;" d="M463.881,754.236c-0.363,0-0.67-0.115-0.924-0.336c-0.26-0.223-0.387-0.531-0.387-0.936
				c0-0.369,0.131-0.67,0.397-0.91c0.262-0.234,0.566-0.355,0.914-0.355c0.34,0,0.635,0.105,0.892,0.318
				c0.26,0.219,0.391,0.535,0.391,0.947c0,0.398-0.127,0.711-0.377,0.936C464.533,754.121,464.232,754.236,463.881,754.236
				 M465.164,756.914v7.502c0,0.516-0.123,0.908-0.369,1.172c-0.25,0.27-0.561,0.4-0.941,0.4c-0.381,0-0.685-0.133-0.928-0.406
				c-0.234-0.275-0.355-0.664-0.355-1.166v-7.428c0-0.51,0.121-0.894,0.355-1.154c0.242-0.264,0.547-0.391,0.928-0.391
				c0.381,0,0.691,0.127,0.941,0.391C465.041,756.094,465.164,756.457,465.164,756.914"/>
			<path style="fill:#8EA8A3;" d="M473.523,764.805l-2.283-3.766l-1.408,1.328v2.066c0,0.498-0.133,0.881-0.397,1.148
				c-0.258,0.274-0.566,0.406-0.906,0.406c-0.398,0-0.715-0.131-0.941-0.4c-0.227-0.264-0.344-0.656-0.344-1.174v-11.063
				c0-0.574,0.115-1.012,0.332-1.315c0.223-0.305,0.545-0.451,0.953-0.451c0.398,0,0.713,0.137,0.949,0.41
				c0.234,0.271,0.354,0.674,0.354,1.203v6.293l2.916-3.063c0.361-0.377,0.633-0.641,0.826-0.779c0.19-0.139,0.42-0.207,0.69-0.207
				c0.326,0,0.594,0.103,0.816,0.309c0.211,0.205,0.32,0.465,0.32,0.773c0,0.379-0.354,0.889-1.055,1.521l-1.377,1.262l2.658,4.184
				c0.193,0.313,0.34,0.543,0.424,0.705c0.084,0.16,0.131,0.32,0.131,0.463c0,0.412-0.115,0.734-0.342,0.975
				c-0.225,0.236-0.523,0.353-0.885,0.353c-0.316,0-0.564-0.08-0.734-0.256C474.051,765.56,473.814,765.25,473.523,764.805"/>
			<path style="fill:#8EA8A3;" d="M479.16,765.988c-0.393,0-0.729-0.125-1.014-0.381c-0.285-0.248-0.43-0.605-0.43-1.064
				c0-0.385,0.139-0.719,0.41-0.994c0.275-0.279,0.607-0.42,1.008-0.42c0.398,0,0.736,0.141,1.023,0.412
				c0.279,0.275,0.422,0.613,0.422,1.002c0,0.453-0.143,0.809-0.422,1.06C479.871,765.863,479.539,765.988,479.16,765.988"/>
			<path style="fill:#8EA8A3;" d="M492.059,762.779c0,0.32-0.098,0.668-0.291,1.033c-0.191,0.371-0.488,0.719-0.887,1.051
				c-0.395,0.332-0.891,0.602-1.494,0.803c-0.602,0.203-1.281,0.307-2.031,0.307c-1.605,0-2.858-0.469-3.758-1.4
				c-0.895-0.936-1.346-2.19-1.346-3.76c0-1.068,0.205-2.006,0.619-2.824c0.408-0.814,1.004-1.447,1.781-1.894
				c0.779-0.447,1.717-0.67,2.795-0.67c0.674,0,1.287,0.098,1.852,0.295c0.561,0.195,1.033,0.451,1.426,0.76
				c0.387,0.315,0.686,0.643,0.889,0.992c0.207,0.352,0.309,0.68,0.309,0.986c0,0.309-0.113,0.572-0.344,0.787
				c-0.234,0.215-0.516,0.324-0.838,0.324c-0.219,0-0.398-0.057-0.541-0.166c-0.145-0.111-0.305-0.289-0.479-0.541
				c-0.318-0.479-0.646-0.842-0.996-1.08c-0.344-0.242-0.781-0.361-1.314-0.361c-0.762,0-1.383,0.297-1.854,0.896
				c-0.467,0.596-0.703,1.42-0.703,2.455c0,0.488,0.063,0.939,0.184,1.348c0.117,0.406,0.291,0.756,0.52,1.043
				c0.23,0.287,0.504,0.506,0.826,0.654c0.324,0.154,0.682,0.227,1.065,0.227c0.521,0,0.967-0.121,1.336-0.361
				c0.377-0.24,0.703-0.607,0.986-1.102c0.158-0.291,0.328-0.518,0.51-0.684c0.182-0.164,0.408-0.25,0.676-0.25
				c0.316,0,0.58,0.123,0.785,0.363C491.951,762.25,492.059,762.508,492.059,762.779"/>
			<path style="fill:#8EA8A3;" d="M503.248,760.719c0,0.769-0.121,1.484-0.355,2.139c-0.246,0.652-0.592,1.213-1.049,1.678
				c-0.455,0.469-1.002,0.828-1.633,1.08c-0.639,0.248-1.35,0.375-2.139,0.375c-0.785,0-1.492-0.127-2.121-0.383
				c-0.623-0.248-1.17-0.613-1.625-1.082c-0.461-0.477-0.809-1.033-1.053-1.676c-0.228-0.645-0.35-1.356-0.35-2.131
				c0-0.787,0.123-1.506,0.357-2.158c0.242-0.654,0.59-1.213,1.039-1.674c0.451-0.461,0.994-0.816,1.631-1.07
				c0.644-0.248,1.35-0.373,2.121-0.373c0.785,0,1.498,0.125,2.139,0.381c0.639,0.252,1.184,0.615,1.645,1.08
				c0.457,0.475,0.803,1.029,1.039,1.672C503.129,759.227,503.248,759.935,503.248,760.719 M500.645,760.719
				c0-1.059-0.234-1.881-0.697-2.469c-0.463-0.596-1.09-0.889-1.875-0.889c-0.508,0-0.955,0.133-1.342,0.395
				c-0.387,0.262-0.682,0.648-0.891,1.164c-0.209,0.514-0.314,1.113-0.314,1.799c0,0.678,0.102,1.268,0.309,1.773
				c0.209,0.51,0.502,0.896,0.887,1.166c0.385,0.266,0.834,0.404,1.352,0.404c0.785,0,1.412-0.297,1.875-0.893
				C500.41,762.58,500.645,761.76,500.645,760.719"/>
			<path style="fill:#8EA8A3;" d="M513.141,760.908v3.447c0,0.547-0.121,0.951-0.369,1.226c-0.25,0.274-0.572,0.408-0.978,0.408
				c-0.393,0-0.713-0.135-0.951-0.408c-0.246-0.275-0.371-0.68-0.371-1.226v-4.131c0-0.654-0.021-1.162-0.064-1.525
				c-0.045-0.354-0.168-0.654-0.361-0.883c-0.197-0.234-0.51-0.352-0.932-0.352c-0.85,0-1.406,0.291-1.676,0.881
				c-0.268,0.576-0.406,1.414-0.406,2.508v3.502c0,0.537-0.123,0.945-0.361,1.223c-0.25,0.273-0.568,0.412-0.965,0.412
				c-0.396,0-0.717-0.139-0.967-0.412c-0.252-0.277-0.377-0.686-0.377-1.223v-7.42c0-0.488,0.111-0.859,0.336-1.111
				c0.228-0.256,0.525-0.381,0.889-0.381c0.358,0,0.652,0.123,0.893,0.355c0.236,0.238,0.354,0.566,0.354,0.984v0.244
				c0.453-0.535,0.936-0.932,1.445-1.18c0.516-0.26,1.082-0.387,1.713-0.387c0.65,0,1.211,0.131,1.678,0.391
				c0.469,0.26,0.853,0.654,1.16,1.176c0.44-0.527,0.908-0.922,1.41-1.18c0.5-0.258,1.053-0.387,1.662-0.387
				c0.705,0,1.32,0.143,1.834,0.42c0.51,0.277,0.893,0.68,1.146,1.195c0.221,0.473,0.33,1.209,0.33,2.217v5.063
				c0,0.547-0.121,0.951-0.367,1.226c-0.246,0.274-0.574,0.408-0.979,0.408c-0.394,0-0.715-0.139-0.965-0.412
				c-0.25-0.277-0.377-0.686-0.377-1.223v-4.361c0-0.559-0.023-1.004-0.068-1.338c-0.047-0.338-0.178-0.621-0.383-0.848
				c-0.213-0.227-0.531-0.344-0.953-0.344c-0.342,0-0.666,0.108-0.975,0.309c-0.307,0.197-0.547,0.477-0.721,0.813
				C513.238,759.023,513.141,759.799,513.141,760.908"/>
		</g>
		<g>
			<path style="fill:#8EA8A3;" d="M392.435,760.09c-0.002-0.004-0.002-0.01-0.002-0.017
				C392.434,760.08,392.434,760.086,392.435,760.09z"/>
			<path style="fill:#8EA8A3;" d="M392.566,760.92c0.002,0,0.002,0,0.003,0c-0.05-0.236-0.089-0.471-0.118-0.703
				C392.48,760.451,392.52,760.685,392.566,760.92z"/>
			<path style="fill:#8EA8A3;" d="M393.425,763.326c-0.006-0.01-0.011-0.021-0.017-0.033
				C393.414,763.305,393.419,763.316,393.425,763.326z"/>
			<path style="fill:#8EA8A3;" d="M393.343,763.166c-0.023-0.045-0.044-0.09-0.066-0.135
				C393.299,763.078,393.32,763.121,393.343,763.166z"/>
			<path style="fill:#8EA8A3;" d="M392.808,761.846c0.127,0.4,0.28,0.789,0.457,1.158c-0.181-0.377-0.33-0.766-0.454-1.158
				C392.81,761.846,392.809,761.846,392.808,761.846z"/>
			<path style="fill:#8EA8A3;" d="M402.473,750.154c0.502,0,0.871,0.039,1.295,0.111l0.121-0.764c0,0-1.172-0.359-2.711-0.234
				l-0.121-0.414c0.479-0.102,0.838-0.527,0.838-1.035c0-0.582-0.475-1.053-1.057-1.053c-0.584,0-1.057,0.471-1.057,1.053
				c0,0.508,0.359,0.934,0.836,1.035l0.135,0.463c-1.635,0.225-2.936,0.861-2.936,0.861l0.23,0.705
				c0.988-0.328,1.846-0.529,2.624-0.613C401.433,750.19,402.006,750.154,402.473,750.154z"/>
			<path style="fill:#8EA8A3;" d="M393.405,754.012l0.006-0.008c0.038-0.049,0.075-0.096,0.113-0.143l-0.314-0.225l-0.487-0.357
				c-0.027,0.039-0.795,0.744-1.401,2.049c-0.025-0.041-0.056-0.082-0.09-0.119c-0.182-0.199-0.436-0.301-0.758-0.295
				c-0.004,0-0.01,0-0.016,0c-0.199,0-0.336-0.066-0.426-0.147c0.089-0.113,0.143-0.256,0.143-0.414c0-0.367-0.3-0.668-0.67-0.668
				c-0.368,0-0.668,0.301-0.668,0.668c0,0.371,0.3,0.67,0.668,0.67c0.059,0,0.113-0.01,0.168-0.021
				c0.164,0.183,0.425,0.342,0.807,0.334c0.197-0.002,0.342,0.049,0.438,0.156c0.111,0.121,0.148,0.295,0.16,0.428
				c-0.001,0.002-0.001,0.004-0.003,0.004c-0.436,1.189-0.311,2.67-0.311,2.67l1.058,0.043c0.022-0.539,0.099-1.482,0.372-2.23
				C392.719,754.957,393.379,754.051,393.405,754.012z"/>
			<path style="fill:#8EA8A3;" d="M411.672,751.037c-0.367,0-0.668,0.299-0.668,0.67c0,0.057,0.008,0.111,0.023,0.164
				c-0.184,0.166-0.344,0.428-0.338,0.81c0.004,0.197-0.047,0.34-0.154,0.438c-0.084,0.074-0.191,0.115-0.295,0.141
				c-0.787-1.104-1.756-1.775-1.756-1.775l-0.76,0.813c0.574,0.522,1.16,1.176,1.729,1.99c0.395,0.565,0.799,1.291,1.137,2.016
				l1.023-0.486c0,0-0.467-1.156-1.125-2.191c0.113-0.041,0.229-0.104,0.33-0.193c0.201-0.18,0.299-0.435,0.293-0.758
				c-0.002-0.207,0.066-0.348,0.148-0.441c0.115,0.088,0.258,0.143,0.412,0.143c0.371,0,0.67-0.299,0.67-0.668
				C412.342,751.336,412.043,751.037,411.672,751.037z"/>
			<path style="fill:#8EA8A3;" d="M409.016,760.24c-1.41,0.686-3.729,1.594-6.781,2.02c-1.199,0.166-2.359,0.227-3.429,0.227
				c-1.391,0-2.62-0.104-3.563-0.223c-1.076-0.135-1.917-0.301-2.433-0.418c0.124,0.393,0.274,0.781,0.454,1.158
				c0.003,0.01,0.008,0.021,0.013,0.027c0.022,0.045,0.043,0.09,0.066,0.135c0.021,0.043,0.043,0.086,0.065,0.127
				c0.006,0.012,0.011,0.023,0.017,0.033c0.303,0.57,0.667,1.094,1.081,1.549c1.439,1.574,2.906,1.824,2.92,1.826l0.023,0.002
				l0.022,0.008c0.014,0.006,1.314,0.426,3.291,0.426c1.945,0,3.855-0.393,5.674-1.168c1.348-0.69,2.623-1.736,3.254-2.67
				c0.488-0.723,0.842-1.492,1.051-2.293c0.111-0.426,0.199-1.108,0.146-1.826C410.49,759.447,409.863,759.826,409.016,760.24z"/>
			<path style="fill:#8EA8A3;" d="M393.857,754.346c-0.041,0.061-0.652,0.926-1.135,2.254c-0.361,0.994-0.346,2.443-0.346,2.459
				v0.004c0,0.34,0.019,0.676,0.057,1.01c0,0.008,0,0.014,0.002,0.017c0.004,0.043,0.012,0.084,0.016,0.127
				c0.029,0.232,0.068,0.467,0.118,0.703c0.7,0.178,4.878,1.152,9.548,0.502c2.928-0.408,5.15-1.273,6.5-1.928
				c1.121-0.543,1.842-1.035,2.119-1.238c-0.277-1.027-1.041-2.641-1.742-3.647c-2.006-2.865-4.168-3.6-5.277-3.783
				c-0.424-0.068-0.764-0.109-1.244-0.109c-0.447,0-1.002,0.037-1.742,0.115c-0.744,0.076-1.572,0.272-2.533,0.596
				c-1.348,0.451-2.566,1.158-3.526,2.047l-0.032,0.031C394.496,753.637,394.199,753.912,393.857,754.346z M406.127,753.68
				c0.961,0,1.744,0.781,1.744,1.742c0,0.963-0.783,1.744-1.744,1.744c-0.961,0-1.742-0.781-1.742-1.744
				C404.385,754.461,405.166,753.68,406.127,753.68z M397.886,753.609c1.557,0,2.817,1.262,2.817,2.818
				c0,1.555-1.261,2.815-2.817,2.815c-1.555,0-2.815-1.26-2.815-2.815C395.07,754.871,396.331,753.609,397.886,753.609z"/>
		</g>
	</g>
</g>
<g id="OBJECTS">
	<g>
		<g>
			<g>
				<circle style="fill:#9CE5D7;" cx="134.417" cy="146.489" r="90.746"/>
				<path style="fill:#87D6C7;" d="M224.508,157.387l-8.761-10.301l-163.131-0.597l81.8,90.746
					C180.846,237.235,219.124,202.366,224.508,157.387z"/>
				<g>
					<path style="fill:#F7F5F5;" d="M52.616,146.489c0,0,0.16-0.202,0.469-0.592c0.31-0.379,0.769-1.003,1.368-1.678
						c0.599-0.706,1.338-1.569,2.207-2.488c0.435-0.468,0.901-0.971,1.4-1.507c0.497-0.5,1.027-1.03,1.586-1.59
						c2.236-2.273,4.952-4.732,8.068-7.279c3.115-2.538,6.63-5.119,10.464-7.565c3.834-2.449,7.988-4.763,12.382-6.817
						c4.393-2.094,9.026-3.863,13.819-5.327c9.586-2.94,19.812-4.451,30.036-4.473c5.113-0.008,10.225,0.339,15.257,1.079
						c5.033,0.719,9.986,1.849,14.779,3.292c4.793,1.449,9.426,3.23,13.819,5.314c4.394,2.053,8.548,4.37,12.382,6.825
						c3.835,2.453,7.349,5.043,10.464,7.593c3.116,2.558,5.831,5.029,8.068,7.313c0.56,0.564,1.089,1.098,1.586,1.601
						c0.499,0.518,0.965,1.046,1.4,1.515c0.869,0.924,1.607,1.791,2.206,2.502c0.599,0.68,1.059,1.307,1.368,1.689
						c0.31,0.393,0.469,0.596,0.469,0.596s-0.16,0.204-0.469,0.597c-0.31,0.382-0.769,1.008-1.368,1.689
						c-0.599,0.711-1.338,1.577-2.206,2.502c-0.435,0.468-0.901,0.997-1.4,1.514c-0.497,0.504-1.027,1.037-1.586,1.601
						c-2.236,2.285-4.952,4.756-8.068,7.314c-3.115,2.549-6.63,5.139-10.464,7.592c-3.835,2.455-7.988,4.773-12.382,6.826
						c-4.393,2.083-9.026,3.864-13.819,5.314c-4.793,1.442-9.746,2.573-14.779,3.292c-5.033,0.738-10.145,1.086-15.257,1.079
						c-10.225-0.022-20.45-1.533-30.036-4.473c-4.793-1.464-9.426-3.234-13.819-5.328c-4.394-2.053-8.548-4.368-12.382-6.816
						c-3.835-2.446-7.349-5.028-10.464-7.566c-3.116-2.547-5.832-5.005-8.068-7.278c-0.56-0.561-1.089-1.092-1.586-1.59
						c-0.499-0.537-0.965-1.04-1.4-1.508c-0.868-0.918-1.607-1.782-2.207-2.487c-0.599-0.676-1.059-1.3-1.368-1.678
						C52.776,146.69,52.616,146.489,52.616,146.489z"/>
					<g>
						<g>
							<g>
								<path style="fill:#93E2C0;" d="M134.416,185.889c-21.76,0-39.399-17.64-39.399-39.4c0-21.76,17.64-39.4,39.399-39.4
									c21.76,0,39.4,17.641,39.4,39.4C173.816,168.249,156.176,185.889,134.416,185.889z"/>
								<path style="fill:#454545;" d="M134.416,178.213c-17.52,0-31.723-14.204-31.723-31.724s14.203-31.722,31.723-31.722
									c17.52,0,31.723,14.202,31.723,31.722S151.936,178.213,134.416,178.213z"/>
							</g>
						</g>
						<g>
							<path style="fill:#F7F5F5;" d="M139.425,126.505c7.66,0.206,13.553,6.102,13.76,13.761c0.082,3.049,4.82,3.056,4.737,0
								c-0.277-10.268-8.229-18.222-18.497-18.498C136.368,121.686,136.376,126.423,139.425,126.505L139.425,126.505z"/>
						</g>
					</g>
				</g>
			</g>
			<g>
				<circle style="fill:#9CE5D7;" cx="396.36" cy="146.489" r="90.746"/>
				<path style="fill:#87D6C7;" d="M486.452,157.387l-8.761-10.301l-163.131-0.597l81.8,90.746
					C442.79,237.235,481.068,202.366,486.452,157.387z"/>
				<g>
					<path style="fill:#F7F5F5;" d="M314.56,146.488c0,0,0.16-0.158,0.469-0.462c0.31-0.296,0.769-0.783,1.368-1.31
						c0.599-0.551,1.338-1.225,2.207-1.942c0.435-0.365,0.901-0.757,1.4-1.176c0.498-0.39,1.027-0.804,1.586-1.241
						c2.236-1.774,4.952-3.693,8.068-5.681c3.115-1.981,6.63-3.995,10.464-5.904c3.834-1.911,7.988-3.717,12.382-5.32
						c4.393-1.634,9.026-3.015,13.819-4.157c9.586-2.295,19.811-3.474,30.036-3.491c5.113-0.006,10.225,0.265,15.258,0.842
						c5.032,0.561,9.985,1.443,14.778,2.569c4.793,1.131,9.427,2.521,13.819,4.147c4.395,1.603,8.548,3.411,12.383,5.327
						c3.834,1.914,7.349,3.936,10.464,5.926c3.116,1.996,5.831,3.924,8.067,5.707c0.561,0.44,1.09,0.857,1.587,1.249
						c0.499,0.404,0.966,0.817,1.399,1.182c0.869,0.721,1.607,1.398,2.207,1.953c0.6,0.531,1.059,1.02,1.368,1.318
						c0.31,0.307,0.47,0.465,0.47,0.465s-0.16,0.159-0.47,0.465c-0.31,0.299-0.768,0.787-1.368,1.318
						c-0.6,0.555-1.338,1.23-2.207,1.953c-0.434,0.366-0.9,0.778-1.399,1.181c-0.497,0.393-1.026,0.809-1.587,1.249
						c-2.236,1.783-4.951,3.711-8.067,5.707c-3.115,1.99-6.63,4.011-10.464,5.925c-3.835,1.916-7.988,3.725-12.383,5.328
						c-4.393,1.625-9.026,3.015-13.819,4.147c-4.793,1.126-9.746,2.008-14.778,2.569c-5.033,0.576-10.145,0.848-15.258,0.842
						c-10.225-0.017-20.45-1.197-30.036-3.491c-4.793-1.143-9.426-2.524-13.819-4.158c-4.394-1.603-8.548-3.409-12.382-5.32
						c-3.835-1.909-7.349-3.924-10.464-5.905c-3.116-1.988-5.832-3.906-8.068-5.68c-0.56-0.438-1.089-0.852-1.586-1.241
						c-0.499-0.419-0.965-0.812-1.4-1.177c-0.868-0.716-1.607-1.391-2.207-1.941c-0.599-0.528-1.059-1.014-1.368-1.309
						C314.72,146.645,314.56,146.488,314.56,146.488z"/>
					<g>
						<g>
							<g>
								
									<ellipse transform="matrix(0.2323 -0.9726 0.9726 0.2323 161.7938 497.97)" style="fill:#997E7E;" cx="396.36" cy="146.489" rx="25.928" ry="25.928"/>
								<path style="fill:#454545;" d="M403.903,146.489c0,4.166-3.377,7.541-7.543,7.541c-4.164,0-7.541-3.375-7.541-7.541
									s3.377-7.541,7.541-7.541C400.526,138.948,403.903,142.323,403.903,146.489z"/>
							</g>
						</g>
						<g>
							<path style="fill:#F7F5F5;" d="M397.497,129.461c8.125,0.22,14.377,6.473,14.596,14.599c0.088,3.234,5.113,3.243,5.025,0
								c-0.293-10.894-8.729-19.329-19.621-19.624C394.255,124.349,394.263,129.374,397.497,129.461L397.497,129.461z"/>
						</g>
					</g>
				</g>
			</g>
			<g>
				<g>
					<circle style="fill:#9CE5D7;" cx="661.438" cy="146.489" r="90.746"/>
				</g>
				<g>
					<path style="fill:#87D6C7;" d="M751.53,157.387l-8.761-10.301l-163.132-0.597l81.801,90.746
						C707.868,237.235,746.146,202.366,751.53,157.387z"/>
					<path style="fill:#F7F5F5;" d="M579.638,146.598c0,0,0.16-0.2,0.47-0.586c0.31-0.375,0.769-0.993,1.368-1.66
						c0.6-0.699,1.338-1.553,2.207-2.463c0.434-0.463,0.9-0.96,1.399-1.491c0.497-0.494,1.026-1.019,1.587-1.574
						c2.236-2.249,4.951-4.682,8.067-7.203c3.115-2.511,6.63-5.064,10.464-7.485c3.835-2.423,7.988-4.713,12.383-6.745
						c4.393-2.072,9.026-3.822,13.819-5.271c9.586-2.91,19.812-4.404,30.036-4.426c5.113-0.008,10.225,0.336,15.258,1.067
						c5.032,0.712,9.985,1.83,14.778,3.257c4.793,1.435,9.427,3.197,13.819,5.258c4.395,2.031,8.548,4.324,12.383,6.753
						c3.834,2.427,7.349,4.99,10.464,7.513c3.116,2.531,5.831,4.975,8.067,7.235c0.561,0.559,1.09,1.087,1.587,1.584
						c0.499,0.513,0.966,1.036,1.399,1.499c0.869,0.915,1.607,1.772,2.207,2.476c0.6,0.672,1.059,1.292,1.368,1.671
						c0.31,0.389,0.47,0.589,0.47,0.589s-0.16,0.202-0.47,0.59c-0.309,0.379-0.768,0.997-1.368,1.671
						c-0.6,0.704-1.338,1.56-2.207,2.476c-0.434,0.464-0.9,0.986-1.399,1.497c-0.497,0.498-1.026,1.026-1.587,1.584
						c-2.236,2.26-4.951,4.706-8.067,7.237c-3.115,2.522-6.63,5.085-10.464,7.512c-3.835,2.429-7.988,4.723-12.383,6.754
						c-4.393,2.06-9.026,3.823-13.819,5.258c-4.793,1.428-9.746,2.545-14.778,3.257c-5.033,0.73-10.145,1.075-15.258,1.067
						c-10.225-0.022-20.45-1.518-30.036-4.426c-4.793-1.449-9.427-3.2-13.819-5.271c-4.395-2.031-8.548-4.322-12.383-6.744
						c-3.834-2.421-7.349-4.975-10.464-7.486c-3.116-2.521-5.831-4.952-8.067-7.202c-0.56-0.555-1.09-1.081-1.587-1.574
						c-0.499-0.532-0.966-1.03-1.399-1.493c-0.869-0.908-1.607-1.764-2.207-2.461c-0.6-0.669-1.059-1.286-1.368-1.661
						C579.798,146.797,579.638,146.598,579.638,146.598z"/>
					<g>
						<g>
							<g>
								<g>
									<path style="fill:#4FD9E0;" d="M700.453,146.489c0,21.547-17.467,39.014-39.016,39.014
										c-21.547,0-39.014-17.467-39.014-39.014c0-21.549,17.467-39.016,39.014-39.016
										C682.986,107.474,700.453,124.94,700.453,146.489z"/>
									<path style="fill:#454545;" d="M687.531,146.489c0,14.412-11.682,26.093-26.094,26.093
										c-14.41,0-26.093-11.681-26.093-26.093c0-14.412,11.683-26.094,26.093-26.094
										C675.85,120.396,687.531,132.077,687.531,146.489z"/>
								</g>
							</g>
						</g>
						<g>
							<path style="fill:#F7F5F5;" d="M661.438,131.966c8.086,0.217,14.305,6.439,14.523,14.523c0.086,3.217,5.086,3.225,5,0
								c-0.293-10.838-8.685-19.232-19.523-19.524C658.212,126.878,658.221,131.878,661.438,131.966L661.438,131.966z"/>
						</g>
					</g>
				</g>
			</g>
			<g>
				
					<ellipse transform="matrix(0.1596 -0.9872 0.9872 0.1596 -262.5774 452.411)" style="fill:#9CE5D7;" cx="134.417" cy="380.42" rx="90.746" ry="90.746"/>
				<path style="fill:#87D6C7;" d="M224.508,391.318l-8.761-10.301l-163.131-0.598l81.8,90.747
					C180.846,471.166,219.124,436.297,224.508,391.318z"/>
				<path style="fill:#F7F5F5;" d="M52.616,380.418c0,0,0.16-0.165,0.469-0.486c0.31-0.313,0.769-0.826,1.368-1.382
					c0.599-0.582,1.338-1.292,2.207-2.048c0.435-0.387,0.901-0.799,1.4-1.242c0.497-0.411,1.027-0.847,1.586-1.309
					c2.236-1.871,4.952-3.895,8.068-5.992c3.115-2.09,6.63-4.214,10.464-6.228c3.834-2.016,7.988-3.921,12.382-5.612
					c4.393-1.724,9.026-3.181,13.819-4.386c9.586-2.42,19.812-3.663,30.036-3.682c5.113-0.006,10.225,0.28,15.257,0.889
					c5.033,0.592,9.986,1.522,14.779,2.71c4.793,1.192,9.426,2.659,13.819,4.374c4.394,1.69,8.548,3.598,12.382,5.619
					c3.835,2.02,7.349,4.151,10.464,6.25c3.116,2.106,5.831,4.14,8.068,6.02c0.56,0.465,1.089,0.905,1.586,1.318
					c0.499,0.427,0.965,0.862,1.4,1.246c0.869,0.763,1.607,1.475,2.206,2.061c0.599,0.56,1.059,1.076,1.368,1.39
					c0.31,0.324,0.469,0.49,0.469,0.49s-0.16,0.169-0.469,0.492c-0.31,0.314-0.769,0.83-1.368,1.39
					c-0.599,0.587-1.338,1.299-2.206,2.061c-0.435,0.385-0.901,0.82-1.4,1.246c-0.497,0.413-1.027,0.853-1.586,1.317
					c-2.236,1.88-4.952,3.916-8.068,6.021c-3.115,2.1-6.63,4.23-10.464,6.25s-7.988,3.928-12.382,5.619
					c-4.393,1.715-9.026,3.182-13.819,4.375c-4.793,1.188-9.746,2.117-14.779,2.711c-5.033,0.607-10.145,0.893-15.257,0.887
					c-10.225-0.018-20.45-1.262-30.036-3.682c-4.793-1.207-9.426-2.662-13.819-4.387c-4.394-1.69-8.548-3.596-12.382-5.611
					c-3.835-2.014-7.349-4.139-10.464-6.228c-3.116-2.096-5.832-4.119-8.068-5.992c-0.56-0.461-1.089-0.898-1.586-1.309
					c-0.499-0.442-0.965-0.856-1.4-1.241c-0.868-0.756-1.607-1.468-2.207-2.049c-0.599-0.556-1.059-1.069-1.368-1.381
					C52.776,380.585,52.616,380.418,52.616,380.418z"/>
				<g>
					<g>
						<g>
							<path style="fill:#4FD9E0;" d="M166.008,380.419c0,17.878-14.49,32.368-32.366,32.368s-32.366-14.49-32.366-32.368
								c0-17.875,14.49-32.367,32.366-32.367S166.008,362.544,166.008,380.419z"/>
							<path style="fill:#454545;" d="M145.164,380.419c0,6.365-5.158,11.524-11.522,11.524c-6.363,0-11.522-5.159-11.522-11.524
								c0-6.363,5.159-11.522,11.522-11.522C140.006,368.898,145.164,374.056,145.164,380.419z"/>
						</g>
					</g>
					<g>
						<path style="fill:#F7F5F5;" d="M138.173,359.005c8.085,0.217,14.305,6.439,14.523,14.523c0.087,3.217,5.087,3.225,5,0
							c-0.292-10.838-8.685-19.232-19.523-19.523C134.947,353.918,134.956,358.918,138.173,359.005L138.173,359.005z"/>
					</g>
				</g>
			</g>
			<g>
				
					<ellipse transform="matrix(0.9993 -0.0385 0.0385 0.9993 -14.16 25.921)" style="fill:#9CE5D7;" cx="665.584" cy="380.421" rx="90.745" ry="90.747"/>
				<path style="fill:#87D6C7;" d="M755.676,391.318l-8.761-10.301l-163.131-0.596l81.8,90.747
					C712.013,471.168,750.292,436.299,755.676,391.318z"/>
				<path style="fill:#F7F5F5;" d="M583.784,380.421c0,0,0.159-0.242,0.469-0.707c0.31-0.451,0.77-1.191,1.368-1.994
					c0.599-0.84,1.339-1.865,2.206-2.961c0.436-0.557,0.902-1.154,1.4-1.793c0.498-0.592,1.027-1.225,1.586-1.891
					c2.236-2.704,4.953-5.629,8.068-8.658c3.115-3.018,6.63-6.088,10.465-8.997c3.834-2.913,7.988-5.665,12.382-8.108
					c4.394-2.49,9.026-4.594,13.819-6.335c9.586-3.497,19.811-5.293,30.036-5.32c5.112-0.01,10.225,0.404,15.257,1.283
					c5.033,0.855,9.986,2.199,14.779,3.916c4.793,1.724,9.426,3.842,13.819,6.32c4.394,2.442,8.548,5.198,12.382,8.118
					c3.835,2.916,7.35,5.998,10.465,9.029c3.115,3.042,5.832,5.983,8.068,8.699c0.559,0.67,1.088,1.305,1.586,1.902
					c0.498,0.617,0.965,1.244,1.4,1.803c0.868,1.098,1.607,2.129,2.206,2.975c0.599,0.809,1.059,1.555,1.368,2.01
					c0.31,0.467,0.469,0.709,0.469,0.709s-0.159,0.24-0.469,0.709c-0.31,0.455-0.769,1.197-1.368,2.008
					c-0.599,0.846-1.338,1.875-2.206,2.976c-0.435,0.557-0.902,1.186-1.4,1.801c-0.498,0.6-1.027,1.232-1.586,1.902
					c-2.236,2.717-4.953,5.656-8.068,8.699c-3.115,3.031-6.63,6.111-10.465,9.029c-3.834,2.92-7.988,5.678-12.382,8.119
					c-4.394,2.477-9.026,4.594-13.819,6.32c-4.793,1.715-9.746,3.059-14.779,3.914c-5.032,0.879-10.144,1.291-15.257,1.283
					c-10.225-0.025-20.45-1.824-30.036-5.32c-4.793-1.74-9.426-3.844-13.819-6.334c-4.393-2.445-8.548-5.197-12.382-8.107
					c-3.835-2.91-7.35-5.98-10.465-9c-3.115-3.029-5.832-5.951-8.068-8.654c-0.559-0.668-1.088-1.299-1.586-1.895
					c-0.498-0.637-0.965-1.235-1.4-1.793c-0.867-1.092-1.607-2.119-2.206-2.957c-0.599-0.807-1.059-1.547-1.368-1.998
					C583.943,380.66,583.784,380.421,583.784,380.421z"/>
				<g>
					<g>
						<path style="fill:#93E2C0;" d="M665.584,419.783c-21.591,0-39.094-17.504-39.094-39.096c0-21.591,17.503-39.096,39.094-39.096
							c21.592,0,39.095,17.505,39.095,39.096C704.679,402.279,687.176,419.783,665.584,419.783z"/>
						<path style="fill:#454545;" d="M665.584,398.203c-9.673,0-17.516-7.842-17.516-17.516c0-9.674,7.843-17.516,17.516-17.516
							c9.674,0,17.517,7.842,17.517,17.516C683.101,390.361,675.258,398.203,665.584,398.203z"/>
					</g>
					<g>
						<path style="fill:#F7F5F5;" d="M673.735,357.56c7.6,0.204,13.449,6.054,13.653,13.653c0.083,3.024,4.783,3.032,4.701,0
							c-0.274-10.189-8.164-18.08-18.354-18.355C670.702,352.777,670.711,357.478,673.735,357.56L673.735,357.56z"/>
					</g>
				</g>
			</g>
			<g>
				<circle style="fill:#9CE5D7;" cx="134.417" cy="617.938" r="90.746"/>
				<path style="fill:#87D6C7;" d="M224.508,628.834l-8.761-10.301l-163.131-0.596l81.8,90.746
					C180.846,708.684,219.124,673.815,224.508,628.834z"/>
				<path style="fill:#F7F5F5;" d="M52.616,617.94c0,0,0.16-0.252,0.469-0.734c0.31-0.471,0.769-1.242,1.368-2.08
					c0.599-0.875,1.338-1.945,2.207-3.084c0.435-0.582,0.901-1.203,1.4-1.869c0.497-0.619,1.027-1.275,1.586-1.971
					c2.236-2.818,4.952-5.865,8.068-9.021c3.115-3.146,6.63-6.346,10.464-9.375c3.834-3.037,7.988-5.904,12.382-8.451
					c4.393-2.594,9.026-4.785,13.819-6.602c9.586-3.643,19.812-5.516,30.036-5.543c5.113-0.01,10.225,0.42,15.257,1.336
					c5.033,0.893,9.986,2.293,14.779,4.08c4.793,1.797,9.426,4.004,13.819,6.588c4.394,2.545,8.548,5.416,12.382,8.457
					c3.835,3.041,7.349,6.252,10.464,9.412c3.116,3.17,5.831,6.233,8.068,9.065c0.56,0.699,1.089,1.359,1.586,1.982
					c0.499,0.643,0.965,1.297,1.4,1.877c0.869,1.146,1.607,2.219,2.206,3.102c0.599,0.842,1.059,1.619,1.368,2.094
					c0.31,0.486,0.469,0.738,0.469,0.738s-0.16,0.252-0.469,0.738c-0.31,0.475-0.769,1.25-1.368,2.094
					c-0.599,0.883-1.338,1.955-2.206,3.102c-0.435,0.58-0.901,1.234-1.4,1.877c-0.497,0.623-1.027,1.285-1.586,1.982
					c-2.236,2.832-4.952,5.895-8.068,9.064c-3.115,3.16-6.63,6.369-10.464,9.41c-3.835,3.043-7.988,5.914-12.382,8.461
					c-4.393,2.58-9.026,4.787-13.819,6.584c-4.793,1.789-9.746,3.189-14.779,4.082c-5.033,0.914-10.145,1.346-15.257,1.336
					c-10.225-0.027-20.45-1.9-30.036-5.545c-4.793-1.813-9.426-4.006-13.819-6.602c-4.394-2.545-8.548-5.414-12.382-8.447
					c-3.835-3.033-7.349-6.232-10.464-9.377c-3.116-3.158-5.832-6.203-8.068-9.022c-0.56-0.695-1.089-1.353-1.586-1.973
					c-0.499-0.664-0.965-1.287-1.4-1.867c-0.868-1.139-1.607-2.209-2.207-3.084c-0.599-0.838-1.059-1.611-1.368-2.08
					C52.776,618.19,52.616,617.94,52.616,617.94z"/>
				<g>
					<g>
						<g>
							<path style="fill:#997E7E;" d="M134.416,657.338c-21.76,0-39.399-17.641-39.399-39.4s17.64-39.4,39.399-39.4
								c21.76,0,39.4,17.641,39.4,39.4S156.176,657.338,134.416,657.338z"/>
							
								<ellipse transform="matrix(0.2221 -0.975 0.975 0.2221 -497.9435 611.7504)" style="fill:#454545;" cx="134.416" cy="617.939" rx="7.572" ry="7.572"/>
						</g>
					</g>
					<g>
						<path style="fill:#F7F5F5;" d="M133.884,602.408c7.66,0.207,13.553,6.102,13.76,13.762c0.082,3.049,4.82,3.055,4.737,0
							c-0.277-10.27-8.229-18.223-18.497-18.498C130.827,597.588,130.835,602.326,133.884,602.408L133.884,602.408z"/>
					</g>
				</g>
			</g>
			<g>
				<circle style="fill:#9CE5D7;" cx="400.249" cy="617.938" r="90.746"/>
				<path style="fill:#87D6C7;" d="M490.341,628.834l-8.762-10.301l-163.13-0.596l81.8,90.746
					C446.679,708.684,484.956,673.815,490.341,628.834z"/>
				<g>
					<path style="fill:#F7F5F5;" d="M318.449,618.459c0,0,0.16-0.174,0.469-0.512c0.311-0.328,0.77-0.865,1.369-1.449
						c0.599-0.609,1.338-1.355,2.206-2.15c0.434-0.404,0.901-0.838,1.399-1.301c0.498-0.432,1.027-0.891,1.587-1.373
						c2.236-1.963,4.952-4.088,8.067-6.287c3.115-2.191,6.631-4.42,10.465-6.533c3.834-2.115,7.988-4.111,12.383-5.887
						c4.393-1.809,9.025-3.338,13.818-4.6c9.586-2.541,19.813-3.846,30.037-3.863c5.113-0.006,10.225,0.293,15.258,0.932
						c5.031,0.621,9.984,1.596,14.777,2.842c4.793,1.254,9.428,2.791,13.82,4.59c4.395,1.773,8.547,3.775,12.383,5.895
						c3.834,2.119,7.348,4.355,10.463,6.559c3.117,2.207,5.832,4.342,8.068,6.315c0.561,0.488,1.09,0.947,1.586,1.381
						c0.5,0.449,0.967,0.904,1.4,1.309c0.869,0.799,1.607,1.547,2.207,2.162c0.6,0.586,1.059,1.129,1.367,1.457
						c0.31,0.342,0.471,0.516,0.471,0.516s-0.16,0.176-0.471,0.514c-0.309,0.332-0.768,0.873-1.367,1.459
						c-0.6,0.615-1.338,1.361-2.207,2.162c-0.434,0.404-0.9,0.859-1.4,1.307c-0.496,0.434-1.025,0.896-1.586,1.383
						c-2.236,1.973-4.951,4.107-8.068,6.316c-3.115,2.201-6.629,4.438-10.463,6.555c-3.836,2.121-7.988,4.123-12.383,5.896
						c-4.393,1.799-9.027,3.336-13.82,4.59c-4.793,1.244-9.746,2.221-14.777,2.842c-5.033,0.637-10.144,0.938-15.258,0.932
						c-10.224-0.02-20.451-1.324-30.037-3.863c-4.793-1.262-9.426-2.793-13.818-4.6c-4.395-1.775-8.549-3.773-12.383-5.887
						c-3.834-2.113-7.35-4.342-10.465-6.535c-3.115-2.199-5.831-4.322-8.067-6.285c-0.56-0.482-1.089-0.943-1.587-1.373
						c-0.498-0.463-0.965-0.898-1.399-1.303c-0.868-0.793-1.607-1.539-2.206-2.148c-0.6-0.584-1.059-1.123-1.369-1.449
						C318.609,618.633,318.449,618.459,318.449,618.459z"/>
					<g>
						<defs>
							<path id="SVGID_1_" d="M318.449,618.459c0,0,0.16-0.174,0.469-0.512c0.311-0.328,0.77-0.865,1.369-1.449
								c0.599-0.609,1.338-1.355,2.206-2.15c0.434-0.404,0.901-0.838,1.399-1.301c0.498-0.432,1.027-0.891,1.587-1.373
								c2.236-1.963,4.952-4.088,8.067-6.287c3.115-2.191,6.631-4.42,10.465-6.533c3.834-2.115,7.988-4.111,12.383-5.887
								c4.393-1.809,9.025-3.338,13.818-4.6c9.586-2.541,19.813-3.846,30.037-3.863c5.113-0.006,10.225,0.293,15.258,0.932
								c5.031,0.621,9.984,1.596,14.777,2.842c4.793,1.254,9.428,2.791,13.82,4.59c4.395,1.773,8.547,3.775,12.383,5.895
								c3.834,2.119,7.348,4.355,10.463,6.559c3.117,2.207,5.832,4.342,8.068,6.315c0.561,0.488,1.09,0.947,1.586,1.381
								c0.5,0.449,0.967,0.904,1.4,1.309c0.869,0.799,1.607,1.547,2.207,2.162c0.6,0.586,1.059,1.129,1.367,1.457
								c0.31,0.342,0.471,0.516,0.471,0.516s-0.16,0.176-0.471,0.514c-0.309,0.332-0.768,0.873-1.367,1.459
								c-0.6,0.615-1.338,1.361-2.207,2.162c-0.434,0.404-0.9,0.859-1.4,1.307c-0.496,0.434-1.025,0.896-1.586,1.383
								c-2.236,1.973-4.951,4.107-8.068,6.316c-3.115,2.201-6.629,4.438-10.463,6.555c-3.836,2.121-7.988,4.123-12.383,5.896
								c-4.393,1.799-9.027,3.336-13.82,4.59c-4.793,1.244-9.746,2.221-14.777,2.842c-5.033,0.637-10.144,0.938-15.258,0.932
								c-10.224-0.02-20.451-1.324-30.037-3.863c-4.793-1.262-9.426-2.793-13.818-4.6c-4.395-1.775-8.549-3.773-12.383-5.887
								c-3.834-2.113-7.35-4.342-10.465-6.535c-3.115-2.199-5.831-4.322-8.067-6.285c-0.56-0.482-1.089-0.943-1.587-1.373
								c-0.498-0.463-0.965-0.898-1.399-1.303c-0.868-0.793-1.607-1.539-2.206-2.148c-0.6-0.584-1.059-1.123-1.369-1.449
								C318.609,618.633,318.449,618.459,318.449,618.459z"/>
						</defs>
						<clipPath id="SVGID_00000062170490830577165730000007835699971405414050_">
							<use xlink:href="#SVGID_1_"  style="overflow:visible;"/>
						</clipPath>
						<g style="clip-path:url(#SVGID_00000062170490830577165730000007835699971405414050_);">
							<g>
								<g>
									<path style="fill:#93E2C0;" d="M400.249,639.518c-16.73,0-30.292-13.563-30.292-30.293
										c0-16.729,13.562-30.291,30.292-30.291c16.729,0,30.292,13.563,30.292,30.291
										C430.541,625.955,416.978,639.518,400.249,639.518z"/>
									<path style="fill:#454545;" d="M400.25,628.258c-10.513,0-19.034-8.52-19.034-19.033c0-10.512,8.522-19.031,19.034-19.031
										c10.51,0,19.031,8.519,19.031,19.031C419.281,619.738,410.76,628.258,400.25,628.258z"/>
								</g>
							</g>
							<g>
								<path style="fill:#F7F5F5;" d="M405.645,590.531c7.66,0.207,13.555,6.102,13.76,13.76c0.082,3.049,4.82,3.057,4.738,0
									c-0.277-10.268-8.228-18.221-18.498-18.498C402.588,585.711,402.596,590.449,405.645,590.531L405.645,590.531z"/>
							</g>
						</g>
					</g>
				</g>
			</g>
			<g>
				<circle style="fill:#9CE5D7;" cx="664.181" cy="625.512" r="90.746"/>
				<path style="fill:#87D6C7;" d="M754.272,636.41l-8.761-10.303l-163.132-0.596l81.801,90.746
					C710.61,716.258,748.889,681.389,754.272,636.41z"/>
				<path style="fill:#F7F5F5;" d="M582.38,625.512c0,0,0.16-0.248,0.47-0.727c0.31-0.465,0.769-1.233,1.368-2.061
					c0.6-0.867,1.338-1.926,2.207-3.053c0.434-0.574,0.9-1.191,1.399-1.848c0.497-0.615,1.026-1.266,1.587-1.953
					c2.236-2.789,4.951-5.805,8.067-8.932c3.115-3.115,6.63-6.281,10.464-9.281c3.835-3.006,7.988-5.846,12.383-8.363
					c4.393-2.572,9.026-4.742,13.819-6.537c9.586-3.609,19.812-5.461,30.036-5.488c5.113-0.01,10.225,0.416,15.258,1.324
					c5.032,0.881,9.985,2.268,14.778,4.039c4.793,1.777,9.427,3.961,13.819,6.519c4.395,2.52,8.548,5.361,12.383,8.375
					c3.834,3.008,7.349,6.188,10.464,9.317c3.116,3.137,5.831,6.17,8.067,8.973c0.56,0.693,1.09,1.348,1.587,1.963
					c0.499,0.637,0.966,1.285,1.399,1.859c0.869,1.133,1.607,2.195,2.207,3.07c0.6,0.832,1.059,1.602,1.368,2.072
					c0.31,0.482,0.47,0.73,0.47,0.73s-0.16,0.25-0.47,0.73c-0.31,0.471-0.768,1.238-1.368,2.074c-0.6,0.871-1.338,1.934-2.207,3.07
					c-0.434,0.574-0.9,1.223-1.399,1.855c-0.497,0.619-1.026,1.273-1.587,1.965c-2.236,2.803-4.951,5.836-8.067,8.973
					c-3.115,3.129-6.63,6.307-10.464,9.316c-3.835,3.012-7.988,5.856-12.383,8.377c-4.393,2.553-9.026,4.738-13.819,6.52
					c-4.793,1.77-9.746,3.158-14.778,4.039c-5.033,0.906-10.145,1.332-15.258,1.322c-10.225-0.025-20.45-1.881-30.036-5.486
					c-4.793-1.797-9.427-3.969-13.819-6.539c-4.395-2.518-8.548-5.359-12.383-8.363c-3.834-3-7.349-6.168-10.464-9.281
					c-3.116-3.127-5.831-6.141-8.067-8.932c-0.56-0.688-1.09-1.34-1.587-1.951c-0.499-0.658-0.966-1.277-1.399-1.852
					c-0.869-1.125-1.607-2.185-2.207-3.051c-0.6-0.83-1.059-1.596-1.368-2.059C582.54,625.758,582.38,625.512,582.38,625.512z"/>
				<g>
					<g>
						<g>
							
								<ellipse transform="matrix(0.7071 -0.7071 0.7071 0.7071 -247.7696 652.8548)" style="fill:#4FD9E0;" cx="664.181" cy="625.512" rx="25.928" ry="25.928"/>
							<path style="fill:#454545;" d="M683.802,625.512c0,10.838-8.785,19.617-19.623,19.617c-10.832,0-19.617-8.779-19.617-19.617
								s8.785-19.617,19.617-19.617C675.017,605.894,683.802,614.674,683.802,625.512z"/>
						</g>
					</g>
					<g>
						<path style="fill:#F7F5F5;" d="M660.729,613.51c8.125,0.221,14.377,6.473,14.596,14.6c0.088,3.234,5.113,3.242,5.025,0
							c-0.293-10.895-8.729-19.33-19.621-19.625C657.487,608.398,657.495,613.424,660.729,613.51L660.729,613.51z"/>
					</g>
				</g>
			</g>
		</g>
		<g>
			<g>
				<text transform="matrix(1 0 0 1 284.5718 366.9194)" style="fill:#98AFAB; font-family:'Quicksand-Bold'; font-size:49.117px;">FLAT EYE</text>
				<text transform="matrix(1 0 0 1 288.0293 429.8901)" style="fill:#98AFAB; font-family:'BebasNeueBold'; font-size:60.4712px;">COLLECTION</text>
			</g>
			<g>
				<path style="fill:#98AFAB;" d="M529.104,458.496c-44.414,0-88.828,0-133.242,0c-44.081,0-88.163,0-132.244,0
					c0.625,0.625,1.25,1.25,1.875,1.875c0-49.475,0-78.95,0-128.425c0-15.478,0-10.955,0-26.432c-0.625,0.625-1.25,1.25-1.875,1.875
					c44.414,0,88.828,0,133.242,0c44.081,0,88.163,0,132.244,0c-0.625-0.625-1.25-1.25-1.875-1.875c0,49.475,0,78.95,0,128.425
					c0,15.478,0,10.955,0,26.432c0,2.418,3.75,2.418,3.75,0c0-49.475,0-78.95,0-128.425c0-15.478,0-10.955,0-26.432
					c0-1.022-0.853-1.875-1.875-1.875c-44.414,0-88.828,0-133.242,0c-44.081,0-88.163,0-132.244,0c-1.022,0-1.875,0.853-1.875,1.875
					c0,49.475,0,78.95,0,128.425c0,15.478,0,10.955,0,26.432c0,1.023,0.853,1.875,1.875,1.875c44.414,0,88.828,0,133.242,0
					c44.081,0,88.163,0,132.244,0C531.521,462.246,531.521,458.496,529.104,458.496z"/>
			</g>
		</g>
	</g>
</g>
</svg>
