<?xml version="1.0" encoding="utf-8"?>
<!-- Generator: Adobe Illustrator 27.5.0, SVG Export Plug-In . SVG Version: 6.00 Build 0)  -->
<svg version="1.1" id="Layer_1" xmlns="http://www.w3.org/2000/svg" xmlns:xlink="http://www.w3.org/1999/xlink" x="0px" y="0px"
	 viewBox="0 0 595.28 841.89" style="enable-background:new 0 0 595.28 841.89;" xml:space="preserve">
<rect x="-241.335" y="-164.016" style="fill:#323A45;" width="1116.897" height="1170.521"/>
<g>
	<linearGradient id="SVGID_1_" gradientUnits="userSpaceOnUse" x1="21.3351" y1="894.0598" x2="706.7612" y2="-169.7374">
		<stop  offset="0.0699" style="stop-color:#F6F6F6"/>
		<stop  offset="0.3172" style="stop-color:#FFFFFF"/>
		<stop  offset="1" style="stop-color:#EEEEEE"/>
	</linearGradient>
	<path style="fill:url(#SVGID_1_);" d="M530.102,15.493H111.225c-29.724,0-53.815,24.088-53.815,53.806v7.223
		c-4.522,1.233-7.487,4.192-7.054,7.464c5.342,43.006,5.342,85.851,0,128.865c-0.433,3.263,2.532,6.229,7.054,7.453v569.392
		c0,29.724,24.091,53.815,53.815,53.815h418.877c29.714,0,53.811-24.092,53.811-53.815V69.299
		C583.912,39.582,559.815,15.493,530.102,15.493z M104.792,822.711c-2.249,0-4.077-1.828-4.077-4.077
		c0-2.249,1.828-4.077,4.077-4.077c2.247,0,4.074,1.828,4.074,4.077C108.866,820.883,107.04,822.711,104.792,822.711z
		 M114.556,822.711c-2.249,0-4.077-1.828-4.077-4.077c0-2.249,1.828-4.077,4.077-4.077c2.247,0,4.076,1.828,4.076,4.077
		C118.631,820.883,116.803,822.711,114.556,822.711z M124.317,822.711c-2.247,0-4.068-1.828-4.068-4.077
		c0-2.249,1.821-4.077,4.068-4.077c2.248,0,4.077,1.828,4.077,4.077C128.395,820.883,126.566,822.711,124.317,822.711z
		 M320.662,837.199c-18.977,0-34.368-15.383-34.368-34.355c0-18.982,15.391-34.368,34.368-34.368
		c18.978,0,34.367,15.386,34.367,34.368C355.029,821.816,339.64,837.199,320.662,837.199z M559.998,733.34
		c0,15.246-13.421,27.648-29.896,27.648H111.225c-16.489,0-29.894-12.402-29.894-27.648V67.058
		c0-15.248,13.405-27.652,29.894-27.652h418.877c16.476,0,29.896,12.404,29.896,27.652V733.34z"/>
	
		<linearGradient id="SVGID_00000112626153064019498480000007816015748852812421_" gradientUnits="userSpaceOnUse" x1="191.3199" y1="1003.5822" x2="876.743" y2="-60.2106">
		<stop  offset="0.0699" style="stop-color:#F6F6F6"/>
		<stop  offset="0.3172" style="stop-color:#FFFFFF"/>
		<stop  offset="1" style="stop-color:#EEEEEE"/>
	</linearGradient>
	<path style="fill:url(#SVGID_00000112626153064019498480000007816015748852812421_);" d="M320.662,773.257
		c-16.338,0-29.581,13.245-29.581,29.587c0,16.332,13.244,29.576,29.581,29.576c16.337,0,29.582-13.244,29.582-29.576
		C350.244,786.502,336.999,773.257,320.662,773.257z"/>
</g>
<path style="fill:#8AB9E8;" d="M111.225,760.731h418.877c16.476,0,30.579-12.146,30.579-27.392V67.058
	c0-15.248-14.104-28.052-30.579-28.052H111.225c-16.489,0-29.742,12.805-29.742,28.052V733.34
	C81.482,748.586,94.736,760.731,111.225,760.731z"/>
<g>
	<defs>
		<filter id="Adobe_OpacityMaskFilter" filterUnits="userSpaceOnUse" x="99.205" y="29.132" width="439.42" height="18.128">
			<feFlood  style="flood-color:white;flood-opacity:1" result="back"/>
			<feBlend  in="SourceGraphic" in2="back" mode="normal"/>
		</filter>
	</defs>
	
		<mask maskUnits="userSpaceOnUse" x="99.205" y="29.132" width="439.42" height="18.128" id="SVGID_00000174574579076914161610000006376585736504644523_">
		<g style="filter:url(#Adobe_OpacityMaskFilter);">
			<defs>
				
					<filter id="Adobe_OpacityMaskFilter_00000049200396227522168630000008436807268700263061_" filterUnits="userSpaceOnUse" x="99.205" y="29.132" width="439.42" height="18.128">
					<feFlood  style="flood-color:white;flood-opacity:1" result="back"/>
					<feBlend  in="SourceGraphic" in2="back" mode="normal"/>
				</filter>
			</defs>
			
				<mask maskUnits="userSpaceOnUse" x="99.205" y="29.132" width="439.42" height="18.128" id="SVGID_00000174574579076914161610000006376585736504644523_">
				<g style="filter:url(#Adobe_OpacityMaskFilter_00000049200396227522168630000008436807268700263061_);">
				</g>
			</mask>
			
				<radialGradient id="SVGID_00000167397969897165671940000008981740450771085973_" cx="-9359.9482" cy="504.5891" r="180.1713" gradientTransform="matrix(3.000000e-04 0.05 -1.2206 0.0051 937.6243 503.6208)" gradientUnits="userSpaceOnUse">
				<stop  offset="0" style="stop-color:#FFFFFF"/>
				<stop  offset="0.0646" style="stop-color:#E2E2E2"/>
				<stop  offset="0.211" style="stop-color:#A7A7A7"/>
				<stop  offset="0.3571" style="stop-color:#747474"/>
				<stop  offset="0.4994" style="stop-color:#4A4A4A"/>
				<stop  offset="0.6372" style="stop-color:#2A2A2A"/>
				<stop  offset="0.7692" style="stop-color:#131313"/>
				<stop  offset="0.8929" style="stop-color:#050505"/>
				<stop  offset="1" style="stop-color:#000000"/>
			</radialGradient>
			
				<path style="mask:url(#SVGID_00000174574579076914161610000006376585736504644523_);fill:url(#SVGID_00000167397969897165671940000008981740450771085973_);" d="
				M318.948,47.214c-121.335,0.505-219.724-3.125-219.744-8.104c-0.021-4.98,98.33-9.428,219.67-9.93
				c121.342-0.507,219.726,3.124,219.75,8.104C538.646,42.264,440.288,46.71,318.948,47.214z"/>
		</g>
	</mask>
	
		<radialGradient id="SVGID_00000081610880680467864010000011832459895985686676_" cx="-9359.9482" cy="504.5891" r="180.1713" gradientTransform="matrix(3.000000e-04 0.05 -1.2206 0.0051 937.6243 503.6208)" gradientUnits="userSpaceOnUse">
		<stop  offset="0" style="stop-color:#F5F5F5"/>
		<stop  offset="0.3469" style="stop-color:#FAFAFA"/>
		<stop  offset="1" style="stop-color:#FFFFFF"/>
	</radialGradient>
	<path style="opacity:0.9;fill:url(#SVGID_00000081610880680467864010000011832459895985686676_);" d="M318.948,47.214
		c-121.335,0.505-219.724-3.125-219.744-8.104c-0.021-4.98,98.33-9.428,219.67-9.93c121.342-0.507,219.726,3.124,219.75,8.104
		C538.646,42.264,440.288,46.71,318.948,47.214z"/>
</g>
<g>
	<defs>
		
			<filter id="Adobe_OpacityMaskFilter_00000093139504784685283770000017259543550501238934_" filterUnits="userSpaceOnUse" x="99.205" y="751.668" width="439.42" height="18.127">
			<feFlood  style="flood-color:white;flood-opacity:1" result="back"/>
			<feBlend  in="SourceGraphic" in2="back" mode="normal"/>
		</filter>
	</defs>
	
		<mask maskUnits="userSpaceOnUse" x="99.205" y="751.668" width="439.42" height="18.127" id="SVGID_00000031900633997262487200000001283907704596730807_">
		<g style="filter:url(#Adobe_OpacityMaskFilter_00000093139504784685283770000017259543550501238934_);">
			<defs>
				
					<filter id="Adobe_OpacityMaskFilter_00000109027705065515995990000012632193440171550361_" filterUnits="userSpaceOnUse" x="99.205" y="751.668" width="439.42" height="18.127">
					<feFlood  style="flood-color:white;flood-opacity:1" result="back"/>
					<feBlend  in="SourceGraphic" in2="back" mode="normal"/>
				</filter>
			</defs>
			
				<mask maskUnits="userSpaceOnUse" x="99.205" y="751.668" width="439.42" height="18.127" id="SVGID_00000031900633997262487200000001283907704596730807_">
				<g style="filter:url(#Adobe_OpacityMaskFilter_00000109027705065515995990000012632193440171550361_);">
				</g>
			</mask>
			
				<radialGradient id="SVGID_00000000903974430122499320000009433540887951623075_" cx="5090.4014" cy="508.1408" r="180.1663" gradientTransform="matrix(3.000000e-04 0.05 -1.2206 0.0051 937.6243 503.6208)" gradientUnits="userSpaceOnUse">
				<stop  offset="0" style="stop-color:#FFFFFF"/>
				<stop  offset="0.0646" style="stop-color:#E2E2E2"/>
				<stop  offset="0.211" style="stop-color:#A7A7A7"/>
				<stop  offset="0.3571" style="stop-color:#747474"/>
				<stop  offset="0.4994" style="stop-color:#4A4A4A"/>
				<stop  offset="0.6372" style="stop-color:#2A2A2A"/>
				<stop  offset="0.7692" style="stop-color:#131313"/>
				<stop  offset="0.8929" style="stop-color:#050505"/>
				<stop  offset="1" style="stop-color:#000000"/>
			</radialGradient>
			
				<path style="mask:url(#SVGID_00000031900633997262487200000001283907704596730807_);fill:url(#SVGID_00000000903974430122499320000009433540887951623075_);" d="
				M318.948,769.749c-121.335,0.505-219.724-3.125-219.744-8.105c-0.021-4.979,98.33-9.428,219.67-9.929
				c121.342-0.508,219.726,3.123,219.75,8.103C538.646,764.798,440.288,769.244,318.948,769.749z"/>
		</g>
	</mask>
	
		<radialGradient id="SVGID_00000015350823926672673090000011219173456823861930_" cx="5090.4014" cy="508.1408" r="180.1663" gradientTransform="matrix(3.000000e-04 0.05 -1.2206 0.0051 937.6243 503.6208)" gradientUnits="userSpaceOnUse">
		<stop  offset="0" style="stop-color:#F5F5F5"/>
		<stop  offset="0.3469" style="stop-color:#FAFAFA"/>
		<stop  offset="1" style="stop-color:#FFFFFF"/>
	</radialGradient>
	<path style="opacity:0.9;fill:url(#SVGID_00000015350823926672673090000011219173456823861930_);" d="M318.948,769.749
		c-121.335,0.505-219.724-3.125-219.744-8.105c-0.021-4.979,98.33-9.428,219.67-9.929c121.342-0.508,219.726,3.123,219.75,8.103
		C538.646,764.798,440.288,769.244,318.948,769.749z"/>
</g>
<g>
	<defs>
		
			<filter id="Adobe_OpacityMaskFilter_00000173155385821646499240000008162063167779786144_" filterUnits="userSpaceOnUse" x="541.833" y="91.56" width="35.988" height="663.002">
			<feFlood  style="flood-color:white;flood-opacity:1" result="back"/>
			<feBlend  in="SourceGraphic" in2="back" mode="normal"/>
		</filter>
	</defs>
	
		<mask maskUnits="userSpaceOnUse" x="541.833" y="91.56" width="35.988" height="663.002" id="SVGID_00000102527770535731207710000012309447418645427114_">
		<g style="filter:url(#Adobe_OpacityMaskFilter_00000173155385821646499240000008162063167779786144_);">
			<defs>
				
					<filter id="Adobe_OpacityMaskFilter_00000044150692001102107050000003125558136659694479_" filterUnits="userSpaceOnUse" x="541.833" y="91.56" width="35.988" height="663.002">
					<feFlood  style="flood-color:white;flood-opacity:1" result="back"/>
					<feBlend  in="SourceGraphic" in2="back" mode="normal"/>
				</filter>
			</defs>
			
				<mask maskUnits="userSpaceOnUse" x="541.833" y="91.56" width="35.988" height="663.002" id="SVGID_00000102527770535731207710000012309447418645427114_">
				<g style="filter:url(#Adobe_OpacityMaskFilter_00000044150692001102107050000003125558136659694479_);">
				</g>
			</mask>
			
				<radialGradient id="SVGID_00000123434312920640172060000018188863727866320259_" cx="-4768.7637" cy="300.8586" r="115.6822" gradientTransform="matrix(-0.155 8.000000e-04 -0.0121 -2.867 -175.6918 1289.4373)" gradientUnits="userSpaceOnUse">
				<stop  offset="0" style="stop-color:#FFFFFF"/>
				<stop  offset="0.0646" style="stop-color:#E2E2E2"/>
				<stop  offset="0.211" style="stop-color:#A7A7A7"/>
				<stop  offset="0.3571" style="stop-color:#747474"/>
				<stop  offset="0.4994" style="stop-color:#4A4A4A"/>
				<stop  offset="0.6372" style="stop-color:#2A2A2A"/>
				<stop  offset="0.7692" style="stop-color:#131313"/>
				<stop  offset="0.8929" style="stop-color:#050505"/>
				<stop  offset="1" style="stop-color:#000000"/>
			</radialGradient>
			
				<path style="mask:url(#SVGID_00000102527770535731207710000012309447418645427114_);fill:url(#SVGID_00000123434312920640172060000018188863727866320259_);" d="
				M541.887,423.127c-0.763-183.072,6.654-331.532,16.565-331.567c9.906-0.041,18.562,148.342,19.314,331.423
				c0.769,183.08-6.652,331.529-16.561,331.579C551.296,754.602,542.648,606.21,541.887,423.127z"/>
		</g>
	</mask>
	
		<radialGradient id="SVGID_00000009573770712623288660000005415836356115959194_" cx="-4768.7637" cy="300.8586" r="115.6822" gradientTransform="matrix(-0.155 8.000000e-04 -0.0121 -2.867 -175.6918 1289.4373)" gradientUnits="userSpaceOnUse">
		<stop  offset="0" style="stop-color:#F5F5F5"/>
		<stop  offset="0.3469" style="stop-color:#FAFAFA"/>
		<stop  offset="1" style="stop-color:#FFFFFF"/>
	</radialGradient>
	<path style="opacity:0.9;fill:url(#SVGID_00000009573770712623288660000005415836356115959194_);" d="M541.887,423.127
		c-0.763-183.072,6.654-331.532,16.565-331.567c9.906-0.041,18.562,148.342,19.314,331.423
		c0.769,183.08-6.652,331.529-16.561,331.579C551.296,754.602,542.648,606.21,541.887,423.127z"/>
</g>
<g>
	<defs>
		
			<filter id="Adobe_OpacityMaskFilter_00000106853428824027141260000013906004706304586411_" filterUnits="userSpaceOnUse" x="63.423" y="91.56" width="35.988" height="663.002">
			<feFlood  style="flood-color:white;flood-opacity:1" result="back"/>
			<feBlend  in="SourceGraphic" in2="back" mode="normal"/>
		</filter>
	</defs>
	
		<mask maskUnits="userSpaceOnUse" x="63.423" y="91.56" width="35.988" height="663.002" id="SVGID_00000074419146826378216380000016043263525049301665_">
		<g style="filter:url(#Adobe_OpacityMaskFilter_00000106853428824027141260000013906004706304586411_);">
			<defs>
				
					<filter id="Adobe_OpacityMaskFilter_00000003812149539149276290000008057775429861449656_" filterUnits="userSpaceOnUse" x="63.423" y="91.56" width="35.988" height="663.002">
					<feFlood  style="flood-color:white;flood-opacity:1" result="back"/>
					<feBlend  in="SourceGraphic" in2="back" mode="normal"/>
				</filter>
			</defs>
			
				<mask maskUnits="userSpaceOnUse" x="63.423" y="91.56" width="35.988" height="663.002" id="SVGID_00000074419146826378216380000016043263525049301665_">
				<g style="filter:url(#Adobe_OpacityMaskFilter_00000003812149539149276290000008057775429861449656_);">
				</g>
			</mask>
			
				<radialGradient id="SVGID_00000078739740626260389860000015724306151959761539_" cx="-1682.3142" cy="301.7199" r="115.6822" gradientTransform="matrix(-0.155 8.000000e-04 -0.0121 -2.867 -175.6918 1289.4373)" gradientUnits="userSpaceOnUse">
				<stop  offset="0" style="stop-color:#FFFFFF"/>
				<stop  offset="0.0646" style="stop-color:#E2E2E2"/>
				<stop  offset="0.211" style="stop-color:#A7A7A7"/>
				<stop  offset="0.3571" style="stop-color:#747474"/>
				<stop  offset="0.4994" style="stop-color:#4A4A4A"/>
				<stop  offset="0.6372" style="stop-color:#2A2A2A"/>
				<stop  offset="0.7692" style="stop-color:#131313"/>
				<stop  offset="0.8929" style="stop-color:#050505"/>
				<stop  offset="1" style="stop-color:#000000"/>
			</radialGradient>
			
				<path style="mask:url(#SVGID_00000074419146826378216380000016043263525049301665_);fill:url(#SVGID_00000078739740626260389860000015724306151959761539_);" d="
				M63.477,423.127C62.713,240.055,70.13,91.595,80.04,91.56c9.908-0.041,18.561,148.342,19.315,331.423
				c0.769,183.08-6.653,331.529-16.561,331.579C72.886,754.602,64.237,606.21,63.477,423.127z"/>
		</g>
	</mask>
	
		<radialGradient id="SVGID_00000027562230918844638890000002910309500136527275_" cx="-1682.3142" cy="301.7199" r="115.6822" gradientTransform="matrix(-0.155 8.000000e-04 -0.0121 -2.867 -175.6918 1289.4373)" gradientUnits="userSpaceOnUse">
		<stop  offset="0" style="stop-color:#F5F5F5"/>
		<stop  offset="0.3469" style="stop-color:#FAFAFA"/>
		<stop  offset="1" style="stop-color:#FFFFFF"/>
	</radialGradient>
	<path style="opacity:0.9;fill:url(#SVGID_00000027562230918844638890000002910309500136527275_);" d="M63.477,423.127
		C62.713,240.055,70.13,91.595,80.04,91.56c9.908-0.041,18.561,148.342,19.315,331.423c0.769,183.08-6.653,331.529-16.561,331.579
		C72.886,754.602,64.237,606.21,63.477,423.127z"/>
</g>
<path style="opacity:0.2;fill:#FFFFFF;" d="M111.225,39.005c-16.489,0-29.742,12.805-29.742,28.052V733.34
	c0,15.246,13.253,27.392,29.742,27.392h82.486L342.759,39.005H111.225z"/>
</svg>
