<?xml version="1.0" encoding="utf-8"?>
<!-- Generator: Adobe Illustrator 27.5.0, SVG Export Plug-In . SVG Version: 6.00 Build 0)  -->
<svg version="1.1" id="Layer_1" xmlns="http://www.w3.org/2000/svg" xmlns:xlink="http://www.w3.org/1999/xlink" x="0px" y="0px"
	 viewBox="0 0 2556 2000" style="enable-background:new 0 0 2556 2000;" xml:space="preserve">
<g>
	<rect x="-0.001" y="0.001" style="fill:#FFFFFF;" width="2556" height="2000"/>
	<path style="fill:#C7E6FF;" d="M2179.736,1885.501c159.065-209.106,254.244-474.708,254.244-763.786
		c0-674.117-430.459-1022.301-1155.98-1022.301c-693.526,0-1155.981,348.184-1155.981,1022.301
		c0,289.078,95.179,554.68,254.244,763.786H2179.736z"/>
	<g>
		<path style="fill:#215E4B;" d="M489.202,1754.566h4.546c1.498-15.303,4.442-32.209,9.682-49.897
			c19.819-66.888,11.148-75.542,44.592-117.355c33.444-41.813,35.921-128.521,35.921-128.521s16.103-98.475,0-141.827
			c-16.102-43.354-17.341-86.707-56.359-132.538c0,0-7.432,61.313-16.722,89.184c-9.29,27.87-18.112,54.502-11.224,121.391
			c6.888,66.888,11.167,72.462,12.744,89.803c1.577,17.342-0.901,90.441,2.815,102.509c3.716,12.068-21.677,95.679-23.535,131.601
			C491.105,1729.708,490.1,1742.013,489.202,1754.566z"/>
		<path style="fill:#3C8F7C;" d="M503.447,1754.566c6.452-14.886,17.811-29.678,37.699-38.557
			c52.024-23.225,87.12-22.709,111.273-78.449c24.154-55.74,24.154-131.918,32.516-147.712c0,0-22.296-3.716-44.592,36.231
			c-22.296,39.947-37.42,69.676-50.296,92.9c-12.876,23.226-31.456,16.723-47.249,34.373
			c-13.236,14.793-25.458,49.207-30.101,66.669c-1.508,5.674-3.701,11.138-6.595,16.245c-2.632,4.645-5.729,10.296-7.587,14.321
			c-0.413,0.896-0.824,2.262-1.227,3.978H503.447z"/>
		<path style="fill:#215E4B;" d="M356.648,1490.379c-3.716,47.689,26.631,43.974,27.87,74.32
			c1.238,30.348,40.876,81.753,59.239,118.293c9.551,19.006,13.078,48.061,14.264,71.573h14.754
			c-5.707-59.508-29.852-100.93-44.285-134.126c-18.58-42.733-21.367-62.244-5.574-95.688s-7.432-119.841,15.051-158.358
			c22.483-38.519,10.961-98.976,5.79-122.2c-5.171-23.226,0.526-39.019,5.171-63.504c4.645-24.486-5.171-60.054-5.171-60.054
			c-0.836,30.348-23.938,71.843-40.66,98.475c-16.722,26.631-48.308,99.093-44.592,131.919c3.716,32.824,1.858,35.302,1.858,35.302
			C348.597,1430.304,360.364,1442.691,356.648,1490.379z"/>
		<path style="fill:#3C8F7C;" d="M445.172,1715.814c1.898,5.693,7.98,20.229,13.547,38.751h9.048
			c-4.116-23.579-11.222-50.939-23.214-66.621c-24.154-31.586-72.462-45.212-78.036-68.127
			c-5.574-22.916,0.619-91.663-34.683-130.06c0,0,4.955,42.75,0,54.2c-4.955,11.449-47.069,64.712-22.296,109.304
			c24.773,44.593,80.514,39.019,97.855,48.928S442.076,1706.525,445.172,1715.814z"/>
		<path style="fill:#3C8F7C;" d="M422.876,1510.156c-0.619,45.83,35.302,63.173,34.683,88.564
			c-0.62,25.393,7.432,52.645,14.245,73.083c4.313,12.938,1.925,48.956,1.162,82.762h9.968c2.51-24.842,5.261-60.684,4.353-76.569
			c-1.238-21.677,8.671-39.017,9.91-76.797c1.239-37.78,9.29-71.844-7.432-119.532c-16.722-47.688-13.625-104.668-83.61-157.311
			c0,0-12.387,55.74-3.096,86.087C412.348,1440.791,423.496,1464.326,422.876,1510.156z"/>
		<path style="fill:#9BC1F9;" d="M493.777,1715.455h-6.685H397.85c-6.559,0-11.397,6.137-9.881,12.531l34.968,147.457
			c1.088,4.586,5.177,7.824,9.881,7.824h54.273h6.685h54.273c4.705,0,8.794-3.238,9.881-7.824l34.968-147.457
			c1.517-6.395-3.323-12.531-9.881-12.531H493.777z"/>
	</g>
	<g>
		<rect x="935.384" y="1628.628" style="fill:#86B1F2;" width="15.763" height="230.524"/>
		<g>
			<path style="fill:#F7A491;" d="M1174.938,1800.192c0,0,3.447,35.98,1.181,47.714c-0.304,1.571-0.972,3.561-1.75,5.753
				c-2.335,6.577,4.062,26.665,4.062,26.665l85.777,0.303c4.672,0.017,1.548-2.814-2.253-5.412
				c-6.221-4.252-11.233-7.052-31.045-15.906c-1.292-0.577-6.005-3.358-7.705-4.322c-4.308-2.44-8.653-6.309-12.401-10.191
				c-6.243-6.468-7.192-38.178-7.192-38.178L1174.938,1800.192z"/>
			<path style="fill:#F7CC7F;" d="M1223.192,1854.98c-22.609,5.82-39.423,2.245-48.849-1.252
				c-2.334,6.567-6.725,28.775-4.106,28.775c21.511,0,39.715,3.892,101.347,2.964c2.206-0.033,1.938-7.279,0.499-8.878
				C1268.107,1872.173,1224.896,1855.945,1223.192,1854.98z"/>
			<path style="fill:#F7A491;" d="M1272.024,1740.529c0,0,18.761,31.367,21.794,42.942c0.406,1.549,0.662,3.624,0.906,5.928
				c0.732,6.911,15.274,22.648,15.274,22.648l78.169-33.761c4.258-1.838,0.187-3.174-4.398-4.029
				c-7.508-1.399-13.283-1.958-35.152-2.152c-1.426-0.013-6.922-0.673-8.887-0.875c-4.979-0.511-10.612-2.307-15.708-4.352
				c-8.487-3.407-23.122-31.88-23.122-31.88L1272.024,1740.529z"/>
			<path style="fill:#F7CC7F;" d="M1339.717,1771.229c-18.041,14.266-34.891,17.685-44.984,18.243
				c0.729,6.901,6.377,28.848,8.76,27.809c19.57-8.535,37.822-12.218,93.49-37.517c1.992-0.905-1.398-7.391-3.402-8.274
				C1388.046,1769.05,1341.686,1771.433,1339.717,1771.229z"/>
			<path style="fill:#F47458;" d="M1005.227,1472.668v18.49l181.848,36.557l45.136,129.603l-25.152-16.415l5.809,199.571
				l-38.251,0.255c0,0-66.274-167.442-44.535-251.653l-201.265,2.943c0,0-91.215-33.669-44.149-135.19L1005.227,1472.668z"/>
			<path style="fill:#B75742;" d="M1005.227,1491.158c0,0,188.643,1.209,202.039,11.07
				c13.396,9.862,113.927,254.938,113.927,254.938l-43.847,15.653c0,0-87.231-139.036-91.848-148.955s-38.402-82.42-51.298-89.816
				C1121.305,1526.651,1005.227,1491.158,1005.227,1491.158z"/>
		</g>
		<path style="fill:#86B1F2;" d="M859.802,1869.432h156.627c7.214,0,13.062,5.848,13.062,13.063l0,0
			c0,1.262-1.022,2.283-2.284,2.283H849.023c-1.261,0-2.284-1.022-2.284-2.283l0,0
			C846.74,1875.279,852.588,1869.432,859.802,1869.432z"/>
		<path style="fill:#86B1F2;" d="M930.354,1859.152h19.187c5.676,0,10.277,4.603,10.277,10.279l0,0
			c0,5.677-4.601,10.278-10.278,10.278h-19.186c-5.677,0-10.278-4.602-10.278-10.278l0,0
			C920.076,1863.755,924.678,1859.152,930.354,1859.152z"/>
		<path style="fill:#13375B;" d="M1018.578,1163.4c0.852-20.522-2.171-40.79-11.353-59.897c-7.9-16.44-27.448-25.768-45.274-25.791
			c-56.606-0.073-63.804,74.717-99.836,103.565c-11.01,8.815-23.316,15.995-33.735,25.5
			c-38.469,35.104-21.141,100.082,14.183,130.856c24.513,21.354,63.039,33.488,93.251,16.794
			c15.771-8.714,27.743-23.2,36.272-39.071c12.106-22.525,19.908-48.516,28.519-72.522
			C1009.767,1217.281,1017.446,1190.681,1018.578,1163.4z"/>
		<path style="fill:#F48C7F;" d="M1174.738,1378.445l-123.177-34.342c0,0-25.953-34.861-59.34-81.625
			c-10.917,10.805-16.983,27.404-27.977,38.104l81.537,90.188c2.941,3.254,7.117,5.116,11.501,5.131l113.194,0.376l38.735,3.087
			v-24.791L1174.738,1378.445z"/>
		<path style="fill:#96D9C9;" d="M997.408,1352.301c0,0-42.275-43.348-53.154-62.182c-10.878-18.832,7.408-6.571,26.087-11.526
			c7.074-1.876,5.284-43.327,18.655-29.854c21.938,22.107,49.518,60.76,49.518,60.76L997.408,1352.301z"/>
		<path style="fill:#50BFA5;" d="M937.303,1229.724c0,0-37.939-7.489-55.252,6.974c-17.313,14.466,3.709,143.067,3.691,164.387
			c-0.018,21.318-11.888,81.552-11.888,81.552s114.989,20.127,133.254-11.877c0,0,5.197-121.931,4.423-137.264
			c-0.773-15.333-17.822-78.041-22.535-84.757C984.284,1242.025,937.303,1229.724,937.303,1229.724z"/>
		<path style="fill:#F7A491;" d="M937.065,1171.037c0,0-0.2,1.135-0.558,3.064c-1.721,9.26-8.347,39.979-12.824,48.424
			c-5.41,10.205,18.521,42.754,41.553,38.782c6.856-1.183-5.795-29.907-5.188-32.949c1.164-5.825,2.742-13.771,4.357-21.918
			c0.911-4.596,1.833-9.256,2.7-13.636c2.463-12.446,4.473-22.626,4.473-22.626L937.065,1171.037z"/>
		<path style="fill:#F47458;" d="M936.506,1174.102c0.358-1.93,0.558-3.064,0.558-3.064l34.514-0.858c0,0-2.01,10.18-4.473,22.626
			c-0.862,4.355-1.779,8.988-2.685,13.56c-5.328-0.783-10.896-3.368-16.479-8.245c-6.086-5.317-10.075-11.706-12.482-18.527
			C935.885,1177.414,936.24,1175.538,936.506,1174.102z"/>
		<path style="fill:#F7A491;" d="M960.294,1092.745c0,0-16.268-1.876-26.464,11.286c-10.197,13.162-21.188,53.864,4.144,75.994
			c25.331,22.129,50.358-2.92,54.07-29.479C995.754,1123.986,997.196,1091.786,960.294,1092.745z"/>
		<path style="fill:#F7A491;" d="M999.537,1150.154c-3.023,5.865-8.099,9.113-11.336,7.255c-3.236-1.859-3.41-8.122-0.386-13.989
			c3.023-5.864,8.099-9.112,11.335-7.253C1002.387,1138.025,1002.56,1144.287,999.537,1150.154z"/>
		<path style="fill:#13375B;" d="M962.114,1088.394c0,0-21.733,38.706-37.281,40.495c-15.547,1.788-17.589,22.355-17.589,22.355
			s5.559-47.393,20.95-56.531C943.586,1085.572,962.114,1088.394,962.114,1088.394z"/>
		<path style="fill:#F7A491;" d="M928.91,1138.613c1.265,6.875-1.278,13.179-5.68,14.08c-4.401,0.902-8.995-3.938-10.259-10.813
			c-1.264-6.873,1.279-13.178,5.68-14.079C923.053,1126.9,927.646,1131.741,928.91,1138.613z"/>
		<path style="fill:#F7A491;" d="M1106.564,1374.316l-106.799-23.628c0,0-38.624-49.627-75.717-92.34
			c-10.917,10.804-16.983,27.405-27.977,38.103l81.537,90.189c2.941,3.253,7.117,5.115,11.501,5.129l113.194,0.377l38.735,3.087
			v-24.79L1106.564,1374.316z"/>
		<path style="fill:#96D9C9;" d="M929.234,1348.171c0,0-42.274-43.349-53.153-62.18c-10.879-18.833-2.81-50.385,15.869-55.34
			c18.679-4.956,78.391,74.717,78.391,74.717L929.234,1348.171z"/>
		<g>
			<path style="fill:#B75742;" d="M1325.973,1252.743h-176.137c-4.66,0-8.858,2.816-10.626,7.128l-54.235,132.275H987.87
				c-2.716,0-4.917,2.2-4.917,4.913l0,0c0,2.713,2.201,4.913,4.917,4.913h276.371c7.598,0,14.489-4.46,17.601-11.392l54.609-121.649
				C1339.862,1261.333,1334.303,1252.743,1325.973,1252.743z"/>
			<path style="fill:#FFFFFF;" d="M1231.141,1329.769c-1.189,5.941-6.372,9.914-11.576,8.874c-5.203-1.04-8.456-6.7-7.267-12.642
				c1.19-5.941,6.372-9.914,11.575-8.874C1229.077,1318.167,1232.331,1323.827,1231.141,1329.769z"/>
		</g>
		<path style="fill:#FFFFFF;" d="M970.083,1165.4l-23.865-1.235c0,0,0.081,9.093,10.56,9.939
			C969.556,1175.137,970.083,1165.4,970.083,1165.4z"/>
		<path style="fill:#355389;" d="M1044.743,1602.093l-10.777-44.862c-7.536-31.377-35.321-54.204-67.566-55.507l-136.499-5.518
			l-4.213-13.896l141.265,5.71c38.346,1.551,71.386,28.695,80.348,66.008l11.452,47.67
			C1054.876,1601.863,1050.146,1601.993,1044.743,1602.093z"/>
		<path style="fill:#F7CC7F;" d="M861.653,1578.197c0,0,187.535,3.211,207.086,0c19.551-3.209,28.014,21.303,22.178,34.143
			c-5.836,12.84-21.886,17.8-45.522,18.968c-23.636,1.167-220.314,6.711-225.859,1.459c-4.528-4.291-64.152-208.13-85.846-282.674
			c-4.336-14.898,4.215-30.468,19.104-34.838l0,0c14.82-4.349,30.376,4.059,34.857,18.839L861.653,1578.197z"/>
		<g>
			<path style="fill:#13375B;" d="M968.285,1431.504h750.412c8.154,0,14.766-6.61,14.766-14.766l0,0
				c0-8.155-6.611-14.766-14.766-14.766H968.285c-8.155,0-14.766,6.61-14.766,14.766l0,0
				C953.519,1424.894,960.13,1431.504,968.285,1431.504z"/>
			<polygon style="fill:#13375B;" points="1140.987,1884.777 1162.004,1884.777 1116.72,1431.504 1095.703,1431.504 			"/>
			<polygon style="fill:#13375B;" points="962.401,1884.777 941.384,1884.777 986.669,1431.504 1007.686,1431.504 			"/>
			<polygon style="fill:#13375B;" points="1712.444,1884.777 1733.463,1884.777 1688.178,1431.504 1667.16,1431.504 			"/>
			<polygon style="fill:#13375B;" points="1533.859,1884.777 1512.842,1884.777 1558.126,1431.504 1579.144,1431.504 			"/>
		</g>
	</g>
	<path style="fill:#3C8F7C;" d="M2348.717,1889.001H314.022c-2.313,0-4.187-1.875-4.187-4.188l0,0c0-2.313,1.874-4.187,4.187-4.187
		h2034.694c2.313,0,4.186,1.874,4.186,4.187l0,0C2352.902,1887.126,2351.029,1889.001,2348.717,1889.001z"/>
	<g>
		<path style="fill:#3C8F7C;" d="M2067.618,1585.888c-1.552-13.702-3.395-27.717-9.755-39.945
			c-7.733-14.87-21.319-25.598-33.188-37.415c-22.18-22.08-39.247-49.284-49.491-78.884c-7.921-22.888-11.869-47.272-22.785-68.888
			c-6.665-13.197-15.755-24.997-23.326-37.694c-17.895-30.013-27.634-65.483-51.899-90.604c-4.67,30.457,4.559,62.777,24.599,86.15
			c5.976,6.97,12.907,13.253,17.46,21.23c8.265,14.481,7.513,32.148,8.48,48.802c1.82,31.299,10.641,62.17,25.627,89.69
			c15.921,29.235,38.9,55.27,47.412,87.463c6.379,24.125,4.483,51.187,18.083,72.096c1.473,2.265,3.16,4.541,3.521,7.221
			c0.203,1.506-0.033,3.033-0.268,4.533c-0.305,1.943-0.609,3.884-0.913,5.827c-3.095,19.745-6.291,44.87,10.676,59.647
			c11.76,10.242,26.894,10.47,35.34-3.133c8.503-13.699,7.749-33.747,7.118-49.163
			C2073.257,1637.151,2070.508,1611.406,2067.618,1585.888z"/>
		<path style="fill:#327F6B;" d="M2098.18,1570.006c-6.602-22.856-16.847-44.626-21.981-67.858
			c-4.98-22.534-5.019-45.831-5.035-68.911c-0.019-25.291-0.036-50.582-0.054-75.872c-0.012-15.745-0.029-31.575-2.631-47.104
			c-5.599-33.409-22.963-64.302-25.904-98.052c-1.271-14.594,0.205-29.345-1.399-43.905c-0.917-8.318-3.052-16.811-6.901-24.19
			c-4.142-7.937-15.582-7.586-19.334,0.543c-8.436,18.273-13.784,38.026-10.377,57.606c2.045,11.744,7.131,22.698,10.93,33.996
			c16.912,50.312,7.934,106.006,21.021,157.451c3.95,15.527,9.923,30.757,10.618,46.767c1.662,38.318-26.956,73.32-24.331,111.584
			c2.152,31.372,24.708,57.335,34.175,87.315c5.3,16.784,6.434,34.699,12.112,51.358c4.411,12.943,14.669,28.661,30.604,24.733
			c15.127-3.729,10.557-16.078,9.881-27.872C2107.286,1647.695,2109.438,1608.984,2098.18,1570.006z"/>
		<path style="fill:#3C8F7C;" d="M2132.806,1590.951c-0.666-11.877-2.671-23.819-1.01-35.598c1.403-9.947,5.362-19.322,8.189-28.96
			c5.299-18.061,6.612-37.018,7.896-55.799c2.333-34.14,4.666-68.28,6.998-102.421c3.626-53.068,7.271-106.289,17.193-158.545
			c2.755-14.51,5.849-30.229-0.673-43.475c-1.374-2.793-4.079-5.754-7.044-4.824c-2.112,0.662-3.148,2.988-3.914,5.069
			c-21.689,58.945-29.889,122.408-54.099,180.359c-5.799,13.883-12.545,27.541-15.548,42.287
			c-3.604,17.707-1.625,35.997-1.159,54.063c0.667,25.91-1.855,52.016-9.01,76.923c-3.743,13.032-8.755,25.77-10.807,39.172
			c-2.558,16.715-0.41,33.738,1.19,50.571c3.078,32.359,4.121,64.914,3.121,97.406c-0.588,19.101,15.537,18.601,26.219,6.865
			c7.47-8.207,7.4-17.217,9.959-27.434C2118.706,1653.072,2134.844,1627.316,2132.806,1590.951z"/>
		<path style="fill:#327F6B;" d="M2032.063,1642.749c-14.259-22.91-42.664-35.935-51.776-61.345
			c-2.319-6.465-3.225-13.419-6.059-19.677c-6.293-13.895-20.598-21.749-34.662-28.143c-1.953-0.888-4.173,0.526-4.202,2.676l0,0
			c-0.047,3.417,1.573,6.677,4.403,8.582c10.834,7.294,19.068,18.443,22.734,31.008c4.344,14.891,2.459,31.216,7.859,45.756
			c4.532,12.207,13.865,22.185,18.248,34.446c4.008,11.209,3.586,23.455,5.471,35.21c1.884,11.756,7.105,24.23,17.899,29.204
			C2051.036,1738.464,2041.274,1657.55,2032.063,1642.749z"/>
		<path style="fill:#3C8F7C;" d="M2194.508,1635.188c-0.608,11.076,1.085,22.688-3.249,32.896
			c-2.772,6.529-7.761,11.811-11.855,17.602c-14.377,20.336-19.591,49.149-41.683,60.598c-1.457,0.756-3.083,1.432-4.696,1.131
			c-2.265-0.422-3.748-2.604-4.657-4.724c-5.416-12.618,0.661-26.834,4.26-40.088c0.629-2.319,1.157-4.905,0.053-7.037
			c-1.217-2.346-3.989-3.363-5.882-5.204c-3.774-3.671-3.419-9.745-2.669-14.963c1.872-13.035,4.505-25.961,7.879-38.688
			c1.914-7.218,4.124-14.497,8.282-20.694c4.578-6.822,11.227-11.914,17.45-17.269c27.508-23.664,48.58-54.769,60.374-89.122
			c2.554-7.437,4.83-15.288,10.104-21.112c5.274-5.824,14.676-8.822,21.099-4.303c4.57,3.216-14.149,33.326-16.331,36.936
			c-6.236,10.317-6.319,19.296-9.845,30.754C2214.504,1579.978,2196.16,1605.106,2194.508,1635.188z"/>
		<path style="fill:#327F6B;" d="M2172.734,1647.996c4.086-10.566,8.207-21.271,9.554-32.521
			c1.497-12.508-0.489-25.299,1.647-37.713c2.746-15.959,12.053-29.997,16.658-45.52c3.326-11.211,4.144-22.989,6.142-34.512
			c5.714-32.949,21.205-65.146,16.759-98.291c-0.967-7.21-4.221-15.613-11.376-16.843c-6.478-1.113-12.375,4.81-14.059,11.175
			c-1.685,6.364-0.428,13.079,0.034,19.647c1.29,18.318-3.936,37.032-14.528,52.019c-10.176,14.399-24.94,25.241-34.099,40.312
			c-11.232,18.485-12.761,41.051-18.492,61.918c-11.398,41.496-39.986,77.696-45.199,120.418c-2.073,17,1.917,37.664,17.605,44.455
			C2148.758,1752.183,2162.456,1674.579,2172.734,1647.996z"/>
		<path style="fill:#9BC1F9;" d="M2093.41,1700.661h-7.257h-96.879c-7.12,0-12.373,6.661-10.728,13.602l37.962,160.077
			c1.181,4.979,5.619,8.493,10.727,8.493h58.918h7.257h58.918c5.107,0,9.546-3.515,10.727-8.493l37.961-160.077
			c1.646-6.941-3.607-13.602-10.727-13.602H2093.41z"/>
	</g>
	<g>
		<g>
			
				<rect x="1319.596" y="444.92" transform="matrix(0.1269 -0.9919 0.9919 0.1269 552.297 1839.6393)" style="fill:#9BC1F9;" width="3.063" height="322.352"/>
			<polygon style="fill:#9BC1F9;" points="1163.744,619.514 1165.197,616.822 721.899,378.133 899.103,334.053 898.361,331.087 
				713.472,377.068 			"/>
			
				<rect x="726.538" y="493.455" transform="matrix(0.3182 -0.948 0.948 0.3182 -261.464 1235.2233)" style="fill:#9BC1F9;" width="3.066" height="611.886"/>
			<polygon style="fill:#9BC1F9;" points="2136.779,911.231 2138.969,909.089 1850.383,614.083 1850.107,613.964 1356.656,401.003 
				1186.382,376.087 1185.939,379.113 1356.014,404 1848.618,616.655 			"/>
			<polygon style="fill:#9BC1F9;" points="1217.09,981.326 1239.1,823.097 1237.976,822.66 986.989,724.149 762.865,628.575 
				761.663,631.386 985.828,726.978 1235.733,825.07 1214.058,980.907 			"/>
			<polygon style="fill:#9BC1F9;" points="1200.141,982.474 1201.558,979.759 1000.577,874.706 1000.577,711.948 794.851,885.578 
				431.295,707.086 804.606,605.029 804.898,604.358 917.826,348.79 1180.924,378.945 1155.847,585.537 1158.885,585.908 
				1184.333,376.254 1182.802,376.082 915.937,345.489 915.482,346.524 802.393,602.457 422.677,706.273 795.299,889.215 
				796.062,888.569 997.515,718.539 997.515,876.56 			"/>
			<polygon style="fill:#9BC1F9;" points="1834.494,634.377 1834.555,631.314 1492.662,624.346 1589.809,336.344 1586.908,335.363 
				1488.427,627.325 			"/>
			<polygon style="fill:#9BC1F9;" points="2269.043,819.807 2270.515,817.116 1882.919,604.753 1631.196,378.007 1629.145,380.28 
				1881.157,607.235 			"/>
			
				<rect x="2039.977" y="803.779" transform="matrix(0.3411 -0.94 0.94 0.3411 493.1598 2516.3972)" style="fill:#9BC1F9;" width="3.066" height="205.305"/>
			
				<rect x="1756.81" y="890.516" transform="matrix(0.967 -0.2547 0.2547 0.967 -166.0915 501.1534)" style="fill:#9BC1F9;" width="191.366" height="3.067"/>
			
				<rect x="1534.518" y="921.607" transform="matrix(0.9976 -0.0699 0.0699 0.9976 -60.5489 117.1297)" style="fill:#9BC1F9;" width="215.381" height="3.058"/>
			<polygon style="fill:#9BC1F9;" points="1336.988,697.726 1337.473,697.684 1805.909,659.729 1805.664,656.679 1337.713,694.592 
				1194.127,609.334 1192.565,611.966 			"/>
			<polygon style="fill:#9BC1F9;" points="1442.694,899.669 1445.386,898.211 1337.548,699.018 1243.756,826.35 1246.22,828.168 
				1337.153,704.723 			"/>
			<polygon style="fill:#9BC1F9;" points="1162.336,599.873 1348.227,410.59 1605.222,337.325 1604.384,334.382 1346.611,407.863 
				1346.328,408.157 1160.152,597.732 			"/>
			
				<rect x="635.894" y="490.901" transform="matrix(0.1964 -0.9805 0.9805 0.1964 -62.3885 1095.9088)" style="fill:#9BC1F9;" width="3.062" height="190.234"/>
			<polygon style="fill:#9BC1F9;" points="586.875,943.527 587.94,940.657 421.854,879.162 421.854,691.104 556.824,586.29 
				556.528,585.292 500.215,394.454 497.279,395.315 553.296,585.154 418.792,689.609 418.792,881.29 			"/>
			
				<rect x="397.483" y="767.538" transform="matrix(0.8465 -0.5324 0.5324 0.8465 -318.9258 431.9897)" style="fill:#9BC1F9;" width="384.409" height="3.067"/>
			
				<rect x="1703.765" y="280.304" transform="matrix(0.2876 -0.9577 0.9577 0.2876 845.8964 1907.6676)" style="fill:#9BC1F9;" width="3.06" height="209.826"/>
			
				<rect x="1354.561" y="773.553" transform="matrix(0.0362 -0.9993 0.9993 0.0362 666.9545 2241.7102)" style="fill:#9BC1F9;" width="282.176" height="3.064"/>
			<polygon style="fill:#9BC1F9;" points="1010.057,912.517 1132.126,564.065 1129.237,563.049 1007.168,911.5 			"/>
			
				<rect x="644.758" y="324.998" transform="matrix(0.6751 -0.7377 0.7377 0.6751 -158.854 639.1902)" style="fill:#9BC1F9;" width="3.065" height="349.91"/>
			<g>
				<path style="fill:#9BC1F9;" d="M416.354,705.884v177.103l171.96,63.673l2.761-7.442l-166.782-61.753v-5.769l2.744,4.363
					l147.274-92.624l221.348,108.673l1.98-1.678l53.752-45.367l157.869,53.095l-5.197,14.834l7.489,2.636l5.233-14.94l2.317,0.78
					l2.526-7.53l-2.216-0.746l0.721-2.058l181.042,94.633l3.674-7.039l-182.063-95.166l42.949-122.6l167.319,65.676l-21.746,156.352
					l7.863,1.085l21.803-156.749l5.764,4.252l90.102-122.316l104.874,193.714l6.979-3.785l-107.912-199.33l154.073-12.484
					l-8.363,230.999l7.936,0.28l8.396-231.925l305.715-24.77l-0.637-7.911l-304.789,24.694l1.7-46.954l-7.936-0.278l-1.733,47.877
					l-156.851,12.708l-145.016-86.106l-4.049,6.826l145.255,86.253l-93.283,126.641l0.583-4.19l-2.922-1.135l-170.5-66.92
					l53.801-153.574l42.573,22.922l3.771-6.982l-43.688-23.524l10.417-29.736l-7.489-2.636l-10.005,28.562l-244.9-131.864
					l46.493-105.217l258.877,29.671l-25.075,206.573l5.322,0.649l-0.133,1.039l5.905,0.753l-7.523,7.66l5.664,5.556l11.743-11.957
					l308.815,39.352l1.008-7.875l-302.838-38.59l168.419-171.491l12.429-3.542l172.379,74.415l-49.268,146.064l351.83,7.169
					l0.154-7.938l-341.005-6.95l45.601-135.19l305.576,131.917l25.694,26.266L1762.468,889.15l-97.032-173.986l-161.343,221.59
					l6.666,4.311l153.656-209.747l98.284,176.585l116.165-256.842l257.877,263.616l5.675-5.551L1882.374,643.3l4.435-9.804
					l-7.241-3.256l-3.151,6.969l-24.624-25.171L1544.17,479.275l45.533-134.99l18.53-5.283l-2.172-7.633l-13.278,3.786l0.114-0.339
					l-7.521-2.543l-1.863,5.524l-221.112,63.031l-5.073-2.19l-173.006-25.316l-0.069,0.471l-1.176-0.134l-268.65-30.796
					l-1.178,2.682l-47.42,107.317l-137.22-73.885L902.06,335.83l-1.924-7.697l-193.374,48.091l155.85,83.916l-61.981,140.27
					l-29.786,8.144L518.104,377.266l-5.363,5.858L761.788,611.03l-320.665,87.671l-4.083-1.374l-0.919,2.741l-11.83,3.234v-11.004
					l135.344-105.104l-0.771-2.597l-3.217-10.901l176.656,35.361l1.557-7.783L553.11,565.093L501.865,391.43l-7.616,2.233
					l50.066,169.669l-1.768-0.354l-1.559,7.784l5.866,1.174l3.633,12.312L416.354,688.416v17.058l-0.538,0.147L416.354,705.884z
					 M1373.924,405.8l206.51-58.872l-43.577,129.191L1373.924,405.8z M1186.14,381.607l161.028,23.563l-1.852,0.528l-0.738,0.761
					L1171.212,582.99l-9.372-1.194L1186.14,381.607z M440.871,706.996l156.415,52.605l-23.452,14.75l-135.678-66.612
					L440.871,706.996z M1060.964,750.565l-57.948-22.744V706.7l-17.029,14.373l-224.406-95.695l-3.119,7.294l220.737,94.129
					L849.685,836.108l-233.997-78.697l140.88-88.603l-4.229-6.724l-146.372,92.056l-151.353-50.902l314.101-85.871l5.762,5.274
					l5.362-5.858l-2.067-1.892l28.602-7.818l0.76-1.738l62.489-141.42l245.46,132.167L1060.964,750.565z M995.077,723.788v0.917
					l-0.742-0.292L995.077,723.788z M1015.674,879.845l-12.658-6.617V736.343l55.323,21.715L1015.674,879.845z M858.489,839.07
					l128.954-108.841l7.633,2.998v144.809l17.945,9.38l-1.136,3.244L858.489,839.07z M582.212,778.465l24.794-15.595l235.579,79.23
					l-48.09,40.587L582.212,778.465z M424.293,709.781l141.639,69.539L424.293,868.4V709.781z"/>
				<polygon style="fill:#9BC1F9;" points="2260.909,818.13 1902.078,621.481 1867.912,622.078 1867.773,614.14 1888.037,613.786 
					1879.736,609.237 1870.509,600.927 1863.906,618.749 1856.463,615.989 1864.161,595.211 1625.699,380.458 1631.02,374.565 
					1867.115,587.236 1956.926,344.801 1964.367,347.561 1873.463,592.953 1884.34,602.751 1903.972,613.508 2208.731,629.493 
					2208.87,637.43 1918.016,621.202 2258.915,807.979 2199.877,634.222 2207.665,632.701 2267.979,812.946 2273.822,816.148 
					2270.012,823.118 2269.974,823.098 2274.191,844.562 2164.449,915.24 2160.152,908.569 2265.365,840.806 				"/>
				<polygon style="fill:#9BC1F9;" points="1947.658,868.13 2141.646,938.563 2138.936,946.029 1941.374,874.299 1941.995,872.587 
					1758.613,920.878 1756.6,913.195 1946.372,863.221 				"/>
				
					<rect x="1532.079" y="919.168" transform="matrix(0.9976 -0.0699 0.0699 0.9976 -60.5478 117.1275)" style="fill:#9BC1F9;" width="220.258" height="7.935"/>
				
					<rect x="1701.327" y="277.866" transform="matrix(0.2872 -0.9579 0.9579 0.2872 846.4935 1908.0045)" style="fill:#9BC1F9;" width="7.936" height="214.702"/>
			</g>
			
				<rect x="1768.255" y="480.244" transform="matrix(0.3474 -0.9377 0.9377 0.3474 794.9961 2105.8545)" style="fill:#9BC1F9;" width="284.321" height="3.062"/>
		</g>
		<g>
			
				<ellipse transform="matrix(0.5257 -0.8506 0.8506 0.5257 129.8519 939.5806)" style="fill:#FFFFFF;" cx="907.546" cy="353.339" rx="78.883" ry="78.883"/>
		</g>
		<g>
			
				<ellipse transform="matrix(0.1602 -0.9871 0.9871 0.1602 -417.7248 1370.3654)" style="fill:#FFFFFF;" cx="596.473" cy="930.671" rx="79.856" ry="79.857"/>
		</g>
		<g>
			<path style="fill:#FFFFFF;" d="M1549.033,625.836c0,32.301-26.187,58.487-58.488,58.487s-58.487-26.186-58.487-58.487
				c0-32.302,26.186-58.488,58.487-58.488S1549.033,593.534,1549.033,625.836z"/>
		</g>
		<g>
			
				<ellipse transform="matrix(0.9806 -0.1961 0.1961 0.9806 -84.8938 378.7962)" style="fill:#FFFFFF;" cx="1870.281" cy="618.069" rx="109.429" ry="109.429"/>
		</g>
		<g>
			
				<ellipse transform="matrix(0.9436 -0.331 0.331 0.9436 -56.771 471.6796)" style="fill:#FFFFFF;" cx="1356.437" cy="402.516" rx="51.276" ry="51.276"/>
		</g>
		<g>
			
				<ellipse transform="matrix(0.0985 -0.9951 0.9951 0.0985 1387.3898 2275.79)" style="fill:#FFFFFF;" cx="1949.83" cy="372.118" rx="74.499" ry="74.5"/>
		</g>
		<g>
			<circle style="fill:#FFFFFF;" cx="525.647" cy="406.499" r="66.166"/>
		</g>
		<g>
			
				<ellipse transform="matrix(0.1299 -0.9915 0.9915 0.1299 428.5804 1676.6956)" style="fill:#FFFFFF;" cx="1169.666" cy="594.144" rx="97.035" ry="97.035"/>
		</g>
		<g>
			
				<ellipse transform="matrix(0.2298 -0.9732 0.9732 0.2298 -353.7832 945.2937)" style="fill:#FFFFFF;" cx="420.324" cy="696.159" rx="90.548" ry="90.548"/>
		</g>
		<g>
			<path style="fill:#FFFFFF;" d="M2267.323,638.095c0,35.443-28.733,64.177-64.178,64.177s-64.177-28.734-64.177-64.177
				c0-35.444,28.732-64.178,64.177-64.178S2267.323,602.651,2267.323,638.095z"/>
		</g>
		<g>
			
				<ellipse transform="matrix(0.2298 -0.9732 0.9732 0.2298 153.8192 1848.8805)" style="fill:#FFFFFF;" cx="1244.989" cy="827.261" rx="44.139" ry="44.139"/>
		</g>
		<g>
			<path style="fill:#FFFFFF;" d="M1818.428,898.528c0,30.842-25.002,55.845-55.845,55.845s-55.845-25.003-55.845-55.845
				c0-30.843,25.002-55.846,55.845-55.846S1818.428,867.685,1818.428,898.528z"/>
		</g>
		<g>
			
				<ellipse transform="matrix(0.2204 -0.9754 0.9754 0.2204 911.5021 1836.7957)" style="fill:#FFFFFF;" cx="1604.803" cy="348.185" rx="89.535" ry="89.536"/>
		</g>
		<g>
			<defs>
				
					<ellipse id="SVGID_1_" transform="matrix(0.0263 -0.9997 0.9997 0.0263 1217.9768 1939.9442)" cx="1604.804" cy="344.758" rx="86.109" ry="86.108"/>
			</defs>
			<clipPath id="SVGID_00000157303931759697840590000007772832042489793972_">
				<use xlink:href="#SVGID_1_"  style="overflow:visible;"/>
			</clipPath>
			<g style="clip-path:url(#SVGID_00000157303931759697840590000007772832042489793972_);">
				<path style="fill:#13375B;" d="M1645.994,332.498c0.499-12.016-1.271-23.882-6.646-35.069
					c-4.626-9.625-16.07-15.086-26.508-15.1c-33.141-0.043-37.355,43.745-58.451,60.636c-6.446,5.16-13.652,9.364-19.752,14.93
					c-22.523,20.552-12.377,58.595,8.304,76.613c14.353,12.502,36.908,19.607,54.597,9.833c9.233-5.103,16.242-13.583,21.236-22.875
					c7.088-13.189,11.656-28.405,16.697-42.461C1640.836,364.044,1645.332,348.469,1645.994,332.498z"/>
				<path style="fill:#96D9C9;" d="M1633.6,443.094c0,0-24.751-25.379-31.12-36.406c-6.369-11.026,4.337-3.848,15.273-6.749
					c4.142-1.099,3.094-25.367,10.923-17.479c12.844,12.941,28.991,35.573,28.991,35.573L1633.6,443.094z"/>
				<path style="fill:#50BFA5;" d="M1598.41,371.328c0,0-22.213-4.385-32.35,4.084c-10.137,8.469,2.172,83.763,2.161,96.244
					c-0.01,12.481-6.96,45.08-6.96,45.08s67.324,14.45,78.018-4.287c0,0,3.043-71.388,2.59-80.365
					c-0.453-8.977-10.435-45.69-13.193-49.623C1625.916,378.53,1598.41,371.328,1598.41,371.328z"/>
				<path style="fill:#F7A491;" d="M1598.271,336.969c0,0-0.117,0.664-0.327,1.794c-1.008,5.421-4.887,23.406-7.508,28.35
					c-3.168,5.976,10.843,25.032,24.328,22.707c4.014-0.692-3.393-17.51-3.037-19.291c0.682-3.411,1.605-8.063,2.551-12.832
					c0.533-2.691,1.074-5.42,1.581-7.983c1.442-7.287,2.619-13.247,2.619-13.247L1598.271,336.969z"/>
				<path style="fill:#F47458;" d="M1597.943,338.763c0.21-1.13,0.327-1.794,0.327-1.794l20.207-0.503c0,0-1.177,5.96-2.619,13.247
					c-0.505,2.55-1.042,5.262-1.572,7.938c-3.119-0.458-6.38-1.972-9.647-4.827c-3.563-3.113-5.898-6.854-7.309-10.847
					C1597.579,340.702,1597.787,339.604,1597.943,338.763z"/>
				<path style="fill:#F7A491;" d="M1611.871,291.13c0,0-9.525-1.099-15.495,6.608c-5.97,7.706-12.405,31.536,2.426,44.493
					c14.831,12.956,29.483-1.709,31.657-17.259C1632.631,309.422,1633.476,290.569,1611.871,291.13z"/>
				<path style="fill:#13375B;" d="M1626.719,287.217c0,0-18.567,26.604-36.244,23.038l-0.492-11.35l1.63-4.298l8.958-5.751
					l14.555-3.317L1626.719,287.217z"/>
				<path style="fill:#F7A491;" d="M1634.846,324.742c-1.77,3.435-4.741,5.336-6.637,4.247c-1.895-1.088-1.996-4.755-0.227-8.189
					c1.771-3.434,4.742-5.336,6.637-4.247C1636.515,317.641,1636.616,321.308,1634.846,324.742z"/>
				<path style="fill:#F7A491;" d="M1593.496,317.985c0.74,4.025-0.749,7.715-3.326,8.243c-2.576,0.529-5.266-2.306-6.006-6.33
					c-0.74-4.024,0.748-7.714,3.326-8.243C1590.066,311.127,1592.756,313.961,1593.496,317.985z"/>
				<path style="fill:#FFFFFF;" d="M1617.602,333.668l-13.972-0.724c0,0,0.047,5.324,6.183,5.82
					C1617.293,339.369,1617.602,333.668,1617.602,333.668z"/>
				<path style="fill:#FFFFFF;" d="M1617.602,333.668l-13.972-0.724c0,0,0.047,5.324,6.183,5.82
					C1617.293,339.369,1617.602,333.668,1617.602,333.668z"/>
				<path style="fill:#96D9C9;" d="M1574.433,442.206c0,0-14.577-32.314-16.79-44.854c-2.213-12.539,8.545-28.282,19.813-27.267
					c11.269,1.015,28.164,56.806,28.164,56.806L1574.433,442.206z"/>
			</g>
		</g>
		<g>
			
				<ellipse transform="matrix(0.2298 -0.9732 0.9732 0.2298 -4.3177 1230.6819)" style="fill:#FFFFFF;" cx="775.358" cy="618.069" rx="102.091" ry="102.091"/>
		</g>
		<g>
			<path style="fill:#FFFFFF;" d="M1062.417,882.51c0,30.513-24.735,55.248-55.249,55.248c-30.513,0-55.249-24.736-55.249-55.248
				c0-30.514,24.736-55.25,55.249-55.25C1037.682,827.261,1062.417,851.997,1062.417,882.51z"/>
		</g>
		<g>
			
				<ellipse transform="matrix(0.9988 -0.0498 0.0498 0.9988 -43.336 75.3751)" style="fill:#FFFFFF;" cx="1490.545" cy="907.116" rx="107.81" ry="107.81"/>
		</g>
		<g>
			<path style="fill:#FFFFFF;" d="M2209.104,901.624c0,38.814-31.466,70.281-70.281,70.281s-70.281-31.466-70.281-70.281
				c0-38.816,31.466-70.282,70.281-70.282S2209.104,862.808,2209.104,901.624z"/>
		</g>
		<path style="fill:#FFFFFF;" d="M1635.512,727.498c0,16.245,13.169,29.414,29.414,29.414c16.244,0,29.413-13.169,29.413-29.414
			c0-16.245-13.169-29.415-29.413-29.415C1648.681,698.083,1635.512,711.253,1635.512,727.498z"/>
		<path style="fill:#FFFFFF;" d="M1788.282,415.354c0,9.668,7.837,17.504,17.504,17.504c9.668,0,17.505-7.836,17.505-17.504
			c0-9.667-7.837-17.504-17.505-17.504C1796.119,397.85,1788.282,405.687,1788.282,415.354z"/>
		
			<ellipse transform="matrix(0.3827 -0.9239 0.9239 0.3827 395.6258 2334.8955)" style="fill:#FFFFFF;" cx="1945.021" cy="871.4" rx="25.238" ry="25.238"/>
		<path style="fill:#FFFFFF;" d="M1161.244,377.599c0,13.761,11.156,24.916,24.917,24.916c13.762,0,24.917-11.156,24.917-24.916
			c0-13.762-11.155-24.917-24.917-24.917C1172.4,352.682,1161.244,363.837,1161.244,377.599z"/>
		
			<ellipse transform="matrix(0.7071 -0.7071 0.7071 0.7071 -56.798 618.0759)" style="fill:#FFFFFF;" cx="717.685" cy="377.599" rx="24.123" ry="24.123"/>
		<path style="fill:#FFFFFF;" d="M972.035,725.573c0,16.245,13.169,29.413,29.413,29.413c16.245,0,29.414-13.169,29.414-29.413
			c0-16.245-13.169-29.414-29.414-29.414C985.204,696.159,972.035,709.328,972.035,725.573z"/>
		<path style="fill:#FFFFFF;" d="M1186.161,981.114c0,16.244,13.169,29.413,29.414,29.413c16.245,0,29.414-13.169,29.414-29.413
			c0-16.246-13.169-29.414-29.414-29.414C1199.33,951.701,1186.161,964.869,1186.161,981.114z"/>
		<path style="fill:#FFFFFF;" d="M1318.264,696.159c0,10.541,8.545,19.086,19.086,19.086s19.087-8.545,19.087-19.086
			c0-10.542-8.546-19.086-19.087-19.086S1318.264,685.618,1318.264,696.159z"/>
		<path style="fill:#FFFFFF;" d="M775.358,887.399c0,10.889,8.827,19.717,19.717,19.717c10.889,0,19.716-8.828,19.716-19.717
			c0-10.89-8.827-19.717-19.716-19.717C784.186,867.682,775.358,876.509,775.358,887.399z"/>
		
			<ellipse transform="matrix(0.9975 -0.0709 0.0709 0.9975 -61.3409 32.0107)" style="fill:#FFFFFF;" cx="420.324" cy="880.228" rx="29.414" ry="29.414"/>
		<path style="fill:#FFFFFF;" d="M525.646,567.349c0,16.245,13.169,29.413,29.414,29.413c16.245,0,29.414-13.168,29.414-29.413
			c0-16.245-13.169-29.414-29.414-29.414C538.816,537.935,525.646,551.104,525.646,567.349z"/>
		<path style="fill:#FFFFFF;" d="M2240.365,827.261c0,16.245,13.168,29.414,29.413,29.414s29.414-13.169,29.414-29.414
			c0-16.244-13.169-29.413-29.414-29.413S2240.365,811.017,2240.365,827.261z"/>
		<g>
			<defs>
				
					<ellipse id="SVGID_00000178170181174741780230000006909294409666198688_" transform="matrix(0.1602 -0.9871 0.9871 0.1602 408.8443 1654.584)" cx="1176.787" cy="587.023" rx="89.913" ry="89.913"/>
			</defs>
			<clipPath id="SVGID_00000127039802251273786830000007603796873883369147_">
				<use xlink:href="#SVGID_00000178170181174741780230000006909294409666198688_"  style="overflow:visible;"/>
			</clipPath>
			<g style="clip-path:url(#SVGID_00000127039802251273786830000007603796873883369147_);">
				<path style="fill:#13375B;" d="M1145.651,531.448c24.627-13.081,53.331-1.363,55.479,32.998
					c2.148,34.361-22.098,46.472-45.382,44.198S1109.573,545.868,1145.651,531.448z"/>
				<path style="fill:#13375B;" d="M1160.512,622.745c0,13.531,10.969,24.501,24.5,24.501c13.531,0,24.5-10.97,24.5-24.501
					c0-13.531-10.969-24.5-24.5-24.5C1171.48,598.244,1160.512,609.213,1160.512,622.745z"/>
				<path style="fill:#F29383;" d="M1132.428,636.806l-83.664-2.878c0,0-65.201-20.378-67.219-20.941
					c-2.018-0.564-12.009-26.665-14.655-24.434c-2.646,2.23,5.778,13.068,2.377,15.021c-3.401,1.953-35.225-8.482-35.17-5.898
					c0.104,4.833,19.235,7.159,18.875,9.429c-0.361,2.271-19.737-4.336-21.654-0.769c-1.916,3.566,18.921,4.481,19.486,6.29
					c0.565,1.81-19.729,1.846-18.228,5.669c0.816,2.075,18.05-0.484,17.58,2.102c-0.47,2.586-13.374,6.651-12.21,8.947
					c1.163,2.296,10.383-4.903,17.372-3.936c6.988,0.967,12.549-2.06,23.202,2.834c10.652,4.895,46.195,26.679,70.117,29.155
					c23.922,2.476,76.765,8.094,76.765,8.094L1132.428,636.806z"/>
				<path style="fill:#C24C32;" d="M1148.356,632.982c45.812,2.135,5.532,40.5,5.532,40.5l-67.694-9.608
					c-2.038-13.501,1.439-29.609,1.608-33.203C1101.855,629.803,1137.073,632.457,1148.356,632.982z"/>
				<path style="fill:#F47458;" d="M1183.772,625.652c0,0,19.689-0.351,30.155,11.082c10.466,11.434-16.451,100.54-18.353,115.092
					c-1.903,14.551,9.7,53.243,9.7,53.243s-62.145,12.534-79.907,0.753c0,0-1.903-104.638,0-115.032
					c1.904-10.395,17.762-52.666,21.568-56.823C1150.741,629.809,1183.772,625.652,1183.772,625.652z"/>
				<path style="fill:#F7A491;" d="M1174.966,590.222c0,0,0.137,0.781,0.383,2.109c1.18,6.375,5.722,27.523,8.79,33.336
					c3.708,7.025-12.695,29.433-28.482,26.698c-4.7-0.814,3.972-20.588,3.555-22.683c-0.798-4.009-1.879-9.48-2.986-15.089
					c-0.625-3.163-1.257-6.371-1.851-9.387c-1.688-8.568-3.066-15.575-3.066-15.575L1174.966,590.222z"/>
				<path style="fill:#F47458;" d="M1175.349,592.332c-0.246-1.329-0.383-2.11-0.383-2.11l-23.659-0.591
					c0,0,1.378,7.007,3.066,15.575c0.591,2.998,1.219,6.188,1.841,9.334c3.651-0.538,7.469-2.317,11.295-5.675
					c4.172-3.661,6.907-8.058,8.557-12.755C1175.775,594.612,1175.532,593.32,1175.349,592.332z"/>
				<path style="fill:#F7A491;" d="M1159.042,536.324c0,0,11.151-1.291,18.141,7.77c6.99,9.061,14.523,37.081-2.84,52.316
					c-17.363,15.233-34.52-2.011-37.064-20.295C1134.736,557.832,1133.747,535.664,1159.042,536.324z"/>
				<path style="fill:#F7A491;" d="M1132.144,575.845c2.072,4.038,5.551,6.274,7.77,4.995c2.219-1.28,2.337-5.591,0.266-9.629
					c-2.073-4.038-5.552-6.275-7.771-4.995C1130.189,567.496,1130.07,571.807,1132.144,575.845z"/>
				<path style="fill:#13375B;" d="M1157.795,533.328c0,0,14.898,26.646,25.556,27.878c10.657,1.231,12.056,15.39,12.056,15.39
					s-3.81-32.625-14.361-38.917C1170.495,531.387,1157.795,533.328,1157.795,533.328z"/>
				<path style="fill:#F7A491;" d="M1180.555,567.901c-0.867,4.732,0.877,9.072,3.894,9.692c3.017,0.622,6.166-2.711,7.033-7.443
					c0.866-4.732-0.876-9.072-3.894-9.693C1184.571,559.836,1181.422,563.169,1180.555,567.901z"/>
				<path style="fill:#C24C32;" d="M1157.356,715.972c0,0,48.102-24.644,58.702-37.776c10.601-13.132,8.277-38.288-5.386-44.328
					c-13.664-6.039-69.242,49.619-69.242,49.619L1157.356,715.972z"/>
			</g>
		</g>
		<g>
			<defs>
				<path id="SVGID_00000173132366682414999870000003360732526435012481_" d="M1307.924,400.461
					c0,26.793,21.72,48.513,48.513,48.513s48.513-21.72,48.513-48.513c0-26.793-21.72-48.512-48.513-48.512
					S1307.924,373.668,1307.924,400.461z"/>
			</defs>
			<clipPath id="SVGID_00000003062460716744969910000011044606997236818870_">
				<use xlink:href="#SVGID_00000173132366682414999870000003360732526435012481_"  style="overflow:visible;"/>
			</clipPath>
			<g style="clip-path:url(#SVGID_00000003062460716744969910000011044606997236818870_);">
				<path style="fill:#13375B;" d="M1373.235,370.476c-13.287-7.058-28.774-0.736-29.934,17.804
					c-1.159,18.54,11.923,25.074,24.486,23.847C1380.352,410.9,1392.702,378.256,1373.235,370.476z"/>
				<path style="fill:#13375B;" d="M1351.309,400.8c0,3.488-2.828,6.315-6.316,6.315s-6.315-2.827-6.315-6.315
					c0-3.488,2.827-6.316,6.315-6.316S1351.309,397.312,1351.309,400.8z"/>
				<path style="fill:#13375B;" d="M1357.619,406.777c0,3.489-2.827,6.316-6.314,6.316c-3.488,0-6.316-2.827-6.316-6.316
					c0-3.488,2.828-6.316,6.316-6.316C1354.792,400.461,1357.619,403.289,1357.619,406.777z"/>
				<path style="fill:#13375B;" d="M1365.904,411.314c0,3.488-2.828,6.316-6.316,6.316c-3.487,0-6.315-2.828-6.315-6.316
					s2.828-6.315,6.315-6.315C1363.076,404.998,1365.904,407.826,1365.904,411.314z"/>
				<path style="fill:#13375B;" d="M1348.542,390.392c0,3.488-2.827,6.316-6.315,6.316s-6.316-2.828-6.316-6.316
					c0-3.488,2.828-6.316,6.316-6.316S1348.542,386.904,1348.542,390.392z"/>
				<path style="fill:#13375B;" d="M1350.712,379.544c0,3.488-2.828,6.315-6.316,6.315c-3.487,0-6.315-2.827-6.315-6.315
					c0-3.488,2.828-6.316,6.315-6.316C1347.884,373.228,1350.712,376.056,1350.712,379.544z"/>
				<path style="fill:#13375B;" d="M1358.01,372.64c0,3.488-2.828,6.316-6.315,6.316c-3.488,0-6.316-2.828-6.316-6.316
					c0-3.488,2.828-6.315,6.316-6.315C1355.182,366.324,1358.01,369.152,1358.01,372.64z"/>
				<path style="fill:#13375B;" d="M1367.675,369.771c0,3.489-2.827,6.316-6.315,6.316s-6.316-2.828-6.316-6.316
					c0-3.487,2.828-6.314,6.316-6.314S1367.675,366.283,1367.675,369.771z"/>
				<path style="fill:#13375B;" d="M1377.734,370.56c0,3.489-2.828,6.316-6.316,6.316c-3.487,0-6.315-2.827-6.315-6.316
					c0-3.488,2.828-6.315,6.315-6.315C1374.906,364.245,1377.734,367.072,1377.734,370.56z"/>
				<path style="fill:#13375B;" d="M1385.229,378.45c0,3.488-2.828,6.315-6.315,6.315c-3.488,0-6.316-2.827-6.316-6.315
					c0-3.488,2.828-6.316,6.316-6.316C1382.401,372.134,1385.229,374.962,1385.229,378.45z"/>
				<path style="fill:#13375B;" d="M1385.032,398.569c0,3.488-2.827,6.315-6.315,6.315s-6.316-2.827-6.316-6.315
					c0-3.489,2.828-6.316,6.316-6.316S1385.032,395.081,1385.032,398.569z"/>
				<path style="fill:#13375B;" d="M1378.721,408.037c0,3.488-2.828,6.316-6.316,6.316s-6.315-2.828-6.315-6.316
					c0-3.488,2.827-6.315,6.315-6.315S1378.721,404.549,1378.721,408.037z"/>
				<path style="fill:#13375B;" d="M1387.597,387.918c0,3.489-2.828,6.316-6.315,6.316c-3.488,0-6.316-2.827-6.316-6.316
					c0-3.488,2.828-6.315,6.316-6.315C1384.769,381.602,1387.597,384.43,1387.597,387.918z"/>
				<path style="fill:#13375B;" d="M1370.042,410.404c0,3.488-2.828,6.316-6.315,6.316c-3.488,0-6.316-2.828-6.316-6.316
					c0-3.488,2.828-6.316,6.316-6.316C1367.214,404.088,1370.042,406.916,1370.042,410.404z"/>
				<path style="fill:#F29383;" d="M1380.37,427.322l45.142-1.553c0,0,35.179-10.994,36.268-11.298
					c1.09-0.305,6.479-14.387,7.907-13.184c1.428,1.204-3.117,7.051-1.282,8.106c1.836,1.053,19.006-4.577,18.976-3.183
					c-0.056,2.608-10.378,3.862-10.184,5.087c0.194,1.225,10.649-2.34,11.684-0.415c1.034,1.924-10.209,2.417-10.514,3.393
					c-0.306,0.977,10.646,0.997,9.835,3.06c-0.44,1.119-9.739-0.262-9.486,1.133c0.254,1.396,7.217,3.589,6.589,4.828
					c-0.628,1.239-5.603-2.646-9.374-2.124c-3.77,0.522-6.771-1.111-12.518,1.53c-5.748,2.641-24.925,14.395-37.832,15.73
					c-12.907,1.336-41.419,4.367-41.419,4.367L1380.37,427.322z"/>
				<path style="fill:#C24C32;" d="M1371.776,425.259c-24.718,1.152-2.985,21.852-2.985,21.852l36.524-5.184
					c1.1-7.284-0.776-15.976-0.867-17.915C1396.866,423.544,1377.864,424.975,1371.776,425.259z"/>
				<path style="fill:#F47458;" d="M1352.668,421.304c0,0-10.623-0.189-16.271,5.979c-5.647,6.168,8.876,54.246,9.902,62.098
					c1.026,7.852-5.233,28.728-5.233,28.728s33.53,6.762,43.113,0.406c0,0,1.026-56.458,0-62.066
					c-1.027-5.608-9.583-28.416-11.637-30.659C1370.489,423.546,1352.668,421.304,1352.668,421.304z"/>
				<path style="fill:#BF7154;" d="M1357.419,402.187c0,0-0.073,0.422-0.206,1.139c-0.637,3.439-3.088,14.849-4.743,17.986
					c-2.001,3.79,6.85,15.881,15.368,14.405c2.536-0.439-2.144-11.108-1.918-12.239c0.43-2.163,1.014-5.114,1.611-8.14
					c0.336-1.707,0.678-3.438,0.998-5.065c0.911-4.624,1.654-8.404,1.654-8.404L1357.419,402.187z"/>
				<path style="fill:#A85D42;" d="M1357.213,403.326c0.133-0.717,0.206-1.139,0.206-1.139l12.765-0.318c0,0-0.743,3.78-1.654,8.404
					c-0.318,1.617-0.657,3.338-0.993,5.036c-1.97-0.29-4.029-1.25-6.094-3.063c-2.251-1.974-3.727-4.348-4.617-6.881
					C1356.982,404.556,1357.113,403.859,1357.213,403.326z"/>
				<path style="fill:#BF7154;" d="M1366.011,373.107c0,0-6.017-0.697-9.788,4.192c-3.771,4.889-7.836,20.007,1.532,28.227
					c9.368,8.22,18.626-1.084,19.998-10.95C1379.125,384.712,1379.658,372.751,1366.011,373.107z"/>
				<path style="fill:#BF7154;" d="M1380.524,394.43c-1.118,2.179-2.995,3.386-4.192,2.694c-1.197-0.69-1.262-3.016-0.144-5.195
					c1.118-2.179,2.995-3.385,4.193-2.695C1381.578,389.925,1381.643,392.252,1380.524,394.43z"/>
				<path style="fill:#13375B;" d="M1366.684,371.49c0,0-8.038,14.377-13.788,15.042c-5.751,0.664-6.505,8.303-6.505,8.303
					s2.056-17.602,7.748-20.998C1359.832,370.443,1366.684,371.49,1366.684,371.49z"/>
				<path style="fill:#BF7154;" d="M1354.403,390.144c0.468,2.553-0.474,4.895-2.101,5.23c-1.628,0.334-3.326-1.463-3.795-4.017
					c-0.467-2.553,0.474-4.895,2.102-5.23C1352.236,385.793,1353.936,387.591,1354.403,390.144z"/>
				<path style="fill:#C24C32;" d="M1366.92,470.036c0,0-25.953-13.296-31.673-20.381c-5.719-7.085-4.466-20.659,2.906-23.917
					c7.372-3.259,37.36,26.772,37.36,26.772L1366.92,470.036z"/>
			</g>
		</g>
		<g>
			<defs>
				
					<ellipse id="SVGID_00000029748016350226795720000009115025422853568136_" transform="matrix(0.9436 -0.331 0.331 0.9436 -99.1511 654.0594)" cx="1870.691" cy="618.129" rx="97.035" ry="97.035"/>
			</defs>
			<clipPath id="SVGID_00000010311091574453307080000006238445288958274979_">
				<use xlink:href="#SVGID_00000029748016350226795720000009115025422853568136_"  style="overflow:visible;"/>
			</clipPath>
			<g style="clip-path:url(#SVGID_00000010311091574453307080000006238445288958274979_);">
				<path style="fill:#F47458;" d="M1904.292,558.153c-20.712-10.951-51.8-5.23-59.873,35.612
					c-4.81,24.33-16.776,49.894-16.776,49.894c31.359,14,65.091,14.592,92.141,9.871
					C1919.783,653.53,1943.229,573.715,1904.292,558.153z"/>
				<path style="fill:#F29383;" d="M1918.563,671.857l90.29-3.108c0,0,70.365-21.99,72.544-22.6
					c2.179-0.608,12.96-28.776,15.815-26.369c2.855,2.407-6.235,14.104-2.564,16.212c3.671,2.107,38.015-9.153,37.955-6.365
					c-0.112,5.216-20.758,7.726-20.369,10.176s21.301-4.681,23.369-0.831c2.067,3.849-20.42,4.836-21.03,6.79
					c-0.61,1.952,21.292,1.992,19.671,6.117c-0.88,2.24-19.479-0.521-18.973,2.268c0.508,2.791,14.434,7.179,13.178,9.657
					c-1.255,2.478-11.206-5.292-18.748-4.248c-7.541,1.043-13.543-2.223-25.039,3.058c-11.496,5.283-49.854,28.793-75.672,31.465
					c-25.816,2.672-82.845,8.735-82.845,8.735L1918.563,671.857z"/>
				<path style="fill:#C5DBFC;" d="M1901.374,667.729c-49.44,2.304-5.971,43.708-5.971,43.708l73.056-10.369
					c2.199-14.57-1.554-31.954-1.736-35.833C1951.559,664.298,1913.551,667.162,1901.374,667.729z"/>
				<path style="fill:#9BC1F9;" d="M1863.152,659.818c0,0-21.248-0.378-32.543,11.96c-11.295,12.339,17.753,108.504,19.807,124.208
					s-10.469,57.46-10.469,57.46s67.067,13.526,86.235,0.813c0,0,2.054-112.927,0-124.144
					c-2.054-11.218-19.168-56.837-23.276-61.324C1898.8,664.304,1863.152,659.818,1863.152,659.818z"/>
				<path style="fill:#F7A491;" d="M1872.656,621.582c0,0-0.147,0.843-0.413,2.277c-1.272,6.88-6.175,29.702-9.486,35.977
					c-4.002,7.581,13.701,31.763,30.739,28.812c5.071-0.878-4.287-22.218-3.837-24.479c0.86-4.327,2.028-10.231,3.223-16.284
					c0.674-3.414,1.356-6.876,1.998-10.13c1.822-9.248,3.309-16.81,3.309-16.81L1872.656,621.582z"/>
				<path style="fill:#F5866E;" d="M1872.243,623.859c0.266-1.434,0.413-2.277,0.413-2.277l25.532-0.638
					c0,0-1.486,7.562-3.309,16.81c-0.638,3.236-1.316,6.678-1.987,10.074c-3.94-0.582-8.061-2.502-12.189-6.126
					c-4.503-3.95-7.454-8.697-9.234-13.765C1871.783,626.319,1872.046,624.925,1872.243,623.859z"/>
				<path style="fill:#F7A491;" d="M1889.841,563.415c0,0-12.034-1.394-19.577,8.385c-7.544,9.778-15.674,40.019,3.064,56.459
					c18.738,16.44,37.254-2.17,40-21.901C1916.072,586.627,1917.14,562.703,1889.841,563.415z"/>
				<path style="fill:#F7A491;" d="M1918.871,606.067c-2.237,4.358-5.991,6.771-8.386,5.39c-2.395-1.382-2.522-6.034-0.286-10.392
					c2.236-4.357,5.991-6.771,8.387-5.39C1920.979,597.056,1921.107,601.708,1918.871,606.067z"/>
				<path style="fill:#F47458;" d="M1891.188,560.182c0,0-16.078,28.757-27.58,30.085c-11.501,1.33-13.012,16.609-13.012,16.609
					s4.113-35.21,15.499-42C1877.481,558.087,1891.188,560.182,1891.188,560.182z"/>
				<path style="fill:#F7A491;" d="M1866.624,597.494c0.936,5.106-0.946,9.789-4.202,10.46c-3.256,0.67-6.653-2.927-7.589-8.033
					c-0.936-5.106,0.945-9.79,4.202-10.46C1862.291,588.79,1865.688,592.387,1866.624,597.494z"/>
				<path style="fill:#C5DBFC;" d="M1891.66,757.292c0,0-51.911-26.595-63.352-40.768c-11.439-14.172-8.933-41.322,5.813-47.84
					c14.746-6.517,74.727,53.549,74.727,53.549L1891.66,757.292z"/>
			</g>
		</g>
		<g>
			<defs>
				<circle id="SVGID_00000122680233703357834730000015076667755273532345_" cx="2138.523" cy="899.669" r="67.279"/>
			</defs>
			<clipPath id="SVGID_00000062896530641304660060000016242492696785783180_">
				<use xlink:href="#SVGID_00000122680233703357834730000015076667755273532345_"  style="overflow:visible;"/>
			</clipPath>
			<g style="clip-path:url(#SVGID_00000062896530641304660060000016242492696785783180_);">
				<path style="fill:#F7CC7F;" d="M2115.225,858.084c18.428-9.787,39.906-1.019,41.514,24.692
					c1.607,25.712-16.535,34.774-33.958,33.073C2105.357,914.147,2088.229,868.875,2115.225,858.084z"/>
				<path style="fill:#F7CC7F;" d="M2126.344,926.4c0,10.125,8.209,18.333,18.334,18.333s18.333-8.208,18.333-18.333
					c0-10.125-8.208-18.333-18.333-18.333S2126.344,916.274,2126.344,926.4z"/>
				<path style="fill:#F29383;" d="M2105.33,936.921l-62.604-2.154c0,0-48.787-15.247-50.298-15.669
					c-1.511-0.423-8.986-19.953-10.966-18.283c-1.98,1.668,4.322,9.778,1.777,11.24c-2.545,1.461-26.357-6.346-26.316-4.414
					c0.078,3.617,14.394,5.357,14.123,7.056c-0.27,1.698-14.768-3.246-16.202-0.576c-1.435,2.668,14.157,3.353,14.581,4.707
					c0.423,1.354-14.764,1.382-13.64,4.242c0.61,1.552,13.507-0.363,13.155,1.573c-0.352,1.935-10.008,4.977-9.137,6.695
					c0.87,1.718,7.77-3.669,12.999-2.946c5.229,0.724,9.391-1.541,17.361,2.121c7.971,3.662,34.566,19.964,52.467,21.816
					c17.9,1.854,57.441,6.057,57.441,6.057L2105.33,936.921z"/>
				<path style="fill:#96D9C9;" d="M2117.248,934.06c34.28,1.597,4.141,30.305,4.141,30.305l-50.654-7.19
					c-1.524-10.102,1.077-22.155,1.204-24.845C2082.453,931.682,2108.806,933.667,2117.248,934.06z"/>
				<path style="fill:#50BFA5;" d="M2143.75,928.574c0,0,14.732-0.262,22.563,8.293c7.831,8.555-12.31,75.232-13.733,86.12
					c-1.424,10.889,7.259,39.841,7.259,39.841s-46.501,9.378-59.792,0.563c0,0-1.424-78.298,0-86.076
					c1.425-7.778,13.291-39.408,16.139-42.519C2119.033,931.685,2143.75,928.574,2143.75,928.574z"/>
				<path style="fill:#F7A491;" d="M2137.16,902.063c0,0,0.102,0.586,0.286,1.579c0.883,4.77,4.281,20.594,6.577,24.945
					c2.775,5.257-9.499,22.023-21.313,19.978c-3.517-0.61,2.973-15.406,2.66-16.974c-0.597-3-1.406-7.093-2.234-11.291
					c-0.468-2.367-0.941-4.767-1.386-7.024c-1.263-6.411-2.294-11.654-2.294-11.654L2137.16,902.063z"/>
				<path style="fill:#F47458;" d="M2137.446,903.642c-0.185-0.994-0.286-1.58-0.286-1.58l-17.703-0.441
					c0,0,1.031,5.243,2.294,11.654c0.442,2.244,0.913,4.63,1.378,6.985c2.732-0.403,5.589-1.734,8.452-4.247
					c3.122-2.739,5.168-6.03,6.402-9.544C2137.766,905.348,2137.583,904.381,2137.446,903.642z"/>
				<path style="fill:#F7A491;" d="M2125.245,861.732c0,0,8.344-0.965,13.574,5.814c5.23,6.78,10.867,27.747-2.125,39.147
					c-12.993,11.399-25.831-1.505-27.734-15.186C2107.057,877.827,2106.317,861.239,2125.245,861.732z"/>
				<path style="fill:#F7A491;" d="M2105.117,891.306c1.551,3.021,4.153,4.695,5.814,3.737c1.66-0.958,1.748-4.184,0.198-7.205
					c-1.552-3.022-4.155-4.695-5.815-3.738C2103.654,885.058,2103.565,888.284,2105.117,891.306z"/>
				<path style="fill:#F7CC7F;" d="M2124.312,859.491c0,0,11.147,19.938,19.122,20.86c7.975,0.921,9.021,11.516,9.021,11.516
					s-2.851-24.412-10.746-29.12C2133.814,858.039,2124.312,859.491,2124.312,859.491z"/>
				<path style="fill:#F7A491;" d="M2141.342,885.361c-0.648,3.541,0.656,6.788,2.914,7.253c2.258,0.465,4.613-2.029,5.262-5.57
					c0.648-3.541-0.655-6.788-2.913-7.253C2144.348,879.327,2141.99,881.821,2141.342,885.361z"/>
				<path style="fill:#96D9C9;" d="M2123.983,996.159c0,0,35.993-18.44,43.925-28.267c7.933-9.826,6.193-28.649-4.03-33.168
					c-10.224-4.52-51.812,37.127-51.812,37.127L2123.983,996.159z"/>
			</g>
		</g>
		<g>
			<defs>
				
					<ellipse id="SVGID_00000041995828161352427120000012353622379207737728_" transform="matrix(0.1707 -0.9853 0.9853 0.1707 621.7438 1985.8079)" cx="1490.545" cy="623.556" rx="56.207" ry="56.207"/>
			</defs>
			<clipPath id="SVGID_00000049197056377086252960000015262674442206438798_">
				<use xlink:href="#SVGID_00000041995828161352427120000012353622379207737728_"  style="overflow:visible;"/>
			</clipPath>
			<g style="clip-path:url(#SVGID_00000049197056377086252960000015262674442206438798_);">
				<path style="fill:#F47458;" d="M1391.895,660.06c0,0,19.843-5.303,20.076-3.703c5.116,35.015,7.334,47.67,8.054,48.017
					c2.453,1.181,33.763-28.993,39.431-31.131c2.71-1.022,5.691-0.942,8.547-0.933c6.81,0.023,8.153,0.012,8.153,0.012
					c0.194,0.007,0.249,0.011,0.249,0.011l0.131,6.4c-7.484,7.098-14.836,144.172-16.315,144.142
					c-1.653-0.034-32.761-0.201-31.282-2.796c0,0,7.52-42.213,13.436-70.041c1.985-9.342,7.533-28.871,7.533-28.871
					c-7.604,4.066-37.316,19.668-42.138,17.836C1392.77,733.303,1391.895,660.06,1391.895,660.06z"/>
				<path style="fill:#466EB6;" d="M1450.671,743.417c3.412-16.792,12.143-44.345,14.697-50.592
					c5.868-14.347,10.81-20.43,10.81-20.43l23.232,0.687c0,0,0.538,0.149,0.701,0.175c1.898,0.301,1.955,67.957,0.932,93.254
					c-1.023,25.296-6.637,58.217-6.637,58.217l-6.629-0.629c-0.109,3.413-0.186,5.66-0.186,5.66
					c-33.614,5.927-52.381-10.644-52.381-10.644S1446.247,765.188,1450.671,743.417z"/>
				<path style="fill:#F47458;" d="M1499.41,673.082c0,0,22.975-1.674,28.839-4.515c3.556-1.722,32.486-26.313,32.486-26.313
					l-2.004-63.757l20.745-2.127c0,0,12.627,70.199,9.096,78.012c-3.646,8.068-46.049,42.003-54.328,56.462
					c-4.77,8.33-0.244,121.425-1.791,122.471c-11.042,6.119-57.453,11.537-56.731,7.981
					C1495.663,743.041,1499.41,673.082,1499.41,673.082z"/>
				<path style="fill:#F7A491;" d="M1498.215,652.615l1.195,20.467c0,0-14.339,26.273-22.145,22.868
					c-6.55-2.856-1.322-22.692-1.322-22.692s1.002-4.542,2.42-9.769c0.99-3.651,1.79-7.601,1.647-10.479
					C1479.665,646.014,1498.215,652.615,1498.215,652.615z"/>
				<path style="fill:#F47458;" d="M1480.011,653.011c-0.346-6.997,18.204-0.396,18.204-0.396l0.117,2
					c-0.596,0.948-1.256,1.755-1.99,2.385c-4.831,4.137-11.924,6.129-17.747,5.617
					C1479.475,659.219,1480.143,655.662,1480.011,653.011z"/>
				<g>
					<path style="fill:#184655;" d="M1479.047,606.364c0,0-7.352,11.738-7.668,21.462c-0.316,9.725,1.914,16.296,1.914,16.296
						l23.789-30.001L1479.047,606.364z"/>
					<path style="fill:#F48C7F;" d="M1468.784,625.906c-0.257,3.409,1.142,6.293,3.122,6.443c1.982,0.15,3.796-2.492,4.053-5.901
						c0.258-3.409-1.141-6.294-3.122-6.443C1470.855,619.856,1469.041,622.498,1468.784,625.906z"/>
					<path style="fill:#F7A491;" d="M1505.151,618.616c0.56-0.134,1.247,28.13-6.771,34.995c-8.018,6.866-22.26,7.824-26.6,1.234
						c-4.8-7.289-1.2-37.185,10.818-43.829C1494.617,604.371,1505.151,618.616,1505.151,618.616z"/>
					<path style="fill:#184655;" d="M1506.77,601.036c6.397,5.319,9.53,9.245,14.018,18.883
						c5.518,11.849-4.479,24.539-13.006,29.701c-8.526,5.163-9.09,11.148-9.09,11.148l-0.453-3.669
						c-0.206-1.341-0.186-2.434,0.022-3.386c0.244-1.12,0.729-2.049,1.152-3.018c0.695-1.594,2.921-7.053,3.807-8.501
						c2.337-3.82,2.796-4.646,1.5-8.184c-0.998-2.725-0.085-8.811-1.636-13.302l-11.717-2.208c0,0-7.337-1.561-11.13-5.713
						C1469.346,600.869,1489.89,586.721,1506.77,601.036z"/>
					<path style="fill:#F7A491;" d="M1502.029,637.176c-1.354,3.139-0.972,6.322,0.853,7.11c1.824,0.786,4.4-1.12,5.754-4.259
						c1.354-3.139,0.973-6.322-0.853-7.109C1505.959,632.13,1503.383,634.037,1502.029,637.176z"/>
				</g>
			</g>
		</g>
		<g>
			<defs>
				
					<ellipse id="SVGID_00000104681321094875123890000018264670619413467547_" transform="matrix(0.9665 -0.2567 0.2567 0.9665 -163.9447 130.6765)" cx="418.626" cy="693.381" rx="84.74" ry="84.74"/>
			</defs>
			<clipPath id="SVGID_00000003786687726752823220000017418266337469719470_">
				<use xlink:href="#SVGID_00000104681321094875123890000018264670619413467547_"  style="overflow:visible;"/>
			</clipPath>
			<g style="clip-path:url(#SVGID_00000003786687726752823220000017418266337469719470_);">
				<path style="fill:#F7CC7F;" d="M269.898,748.417c0,0,29.915-7.995,30.267-5.584c7.713,52.792,11.057,71.87,12.142,72.392
					c3.698,1.78,50.902-43.711,59.446-46.935c4.087-1.542,8.582-1.42,12.887-1.406c10.265,0.034,12.291,0.019,12.291,0.019
					c0.294,0.01,0.376,0.015,0.376,0.015l0.198,9.649c-11.285,10.702-22.368,217.358-24.599,217.312
					c-2.493-0.051-49.391-0.303-47.162-4.215c0,0,11.337-63.642,20.255-105.597c2.994-14.084,11.358-43.527,11.358-43.527
					c-11.465,6.131-56.26,29.655-63.529,26.892C271.216,858.84,269.898,748.417,269.898,748.417z"/>
				<path style="fill:#F7CC7F;" d="M358.511,874.089c5.144-25.315,18.306-66.856,22.158-76.274
					c8.847-21.63,16.296-30.802,16.296-30.802l35.027,1.037c0,0,0.81,0.224,1.055,0.262c2.863,0.454,2.949,102.456,1.406,140.593
					c-1.543,38.139-10.007,87.77-10.007,87.77l-9.994-0.948c-0.165,5.144-0.279,8.533-0.279,8.533
					c-50.678,8.936-78.971-16.047-78.971-16.047S351.841,906.911,358.511,874.089z"/>
				<path style="fill:#F7CC7F;" d="M431.993,768.049c0,0,34.637-2.525,43.477-6.807c5.361-2.597,48.978-39.671,48.978-39.671
					l-3.022-96.122l31.275-3.206c0,0,19.036,105.834,13.713,117.614c-5.497,12.164-69.424,63.324-81.906,85.123
					c-7.191,12.56-0.368,183.064-2.701,184.641c-16.646,9.227-86.617,17.395-85.529,12.034
					C426.342,873.521,431.993,768.049,431.993,768.049z"/>
				<path style="fill:#BF7154;" d="M430.189,737.192l1.804,30.857c0,0-21.619,39.609-33.387,34.477
					c-9.874-4.307-1.994-34.211-1.994-34.211s1.51-6.85,3.648-14.728c1.494-5.505,2.699-11.459,2.485-15.797
					C402.223,727.241,430.189,737.192,430.189,737.192z"/>
				<path style="fill:#A3573C;" d="M402.745,737.79c-0.521-10.549,27.444-0.598,27.444-0.598l0.177,3.015
					c-0.897,1.43-1.893,2.648-2.999,3.595c-7.285,6.239-17.978,9.242-26.757,8.468C401.936,747.148,402.942,741.784,402.745,737.79z
					"/>
				<g>
					<path style="fill:#184655;" d="M401.29,667.462c0,0-11.082,17.697-11.56,32.357c-0.477,14.661,2.885,24.568,2.885,24.568
						l35.866-45.23L401.29,667.462z"/>
					<path style="fill:#A3573C;" d="M385.819,696.925c-0.387,5.14,1.72,9.489,4.707,9.714c2.987,0.226,5.723-3.758,6.11-8.897
						c0.387-5.14-1.72-9.488-4.707-9.714C388.941,687.802,386.206,691.786,385.819,696.925z"/>
					<path style="fill:#BF7154;" d="M440.647,685.934c0.844-0.203,1.879,42.409-10.208,52.76
						c-12.088,10.351-33.56,11.795-40.102,1.86c-7.236-10.989-1.809-56.061,16.309-66.078
						C424.765,664.458,440.647,685.934,440.647,685.934z"/>
					<path style="fill:#184655;" d="M443.086,659.43c9.645,8.019,14.368,13.938,21.133,28.467
						c8.318,17.865-6.753,36.997-19.608,44.779c-12.854,7.783-13.704,16.807-13.704,16.807l-0.684-5.531
						c-0.31-2.023-0.28-3.669,0.034-5.105c0.369-1.688,1.101-3.089,1.738-4.549c1.048-2.403,4.403-10.633,5.739-12.817
						c3.523-5.759,4.215-7.004,2.261-12.338c-1.504-4.107-0.128-13.283-2.465-20.055l-17.666-3.328c0,0-11.061-2.355-16.78-8.612
						C386.665,659.177,417.638,637.847,443.086,659.43z"/>
					<path style="fill:#BF7154;" d="M435.94,713.915c-2.041,4.733-1.465,9.532,1.285,10.719c2.75,1.187,6.635-1.688,8.676-6.42
						c2.04-4.732,1.465-9.531-1.285-10.718C441.865,706.308,437.981,709.182,435.94,713.915z"/>
				</g>
			</g>
		</g>
		<g>
			<defs>
				<path id="SVGID_00000061466366270975841130000006580834212158685825_" d="M837.599,353.78c0,38.63,31.316,69.946,69.946,69.946
					c38.63,0,69.946-31.316,69.946-69.946c0-38.629-31.316-69.945-69.946-69.945C868.915,283.835,837.599,315.15,837.599,353.78z"/>
			</defs>
			<clipPath id="SVGID_00000060716296587224953840000005757523873410611602_">
				<use xlink:href="#SVGID_00000061466366270975841130000006580834212158685825_"  style="overflow:visible;"/>
			</clipPath>
			<g style="clip-path:url(#SVGID_00000060716296587224953840000005757523873410611602_);">
				<path style="fill:#13375B;" d="M1030.31,399.208c0,0-24.693-6.599-24.984-4.61c-6.366,43.575-9.126,59.323-10.022,59.754
					c-3.053,1.47-42.016-36.08-49.068-38.741c-3.373-1.273-7.083-1.172-10.637-1.161c-8.474,0.028-10.145,0.015-10.145,0.015
					c-0.243,0.009-0.311,0.013-0.311,0.013l-0.163,7.965c9.315,8.833,18.463,179.412,20.304,179.375
					c2.058-0.043,40.768-0.25,38.929-3.479c0,0-9.358-52.531-16.719-87.162c-2.472-11.626-9.376-35.929-9.376-35.929
					c9.463,5.06,46.439,24.477,52.439,22.198C1029.222,490.354,1030.31,399.208,1030.31,399.208z"/>
				<path style="fill:#466EB6;" d="M957.166,502.94c-4.246-20.896-15.11-55.185-18.29-62.958
					c-7.302-17.855-13.451-25.425-13.451-25.425l-28.912,0.855c0,0-0.669,0.186-0.871,0.218c-2.363,0.374-2.434,84.568-1.16,116.049
					c1.273,31.481,8.26,72.447,8.26,72.447l8.249-0.783c0.136,4.247,0.231,7.043,0.231,7.043
					c41.831,7.376,65.184-13.247,65.184-13.247S962.672,530.033,957.166,502.94z"/>
				<path style="fill:#13375B;" d="M896.513,415.413c0,0-28.59-2.084-35.887-5.618c-4.425-2.144-40.428-32.745-40.428-32.745
					l2.494-79.341l-25.815-2.646c0,0-15.713,87.358-11.319,97.081c4.537,10.04,57.305,52.269,67.607,70.262
					c5.935,10.366,0.304,151.106,2.229,152.407c13.741,7.615,71.496,14.358,70.599,9.933
					C901.176,502.472,896.513,415.413,896.513,415.413z"/>
				<path style="fill:#F7A491;" d="M898.001,389.942l-1.488,25.47c0,0,17.845,32.694,27.559,28.458
					c8.15-3.555,1.646-28.239,1.646-28.239s-1.247-5.653-3.011-12.156c-1.233-4.545-2.229-9.458-2.052-13.04
					C921.085,381.729,898.001,389.942,898.001,389.942z"/>
				<path style="fill:#F47458;" d="M920.654,390.436c0.431-8.707-22.653-0.494-22.653-0.494l-0.145,2.489
					c0.74,1.181,1.563,2.186,2.476,2.968c6.013,5.15,14.839,7.628,22.086,6.99C921.322,398.161,920.491,393.733,920.654,390.436z"/>
				<g>
					<path style="fill:#F47458;" d="M921.854,332.386c0,0,9.148,14.607,9.542,26.709c0.393,12.102-2.381,20.279-2.381,20.279
						l-29.604-37.334L921.854,332.386z"/>
					<path style="fill:#F48C7F;" d="M934.625,356.706c0.32,4.242-1.42,7.832-3.886,8.018c-2.465,0.186-4.724-3.102-5.044-7.344
						c-0.319-4.242,1.42-7.832,3.886-8.019C932.048,349.175,934.306,352.463,934.625,356.706z"/>
					<path style="fill:#F7A491;" d="M889.369,347.633c-0.696-0.167-1.551,35.004,8.426,43.549
						c9.977,8.544,27.701,9.736,33.101,1.535c5.973-9.071,1.494-46.274-13.462-54.542
						C902.478,329.906,889.369,347.633,889.369,347.633z"/>
					<path style="fill:#F47458;" d="M887.356,325.756c-7.962,6.619-11.86,11.505-17.444,23.499
						c-6.866,14.746,5.574,30.538,16.185,36.962c10.61,6.424,11.312,13.873,11.312,13.873l0.564-4.566
						c0.256-1.669,0.231-3.029-0.028-4.213c-0.304-1.393-0.909-2.55-1.434-3.755c-0.865-1.984-3.634-8.777-4.737-10.58
						c-2.908-4.754-3.479-5.781-1.866-10.184c1.242-3.389,0.106-10.964,2.034-16.554l14.582-2.747c0,0,9.131-1.942,13.851-7.108
						C933.928,325.548,908.361,307.941,887.356,325.756z"/>
					<path style="fill:#F7A491;" d="M893.254,370.729c1.684,3.906,1.21,7.867-1.061,8.847c-2.271,0.979-5.477-1.393-7.161-5.299
						c-1.685-3.906-1.209-7.868,1.061-8.847C888.364,364.45,891.57,366.823,893.254,370.729z"/>
				</g>
			</g>
		</g>
		<g>
			<defs>
				
					<ellipse id="SVGID_00000005246108536967094730000007299650562491106697_" transform="matrix(0.9239 -0.3827 0.3827 0.9239 -221.8097 539.407)" cx="1244.989" cy="827.261" rx="41.058" ry="41.058"/>
			</defs>
			<clipPath id="SVGID_00000092415934032655005650000012526514794884761770_">
				<use xlink:href="#SVGID_00000005246108536967094730000007299650562491106697_"  style="overflow:visible;"/>
			</clipPath>
			<g style="clip-path:url(#SVGID_00000092415934032655005650000012526514794884761770_);">
				<path style="fill:#F7CC7F;" d="M1172.927,853.926c0,0,14.495-3.873,14.665-2.706c3.737,25.578,5.357,34.822,5.883,35.075
					c1.792,0.863,24.663-21.178,28.802-22.74c1.98-0.747,4.158-0.688,6.244-0.682c4.974,0.017,5.956,0.009,5.956,0.009
					c0.142,0.006,0.182,0.008,0.182,0.008l0.096,4.675c-5.468,5.185-10.838,105.313-11.918,105.291
					c-1.208-0.025-23.931-0.146-22.852-2.042c0,0,5.493-30.836,9.814-51.164c1.451-6.824,5.504-21.09,5.504-21.09
					c-5.556,2.971-27.26,14.369-30.781,13.03C1173.565,907.429,1172.927,853.926,1172.927,853.926z"/>
				<path style="fill:#466EB6;" d="M1215.862,914.817c2.493-12.266,8.87-32.393,10.736-36.956
					c4.287-10.48,7.896-14.924,7.896-14.924l16.971,0.502c0,0,0.393,0.109,0.512,0.127c1.387,0.22,1.429,49.642,0.681,68.12
					c-0.748,18.479-4.849,42.526-4.849,42.526l-4.842-0.459c-0.08,2.493-0.135,4.134-0.135,4.134
					c-24.554,4.33-38.263-7.775-38.263-7.775S1212.63,930.72,1215.862,914.817z"/>
				<path style="fill:#F7CC7F;" d="M1251.465,863.439c0,0,16.782-1.223,21.065-3.298c2.598-1.258,23.731-19.221,23.731-19.221
					l-1.465-46.573l15.154-1.554c0,0,9.223,51.279,6.644,56.986c-2.663,5.893-33.638,30.682-39.685,41.244
					c-3.484,6.084-0.179,88.697-1.309,89.461c-8.065,4.47-41.968,8.428-41.441,5.831
					C1248.728,914.542,1251.465,863.439,1251.465,863.439z"/>
				<path style="fill:#F7A491;" d="M1250.591,848.488l0.874,14.951c0,0-10.475,19.191-16.177,16.705
					c-4.784-2.087-0.966-16.576-0.966-16.576s0.731-3.319,1.768-7.136c0.724-2.667,1.308-5.552,1.204-7.654
					C1237.041,843.667,1250.591,848.488,1250.591,848.488z"/>
				<path style="fill:#F47458;" d="M1237.294,848.777c-0.253-5.11,13.297-0.29,13.297-0.29l0.085,1.461
					c-0.435,0.693-0.917,1.283-1.453,1.742c-3.529,3.022-8.711,4.478-12.965,4.104
					C1236.901,853.312,1237.39,850.713,1237.294,848.777z"/>
				<g>
					<path style="fill:#13375B;" d="M1236.589,814.703c0,0-5.37,8.574-5.601,15.678c-0.23,7.103,1.398,11.904,1.398,11.904
						l17.377-21.915L1236.589,814.703z"/>
					<path style="fill:#F48C7F;" d="M1229.093,828.978c-0.188,2.49,0.834,4.598,2.281,4.706c1.447,0.11,2.772-1.82,2.96-4.31
						c0.188-2.49-0.833-4.597-2.28-4.707C1230.606,824.558,1229.281,826.488,1229.093,828.978z"/>
					<path style="fill:#F7A491;" d="M1255.658,823.653c0.409-0.099,0.911,20.547-4.946,25.563c-5.857,5.015-16.26,5.715-19.43,0.901
						c-3.506-5.324-0.876-27.163,7.902-32.016S1255.658,823.653,1255.658,823.653z"/>
					<path style="fill:#13375B;" d="M1256.84,810.811c4.674,3.886,6.962,6.753,10.24,13.793c4.03,8.656-3.272,17.925-9.5,21.697
						c-6.229,3.77-6.64,8.143-6.64,8.143l-0.331-2.68c-0.15-0.98-0.136-1.777,0.016-2.474c0.178-0.817,0.534-1.496,0.842-2.203
						c0.508-1.165,2.133-5.152,2.78-6.211c1.707-2.79,2.042-3.394,1.096-5.977c-0.729-1.991-0.062-6.436-1.194-9.718l-8.56-1.612
						c0,0-5.359-1.141-8.13-4.173C1229.503,810.688,1244.51,800.354,1256.84,810.811z"/>
					<path style="fill:#F7A491;" d="M1253.378,837.21c-0.989,2.293-0.71,4.618,0.623,5.193c1.333,0.575,3.214-0.817,4.204-3.11
						c0.988-2.292,0.71-4.618-0.623-5.193C1256.248,833.524,1254.366,834.917,1253.378,837.21z"/>
				</g>
			</g>
		</g>
		<g>
			<defs>
				<path id="SVGID_00000168837802158149424570000011765845171312789163_" d="M1712.033,897.783
					c0,27.357,22.177,49.535,49.534,49.535c27.356,0,49.534-22.178,49.534-49.535c0-27.357-22.178-49.533-49.534-49.533
					C1734.21,848.25,1712.033,870.426,1712.033,897.783z"/>
			</defs>
			<clipPath id="SVGID_00000083770404043002104380000014448892525331765654_">
				<use xlink:href="#SVGID_00000168837802158149424570000011765845171312789163_"  style="overflow:visible;"/>
			</clipPath>
			<g style="clip-path:url(#SVGID_00000083770404043002104380000014448892525331765654_);">
				<path style="fill:#F47458;" d="M1848.505,929.954c0,0-17.486-4.674-17.692-3.264c-4.509,30.858-6.464,42.011-7.098,42.316
					c-2.162,1.041-29.754-25.55-34.748-27.435c-2.39-0.901-5.017-0.83-7.533-0.822c-6.001,0.02-7.185,0.01-7.185,0.01
					c-0.172,0.007-0.22,0.01-0.22,0.01l-0.116,5.64c6.597,6.255,13.075,127.054,14.379,127.028
					c1.457-0.03,28.871-0.177,27.568-2.464c0,0-6.627-37.201-11.841-61.726c-1.75-8.233-6.639-25.443-6.639-25.443
					c6.701,3.583,32.887,17.333,37.135,15.719C1847.734,994.5,1848.505,929.954,1848.505,929.954z"/>
				<path style="fill:#466EB6;" d="M1796.707,1003.414c-3.007-14.797-10.7-39.08-12.952-44.585
					c-5.172-12.644-9.526-18.005-9.526-18.005l-20.475,0.605c0,0-0.474,0.131-0.617,0.155c-1.674,0.264-1.723,59.889-0.821,82.182
					c0.902,22.294,5.85,51.305,5.85,51.305l5.842-0.554c0.097,3.008,0.163,4.987,0.163,4.987c29.623,5.224,46.161-9.38,46.161-9.38
					S1800.605,1022.6,1796.707,1003.414z"/>
				<path style="fill:#F47458;" d="M1753.754,941.429c0,0-20.246-1.476-25.414-3.978c-3.134-1.518-28.63-23.19-28.63-23.19
					l1.767-56.187l-18.282-1.874c0,0-11.128,61.865-8.016,68.75c3.213,7.11,40.581,37.016,47.877,49.758
					c4.204,7.341,0.216,107.008,1.579,107.93c9.73,5.393,50.632,10.167,49.996,7.034
					C1757.057,1003.082,1753.754,941.429,1753.754,941.429z"/>
				<path style="fill:#F7A491;" d="M1754.809,923.392l-1.055,18.038c0,0,12.637,23.154,19.516,20.154
					c5.772-2.518,1.166-19.999,1.166-19.999s-0.883-4.003-2.133-8.608c-0.873-3.218-1.578-6.698-1.452-9.235
					C1771.155,917.576,1754.809,923.392,1754.809,923.392z"/>
				<path style="fill:#F47458;" d="M1770.851,923.741c0.305-6.166-16.042-0.35-16.042-0.35l-0.104,1.764
					c0.524,0.836,1.106,1.547,1.753,2.102c4.259,3.646,10.509,5.401,15.641,4.949
					C1771.323,929.212,1770.735,926.077,1770.851,923.741z"/>
				<g>
					<path style="fill:#184655;" d="M1771.701,882.633c0,0,6.478,10.345,6.756,18.914c0.279,8.57-1.686,14.361-1.686,14.361
						l-20.965-26.439L1771.701,882.633z"/>
					<path style="fill:#F48C7F;" d="M1780.744,899.855c0.227,3.004-1.006,5.546-2.752,5.678c-1.746,0.132-3.345-2.197-3.571-5.201
						c-0.226-3.004,1.006-5.546,2.752-5.678C1778.919,894.522,1780.518,896.85,1780.744,899.855z"/>
					<path style="fill:#F7A491;" d="M1748.694,893.43c-0.493-0.119-1.099,24.789,5.968,30.84c7.065,6.051,19.617,6.895,23.441,1.087
						c4.229-6.424,1.057-32.77-9.534-38.625C1757.979,880.877,1748.694,893.43,1748.694,893.43z"/>
					<path style="fill:#184655;" d="M1747.27,877.937c-5.639,4.688-8.399,8.148-12.354,16.641
						c-4.862,10.443,3.947,21.626,11.461,26.176c7.515,4.549,8.012,9.824,8.012,9.824l0.398-3.233
						c0.182-1.183,0.164-2.145-0.02-2.984c-0.215-0.986-0.644-1.806-1.016-2.659c-0.612-1.405-2.574-6.215-3.354-7.492
						c-2.06-3.366-2.464-4.094-1.321-7.212c0.879-2.401,0.074-7.765,1.44-11.723l10.326-1.946c0,0,6.466-1.376,9.809-5.033
						C1780.25,877.79,1762.145,865.321,1747.27,877.937z"/>
					<path style="fill:#F7A491;" d="M1751.446,909.786c1.193,2.767,0.856,5.572-0.751,6.266c-1.607,0.694-3.879-0.987-5.071-3.753
						c-1.192-2.767-0.856-5.571,0.751-6.265C1747.983,905.34,1750.254,907.02,1751.446,909.786z"/>
				</g>
			</g>
		</g>
		<g>
			<defs>
				
					<ellipse id="SVGID_00000068669144916466937070000007946703708376676252_" transform="matrix(0.3827 -0.9239 0.9239 0.3827 88.5428 1932.7404)" cx="1490.545" cy="900.113" rx="100.808" ry="100.808"/>
			</defs>
			<clipPath id="SVGID_00000021084407600489386430000013236704032139130241_">
				<use xlink:href="#SVGID_00000068669144916466937070000007946703708376676252_"  style="overflow:visible;"/>
			</clipPath>
			<g style="clip-path:url(#SVGID_00000021084407600489386430000013236704032139130241_);">
				<path style="fill:#13375B;" d="M1465.629,1019.891c0,0,22.713-30.342,31.006-44.7c8.295-14.359-5.647-5.011-19.889-8.789
					c-5.393-1.43-0.923-30.875-11.117-20.603c-16.726,16.853-33.493,53.363-33.493,53.363L1465.629,1019.891z"/>
				<path style="fill:#47637F;" d="M1468.082,943.786c14.69-4.453,42.213-6.783,42.213-6.783s17.251-2.805,22.857-1.59
					c8.251,1.786,23.741,2.604,25.184,38.417c1.031,25.629,3.949,89.035,6.875,131.854l-105.046,6.375
					C1464.918,1046.182,1454.174,948.001,1468.082,943.786z"/>
				<path style="fill:#F7A491;" d="M1495.933,906.399l16.498,30.34c0,0-12.428,22.15-24.184,22.741
					c-9.863,0.496-8.313-14.087-8.313-14.087s-1.552-18.853-6.286-27.299S1495.933,906.399,1495.933,906.399z"/>
				<path style="fill:#F47458;" d="M1494.428,918.549c-3.702,3.949-9.89,9.156-16.596,12.468c-0.976-4.734-2.334-9.622-4.185-12.922
					c-2.185-3.898,2.396-6.687,7.96-8.563c7.455-1.981,14.325-3.133,14.325-3.133l3.171,5.831
					C1498.297,914.276,1495.661,917.234,1494.428,918.549z"/>
				<g>
					<path style="fill:#F7A491;" d="M1487.457,855.29c0.68-0.485,16.953,37.442,9.894,51.088
						c-7.059,13.646-25.702,22.656-35.12,16.076c-10.416-7.278-21.809-49.738-9.246-65.25
						C1465.546,841.692,1487.457,855.29,1487.457,855.29z"/>
					<path style="fill:#F7CC7F;" d="M1453.083,834.465c12.795-0.899,22.697,4.318,26.456,6.67
						c5.678-0.88,13.996,0.079,25.268,10.708c13.858,13.07,11.694,32.423,3.025,44.036s-5.771,21.434-5.771,21.434l-3.165-4.616
						c-2.364-3.507-4.03-7.458-4.728-11.633c-0.418-2.505-0.629-5.279-0.223-7.722c1.069-6.442-8.348-7.905-12.013-11.996
						c-2.822-3.151-5.235-11.485-9.761-16.733l-4.68-3.664c0,0-9.534-3.919-16.724-0.064
						C1443.579,864.74,1436.666,835.621,1453.083,834.465z"/>
					<path style="fill:#F7A491;" d="M1484.398,888.215c1.258,4.83,4.538,8.158,7.328,7.433c2.789-0.725,4.03-5.228,2.772-10.058
						c-1.258-4.831-4.538-8.159-7.327-7.433C1484.383,878.882,1483.141,883.385,1484.398,888.215z"/>
				</g>
				<path style="fill:#FFFFFF;" d="M1471.127,903.876l-15.405,3.44c0,0,1.661,5.772,8.479,4.455
					C1472.516,910.165,1471.127,903.876,1471.127,903.876z"/>
				<path style="fill:#13375B;" d="M1521.145,1025.206c0,0,27.584-35.053,34.32-48.817c6.735-13.765-0.464-35.554-13.834-38.132
					c-13.37-2.58-52.087,60.302-52.087,60.302L1521.145,1025.206z"/>
			</g>
		</g>
		<g>
			<defs>
				<path id="SVGID_00000163042180120485373110000002581096991964507013_" d="M466.253,407.984
					c0,32.802,26.592,59.394,59.394,59.394c32.803,0,59.394-26.591,59.394-59.394c0-32.803-26.591-59.395-59.394-59.395
					C492.844,348.589,466.253,375.181,466.253,407.984z"/>
			</defs>
			<clipPath id="SVGID_00000082342140422065263050000001637329200700327586_">
				<use xlink:href="#SVGID_00000163042180120485373110000002581096991964507013_"  style="overflow:visible;"/>
			</clipPath>
			<g style="clip-path:url(#SVGID_00000082342140422065263050000001637329200700327586_);">
				<path style="fill:#96D9C9;" d="M540.327,478.554c0,0-13.382-17.877-18.269-26.337c-4.887-8.459,3.328-2.952,11.718-5.178
					c3.177-0.842,0.543-18.191,6.55-12.138c9.854,9.929,19.733,31.44,19.733,31.44L540.327,478.554z"/>
				<path style="fill:#50BFA5;" d="M538.881,433.714c-8.655-2.623-24.871-3.996-24.871-3.996s-10.165-1.653-13.467-0.938
					c-4.861,1.053-13.988,1.534-14.838,22.635c-0.607,15.1-2.327,52.458-4.05,77.686l61.891,3.757
					C540.746,494.044,547.076,436.198,538.881,433.714z"/>
				<path style="fill:#F7A491;" d="M522.472,411.687l-9.72,17.875c0,0,7.322,13.051,14.248,13.399
					c5.812,0.293,4.898-8.299,4.898-8.299s0.914-11.109,3.704-16.084C538.392,413.602,522.472,411.687,522.472,411.687z"/>
				<path style="fill:#F47458;" d="M523.359,418.845c2.182,2.328,5.827,5.395,9.778,7.346c0.575-2.789,1.375-5.669,2.465-7.613
					c1.287-2.297-1.411-3.94-4.69-5.045c-4.392-1.168-8.44-1.846-8.44-1.846l-1.868,3.435
					C521.079,416.328,522.633,418.07,523.359,418.845z"/>
				<g>
					<path style="fill:#F7A491;" d="M527.466,381.574c-0.4-0.286-9.989,22.061-5.829,30.1c4.159,8.039,15.143,13.349,20.692,9.471
						c6.137-4.287,12.849-29.305,5.448-38.443C540.376,373.562,527.466,381.574,527.466,381.574z"/>
					<path style="fill:#184655;" d="M547.719,369.305c-7.539-0.53-13.373,2.544-15.587,3.93c-3.345-0.518-8.247,0.046-14.887,6.31
						c-8.165,7.7-6.89,19.103-1.783,25.945c5.108,6.842,3.4,12.628,3.4,12.628l1.865-2.72c1.393-2.065,2.375-4.395,2.786-6.853
						c0.246-1.476,0.371-3.11,0.131-4.55c-0.63-3.796,4.918-4.657,7.078-7.068c1.663-1.857,3.085-6.767,5.75-9.858l2.757-2.159
						c0,0,5.618-2.309,9.854-0.038C553.318,387.142,557.391,369.985,547.719,369.305z"/>
					<path style="fill:#F7A491;" d="M529.268,400.974c-0.741,2.845-2.674,4.805-4.317,4.379c-1.643-0.428-2.375-3.081-1.633-5.926
						c0.741-2.846,2.674-4.807,4.317-4.379C529.278,395.474,530.009,398.127,529.268,400.974z"/>
				</g>
				<path style="fill:#FFFFFF;" d="M537.087,410.201l9.077,2.026c0,0-0.979,3.401-4.996,2.625
					C536.269,413.905,537.087,410.201,537.087,410.201z"/>
				<path style="fill:#96D9C9;" d="M507.618,481.686c0,0-16.253-20.653-20.221-28.763c-3.969-8.109,0.273-20.947,8.15-22.466
					c7.877-1.519,30.689,35.529,30.689,35.529L507.618,481.686z"/>
			</g>
		</g>
		<g>
			<defs>
				
					<ellipse id="SVGID_00000128481141756240695190000008728634668300179094_" transform="matrix(0.9975 -0.0709 0.0709 0.9975 -41.8636 56.5193)" cx="775.358" cy="618.069" rx="95.102" ry="95.102"/>
			</defs>
			<clipPath id="SVGID_00000028300318839584050750000003938156797110229166_">
				<use xlink:href="#SVGID_00000128481141756240695190000008728634668300179094_"  style="overflow:visible;"/>
			</clipPath>
			<g style="clip-path:url(#SVGID_00000028300318839584050750000003938156797110229166_);">
				<path style="fill:#8CA5D2;" d="M832.1,656.646c1.739,0.072,6.504,1.667,13.474,14.837c8.9,16.818,21.907,67.625,21.907,67.625
					l-38.826,14.459l-4.988-10.605l-8.215-81.642C815.452,661.321,831.618,656.625,832.1,656.646z"/>
				<path style="fill:#466EB6;" d="M780.777,649.322c11.102,0.014,38.572,3.253,51.323,7.327c0,0,9.367,80.504-8.433,141.677
					c-3.984,13.693,3.295,56.765,3.295,56.765l-115.045-1.518c0,0,13.629-104.128,8.495-120.946
					c-5.134-16.819-5.257-75.436-5.257-75.436s0.788-0.123,25.848-4.454C752.692,650.716,768.923,649.306,780.777,649.322z"/>
				<path style="fill:#F7A491;" d="M713.903,666.139c10.756-4.035,16.019,92.884,17.469,132.776
					c19.048,1.832,52.25,0.014,60.517-0.607c3.888-0.292,12.853-3.576,16.72-4.082c3.963-0.518,7.555-0.789,9.503-0.45
					c0.715,0.124,20.57,8.244,22.269,10.025c2.106,2.208,7.801,7.777,6.84,10.187c-0.961,2.408-10.952-6.712-10.952-6.712
					l-4.883-2.739c6.079,5.938,17.672,13.758,16.002,16.606c-1.629,2.777-12.087-5.159-19.541-10.568
					c6.394,5.774,14.336,16.108,12.506,17.718c-1.645,1.448-10.679-10.516-20.335-13.961c-3.578-1.276-7.144,2.259-9.959,2.687
					c-2.069,0.313-5.262,0.981-7.292,0.406l-10.454-2.964c-3.561,0.323-3.65,2.429-7.247,3.194
					c-4.175,0.889-11.025,1.825-16.342,3.124c-30.617,7.48-40.829,10.954-50.203,10.948
					C690.128,831.709,688.482,675.676,713.903,666.139z"/>
				<path style="fill:#8CA5D2;" d="M693.49,757.129c-2.015-40.863-1.72-91.227,21.186-99.819
					c9.038-3.39,24.971,16.996,22.106,100.649C724.553,758.969,706.601,759.781,693.49,757.129z"/>
				<g>
					<path style="fill:#0E2E35;" d="M806.59,550.997c-3.273-1.102-6.497-2.347-9.609-3.847c-3.518-1.697-8.077-3.684-10.956-4.128
						c-6.062-0.935-16.476-0.312-22.227,5.926c-7.165,7.772-19.896,1.404-17.331,42.11c2.903,46.075,28.522,41.018,29.144,40.238
						c0.622-0.779,22.849-29.477,22.849-29.477s7.772,17,7.772,16.376C806.231,617.593,845.914,564.24,806.59,550.997z"/>
					<path style="fill:#F7A491;" d="M787.141,634.699l2.212,16.463c0,0,4.954,23.719-1.42,28.292
						c-6.374,4.573-27.104-28.968-27.104-28.968l2.19-41.717L787.141,634.699z"/>
					<path style="fill:#F47458;" d="M762.311,622.29c5.265,14.229,17.805,22.975,26.706,26.368l-1.875-13.958l-24.123-25.93
						L762.311,622.29z"/>
					<path style="fill:#F7A491;" d="M785.832,563.372c13.506-2.18,25.62,8.681,25.282,22.201c-0.146,5.877-0.628,13.214-1.85,21.117
						c-2.937,19.004-15.902,35.74-24.477,34.246c-8.574-1.495-30.146-17.889-26.347-44.935
						C760.786,579.305,771.659,565.66,785.832,563.372z"/>
					<path style="fill:#F7A491;" d="M764.39,599.229c-0.724,4.179-4.071,7.086-7.477,6.493s-5.581-4.463-4.857-8.642
						c0.723-4.179,4.071-7.086,7.477-6.492C762.938,591.181,765.113,595.05,764.39,599.229z"/>
					<path style="fill:#0E2E35;" d="M759.532,590.588c0,0,10.366,2.576,14.213-4.092c3.847-6.667,17.603-21.055,35.089-15.089
						c17.486,5.966-15.388-14.504-16.787-14.504c-1.399,0-18.186-0.116-18.186-0.116s-12.94,10.644-13.406,11.814
						c-0.466,1.17-4.197,13.919-4.197,13.919L759.532,590.588z"/>
				</g>
				<path style="fill:#FFFFFF;" d="M778.498,618.405l18.862,3.607c0,0-1.799,7.105-10.14,5.759
					C777.05,626.131,778.498,618.405,778.498,618.405z"/>
			</g>
		</g>
		<g>
			<defs>
				
					<ellipse id="SVGID_00000109737574337653676080000012757891131341215624_" transform="matrix(0.7071 -0.7071 0.7071 0.7071 -328.7569 968.7439)" cx="1004.999" cy="881.217" rx="49.429" ry="49.429"/>
			</defs>
			<clipPath id="SVGID_00000117673932935991619710000004641379614127299237_">
				<use xlink:href="#SVGID_00000109737574337653676080000012757891131341215624_"  style="overflow:visible;"/>
			</clipPath>
			<g style="clip-path:url(#SVGID_00000117673932935991619710000004641379614127299237_);">
				<path style="fill:#FADFAE;" d="M1034.49,901.267c0.904,0.038,3.381,0.866,7.003,7.712c4.625,8.742,11.386,35.149,11.386,35.149
					l-20.18,7.515l-2.593-5.512l-4.27-42.434C1025.838,903.697,1034.24,901.257,1034.49,901.267z"/>
				<path style="fill:#F7CC7F;" d="M1007.815,897.461c5.77,0.008,20.048,1.691,26.675,3.808c0,0,4.868,41.842-4.383,73.637
					c-2.071,7.117,1.713,29.504,1.713,29.504l-59.795-0.789c0,0,7.084-54.121,4.415-62.863c-2.668-8.742-2.732-39.207-2.732-39.207
					s0.409-0.064,13.434-2.316C993.218,898.186,1001.654,897.453,1007.815,897.461z"/>
				<path style="fill:#F7A491;" d="M973.058,906.202c5.591-2.098,8.326,48.276,9.079,69.01c9.9,0.953,27.157,0.007,31.454-0.315
					c2.021-0.152,6.68-1.858,8.69-2.122c2.06-0.27,3.926-0.41,4.939-0.234c0.372,0.065,10.691,4.285,11.574,5.21
					c1.095,1.148,4.055,4.043,3.555,5.295c-0.499,1.252-5.692-3.489-5.692-3.489l-2.538-1.424c3.16,3.086,9.185,7.151,8.317,8.631
					c-0.846,1.443-6.282-2.681-10.156-5.493c3.323,3.002,7.451,8.373,6.5,9.21c-0.855,0.753-5.55-5.466-10.569-7.256
					c-1.86-0.664-3.713,1.174-5.176,1.396c-1.076,0.163-2.735,0.51-3.79,0.211l-5.434-1.541c-1.852,0.167-1.897,1.262-3.767,1.66
					c-2.17,0.462-5.73,0.949-8.494,1.623c-15.913,3.888-21.221,5.694-26.093,5.691C960.7,992.257,959.845,911.158,973.058,906.202z"
					/>
				<path style="fill:#FADFAE;" d="M962.447,953.494c-1.047-21.238-0.894-47.415,11.012-51.881
					c4.697-1.763,12.979,8.833,11.489,52.312C978.593,954.449,969.262,954.872,962.447,953.494z"/>
				<g>
					<path style="fill:#0E2E35;" d="M1021.232,846.356c-1.701-0.573-3.377-1.219-4.994-2c-1.828-0.882-4.198-1.914-5.694-2.145
						c-3.151-0.486-8.564-0.162-11.553,3.08c-3.724,4.041-10.341,0.73-9.008,21.888c1.509,23.947,14.824,21.319,15.147,20.914
						c0.323-0.406,11.876-15.321,11.876-15.321s4.039,8.836,4.039,8.513C1021.045,880.969,1041.67,853.239,1021.232,846.356z"/>
					<path style="fill:#BF7154;" d="M1011.123,889.861l1.149,8.556c0,0,2.575,12.329-0.737,14.706
						c-3.313,2.377-14.088-15.057-14.088-15.057l1.138-21.683L1011.123,889.861z"/>
					<path style="fill:#96482A;" d="M998.217,883.41c2.736,7.396,9.254,11.942,13.88,13.705l-0.975-7.254l-12.538-13.478
						L998.217,883.41z"/>
					<path style="fill:#BF7154;" d="M1010.442,852.788c7.02-1.132,13.316,4.512,13.141,11.54c-0.076,3.055-0.327,6.869-0.961,10.975
						c-1.526,9.878-8.266,18.576-12.722,17.8c-4.456-0.777-15.668-9.297-13.694-23.354
						C997.425,861.069,1003.076,853.978,1010.442,852.788z"/>
					<path style="fill:#BF7154;" d="M999.298,871.425c-0.376,2.171-2.116,3.683-3.886,3.375c-1.77-0.309-2.9-2.32-2.524-4.492
						c0.376-2.172,2.116-3.683,3.886-3.374C998.544,867.242,999.674,869.253,999.298,871.425z"/>
					<path style="fill:#0E2E35;" d="M996.773,866.934c0,0,5.388,1.338,7.387-2.126c2-3.466,9.149-10.943,18.238-7.843
						c9.088,3.101-7.998-7.539-8.725-7.539c-0.727,0-9.452-0.06-9.452-0.06s-6.725,5.533-6.968,6.141
						c-0.243,0.607-2.181,7.234-2.181,7.234L996.773,866.934z"/>
				</g>
				<path style="fill:#FFFFFF;" d="M1006.631,881.392l9.803,1.875c0,0-0.935,3.693-5.27,2.994
					C1005.878,885.407,1006.631,881.392,1006.631,881.392z"/>
			</g>
		</g>
		<g>
			<defs>
				
					<ellipse id="SVGID_00000012437890332607098530000015515754982349745083_" transform="matrix(0.2898 -0.9571 0.9571 0.2898 1028.6461 2130.4487)" cx="1949.83" cy="372.118" rx="67.169" ry="67.169"/>
			</defs>
			<clipPath id="SVGID_00000103241815435888709900000013300414934736221836_">
				<use xlink:href="#SVGID_00000012437890332607098530000015515754982349745083_"  style="overflow:visible;"/>
			</clipPath>
			<g style="clip-path:url(#SVGID_00000103241815435888709900000013300414934736221836_);">
				<path style="fill:#B75742;" d="M1895.584,469.184l31.309,3.196c0,0,1.437-25.668,1.437-37.911
					c0-14.854-1.265-33.986-3.059-33.575c-5.035,1.156-11.815,3.935-15.853,9.482
					C1895.45,429.568,1895.584,469.184,1895.584,469.184z"/>
				<path style="fill:#F47458;" d="M1910.965,431.849c-0.655,4.53-12.691,127.653-12.691,127.653
					c57.008,27.533,88.463,4.905,88.463,4.905s-1.865-86.459,0.371-98.227c1.479-7.786,3.323-59.522-1.723-60.971
					c-6.474-1.859-13.897-3.834-21.989-4.674c-6.907-0.717-33.739-1.133-38.539,0.48
					C1924.856,401.014,1913.723,412.804,1910.965,431.849z"/>
				<path style="fill:#F7A491;" d="M1955.774,376.734l3.675,24.219c0,0-13.42,28.836-21.431,26.336
					c-6.722-2.099-2.587-27.615-2.587-27.615s3.664-13.702,2.565-20.559C1936.898,372.258,1955.774,376.734,1955.774,376.734z"/>
				<path style="fill:#F47458;" d="M1937.997,379.116c-1.099-6.858,17.776-2.381,17.776-2.381l0.306,2.008
					c-0.553,1.344-1.228,2.495-2.048,3.376c-4.216,4.538-10.806,7.264-16.504,7.469
					C1938.098,385.89,1938.447,381.927,1937.997,379.116z"/>
				<g>
					<path style="fill:#F7A491;" d="M1958.871,342.47c0.533-0.193,4.276,27.584-2.826,35.227
						c-7.103,7.644-20.941,10.145-25.905,4.125c-5.49-6.658-5.214-36.513,5.829-44.375
						C1947.011,329.585,1958.871,342.47,1958.871,342.47z"/>
					<path style="fill:#0E2E35;" d="M1940.172,322.588c8.535,1.74,14.064,6.957,16.096,9.18c3.875,0.457,9.143,2.599,14.583,11.605
						c6.688,11.074,1.749,23.343-6.037,29.363c-7.786,6.02-7.678,12.974-7.678,12.974l-1.23-3.598
						c-0.908-2.724-1.279-5.614-0.976-8.471c0.183-1.714,0.55-3.569,1.26-5.093c1.872-4.021-4.022-6.692-5.676-10.036
						c-1.272-2.575-1.334-8.467-3.34-12.725l-2.395-3.25c0,0-5.525-4.299-10.931-3.086
						C1928.443,340.666,1929.221,320.355,1940.172,322.588z"/>
					<path style="fill:#F7A491;" d="M1950.877,363.456c-0.057,3.389,1.484,6.163,3.441,6.197c1.957,0.033,3.588-2.687,3.645-6.076
						c0.057-3.389-1.484-6.163-3.441-6.197C1952.565,357.346,1950.934,360.067,1950.877,363.456z"/>
				</g>
				<path style="fill:#FFFFFF;" d="M1939.343,371.286l-10.706-0.554c0,0,0.036,4.079,4.737,4.458
					C1939.106,375.654,1939.343,371.286,1939.343,371.286z"/>
				<path style="fill:#F8A492;" d="M2043.197,560.806c0.035-0.263,0.04-0.528,0.014-0.793c-0.84-8.526-7.919-80.125-9.111-83.17
					c-1.076-2.747-32.828-48.159-32.828-48.159l-15.605,21.261l30.535,40.73c0.686,2.589,11.702,50.922,11.702,50.922
					s2.259,8.81,3.271,14.087c-0.462,1.272-0.914,2.473-1.316,3.459c-1.012,2.105-2.205,3.833-3.289,5.287
					c-1.365,1.83-3.622,5.827-3.9,6.896c-0.323,1.243-0.906,3.828-1.236,5.387c-0.33,1.56-0.781,3.376-0.857,4.223
					c-0.047,0.515-0.578,1.542-0.986,2.268c-0.609,1.081,0.43,2.358,1.607,1.966c1.109-0.368,1.974-1.804,2.506-2.699
					c1.502-2.525,2.304-7.138,2.678-6.894c0.373,0.244,1.689,8.069,1.898,8.953c0.208,0.886,1.787,9.971,2.679,11.631
					c0.892,1.661,2.071,1.383,2.384,0.343c0.27-0.896-0.984-13.608-0.984-13.608s-0.156-1.622,0.555-1.115
					c0.71,0.507,1.87,12.046,2.364,13.735c0.494,1.688,1.62,2.584,2.575,1.227c1.162-1.65-0.836-13.891-0.836-13.891
					s-0.224-1.539,0.434-1.396c0.657,0.143,1.48,9.979,1.992,10.83c0.512,0.85,1.803,1.156,2.418-0.263
					c0.726-1.67-1.152-12.582-1.152-12.582s0.092-0.869,0.502-0.581c0.41,0.289,1.711,8.622,2.56,9.394
					c0.712,0.648,1.306,0.02,1.306,0.02c1.556-1.063-0.83-8.99-0.807-12.931c0.023-3.942-1.805-8.372-1.26-13.065
					C2043.041,561.984,2043.137,561.261,2043.197,560.806z"/>
				<path style="fill:#F47458;" d="M2026.078,457.445l-27.122,18.209c0,0-15.287-22.747-23.493-30.846
					c-10.279-10.145,3.744-41.222,10.367-39.465C2000.645,409.277,2026.078,457.445,2026.078,457.445z"/>
			</g>
		</g>
		<g>
			<defs>
				<path id="SVGID_00000093143785141875375550000007774358150072929174_" d="M2261.401,636.748c0,31.829-25.802,57.63-57.63,57.63
					c-31.829,0-57.631-25.802-57.631-57.63c0-31.828,25.802-57.631,57.631-57.631C2235.6,579.117,2261.401,604.92,2261.401,636.748z
					"/>
			</defs>
			<clipPath id="SVGID_00000002383082528935528390000012345104680561899666_">
				<use xlink:href="#SVGID_00000093143785141875375550000007774358150072929174_"  style="overflow:visible;"/>
			</clipPath>
			<g style="clip-path:url(#SVGID_00000002383082528935528390000012345104680561899666_);">
				<path style="fill:#47637F;" d="M2172.512,684.638c8.051-24.422,17.054-23.381,17.054-23.381l-6.962,51.345
					c-4.973-1.36-11.445-4.386-16.412-5.789C2167.838,699.093,2170.528,690.653,2172.512,684.638z"/>
				<path style="fill:#F7CC7F;" d="M2175.012,621.133c2.463-16.061,16.995-27.61,32.192-19.817c3.418,1.753,8.046,5.31,10.406,8.34
					c6.382,8.191,8.015,18.309,14.606,26.262c-2.421,1.837-5.35,3.762-8.838,5.614l-4.104-5.474l1.413,6.83
					c-10.202,4.882-24.611,8.911-44.319,8.796C2173.892,640.526,2173.697,629.701,2175.012,621.133z"/>
				<path style="fill:#13375B;" d="M2210.169,656.872c0,0,13.07-1.707,18.938,4.703c5.869,6.411-11.254,57.886-12.321,66.045
					c-1.067,8.158,7.494,28.613,7.494,28.613s-37.374,7.025-47.333,0.42c0,0-0.593-57.429,0.475-63.258
					c1.066-5.828,9.958-29.529,12.093-31.86C2191.648,659.203,2210.169,656.872,2210.169,656.872z"/>
				<path style="fill:#F7A491;" d="M2205.23,637.006c0,0,0.077,0.438,0.215,1.183c0.662,3.575,3.209,15.432,4.93,18.692
					c2.078,3.939-7.119,16.503-15.971,14.969c-2.636-0.456,2.227-11.544,1.993-12.718c-0.447-2.248-1.054-5.315-1.675-8.46
					c-0.35-1.773-0.705-3.573-1.038-5.263c-0.946-4.805-1.719-8.734-1.719-8.734L2205.23,637.006z"/>
				<path style="opacity:0.5;fill:#F47458;" d="M2205.445,638.19c-0.138-0.745-0.215-1.183-0.215-1.183l-13.265-0.332
					c0,0,0.772,3.929,1.719,8.734c0.331,1.681,0.685,3.47,1.032,5.233c2.048-0.302,4.188-1.3,6.334-3.182
					c2.339-2.052,3.872-4.519,4.797-7.152C2205.685,639.468,2205.548,638.744,2205.445,638.19z"/>
				<path style="fill:#F7A491;" d="M2196.303,606.786c0,0,6.252-0.724,10.172,4.356c3.919,5.081,8.143,20.792-1.593,29.334
					c-9.735,8.542-19.355-1.127-20.781-11.378C2182.674,618.845,2182.119,606.416,2196.303,606.786z"/>
				<path style="fill:#F7A491;" d="M2181.22,628.945c1.162,2.264,3.113,3.519,4.357,2.8c1.244-0.718,1.311-3.135,0.148-5.398
					c-1.162-2.264-3.112-3.519-4.356-2.801C2180.125,624.264,2180.059,626.682,2181.22,628.945z"/>
				<path style="fill:#F7CC7F;" d="M2195.604,605.107c0,0,8.354,14.94,14.328,15.631c5.977,0.69,6.761,8.628,6.761,8.628
					s-2.137-18.292-8.052-21.82C2202.725,604.018,2195.604,605.107,2195.604,605.107z"/>
				<path style="fill:#F7A491;" d="M2208.365,624.491c-0.486,2.653,0.491,5.086,2.184,5.435c1.691,0.348,3.456-1.521,3.942-4.174
					c0.486-2.653-0.491-5.086-2.183-5.435C2210.616,619.969,2208.852,621.838,2208.365,624.491z"/>
				<path style="fill:#FFFFFF;" d="M2201.005,634.128l-9.039,1.779c0,0,0.884,3.392,4.881,2.725
					C2201.722,637.819,2201.005,634.128,2201.005,634.128z"/>
				<path style="fill:#47637F;" d="M2226.748,659.792c0,0,4.934,2.339,9.27,12.443c4.122,9.601,5.333,57.519,5.333,57.519
					l-17.979-2.969l-6.681-22.099c-2.067-8.749-4.394-28.941,4.235-40.748C2223.228,660.787,2225.348,658.885,2226.748,659.792z"/>
			</g>
		</g>
		<g>
			<defs>
				<path id="SVGID_00000065074355012432462490000007423257555652914613_" d="M664.197,930.671
					c0,37.403-30.321,67.724-67.724,67.724c-37.403,0-67.725-30.321-67.725-67.724c0-37.403,30.321-67.724,67.725-67.724
					C633.875,862.947,664.197,893.268,664.197,930.671z"/>
			</defs>
			<clipPath id="SVGID_00000046303614858520866060000007325102519165017003_">
				<use xlink:href="#SVGID_00000065074355012432462490000007423257555652914613_"  style="overflow:visible;"/>
			</clipPath>
			<g style="clip-path:url(#SVGID_00000046303614858520866060000007325102519165017003_);">
				<path style="fill:#F7CC7F;" d="M628.869,921.028c0.392-9.45-0.999-18.782-5.227-27.582c-3.638-7.57-12.64-11.865-20.848-11.876
					c-26.065-0.034-29.38,34.406-45.972,47.69c-5.07,4.059-10.736,7.365-15.534,11.742c-17.714,16.164-9.735,46.085,6.531,60.256
					c11.287,9.833,29.028,15.42,42.939,7.733c7.262-4.013,12.775-10.683,16.702-17.991c5.574-10.372,9.167-22.34,13.132-33.396
					C624.812,945.838,628.348,933.589,628.869,921.028z"/>
				<path style="fill:#F47458;" d="M619.121,1008.012c0,0-19.466-19.961-24.476-28.633c-5.01-8.671,3.411-3.026,12.012-5.308
					c3.257-0.864,2.433-19.951,8.59-13.747c10.102,10.179,22.802,27.978,22.802,27.978L619.121,1008.012z"/>
				<path style="fill:#B75742;" d="M591.444,951.568c0,0-17.47-3.449-25.442,3.212c-7.972,6.66,1.707,65.878,1.7,75.695
					c-0.008,9.817-5.474,35.455-5.474,35.455s52.95,11.366,61.361-3.371c0,0,2.393-56.146,2.037-63.207
					c-0.356-7.06-8.207-35.935-10.377-39.027C613.078,957.232,591.444,951.568,591.444,951.568z"/>
				<path style="fill:#F7A491;" d="M591.334,924.544c0,0-0.092,0.522-0.257,1.411c-0.792,4.265-3.843,18.41-5.905,22.298
					c-2.491,4.699,8.528,19.687,19.134,17.858c3.157-0.545-2.669-13.772-2.389-15.173c0.536-2.682,1.263-6.341,2.007-10.093
					c0.419-2.116,0.844-4.262,1.243-6.278c1.134-5.731,2.06-10.419,2.06-10.419L591.334,924.544z"/>
				<path style="fill:#F47458;" d="M591.077,925.955c0.165-0.888,0.257-1.411,0.257-1.411l15.893-0.396c0,0-0.925,4.688-2.06,10.419
					c-0.397,2.005-0.819,4.138-1.236,6.243c-2.454-0.36-5.018-1.55-7.588-3.796c-2.802-2.449-4.639-5.391-5.748-8.532
					C590.791,927.481,590.955,926.617,591.077,925.955z"/>
				<path style="fill:#F7A491;" d="M602.031,888.493c0,0-7.49-0.864-12.186,5.197c-4.695,6.06-9.756,24.803,1.908,34.994
					c11.664,10.19,23.188-1.345,24.897-13.575C618.359,902.879,619.023,888.051,602.031,888.493z"/>
				<path style="fill:#F7CC7F;" d="M613.709,885.415c0,0-14.603,20.923-28.506,18.119l-0.387-8.926l1.282-3.381l7.045-4.524
					l11.447-2.609L613.709,885.415z"/>
				<path style="fill:#F7A491;" d="M620.101,914.928c-1.392,2.701-3.729,4.197-5.22,3.341c-1.49-0.856-1.57-3.739-0.178-6.441
					c1.392-2.701,3.729-4.197,5.22-3.341C621.414,909.344,621.493,912.227,620.101,914.928z"/>
				<path style="fill:#F7A491;" d="M587.58,909.614c0.582,3.165-0.589,6.067-2.616,6.483c-2.026,0.416-4.142-1.814-4.724-4.979
					c-0.582-3.166,0.588-6.068,2.615-6.483C584.882,904.22,586.997,906.449,587.58,909.614z"/>
				<path style="fill:#FFFFFF;" d="M606.539,921.949l-10.989-0.569c0,0,0.037,4.187,4.862,4.577
					C606.296,926.432,606.539,921.949,606.539,921.949z"/>
				<path style="fill:#FFFFFF;" d="M606.539,921.949l-10.989-0.569c0,0,0.037,4.187,4.862,4.577
					C606.296,926.432,606.539,921.949,606.539,921.949z"/>
				<path style="fill:#F47458;" d="M572.586,1007.313c0,0-11.465-25.415-13.205-35.277c-1.741-9.862,6.72-22.243,15.583-21.446
					c8.863,0.798,22.15,44.678,22.15,44.678L572.586,1007.313z"/>
			</g>
		</g>
	</g>
</g>
</svg>
