<?xml version="1.0" encoding="utf-8"?>
<!-- Generator: Adobe Illustrator 27.5.0, SVG Export Plug-In . SVG Version: 6.00 Build 0)  -->
<svg version="1.1" id="Layer_1" xmlns="http://www.w3.org/2000/svg" xmlns:xlink="http://www.w3.org/1999/xlink" x="0px" y="0px"
	 viewBox="0 0 5500 4500" style="enable-background:new 0 0 5500 4500;" xml:space="preserve">
<rect style="fill:#FFFFFF;" width="5500" height="4500"/>
<g>
	<g>
		<polygon style="opacity:0.8;fill:#BE8A80;" points="3114.719,1469.693 2737.28,1701.072 2767.673,1718.828 2720.634,1717.588 
			2708.568,1756.093 2787.965,1756.793 3055.559,1912.03 3045.977,1952.081 3165.814,1951.82 3476.291,1773.464 3485.881,1697.582 
					"/>
		<g>
			<g>
				<g>
					<polygon style="fill:#FFD790;" points="2742.673,1650.332 2742.116,1736.76 2708.568,1756.093 2709.125,1669.665 					"/>
				</g>
				<g>
					<polygon style="fill:#FFD790;" points="2709.125,1669.665 2708.568,1756.093 2676.923,1737.586 2677.479,1651.159 					"/>
				</g>
			</g>
			<g style="opacity:0.8;">
				<polygon style="fill:#BE8A80;" points="2742.673,1650.332 2742.116,1736.76 2708.568,1756.093 2708.871,1703.626 
					2677.242,1685.135 2677.479,1651.159 2709.125,1669.665 				"/>
			</g>
			<polygon style="opacity:0.2;fill:#BE8A80;" points="2708.871,1703.626 2708.568,1756.093 2676.923,1737.586 2677.242,1685.135 
							"/>
		</g>
		<g>
			<g>
				<g>
					<polygon style="fill:#FFD790;" points="3080.082,1846.32 3079.525,1932.748 3045.977,1952.081 3046.533,1865.653 					"/>
				</g>
				<g>
					<polygon style="fill:#FFD790;" points="3046.533,1865.653 3045.977,1952.081 3014.331,1933.574 3014.888,1847.146 					"/>
				</g>
			</g>
			<g style="opacity:0.8;">
				<polygon style="fill:#BE8A80;" points="3080.082,1846.32 3079.525,1932.748 3045.977,1952.081 3046.279,1899.614 
					3014.65,1881.122 3014.888,1847.146 3046.533,1865.653 				"/>
			</g>
			<polygon style="opacity:0.2;fill:#BE8A80;" points="3046.279,1899.614 3045.977,1952.081 3014.331,1933.574 3014.65,1881.122 			
				"/>
		</g>
		<g>
			<g>
				<g>
					<polygon style="fill:#FFD790;" points="3407.801,1657.15 3407.245,1743.578 3373.696,1762.911 3374.253,1676.483 					"/>
				</g>
				<g>
					<polygon style="fill:#FFD790;" points="3374.253,1676.483 3373.696,1762.911 3342.051,1744.404 3342.608,1657.976 					"/>
				</g>
			</g>
			<g style="opacity:0.8;">
				<polygon style="fill:#BE8A80;" points="3407.801,1657.15 3407.245,1743.578 3373.696,1762.911 3342.051,1744.404 
					3342.608,1657.976 3374.253,1676.483 				"/>
			</g>
		</g>
		<g>
			<g style="enable-background:new    ;">
				<g>
					<polygon style="fill:#FFD790;" points="3424.146,1625.335 3423.499,1675.12 3054.35,1889.411 3054.996,1839.627 					"/>
				</g>
				<g>
					<polygon style="fill:#FFD790;" points="3054.996,1839.627 3054.35,1889.411 2646.757,1650.237 2647.404,1600.452 					"/>
				</g>
				<g>
					<polygon style="fill:#FFD790;" points="3424.146,1625.335 3054.996,1839.627 2647.404,1600.452 3016.553,1386.161 					"/>
				</g>
			</g>
		</g>
		<g style="opacity:0.8;">
			<polygon style="fill:#BE8A80;" points="3424.146,1625.335 3423.499,1675.12 3054.35,1889.411 3054.996,1839.627 			"/>
		</g>
		<g style="opacity:0.2;">
			<polygon style="fill:#BE8A80;" points="3054.996,1839.627 3054.35,1889.411 2646.757,1650.237 2647.404,1600.452 			"/>
		</g>
	</g>
	<g>
		<polygon style="fill:#F6F3EE;" points="2840.115,1557.77 2840.158,1572.956 2947.508,1635.34 2947.465,1620.154 		"/>
		<polygon style="fill:#F6F3EE;" points="2947.465,1620.154 2947.508,1635.34 3088.089,1554.177 3088.046,1538.991 		"/>
		<polygon style="fill:#F6F3EE;" points="2840.115,1557.77 2947.465,1620.154 3088.046,1538.991 3078.557,1533.476 
			2947.882,1608.921 2850.022,1552.05 		"/>
		<polygon style="fill:#8BBFD7;" points="2980.324,1186.182 3087.671,1248.564 3088.464,1527.756 2947.882,1608.921 
			2840.533,1546.537 2839.743,1267.345 		"/>
		<polygon style="opacity:0.8;fill:#C28E84;" points="2980.201,1190.933 2848.385,1267.487 2947.213,1324.978 3022.038,1281.619 		
			"/>
		<polygon style="opacity:0.2;fill:#C28E84;" points="2839.741,1267.345 2840.158,1546.275 2947.508,1608.659 2947.09,1329.73 		"/>
		<polygon style="opacity:0.2;fill:#C28E84;" points="2840.115,1557.77 2840.158,1572.956 2947.508,1635.34 2947.465,1620.154 		"/>
		<polygon style="opacity:0.8;fill:#C28E84;" points="3155.363,1467.539 3088.292,1467.444 3087.671,1248.564 2947.09,1329.73 
			2947.882,1608.921 2966.932,1608.915 2947.465,1620.154 2947.508,1635.34 3370.045,1635.629 3388.606,1604.474 		"/>
	</g>
	<g>
		<polygon style="fill:#FFD790;" points="913.69,1881.159 916.629,2743.257 2604.58,1771.058 2601.641,908.961 		"/>
	</g>
	<polygon style="opacity:0.8;fill:#C28E84;" points="913.69,1881.159 915.578,2432.28 2603.54,1452.926 2601.641,908.961 	"/>
	<g>
		<polygon style="fill:#FFD790;" points="871.833,1857.074 913.69,1881.159 2601.641,908.961 2559.785,884.876 		"/>
	</g>
	<g>
		<polygon style="fill:#FFD790;" points="3195.676,3757.252 3196.558,4068.253 4878.297,3100.672 4877.416,2789.671 		"/>
	</g>
	<polygon style="fill:#FFD790;" points="3195.676,3757.252 915.569,2432.344 913.69,1881.159 871.833,1857.074 874.772,2719.172 
		3196.558,4068.253 	"/>
	<g>
		<path style="fill:#FFD790;" d="M4877.416,2789.671l-1681.74,967.581L915.578,2432.28l1681.909-967.604L4877.416,2789.671z
			 M3188.94,3693.114l1577.77-907.554L2604.222,1528.813l-1577.77,907.554L3188.94,3693.114L3188.94,3693.114z"/>
	</g>
	<g>
		<g>
			<polygon style="fill:#F2EFEA;" points="3188.954,3616.827 3188.94,3693.114 4766.71,2785.56 4766.708,2709.283 			"/>
		</g>
		<g>
			<polygon style="fill:#F6F3EE;" points="1026.45,2360.07 1026.453,2436.367 3188.94,3693.114 3188.954,3616.827 			"/>
		</g>
		<g style="opacity:0.2;">
			<polygon style="fill:#C28E84;" points="1026.45,2360.07 1026.453,2436.367 3188.94,3693.114 3188.954,3616.827 			"/>
		</g>
		<g>
			<polygon style="fill:#F6F3EE;" points="4766.708,2709.283 2603.54,1452.926 1026.45,2360.07 3188.954,3616.827 			"/>
		</g>
	</g>
	<g>
		<polygon style="fill:#FFA566;" points="2149.394,2943.908 2149.38,2977.985 3727.15,2070.432 3727.148,2036.364 		"/>
		<g>
			<polygon style="fill:#FFA566;" points="3188.954,3582.75 3188.94,3693.114 4766.71,2785.56 4766.708,2675.206 			"/>
		</g>
		<g>
			<polygon style="fill:#FFA566;" points="2149.38,2977.985 3188.954,3582.75 4766.708,2675.206 3727.15,2070.432 			"/>
		</g>
		<polygon style="fill:#FFA566;" points="1706.154,2686.032 2149.394,2943.908 2149.386,2977.957 3188.955,3582.75 
			3188.94,3693.114 1706.154,2831.035 		"/>
		<polygon style="fill:#FFA566;" points="1706.154,2686.032 2149.394,2943.908 3727.148,2036.364 3472.436,1888.174 
			3039.492,1919.079 		"/>
	</g>
	<polygon style="opacity:0.2;fill:#BE8A80;" points="1706.154,2686.032 2149.394,2943.908 2149.386,2977.957 3188.955,3582.75 
		3188.94,3693.114 1706.154,2831.035 	"/>
	<g style="opacity:0.8;">
		<polygon style="fill:#BE8A80;" points="2149.394,2943.908 2149.38,2977.985 2191.95,2977.726 3748.465,2082.645 3727.15,2070.432 
			3727.148,2036.364 		"/>
	</g>
	<polygon style="opacity:0.8;fill:#BE8A80;" points="915.578,2432.28 1026.453,2436.367 1026.326,2368.54 	"/>
	<polygon style="opacity:0.8;fill:#C28E84;" points="1445.569,2381.011 1026.193,2360.107 2603.54,1452.926 2803.699,1569.245 	"/>
	<polygon style="opacity:0.8;fill:#C28E84;" points="5253.547,3122.606 4877.73,2904.795 4877.416,2789.671 4766.708,2725.476 
		4766.708,2675.206 3188.954,3582.75 3188.94,3693.114 3301.21,3696.533 3195.676,3757.252 3196.557,4068.252 3566.033,4065.956 	
		"/>
	<polygon style="opacity:0.2;fill:#BE8A80;" points="3195.676,3757.252 915.578,2432.28 915.574,2433.84 913.69,1881.159 
		871.833,1857.074 874.772,2719.172 3196.557,4068.252 	"/>
	<g>
		<g>
			<g>
				<polygon style="fill:#F6F3EE;" points="2325.507,3080.006 2970.022,3452.006 4557.242,2508.332 3920.644,2136.641 				"/>
			</g>
			<polygon style="fill:#F6F3EE;" points="2970.022,3566.042 2325.429,3190.852 2273.237,3220.746 2917.83,3595.937 			"/>
			<polygon style="fill:#F6F3EE;" points="2917.83,3595.937 2273.237,3220.746 2273.989,3444.089 2918.582,3819.279 			"/>
			<polygon style="fill:#F6F3EE;" points="2970.022,3452.006 2325.507,3080.006 2325.429,3190.852 2970.022,3566.042 			"/>
			<polygon style="opacity:0.2;fill:#BE8A80;" points="2917.83,3595.937 2273.237,3220.746 2273.989,3444.089 2918.582,3819.279 			
				"/>
			<polygon style="opacity:0.2;fill:#BE8A80;" points="2970.022,3452.006 2325.507,3080.006 2325.429,3190.852 2970.022,3566.042 
							"/>
			<polygon style="fill:#F6F3EE;" points="2917.835,3595.943 2918.573,3819.284 2939.749,3807.055 2939.059,3608.041 
				2991.243,3578.145 2991.243,3467.726 4542.469,2544.75 4557.224,2553.326 4557.241,2508.338 2970.084,3452.001 
				2970.019,3566.048 			"/>
			<polygon style="opacity:0.8;fill:#C28E84;" points="2917.835,3595.943 2918.573,3819.284 2927.487,3814.182 2959.803,3831.441 
				2959.325,3619.784 3011.509,3589.888 3011.509,3479.469 4562.675,2556.522 4557.224,2553.326 4557.241,2508.338 
				2970.084,3452.001 2970.019,3566.048 			"/>
		</g>
	</g>
	<g>
		<polygon style="fill:#F2EFEA;" points="1210.695,2201.511 1750.616,1890.355 1818.789,1890.355 2147.383,2081.325 
			2166.637,2125.741 2166.637,2191.007 2138.337,2228.058 1607.704,2533.846 1542.977,2533.846 1219.551,2346.913 
			1192.561,2304.156 1192.339,2246.097 		"/>
		<polygon style="opacity:0.2;fill:#BE8A80;" points="1192.339,2246.097 1192.561,2304.156 1542.977,2510.217 1542.977,2448.67 		
			"/>
		<polygon style="opacity:0.3;fill:#BE8A80;" points="1219.551,2346.913 1192.561,2304.156 1542.977,2510.217 1542.977,2533.846 		
			"/>
		<polygon style="opacity:0.1;fill:#BE8A80;" points="1192.339,2246.097 1542.977,2448.67 1542.977,2394.32 1210.684,2201.511 		"/>
		<polygon style="opacity:0.8;fill:#C28E84;" points="1607.704,2447.053 1607.704,2510.217 1607.704,2533.846 1678.63,2533.405 
			2257.537,2198.874 2166.634,2141.747 2166.637,2125.752 		"/>
		<polygon style="opacity:0.4;fill:#C28E84;" points="1607.704,2393.2 1607.704,2447.053 2166.637,2125.741 2147.383,2081.325 		"/>
		<polygon style="opacity:0.2;fill:#BE8A80;" points="1542.977,2394.32 1542.977,2448.67 1607.704,2447.032 1607.704,2393.2 		"/>
		<polygon style="opacity:0.4;fill:#BE8A80;" points="1542.977,2448.67 1542.977,2510.217 1607.704,2510.217 1607.704,2447.032 		
			"/>
		<rect x="1542.977" y="2510.217" style="opacity:0.6;fill:#BE8A80;" width="64.728" height="23.629"/>
	</g>
	<g>
		<polygon style="fill:#F2EFEA;" points="1956.162,1754.912 2496.084,1443.756 2564.256,1443.756 2892.85,1634.726 
			2912.105,1679.142 2912.105,1744.409 2883.804,1781.459 2353.172,2087.247 2288.445,2087.247 1965.018,1900.314 
			1938.028,1857.557 1937.806,1799.498 		"/>
		<polygon style="opacity:0.2;fill:#BE8A80;" points="1937.806,1799.498 1938.028,1857.557 2288.445,2063.618 2288.445,2002.071 		
			"/>
		<polygon style="opacity:0.3;fill:#BE8A80;" points="1965.018,1900.314 1938.028,1857.557 2288.445,2063.618 2288.445,2087.247 		
			"/>
		<polygon style="opacity:0.1;fill:#BE8A80;" points="1937.806,1799.498 2288.445,2002.071 2288.445,1947.722 1956.152,1754.913 		
			"/>
		<polygon style="opacity:0.8;fill:#C28E84;" points="2353.172,2000.455 2353.172,2063.618 2353.172,2087.247 2424.098,2086.806 
			3003.004,1752.276 2912.101,1695.149 2912.105,1679.153 		"/>
		<polygon style="opacity:0.4;fill:#C28E84;" points="2353.172,1946.601 2353.172,2000.454 2912.105,1679.142 2892.85,1634.726 		
			"/>
		<polygon style="opacity:0.2;fill:#BE8A80;" points="2288.445,1947.722 2288.445,2002.071 2353.172,2000.433 2353.172,1946.601 		
			"/>
		<polygon style="opacity:0.4;fill:#BE8A80;" points="2288.445,2002.071 2288.445,2063.618 2353.172,2063.618 2353.172,2000.433 		
			"/>
		<rect x="2288.445" y="2063.618" style="opacity:0.6;fill:#BE8A80;" width="64.728" height="23.629"/>
	</g>
	<g>
		<polygon style="opacity:0.8;fill:#BE8A80;" points="928.313,2742.445 550.874,2973.824 581.267,2991.58 534.228,2990.34 
			522.162,3028.845 601.559,3029.545 869.153,3184.781 859.571,3224.833 979.408,3224.572 1289.885,3046.216 1299.475,2970.334 		
			"/>
		<g>
			<g>
				<g>
					<polygon style="fill:#FFD790;" points="556.267,2923.084 555.711,3009.512 522.162,3028.845 522.719,2942.417 					"/>
				</g>
				<g>
					<polygon style="fill:#FFD790;" points="522.719,2942.417 522.162,3028.845 490.517,3010.338 491.073,2923.911 					"/>
				</g>
			</g>
			<g style="opacity:0.8;">
				<polygon style="fill:#BE8A80;" points="556.267,2923.084 555.711,3009.512 522.162,3028.845 522.465,2976.378 490.836,2957.886 
					491.073,2923.911 522.719,2942.417 				"/>
			</g>
			<polygon style="opacity:0.2;fill:#BE8A80;" points="522.465,2976.378 522.162,3028.845 490.517,3010.338 490.836,2957.886 			"/>
		</g>
		<g>
			<g>
				<g>
					<polygon style="fill:#FFD790;" points="893.676,3119.072 893.119,3205.5 859.571,3224.833 860.127,3138.405 					"/>
				</g>
				<g>
					<polygon style="fill:#FFD790;" points="860.127,3138.405 859.571,3224.833 827.925,3206.326 828.482,3119.898 					"/>
				</g>
			</g>
			<g style="opacity:0.8;">
				<polygon style="fill:#BE8A80;" points="893.676,3119.072 893.119,3205.5 859.571,3224.833 859.873,3172.365 828.245,3153.874 
					828.482,3119.898 860.127,3138.405 				"/>
			</g>
			<polygon style="opacity:0.2;fill:#BE8A80;" points="859.873,3172.365 859.571,3224.833 827.925,3206.326 828.245,3153.874 			"/>
		</g>
		<g>
			<g>
				<g>
					<polygon style="fill:#FFD790;" points="1221.395,2929.902 1220.839,3016.33 1187.29,3035.663 1187.847,2949.235 					"/>
				</g>
				<g>
					<polygon style="fill:#FFD790;" points="1187.847,2949.235 1187.29,3035.663 1155.645,3017.156 1156.202,2930.729 					"/>
				</g>
			</g>
			<g style="opacity:0.8;">
				<polygon style="fill:#BE8A80;" points="1221.395,2929.902 1220.839,3016.33 1187.29,3035.663 1155.645,3017.156 
					1156.202,2930.729 1187.847,2949.235 				"/>
			</g>
		</g>
		<g>
			<g style="enable-background:new    ;">
				<g>
					<polygon style="fill:#FFD790;" points="1237.74,2898.087 1237.093,2947.872 867.944,3162.164 868.59,3112.379 					"/>
				</g>
				<g>
					<polygon style="fill:#FFD790;" points="868.59,3112.379 867.944,3162.164 460.351,2922.989 460.998,2873.204 					"/>
				</g>
				<g>
					<polygon style="fill:#FFD790;" points="1237.74,2898.087 868.59,3112.379 460.998,2873.204 830.147,2658.913 					"/>
				</g>
			</g>
		</g>
		<g style="opacity:0.8;">
			<polygon style="fill:#BE8A80;" points="1237.74,2898.087 1237.093,2947.872 867.944,3162.164 868.59,3112.379 			"/>
		</g>
		<g style="opacity:0.2;">
			<polygon style="fill:#BE8A80;" points="868.59,3112.379 867.944,3162.164 460.351,2922.989 460.998,2873.204 			"/>
		</g>
	</g>
	<g>
		<polygon style="fill:#F6F3EE;" points="653.709,2830.522 653.753,2845.708 761.102,2908.092 761.059,2892.906 		"/>
		<polygon style="fill:#F6F3EE;" points="761.059,2892.906 761.102,2908.092 901.683,2826.929 901.64,2811.743 		"/>
		<polygon style="fill:#F6F3EE;" points="653.709,2830.522 761.059,2892.906 901.64,2811.743 892.151,2806.228 761.476,2881.673 
			663.616,2824.802 		"/>
		<polygon style="fill:#8BBFD7;" points="793.918,2458.934 901.266,2521.316 902.058,2800.508 761.476,2881.673 654.127,2819.289 
			653.337,2540.097 		"/>
		<polygon style="opacity:0.8;fill:#C28E84;" points="793.795,2463.686 661.979,2540.239 760.807,2597.73 835.632,2554.371 		"/>
		<polygon style="opacity:0.2;fill:#C28E84;" points="653.335,2540.097 653.753,2819.027 761.102,2881.411 760.684,2602.482 		"/>
		<polygon style="opacity:0.2;fill:#C28E84;" points="653.709,2830.522 653.753,2845.708 761.102,2908.092 761.059,2892.906 		"/>
		<polygon style="opacity:0.8;fill:#C28E84;" points="968.957,2740.291 901.886,2740.196 901.265,2521.316 760.684,2602.482 
			761.476,2881.673 780.526,2881.667 761.059,2892.906 761.102,2908.092 1183.64,2908.381 1202.2,2877.225 		"/>
	</g>
	<g>
		<g>
			<polygon style="fill:#F8F5F0;" points="3029.515,3358.874 3484.198,3094.642 3492.251,3089.241 3037.569,3353.473 			"/>
			<polygon style="fill:#F8F5F0;" points="3037.569,3353.473 3492.251,3089.241 3492.289,3075.933 3037.606,3340.166 			"/>
			<polygon style="fill:#F8F5F0;" points="3037.606,3340.166 3492.289,3075.933 3484.292,3061.266 3029.61,3325.499 			"/>
			<polygon style="fill:#F8F5F0;" points="3029.61,3325.499 3484.292,3061.266 3173.184,2881.648 2718.502,3145.88 			"/>
			<polygon style="fill:#F3EBE3;" points="2718.505,3145.888 2803.864,3195.172 3260.042,2931.783 3173.184,2881.64 			"/>
			<polygon style="fill:#F8F5F0;" points="2718.502,3145.88 2718.452,3164.11 2728.694,3169.979 2728.654,3185.349 
				3029.515,3358.874 3037.569,3353.473 3037.606,3340.166 3029.61,3325.499 			"/>
			<polygon style="opacity:0.8;fill:#9D7E81;" points="2728.694,3169.979 2728.678,3172.832 2991.888,3323.625 			"/>
			<polygon style="fill:#BEA086;" points="3173.184,2881.64 2718.505,3145.888 2803.864,3195.172 3260.042,2931.783 			"/>
			<polygon style="fill:#CDBCAC;" points="2900.407,3155.507 2912.84,3162.527 3193.114,2997.327 3180.427,2990.161 			"/>
			<polygon style="fill:#CDBCAC;" points="2948.568,3150.241 2961,3157.261 3212.912,3008.623 3200.225,3001.458 			"/>
			<polygon style="fill:#CDBCAC;" points="2951.797,3171.97 2964.23,3178.99 3233.236,3020.207 3220.549,3013.042 			"/>
			<g>
				<polygon style="fill:#CDBCAC;" points="3101.139,3283.882 3107.902,3299.315 3108.003,3307.516 3110.061,3306.32 
					3110.061,3298.06 3103.243,3282.667 2884.676,3156.248 2882.572,3157.463 				"/>
				<polygon style="fill:#CDBCAC;" points="2973.165,3230.446 2986.617,3222.68 2988.721,3223.894 2975.269,3231.661 				"/>
				<g>
					<polygon style="fill:#CDBCAC;" points="2957.298,3232.054 2980.076,3218.903 2982.18,3220.118 2959.402,3233.269 					"/>
					<polygon style="fill:#CDBCAC;" points="2957.298,3234.484 2945.379,3241.365 2943.275,3240.151 2955.195,3233.269 					"/>
					<polygon style="fill:#CDBCAC;" points="2941.171,3241.365 2943.275,3242.58 2927.261,3251.826 2925.157,3250.611 					"/>
				</g>
				<g>
					<polygon style="fill:#CDBCAC;" points="2961.135,3222.286 2973.535,3215.127 2975.639,3216.341 2963.239,3223.501 					"/>
					<polygon style="fill:#CDBCAC;" points="2959.031,3223.501 2961.135,3224.715 2920.72,3248.05 2918.617,3246.835 					"/>
				</g>
				<g>
					<polygon style="fill:#CDBCAC;" points="2925.433,3235.346 2966.995,3211.35 2969.098,3212.565 2927.537,3236.561 					"/>
					<polygon style="fill:#CDBCAC;" points="2923.33,3236.561 2925.433,3237.776 2914.18,3244.273 2912.076,3243.059 					"/>
				</g>
				<g>
					<polygon style="fill:#CDBCAC;" points="2938.728,3220.118 2960.454,3207.574 2962.558,3208.789 2940.832,3221.333 					"/>
					<polygon style="fill:#CDBCAC;" points="2936.624,3221.333 2938.728,3222.547 2907.639,3240.497 2905.535,3239.282 					"/>
				</g>
				<g>
					<polygon style="fill:#CDBCAC;" points="2999.188,3255.218 3020.914,3242.674 3023.018,3243.888 3001.292,3256.432 					"/>
					<polygon style="fill:#CDBCAC;" points="2997.084,3256.432 2999.188,3257.647 2968.099,3275.597 2965.995,3274.382 					"/>
				</g>
				<polygon style="fill:#CDBCAC;" points="3066.818,3284.637 3080.27,3276.871 3082.374,3278.085 3068.921,3285.852 				"/>
				<g>
					<polygon style="fill:#CDBCAC;" points="3050.951,3286.246 3073.729,3273.094 3075.833,3274.309 3053.055,3287.46 					"/>
					<polygon style="fill:#CDBCAC;" points="3050.951,3288.675 3039.032,3295.557 3036.928,3294.342 3048.847,3287.46 					"/>
					<polygon style="fill:#CDBCAC;" points="3034.824,3295.557 3036.928,3296.771 3020.914,3306.017 3018.81,3304.802 					"/>
				</g>
				<g>
					<polygon style="fill:#CDBCAC;" points="3054.788,3276.477 3067.188,3269.318 3069.292,3270.533 3056.892,3277.692 					"/>
					<polygon style="fill:#CDBCAC;" points="3052.684,3277.692 3054.788,3278.906 3014.373,3302.241 3012.27,3301.026 					"/>
				</g>
				<g>
					<polygon style="fill:#CDBCAC;" points="3076.759,3288.521 3089.159,3281.361 3091.262,3282.576 3078.862,3289.736 					"/>
					<polygon style="fill:#CDBCAC;" points="3074.655,3289.736 3076.759,3290.95 3036.344,3314.284 3034.24,3313.07 					"/>
				</g>
				<g>
					<polygon style="fill:#CDBCAC;" points="3019.086,3289.538 3060.648,3265.542 3062.751,3266.756 3021.19,3290.752 					"/>
					<polygon style="fill:#CDBCAC;" points="3016.983,3290.752 3019.086,3291.967 3007.833,3298.464 3005.729,3297.25 					"/>
				</g>
				<g>
					<polygon style="fill:#CDBCAC;" points="3032.381,3274.309 3054.107,3261.765 3056.21,3262.98 3034.484,3275.524 					"/>
					<polygon style="fill:#CDBCAC;" points="3030.277,3275.524 3032.381,3276.738 3001.292,3294.688 2999.188,3293.473 					"/>
				</g>
				<polygon style="fill:#CDBCAC;" points="2897.889,3184.618 2870.545,3200.405 2868.441,3199.191 2895.785,3183.403 				"/>
				<polygon style="fill:#CDBCAC;" points="2897.889,3182.188 2907.188,3176.82 2909.291,3178.034 2899.993,3183.403 				"/>
				<g>
					<polygon style="fill:#CDBCAC;" points="2877.581,3186.361 2900.647,3173.043 2902.75,3174.258 2879.685,3187.575 					"/>
					<polygon style="fill:#CDBCAC;" points="2875.477,3187.575 2877.581,3188.79 2847.832,3205.966 2845.728,3204.752 					"/>
				</g>
				<g>
					<polygon style="fill:#CDBCAC;" points="2858.452,3192.281 2851.402,3196.352 2849.298,3195.138 2856.349,3191.067 					"/>
					<polygon style="fill:#CDBCAC;" points="2858.452,3189.852 2894.106,3169.267 2896.21,3170.481 2860.556,3191.067 					"/>
					<polygon style="fill:#CDBCAC;" points="2847.194,3196.352 2849.298,3197.567 2841.291,3202.19 2839.187,3200.975 					"/>
				</g>
				<polygon style="fill:#CDBCAC;" points="3032.048,3261.672 3004.704,3277.459 3002.6,3276.245 3029.945,3260.457 				"/>
				<polygon style="fill:#CDBCAC;" points="3032.048,3259.242 3041.347,3253.874 3043.45,3255.088 3034.152,3260.457 				"/>
				<g>
					<polygon style="fill:#CDBCAC;" points="3011.74,3263.415 3034.806,3250.097 3036.91,3251.312 3013.844,3264.629 					"/>
					<polygon style="fill:#CDBCAC;" points="3009.636,3264.629 3011.74,3265.844 2981.991,3283.02 2979.887,3281.806 					"/>
				</g>
				<g>
					<polygon style="fill:#CDBCAC;" points="3070.874,3297.643 3093.94,3284.325 3096.044,3285.54 3072.978,3298.857 					"/>
					<polygon style="fill:#CDBCAC;" points="3068.771,3298.857 3070.874,3300.072 3041.125,3317.248 3039.021,3316.034 					"/>
				</g>
				<g>
					<polygon style="fill:#CDBCAC;" points="3076.227,3301.285 3099.293,3287.968 3100.345,3290.162 3077.279,3303.479 					"/>
				</g>
				<g>
					<polygon style="fill:#CDBCAC;" points="3057.519,3312.043 3074.399,3302.241 3075.451,3304.435 3058.571,3314.237 					"/>
				</g>
				<g>
					<polygon style="fill:#CDBCAC;" points="3078.156,3306.2 3101.221,3292.883 3102.273,3295.077 3079.208,3308.394 					"/>
				</g>
				<g>
					<polygon style="fill:#CDBCAC;" points="3041.277,3327.434 3064.343,3314.116 3065.395,3316.31 3042.329,3329.627 					"/>
				</g>
				<g>
					<polygon style="fill:#CDBCAC;" points="3066.692,3312.781 3076.327,3307.156 3077.379,3309.35 3067.744,3314.975 					"/>
				</g>
				<g>
					<polygon style="fill:#CDBCAC;" points="3093.528,3302.979 3103.163,3297.354 3104.214,3299.547 3094.579,3305.173 					"/>
				</g>
				<g>
					<polygon style="fill:#CDBCAC;" points="3038.558,3323.023 3055.438,3313.221 3056.489,3315.415 3039.61,3325.217 					"/>
				</g>
				<g>
					<polygon style="fill:#CDBCAC;" points="2992.612,3269.335 2985.561,3273.406 2983.457,3272.192 2990.508,3268.121 					"/>
					<polygon style="fill:#CDBCAC;" points="2992.612,3266.906 3028.265,3246.321 3030.369,3247.536 2994.715,3268.121 					"/>
					<polygon style="fill:#CDBCAC;" points="2981.354,3273.406 2983.457,3274.621 2975.45,3279.244 2973.346,3278.029 					"/>
				</g>
				<g>
					<polygon style="fill:#CDBCAC;" points="2863.736,3179.249 2865.839,3180.464 2834.75,3198.413 2832.646,3197.199 					"/>
					<polygon style="fill:#CDBCAC;" points="2865.839,3178.034 2887.565,3165.49 2889.669,3166.705 2867.943,3179.249 					"/>
				</g>
				<g>
					<polygon style="fill:#CDBCAC;" points="2872.778,3166.476 2881.024,3161.714 2883.128,3162.929 2874.882,3167.69 					"/>
					<polygon style="fill:#CDBCAC;" points="2872.778,3168.905 2852.287,3180.736 2850.183,3179.521 2870.674,3167.69 					"/>
					<polygon style="fill:#CDBCAC;" points="2848.08,3180.736 2850.183,3181.95 2828.209,3194.637 2826.106,3193.422 					"/>
				</g>
				<g>
					<polygon style="fill:#CDBCAC;" points="2992.138,3252.437 3015.204,3239.12 3017.308,3240.334 2994.242,3253.652 					"/>
					<polygon style="fill:#CDBCAC;" points="2990.034,3253.652 2992.138,3254.866 2962.389,3272.042 2960.285,3270.828 					"/>
				</g>
				<g>
					<polygon style="fill:#CDBCAC;" points="3035.258,3161.694 3076.683,3137.776 3080.694,3140.092 3039.269,3164.01 					"/>
					<polygon style="fill:#CDBCAC;" points="3031.247,3164.01 3035.258,3166.325 2975.981,3200.55 2971.969,3198.234 					"/>
				</g>
				<polygon style="fill:#CDBCAC;" points="3211.54,3182.707 3252.965,3158.789 3256.976,3161.105 3215.551,3185.023 				"/>
				<polygon style="fill:#CDBCAC;" points="3207.529,3185.023 3211.54,3187.338 3152.263,3221.563 3148.251,3219.247 				"/>
				<g>
					<polygon style="fill:#CDBCAC;" points="3117.708,3212.181 3159.133,3188.263 3163.144,3190.579 3121.719,3214.497 					"/>
					<polygon style="fill:#CDBCAC;" points="3113.697,3214.497 3117.708,3216.813 3058.431,3251.037 3054.42,3248.721 					"/>
				</g>
				<g>
					<polygon style="fill:#CDBCAC;" points="3058.082,3219.905 3137.326,3174.152 3141.337,3176.468 3062.093,3222.221 					"/>
					<polygon style="fill:#CDBCAC;" points="3054.071,3222.221 3058.082,3224.537 3036.624,3236.926 3032.613,3234.61 					"/>
				</g>
				<g>
					<polygon style="fill:#CDBCAC;" points="3083.43,3190.869 3124.855,3166.952 3128.866,3169.267 3087.441,3193.185 					"/>
					<polygon style="fill:#CDBCAC;" points="3079.419,3193.185 3083.43,3195.5 3024.153,3229.725 3020.142,3227.409 					"/>
				</g>
				<polygon style="fill:#CDBCAC;" points="3097.912,3173.999 3045.774,3204.102 3041.763,3201.786 3093.901,3171.683 				"/>
				<polygon style="fill:#CDBCAC;" points="3173.857,3197.562 3121.719,3227.664 3117.708,3225.348 3169.845,3195.246 				"/>
				<polygon style="fill:#CDBCAC;" points="3147.727,3223.879 3078.607,3264.005 3074.596,3261.689 3143.715,3221.563 				"/>
				<polygon style="fill:#CDBCAC;" points="3097.912,3169.367 3115.641,3159.131 3119.652,3161.447 3101.923,3171.683 				"/>
				<g>
					<polygon style="fill:#CDBCAC;" points="3059.191,3177.323 3103.17,3151.931 3107.181,3154.247 3063.202,3179.639 					"/>
					<polygon style="fill:#CDBCAC;" points="3055.179,3179.639 3059.191,3181.955 3002.468,3214.704 2998.457,3212.388 					"/>
				</g>
				<g>
					<polygon style="fill:#CDBCAC;" points="3022.719,3188.611 3009.275,3196.373 3005.264,3194.058 3018.708,3186.295 					"/>
					<polygon style="fill:#CDBCAC;" points="3022.719,3183.979 3090.699,3144.73 3094.71,3147.046 3026.73,3186.295 					"/>
					<polygon style="fill:#CDBCAC;" points="3001.252,3196.373 3005.264,3198.689 2989.997,3207.504 2985.986,3205.188 					"/>
				</g>
				<g>
					<polygon style="fill:#CDBCAC;" points="3080.77,3226.161 3067.326,3233.923 3063.315,3231.607 3076.759,3223.845 					"/>
					<polygon style="fill:#CDBCAC;" points="3080.77,3221.529 3148.75,3182.28 3152.761,3184.595 3084.781,3223.845 					"/>
					<polygon style="fill:#CDBCAC;" points="3059.304,3233.923 3063.315,3236.239 3048.048,3245.053 3044.037,3242.737 					"/>
				</g>
				<polygon style="fill:#CDBCAC;" points="3366.582,3098.037 3353.138,3105.799 3349.127,3103.483 3362.571,3095.721 				"/>
				<polygon style="fill:#CDBCAC;" points="3276.921,3145.289 3344.901,3106.04 3348.913,3108.356 3280.932,3147.605 				"/>
				<polygon style="fill:#CDBCAC;" points="3272.564,3147.659 3276.575,3149.975 3261.308,3158.789 3257.297,3156.473 				"/>
				<polygon style="fill:#CDBCAC;" points="3219.688,3187.719 3261.113,3163.802 3265.125,3166.117 3223.699,3190.035 				"/>
				<polygon style="fill:#CDBCAC;" points="3219.101,3192.325 3086.756,3269.017 3082.744,3266.701 3215.09,3190.01 				"/>
				<polygon style="fill:#CDBCAC;" points="3302.179,3144.909 3288.735,3152.671 3284.724,3150.355 3298.168,3142.593 				"/>
				<polygon style="fill:#CDBCAC;" points="3302.179,3140.277 3370.159,3101.028 3374.17,3103.344 3306.19,3142.593 				"/>
				<polygon style="fill:#CDBCAC;" points="3280.713,3152.671 3284.724,3154.987 3269.457,3163.802 3265.446,3161.486 				"/>
				<polygon style="fill:#CDBCAC;" points="3234.258,3189.128 3238.269,3191.444 3168.746,3231.587 3164.735,3229.271 				"/>
				<polygon style="fill:#CDBCAC;" points="3164.209,3233.903 3095.09,3274.029 3091.079,3271.713 3160.198,3231.587 				"/>
				<polygon style="fill:#CDBCAC;" points="3294.03,3154.945 3378.493,3106.04 3382.504,3108.356 3298.041,3157.261 				"/>
				<polygon style="fill:#CDBCAC;" points="3289.047,3157.683 3293.058,3159.999 3242.406,3189.421 3238.396,3187.105 				"/>
				<polygon style="fill:#CDBCAC;" points="3250.005,3200.473 3251.805,3204.376 3182.282,3244.519 3180.482,3240.617 				"/>
				<polygon style="fill:#CDBCAC;" points="3177.746,3246.835 3108.626,3286.961 3106.826,3283.059 3175.946,3242.933 				"/>
				<polygon style="fill:#CDBCAC;" points="3309.778,3166.291 3394.241,3117.385 3396.041,3121.288 3311.578,3170.193 				"/>
				<polygon style="fill:#CDBCAC;" points="3304.795,3169.028 3306.595,3172.931 3255.943,3202.353 3254.143,3198.451 				"/>
				<polygon style="fill:#CDBCAC;" points="3255.869,3216.061 3255.869,3220.894 3186.346,3261.037 3186.346,3256.204 				"/>
				<polygon style="fill:#CDBCAC;" points="3181.81,3263.353 3112.69,3303.479 3112.69,3298.646 3181.81,3258.52 				"/>
				<polygon style="fill:#CDBCAC;" points="3315.641,3181.878 3400.104,3132.972 3400.104,3137.806 3315.641,3186.711 				"/>
				<polygon style="fill:#CDBCAC;" points="3310.658,3184.615 3310.658,3189.449 3260.007,3218.871 3260.007,3214.038 				"/>
				<polygon style="fill:#CDBCAC;" points="3253.38,3207.865 3255.18,3211.768 3112.061,3294.655 3110.261,3290.752 				"/>
				<polygon style="fill:#CDBCAC;" points="3284.771,3190.25 3397.615,3124.777 3399.415,3128.68 3286.57,3194.153 				"/>
				<polygon style="fill:#CDBCAC;" points="3281.068,3192.202 3282.868,3196.104 3259.317,3209.745 3257.518,3205.842 				"/>
				<polygon style="fill:#CDBCAC;" points="3235.706,3197.5 3282.718,3170.247 3286.729,3172.563 3239.718,3199.816 				"/>
				<polygon style="fill:#CDBCAC;" points="3231.695,3199.816 3235.706,3202.132 3158.146,3246.829 3154.135,3244.513 				"/>
				<polygon style="fill:#CDBCAC;" points="3150.923,3250.711 3102.773,3278.799 3098.762,3276.483 3146.912,3248.395 				"/>
				<polygon style="fill:#CDBCAC;" points="3330.026,3147.91 3290.582,3170.635 3286.57,3168.319 3326.015,3145.594 				"/>
				<polygon style="fill:#CDBCAC;" points="3330.026,3143.278 3386.177,3110.81 3390.188,3113.125 3334.037,3145.594 				"/>
				<g>
					<polygon style="fill:#CDBCAC;" points="3021.816,3156.392 3065.795,3131 3069.806,3133.315 3025.827,3158.708 					"/>
					<polygon style="fill:#CDBCAC;" points="3017.804,3158.708 3021.816,3161.023 2965.093,3193.773 2961.082,3191.457 					"/>
				</g>
				<g>
					<polygon style="fill:#CDBCAC;" points="2973.01,3258.358 2965.959,3262.428 2963.855,3261.214 2970.906,3257.143 					"/>
					<polygon style="fill:#CDBCAC;" points="2973.01,3255.928 3008.663,3235.343 3010.767,3236.558 2975.113,3257.143 					"/>
					<polygon style="fill:#CDBCAC;" points="2961.751,3262.428 2963.855,3263.643 2955.848,3268.266 2953.744,3267.052 					"/>
				</g>
				<g>
					<polygon style="fill:#CDBCAC;" points="2978.293,3245.325 2980.396,3246.54 2949.307,3264.49 2947.204,3263.275 					"/>
					<polygon style="fill:#CDBCAC;" points="2980.396,3244.111 3002.122,3231.567 3004.226,3232.781 2982.5,3245.325 					"/>
				</g>
				<g>
					<polygon style="fill:#CDBCAC;" points="2987.335,3232.552 2995.582,3227.791 2997.685,3229.005 2989.439,3233.766 					"/>
					<polygon style="fill:#CDBCAC;" points="2987.335,3234.981 2966.844,3246.812 2964.74,3245.597 2985.231,3233.766 					"/>
					<polygon style="fill:#CDBCAC;" points="2962.637,3246.812 2964.74,3248.026 2942.767,3260.713 2940.663,3259.499 					"/>
				</g>
				<polygon style="fill:#CDBCAC;" points="2938.196,3207.206 2921.546,3216.818 2919.443,3215.604 2936.092,3205.991 				"/>
				<polygon style="fill:#CDBCAC;" points="2938.196,3204.776 2946.902,3199.75 2949.006,3200.964 2940.3,3205.991 				"/>
				<g>
					<polygon style="fill:#CDBCAC;" points="2901.457,3218.436 2940.361,3195.973 2942.465,3197.188 2903.56,3219.65 					"/>
					<polygon style="fill:#CDBCAC;" points="2899.353,3219.65 2901.457,3220.865 2887.546,3228.896 2885.443,3227.681 					"/>
				</g>
				<g>
					<polygon style="fill:#CDBCAC;" points="2910.456,3205.687 2933.821,3192.197 2935.924,3193.412 2912.56,3206.902 					"/>
					<polygon style="fill:#CDBCAC;" points="2908.352,3206.902 2910.456,3208.116 2881.006,3225.12 2878.902,3223.905 					"/>
				</g>
				<g>
					<polygon style="fill:#CDBCAC;" points="2893.73,3207.791 2927.28,3188.42 2929.384,3189.635 2895.834,3209.006 					"/>
					<polygon style="fill:#CDBCAC;" points="2891.626,3209.006 2893.73,3210.22 2874.465,3221.343 2872.361,3220.129 					"/>
				</g>
				<g>
					<polygon style="fill:#CDBCAC;" points="2913.544,3188.798 2920.739,3184.644 2922.843,3185.859 2915.648,3190.013 					"/>
					<polygon style="fill:#CDBCAC;" points="2913.544,3191.227 2898.426,3199.956 2896.323,3198.741 2911.441,3190.013 					"/>
					<polygon style="fill:#CDBCAC;" points="2894.219,3199.956 2896.323,3201.171 2867.924,3217.567 2865.82,3216.352 					"/>
				</g>
			</g>
			<polygon style="fill:#CDBCAC;" points="3356.68,3091.57 3184.177,3191.167 3071.474,3126.096 3243.977,3026.499 			"/>
			<polygon style="fill:#CDBCAC;" points="3299.642,2967.403 3236.527,3003.844 3195.291,2980.036 3258.406,2943.595 			"/>
			<g>
				<polygon style="fill:#CDBCAC;" points="3292.47,2994.815 3319.155,2979.408 3321.558,2980.796 3294.873,2996.203 				"/>
				<polygon style="fill:#CDBCAC;" points="3290.067,2996.203 3292.47,2997.59 3258.834,3017.01 3256.432,3015.623 				"/>
			</g>
			<g>
				<polygon style="fill:#CDBCAC;" points="3273.367,2997.219 3311.685,2975.095 3314.087,2976.482 3275.77,2998.606 				"/>
				<polygon style="fill:#CDBCAC;" points="3270.965,2998.606 3273.367,2999.993 3251.364,3012.697 3248.961,3011.31 				"/>
			</g>
			<g>
				<polygon style="fill:#CDBCAC;" points="3295.997,2975.527 3304.215,2970.782 3306.617,2972.169 3298.4,2976.914 				"/>
				<polygon style="fill:#CDBCAC;" points="3295.997,2978.301 3278.731,2988.27 3276.328,2986.883 3293.594,2976.914 				"/>
				<polygon style="fill:#CDBCAC;" points="3273.925,2988.27 3276.328,2989.657 3243.894,3008.384 3241.491,3006.997 				"/>
			</g>
			<polygon style="fill:#CDBCAC;" points="3371.243,3007.519 3308.128,3043.96 3266.892,3020.152 3330.008,2983.711 			"/>
			<g>
				<polygon style="fill:#CDBCAC;" points="3364.071,3034.932 3390.756,3019.524 3393.159,3020.912 3366.474,3036.319 				"/>
				<polygon style="fill:#CDBCAC;" points="3361.668,3036.319 3364.071,3037.706 3330.436,3057.126 3328.033,3055.739 				"/>
			</g>
			<g>
				<polygon style="fill:#CDBCAC;" points="3344.969,3037.335 3383.286,3015.211 3385.689,3016.599 3347.371,3038.722 				"/>
				<polygon style="fill:#CDBCAC;" points="3342.566,3038.722 3344.969,3040.109 3322.965,3052.813 3320.563,3051.426 				"/>
			</g>
			<g>
				<polygon style="fill:#CDBCAC;" points="3367.598,3015.643 3375.816,3010.898 3378.219,3012.285 3370.001,3017.03 				"/>
				<polygon style="fill:#CDBCAC;" points="3367.598,3018.417 3350.332,3028.386 3347.929,3026.999 3365.196,3017.03 				"/>
				<polygon style="fill:#CDBCAC;" points="3345.527,3028.386 3347.929,3029.773 3315.495,3048.5 3313.092,3047.113 				"/>
			</g>
			<polygon style="fill:#CDBCAC;" points="3441.322,3048.367 3378.207,3084.808 3336.971,3061 3400.086,3024.559 			"/>
			<polygon style="fill:#CDBCAC;" points="3479.246,3083.979 3479.246,3096.799 3416.131,3133.477 3416.131,3120.419 
				3411.625,3109.164 3474.74,3072.723 			"/>
			<g>
				<polygon style="fill:#CDBCAC;" points="3434.15,3075.779 3460.835,3060.372 3463.238,3061.759 3436.552,3077.167 				"/>
				<polygon style="fill:#CDBCAC;" points="3431.747,3077.167 3434.15,3078.554 3400.514,3097.974 3398.112,3096.586 				"/>
			</g>
			<g>
				<polygon style="fill:#CDBCAC;" points="3415.047,3078.182 3453.365,3056.059 3455.767,3057.446 3417.45,3079.57 				"/>
				<polygon style="fill:#CDBCAC;" points="3412.644,3079.57 3415.047,3080.957 3393.044,3093.661 3390.641,3092.273 				"/>
			</g>
			<g>
				<polygon style="fill:#CDBCAC;" points="3437.677,3056.49 3445.894,3051.746 3448.297,3053.133 3440.08,3057.877 				"/>
				<polygon style="fill:#CDBCAC;" points="3437.677,3059.265 3420.41,3069.234 3418.008,3067.847 3435.274,3057.877 				"/>
				<polygon style="fill:#CDBCAC;" points="3415.605,3069.234 3418.008,3070.621 3385.573,3089.347 3383.171,3087.96 				"/>
			</g>
			<g>
				<g>
					<polygon style="fill:#F3EBE3;" points="2873.684,3130.006 2865.665,3134.666 2823.725,3128.94 2849.707,3143.94 
						2842.281,3148.256 2802.438,3125.252 2810.216,3120.732 2853.024,3126.68 2826.416,3111.317 2833.841,3107.003 					"/>
				</g>
				<g>
					<polygon style="fill:#F3EBE3;" points="2912.243,3107.598 2882.136,3125.094 2842.293,3102.091 2871.644,3085.034 
						2878.384,3088.925 2857.025,3101.338 2865.859,3106.438 2885.732,3094.889 2892.445,3098.764 2872.571,3110.313 
						2883.416,3116.574 2905.531,3103.723 					"/>
				</g>
				<g>
					<path style="fill:#F3EBE3;" d="M3001.061,3038.572l15.029,8.677l-7.992,4.645l-39.843-23.003l12.826-7.454
						c4.859-2.824,8.228-4.55,10.103-5.178c2.865-0.973,6.065-1.326,9.597-1.06c3.531,0.267,6.884,1.316,10.054,3.147
						c2.446,1.412,4.061,2.856,4.846,4.33c0.785,1.476,0.973,2.883,0.565,4.222c-0.408,1.34-1.16,2.505-2.257,3.499
						c-1.527,1.329-4.1,3.045-7.718,5.147L3001.061,3038.572z M2994.293,3034.665l4.374-2.542c3.15-1.831,5.049-3.175,5.694-4.033
						c0.644-0.858,0.825-1.719,0.541-2.581c-0.286-0.863-1.017-1.635-2.193-2.315c-1.449-0.837-3.07-1.281-4.857-1.334
						c-1.789-0.052-3.448,0.23-4.979,0.848c-1.136,0.45-3.144,1.511-6.024,3.185l-3.862,2.244L2994.293,3034.665L2994.293,3034.665z
						"/>
				</g>
				<g>
					<path style="fill:#F3EBE3;" d="M3067.879,3017.152l-12.507-3.216l-15.822,9.195l5.782,7.124l-8.479,4.927l-24.425-31.963
						l8.452-4.912l55.693,13.792L3067.879,3017.152z M3035.294,3017.827l10.8-6.276l-20.239-5.367L3035.294,3017.827
						L3035.294,3017.827z"/>
				</g>
				<g>
					<path style="fill:#F3EBE3;" d="M2989.77,3049.101c2.282,1.318,3.79,2.919,4.524,4.802c0.733,1.883,0.432,3.774-0.903,5.672
						c-1.335,1.898-3.721,3.847-7.159,5.845c-5.005,2.908-10.011,4.469-15.022,4.683c-5.01,0.215-10.005-0.813-14.984-3.083
						l7.015-4.958c3.095,1.245,5.974,1.807,8.638,1.687c2.662-0.12,5.208-0.886,7.639-2.299c2.574-1.496,3.965-2.939,4.176-4.331
						c0.208-1.391-0.421-2.51-1.889-3.358c-0.942-0.544-2.018-0.847-3.229-0.909c-1.211-0.063-2.745,0.162-4.601,0.675
						c-1.263,0.355-3.975,1.26-8.139,2.714c-5.353,1.874-9.672,2.861-12.96,2.966c-4.62,0.146-8.509-0.69-11.661-2.51
						c-2.029-1.171-3.356-2.6-3.98-4.284c-0.622-1.684-0.322-3.418,0.907-5.202c1.226-1.783,3.361-3.559,6.403-5.327
						c4.969-2.887,9.805-4.428,14.508-4.621c4.704-0.194,8.948,0.729,12.733,2.769l-7.638,4.849
						c-2.389-0.984-4.596-1.407-6.616-1.271c-2.023,0.136-4.159,0.858-6.409,2.166c-2.322,1.35-3.66,2.684-4.014,4.001
						c-0.229,0.848,0.172,1.57,1.205,2.166c0.942,0.544,2.145,0.779,3.606,0.706c1.86-0.094,5.196-1.005,10.008-2.73
						c4.813-1.726,8.645-2.846,11.494-3.358c2.852-0.513,5.659-0.58,8.424-0.204
						C2984.609,3046.732,2987.251,3047.646,2989.77,3049.101z"/>
				</g>
				<g>
					<polygon style="fill:#F3EBE3;" points="2927.292,3052.694 2957.524,3081.284 2949.045,3086.211 2911.373,3073.595 
						2933.304,3095.359 2924.636,3100.396 2875.342,3082.885 2883.523,3078.13 2916.86,3090.464 2896.727,3070.457 
						2906.233,3064.933 2941.002,3076.969 2919.247,3057.37 					"/>
				</g>
				<g>
					<path style="fill:#F3EBE3;" d="M3073.777,2996.314l15.029,8.677l-7.994,4.646l-39.843-23.004l12.826-7.454
						c4.861-2.825,8.228-4.55,10.103-5.177c2.865-0.973,6.065-1.326,9.598-1.06c3.531,0.267,6.884,1.316,10.054,3.147
						c2.446,1.412,4.061,2.856,4.846,4.33c0.785,1.476,0.974,2.882,0.565,4.221c-0.407,1.339-1.16,2.506-2.257,3.499
						c-1.527,1.329-4.1,3.045-7.718,5.147L3073.777,2996.314z M3067.01,2992.407l4.374-2.542c3.149-1.83,5.047-3.174,5.693-4.032
						c0.644-0.858,0.825-1.719,0.541-2.581c-0.284-0.864-1.016-1.635-2.193-2.315c-1.449-0.837-3.069-1.282-4.857-1.334
						c-1.789-0.052-3.448,0.23-4.979,0.847c-1.136,0.45-3.144,1.512-6.024,3.185l-3.861,2.244L3067.01,2992.407L3067.01,2992.407z"
						/>
				</g>
				<g>
					<path style="fill:#F3EBE3;" d="M3152.059,2949.483c-1.146,0.319-2.636,1.012-4.472,2.079l-1.62,0.941l16.633,9.603
						l-7.992,4.645l-39.843-23.004l16.822-9.776c4.23-2.458,7.661-4.037,10.294-4.739c2.634-0.7,5.44-0.858,8.424-0.471
						c2.982,0.387,5.65,1.26,8.005,2.62c2.99,1.726,4.586,3.659,4.788,5.799c0.201,2.139-1.182,4.365-4.147,6.676
						c2.742-0.418,5.284-0.604,7.622-0.557c2.34,0.047,6.012,0.411,11.019,1.091l12.605,1.679l-9.559,5.555l-14.448-1.648
						c-5.15-0.596-8.506-0.906-10.07-0.934C3154.558,2949.018,3153.204,2949.164,3152.059,2949.483z M3139.608,2948.832l5.913-3.436
						c3.834-2.228,6.065-3.714,6.693-4.457c0.627-0.742,0.814-1.501,0.556-2.275c-0.257-0.774-0.985-1.506-2.18-2.197
						c-1.341-0.774-2.777-1.192-4.314-1.255c-1.534-0.063-3.06,0.219-4.573,0.847c-0.738,0.325-2.727,1.428-5.968,3.312
						l-6.237,3.624L3139.608,2948.832L3139.608,2948.832z"/>
				</g>
				<g>
					<polygon style="fill:#F3EBE3;" points="3147.803,2970.705 3117.697,2988.201 3077.854,2965.198 3107.204,2948.141 
						3113.945,2952.032 3092.586,2964.445 3101.42,2969.545 3121.293,2957.996 3128.005,2961.871 3108.132,2973.42 
						3118.977,2979.681 3141.091,2966.83 					"/>
				</g>
			</g>
		</g>
		<g>
			<polygon style="opacity:0.2;fill:#C08C82;" points="3029.515,3358.874 3484.198,3094.642 3492.251,3089.241 3037.569,3353.473 
							"/>
			<polygon style="opacity:0.8;fill:#C08C82;" points="3513.18,3079.569 3485.119,3062.783 3492.288,3075.934 3037.606,3340.166 
				3037.569,3353.473 3029.515,3358.874 3045.594,3362.4 3065.395,3362.4 3082.374,3357.326 3507.167,3110.463 3514.256,3102.262 
				3516.871,3092.689 			"/>
			<polygon style="opacity:0.5;fill:#C08C82;" points="3037.606,3340.166 3492.289,3075.933 3484.292,3061.266 3029.61,3325.499 			
				"/>
			<polygon style="opacity:0.2;fill:#C08C82;" points="2718.502,3145.88 2718.452,3164.11 2728.694,3169.979 2728.654,3185.349 
				3029.515,3358.874 3037.569,3353.473 3037.606,3340.166 3029.61,3325.499 			"/>
		</g>
	</g>
	<g>
		<polygon style="fill:#FF6D4A;" points="2918.201,3101.545 2918.175,3110.817 3003.195,3285.843 3262.069,3188.673 
			3262.095,3179.402 		"/>
		<g style="opacity:0.8;">
			<polygon style="opacity:0.8;fill:#C28E84;" points="3277.332,3190.889 3262.095,3181.921 3262.095,3179.402 3251.351,3183.435 
				3251.351,3183.435 3244.586,3175.44 3238.002,3173.955 3235.64,3161.953 3215.232,3134.889 3184.257,3110.885 3151.017,3096.371 
				3128.461,3095.406 3047.078,3251.601 3065.671,3253.131 3003.221,3276.572 3003.195,3285.843 3024.361,3285.843 
				3105.64,3255.334 3150.859,3252.882 3177.121,3246.742 3192.928,3229.182 3191.772,3223.004 3196.579,3221.2 3207.167,3226.463 
				3250.729,3215.394 3247.346,3202.144 			"/>
			<g style="opacity:0.2;">
				<polygon style="fill:#C28E84;" points="3003.221,3276.572 3003.195,3285.843 2918.175,3110.817 2918.201,3101.545 				"/>
			</g>
		</g>
		<g>
			<g>
				<g>
					<polygon style="fill:#F8F5F0;" points="2943.883,3206.918 2943.833,3215.824 2928.53,3180.882 2928.578,3171.977 					"/>
					<polygon style="fill:#F8F5F0;" points="3168.833,3174.258 3168.784,3183.165 3151.9,3217.801 3151.949,3208.895 					"/>
					<polygon style="fill:#F8F5F0;" points="2987.271,3232.803 2987.223,3241.709 2943.833,3215.824 2943.883,3206.918 					"/>
					<polygon style="fill:#F8F5F0;" points="3151.949,3208.895 3151.9,3217.801 3107.351,3242.85 3107.401,3233.944 					"/>
					<polygon style="fill:#F8F5F0;" points="3047.126,3242.694 3047.078,3251.601 2987.223,3241.709 2987.271,3232.803 					"/>
					<polygon style="fill:#F8F5F0;" points="3107.401,3233.944 3107.351,3242.85 3047.078,3251.601 3047.126,3242.694 					"/>
					<polygon style="fill:#F8F5F0;" points="3110.137,3113.429 3153.526,3139.314 3168.833,3174.258 3151.949,3208.895 
						3107.401,3233.944 3047.126,3242.694 2987.271,3232.803 2943.883,3206.918 2928.578,3171.977 2945.46,3137.338 
						2990.009,3112.289 3050.285,3103.537 					"/>
				</g>
				<g style="opacity:0.8;">
					<polygon style="opacity:0.1;fill:#BC8880;" points="2943.883,3206.918 2943.833,3215.824 2928.53,3180.882 2928.578,3171.977 
											"/>
					<polygon style="opacity:0.8;fill:#BC8880;" points="3168.833,3174.258 3168.784,3183.165 3151.9,3217.801 3151.949,3208.895 
											"/>
					<polygon style="opacity:0.2;fill:#BC8880;" points="2987.271,3232.803 2987.223,3241.709 2943.833,3215.824 2943.883,3206.918 
											"/>
					<polygon style="opacity:0.6;fill:#BC8880;" points="3151.949,3208.895 3151.9,3217.801 3107.351,3242.85 3107.401,3233.944 
											"/>
					<polygon style="opacity:0.3;fill:#BC8880;" points="3047.126,3242.694 3047.078,3251.601 2987.223,3241.709 2987.271,3232.803 
											"/>
					<polygon style="opacity:0.4;fill:#BC8880;" points="3107.401,3233.944 3107.351,3242.85 3047.078,3251.601 3047.126,3242.694 
											"/>
					<g style="opacity:0.2;">
						<path style="fill:#C28E84;" d="M3139.726,3142.837l-37.911-22.616l-51.421-8.499l-0.319-0.054l-52.102,7.565l-38.895,21.866
							l-15.106,30.997l0.563,1.292l14.542-29.832l38.895-21.872l52.102-7.566l0.319,0.056l51.421,8.499l37.911,22.62l13.145,30.003
							l0.568-1.16L3139.726,3142.837z"/>
					</g>
				</g>
			</g>
			<g>
				<polygon style="fill:#F8F5F0;" points="3118.902,3105.785 3118.79,3119.799 3118.674,3134.381 3146.01,3118.614 
					3145.86,3065.619 3133.82,3058.622 3117.801,3067.871 3119.178,3071.05 3118.982,3095.668 3121.275,3094.344 3121.305,3104.398 
									"/>
				<g style="opacity:0.8;">
					<polygon style="fill:#C28E84;" points="3145.86,3065.619 3146.01,3118.614 3118.674,3134.382 3118.789,3119.799 
						3133.345,3111.395 3121.276,3094.344 3118.982,3095.668 3119.099,3081.069 					"/>
				</g>
				<polygon style="opacity:0.2;fill:#BC8880;" points="3121.305,3104.398 3121.275,3094.344 3133.345,3111.395 				"/>
			</g>
			<polygon style="fill:#F8F5F0;" points="3110.111,3050.143 3084.152,3034.656 3048.26,3028.738 3012.051,3033.973 
				2985.226,3048.96 2974.976,3069.684 2975.788,3171.414 2984.754,3192.085 3010.421,3207.399 3045.908,3213.25 3081.71,3208.073 
				3108.232,3193.256 3118.369,3172.765 3119.178,3071.05 			"/>
			<polygon style="opacity:0.4;fill:#BC8880;" points="3045.908,3213.25 3045.895,3111.995 3082.104,3106.76 3081.71,3208.073 			
				"/>
			<polygon style="opacity:0.3;fill:#BC8880;" points="3010.002,3106.077 3045.895,3111.995 3045.908,3213.25 3010.421,3207.399 			
				"/>
			<polygon style="opacity:0.7;fill:#BC8880;" points="3118.368,3172.765 3119.179,3071.05 3108.928,3091.772 3108.232,3193.256 			
				"/>
			<polygon style="opacity:0.6;fill:#BC8880;" points="3082.104,3106.76 3108.928,3091.772 3108.232,3193.256 3081.71,3208.073 			
				"/>
			<polygon style="opacity:0.2;fill:#BC8880;" points="2984.754,3192.086 2984.044,3090.589 3010.002,3106.077 3010.421,3207.399 
							"/>
			<polygon style="opacity:0.1;fill:#BC8880;" points="2975.788,3171.414 2974.976,3069.683 2984.044,3090.589 2984.754,3192.086 
							"/>
			<polygon style="opacity:0.3;fill:#AC8C95;" points="3048.031,3036.826 3048.094,3103.622 3075.299,3099.688 3078.624,3097.829 
				3076.949,3041.594 			"/>
			<polygon style="opacity:0.4;fill:#AC8C95;" points="3018.858,3041.044 3048.06,3036.826 3048.094,3103.622 3046.125,3103.907 
				3017.205,3099.138 			"/>
			<polygon style="opacity:0.6;fill:#AC8C95;" points="2997.244,3053.119 3018.858,3041.044 3017.222,3099.138 2996.292,3086.66 
				2995.668,3085.221 			"/>
			<polygon style="opacity:0.7;fill:#AC8C95;" points="2988.985,3069.816 2997.244,3053.119 2995.668,3085.221 			"/>
			<polygon style="opacity:0.2;fill:#AC8C95;" points="3076.949,3041.594 3097.864,3054.072 3099.299,3082.784 3096.911,3087.614 
				3078.624,3097.829 			"/>
			<polygon style="opacity:0.1;fill:#AC8C95;" points="3105.17,3070.917 3097.864,3054.072 3099.299,3082.784 			"/>
			<path style="fill:#603D27;" d="M3073.713,3075.816c0.932-0.073,1.842-0.273,2.558-0.687c1.734-1.001,1.734-2.624,0-3.625
				c-1.734-1-4.545-1-6.278,0c-0.966,0.557-1.373,1.307-1.263,2.034c-6.33-3.098-12.261-6.675-17.567-9.329
				c-15.241-7.62-31.919-0.861-48.95,0.739l-5.244,2.93l-4.702,9.504l4.025,9.277l20.914,12.479l28.92,4.768l29.173-4.219
				l21.612-12.074l4.277-8.649C3091.756,3081.676,3082.428,3079.497,3073.713,3075.816z"/>
			<g>
				<path style="fill:#9F8280;" d="M3098.146,3068.837l-21.031-12.547l-29.078-4.796l-29.337,4.242l-16.487,9.212
					c17.031-1.6,33.709-8.359,48.95-0.739c4.593,2.297,9.674,5.272,15.058,8.044c-0.635,1.382-0.044,2.913,1.833,3.997
					c2.307,1.331,5.781,1.55,8.505,0.691c7.887,2.96,16.215,4.444,24.629,2.024l0.72-1.454L3098.146,3068.837z M3069.993,3075.129
					c-0.778-0.448-1.188-1.024-1.268-1.612c-0.022-0.162-0.015-0.327,0.014-0.488l0.011-0.063c0.033-0.145,0.095-0.287,0.172-0.43
					c0.02-0.036,0.033-0.074,0.056-0.111c0.074-0.118,0.178-0.23,0.284-0.342c0.049-0.052,0.084-0.105,0.14-0.156
					c0.116-0.104,0.263-0.201,0.409-0.297c0.063-0.041,0.112-0.086,0.181-0.127c1.733-1,4.545-1,6.278,0
					c1.734,1.001,1.734,2.624,0,3.625c-0.371,0.215-0.809,0.361-1.258,0.482c-0.401,0.099-0.823,0.163-1.252,0.198
					C3072.423,3075.922,3071.022,3075.725,3069.993,3075.129z"/>
			</g>
			<g>
				<path style="fill:#603D27;" d="M3060.248,3056.918c1.244,0.718,1.244,1.884,0,2.602c-1.246,0.719-3.263,0.719-4.509,0
					c-1.244-0.718-1.244-1.884,0-2.602C3056.985,3056.199,3059.002,3056.199,3060.248,3056.918z"/>
				<path style="fill:#603D27;" d="M3021.136,3058.914c0.845,0.487,0.845,1.28,0,1.766c-0.845,0.489-2.216,0.489-3.061,0
					c-0.845-0.487-0.845-1.28,0-1.766C3018.92,3058.425,3020.291,3058.425,3021.136,3058.914z"/>
				<path style="fill:#603D27;" d="M3045.856,3056.516c1.628,0.941,1.628,2.466,0,3.406c-1.628,0.94-4.269,0.94-5.898,0
					c-1.628-0.941-1.628-2.466,0-3.406C3041.587,3055.576,3044.227,3055.576,3045.856,3056.516z"/>
				<path style="fill:#603D27;" d="M3032.238,3056.767c0.232,0.135,0.232,0.353,0,0.487c-0.234,0.135-0.61,0.135-0.843,0
					c-0.234-0.134-0.234-0.352,0-0.487C3031.628,3056.633,3032.004,3056.633,3032.238,3056.767z"/>
				<path style="fill:#603D27;" d="M3050.057,3053.574c0.232,0.134,0.232,0.352,0,0.487c-0.234,0.134-0.611,0.134-0.843,0
					c-0.232-0.135-0.232-0.353,0-0.487C3049.447,3053.439,3049.824,3053.439,3050.057,3053.574z"/>
				<path style="fill:#603D27;" d="M3051.713,3054.262c0.232,0.135,0.232,0.353,0,0.487c-0.233,0.135-0.611,0.135-0.843,0
					c-0.232-0.134-0.232-0.352,0-0.487C3051.102,3054.128,3051.479,3054.128,3051.713,3054.262z"/>
				<path style="fill:#603D27;" d="M3058.868,3064.952c0.68,0.393,0.68,1.029,0,1.421c-0.679,0.392-1.781,0.392-2.459,0
					c-0.68-0.392-0.68-1.028,0-1.421C3057.088,3064.56,3058.19,3064.56,3058.868,3064.952z"/>
				<path style="fill:#603D27;" d="M3087.401,3063.948c0.68,0.393,0.68,1.027,0,1.42c-0.679,0.393-1.781,0.393-2.459,0
					c-0.68-0.393-0.68-1.027,0-1.42C3085.621,3063.555,3086.723,3063.555,3087.401,3063.948z"/>
				<path style="fill:#603D27;" d="M3096.865,3074.499c0.409,0.237,0.409,0.62,0,0.856c-0.409,0.236-1.071,0.236-1.481,0
					c-0.408-0.237-0.408-0.619,0-0.856C3095.793,3074.263,3096.456,3074.263,3096.865,3074.499z"/>
				<path style="fill:#603D27;" d="M3086.17,3070.717c1.27,0.733,1.27,1.923,0,2.656c-1.271,0.734-3.33,0.734-4.6,0
					c-1.27-0.732-1.27-1.922,0-2.656C3082.84,3069.984,3084.899,3069.984,3086.17,3070.717z"/>
			</g>
		</g>
		<polygon style="opacity:0.8;fill:#C28E84;" points="3081.71,3208.073 3045.908,3213.25 3101.188,3213.25 3144.403,3202.637 
			3162.813,3186.608 3168.833,3174.258 3153.526,3139.314 3132.342,3126.498 3118.674,3134.382 3118.368,3172.765 
			3108.232,3193.256 		"/>
	</g>
</g>
</svg>
