<?xml version="1.0" encoding="utf-8"?>
<!-- Generator: Adobe Illustrator 27.5.0, SVG Export Plug-In . SVG Version: 6.00 Build 0)  -->
<svg version="1.1" xmlns="http://www.w3.org/2000/svg" xmlns:xlink="http://www.w3.org/1999/xlink" x="0px" y="0px"
	 viewBox="0 0 750 500" style="enable-background:new 0 0 750 500;" xml:space="preserve">
<g id="BACKGROUND">
	<rect x="125" style="fill:#FFFFFF;" width="500" height="500"/>
</g>
<g id="OBJECTS">
	<path style="fill:#BDC777;" d="M242.663,382.801c-6.96-9.853-62.843-14.815-94.002-16.815c-31.158-2-61.299,2-76.118,7.333
		c-14.819,5.334-30.907,19.526-15.494,29.333c18.861,12,61.973,19.333,87.828,19.333c25.855,0,25.855-15.333,59.666-12
		C238.353,413.32,249.623,392.654,242.663,382.801z"/>
	<path style="fill:#BDC777;" d="M552.652,372.654c38.667-10,57.333-4.667,102-0.667c44.667,4,63.333,30,48,42
		s-49.333,20.667-79.333,16.667s-50.667-13.334-74-24.667C525.985,394.654,513.985,382.654,552.652,372.654z"/>
	<g>
		<g>
			<g>
				<path style="fill:#CADB9F;" d="M684.494,398.094c0.84,1.768,0.668,3.906,2.322,5.216c0.197,0.156,0.537-0.044,0.375-0.289
					c-1.074-1.619-0.898-3.754-1.715-5.502C685.167,396.855,684.18,397.433,684.494,398.094L684.494,398.094z"/>
			</g>
		</g>
		<g>
			<g>
				<path style="fill:#CADB9F;" d="M691.424,397.321c-0.03,0.697-0.719,6.77,1.113,6.006c0.119-0.05,0.207-0.217,0.084-0.322
					c-0.383-0.327-0.152-2.187-0.146-2.661c0.017-1.007,0.087-2.016,0.071-3.023C692.536,396.594,691.455,396.6,691.424,397.321
					L691.424,397.321z"/>
			</g>
		</g>
		<g>
			<g>
				<path style="fill:#CADB9F;" d="M698.893,396.836c-0.043,1.085-0.3,2.079-0.705,3.08c-0.403,0.999,0.047,2.15-0.422,3.097
					c-0.131,0.264,0.178,0.494,0.399,0.308c0.286-0.241,0.596-0.522,0.688-0.905c0.117-0.486,0.063-1.272,0.299-1.702
					c0.641-1.168,0.891-2.56,0.926-3.878C700.098,396.07,698.924,396.075,698.893,396.836L698.893,396.836z"/>
			</g>
		</g>
		<g>
			<g>
				<path style="fill:#CADB9F;" d="M611.328,413.36c0.84,1.769,0.668,3.906,2.322,5.216c0.197,0.156,0.537-0.044,0.375-0.289
					c-1.074-1.619-0.899-3.754-1.715-5.502C612.001,412.121,611.013,412.699,611.328,413.36L611.328,413.36z"/>
			</g>
		</g>
		<g>
			<g>
				<path style="fill:#CADB9F;" d="M618.257,412.587c-0.03,0.697-0.719,6.77,1.113,6.005c0.119-0.05,0.207-0.217,0.084-0.322
					c-0.383-0.327-0.152-2.186-0.146-2.661c0.017-1.007,0.087-2.015,0.071-3.022C619.37,411.86,618.289,411.866,618.257,412.587
					L618.257,412.587z"/>
			</g>
		</g>
		<g>
			<g>
				<path style="fill:#CADB9F;" d="M625.726,412.102c-0.043,1.085-0.301,2.079-0.705,3.08c-0.403,0.999,0.047,2.15-0.422,3.097
					c-0.131,0.264,0.178,0.494,0.399,0.308c0.286-0.241,0.596-0.521,0.688-0.905c0.117-0.486,0.063-1.272,0.299-1.702
					c0.641-1.169,0.891-2.561,0.926-3.878C626.931,411.336,625.757,411.341,625.726,412.102L625.726,412.102z"/>
			</g>
		</g>
		<g>
			<g>
				<path style="fill:#CADB9F;" d="M668.494,386.518c0.84,1.769,0.668,3.906,2.323,5.216c0.197,0.156,0.537-0.044,0.375-0.289
					c-1.074-1.619-0.898-3.755-1.715-5.503C669.167,385.28,668.18,385.857,668.494,386.518L668.494,386.518z"/>
			</g>
		</g>
		<g>
			<g>
				<path style="fill:#CADB9F;" d="M675.424,385.746c-0.03,0.697-0.719,6.77,1.113,6.006c0.119-0.05,0.207-0.217,0.084-0.322
					c-0.383-0.327-0.152-2.187-0.146-2.662c0.017-1.007,0.087-2.015,0.071-3.022C676.536,385.019,675.455,385.025,675.424,385.746
					L675.424,385.746z"/>
			</g>
		</g>
		<g>
			<g>
				<path style="fill:#CADB9F;" d="M682.893,385.261c-0.043,1.084-0.301,2.079-0.705,3.081c-0.403,0.998,0.047,2.149-0.422,3.097
					c-0.131,0.264,0.178,0.495,0.399,0.308c0.286-0.241,0.596-0.522,0.688-0.905c0.117-0.486,0.063-1.272,0.299-1.702
					c0.641-1.169,0.891-2.561,0.926-3.878C684.098,384.495,682.924,384.5,682.893,385.261L682.893,385.261z"/>
			</g>
		</g>
		<g>
			<g>
				<path style="fill:#CADB9F;" d="M671.16,413.427c0.84,1.768,0.668,3.906,2.323,5.216c0.196,0.156,0.537-0.044,0.375-0.289
					c-1.074-1.619-0.899-3.754-1.714-5.502C671.833,412.189,670.846,412.766,671.16,413.427L671.16,413.427z"/>
			</g>
		</g>
		<g>
			<g>
				<path style="fill:#CADB9F;" d="M678.091,412.654c-0.031,0.697-0.72,6.77,1.112,6.006c0.12-0.05,0.208-0.217,0.085-0.322
					c-0.383-0.327-0.153-2.187-0.146-2.661c0.017-1.007,0.088-2.016,0.072-3.023C679.202,411.927,678.121,411.933,678.091,412.654
					L678.091,412.654z"/>
			</g>
		</g>
		<g>
			<g>
				<path style="fill:#CADB9F;" d="M685.56,412.169c-0.044,1.085-0.301,2.079-0.705,3.08c-0.404,0.998,0.047,2.15-0.422,3.097
					c-0.131,0.264,0.178,0.494,0.398,0.308c0.286-0.241,0.596-0.522,0.689-0.905c0.117-0.486,0.063-1.272,0.299-1.702
					c0.641-1.168,0.891-2.56,0.925-3.878C686.765,411.403,685.59,411.409,685.56,412.169L685.56,412.169z"/>
			</g>
		</g>
		<g>
			<g>
				<path style="fill:#CADB9F;" d="M631.161,395.124c0.84,1.769,0.668,3.906,2.323,5.216c0.196,0.156,0.537-0.044,0.375-0.289
					c-1.074-1.619-0.899-3.754-1.714-5.502C631.834,393.885,630.847,394.462,631.161,395.124L631.161,395.124z"/>
			</g>
		</g>
		<g>
			<g>
				<path style="fill:#CADB9F;" d="M638.091,394.351c-0.03,0.697-0.719,6.77,1.113,6.005c0.12-0.05,0.208-0.217,0.085-0.322
					c-0.383-0.327-0.153-2.187-0.146-2.661c0.016-1.007,0.087-2.015,0.071-3.022C639.203,393.624,638.122,393.63,638.091,394.351
					L638.091,394.351z"/>
			</g>
		</g>
		<g>
			<g>
				<path style="fill:#CADB9F;" d="M645.56,393.866c-0.044,1.085-0.301,2.079-0.705,3.08c-0.404,0.999,0.046,2.15-0.422,3.097
					c-0.131,0.264,0.177,0.494,0.399,0.308c0.286-0.241,0.596-0.521,0.688-0.905c0.118-0.486,0.063-1.271,0.299-1.702
					c0.64-1.168,0.89-2.56,0.925-3.878C646.765,393.1,645.59,393.105,645.56,393.866L645.56,393.866z"/>
			</g>
		</g>
		<g>
			<g>
				<path style="fill:#CADB9F;" d="M637.327,417.977c0.84,1.769,0.668,3.906,2.323,5.216c0.196,0.156,0.537-0.044,0.375-0.289
					c-1.074-1.619-0.899-3.754-1.714-5.502C638.001,416.738,637.013,417.316,637.327,417.977L637.327,417.977z"/>
			</g>
		</g>
		<g>
			<g>
				<path style="fill:#CADB9F;" d="M644.257,417.205c-0.03,0.697-0.719,6.77,1.113,6.005c0.12-0.05,0.208-0.217,0.085-0.322
					c-0.383-0.327-0.153-2.187-0.146-2.661c0.016-1.007,0.087-2.015,0.071-3.022C645.37,416.478,644.288,416.483,644.257,417.205
					L644.257,417.205z"/>
			</g>
		</g>
		<g>
			<g>
				<path style="fill:#CADB9F;" d="M651.727,416.719c-0.044,1.085-0.301,2.079-0.705,3.08c-0.404,0.999,0.046,2.15-0.422,3.097
					c-0.131,0.264,0.177,0.494,0.399,0.308c0.286-0.241,0.596-0.522,0.688-0.905c0.118-0.486,0.063-1.272,0.299-1.702
					c0.64-1.168,0.89-2.561,0.925-3.878C652.932,415.954,651.757,415.958,651.727,416.719L651.727,416.719z"/>
			</g>
		</g>
		<g>
			<g>
				<path style="fill:#CADB9F;" d="M649.827,405.427c0.84,1.769,0.668,3.906,2.323,5.216c0.196,0.156,0.537-0.044,0.375-0.289
					c-1.074-1.619-0.899-3.755-1.714-5.503C650.501,404.188,649.513,404.766,649.827,405.427L649.827,405.427z"/>
			</g>
		</g>
		<g>
			<g>
				<path style="fill:#CADB9F;" d="M656.757,404.654c-0.03,0.697-0.719,6.77,1.113,6.006c0.12-0.05,0.208-0.217,0.085-0.322
					c-0.383-0.327-0.153-2.187-0.146-2.661c0.016-1.007,0.087-2.016,0.071-3.023C657.87,403.927,656.788,403.933,656.757,404.654
					L656.757,404.654z"/>
			</g>
		</g>
		<g>
			<g>
				<path style="fill:#CADB9F;" d="M664.227,404.169c-0.044,1.085-0.3,2.079-0.705,3.08c-0.404,0.998,0.046,2.15-0.422,3.097
					c-0.131,0.264,0.177,0.494,0.399,0.308c0.286-0.241,0.596-0.522,0.688-0.905c0.118-0.486,0.063-1.272,0.299-1.702
					c0.64-1.168,0.89-2.56,0.925-3.878C665.432,403.403,664.257,403.409,664.227,404.169L664.227,404.169z"/>
			</g>
		</g>
		<g>
			<g>
				<path style="fill:#CADB9F;" d="M614.661,374.511c0.84,1.769,0.668,3.906,2.323,5.216c0.196,0.156,0.537-0.044,0.375-0.289
					c-1.074-1.619-0.899-3.755-1.714-5.503C615.334,373.272,614.347,373.85,614.661,374.511L614.661,374.511z"/>
			</g>
		</g>
		<g>
			<g>
				<path style="fill:#CADB9F;" d="M621.591,373.738c-0.03,0.697-0.719,6.77,1.113,6.006c0.12-0.05,0.208-0.217,0.085-0.322
					c-0.383-0.327-0.153-2.186-0.146-2.661c0.016-1.007,0.087-2.016,0.071-3.023C622.703,373.011,621.622,373.017,621.591,373.738
					L621.591,373.738z"/>
			</g>
		</g>
		<g>
			<g>
				<path style="fill:#CADB9F;" d="M629.06,373.253c-0.044,1.085-0.3,2.079-0.705,3.08c-0.404,0.999,0.046,2.149-0.422,3.097
					c-0.131,0.264,0.177,0.495,0.399,0.308c0.286-0.241,0.596-0.522,0.688-0.905c0.118-0.486,0.063-1.272,0.299-1.702
					c0.64-1.168,0.89-2.56,0.925-3.877C630.265,372.488,629.09,372.493,629.06,373.253L629.06,373.253z"/>
			</g>
		</g>
		<g>
			<g>
				<path style="fill:#CADB9F;" d="M559.161,374.208c0.84,1.768,0.668,3.906,2.323,5.216c0.196,0.156,0.537-0.044,0.375-0.289
					c-1.074-1.619-0.899-3.754-1.714-5.502C559.834,372.969,558.847,373.547,559.161,374.208L559.161,374.208z"/>
			</g>
		</g>
		<g>
			<g>
				<path style="fill:#CADB9F;" d="M566.091,373.435c-0.03,0.697-0.719,6.77,1.113,6.006c0.12-0.05,0.208-0.217,0.085-0.322
					c-0.383-0.327-0.153-2.187-0.146-2.661c0.016-1.007,0.087-2.016,0.071-3.023C567.203,372.708,566.122,372.714,566.091,373.435
					L566.091,373.435z"/>
			</g>
		</g>
		<g>
			<g>
				<path style="fill:#CADB9F;" d="M573.56,372.95c-0.044,1.085-0.301,2.079-0.705,3.081c-0.404,0.998,0.046,2.15-0.422,3.097
					c-0.131,0.264,0.177,0.494,0.399,0.308c0.286-0.241,0.596-0.521,0.688-0.905c0.118-0.486,0.063-1.271,0.299-1.702
					c0.64-1.168,0.89-2.56,0.925-3.878C574.765,372.184,573.59,372.189,573.56,372.95L573.56,372.95z"/>
			</g>
		</g>
		<g>
			<g>
				<path style="fill:#CADB9F;" d="M535.661,386.333c0.84,1.768,0.668,3.906,2.323,5.216c0.196,0.156,0.537-0.044,0.375-0.289
					c-1.074-1.619-0.899-3.755-1.714-5.502C536.334,385.094,535.347,385.672,535.661,386.333L535.661,386.333z"/>
			</g>
		</g>
		<g>
			<g>
				<path style="fill:#CADB9F;" d="M542.591,385.56c-0.03,0.697-0.719,6.77,1.113,6.006c0.12-0.05,0.208-0.217,0.085-0.322
					c-0.383-0.327-0.153-2.186-0.146-2.661c0.016-1.007,0.087-2.016,0.071-3.023C543.703,384.833,542.622,384.839,542.591,385.56
					L542.591,385.56z"/>
			</g>
		</g>
		<g>
			<g>
				<path style="fill:#CADB9F;" d="M550.06,385.076c-0.044,1.084-0.3,2.079-0.705,3.08c-0.404,0.999,0.046,2.15-0.422,3.097
					c-0.131,0.264,0.177,0.494,0.399,0.308c0.286-0.241,0.596-0.522,0.688-0.905c0.118-0.486,0.063-1.272,0.299-1.702
					c0.64-1.168,0.89-2.56,0.925-3.877C551.265,384.31,550.09,384.315,550.06,385.076L550.06,385.076z"/>
			</g>
		</g>
		<g>
			<g>
				<path style="fill:#CADB9F;" d="M581.16,408.76c0.84,1.769,0.668,3.906,2.323,5.216c0.196,0.156,0.537-0.044,0.375-0.289
					c-1.074-1.619-0.899-3.755-1.714-5.502C581.834,407.521,580.846,408.099,581.16,408.76L581.16,408.76z"/>
			</g>
		</g>
		<g>
			<g>
				<path style="fill:#CADB9F;" d="M588.09,407.987c-0.03,0.697-0.719,6.77,1.113,6.006c0.12-0.05,0.208-0.217,0.085-0.322
					c-0.383-0.327-0.153-2.187-0.146-2.661c0.016-1.007,0.087-2.016,0.071-3.023C589.203,407.26,588.121,407.266,588.09,407.987
					L588.09,407.987z"/>
			</g>
		</g>
		<g>
			<g>
				<path style="fill:#CADB9F;" d="M595.56,407.502c-0.044,1.084-0.3,2.079-0.705,3.08c-0.404,0.999,0.046,2.15-0.422,3.097
					c-0.131,0.264,0.177,0.494,0.399,0.308c0.286-0.241,0.596-0.522,0.688-0.905c0.118-0.486,0.063-1.272,0.299-1.702
					c0.64-1.168,0.89-2.56,0.925-3.877C596.765,406.736,595.59,406.742,595.56,407.502L595.56,407.502z"/>
			</g>
		</g>
		<g>
			<g>
				<path style="fill:#CADB9F;" d="M600.494,394.912c0.84,1.768,0.668,3.906,2.323,5.216c0.196,0.156,0.537-0.044,0.375-0.289
					c-1.074-1.619-0.899-3.754-1.714-5.502C601.167,393.673,600.18,394.251,600.494,394.912L600.494,394.912z"/>
			</g>
		</g>
		<g>
			<g>
				<path style="fill:#CADB9F;" d="M607.424,394.14c-0.03,0.697-0.719,6.77,1.113,6.005c0.12-0.05,0.208-0.217,0.085-0.322
					c-0.383-0.327-0.153-2.187-0.146-2.661c0.016-1.007,0.087-2.015,0.071-3.023C608.537,393.413,607.455,393.418,607.424,394.14
					L607.424,394.14z"/>
			</g>
		</g>
		<g>
			<g>
				<path style="fill:#CADB9F;" d="M614.894,393.654c-0.044,1.085-0.301,2.079-0.705,3.08c-0.404,0.999,0.046,2.15-0.422,3.097
					c-0.131,0.264,0.177,0.494,0.399,0.308c0.286-0.241,0.596-0.521,0.688-0.905c0.118-0.486,0.063-1.271,0.299-1.702
					c0.64-1.168,0.89-2.56,0.925-3.878C616.099,392.889,614.924,392.893,614.894,393.654L614.894,393.654z"/>
			</g>
		</g>
		<g>
			<g>
				<path style="fill:#CADB9F;" d="M556.494,396.698c0.84,1.769,0.668,3.906,2.323,5.216c0.196,0.156,0.537-0.044,0.375-0.289
					c-1.074-1.62-0.899-3.754-1.714-5.503C557.167,395.46,556.18,396.037,556.494,396.698L556.494,396.698z"/>
			</g>
		</g>
		<g>
			<g>
				<path style="fill:#CADB9F;" d="M563.424,395.926c-0.03,0.697-0.719,6.77,1.113,6.006c0.12-0.05,0.208-0.217,0.085-0.322
					c-0.383-0.327-0.153-2.186-0.146-2.661c0.016-1.007,0.087-2.016,0.071-3.023C564.536,395.199,563.455,395.205,563.424,395.926
					L563.424,395.926z"/>
			</g>
		</g>
		<g>
			<g>
				<path style="fill:#CADB9F;" d="M570.893,395.441c-0.044,1.085-0.3,2.079-0.705,3.08c-0.404,0.999,0.046,2.149-0.422,3.097
					c-0.131,0.264,0.177,0.495,0.399,0.308c0.286-0.241,0.596-0.522,0.688-0.905c0.118-0.486,0.063-1.272,0.299-1.702
					c0.64-1.168,0.89-2.56,0.925-3.877C572.098,394.675,570.923,394.68,570.893,395.441L570.893,395.441z"/>
			</g>
		</g>
	</g>
	<g>
		<path style="fill:#CCB6BB;" d="M581.152,147.906c-3-1.25-10.75,3.5-14.75,10.5s-7.75,21.25-7.75,21.25l17.5,5.75
			C576.152,185.406,584.152,149.156,581.152,147.906z"/>
		<g>
			<path style="fill:#E9B24C;" d="M612.769,107.713c0,0-2.089-17.85-6.448-25.59c-3.944-7.003-7.966-3.534-10.604-2.848
				c-2.314-1.438-5.127-5.942-10.97-0.424c-6.458,6.101-13.745,22.527-13.745,22.527L612.769,107.713z"/>
			<path style="fill:#C99A42;" d="M632.193,109.982c-0.754,4.976-19.368,6.281-41.574,2.914
				c-22.206-3.367-39.596-10.131-38.841-15.107c0.755-4.977,19.368-6.282,41.574-2.915
				C615.559,98.241,632.948,105.005,632.193,109.982z"/>
			<path style="fill:#FEC75D;" d="M593.103,96.522c20.965,3.179,37.629,9.386,38.792,14.257c0.151-0.255,0.257-0.519,0.299-0.797
				c0.755-4.977-16.635-11.741-38.841-15.108c-22.206-3.367-40.819-2.062-41.574,2.915c-0.042,0.278-0.019,0.562,0.05,0.85
				C554.382,94.33,572.137,93.343,593.103,96.522z"/>
		</g>
		<path style="fill:#6E834C;" d="M604.152,344.99c0,0-16,10.273-25.333,4.334c-1.078-0.361-7.053-36.811-8.333-43.667
			c-1.282-6.855-1.786-34.709-1.571-40.022c0.596-14.831,2.754-42.217,4.905-47.313c2.389-5.668,44.111-8.135,47.74-4.104
			c2.228,2.473,7.518,6.855,10.212,16.056c2.694,9.2-0.416,28.144,1.795,47.627c0.359,3.161,1.259,13.249,6.585,21.755
			c5.326,8.507,13.445,37.004,12.5,39c-1.601,3.372-4.043,7.691-18.5,10c-1.535,0.243-31.834-62.455-31.834-62.455
			s-1.436,7.938-1.077,11.187C601.599,300.634,604.152,344.99,604.152,344.99z"/>
		<path style="fill:#CCB6BB;" d="M618.419,189.418c2.961-14.172,7.793-31.215,3.483-39.513c-4.31-8.301-21.119-7.244-27.282-6.08
			c-6.163,1.163-17.346,3.502-19.718,7.08c-2.373,3.577-3.201,13.517-3.75,16.25c-0.549,2.733,2.75,17,2.667,22.834
			c-0.079,5.492-1.251,34.073-0.959,34.65c0.777,1.525,16.896,4.044,26.991,3.446c10.1-0.601,24.795-9.163,25.842-10.336
			C625.693,217.751,616.661,197.833,618.419,189.418z"/>
		<path style="fill:#FACCBB;" d="M582.81,134.714l1.753,12.77c0,0,0.583,9.182,8.621,7.939c8.037-1.245,9.607-10.496,9.607-10.496
			l-6.484-17.664L582.81,134.714z"/>
		<path style="fill:#DC8C7A;" d="M597.902,132.656c0,0-4.5,2.5-7.25,4c-2.457,1.34-4.981,2.312-7.163,3.005l0.842,6.135
			c1.849-0.132,3.916-0.568,6.071-1.39C595.652,142.406,597.902,132.656,597.902,132.656z"/>
		<path style="fill:#AC6831;" d="M582.088,96.62c0,0-17.96,1.356-18.305,18.555c-0.47,23.52,25.07,20.921,29.563,17.094
			C597.842,128.441,590.965,101.491,582.088,96.62z"/>
		<path style="fill:#FACCBB;" d="M569.367,109.113c-1.5,4.887-4.754,22.989,5.825,29.423c13.971,8.509,26.157-0.812,30.47-16.58
			c3.276-11.976-3.069-22.283-17.844-23.632C576.024,97.245,570.862,104.225,569.367,109.113z"/>
		<path style="fill:#AC6831;" d="M610.945,105.649c-4.699-2.047-9.411-4.058-14.016-6.308c-5.231-2.556-18.473-3.669-23.111-3.352
			c-4.638,0.317-12.758,12.184-8.164,16.777c2.878,2.879,9.571-8.806,9.571-8.806s1.449,4.005,4.977,6.125
			c3.528,2.121,6.74,2.345,10.602,3.181c1.728,0.371,4.688,2.121,6.358,4.308c0.071,0.979,2.127,3.981,2.656,7.748
			c0.603,4.295-1.899,9.03-0.334,9.334c2.938,0.57,7.3-1.641,9.268-5.699C611.485,123.324,613.485,108.99,610.945,105.649z"/>
		<g>
			<path style="fill:#7C564F;" d="M586.62,119.337c-3.665-0.053-3.743,5.646-0.082,5.704
				C590.203,125.093,590.278,119.392,586.62,119.337z"/>
			<path style="fill:#7C564F;" d="M572.197,120.976c-3.442-0.052-3.518,5.312-0.073,5.363
				C575.57,126.391,575.642,121.031,572.197,120.976z"/>
			<path style="fill:#DC8C7A;" d="M580.121,127.938c-0.607-0.55-1.46-0.506-2.085-1.031c-0.098-0.081-0.179-0.18-0.253-0.285
				c0.09-0.147,0.193-0.287,0.33-0.399c0.319-0.324,0.774-0.538,1.017-0.935c0.618-1.005,0.582-2.264,0.304-3.363
				c-0.194-0.773-1.314-0.801-1.547-0.038c-0.158,0.526-0.228,1.01-0.27,1.56c-0.049,0.612-0.64,0.82-1.039,1.162
				c-0.714,0.609-1.337,1.438-1.153,2.434c0.305,1.657,2.687,3.622,4.347,2.588C580.288,129.309,580.658,128.424,580.121,127.938z"
				/>
			<path style="fill:#FFFFFF;" d="M576.087,132.867c0,0,6.738-3.307,12.398-3.877c0,0,0.828,6.599-3.507,7.655
				C578.097,138.323,576.087,132.867,576.087,132.867z"/>
			<path style="fill:#AC6831;" d="M572.464,117.689c-0.47-0.591-1.27-0.787-1.987-0.572c-0.669,0.202-1.533,0.705-1.855,1.351
				c-0.57,1.149,0.89,2.02,1.663,1.033c-0.178,0.226,0.101,0.006,0.203-0.029c0.299-0.103,0.688-0.116,0.954-0.295
				c0.249-0.166,0.544-0.294,0.741-0.522c0.131-0.146,0.214-0.316,0.335-0.471C572.635,118.034,572.569,117.82,572.464,117.689z"/>
			<path style="fill:#AC6831;" d="M589.18,116.338c-0.967-1.723-3.479-1.888-4.84-0.516c-0.274,0.28-0.351,0.819-0.024,1.101
				c0.302,0.26,0.6,0.525,1.022,0.536c0.49,0.013,0.966-0.188,1.458-0.182c0.152,0.069,0.313,0.106,0.483,0.11
				c0.266,0.007,0.556-0.076,0.815-0.132c0.437-0.095,0.734-0.206,1.032-0.55C589.216,116.603,589.253,116.466,589.18,116.338z"/>
		</g>
		<path style="fill:#FACCBB;" d="M600.975,117.753c2.009-0.112,4.625,3.023,4.636,5.115c0.01,1.959-0.783,3.371-2.031,4.678
			c-1.25,1.308-2.854,2.357-5.14,2.607C596.156,130.406,593.396,118.179,600.975,117.753z"/>
		<path style="fill:#AC6831;" d="M603.485,107.99c0,0,4.334-3,7.667-4c3.333-1,10.136,2.365,11.667,14.999
			c1.531,12.635,10.28,15.548,19.852,11.336c0,0-5.505,13.687-17.611,10.72c-17.907-4.388-16.24-22.056-15.907-25.389
			C609.485,112.323,603.485,107.99,603.485,107.99z"/>
		<path style="fill:none;stroke:#5B6D39;stroke-miterlimit:10;" d="M587.152,240.656c0,0,1,4.333,3.667,6.333c2.885,2.163,5,3,5,3
			s-0.333,20.667,6,34.667"/>
		<path style="fill:#41383D;" d="M603.485,386.657c0.798-2.471-1.984-31.463-1.984-31.463l-20.32,1.15c0,0,0.104,13.793-1.17,15.777
			c-1.274,1.984-6.853,4.563-12.493,9.681c-3.829,3.474-6.578,11.374,2.812,12.282C589.635,395.953,602.232,390.542,603.485,386.657
			z"/>
		<path style="fill:#8E9D6B;" d="M575.819,344.324c-1.667,4,1.243,13.149,2.788,15.241c1.545,2.092,22.802,2.886,25.545-1.908
			c2.743-4.793,2.557-13.67,1-16C603.595,339.327,577.486,340.324,575.819,344.324z"/>
		<path style="fill:#41383D;" d="M668.233,373.102c-0.044-2.597-12.057-29.129-12.057-29.129l-18.855,7.663
			c0,0,4.561,13.017,3.998,15.308c-0.565,2.289-5.007,6.533-8.69,13.201c-2.499,4.525-2.544,12.891,6.634,10.712
			C658.135,386.378,668.304,377.183,668.233,373.102z"/>
		<path style="fill:#8E9D6B;" d="M628.358,341.997c-0.283,4.324,5.43,12.04,7.569,13.52c2.139,1.48,22.51-4.646,23.553-10.07
			c1.046-5.423-2.002-13.762-4.229-15.464C653.024,328.282,628.641,337.672,628.358,341.997z"/>
		<path style="fill:#6E834C;" d="M569.652,169.406c-0.5,4.25,0.5,13.751,1.167,17.417c0.667,3.666,0.31,40.787,1.333,42.834
			c2.253,4.505,16.643,4.671,30.5,1.249c12.288-3.033,23.295-9.105,24-10.75c1.5-3.5-7.5-26.75-7.5-26.75s-4.04,1.373-7.5-3
			c-4.619-5.838-5.761-17.728-6.25-20.5c-0.789-4.468-13.083-4.916-17.25-4.75C583.985,165.322,570.152,165.156,569.652,169.406z"/>
		<path style="fill:none;stroke:#5B6D39;stroke-miterlimit:10;" d="M572.819,232.323c0,0,33.333,3.083,54.083-11.917"/>
		<path style="fill:none;stroke:#5B6D39;stroke-miterlimit:10;" d="M611.152,231.657c0,0,2,6.666,9.333,7.999
			c7.333,1.333,11.334-2.333,11.334-2.333"/>
		<g>
			<g>
				<path style="fill:none;stroke:#5B6D39;stroke-miterlimit:10;" d="M607.485,231.323c0,0,0.175,0.543,0.538,1.396"/>
				<path style="fill:none;stroke:#5B6D39;stroke-miterlimit:10;stroke-dasharray:2.9999,2.9999;" d="M609.35,235.406
					c1.73,3.048,4.711,6.813,9.135,7.583c4.3,0.748,7.866,0.238,10.169-0.355"/>
				<path style="fill:none;stroke:#5B6D39;stroke-miterlimit:10;" d="M630.094,242.206c0.899-0.305,1.391-0.551,1.391-0.551"/>
			</g>
		</g>
		<path style="fill:#5B6D39;" d="M571.882,180.104c0,0-0.026,23.755,12.468,23.552c19.245-0.314,12.739-25.75,12.739-25.75
			L571.882,180.104z"/>
		<path style="fill:#6E834C;" d="M574.902,148.906c0,0-5,5-5.75,11.25s1,10,1,10l5-0.75c0,0-1.25-8.5,1.25-14.25s3.5-8,3.5-8
			L574.902,148.906z"/>
		<path style="fill:#6E834C;" d="M608.402,142.906c0,0-9.25,9.25-10.25,18.5s1,12,1,12s6.164,1.88,6-0.25
			c-0.25-3.25-0.231-14.88,2.5-19.25c3.75-6,7.75-10,7.75-10L608.402,142.906z"/>
		<path style="fill:#FACCBB;" d="M615.818,181.656c0,0,1.666,9,0,10.333c-1.666,1.333-13.334,4-22.667,5.667l-1.333,9
			c0,0,28.333,5,37.666,0c9.334-5,3-33,3-33L615.818,181.656z"/>
		<g>
			<path style="fill:#CCB6BB;" d="M612.485,147.323c0,0-7,12.666-2.333,24c4.667,11.334,6.333,17,6.333,17s18-0.667,17.667-12
				C633.819,164.99,622.818,139.323,612.485,147.323z"/>
			<path style="fill:none;stroke:#93868F;stroke-miterlimit:10;" d="M609.568,155.073c-1.167,4.583-1.75,10.583,0.583,16.25
				c4.667,11.334,6.333,17,6.333,17"/>
		</g>
		<g>
			<path style="fill:#B07209;" d="M534.485,181.322l58.334-4.666c0,0,0.152,12.498-0.462,23.328
				c-0.69,12.161-0.538,29.339-22.871,30.672c-18.406,1.099-26.333-7-30-22C535.818,193.656,534.485,181.322,534.485,181.322z"/>
			<path style="fill:#C28B23;" d="M591.868,197.122c-2.985-0.442-6.135-0.063-9.157,0.17c-0.386-2.465-0.863-4.911-1.418-7.312
				c0.119-0.016,0.24-0.034,0.359-0.05c4.062-0.529,8,1.572,10.694-2.474c0.544-0.816-0.348-1.855-1.235-1.606
				c-3.666,1.027-6.762,1.708-10.333,1.981c-0.23-0.901-0.469-1.795-0.722-2.676c-0.291-1.015-1.846-0.819-1.841,0.249
				c0.004,0.854,0.031,1.706,0.072,2.557c-3.974,0.106-7.794,0.859-11.682,1.639c-0.333,0.066-0.67,0.122-1.008,0.178
				c-0.584-1.592-1.296-3.122-2.216-4.549c-0.495-0.769-1.894-0.282-1.542,0.65c0.519,1.373,0.948,2.78,1.315,4.212
				c-2.458,0.239-4.987,0.287-7.44,0.339c-0.288-1.768-0.561-3.537-0.817-5.3c-0.173-1.195-1.984-0.835-2.026,0.274
				c-0.064,1.704,0.006,3.402,0.162,5.095c-2.414,0.075-5.09,0.157-7.687-0.06c-0.298-1.465-0.62-2.924-0.989-4.367
				c-0.287-1.124-2.229-1.266-2.411,0c-0.176,1.224-0.056,2.553,0.164,3.896c-1.065-0.235-2.091-0.542-3.03-0.975
				c-1.577-0.727-2.93,1.649-1.356,2.32c1.766,0.753,3.324,1.059,4.863,1.126c0.213,1.008,0.423,1.995,0.548,2.917
				c0.179,1.322,0.442,2.627,0.742,3.924c-1.182-0.231-2.327-0.508-3.392-0.832c-1.545-0.471-2.226,2.013-0.665,2.41
				c1.545,0.394,3.089,0.626,4.634,0.761c0.597,2.317,1.23,4.626,1.668,6.975c-1.203-0.23-2.397-0.508-3.579-0.856
				c-1.821-0.537-2.614,2.363-0.781,2.832c1.605,0.411,3.223,0.693,4.851,0.89c0.369,1.941,0.921,3.761,1.578,5.543
				c-1.062-0.334-2.107-0.735-3.125-1.231c-1.536-0.748-2.854,1.607-1.325,2.266c1.776,0.766,3.59,1.207,5.426,1.457
				c0.514,1.258,1.051,2.523,1.582,3.831c0.102,0.249,0.206,0.505,0.316,0.76c-0.913,0.312-1.131,1.878,0.039,2.154
				c0.513,0.121,1.024,0.213,1.536,0.307c0.529,0.454,1.18,0.707,2.013,0.608c0.176-0.021,0.327-0.113,0.417-0.245
				c1.979,0.219,3.956,0.269,5.942,0.225c0.611,1.504,1.549,2.956,2.958,3.184c0.485,0.078,1.016-0.3,0.846-0.846
				c-0.256-0.819-0.494-1.649-0.742-2.474c1.335-0.087,2.677-0.199,4.029-0.325c0.737-0.068,1.472-0.118,2.206-0.163
				c0.253,1.016,0.56,2,0.981,2.899c0.479,1.025,2.208,0.293,1.828-0.771c-0.249-0.694-0.407-1.452-0.516-2.242
				c1.833-0.074,3.667-0.123,5.52-0.219c0.304-0.016,0.576-0.019,0.835-0.02c0.026,0.574,0.118,1.134,0.314,1.671
				c0.181,0.496,0.697,0.604,1.097,0.289c2.157-1.702,3.087-5.146,3.455-8.809c1.18-0.059,2.288-0.325,3.399-1.338
				c0.772-0.703,0.147-1.952-0.817-1.974c-0.776-0.018-1.578,0.07-2.388,0.2c0.061-2.235-0.02-4.382-0.096-6.121
				c0.161-0.017,0.323-0.029,0.484-0.047c2.427-0.268,5.129,0.213,6.606-1.979c0.782-1.161-0.691-2.252-1.753-1.753
				c-1.444,0.68-3.427,1.134-5.454,1.418c-0.139-2.677-0.387-5.399-0.753-8.127c0.667,0.102,1.32,0.264,1.956,0.504
				c2.843,1.073,5.926,0.878,7.348-1.778C592.576,197.9,592.411,197.203,591.868,197.122z M578.445,190.392
				c0.192,2.405,0.479,4.799,0.784,7.191c-3.794,0.35-7.6,0.818-11.392,1.199c-0.426-2.318-0.887-4.641-1.54-6.876
				C570.317,191.719,574.419,191.007,578.445,190.392z M566.704,209.024c0.007,0.029,0.014,0.06,0.021,0.09
				c-2.414,0.126-4.849,0.256-7.291,0.319c-0.63-2.747-1.226-5.503-1.776-8.266c2.495-0.202,4.993-0.362,7.496-0.301
				C565.588,203.626,566.044,206.371,566.704,209.024z M563.59,191.941c0.51,2.314,0.897,4.674,1.268,7.037
				c-2.513,0.089-5.007,0.051-7.549,0.377c-0.504-2.615-0.98-5.231-1.415-7.845C558.445,191.632,560.978,191.89,563.59,191.941z
				 M545.706,192.296c1.06-0.129,2.162-0.31,3.371-0.507c1.376-0.225,2.722-0.318,4.051-0.338c0.312,2.781,0.85,5.548,1.445,8.303
				c-2.42,0.301-5.056,0.28-7.642-0.01C546.56,197.251,546.166,194.763,545.706,192.296z M547.875,206.117
				c-0.22-1.449-0.432-2.902-0.645-4.355c2.565,0.035,5.132-0.153,7.702-0.367c0.599,2.7,1.215,5.391,1.694,8.073
				c-2.769-0.003-5.533-0.127-8.259-0.502C548.19,208.04,548.024,207.099,547.875,206.117z M550.897,217.7
				c-0.818-2.013-1.446-3.979-1.944-6.013c2.263,0.162,4.541,0.182,6.825,0.139c0.417-0.008,0.855-0.016,1.279-0.023
				c0.437,2.195,0.979,4.381,1.546,6.56C556.001,218.364,553.41,218.204,550.897,217.7z M554.398,224.638
				c-0.748-1.557-1.759-3.08-2.472-4.581c-0.053-0.112-0.097-0.22-0.149-0.331c2.357,0.105,4.745-0.03,7.136-0.178
				c0.472,1.793,0.95,3.58,1.391,5.365c0.02,0.08,0.042,0.166,0.065,0.251C558.367,225.121,556.372,224.973,554.398,224.638z
				 M559.971,211.744c2.428-0.055,4.896-0.143,7.294-0.334c0.485,2.141,0.924,4.298,1.361,6.451
				c-2.299,0.154-4.649,0.335-7.02,0.435C561.033,216.122,560.493,213.937,559.971,211.744z M568.102,224.933
				c-1.525,0.099-3.054,0.18-4.583,0.221c-0.56-1.914-1.102-3.84-1.622-5.777c2.01-0.1,4.017-0.141,6.004,0.011
				c0.353,0.026,0.702,0.051,1.052,0.075c0.048,0.232,0.095,0.467,0.143,0.7c0.302,1.45,0.524,3.028,0.822,4.585
				C569.298,224.829,568.69,224.895,568.102,224.933z M572.417,224.372c-0.096-1.617-0.123-3.266-0.345-4.742
				c2.663,0.1,5.293,0.063,8.015-0.24c-0.212,1.422-0.649,2.901-0.918,4.349C576.987,223.649,574.664,224.012,572.417,224.372z
				 M580.221,216.909c-0.132,0.021-0.265,0.045-0.396,0.063c-2.693,0.37-5.379,0.534-8.081,0.694
				c-0.379-2.21-0.778-4.403-1.241-6.586c3.273-0.422,6.585-0.519,9.887-0.721C580.38,212.539,580.253,214.715,580.221,216.909z
				 M577.643,208.08c-2.574-0.081-5.105,0.436-7.647,0.762c-0.162-0.674-0.317-1.349-0.499-2.022
				c-0.503-1.861-0.884-3.808-1.247-5.78c3.539,0.148,7.477-1.156,11.227-1.498c0.324,2.545,0.634,5.092,0.822,7.654
				c0.021,0.284,0.032,0.567,0.045,0.851C579.358,208.094,578.435,208.105,577.643,208.08z"/>
			<path style="fill:#B04208;" d="M544.902,177.656c0,0-2.75-13,7-15s11.25,13.25,11.25,13.25L544.902,177.656z"/>
			<path style="fill:#B04208;" d="M571.652,176.156c0,0-2.75-13,7-15s11.25,13.25,11.25,13.25L571.652,176.156z"/>
			<path style="fill:#BF4809;" d="M560.152,178.906c0,0-2.75-13,7-15s11.25,13.25,11.25,13.25L560.152,178.906z"/>
			<path style="fill:#BF4809;" d="M536.652,184.156c0,0-2.75-13,7-15s11.25,13.25,11.25,13.25L536.652,184.156z"/>
			<path style="fill:#DD6B09;" d="M546.015,181.215c0,0-1.086-13.243,8.838-13.996c9.924-0.753,9.486,14.566,9.486,14.566
				L546.015,181.215z"/>
			<path style="fill:#DD6B09;" d="M574.309,180.281c0,0-1.175-13.235,8.745-14.055c9.919-0.819,9.583,14.502,9.583,14.502
				L574.309,180.281z"/>
			<path style="fill:#F28609;" d="M559.241,182.212c0,0-1.014-12.361,8.25-13.064c9.263-0.703,8.854,13.595,8.854,13.595
				L559.241,182.212z"/>
			<g>
				<path style="fill:#FACCBB;" d="M573.427,203.819c1.88,0.676,5.488,1.693,8.852,4.094c3.362,2.402,9.14,1.771,11.512,0.199
					c2.371-1.57,3.686-4.875,3.377-6.99c-0.307-2.115-4.303-6.237-7.127-8.688c-2.821-2.451-7.388-4.982-9.764-3.049
					c-0.409,0.33-0.535,0.898-0.535,0.898s-1.539-0.69-3.689-0.971c-1.853-0.242-5.22-1.016-4.568,2.2
					c-2.247,0.122-2.71,3.126-1.971,3.677c-1.747,0.871-1.111,3.841,0.889,4.716C569.734,200.749,571.549,203.144,573.427,203.819z"
					/>
				<path style="fill:none;stroke:#DC8C7A;stroke-miterlimit:10;" d="M580.277,190.531c0,0,4.25,0.375,7.375,3.625"/>
				<path style="fill:none;stroke:#DC8C7A;stroke-miterlimit:10;" d="M572.652,191.781c0,0,3.75-0.25,7.375,1s5.375,3.75,5.375,3.75
					"/>
				<path style="fill:none;stroke:#DC8C7A;stroke-miterlimit:10;" d="M570.527,195.531c0,0,3.75-0.125,6.75,0.625
					c1.803,0.451,5.75,3,5.75,3"/>
				<path style="fill:none;stroke:#DC8C7A;stroke-miterlimit:10;" d="M570.777,199.906c0,0,2.5-0.5,5-0.125s5.125,2.125,5.125,2.125
					"/>
			</g>
			<g>
				<path style="fill:#FACCBB;" d="M535.485,206.823c-1.63-3.092-1.833-8.666-1.666-11c0.166-2.334,2.812-6.619,3.633-7.896
					c1.7-2.646,4.88-2.886,5.477-1.703c0.598,1.183-0.277,1.933-0.277,1.933s1.75-0.25,2.375,0.5s0.125,2.5-0.375,3
					c1.625,0.125,0.595,2.871,0.495,2.988c1.101,0.741,0.794,2.506-0.37,4.137c-0.805,1.127-2.75,4.375-2.75,4.375
					s0.475,3.712-0.208,5.5c-0.684,1.788-0.924,4.199-2.334,3.333C538.076,211.122,537.114,209.915,535.485,206.823z"/>
				<path style="fill:none;stroke:#DC8C7A;stroke-miterlimit:10;" d="M541.985,188.489c0,0-3.208,0.167-5.083,4.667"/>
				<path style="fill:none;stroke:#DC8C7A;stroke-miterlimit:10;" d="M544.152,191.823c0,0-4-0.167-6.25,4.958"/>
				<path style="fill:none;stroke:#DC8C7A;stroke-miterlimit:10;" d="M544.485,195.156c-5.788,2.787-5.1,6.702-5.083,6.25"/>
			</g>
			<path style="fill:#B89013;" d="M532.902,180.406c0,0-1.25,4.5,1,5.25s20.75-1.25,31.5-1.75s27-1,28-3.25s1-5.25-0.5-5.25
				s-36.25,2.75-39.75,2.75S532.902,180.406,532.902,180.406z"/>
			<path style="fill:#6D3308;" d="M542.483,172.575c0.081-0.056,0.079-0.144-0.006-0.264c-0.056-0.203-0.183-0.407-0.283-0.591
				c-0.218-0.398-0.49-0.758-0.715-1.152c-0.449-0.784-0.923-1.54-1.321-2.354c-0.461-0.941-1.779-0.246-1.599,0.674
				c0.208,1.061,0.422,2.143,1.007,3.067c0.308,0.487,0.664,0.936,1.172,1.221c0.197,0.11,0.406,0.188,0.623,0.251
				c0.205,0.059,0.628-0.077,0.667-0.069C542.479,173.447,542.822,172.928,542.483,172.575z"/>
			<path style="fill:#6D3308;" d="M570.127,163.478c-0.035-0.446-0.014-0.941-0.124-1.376c-0.086-0.344-0.266-0.627-0.327-0.978
				c-0.208-1.198-2.108-0.894-2.087,0.282c0.006,0.34,0.048,0.656,0.147,0.98c0.087,0.285-0.036,0.777-0.06,1.092
				c-0.039,0.505-0.075,0.924,0.022,1.427c0.08,0.417,0.292,0.665,0.467,1.035c0.19,0.401,0.763,0.329,0.972,0
				c0.105-0.116,0.222-0.219,0.351-0.308c0.199-0.154,0.327-0.494,0.445-0.707C570.171,164.496,570.163,163.952,570.127,163.478z"/>
			<path style="fill:#6D3308;" d="M585.204,160.461c-0.534-0.313-1.17-0.105-1.497,0.393c-0.195,0.297-0.192,0.292-0.429,0.556
				c-0.118,0.131-0.247,0.25-0.38,0.366c-0.069,0.05-0.134,0.106-0.194,0.167c0.218-0.204-0.47,0.563-0.217,0.28
				c-0.784,0.872-0.024,2.199,1.129,1.939c1.16-0.262,1.701-1.45,2.09-2.466C585.88,161.244,585.596,160.691,585.204,160.461z"/>
		</g>
	</g>
	<g>
		<path style="fill:#FACCBB;" d="M168.096,253.71c0,0,3.441,14.572,7.541,18.499c4.1,3.927,23.7,21.835,23.7,21.835l-6.149,7.635
			c0,0-27.249-13.036-33.41-21.432c-6.161-8.396-8.335-21.888-8.335-21.888L168.096,253.71z"/>
		<g>
			<path style="fill:#FACCBB;" d="M216.599,303.168c-0.644-4.028-8.762-5.378-8.762-5.378s3.225,0.03,2.903-1.982
				c-0.322-2.015-3.773-2.315-7.094-4.093c-2.922-1.563-9.527-1.714-9.844-0.672c-0.316,1.041-5.816,7.4-5.816,7.4
				s3.781,7.218,9.022,10.782c1.671,1.138,4.345,2.335,6.574,2.707c2.062,0.345,2.827,0.971,4.511,0.129
				c1.805-0.902,0.86-2.276,0.86-2.276s2.099,0.492,2.749,0.214c1.805-0.773,1.289-2.19,1.289-2.19s1.16,0.516,2.191-0.645
				c1.031-1.16,0.128-2.32,0.128-2.32S216.689,303.726,216.599,303.168z"/>
			<path style="fill:none;stroke:#DC8C7A;stroke-miterlimit:10;" d="M202.593,295.349c0,0,0.347,2.304,5.243,2.44"/>
			<path style="fill:none;stroke:#DC8C7A;stroke-miterlimit:10;" d="M202.593,299.301c0,0,3.609,1.719,7.39,3.093
				c3.78,1.375,5.156,2.578,5.156,2.578"/>
			<path style="fill:none;stroke:#DC8C7A;stroke-miterlimit:10;" d="M200.875,302.394c0,0,3.265,2.063,6.53,3.094
				c3.266,1.031,5.156,2.406,5.156,2.406"/>
			<path style="fill:none;stroke:#DC8C7A;stroke-miterlimit:10;" d="M199.843,305.66c0,0,5.843,3.609,8.764,4.468"/>
		</g>
		<path style="fill:#D15431;" d="M152.705,169.87c0,0,16.766,3.382,18.789,18.232c2.02,14.851-5.504,26.265-8.399,32.673
			c-1.448,3.205,0.224,8.092,1.891,13.426c1.667,5.334-1.361,17.811-7.667,16c-8.015-2.301-4.932-14.052-6.766-18.367
			c-1.833-4.317-7.359-18.191-10.494-20.193C136.926,209.636,139.221,171.478,152.705,169.87z"/>
		<path style="fill:#83C783;" d="M157.985,227.867c0,0,5.333,3.333,8.333,10c2.393,5.317,4.667,20.333,4.667,20.333l-15.333,6
			c0,0-3.333-9-5.333-18S157.985,227.867,157.985,227.867z"/>
		<g>
			<path style="fill:#6E834C;" d="M152.774,295.803c10.91-3.226,25.654-6.685,33.878,6.065c6.666,10.334-8.473,46.217-10.334,48
				c-1.863,1.789-16.457,0.821-18-1c-3.432-4.048-3.666-15-3.666-15s-9.334,1.33-13.334,1.998s-22.848-3.771-26-12
				c-2.941-7.681-8.041-21.1-8.041-21.1S141.864,299.029,152.774,295.803z"/>
		</g>
		<path style="fill:#6E834C;" d="M93.319,293.534c0,0-5.001,21.121,1.666,31.788c6.667,10.667,17.333,12.667,17.333,12.667
			s-2.999,7.211-8.333,11.877l5.333,10.667c0,0,30-8.667,36.667-12.667s4-16.333,2-21.333s-19-30-19-30L93.319,293.534z"/>
		<g>
			<path style="fill:#41383D;" d="M161.27,386.907c-1.086-2.359-1.765-31.476-1.765-31.476l20.313-1.271
				c0,0,1.534,13.707,3.035,15.527c1.501,1.817,7.345,3.716,13.554,8.128c4.214,2.994,7.882,10.513-1.333,12.529
				C176.126,394.492,162.975,390.615,161.27,386.907z"/>
			<path style="fill:#8E9D6B;" d="M183.715,341.588c-2.13-3.775-28.173-1.664-29.443,0.833c-1.268,2.5-0.399,11.336,2.894,15.769
				c3.292,4.436,24.306,1.123,25.591-1.138C184.042,354.792,185.844,345.362,183.715,341.588z"/>
		</g>
		<g>
			<path style="fill:#41383D;" d="M76.012,364.099c1.498-2.122,26.356-17.296,26.356-17.296l11.275,16.944
				c0,0-11.095,8.195-11.918,10.406c-0.398,1.07-0.648,3.99,0.926,5.931c1.657,2.043,6,4.666,6.667,8.666
				c0.79,4.742-6,8.667-17,5.667c-6.067-1.654-9.184-7.317-11.854-11.326C74.899,374.736,74.42,366.352,76.012,364.099z"/>
			<path style="fill:#8E9D6B;" d="M126.478,360.823c2.199-3.733-12.673-25.217-15.471-25.065
				c-2.799,0.154-10.011,5.333-12.197,10.403c-2.19,5.071,11.203,21.599,13.804,21.579
				C115.214,367.72,124.277,364.556,126.478,360.823z"/>
		</g>
		<path style="fill:#83C783;" d="M146.652,295.867c0,0,3.114-14.664,4.979-22.739c1.474-6.383,12.519-17.549,8.997-25.168
			c-4.263-9.22-0.327-15.6-2.455-19.821c-2.129-4.226-13.327-5.762-19.934-7.857c-6.609-2.095-20.777-5.353-26.609,3.138
			c-5.832,8.488-9.646,17.782-12.646,30.115c-1.993,8.193-4,37.333-4,37.333s22,5,28.334,5.667S146.652,295.867,146.652,295.867z"/>
		<path style="fill:#FACCBB;" d="M151.626,213.46c0,0-1.117,3.384-2.746,8.982c-1.295,4.459-1.542,12.878-9.199,10.728
			c-7.654-2.15-8.652-12.199-8.652-12.199l8.37-16.303L151.626,213.46z"/>
		<path style="fill:#DC8C7A;" d="M151.14,214.972l-15.383-3.21l-0.716,1.395c0.678,2.353,2.395,6.689,6.278,9.042
			c2.775,1.682,5.209,2.216,7.112,2.057c0.145-0.648,0.289-1.261,0.449-1.814C149.866,219.05,150.663,216.479,151.14,214.972z"/>
		<path style="fill:#6E834C;" d="M124.652,243.201c0,0,16,4,22,4.666s15.333-3.333,15.333-3.333s2.334,10.666-2.333,18.333
			c-4.667,7.667-13,39.667-13.334,40.667c-0.333,1-53-7.333-53-7.333l0.333-15.334c0,0,10.666-3.666,20.333-12.666
			S124.652,243.201,124.652,243.201z"/>
		<path style="fill:none;stroke:#5B6D39;stroke-miterlimit:10;" d="M95.319,293.201c0,0,11,5.001,27,5.667c16,0.666,25-2,25-2"/>
		<path style="fill:#5B6D39;" d="M135.596,261.201c0,0-4.07,13.666-0.61,18.333s12.623,5.334,15.627,0.667
			c3.003-4.667,5.706-16.667,5.706-16.667L135.596,261.201z"/>
		<path style="fill:#6E834C;" d="M116.985,218.2c0,0,8,9.334,9.333,15.334c1.334,6,0.667,14.999,0.667,14.999l5.667,0.667
			c0,0,1.333-13.334-1-19c-2.334-5.666-4.334-11.332-7-12.666C121.985,216.2,116.985,218.2,116.985,218.2z"/>
		<path style="fill:#6E834C;" d="M151.319,223.534c0,0,4.667,6.333,5.667,14c1,7.667,1,12.333,1,12.333l3.667-2
			c0,0,0.941-15.613-3.334-20.666C154.652,222.867,151.319,223.534,151.319,223.534z"/>
		<path style="fill:#FACCBB;" d="M168.636,194.195c-0.169,4.976-2.921,22.668-14.746,25.205
			c-15.616,3.36-23.211-6.219-24.256-22.105c-1.04-15.883,13.764-24.751,25.192-20.738
			C166.61,180.693,168.812,189.222,168.636,194.195z"/>
		<g>
			<path style="fill:#FFFFFF;" d="M156.318,210.366l-11.599-4.097c0,0-1.449,5.029,4.099,7.764
				C154.219,216.695,156.318,210.366,156.318,210.366z"/>
			<path style="fill:#D15431;" d="M147.953,191.971c-0.604-0.14-1.227-0.223-1.836-0.333c-0.685-0.125-1.029,0.117-1.658,0.256
				c-0.748,0.166-0.599,1.23,0.053,1.406c0.803,0.216,1.631,0.368,2.443,0.598c0.709,0.199,1.431,0.805,2.184,0.694
				c0.36-0.052,0.68-0.249,0.762-0.632C150.166,192.721,148.945,192.2,147.953,191.971z"/>
			<path style="fill:#D15431;" d="M165.23,198.443c-0.882-1.407-3.105-2.054-4.659-1.834c-0.912,0.127-0.895,1.52,0.06,1.456
				c0.812-0.053,1.467,0.17,2.18,0.54c0.571,0.296,0.886,0.961,1.561,1.041C165.031,199.724,165.633,199.083,165.23,198.443z"/>
			<g>
				<path style="fill:#DC8C7A;" d="M155.152,199.532c0,0-0.091,0.774-0.228,1.936c-0.019,0.271-0.027,0.56-0.012,0.821
					c-0.001,0.238,0.147,0.518,0.116,0.383c0.058,0.058,0.136,0.149,0.179,0.182l0.131,0.102l0.399,0.318
					c0.29,0.227,0.606,0.487,0.929,0.817c0.298,0.344,0.69,0.746,0.814,1.504c0.05,0.376-0.023,0.802-0.194,1.094
					c-0.082,0.151-0.17,0.301-0.267,0.395l-0.146,0.156l-0.075,0.074l-0.089,0.081l-0.014,0.009l-0.029,0.018
					c-0.154,0.097-0.305,0.192-0.453,0.285c-0.136,0.088-0.4,0.192-0.588,0.267c-0.419,0.187-0.755,0.18-1.084,0.237
					c-0.649,0.035-1.167-0.043-1.519-0.149c-0.352-0.097-0.538-0.196-0.538-0.196s0.199-0.07,0.52-0.201
					c0.162-0.059,0.351-0.146,0.562-0.236c0.213-0.081,0.432-0.224,0.673-0.325c0.208-0.148,0.499-0.282,0.647-0.442
					c0.095-0.094,0.164-0.098,0.291-0.24c0.123-0.124,0.249-0.251,0.376-0.38c-0.064,0.019,0.077-0.138,0.035-0.138
					c0.007-0.035-0.033-0.001-0.024,0.001c0,0-0.13-0.225-0.349-0.436c-0.208-0.228-0.48-0.466-0.759-0.74
					c-0.143-0.136-0.285-0.281-0.43-0.444c-0.068-0.073-0.171-0.2-0.249-0.298c-0.082-0.103-0.105-0.164-0.16-0.246
					c-0.426-0.756-0.26-1.224-0.195-1.632c0.103-0.396,0.262-0.711,0.413-0.992c0.308-0.553,0.646-0.94,0.895-1.2
					C154.984,199.658,155.152,199.532,155.152,199.532z"/>
			</g>
			<g>
				<path style="fill:#77514F;" d="M142.986,201.096c0,0-0.067-0.842,0.354-1.996c0.205-0.58,0.524-1.243,1.123-1.878
					c0.315-0.306,0.69-0.628,1.229-0.815c0.257-0.107,0.554-0.159,0.862-0.169c0.152-0.02,0.301,0.016,0.453,0.036l0.226,0.04
					l0.112,0.022l0.028,0.006l0.014,0.003l0.145,0.056l0.032,0.015c0.191,0.106,0.27,0.085,0.649,0.383
					c0.348,0.255,0.486,0.512,0.641,0.761c0.265,0.505,0.354,1.004,0.366,1.434c0.019,0.436-0.03,0.829-0.106,1.182
					c-0.068,0.358-0.182,0.674-0.293,0.96c-0.439,1.142-1.034,1.741-1.034,1.741s-0.026-0.208-0.06-0.553
					c-0.028-0.332-0.068-0.806-0.117-1.375c-0.061-0.545-0.119-1.17-0.266-1.708c-0.066-0.273-0.18-0.489-0.274-0.632
					c-0.053-0.06-0.116-0.121-0.082-0.085c0.12,0.014-0.18-0.108-0.323-0.173l-0.032-0.015l-0.004-0.002
					c0.06,0.022-0.139-0.054,0.133,0.051l-0.003-0.001h-0.007l-0.027-0.002l-0.053-0.01c-0.035-0.004-0.069-0.034-0.105-0.018
					c-0.068,0.008-0.144-0.015-0.235,0.021c-0.176,0.024-0.404,0.145-0.637,0.279c-0.465,0.302-0.92,0.728-1.322,1.099
					c-0.406,0.399-0.745,0.731-0.982,0.964C143.132,200.957,142.986,201.096,142.986,201.096z"/>
			</g>
			<g>
				<path style="fill:#77514F;" d="M158.486,204.596c0,0-0.067-0.842,0.354-1.996c0.205-0.58,0.524-1.243,1.123-1.878
					c0.315-0.306,0.69-0.628,1.229-0.815c0.257-0.107,0.554-0.159,0.862-0.169c0.152-0.02,0.301,0.016,0.453,0.036l0.226,0.04
					l0.112,0.022l0.028,0.006l0.014,0.003l0.145,0.056l0.032,0.015c0.191,0.106,0.27,0.085,0.649,0.383
					c0.348,0.255,0.486,0.512,0.641,0.761c0.265,0.505,0.354,1.004,0.366,1.434c0.019,0.436-0.03,0.829-0.106,1.182
					c-0.068,0.358-0.182,0.674-0.293,0.96c-0.439,1.142-1.034,1.741-1.034,1.741s-0.026-0.208-0.06-0.553
					c-0.028-0.332-0.068-0.806-0.117-1.375c-0.061-0.545-0.119-1.17-0.266-1.708c-0.066-0.273-0.18-0.489-0.274-0.632
					c-0.053-0.06-0.116-0.121-0.082-0.085c0.12,0.014-0.18-0.108-0.323-0.173l-0.032-0.015l-0.004-0.002
					c0.06,0.022-0.139-0.054,0.133,0.051l-0.003-0.001h-0.007l-0.027-0.002l-0.053-0.01c-0.035-0.004-0.069-0.034-0.105-0.018
					c-0.068,0.008-0.144-0.015-0.235,0.021c-0.176,0.024-0.404,0.145-0.637,0.279c-0.465,0.302-0.92,0.728-1.322,1.099
					c-0.406,0.399-0.745,0.731-0.982,0.964C158.632,204.457,158.486,204.596,158.486,204.596z"/>
			</g>
		</g>
		<path style="fill:#D15431;" d="M168.16,183.174c-3.101,4.235-5.743,6.764-11.662,7.872c-5.918,1.111-13.935-1.18-16.224-0.513
			c-2.289,0.667-7.388,2.392-7.622,8c-0.233,5.608,5.395,16.962,2.965,21.356c-2.429,4.392-4.238,6.096-3.075,10.258
			c1.162,4.161,1.108,10.519-1.786,12.328c-3.269,2.043-8.24-3.025-7.389-10.908c0.933-8.631-4.883-1.838-9.019-3.852
			c-4.134-2.017-5.115-5.428-1.521-10.26c3.592-4.832,8.27-9.767,7.987-16.201c-0.283-6.435-0.824-13.283,5.379-21.759
			c5.739-7.841,8.375-8.683,16.851-11.678C151.52,164.824,171.26,178.936,168.16,183.174z"/>
		<path style="fill:#475E77;" d="M129.985,188.534c0,0-0.68-11.661,9.667-15.667c10.333-4,12-3.999,16.666-2.666
			c4.667,1.333,13.667,9.334,14.334,12c0,0-13.001-4.001-17.667-2.334c-4.667,1.667-17.667,11.333-19.333,17.667
			C131.986,203.868,129.985,188.534,129.985,188.534z"/>
		<path style="fill:#FACCBB;" d="M134.985,196.867c0,0-4-6.334-6.667-4c-2.666,2.334-1.667,10.667,2.667,12.334
			C135.319,206.868,135.318,201.867,134.985,196.867z"/>
		<path style="fill:none;stroke:#5B6D39;stroke-miterlimit:10;" d="M94.318,307.2c0,0,6.333,2.999,11,0.333c4.667-2.666,5-8,5-8"/>
		<path style="fill:none;stroke:#5B6D39;stroke-miterlimit:10;stroke-dasharray:3,3;" d="M93.652,310.533c0,0,8.999,2.333,13.666,0
			c4.667-2.333,6.667-9.333,6.667-9.333"/>
		<path style="fill:none;stroke:#5B6D39;stroke-miterlimit:10;" d="M149.103,333.545c-0.134-3.017-0.543-5.577-1.117-7.013
			c-1.324-3.31-9.224-15.389-14.412-23.173"/>
		<path style="fill:none;stroke:#5B6D39;stroke-miterlimit:10;" d="M152.985,317.867c0,0,0.666,9.334,1.333,13"/>
		<line style="fill:none;stroke:#5B6D39;stroke-miterlimit:10;" x1="110.985" y1="335.655" x2="116.985" y2="330.655"/>
		<g>
			<path style="fill:#FACCBB;" d="M147.985,283.867c-0.822-1.992-18.216-18.505-18.299-18.755
				c-1.123-3.392-1.807-8.027-2.446-12.862c-3,0.071-6.067-0.146-8.99,0.181c-3.804,0.427-7.582,1.06-11.358,1.69
				c1.68,7.298,4.111,16.115,6.296,19.91c3.673,6.385,28.731,17.818,30.176,17.566C145.593,291.207,149.122,286.618,147.985,283.867
				z"/>
			<path style="fill:#83C783;" d="M105.123,258.999l24.113-4.3c0,0-1.429-28.227-6.583-30.832
				c-7.598-3.842-20.851,0.151-19.047,24.761C103.726,250.277,105.123,258.999,105.123,258.999z"/>
		</g>
		<path style="fill:none;stroke:#70AC7F;stroke-miterlimit:10;" d="M104.235,239.199c0,0,0.25,9.25,3,18.75"/>
		<g>
			<g>
				<path style="fill:#7E8988;" d="M179.869,286.169c4.969-4.097,9.326-10.237,11.771-13.607c2.442-3.371,3.606-8.319,2.145-10.122
					c-1.46-1.8-4.748-0.57-8.681,1.332c-3.935,1.901-16.401,9.213-17.064,11.763C167.377,278.082,174.901,290.267,179.869,286.169z"
					/>
				<path style="fill:#4F5981;" d="M180.016,276.396c-2.732,2.981-16.733,18.418-18.647,17.886
					c-1.914-0.535-3.547-2.509-2.798-3.452c0.749-0.944,18.734-15.157,20.081-15.963
					C180.001,274.06,182.706,273.457,180.016,276.396z"/>
			</g>
			<path style="fill:#FACCBB;" d="M166.542,297.304c-0.177-0.391-0.407-0.75-0.659-1.102c0.523,0.334,1.05,0.622,1.566,0.82
				c1.975,0.747,3.497-1.852,2.184-3.348c-0.225-0.255-0.489-0.538-0.773-0.828c0.704,0.227,1.708,0.673,2.458,0.685
				c1.662,0.029,1.695-1.78,1.181-3.307c-0.514-1.526-3.847-4.692-5.181-6.359s-7.503-1.842-10.428-1.89
				c-1.412-0.024-6.857-0.908-10.405,1.056c-3.546,1.964-4.833,7.667-3.333,8.5c1.5,0.833,4.288,4.954,6.863,6.031
				c1.044,1.027,2.143,2.008,3.186,2.892c1.821,1.55,3.455,2.454,5.453,2.183c1.998-0.271,3.396-1.426,2.954-3.125
				c0.493,0.383,0.971,0.71,1.403,0.939C165.118,301.582,167.595,299.615,166.542,297.304z"/>
			<path style="fill:none;stroke:#DC8C7A;stroke-miterlimit:10;" d="M157.318,294.866c2.842,2.842,2.804,2.805,4,4"/>
			<path style="fill:none;stroke:#DC8C7A;stroke-miterlimit:10;" d="M159.485,290.7c0,0,2.999,1,4.333,2.5s2.064,3.003,2.064,3.003"
				/>
			<path style="fill:none;stroke:#DC8C7A;stroke-miterlimit:10;" d="M161.985,286.867c0,0,2.999,1,4.333,2.5
				s2.065,3.003,2.065,3.003"/>
		</g>
		<g>
			<path style="fill:#8E633B;" d="M195.416,350.231c0.602-3.866,40.736-5.013,41.913-1.265c1.178,3.751-1.22,34.02-4.01,38.503
				c-2.79,4.482-28.96,4.258-31.989-0.33C198.303,382.554,194.813,354.093,195.416,350.231z"/>
			<path style="fill:#7F5835;" d="M195.416,350.231c-0.018,0.117-0.033,0.259-0.044,0.421c5.973,2.028,13.183,3.214,20.947,3.214
				c7.893,0,15.209-1.228,21.238-3.317c-0.05-0.706-0.125-1.252-0.229-1.582C236.152,345.218,196.017,346.365,195.416,350.231z"/>
			<path style="fill:none;stroke:#6D432A;stroke-miterlimit:10;" d="M198.652,350.851c0,0,3.333,3.384,17,3.076
				c13.666-0.307,18.666-3.384,18.666-3.384"/>
		</g>
		<g>
			<path style="fill:#74473D;" d="M205.985,301.97c-3.305,0-3.305,5.125,0,5.125C209.291,307.095,209.291,301.97,205.985,301.97z"/>
			<path style="fill:#74473D;" d="M212.985,311.366c-3.224,0-3.224,5,0,5C216.21,316.366,216.21,311.366,212.985,311.366z"/>
			<path style="fill:#74473D;" d="M207.985,323.012c-2.821,0-2.821,4.375,0,4.375S210.807,323.012,207.985,323.012z"/>
			<path style="fill:#74473D;" d="M217.847,332.112c-0.384-0.656-1.102-1.068-1.862-1.068c-0.57,0-1.122,0.229-1.525,0.632
				c-0.49,0.49-0.842,1.414-0.554,2.098c0.038,0.089,0.075,0.178,0.112,0.268c0.359,0.853,0.969,1.497,1.967,1.497
				s1.608-0.645,1.967-1.497c0.038-0.09,0.075-0.179,0.112-0.268C218.275,333.272,218.108,332.557,217.847,332.112z"/>
			<path style="fill:#74473D;" d="M216.985,322.751c-2.297,0-2.297,3.563,0,3.563C219.283,326.314,219.283,322.751,216.985,322.751z
				"/>
			<path style="fill:#74473D;" d="M220.652,312.408c-1.451,0-1.451,2.25,0,2.25S222.104,312.408,220.652,312.408z"/>
			<circle style="fill:#74473D;" cx="210.319" cy="339.866" r="2"/>
			<path style="fill:#74473D;" d="M218.846,343.339c-1.053-1.053-2.86-0.27-2.881,1.193c-0.002,0.111-0.003,0.222-0.005,0.333
				l0.017-0.007c0.018,0.695,0.558,1.376,1.342,1.365c0.111-0.001,0.222-0.002,0.334-0.004
				C219.116,346.201,219.897,344.391,218.846,343.339z"/>
			<path style="fill:#74473D;" d="M221.319,335.553c-1.693,0-1.693,2.625,0,2.625C223.012,338.178,223.012,335.553,221.319,335.553z
				"/>
		</g>
	</g>
	<g>
		<path style="fill:#BDC777;" d="M388.825,361.134c-22,0-85-3.052-118,6.104c-33,9.156-19.174,27.639,1.493,31.03
			c20.666,3.392,66.507,0.509,84.007,1.526c17.5,1.018-1.5,12.717,18.5,15.261c20,2.543,25,3.052,64,4.069
			c39,1.018,39-14.243,53-18.313c14-4.07,11.5-19.331-3.5-30.014C473.325,360.117,410.825,361.134,388.825,361.134z"/>
		<g>
			<g>
				<path style="fill:#E9B24C;" d="M396.122,64.627c0,0-4.741-17.334-10.212-24.334c-4.949-6.332-8.405-2.3-10.91-1.225
					c-2.504-1.074-5.96-5.106-10.91,1.225c-5.471,7-10.212,24.334-10.212,24.334H396.122z"/>
				<ellipse style="fill:#C99A42;" cx="375" cy="63.958" rx="40.667" ry="9.114"/>
				<path style="fill:#FEC75D;" d="M375,56.511c21.205,0,38.61,3.639,40.49,8.28c0.111-0.274,0.177-0.552,0.177-0.833
					c0-5.033-18.207-9.114-40.667-9.114c-22.46,0-40.667,4.081-40.667,9.114c0,0.281,0.065,0.559,0.177,0.833
					C336.389,60.15,353.795,56.511,375,56.511z"/>
			</g>
			<g>
				<g>
					<path style="fill:#6C323D;" d="M328.873,205.036c-0.34-0.25-0.699-0.454-1.068-0.637c0.051,0.035,0.083,0.061,0.083,0.061
						s-0.032-0.025-0.083-0.061c-0.157-0.077-0.314-0.154-0.477-0.219c-0.381-0.083-0.815,0.085-0.815,1.279
						c0.22,0.22,1.082,1.559,1.659,3.106c2.075,2.817,3.091,8.865,3.091,18.394c0,0.828,0.672,1.5,1.5,1.5
						c0.828,0,1.5-0.672,1.5-1.5C334.263,214.545,332.601,207.784,328.873,205.036z"/>
					<path style="fill:#A1A193;" d="M323.263,229.71h-2.75h-19.5c0,0,4.25,35.25,6,37.75c1.661,2.373,7.235,5.225,15.493,5.225
						c8.257,0,12.596-2.852,14.257-5.225c1.75-2.5,6-37.75,6-37.75H323.263z"/>
					<ellipse style="fill:#8F8F83;" cx="321.888" cy="229.96" rx="20.875" ry="6.5"/>
					<path style="fill:#D6CFA9;" d="M340.933,232.46c-3.534-2.349-11.608-4-19.045-4c-7.435,0-15.51,1.651-19.044,4
						c3.534,2.349,11.608,4,19.044,4C329.324,236.46,337.398,234.808,340.933,232.46z"/>
					<g>
						<g>
							<path style="fill:#FFC4A8;" d="M337.113,146.549c-2.333,4.334-14.417,19.001-15.75,21.334
								c-1.334,2.333-0.667,33.333-0.667,33.333l-10,3c0,0-3.808-9.255-5.666-19.333c-1.423-7.715-1.101-16.198-0.667-19.667
								c1-8,18.416-37.667,21.75-38C329.446,126.883,339.446,142.215,337.113,146.549z"/>
							<path style="fill:#FFC4A8;" d="M309.87,200.836c0.638-2.764,3.001-5.44,5.913-5.472c2.69-0.028,6.344,2.374,7.334,3.319
								c0.54,0.515,2.372,3.534,3.646,5.025c1.064,1.245,1.25-0.125,2.25,2.125s1.25,5-0.375,6.625c0.5,2.625-1.875,5-4.071,6.331
								c-1.21,0.733-2.332,1.327-3.799,1.516c-1.717,0.219-3.371-0.203-4.907-1.064c-1.424-0.799-2.554-1.814-3.703-3.001
								c-1.279-1.319-1.846-2.862-2.57-4.516C308.117,208.371,309.104,204.155,309.87,200.836z"/>
							<g>
								<path style="fill:none;stroke:#DC8C7A;stroke-width:0.75;stroke-linecap:round;stroke-linejoin:round;" d="M316.513,203.96
									c-0.125,1,0.375,1.875,0.875,2.75c0.625,1,1.5,1.75,2.375,2.5c0.625,0.75,1.5,1.5,1.875,2.375c0.375,0.625,0.5,1.375,0.25,2
									c-0.375,0.875-0.875,1.625-1.75,1.875c-0.625,0.125-2,0-2.625-0.25c-0.375-0.25-0.625-0.625-0.875-0.875"/>
							</g>
							<g>
								<path style="fill:none;stroke:#DC8C7A;stroke-width:0.75;stroke-linecap:round;stroke-linejoin:round;" d="M320.138,209.21
									c-0.125-0.875,0.125-1.75,0.875-2.375c1.125-0.875,2.25,0,2.875,1.125c0.875,1.625,1.25,3.25,1.375,5.125
									c0,0.875,0.25,2-0.25,2.75"/>
							</g>
							<g>
								<path style="fill:none;stroke:#DC8C7A;stroke-width:0.75;stroke-linecap:round;stroke-linejoin:round;" d="M323.638,207.335
									c-0.25-0.875,0.125-2.5,1.125-2.625c0.75,0,1.25,0.125,1.75,0.75c0.375,0.375,2.625,4,2.125,6.375"/>
							</g>
							
								<path style="fill:none;stroke:#DC8C7A;stroke-width:0.75;stroke-linecap:round;stroke-linejoin:round;stroke-miterlimit:10;" d="
								M327.888,204.46c0,0-1.375-1.125-1.375,1"/>
						</g>
						<path style="fill:#6E834C;" d="M343.446,107.216c-7,0.333-26.333,23-26,27c0.334,4,15.233,20.076,16.566,19.743
							c3.616-0.903,14.101-9.076,14.101-9.076S350.446,106.883,343.446,107.216z"/>
					</g>
					<g>
						<path style="fill:#6C323D;" d="M317.388,206.71c-0.052-0.092-0.104-0.184-0.156-0.275c-6.366,6.169-5.491,21.767-5.083,28.995
							c0.064,1.128,0.114,2.018,0.114,2.53c0,0.828,0.672,1.5,1.5,1.5c0.828,0,1.5-0.672,1.5-1.5c0-0.597-0.053-1.525-0.119-2.699
							c-0.348-6.164-1.2-21.299,4.039-26.555C318.512,208.113,317.874,207.487,317.388,206.71z"/>
						<path style="fill:#6C323D;" d="M324.763,204.71c0.75,0,1.25,0.125,1.75,0.75c0-1.194,0.435-1.362,0.815-1.279
							c-1.807-0.726-3.95-0.697-6.509,0.097c-1.399,0.434-2.581,1.182-3.588,2.157c0.052,0.092,0.104,0.184,0.156,0.275
							c0.486,0.777,1.124,1.403,1.795,1.996c0.352-0.354,0.729-0.665,1.139-0.924c0.148-0.348,0.363-0.674,0.691-0.947
							c0.676-0.525,1.35-0.413,1.916-0.002c0.22-0.044,0.435-0.082,0.641-0.108C323.573,205.858,323.966,204.809,324.763,204.71z"/>
					</g>
				</g>
				<g>
					<path style="fill:#6C323D;" d="M421.127,205.036c0.339-0.25,0.699-0.454,1.067-0.637c-0.051,0.035-0.082,0.061-0.082,0.061
						s0.031-0.025,0.082-0.061c0.158-0.077,0.314-0.154,0.478-0.219c0.38-0.083,0.815,0.085,0.815,1.279
						c-0.221,0.22-1.082,1.559-1.659,3.106c-2.075,2.817-3.091,8.865-3.091,18.394c0,0.828-0.673,1.5-1.501,1.5s-1.5-0.672-1.5-1.5
						C415.736,214.545,417.398,207.784,421.127,205.036z"/>
					<path style="fill:#A1A193;" d="M426.737,229.71h2.75h19.5c0,0-4.25,35.25-6,37.75c-1.662,2.373-7.236,5.225-15.493,5.225
						s-12.597-2.852-14.258-5.225c-1.75-2.5-6-37.75-6-37.75H426.737z"/>
					<path style="fill:#8F8F83;" d="M407.236,229.96c0,3.59,11.003,6.5,20.876,6.5c9.871,0,20.875-2.91,20.875-6.5
						c0-3.59-11.004-6.5-20.875-6.5C418.239,223.46,407.236,226.37,407.236,229.96z"/>
					<path style="fill:#D6CFA9;" d="M409.067,232.46c3.533-2.349,11.608-4,19.045-4c7.435,0,15.51,1.651,19.044,4
						c-3.534,2.349-11.608,4-19.044,4C420.676,236.46,412.601,234.808,409.067,232.46z"/>
					<g>
						<g>
							<path style="fill:#FFC4A8;" d="M412.886,146.549c2.333,4.334,14.418,19.001,15.75,21.334
								c1.334,2.333,0.668,33.333,0.668,33.333l10,3c0,0,3.807-9.255,5.666-19.333c1.422-7.715,1.1-16.198,0.666-19.667
								c-1-8-18.416-37.667-21.75-38C420.554,126.883,410.553,142.215,412.886,146.549z"/>
							<path style="fill:#FFC4A8;" d="M440.13,200.836c-0.639-2.764-3.002-5.44-5.914-5.472c-2.689-0.028-6.344,2.374-7.334,3.319
								c-0.539,0.515-2.371,3.534-3.645,5.025c-1.065,1.245-1.25-0.125-2.25,2.125s-1.25,5,0.375,6.625
								c-0.5,2.625,1.875,5,4.07,6.331c1.211,0.733,2.332,1.327,3.799,1.516c1.717,0.219,3.371-0.203,4.908-1.064
								c1.424-0.799,2.553-1.814,3.703-3.001c1.279-1.319,1.846-2.862,2.57-4.516C441.882,208.371,440.896,204.155,440.13,200.836z"
								/>
							<g>
								<path style="fill:none;stroke:#DC8C7A;stroke-width:0.75;stroke-linecap:round;stroke-linejoin:round;" d="M433.487,203.96
									c0.125,1-0.375,1.875-0.875,2.75c-0.625,1-1.5,1.75-2.375,2.5c-0.625,0.75-1.5,1.5-1.875,2.375
									c-0.375,0.625-0.5,1.375-0.25,2c0.375,0.875,0.875,1.625,1.75,1.875c0.625,0.125,2,0,2.625-0.25
									c0.375-0.25,0.625-0.625,0.875-0.875"/>
							</g>
							<g>
								<path style="fill:none;stroke:#DC8C7A;stroke-width:0.75;stroke-linecap:round;stroke-linejoin:round;" d="M429.862,209.21
									c0.125-0.875-0.125-1.75-0.875-2.375c-1.125-0.875-2.25,0-2.875,1.125c-0.875,1.625-1.25,3.25-1.375,5.125
									c0,0.875-0.25,2,0.25,2.75"/>
							</g>
							<g>
								<path style="fill:none;stroke:#DC8C7A;stroke-width:0.75;stroke-linecap:round;stroke-linejoin:round;" d="M426.362,207.335
									c0.25-0.875-0.125-2.5-1.125-2.625c-0.75,0-1.25,0.125-1.75,0.75c-0.375,0.375-2.625,4-2.125,6.375"/>
							</g>
							
								<path style="fill:none;stroke:#DC8C7A;stroke-width:0.75;stroke-linecap:round;stroke-linejoin:round;stroke-miterlimit:10;" d="
								M422.112,204.46c0,0,1.375-1.125,1.375,1"/>
						</g>
						<path style="fill:#6E834C;" d="M406.553,107.216c7,0.333,26.333,23,26.001,27c-0.334,4-15.233,20.076-16.567,19.743
							c-3.615-0.903-14.101-9.076-14.101-9.076S399.553,106.883,406.553,107.216z"/>
					</g>
					<g>
						<path style="fill:#6C323D;" d="M432.612,206.71c0.052-0.092,0.103-0.184,0.156-0.275c6.365,6.169,5.49,21.767,5.082,28.995
							c-0.063,1.128-0.113,2.018-0.113,2.53c0,0.828-0.672,1.5-1.5,1.5c-0.828,0-1.5-0.672-1.5-1.5c0-0.597,0.053-1.525,0.119-2.699
							c0.348-6.164,1.2-21.299-4.039-26.555C431.487,208.113,432.126,207.487,432.612,206.71z"/>
						<path style="fill:#6C323D;" d="M425.237,204.71c-0.75,0-1.25,0.125-1.75,0.75c0-1.194-0.436-1.362-0.815-1.279
							c1.806-0.726,3.95-0.697,6.509,0.097c1.399,0.434,2.58,1.182,3.588,2.157c-0.053,0.092-0.104,0.184-0.156,0.275
							c-0.486,0.777-1.125,1.403-1.795,1.996c-0.353-0.354-0.73-0.665-1.139-0.924c-0.147-0.348-0.363-0.674-0.691-0.947
							c-0.676-0.525-1.35-0.413-1.916-0.002c-0.221-0.044-0.435-0.082-0.641-0.108C426.427,205.858,426.034,204.809,425.237,204.71z
							"/>
					</g>
				</g>
			</g>
			<g>
				<path style="fill:#6C323D;" d="M409.209,206.882c-1.066-3.124-20.163-4.056-34.209-4.056c-14.047,0-34.142,0.932-35.21,4.056
					c-2.043,6.013-3.114,90.469-2.496,98.654c0.614,8.184,3.513,47.897,5.326,48.757c1.813,0.85,14.128,2.686,14.128,2.686
					s7.682-39.182,8.059-50.754c0.162-5.128,8.441-67.304,8.441-67.304s0.645-0.508,1.752-1.388c1.107,0.88,1.751,1.388,1.751,1.388
					s8.279,62.176,8.441,67.304c0.377,11.572,8.06,50.754,8.06,50.754s12.315-1.836,14.128-2.686
					c1.814-0.859,4.711-40.573,5.325-48.757C413.323,297.351,411.252,212.895,409.209,206.882z"/>
				<path style="fill:#B88136;" d="M361.953,344.293l-23-0.333l2.132,25.578c-5.461,4.245-19.465,8.755-18.465,16.755
					s35.797,1.821,36.791-4.085C360.135,377.919,361.953,344.293,361.953,344.293z"/>
				<path style="fill:#815146;" d="M336.953,330.96c0,0-0.666,11.667,2,13c2.667,1.333,21.334,2.666,23,0.333
					c1.667-2.333,2.333-10.666,1.667-13.333C362.953,328.293,337.287,325.627,336.953,330.96z"/>
				<path style="fill:#B88136;" d="M388.046,344.293l23-0.333l-2.131,25.578c5.46,4.245,19.465,8.755,18.465,16.755
					s-35.798,1.821-36.792-4.085C389.865,377.919,388.046,344.293,388.046,344.293z"/>
				<path style="fill:#815146;" d="M413.046,330.96c0,0,0.667,11.667-2,13c-2.666,1.333-21.333,2.666-23,0.333
					c-1.666-2.333-2.333-10.666-1.666-13.333C387.046,328.293,412.713,325.627,413.046,330.96z"/>
				<g>
					<line style="fill:none;stroke:#3D262D;stroke-miterlimit:10;" x1="375" y1="222.626" x2="375" y2="234.626"/>
					<g>
						<path style="fill:none;stroke:#3D262D;stroke-miterlimit:10;" d="M340.302,233.96c0,0,7.334-0.333,10.667-12.333"/>
						<path style="fill:none;stroke:#3D262D;stroke-miterlimit:10;" d="M409.636,233.96c0,0-7.334-0.333-10.667-12.333"/>
					</g>
				</g>
			</g>
			<path style="fill:#6E834C;" d="M411.984,217.286c0,0-0.796-48.4-1.158-56c-0.5-10.5,5.861-36.502,2.402-48.676
				c-3.383-11.903-29.546-8.589-38.229-8.589c-8.682,0-34.846-3.314-38.228,8.589c-3.459,12.174,2.902,38.176,2.402,48.676
				c-0.362,7.6-1.158,56-1.158,56s22.333,4.261,36.984,4.261C389.651,221.546,411.984,217.286,411.984,217.286z"/>
			<path style="fill:#FFC4A8;" d="M386.813,109.904l-2.988-12.986c0,0-5.074,1.587-8.822,1.587c-3.749,0-8.827-1.587-8.827-1.587
				l-2.988,12.984c0,0,5.522,9.647,11.817,9.647C381.298,119.549,386.813,109.904,386.813,109.904z"/>
			<path style="fill:#DC8C7A;" d="M384.439,99.587l-0.614-2.67c0,0-5.074,1.587-8.822,1.587c-3.749,0-8.827-1.587-8.827-1.587
				l-0.614,2.669c0,0,2.041,5.373,9.439,5.373C382.397,104.959,384.439,99.587,384.439,99.587z"/>
			<g>
				<g>
					<path style="fill:#FFC4A8;" d="M393.289,80.512c0,11.986-9.681,21.704-17.957,21.704c-8.276,0-17.958-9.718-17.958-21.704
						c0-11.988,4.684-21.706,17.958-21.706C388.604,58.806,393.289,68.524,393.289,80.512z"/>
					<g>
						<path style="fill:#FFC4A8;" d="M359.482,81.49c-1.54-2.996-6.145-5.367-7.149-1.525c-1.005,3.845,1.819,8.744,5.59,9.475
							C361.694,90.17,361.018,84.492,359.482,81.49z"/>
						<path style="fill:#FFC4A8;" d="M396.646,85.982c-1.54,2.997-6.145,5.367-7.149,1.525c-1.005-3.845,1.818-8.744,5.589-9.474
							C398.857,77.301,398.183,82.98,396.646,85.982z"/>
					</g>
					<path style="fill:#7C564F;" d="M364.345,83.895c0.369,1.506,1.89,2.429,3.395,2.058c1.506-0.368,2.427-1.888,2.059-3.394
						c-0.371-1.509-1.892-2.427-3.397-2.059C364.897,80.871,363.976,82.389,364.345,83.895z"/>
					<path style="fill:#7C564F;" d="M385.653,83.895c-0.37,1.506-1.891,2.429-3.395,2.058c-1.506-0.368-2.428-1.888-2.059-3.394
						c0.37-1.509,1.891-2.427,3.396-2.059C385.102,80.871,386.021,82.389,385.653,83.895z"/>
					<g>
						<path style="fill:#DC8C7A;" d="M374.979,79.459c0,0,0.307,0.708,0.46,1.808c0.065,0.556,0.148,1.191,0.051,1.954
							c-0.046,0.371-0.169,0.88-0.482,1.315c-0.292,0.411-0.626,0.694-0.889,0.913c-0.268,0.221-0.439,0.392-0.472,0.444
							c-0.016,0.022-0.029,0.027-0.042,0.063l-0.002,0.003l-0.001,0.001c0,0.014-0.004-0.122-0.003-0.063v0.008l-0.001,0.032
							l-0.001,0.064c0,0.034-0.002-0.025-0.012-0.029c-0.008-0.005-0.007,0.027-0.002,0.053c0.019,0.125,0.146,0.343,0.299,0.539
							c0.155,0.201,0.333,0.399,0.504,0.587c0.372,0.382,0.683,0.701,0.9,0.924c0.227,0.235,0.359,0.384,0.359,0.384
							s-0.795,0.099-1.898-0.291c-0.28-0.094-0.576-0.225-0.885-0.42c-0.304-0.201-0.637-0.452-0.918-0.922
							c-0.068-0.124-0.126-0.249-0.177-0.417c-0.024-0.088-0.051-0.229-0.058-0.279l-0.01-0.063l-0.005-0.032l-0.001-0.008
							l-0.003-0.077l0.001-0.029c-0.004-0.307,0.069-0.643,0.206-0.935c0.302-0.568,0.69-0.86,0.972-1.082
							c0.287-0.225,0.513-0.388,0.656-0.525c0.129-0.112,0.234-0.268,0.334-0.542c0.2-0.534,0.375-1.142,0.526-1.645
							C374.684,80.171,374.98,79.459,374.979,79.459z"/>
					</g>
					<g>
						<g>
							<path style="fill:#7C564F;" d="M370.372,91.568c1.52,1.792,3.68,2.37,5.978,2.288c2.003-0.072,5.261-1.228,5.655-3.465
								c0.053-0.3-0.165-0.497-0.456-0.456c-1.845,0.253-3.255,1.611-5.199,1.819c-1.839,0.197-3.662-0.144-5.22-1.166
								C370.5,90.174,369.937,91.056,370.372,91.568L370.372,91.568z"/>
						</g>
					</g>
				</g>
				<path style="fill:#B65745;" d="M362.48,69.626c0,0,0.584,4.633,7.666,3.667c7.083-0.966,9.39-5.575,11-3
					c1.61,2.576,4.997,4.019,6.93,3.697c1.932-0.322,0.644,8.371,2.897,8.371c2.253,0,5.151-4.83,4.829-10.947
					c-0.161-3.059-0.343-7.721-1.989-9.788c-1.647-2.066-4.758-1.538-7.333-2.666c-5.151-2.255-10.947-1.932-16.742-0.643
					c-5.796,1.287-13.925,1.643-15.258,6.309c-1.334,4.667-0.854,9.042,0.434,13.228c1.288,4.186,2.254,4.83,3.22,2.576
					C359.1,78.176,362.48,69.626,362.48,69.626z"/>
				<g>
					<g>
						<path style="fill:#7C564F;" d="M365.073,79.068c1.494-0.481,3.116-0.875,4.662-1.121c0.233-0.038,0.335-0.408,0.147-0.555
							c-0.771-0.602-1.382-0.823-2.365-0.932c-0.916-0.102-2.111,0.438-2.963,0.725C363.369,77.584,363.868,79.456,365.073,79.068
							L365.073,79.068z"/>
					</g>
				</g>
				<g>
					<g>
						<path style="fill:#7C564F;" d="M380.87,78.437c0.893-0.148,1.746-0.037,2.634,0.043c0.83,0.074,1.433-0.111,2.226-0.219
							c0.232-0.031,0.301-0.379,0.138-0.522c-0.762-0.666-1.279-1.261-2.364-1.401c-1.214-0.156-2.21-0.039-3.281,0.564
							C379.339,77.398,379.978,78.584,380.87,78.437L380.87,78.437z"/>
					</g>
				</g>
			</g>
		</g>
		<g>
			<g>
				<g>
					<path style="fill:#CADB9F;" d="M453.329,378.74c0.84,1.798,0.663,3.966,2.326,5.308c0.198,0.16,0.538-0.045,0.378-0.292
						c-1.077-1.65-0.896-3.818-1.712-5.596C454.013,377.489,453.017,378.072,453.329,378.74L453.329,378.74z"/>
				</g>
			</g>
			<g>
				<g>
					<path style="fill:#CADB9F;" d="M460.259,377.956c-0.03,0.706-0.724,6.871,1.118,6.109c0.122-0.05,0.209-0.218,0.086-0.324
						c-0.385-0.33-0.15-2.23-0.142-2.709c0.016-1.025,0.087-2.051,0.071-3.076C461.38,377.223,460.29,377.228,460.259,377.956
						L460.259,377.956z"/>
				</g>
			</g>
			<g>
				<g>
					<path style="fill:#CADB9F;" d="M467.728,377.462c-0.051,1.29-0.407,2.47-0.911,3.65c-0.343,0.803,0.19,1.809-0.212,2.636
						c-0.129,0.265,0.179,0.503,0.402,0.311c0.285-0.245,0.599-0.535,0.691-0.92c0.118-0.496,0.063-1.293,0.3-1.733
						c0.642-1.191,0.891-2.603,0.926-3.942C468.943,376.69,467.758,376.695,467.728,377.462L467.728,377.462z"/>
				</g>
			</g>
			<g>
				<g>
					<path style="fill:#CADB9F;" d="M473.829,385.648c0.84,1.799,0.663,3.964,2.326,5.308c0.198,0.161,0.538-0.046,0.378-0.292
						c-1.076-1.651-0.896-3.817-1.712-5.596C474.513,384.397,473.517,384.98,473.829,385.648L473.829,385.648z"/>
				</g>
			</g>
			<g>
				<g>
					<path style="fill:#CADB9F;" d="M480.759,384.864c-0.03,0.706-0.724,6.871,1.118,6.109c0.122-0.05,0.208-0.218,0.086-0.324
						c-0.385-0.33-0.15-2.23-0.142-2.709c0.016-1.025,0.087-2.051,0.071-3.076C481.88,384.131,480.79,384.136,480.759,384.864
						L480.759,384.864z"/>
				</g>
			</g>
			<g>
				<g>
					<path style="fill:#CADB9F;" d="M488.228,384.371c-0.051,1.29-0.407,2.47-0.911,3.65c-0.343,0.803,0.189,1.808-0.212,2.636
						c-0.129,0.265,0.179,0.503,0.402,0.311c0.285-0.246,0.599-0.535,0.691-0.921c0.118-0.496,0.063-1.293,0.3-1.733
						c0.642-1.191,0.891-2.603,0.926-3.942C489.443,383.598,488.258,383.603,488.228,384.371L488.228,384.371z"/>
				</g>
			</g>
			<g>
				<g>
					<path style="fill:#CADB9F;" d="M429.329,369.857c0.84,1.798,0.663,3.966,2.326,5.308c0.198,0.16,0.538-0.045,0.378-0.292
						c-1.077-1.65-0.896-3.817-1.712-5.596C430.013,368.606,429.018,369.189,429.329,369.857L429.329,369.857z"/>
				</g>
			</g>
			<g>
				<g>
					<path style="fill:#CADB9F;" d="M436.259,369.074c-0.03,0.705-0.724,6.87,1.118,6.108c0.122-0.05,0.209-0.218,0.086-0.324
						c-0.385-0.33-0.15-2.229-0.142-2.709c0.016-1.024,0.087-2.05,0.071-3.075C437.38,368.341,436.29,368.346,436.259,369.074
						L436.259,369.074z"/>
				</g>
			</g>
			<g>
				<g>
					<path style="fill:#CADB9F;" d="M443.728,368.581c-0.051,1.29-0.407,2.47-0.911,3.65c-0.343,0.803,0.19,1.808-0.212,2.635
						c-0.129,0.265,0.179,0.503,0.402,0.311c0.285-0.245,0.599-0.535,0.691-0.92c0.118-0.496,0.063-1.293,0.3-1.733
						c0.642-1.191,0.891-2.603,0.926-3.942C444.943,367.808,443.758,367.814,443.728,368.581L443.728,368.581z"/>
				</g>
			</g>
			<g>
				<g>
					<path style="fill:#CADB9F;" d="M451.829,399.464c0.84,1.798,0.663,3.966,2.326,5.308c0.198,0.16,0.538-0.046,0.378-0.292
						c-1.077-1.65-0.896-3.818-1.712-5.596C452.513,398.213,451.517,398.796,451.829,399.464L451.829,399.464z"/>
				</g>
			</g>
			<g>
				<g>
					<path style="fill:#CADB9F;" d="M458.759,398.68c-0.03,0.706-0.724,6.871,1.118,6.109c0.122-0.05,0.209-0.218,0.086-0.324
						c-0.385-0.33-0.15-2.23-0.142-2.709c0.016-1.025,0.087-2.051,0.071-3.076C459.88,397.947,458.79,397.953,458.759,398.68
						L458.759,398.68z"/>
				</g>
			</g>
			<g>
				<g>
					<path style="fill:#CADB9F;" d="M466.228,398.187c-0.051,1.291-0.407,2.471-0.911,3.651c-0.343,0.803,0.19,1.808-0.212,2.635
						c-0.129,0.265,0.179,0.503,0.402,0.311c0.285-0.245,0.599-0.535,0.691-0.92c0.118-0.496,0.063-1.293,0.3-1.733
						c0.642-1.191,0.891-2.604,0.926-3.943C467.443,397.414,466.258,397.42,466.228,398.187L466.228,398.187z"/>
				</g>
			</g>
			<g>
				<g>
					<path style="fill:#CADB9F;" d="M425.829,392.062c0.84,1.799,0.663,3.965,2.326,5.309c0.198,0.161,0.538-0.045,0.378-0.292
						c-1.076-1.651-0.896-3.818-1.712-5.597C426.513,390.811,425.518,391.394,425.829,392.062L425.829,392.062z"/>
				</g>
			</g>
			<g>
				<g>
					<path style="fill:#CADB9F;" d="M432.759,391.279c-0.03,0.706-0.724,6.871,1.118,6.109c0.122-0.05,0.209-0.218,0.086-0.324
						c-0.385-0.33-0.15-2.23-0.142-2.71c0.016-1.024,0.087-2.05,0.071-3.075C433.88,390.546,432.79,390.551,432.759,391.279
						L432.759,391.279z"/>
				</g>
			</g>
			<g>
				<g>
					<path style="fill:#CADB9F;" d="M440.228,390.786c-0.051,1.291-0.407,2.47-0.911,3.65c-0.343,0.803,0.189,1.808-0.212,2.636
						c-0.129,0.265,0.179,0.503,0.402,0.311c0.285-0.246,0.599-0.535,0.691-0.921c0.118-0.496,0.063-1.293,0.3-1.733
						c0.642-1.191,0.891-2.603,0.926-3.942C441.443,390.013,440.258,390.018,440.228,390.786L440.228,390.786z"/>
				</g>
			</g>
			<g>
				<g>
					<path style="fill:#CADB9F;" d="M403.829,406.866c0.84,1.798,0.663,3.966,2.326,5.308c0.198,0.16,0.538-0.045,0.378-0.292
						c-1.077-1.65-0.896-3.817-1.712-5.596C404.513,405.615,403.518,406.198,403.829,406.866L403.829,406.866z"/>
				</g>
			</g>
			<g>
				<g>
					<path style="fill:#CADB9F;" d="M410.759,406.082c-0.03,0.705-0.724,6.87,1.118,6.108c0.122-0.05,0.209-0.218,0.086-0.324
						c-0.385-0.33-0.15-2.23-0.142-2.709c0.016-1.024,0.087-2.05,0.071-3.075C411.88,405.35,410.79,405.355,410.759,406.082
						L410.759,406.082z"/>
				</g>
			</g>
			<g>
				<g>
					<path style="fill:#CADB9F;" d="M418.228,405.589c-0.051,1.291-0.407,2.47-0.911,3.65c-0.343,0.803,0.19,1.808-0.212,2.635
						c-0.129,0.265,0.179,0.503,0.402,0.311c0.285-0.245,0.599-0.535,0.691-0.921c0.118-0.496,0.063-1.292,0.3-1.733
						c0.642-1.191,0.891-2.603,0.926-3.942C419.443,404.817,418.258,404.822,418.228,405.589L418.228,405.589z"/>
				</g>
			</g>
			<g>
				<g>
					<path style="fill:#CADB9F;" d="M357.829,388.608c0.84,1.798,0.663,3.966,2.326,5.308c0.198,0.16,0.538-0.045,0.378-0.292
						c-1.077-1.65-0.896-3.817-1.712-5.596C358.513,387.357,357.518,387.94,357.829,388.608L357.829,388.608z"/>
				</g>
			</g>
			<g>
				<g>
					<path style="fill:#CADB9F;" d="M364.759,387.825c-0.03,0.705-0.724,6.87,1.118,6.108c0.122-0.05,0.208-0.218,0.085-0.324
						c-0.385-0.33-0.15-2.229-0.142-2.708c0.016-1.024,0.087-2.05,0.071-3.075C365.88,387.092,364.79,387.097,364.759,387.825
						L364.759,387.825z"/>
				</g>
			</g>
			<g>
				<g>
					<path style="fill:#CADB9F;" d="M372.228,387.332c-0.051,1.291-0.407,2.47-0.911,3.65c-0.343,0.803,0.19,1.808-0.212,2.635
						c-0.129,0.265,0.179,0.503,0.402,0.31c0.285-0.245,0.599-0.535,0.691-0.92c0.118-0.496,0.063-1.292,0.3-1.733
						c0.642-1.191,0.891-2.603,0.926-3.942C373.443,386.559,372.258,386.564,372.228,387.332L372.228,387.332z"/>
				</g>
			</g>
			<g>
				<g>
					<path style="fill:#CADB9F;" d="M375.329,404.399c0.84,1.798,0.663,3.966,2.326,5.308c0.198,0.16,0.538-0.045,0.378-0.292
						c-1.077-1.65-0.896-3.818-1.712-5.596C376.013,403.148,375.017,403.731,375.329,404.399L375.329,404.399z"/>
				</g>
			</g>
			<g>
				<g>
					<path style="fill:#CADB9F;" d="M382.259,403.616c-0.03,0.705-0.724,6.87,1.118,6.108c0.122-0.05,0.209-0.218,0.086-0.324
						c-0.385-0.33-0.15-2.229-0.142-2.709c0.016-1.024,0.087-2.05,0.071-3.075C383.38,402.883,382.29,402.888,382.259,403.616
						L382.259,403.616z"/>
				</g>
			</g>
			<g>
				<g>
					<path style="fill:#CADB9F;" d="M389.728,403.122c-0.051,1.291-0.407,2.47-0.911,3.65c-0.343,0.803,0.19,1.809-0.212,2.636
						c-0.129,0.265,0.179,0.503,0.402,0.311c0.285-0.245,0.599-0.535,0.691-0.921c0.118-0.496,0.063-1.293,0.3-1.733
						c0.642-1.191,0.891-2.604,0.926-3.942C390.943,402.349,389.758,402.354,389.728,403.122L389.728,403.122z"/>
				</g>
			</g>
			<g>
				<g>
					<path style="fill:#CADB9F;" d="M386.829,391.076c0.84,1.798,0.663,3.966,2.326,5.308c0.198,0.16,0.538-0.045,0.378-0.292
						c-1.077-1.65-0.896-3.818-1.712-5.596C387.513,389.825,386.517,390.408,386.829,391.076L386.829,391.076z"/>
				</g>
			</g>
			<g>
				<g>
					<path style="fill:#CADB9F;" d="M393.759,390.292c-0.03,0.706-0.724,6.871,1.118,6.109c0.122-0.05,0.209-0.218,0.086-0.324
						c-0.385-0.33-0.15-2.23-0.142-2.709c0.016-1.025,0.087-2.051,0.071-3.076C394.88,389.559,393.79,389.564,393.759,390.292
						L393.759,390.292z"/>
				</g>
			</g>
			<g>
				<g>
					<path style="fill:#CADB9F;" d="M401.228,389.798c-0.051,1.291-0.407,2.47-0.911,3.65c-0.343,0.803,0.19,1.809-0.212,2.636
						c-0.129,0.265,0.179,0.503,0.402,0.311c0.285-0.245,0.599-0.535,0.691-0.92c0.118-0.496,0.063-1.293,0.3-1.733
						c0.642-1.191,0.891-2.603,0.926-3.942C402.443,389.026,401.258,389.031,401.228,389.798L401.228,389.798z"/>
				</g>
			</g>
			<g>
				<g>
					<path style="fill:#CADB9F;" d="M373.329,370.35c0.84,1.799,0.663,3.965,2.326,5.309c0.198,0.161,0.538-0.045,0.378-0.292
						c-1.076-1.651-0.896-3.818-1.712-5.597C374.013,369.099,373.018,369.682,373.329,370.35L373.329,370.35z"/>
				</g>
			</g>
			<g>
				<g>
					<path style="fill:#CADB9F;" d="M380.259,369.567c-0.03,0.706-0.724,6.871,1.118,6.109c0.122-0.05,0.209-0.218,0.086-0.324
						c-0.385-0.33-0.15-2.23-0.142-2.709c0.016-1.025,0.087-2.051,0.071-3.076C381.38,368.834,380.29,368.839,380.259,369.567
						L380.259,369.567z"/>
				</g>
			</g>
			<g>
				<g>
					<path style="fill:#CADB9F;" d="M387.728,369.074c-0.051,1.29-0.407,2.47-0.911,3.65c-0.343,0.803,0.189,1.808-0.212,2.636
						c-0.129,0.265,0.179,0.503,0.402,0.31c0.285-0.246,0.599-0.535,0.691-0.921c0.118-0.496,0.063-1.293,0.3-1.733
						c0.642-1.191,0.891-2.603,0.926-3.942C388.943,368.301,387.758,368.307,387.728,369.074L387.728,369.074z"/>
				</g>
			</g>
			<g>
				<g>
					<path style="fill:#CADB9F;" d="M283.829,369.364c0.84,1.798,0.663,3.966,2.326,5.308c0.198,0.16,0.538-0.045,0.377-0.292
						c-1.077-1.65-0.895-3.818-1.711-5.596C284.513,368.113,283.517,368.696,283.829,369.364L283.829,369.364z"/>
				</g>
			</g>
			<g>
				<g>
					<path style="fill:#CADB9F;" d="M290.759,368.581c-0.03,0.705-0.724,6.87,1.118,6.108c0.122-0.05,0.208-0.218,0.085-0.324
						c-0.385-0.33-0.15-2.229-0.142-2.709c0.016-1.025,0.087-2.05,0.071-3.075C291.88,367.848,290.79,367.853,290.759,368.581
						L290.759,368.581z"/>
				</g>
			</g>
			<g>
				<g>
					<path style="fill:#CADB9F;" d="M298.228,368.086c-0.051,1.291-0.407,2.471-0.911,3.651c-0.343,0.803,0.19,1.808-0.212,2.635
						c-0.129,0.265,0.179,0.503,0.402,0.31c0.285-0.245,0.599-0.535,0.691-0.92c0.118-0.496,0.063-1.293,0.3-1.733
						c0.642-1.191,0.891-2.604,0.926-3.943C299.443,367.314,298.258,367.319,298.228,368.086L298.228,368.086z"/>
				</g>
			</g>
			<g>
				<g>
					<path style="fill:#CADB9F;" d="M260.329,381.7c0.84,1.799,0.663,3.965,2.326,5.309c0.198,0.161,0.538-0.045,0.378-0.292
						c-1.076-1.651-0.896-3.818-1.712-5.597C261.013,380.449,260.018,381.032,260.329,381.7L260.329,381.7z"/>
				</g>
			</g>
			<g>
				<g>
					<path style="fill:#CADB9F;" d="M267.259,380.917c-0.03,0.706-0.724,6.871,1.118,6.109c0.122-0.05,0.208-0.218,0.085-0.324
						c-0.385-0.33-0.149-2.23-0.142-2.709c0.016-1.025,0.087-2.051,0.071-3.076C268.38,380.184,267.29,380.189,267.259,380.917
						L267.259,380.917z"/>
				</g>
			</g>
			<g>
				<g>
					<path style="fill:#CADB9F;" d="M274.728,380.423c-0.051,1.291-0.407,2.47-0.911,3.65c-0.343,0.803,0.189,1.808-0.212,2.636
						c-0.129,0.265,0.179,0.503,0.402,0.311c0.285-0.246,0.599-0.535,0.691-0.921c0.118-0.496,0.063-1.293,0.3-1.733
						c0.642-1.191,0.891-2.603,0.926-3.942C275.943,379.651,274.758,379.656,274.728,380.423L274.728,380.423z"/>
				</g>
			</g>
			<g>
				<g>
					<path style="fill:#CADB9F;" d="M307.329,373.804c0.84,1.799,0.663,3.966,2.326,5.309c0.198,0.16,0.538-0.045,0.378-0.292
						c-1.077-1.65-0.896-3.818-1.712-5.597C308.013,372.553,307.018,373.136,307.329,373.804L307.329,373.804z"/>
				</g>
			</g>
			<g>
				<g>
					<path style="fill:#CADB9F;" d="M314.259,373.021c-0.03,0.706-0.724,6.871,1.118,6.109c0.122-0.05,0.208-0.218,0.085-0.324
						c-0.385-0.33-0.15-2.23-0.142-2.709c0.016-1.025,0.087-2.051,0.071-3.076C315.38,372.288,314.29,372.293,314.259,373.021
						L314.259,373.021z"/>
				</g>
			</g>
			<g>
				<g>
					<path style="fill:#CADB9F;" d="M321.728,372.528c-0.051,1.29-0.407,2.47-0.911,3.65c-0.343,0.803,0.19,1.809-0.212,2.636
						c-0.129,0.265,0.179,0.503,0.402,0.31c0.285-0.245,0.599-0.535,0.691-0.92c0.118-0.496,0.063-1.293,0.3-1.733
						c0.642-1.191,0.891-2.603,0.926-3.942C322.943,371.755,321.758,371.761,321.728,372.528L321.728,372.528z"/>
				</g>
			</g>
			<g>
				<g>
					<path style="fill:#CADB9F;" d="M315.829,390.088c0.84,1.798,0.663,3.966,2.326,5.308c0.198,0.16,0.538-0.045,0.378-0.292
						c-1.077-1.65-0.896-3.817-1.712-5.596C316.513,388.837,315.518,389.42,315.829,390.088L315.829,390.088z"/>
				</g>
			</g>
			<g>
				<g>
					<path style="fill:#CADB9F;" d="M322.759,389.305c-0.03,0.705-0.724,6.87,1.118,6.108c0.122-0.05,0.208-0.218,0.085-0.324
						c-0.385-0.33-0.15-2.229-0.142-2.709c0.016-1.024,0.087-2.05,0.071-3.075C323.88,388.572,322.79,388.578,322.759,389.305
						L322.759,389.305z"/>
				</g>
			</g>
			<g>
				<g>
					<path style="fill:#CADB9F;" d="M330.228,388.812c-0.051,1.29-0.407,2.47-0.911,3.65c-0.343,0.803,0.19,1.808-0.212,2.635
						c-0.129,0.265,0.179,0.503,0.402,0.31c0.285-0.245,0.599-0.535,0.691-0.92c0.118-0.496,0.063-1.292,0.3-1.733
						c0.642-1.191,0.891-2.603,0.926-3.942C331.443,388.039,330.258,388.045,330.228,388.812L330.228,388.812z"/>
				</g>
			</g>
			<g>
				<g>
					<path style="fill:#CADB9F;" d="M287.829,386.141c0.84,1.798,0.663,3.966,2.326,5.308c0.198,0.16,0.538-0.045,0.378-0.292
						c-1.077-1.65-0.896-3.817-1.712-5.596C288.513,384.89,287.518,385.473,287.829,386.141L287.829,386.141z"/>
				</g>
			</g>
			<g>
				<g>
					<path style="fill:#CADB9F;" d="M294.759,385.358c-0.03,0.705-0.724,6.87,1.118,6.108c0.122-0.05,0.208-0.218,0.085-0.324
						c-0.385-0.33-0.15-2.229-0.142-2.709c0.016-1.024,0.087-2.05,0.071-3.075C295.88,384.625,294.79,384.63,294.759,385.358
						L294.759,385.358z"/>
				</g>
			</g>
			<g>
				<g>
					<path style="fill:#CADB9F;" d="M302.228,384.864c-0.051,1.291-0.407,2.471-0.911,3.651c-0.343,0.803,0.19,1.808-0.212,2.635
						c-0.129,0.265,0.179,0.503,0.402,0.311c0.285-0.245,0.599-0.535,0.691-0.92c0.118-0.496,0.063-1.292,0.3-1.733
						c0.642-1.191,0.891-2.604,0.926-3.943C303.443,384.091,302.258,384.097,302.228,384.864L302.228,384.864z"/>
				</g>
			</g>
		</g>
	</g>
	<g>
		<g>
			<g>
				<path style="fill:#CADB9F;" d="M139.826,377.093c0.84,1.768,0.668,3.906,2.323,5.216c0.196,0.156,0.537-0.044,0.374-0.289
					c-1.074-1.619-0.899-3.754-1.714-5.502C140.5,375.854,139.512,376.432,139.826,377.093L139.826,377.093z"/>
			</g>
		</g>
		<g>
			<g>
				<path style="fill:#CADB9F;" d="M146.756,376.32c-0.03,0.697-0.719,6.77,1.113,6.006c0.12-0.05,0.208-0.217,0.085-0.322
					c-0.383-0.327-0.153-2.186-0.146-2.661c0.016-1.007,0.087-2.016,0.071-3.023C147.869,375.593,146.787,375.599,146.756,376.32
					L146.756,376.32z"/>
			</g>
		</g>
		<g>
			<g>
				<path style="fill:#CADB9F;" d="M154.226,375.835c-0.044,1.085-0.3,2.079-0.705,3.08c-0.404,0.999,0.046,2.15-0.422,3.097
					c-0.131,0.264,0.177,0.494,0.399,0.308c0.286-0.241,0.596-0.522,0.688-0.905c0.118-0.486,0.063-1.272,0.299-1.702
					c0.64-1.168,0.89-2.56,0.925-3.878C155.431,375.07,154.256,375.075,154.226,375.835L154.226,375.835z"/>
			</g>
		</g>
		<g>
			<g>
				<path style="fill:#CADB9F;" d="M215.493,394.155c0.84,1.769,0.668,3.906,2.323,5.216c0.196,0.156,0.537-0.044,0.375-0.289
					c-1.074-1.619-0.899-3.754-1.714-5.502C216.167,392.916,215.179,393.494,215.493,394.155L215.493,394.155z"/>
			</g>
		</g>
		<g>
			<g>
				<path style="fill:#CADB9F;" d="M222.423,393.382c-0.03,0.697-0.719,6.77,1.113,6.005c0.12-0.05,0.207-0.217,0.085-0.322
					c-0.383-0.327-0.153-2.186-0.146-2.661c0.016-1.007,0.087-2.015,0.071-3.022C223.535,392.655,222.454,392.661,222.423,393.382
					L222.423,393.382z"/>
			</g>
		</g>
		<g>
			<g>
				<path style="fill:#CADB9F;" d="M229.892,392.897c-0.044,1.084-0.301,2.079-0.705,3.08c-0.404,0.999,0.046,2.15-0.422,3.097
					c-0.131,0.264,0.177,0.494,0.399,0.308c0.286-0.241,0.596-0.522,0.689-0.905c0.118-0.486,0.064-1.272,0.299-1.702
					c0.64-1.169,0.89-2.561,0.925-3.878C231.097,392.131,229.922,392.136,229.892,392.897L229.892,392.897z"/>
			</g>
		</g>
		<g>
			<g>
				<path style="fill:#CADB9F;" d="M114.66,374.606c0.84,1.769,0.668,3.906,2.323,5.216c0.196,0.156,0.537-0.045,0.374-0.289
					c-1.074-1.619-0.899-3.754-1.714-5.502C115.334,373.367,114.346,373.945,114.66,374.606L114.66,374.606z"/>
			</g>
		</g>
		<g>
			<g>
				<path style="fill:#CADB9F;" d="M121.59,373.833c-0.03,0.697-0.719,6.77,1.113,6.005c0.12-0.05,0.208-0.217,0.085-0.322
					c-0.383-0.327-0.153-2.186-0.146-2.661c0.016-1.007,0.087-2.015,0.071-3.022C122.702,373.106,121.621,373.112,121.59,373.833
					L121.59,373.833z"/>
			</g>
		</g>
		<g>
			<g>
				<path style="fill:#CADB9F;" d="M129.059,373.348c-0.044,1.085-0.301,2.079-0.705,3.08c-0.404,0.999,0.046,2.15-0.422,3.097
					c-0.131,0.264,0.177,0.494,0.399,0.308c0.286-0.241,0.596-0.522,0.689-0.905c0.118-0.486,0.063-1.272,0.299-1.702
					c0.64-1.169,0.89-2.561,0.925-3.878C130.264,372.582,129.089,372.587,129.059,373.348L129.059,373.348z"/>
			</g>
		</g>
		<g>
			<g>
				<path style="fill:#CADB9F;" d="M190.16,399.735c0.84,1.768,0.668,3.906,2.323,5.216c0.196,0.156,0.537-0.044,0.374-0.289
					c-1.074-1.619-0.899-3.754-1.714-5.502C190.833,398.497,189.846,399.074,190.16,399.735L190.16,399.735z"/>
			</g>
		</g>
		<g>
			<g>
				<path style="fill:#CADB9F;" d="M197.09,398.962c-0.03,0.697-0.719,6.77,1.113,6.006c0.12-0.05,0.208-0.217,0.085-0.322
					c-0.383-0.327-0.153-2.187-0.146-2.661c0.016-1.007,0.087-2.016,0.071-3.023C198.202,398.235,197.121,398.241,197.09,398.962
					L197.09,398.962z"/>
			</g>
		</g>
		<g>
			<g>
				<path style="fill:#CADB9F;" d="M204.559,398.478c-0.044,1.085-0.301,2.079-0.705,3.081c-0.404,0.998,0.046,2.149-0.422,3.097
					c-0.131,0.264,0.177,0.494,0.399,0.308c0.286-0.241,0.596-0.522,0.689-0.905c0.118-0.486,0.063-1.272,0.299-1.702
					c0.64-1.168,0.89-2.561,0.925-3.878C205.764,397.711,204.589,397.717,204.559,398.478L204.559,398.478z"/>
			</g>
		</g>
		<g>
			<g>
				<path style="fill:#CADB9F;" d="M164.16,392.46c0.84,1.769,0.669,3.906,2.323,5.216c0.196,0.156,0.537-0.044,0.374-0.289
					c-1.074-1.619-0.899-3.755-1.714-5.503C164.833,391.221,163.846,391.799,164.16,392.46L164.16,392.46z"/>
			</g>
		</g>
		<g>
			<g>
				<path style="fill:#CADB9F;" d="M171.09,391.688c-0.03,0.697-0.719,6.77,1.113,6.006c0.12-0.05,0.208-0.217,0.085-0.322
					c-0.383-0.327-0.153-2.187-0.146-2.662c0.016-1.007,0.087-2.015,0.071-3.022C172.202,390.96,171.121,390.966,171.09,391.688
					L171.09,391.688z"/>
			</g>
		</g>
		<g>
			<g>
				<path style="fill:#CADB9F;" d="M178.559,391.202c-0.044,1.085-0.301,2.079-0.705,3.081c-0.404,0.999,0.046,2.149-0.422,3.097
					c-0.131,0.264,0.177,0.495,0.399,0.308c0.286-0.241,0.596-0.522,0.689-0.905c0.118-0.486,0.063-1.272,0.299-1.702
					c0.64-1.169,0.89-2.561,0.925-3.878C179.764,390.436,178.589,390.441,178.559,391.202L178.559,391.202z"/>
			</g>
		</g>
		<g>
			<g>
				<path style="fill:#CADB9F;" d="M142.16,407.011c0.84,1.768,0.668,3.906,2.323,5.216c0.196,0.156,0.537-0.044,0.374-0.289
					c-1.074-1.619-0.899-3.754-1.714-5.502C142.833,405.772,141.846,406.35,142.16,407.011L142.16,407.011z"/>
			</g>
		</g>
		<g>
			<g>
				<path style="fill:#CADB9F;" d="M149.09,406.238c-0.03,0.697-0.719,6.77,1.113,6.006c0.12-0.05,0.208-0.217,0.085-0.322
					c-0.383-0.327-0.153-2.187-0.146-2.661c0.016-1.007,0.087-2.016,0.071-3.023C150.202,405.511,149.121,405.517,149.09,406.238
					L149.09,406.238z"/>
			</g>
		</g>
		<g>
			<g>
				<path style="fill:#CADB9F;" d="M156.559,405.753c-0.044,1.085-0.3,2.079-0.705,3.08c-0.404,0.999,0.046,2.15-0.422,3.097
					c-0.131,0.264,0.177,0.494,0.399,0.308c0.286-0.241,0.596-0.521,0.689-0.905c0.118-0.486,0.063-1.272,0.299-1.702
					c0.64-1.168,0.89-2.56,0.925-3.878C157.764,404.987,156.589,404.992,156.559,405.753L156.559,405.753z"/>
			</g>
		</g>
		<g>
			<g>
				<path style="fill:#CADB9F;" d="M113.66,404.585c0.84,1.769,0.668,3.906,2.323,5.216c0.196,0.156,0.537-0.044,0.374-0.289
					c-1.074-1.619-0.899-3.754-1.714-5.502C114.334,403.347,113.346,403.924,113.66,404.585L113.66,404.585z"/>
			</g>
		</g>
		<g>
			<g>
				<path style="fill:#CADB9F;" d="M120.59,403.813c-0.03,0.697-0.719,6.77,1.113,6.005c0.12-0.05,0.208-0.217,0.085-0.322
					c-0.383-0.327-0.153-2.187-0.146-2.661c0.016-1.007,0.087-2.015,0.071-3.022C121.702,403.086,120.621,403.092,120.59,403.813
					L120.59,403.813z"/>
			</g>
		</g>
		<g>
			<g>
				<path style="fill:#CADB9F;" d="M128.059,403.328c-0.044,1.085-0.301,2.079-0.705,3.08c-0.404,0.999,0.046,2.15-0.422,3.097
					c-0.131,0.264,0.177,0.494,0.399,0.308c0.286-0.241,0.596-0.522,0.689-0.905c0.118-0.486,0.063-1.271,0.299-1.702
					c0.64-1.168,0.89-2.561,0.925-3.878C129.264,402.562,128.089,402.567,128.059,403.328L128.059,403.328z"/>
			</g>
		</g>
		<g>
			<g>
				<path style="fill:#CADB9F;" d="M84.826,399.789c0.84,1.768,0.668,3.906,2.323,5.216c0.196,0.156,0.537-0.044,0.375-0.289
					c-1.074-1.619-0.899-3.754-1.714-5.502C85.5,398.551,84.512,399.128,84.826,399.789L84.826,399.789z"/>
			</g>
		</g>
		<g>
			<g>
				<path style="fill:#CADB9F;" d="M91.756,399.017c-0.03,0.697-0.719,6.77,1.113,6.006c0.12-0.05,0.207-0.217,0.085-0.322
					c-0.383-0.327-0.153-2.187-0.146-2.661c0.016-1.007,0.087-2.016,0.071-3.023C92.869,398.289,91.787,398.295,91.756,399.017
					L91.756,399.017z"/>
			</g>
		</g>
		<g>
			<g>
				<path style="fill:#CADB9F;" d="M99.226,398.532c-0.044,1.085-0.3,2.079-0.705,3.08c-0.404,0.999,0.046,2.15-0.422,3.097
					c-0.131,0.264,0.177,0.494,0.399,0.308c0.286-0.241,0.596-0.522,0.688-0.905c0.118-0.486,0.063-1.272,0.299-1.702
					c0.64-1.168,0.89-2.56,0.925-3.878C100.431,397.766,99.256,397.771,99.226,398.532L99.226,398.532z"/>
			</g>
		</g>
		<g>
			<g>
				<path style="fill:#CADB9F;" d="M58.326,390.031c0.84,1.768,0.668,3.906,2.323,5.216c0.196,0.156,0.537-0.044,0.374-0.289
					c-1.074-1.619-0.899-3.754-1.714-5.502C59,388.793,58.012,389.37,58.326,390.031L58.326,390.031z"/>
			</g>
		</g>
		<g>
			<g>
				<path style="fill:#CADB9F;" d="M65.256,389.259c-0.03,0.697-0.719,6.77,1.113,6.005c0.12-0.05,0.207-0.217,0.085-0.322
					c-0.383-0.327-0.153-2.187-0.146-2.661c0.016-1.007,0.087-2.015,0.071-3.022C66.369,388.532,65.287,388.538,65.256,389.259
					L65.256,389.259z"/>
			</g>
		</g>
		<g>
			<g>
				<path style="fill:#CADB9F;" d="M72.726,388.773c-0.044,1.085-0.301,2.079-0.705,3.081c-0.404,0.998,0.046,2.149-0.422,3.097
					c-0.131,0.264,0.177,0.494,0.399,0.308c0.286-0.241,0.596-0.522,0.688-0.905c0.118-0.486,0.064-1.271,0.299-1.702
					c0.64-1.168,0.89-2.561,0.925-3.878C73.931,388.007,72.756,388.013,72.726,388.773L72.726,388.773z"/>
			</g>
		</g>
		<g>
			<g>
				<path style="fill:#CADB9F;" d="M125.16,391.49c0.84,1.769,0.668,3.906,2.323,5.216c0.196,0.156,0.537-0.044,0.374-0.289
					c-1.074-1.619-0.899-3.755-1.714-5.503C125.834,390.251,124.846,390.829,125.16,391.49L125.16,391.49z"/>
			</g>
		</g>
		<g>
			<g>
				<path style="fill:#CADB9F;" d="M132.09,390.717c-0.03,0.697-0.719,6.77,1.113,6.006c0.12-0.05,0.208-0.217,0.085-0.322
					c-0.383-0.327-0.153-2.187-0.146-2.661c0.016-1.007,0.087-2.016,0.071-3.023C133.202,389.99,132.121,389.996,132.09,390.717
					L132.09,390.717z"/>
			</g>
		</g>
		<g>
			<g>
				<path style="fill:#CADB9F;" d="M139.559,390.232c-0.044,1.085-0.3,2.079-0.705,3.08c-0.404,0.999,0.046,2.15-0.422,3.097
					c-0.131,0.264,0.177,0.494,0.399,0.308c0.286-0.241,0.596-0.521,0.689-0.905c0.118-0.486,0.063-1.272,0.299-1.702
					c0.64-1.168,0.89-2.56,0.925-3.877C140.764,389.466,139.589,389.472,139.559,390.232L139.559,390.232z"/>
			</g>
		</g>
	</g>
</g>
<g id="DESIGNED_BY_FREEPIK">
	<g>
		<path style="fill:#1D262D;" d="M385.104,463.463c-0.432,0.443-0.803,0.932-1.108,1.453l-0.465-0.24
			c-0.068-0.297-0.35-0.502-0.66-0.467c-0.33,0.039-0.566,0.34-0.529,0.67c0.039,0.332,0.34,0.568,0.67,0.529
			c0.066-0.006,0.127-0.025,0.184-0.051l0.451,0.234c-0.25,0.553-0.432,1.139-0.539,1.742l0.748,0.133
			c0.228-1.307,0.85-2.508,1.791-3.475L385.104,463.463z"/>
		<path style="fill:#1D262D;" d="M387.596,462.594c0.936-0.447,1.941-0.674,2.996-0.674c0.496,0,0.992,0.053,1.475,0.158l0.16-0.742
			c-0.535-0.115-1.084-0.174-1.635-0.174c-0.172,0-0.342,0.006-0.51,0.016l-0.074-0.625c0.188-0.15,0.297-0.389,0.266-0.645
			c-0.045-0.393-0.402-0.674-0.795-0.629c-0.393,0.047-0.674,0.402-0.627,0.797c0.029,0.254,0.19,0.461,0.404,0.563l0.072,0.625
			c-0.713,0.115-1.402,0.332-2.059,0.645L387.596,462.594z"/>
		<path style="fill:#1D262D;" d="M397.047,462.512c-0.309,0.037-0.535,0.303-0.529,0.607l-0.416,0.363
			c-0.418-0.43-0.891-0.813-1.408-1.139l-0.404,0.641c1.135,0.715,2.022,1.727,2.565,2.926l0.689-0.313
			c-0.25-0.553-0.566-1.072-0.941-1.545l0.402-0.352c0.06,0.012,0.125,0.016,0.189,0.008c0.332-0.041,0.566-0.342,0.525-0.672
			C397.68,462.706,397.379,462.471,397.047,462.512z"/>
		<path style="fill:#1D262D;" d="M390.045,471.372c-0.387,0.023-0.775,0.035-1.158,0.035c-0.879,0-1.733-0.06-2.479-0.18
			c-0.391-0.063-0.846-0.154-1.27-0.293c1.047,1.861,3.068,3.125,5.389,3.125c2.855,0,5.262-1.916,5.949-4.502
			c-0.682,0.449-1.506,0.824-2.459,1.121C392.838,471.048,391.463,471.286,390.045,471.372z"/>
		<path style="fill:#1D262D;" d="M390.592,462.678c-3.352,0-6.08,2.668-6.08,5.945c0,0.424,0.047,0.848,0.137,1.26
			c0.674,0.484,2.707,0.891,5.348,0.732c2.881-0.174,5.297-0.959,6.672-2.161c-0.004-0.193-0.02-0.389-0.045-0.58
			C396.244,464.913,393.65,462.678,390.592,462.678z M388.432,469.194c-1.02,0-1.85-0.83-1.85-1.85c0-1.02,0.83-1.85,1.85-1.85
			s1.85,0.83,1.85,1.85C390.281,468.364,389.451,469.194,388.432,469.194z M393.17,468.286c-0.75,0-1.361-0.609-1.361-1.359
			s0.611-1.361,1.361-1.361s1.359,0.611,1.359,1.361S393.92,468.286,393.17,468.286z"/>
		<path style="fill:#1D262D;" d="M404.369,465.315c0-0.666,0.293-0.938,0.844-1.008c0.576-0.07,1.088,0.123,1.383,0.238v-1.729
			c-0.434-0.186-0.947-0.307-1.59-0.307c-1.674,0-2.568,1.102-2.568,2.783v0.889h-1.34v1.717h1.34v5.456h1.932v-5.456h2.228v-1.717
			h-2.228V465.315z"/>
		<path style="fill:#1D262D;" d="M411.223,465.989c-0.881,0-1.568,0.305-2.02,0.977v-0.783h-1.873v7.172h1.932v-3.909
			c0-1.066,0.615-1.613,1.51-1.613c0.168,0,0.35,0.016,0.525,0.045l1.021-1.551C412.07,466.118,411.637,465.989,411.223,465.989z"/>
		<path style="fill:#1D262D;" d="M415.479,465.989c-2.147,0-3.627,1.539-3.627,3.797c0,2.258,1.525,3.754,3.725,3.754
			c1.205,0,2.242-0.342,3.057-1.09l-1.133-1.242c-0.52,0.435-1.191,0.688-1.814,0.688c-0.91,0-1.635-0.451-1.842-1.486h5.084
			c0.022-0.164,0.037-0.43,0.037-0.652C418.957,467.522,417.543,465.989,415.479,465.989z M413.852,469.09
			c0.17-0.889,0.703-1.436,1.613-1.436c0.828,0,1.383,0.518,1.56,1.436H413.852z"/>
		<path style="fill:#1D262D;" d="M423.133,465.989c-2.147,0-3.627,1.539-3.627,3.797c0,2.258,1.523,3.754,3.723,3.754
			c1.207,0,2.242-0.342,3.057-1.09l-1.133-1.242c-0.518,0.435-1.191,0.688-1.813,0.688c-0.91,0-1.637-0.451-1.844-1.486h5.086
			c0.022-0.164,0.037-0.43,0.037-0.652C426.611,467.522,425.197,465.989,423.133,465.989z M421.504,469.09
			c0.17-0.889,0.703-1.436,1.613-1.436c0.828,0,1.385,0.518,1.563,1.436H421.504z"/>
		<path style="fill:#1D262D;" d="M431.484,465.989c-0.984,0-1.672,0.4-2.139,0.984v-0.791h-1.887v10.133h1.924v-3.709
			c0.467,0.555,1.148,0.934,2.109,0.934c1.977,0,3.473-1.621,3.473-3.775C434.965,467.61,433.469,465.989,431.484,465.989z
			 M431.131,471.741c-1.096,0-1.844-0.844-1.844-1.977c0-1.133,0.748-1.977,1.844-1.977c1.139,0,1.85,0.881,1.85,1.977
			C432.98,470.86,432.27,471.741,431.131,471.741z"/>
		<rect x="435.877" y="466.182" style="fill:#1D262D;" width="1.932" height="7.172"/>
		<path style="fill:#1D262D;" d="M436.832,462.59c-0.697,0-1.228,0.549-1.228,1.244c0,0.695,0.531,1.23,1.228,1.23
			c0.695,0,1.236-0.535,1.236-1.23C438.068,463.139,437.527,462.59,436.832,462.59z"/>
		<polygon style="fill:#1D262D;" points="442.623,469.558 446.102,466.182 443.734,466.182 441.031,468.735 441.031,462.694 
			439.1,462.694 439.1,473.354 441.031,473.354 441.031,470.452 443.748,473.354 446.125,473.354 		"/>
		<path style="fill:#1D262D;" d="M309.411,467.284c-0.57-0.777-1.435-1.246-2.387-1.246c-1.86,0-3.15,1.465-3.15,3.721
			c0,2.301,1.304,3.707,3.15,3.707c0.996,0,1.859-0.514,2.387-1.23v1.055h1.1v-9.772h-1.1V467.284z M309.411,471.37
			c-0.395,0.615-1.244,1.113-2.124,1.113c-1.42,0-2.27-1.156-2.27-2.725c0-1.567,0.85-2.739,2.27-2.739
			c0.88,0,1.729,0.527,2.124,1.143V471.37z"/>
		<path style="fill:#1D262D;" d="M315.417,466.038c-2.021,0-3.486,1.656-3.486,3.707c0,2.211,1.509,3.721,3.604,3.721
			c1.157,0,2.109-0.381,2.813-1.084l-0.527-0.719c-0.557,0.572-1.377,0.895-2.183,0.895c-1.523,0-2.461-1.113-2.549-2.447h5.728
			v-0.277C318.815,467.707,317.556,466.038,315.417,466.038z M313.088,469.305c0.059-1.084,0.806-2.359,2.315-2.359
			c1.611,0,2.314,1.305,2.329,2.359H313.088z"/>
		<path style="fill:#1D262D;" d="M320.866,468.045c0-0.631,0.6-1.113,1.566-1.113c0.909,0,1.685,0.381,2.109,0.893l0.514-0.762
			c-0.571-0.57-1.421-1.025-2.623-1.025c-1.685,0-2.636,0.938-2.636,2.037c0,2.622,4.38,1.567,4.38,3.282
			c0,0.703-0.586,1.215-1.671,1.215c-0.966,0-1.859-0.469-2.328-1.01l-0.571,0.791c0.718,0.762,1.699,1.113,2.856,1.113
			c1.831,0,2.782-0.953,2.782-2.139C325.245,468.573,320.866,469.599,320.866,468.045z"/>
		<rect x="326.666" y="466.213" style="fill:#1D262D;" width="1.1" height="7.077"/>
		<path style="fill:#1D262D;" d="M327.208,463.723c-0.395,0-0.732,0.336-0.732,0.746c0,0.41,0.337,0.734,0.732,0.734
			c0.41,0,0.747-0.324,0.747-0.734C327.955,464.059,327.618,463.723,327.208,463.723z"/>
		<path style="fill:#1D262D;" d="M334.708,467.284c-0.571-0.777-1.421-1.246-2.373-1.246c-1.86,0-3.149,1.406-3.149,3.678
			c0,2.285,1.304,3.662,3.149,3.662c0.996,0,1.86-0.543,2.373-1.26v1.01c0,1.553-1.099,2.125-2.271,2.125
			c-1.011,0-1.714-0.264-2.3-0.967l-0.557,0.82c0.835,0.818,1.655,1.055,2.856,1.055c1.729,0,3.369-0.732,3.369-3.076v-6.871h-1.099
			V467.284z M334.708,471.253c-0.381,0.615-1.23,1.158-2.109,1.158c-1.421,0-2.271-1.143-2.271-2.695
			c0-1.569,0.85-2.696,2.271-2.696c0.879,0,1.729,0.527,2.109,1.143V471.253z"/>
		<path style="fill:#1D262D;" d="M341.255,466.038c-1.055,0-2.022,0.615-2.519,1.201v-1.025h-1.1v7.077h1.1v-5.172
			c0.409-0.57,1.23-1.098,2.094-1.098c0.952,0,1.582,0.395,1.582,1.641v4.629h1.099v-4.967
			C343.511,466.786,342.734,466.038,341.255,466.038z"/>
		<path style="fill:#1D262D;" d="M348.418,466.038c-2.021,0-3.486,1.656-3.486,3.707c0,2.211,1.509,3.721,3.603,3.721
			c1.157,0,2.109-0.381,2.813-1.084l-0.527-0.719c-0.557,0.572-1.377,0.895-2.183,0.895c-1.523,0-2.461-1.113-2.549-2.447h5.728
			v-0.277C351.816,467.707,350.557,466.038,348.418,466.038z M346.089,469.305c0.059-1.084,0.806-2.359,2.315-2.359
			c1.611,0,2.314,1.305,2.329,2.359H346.089z"/>
		<path style="fill:#1D262D;" d="M358.35,467.284c-0.571-0.777-1.437-1.246-2.389-1.246c-1.86,0-3.148,1.465-3.148,3.721
			c0,2.301,1.304,3.707,3.148,3.707c0.997,0,1.861-0.514,2.389-1.23v1.055h1.098v-9.772h-1.098V467.284z M358.35,471.37
			c-0.397,0.615-1.245,1.113-2.124,1.113c-1.421,0-2.27-1.156-2.27-2.725c0-1.567,0.85-2.739,2.27-2.739
			c0.879,0,1.728,0.527,2.124,1.143V471.37z"/>
		<path style="fill:#1D262D;" d="M368.178,466.038c-0.967,0-1.816,0.469-2.388,1.246v-3.766h-1.099v9.772h1.099v-1.055
			c0.527,0.717,1.392,1.23,2.388,1.23c1.845,0,3.149-1.406,3.149-3.707C371.327,467.502,370.022,466.038,368.178,466.038z
			 M367.9,472.483c-0.864,0-1.729-0.498-2.109-1.113v-3.207c0.381-0.615,1.245-1.143,2.109-1.143c1.435,0,2.285,1.172,2.285,2.739
			C370.185,471.327,369.335,472.483,367.9,472.483z"/>
		<path style="fill:#1D262D;" d="M375.237,472.015l-2.358-5.801h-1.187l2.959,7.149l-0.469,1.07
			c-0.249,0.586-0.571,0.746-1.055,0.746c-0.175,0-0.439-0.043-0.601-0.117l-0.176,0.996c0.205,0.059,0.571,0.104,0.806,0.104
			c0.938-0.016,1.655-0.412,2.08-1.436l3.546-8.512h-1.201L375.237,472.015z"/>
	</g>
</g>
</svg>
