<?xml version="1.0" encoding="utf-8"?>
<!-- Generator: Adobe Illustrator 27.5.0, SVG Export Plug-In . SVG Version: 6.00 Build 0)  -->
<svg version="1.1" xmlns="http://www.w3.org/2000/svg" xmlns:xlink="http://www.w3.org/1999/xlink" x="0px" y="0px"
	 viewBox="0 0 250 250" style="enable-background:new 0 0 250 250;" xml:space="preserve">
<g id="objects">
	<g>
		<g>
			<g style="opacity:0.15;">
				
					<ellipse transform="matrix(0.7071 -0.7071 0.7071 0.7071 -58.1361 137.665)" cx="137.108" cy="139.009" rx="95.009" ry="95.009"/>
				
					<ellipse transform="matrix(0.7071 -0.7071 0.7071 0.7071 -59.1783 135.1488)" cx="133.55" cy="139.009" rx="95.009" ry="95.009"/>
				<circle cx="138.532" cy="139.009" r="71.524"/>
				<path d="M138.532,67.485c-0.834,0-1.664,0.02-2.491,0.048c38.347,1.313,69.033,32.808,69.033,71.476
					c0,38.667-30.685,70.163-69.033,71.476c0.827,0.028,1.657,0.048,2.491,0.048c39.501,0,71.524-32.022,71.524-71.524
					C210.055,99.508,178.033,67.485,138.532,67.485z"/>
				<path d="M67.008,139.009c0-38.667,30.685-70.163,69.033-71.476c-0.827-0.028-1.657-0.048-2.491-0.048
					c-39.501,0-71.524,32.022-71.524,71.524c0,39.501,32.022,71.524,71.524,71.524c0.834,0,1.664-0.02,2.491-0.048
					C97.693,209.172,67.008,177.676,67.008,139.009z"/>
			</g>
			<g>
				<g>
					
						<ellipse transform="matrix(0.7071 -0.7071 0.7071 0.7071 -56.4793 133.665)" style="fill:#BFBFBF;" cx="133.108" cy="135.009" rx="95.009" ry="95.009"/>
					
						<ellipse transform="matrix(0.7071 -0.7071 0.7071 0.7071 -57.5215 131.1488)" style="fill:#F7F9F8;" cx="129.55" cy="135.009" rx="95.009" ry="95.009"/>
					<circle style="fill:#E7E7E7;" cx="134.532" cy="135.009" r="71.524"/>
					<path style="fill:#FFFFFF;" d="M134.532,63.485c-0.834,0-1.664,0.02-2.491,0.048c38.347,1.313,69.033,32.808,69.033,71.476
						c0,38.667-30.685,70.163-69.033,71.476c0.827,0.028,1.657,0.048,2.491,0.048c39.501,0,71.524-32.022,71.524-71.524
						C206.055,95.508,174.033,63.485,134.532,63.485z"/>
					<path style="fill:#D9D9D9;" d="M63.008,135.009c0-38.667,30.685-70.163,69.033-71.476c-0.827-0.028-1.657-0.048-2.491-0.048
						c-39.501,0-71.524,32.022-71.524,71.524c0,39.501,32.022,71.524,71.524,71.524c0.834,0,1.664-0.02,2.491-0.048
						C93.693,205.172,63.008,173.676,63.008,135.009z"/>
				</g>
			</g>
		</g>
		<g>
			<g style="opacity:0.15;">
				<g>
					<defs>
						<path id="SVGID_1_" d="M51.162,187.306c0,0,13.774-8.525,15.971-23.733c0,0,16.572,10.775,30.52,5.729
							c13.948-5.046,19.443-5.13,33.083,0.632c13.639,5.762,39.271-0.552,39.271-0.552s14.249-0.834,21.847,6.442l-1.478,23.227
							c0,0-11.752-8.572-21.712-6.098c-9.96,2.474-18.893,7.205-42.152-0.187c-17.14-5.447-23.819-3.186-36.177-0.04
							C79.278,195.541,71.845,198.22,51.162,187.306z"/>
					</defs>
					<clipPath id="SVGID_00000182529655856400984280000002517742229616066221_">
						<use xlink:href="#SVGID_1_"  style="overflow:visible;"/>
					</clipPath>
				</g>
				<path d="M49.514,188.042c0,0,13.774-8.525,15.971-23.733c0,0,1.178-1.273,1.647-0.736c3.924,4.492,18.359,10.268,28.873,6.464
					c13.948-5.046,19.443-5.13,33.083,0.632c13.639,5.762,39.271-0.553,39.271-0.553s14.418,21.657,22.016,28.933l-1.647,0.736
					c0,0-11.752-8.572-21.712-6.098c-9.96,2.474-18.892,7.205-42.152-0.187c-17.14-5.447-23.819-3.186-36.177-0.04
					C77.631,196.277,70.198,198.956,49.514,188.042z"/>
				<path d="M51.162,187.306c0,0,13.774-8.525,15.971-23.733c0,0,16.572,10.775,30.52,5.729c13.948-5.046,19.443-5.13,33.083,0.632
					c13.639,5.762,39.271-0.552,39.271-0.552s14.249-0.834,21.847,6.442l-1.478,23.227c0,0-11.752-8.572-21.712-6.098
					c-9.96,2.474-18.893,7.205-42.152-0.187c-17.14-5.447-23.819-3.186-36.177-0.04C79.278,195.541,71.845,198.22,51.162,187.306z"
					/>
				<g>
					<defs>
						<path id="SVGID_00000144329975483359056020000007622321134459476652_" d="M51.162,187.306c0,0,13.774-8.525,15.971-23.733
							c0,0,16.572,10.775,30.52,5.729c13.948-5.046,19.443-5.13,33.083,0.632c13.639,5.762,39.271-0.552,39.271-0.552
							s14.249-0.834,21.847,6.442l-1.478,23.227c0,0-11.752-8.572-21.712-6.098c-9.96,2.474-18.893,7.205-42.152-0.187
							c-17.14-5.447-23.819-3.186-36.177-0.04C79.278,195.541,71.845,198.22,51.162,187.306z"/>
					</defs>
					<clipPath id="SVGID_00000022530371058923446890000016771918464705255812_">
						<use xlink:href="#SVGID_00000144329975483359056020000007622321134459476652_"  style="overflow:visible;"/>
					</clipPath>
					<path style="clip-path:url(#SVGID_00000022530371058923446890000016771918464705255812_);" d="M53.239,181.636
						c0,0,10.649,12.631,23.854,8.575s23.417-8.618,47.898-0.85c24.481,7.768,27.836-0.054,41.56-1.18
						c13.724-1.126,29.535,8.317,29.535,8.317l-1.223-5.686c0,0-11.305-12.201-37.559-3.87c-26.254,8.331-28.501,1.663-35.763-0.44
						c-7.263-2.103-16.411-9.608-27.906-5.262c-11.495,4.345-23.461-7.697-30.895-12.542l-2.855,1.275c0,0,6.993,2.679,14.014,9.55
						c7.021,6.871,4.797,6.02,1.036,5.857c-3.761-0.164-11.266-3.397-17.723-8.416C50.753,171.945,53.239,181.636,53.239,181.636z"
						/>
					<path style="clip-path:url(#SVGID_00000022530371058923446890000016771918464705255812_);" d="M76.135,175.095
						c0,0,6.458,6.629,19.648,3.05c13.191-3.579,15.893-1.443,23.195,1.209c7.302,2.652,30.357-1.72,40.323,0.121
						c9.965,1.841,37.618,2.344,36.75,5.817c-0.868,3.474-0.762-5.317-0.762-5.317s-11.161-8.128-26.878-5.992
						s-27.629,6.172-41.355,2.533c-13.727-3.639-14.394-8.741-25.314-3.091C90.823,179.077,79.942,176.994,76.135,175.095z"/>
					<path style="clip-path:url(#SVGID_00000022530371058923446890000016771918464705255812_);" d="M115.061,181.428
						c0,0,18.061,10.36,29.972,6.356c11.911-4.004,27.639-4.181,18.406-4.798s-12.002-3.269-26.168,0.398
						C123.105,187.049,111.452,178.288,115.061,181.428z"/>
					<path style="clip-path:url(#SVGID_00000022530371058923446890000016771918464705255812_);" d="M61.062,160.226
						c0,0,12.923,16.25,30.676,12.641c17.752-3.61,21.144-15.77,21.144-15.77L61.062,160.226z"/>
					<path style="clip-path:url(#SVGID_00000022530371058923446890000016771918464705255812_);" d="M108.727,168.437
						c0,0,10.668-2.658,14.032,0.449c3.364,3.107,18.98,7.986,35.58,3.863c25.341-6.294,53.844,8.893,23.089-6.874
						C150.674,150.109,96.069,171.063,108.727,168.437z"/>
				</g>
				<g>
					<defs>
						<path id="SVGID_00000165926874982658213660000010938745650586087079_" d="M51.162,187.306c0,0,13.774-8.525,15.971-23.733
							c0,0,16.572,10.775,30.52,5.729c13.948-5.046,19.443-5.13,33.083,0.632c13.639,5.762,39.271-0.552,39.271-0.552
							s14.249-0.834,21.847,6.442l-1.478,23.227c0,0-11.752-8.572-21.712-6.098c-9.96,2.474-18.893,7.205-42.152-0.187
							c-17.14-5.447-23.819-3.186-36.177-0.04C79.278,195.541,71.845,198.22,51.162,187.306z"/>
					</defs>
					<clipPath id="SVGID_00000100373787347908716600000008145333675211821203_">
						<use xlink:href="#SVGID_00000165926874982658213660000010938745650586087079_"  style="overflow:visible;"/>
					</clipPath>
				</g>
			</g>
			<g>
				<g>
					<g>
						<defs>
							<path id="SVGID_00000034791757555016452470000005322266785685792926_" d="M50.162,186.306c0,0,13.774-8.525,15.971-23.733
								c0,0,16.572,10.775,30.52,5.729c13.948-5.046,19.443-5.13,33.083,0.632c13.639,5.762,39.271-0.552,39.271-0.552
								s14.249-0.834,21.847,6.442l-1.478,23.227c0,0-11.752-8.572-21.712-6.098c-9.96,2.474-18.893,7.205-42.152-0.187
								c-17.14-5.447-23.819-3.186-36.177-0.04C78.278,194.541,70.845,197.22,50.162,186.306z"/>
						</defs>
						<clipPath id="SVGID_00000043451175524228275470000012201086934271364490_">
							<use xlink:href="#SVGID_00000034791757555016452470000005322266785685792926_"  style="overflow:visible;"/>
						</clipPath>
					</g>
				</g>
				<g>
					<path style="fill:#892727;" d="M48.514,187.042c0,0,13.774-8.525,15.971-23.733c0,0,1.178-1.273,1.647-0.736
						c3.924,4.492,18.359,10.268,28.873,6.464c13.948-5.046,19.443-5.13,33.083,0.632c13.639,5.762,39.271-0.553,39.271-0.553
						s14.418,21.657,22.016,28.933l-1.647,0.736c0,0-11.752-8.572-21.712-6.098c-9.96,2.474-18.892,7.205-42.152-0.187
						c-17.14-5.447-23.819-3.186-36.177-0.04C76.631,195.277,69.198,197.956,48.514,187.042z"/>
					<path style="fill:#C1433D;" d="M50.162,186.306c0,0,13.774-8.525,15.971-23.733c0,0,16.572,10.775,30.52,5.729
						c13.948-5.046,19.443-5.13,33.083,0.632c13.639,5.762,39.271-0.552,39.271-0.552s14.249-0.834,21.847,6.442l-1.478,23.227
						c0,0-11.752-8.572-21.712-6.098c-9.96,2.474-18.893,7.205-42.152-0.187c-17.14-5.447-23.819-3.186-36.177-0.04
						C78.278,194.541,70.845,197.22,50.162,186.306z"/>
					<g>
						<defs>
							<path id="SVGID_00000050629095478018361310000002944530755017293188_" d="M50.162,186.306c0,0,13.774-8.525,15.971-23.733
								c0,0,16.572,10.775,30.52,5.729c13.948-5.046,19.443-5.13,33.083,0.632c13.639,5.762,39.271-0.552,39.271-0.552
								s14.249-0.834,21.847,6.442l-1.478,23.227c0,0-11.752-8.572-21.712-6.098c-9.96,2.474-18.893,7.205-42.152-0.187
								c-17.14-5.447-23.819-3.186-36.177-0.04C78.278,194.541,70.845,197.22,50.162,186.306z"/>
						</defs>
						<clipPath id="SVGID_00000018919859174618214680000014422813317922132398_">
							<use xlink:href="#SVGID_00000050629095478018361310000002944530755017293188_"  style="overflow:visible;"/>
						</clipPath>
						<path style="clip-path:url(#SVGID_00000018919859174618214680000014422813317922132398_);fill:#FDB5A6;" d="M52.239,180.636
							c0,0,10.649,12.631,23.854,8.575s23.417-8.618,47.898-0.85c24.481,7.768,27.836-0.054,41.56-1.18
							c13.724-1.126,29.535,8.317,29.535,8.317l-1.223-5.686c0,0-11.305-12.201-37.559-3.87c-26.254,8.331-28.501,1.663-35.763-0.44
							c-7.263-2.103-16.411-9.608-27.906-5.262c-11.495,4.345-23.461-7.697-30.895-12.542l-2.855,1.275c0,0,6.993,2.679,14.014,9.55
							c7.021,6.871,4.797,6.02,1.036,5.857c-3.761-0.164-11.266-3.397-17.723-8.416C49.753,170.945,52.239,180.636,52.239,180.636z"
							/>
						<path style="clip-path:url(#SVGID_00000018919859174618214680000014422813317922132398_);fill:#FDB5A6;" d="M75.135,174.095
							c0,0,6.458,6.629,19.648,3.05c13.191-3.579,15.893-1.443,23.195,1.209c7.302,2.652,30.357-1.72,40.323,0.121
							c9.965,1.841,37.618,2.344,36.75,5.817c-0.868,3.474-0.762-5.317-0.762-5.317s-11.161-8.128-26.878-5.992
							s-27.629,6.172-41.355,2.533c-13.727-3.639-14.394-8.741-25.314-3.091C89.823,178.077,78.942,175.994,75.135,174.095z"/>
						<path style="clip-path:url(#SVGID_00000018919859174618214680000014422813317922132398_);fill:#FDB5A6;" d="M114.061,180.428
							c0,0,18.061,10.36,29.972,6.356c11.911-4.004,27.639-4.181,18.406-4.798s-12.002-3.269-26.168,0.398
							C122.105,186.049,110.452,177.288,114.061,180.428z"/>
						<path style="clip-path:url(#SVGID_00000018919859174618214680000014422813317922132398_);fill:#FDB5A6;" d="M60.062,159.226
							c0,0,12.923,16.25,30.676,12.641c17.752-3.61,21.144-15.77,21.144-15.77L60.062,159.226z"/>
						<path style="clip-path:url(#SVGID_00000018919859174618214680000014422813317922132398_);fill:#FDB5A6;" d="M107.727,167.437
							c0,0,10.668-2.658,14.032,0.449c3.364,3.107,18.98,7.986,35.58,3.863c25.341-6.294,53.844,8.893,23.089-6.874
							C149.674,149.109,95.069,170.063,107.727,167.437z"/>
					</g>
				</g>
				<g>
					<g>
						<defs>
							<path id="SVGID_00000144304265948174807190000006863684810175781523_" d="M50.162,186.306c0,0,13.774-8.525,15.971-23.733
								c0,0,16.572,10.775,30.52,5.729c13.948-5.046,19.443-5.13,33.083,0.632c13.639,5.762,39.271-0.552,39.271-0.552
								s14.249-0.834,21.847,6.442l-1.478,23.227c0,0-11.752-8.572-21.712-6.098c-9.96,2.474-18.893,7.205-42.152-0.187
								c-17.14-5.447-23.819-3.186-36.177-0.04C78.278,194.541,70.845,197.22,50.162,186.306z"/>
						</defs>
						<clipPath id="SVGID_00000097485576102506190750000001583379927056432808_">
							<use xlink:href="#SVGID_00000144304265948174807190000006863684810175781523_"  style="overflow:visible;"/>
						</clipPath>
					</g>
				</g>
			</g>
		</g>
		<g>
			<g style="opacity:0.15;">
				<path d="M42.63,138.947c0,0-6.047-13.403,7.14-19.571c22.132-10.352,17.026-26.619,39.145-27.553
					c13.324-0.562,12.663,16.47,23.576,24.614c10.768,8.036,8.464,17.305,5.518,21.873c-5.259,8.158-14.688,5.652-16.569,17.065
					c-1.881,11.414-25.688,19.894-33.589,2.492C64.478,150.437,48.827,152.273,42.63,138.947z"/>
				<path d="M112.492,116.437c-10.275-7.668-10.291-23.213-21.38-24.535c8.617,3.238,9.413,16.894,18.835,23.925
					c10.769,8.036,8.464,17.305,5.519,21.873c-5.259,8.158-14.688,5.652-16.569,17.066c-1.232,7.478-11.876,13.696-21.292,12.202
					c9.935,3.23,22.491-3.429,23.837-11.591c1.881-11.414,11.31-8.908,16.569-17.065
					C120.955,133.742,123.26,124.473,112.492,116.437z"/>
				<path d="M67.501,133.169c-0.23-0.48-4.397-8.946,5.334-14.715s20.016,1.435,20.353,10.607
					C93.579,139.675,74.596,147.959,67.501,133.169z"/>
				<path d="M82.39,116.613c4.207,1.812,7.244,5.961,7.417,10.677c0.334,9.07-14.728,16.286-22.083,6.322
					c7.26,14.173,25.85,5.954,25.464-4.551C92.964,122.957,88.331,117.73,82.39,116.613z"/>
				<path style="opacity:0.8;" d="M69.18,129.725c0,0-1.385-4.363,2.193-7.545c3.578-3.182,6.439-2.724,3.497,2.397
					S72.09,133.293,69.18,129.725z"/>
			</g>
			<g>
				<g>
					<path style="fill:#FEEED2;" d="M41.63,137.947c0,0-6.047-13.403,7.14-19.571c22.132-10.352,17.026-26.619,39.145-27.553
						c13.324-0.562,12.663,16.47,23.576,24.614c10.768,8.036,8.464,17.305,5.518,21.873c-5.259,8.158-14.688,5.652-16.569,17.065
						c-1.881,11.414-25.688,19.894-33.589,2.492C63.478,149.437,47.827,151.273,41.63,137.947z"/>
					<path style="fill:#EED8B3;" d="M111.492,115.437c-10.275-7.668-10.291-23.213-21.38-24.535
						c8.617,3.238,9.413,16.894,18.835,23.925c10.769,8.036,8.464,17.305,5.519,21.873c-5.259,8.158-14.688,5.652-16.569,17.066
						c-1.232,7.478-11.876,13.696-21.292,12.202c9.935,3.23,22.491-3.429,23.837-11.591c1.881-11.414,11.31-8.908,16.569-17.065
						C119.955,132.742,122.26,123.473,111.492,115.437z"/>
					<path style="fill:#FFD500;" d="M66.501,132.169c-0.23-0.48-4.397-8.946,5.334-14.715s20.016,1.435,20.353,10.607
						C92.579,138.675,73.596,146.959,66.501,132.169z"/>
					<path style="fill:#FFAD00;" d="M81.39,115.613c4.207,1.812,7.244,5.961,7.417,10.677c0.334,9.07-14.728,16.286-22.083,6.322
						c7.26,14.173,25.85,5.954,25.464-4.551C91.964,121.957,87.331,116.73,81.39,115.613z"/>
					<path style="opacity:0.8;fill:#FFEFAA;" d="M68.18,128.725c0,0-1.385-4.363,2.193-7.545c3.578-3.182,6.439-2.724,3.497,2.397
						S71.09,132.293,68.18,128.725z"/>
				</g>
			</g>
		</g>
		<path style="fill:#EA6536;" d="M165.465,86.827c0,0,12.913-9.548,23.18,1.412c3.007,3.21,4.877,10.6,8.91,17.404
			c3.135,5.289,7.752,2.274,6.108,15.078c-0.75,5.843,3.74,12.36,1.492,16.168c-6.46,10.942-27.123,12.63-40.012,7.754
			c-1.182-0.447-4.318-3.046-7.355-1.768c-10.354,4.36-16.799-2.665-19.289-18.05C135.266,104.844,155.815,103.35,165.465,86.827z"
			/>
		<g>
			<g style="opacity:0.15;">
				<g>
					<defs>
						<path id="SVGID_00000018232547732437636090000003713515989868168849_" d="M80.856,202.054c0,0,9.362-13.219,5.458-28.081
							c0,0,19.461,3.463,30.339-6.62c10.878-10.083,15.906-12.303,30.712-12.312c14.807-0.01,35.95-15.815,35.95-15.815
							s12.798-6.322,22.63-2.583l7.691,21.966c0,0-14.164-3.313-22.372,2.847c-8.208,6.16-14.59,13.999-38.891,16.257
							c-17.908,1.664-23.177,6.35-33.331,14.064C109.958,198.679,104.158,204.043,80.856,202.054z"/>
					</defs>
					<clipPath id="SVGID_00000049936508760086196250000012473208511921565319_">
						<use xlink:href="#SVGID_00000018232547732437636090000003713515989868168849_"  style="overflow:visible;"/>
					</clipPath>
				</g>
				<path d="M79.626,203.374c0,0,9.362-13.219,5.458-28.081c0,0,0.589-1.631,1.23-1.32c5.364,2.607,20.909,2.3,29.109-5.3
					c10.878-10.083,15.906-12.302,30.713-12.312c14.806-0.01,35.95-15.815,35.95-15.815s21.719,14.325,31.552,18.064l-1.23,1.32
					c0,0-14.164-3.313-22.372,2.847c-8.208,6.16-14.59,13.999-38.891,16.257c-17.908,1.664-23.177,6.35-33.331,14.064
					C108.728,199.999,102.928,205.363,79.626,203.374z"/>
				<path d="M80.856,202.054c0,0,9.362-13.219,5.458-28.081c0,0,19.461,3.463,30.339-6.62
					c10.878-10.083,15.906-12.303,30.712-12.312c14.807-0.01,35.95-15.815,35.95-15.815s12.798-6.322,22.63-2.583l7.691,21.966
					c0,0-14.164-3.313-22.372,2.847c-8.208,6.16-14.59,13.999-38.891,16.257c-17.908,1.664-23.177,6.35-33.331,14.064
					C109.958,198.679,104.158,204.043,80.856,202.054z"/>
				<g>
					<defs>
						<path id="SVGID_00000014614219797523427760000004214226088098882708_" d="M80.856,202.054c0,0,9.362-13.219,5.458-28.081
							c0,0,19.461,3.463,30.339-6.62c10.878-10.083,15.906-12.303,30.712-12.312c14.807-0.01,35.95-15.815,35.95-15.815
							s12.798-6.322,22.63-2.583l7.691,21.966c0,0-14.164-3.313-22.372,2.847c-8.208,6.16-14.59,13.999-38.891,16.257
							c-17.908,1.664-23.177,6.35-33.331,14.064C109.958,198.679,104.158,204.043,80.856,202.054z"/>
					</defs>
					<clipPath id="SVGID_00000019676423297518546940000016722672657113817505_">
						<use xlink:href="#SVGID_00000014614219797523427760000004214226088098882708_"  style="overflow:visible;"/>
					</clipPath>
					<path style="clip-path:url(#SVGID_00000019676423297518546940000016722672657113817505_);" d="M80.559,196.023
						c0,0,14.729,7.481,25.31-1.4c10.58-8.882,18.206-17.064,43.779-19.452c25.573-2.388,25.614-10.899,37.813-17.285
						c12.2-6.386,30.441-3.852,30.441-3.852l-3.342-4.76c0,0-15.166-6.83-36.097,11.075s-25.599,12.64-33.107,13.533
						c-7.508,0.894-18.858-2.451-27.751,6.031c-8.892,8.482-24.606,2.056-33.34,0.491l-2.132,2.287c0,0,7.484-0.259,16.628,3.332
						c9.144,3.591,6.764,3.674,3.237,4.99c-3.528,1.315-11.699,1.262-19.602-0.843C74.493,188.067,80.559,196.023,80.559,196.023z"
						/>
					<path style="clip-path:url(#SVGID_00000019676423297518546940000016722672657113817505_);" d="M99.095,181.075
						c0,0,8.531,3.588,19.284-4.849c10.753-8.437,14.074-7.524,21.832-7.928c7.758-0.404,27.286-13.416,37.181-15.605
						c9.895-2.189,35.557-12.504,36.111-8.966c0.554,3.537-2.774-4.599-2.774-4.599s-13.446-3.135-27.088,4.958
						c-13.642,8.094-23.038,16.453-37.098,18.452c-14.059,1.999-16.663-2.44-24.516,7.02
						C114.174,179.017,103.341,181.34,99.095,181.075z"/>
					<path style="clip-path:url(#SVGID_00000019676423297518546940000016722672657113817505_);" d="M137.411,171.735
						c0,0,20.671,2.501,30.079-5.829c9.408-8.33,23.824-14.623,15.08-11.593s-12.327,1.668-23.943,10.565
						C147.01,173.776,132.864,170.25,137.411,171.735z"/>
					<path style="clip-path:url(#SVGID_00000019676423297518546940000016722672657113817505_);" d="M79.419,173.257
						c0,0,18.235,9.928,33.176-0.315c14.941-10.244,13.326-22.764,13.326-22.764L79.419,173.257z"/>
					<path style="clip-path:url(#SVGID_00000019676423297518546940000016722672657113817505_);" d="M126.515,162.241
						c0,0,8.788-6.606,13.097-5.056c4.309,1.55,20.592-0.043,34.272-10.31c20.883-15.673,53.052-12.797,18.584-15.33
						S115.881,169.592,126.515,162.241z"/>
				</g>
				<g>
					<defs>
						<path id="SVGID_00000152225142802602676060000017614321636925844876_" d="M80.856,202.054c0,0,9.362-13.219,5.458-28.081
							c0,0,19.461,3.463,30.339-6.62c10.878-10.083,15.906-12.303,30.712-12.312c14.807-0.01,35.95-15.815,35.95-15.815
							s12.798-6.322,22.63-2.583l7.691,21.966c0,0-14.164-3.313-22.372,2.847c-8.208,6.16-14.59,13.999-38.891,16.257
							c-17.908,1.664-23.177,6.35-33.331,14.064C109.958,198.679,104.158,204.043,80.856,202.054z"/>
					</defs>
					<clipPath id="SVGID_00000024715318517812311310000005532139446248046731_">
						<use xlink:href="#SVGID_00000152225142802602676060000017614321636925844876_"  style="overflow:visible;"/>
					</clipPath>
				</g>
			</g>
			<g>
				<g>
					<g>
						<defs>
							<path id="SVGID_00000001651796129344243530000008858638121938469544_" d="M79.856,201.054c0,0,9.362-13.219,5.458-28.081
								c0,0,19.461,3.463,30.339-6.62c10.878-10.083,15.906-12.303,30.712-12.312c14.807-0.01,35.95-15.815,35.95-15.815
								s12.798-6.322,22.63-2.583l7.691,21.966c0,0-14.164-3.313-22.372,2.847c-8.208,6.16-14.59,13.999-38.891,16.257
								c-17.908,1.664-23.177,6.35-33.331,14.064C108.958,197.679,103.158,203.043,79.856,201.054z"/>
						</defs>
						<clipPath id="SVGID_00000105389792805947816710000003218073411810498207_">
							<use xlink:href="#SVGID_00000001651796129344243530000008858638121938469544_"  style="overflow:visible;"/>
						</clipPath>
					</g>
				</g>
				<g>
					<path style="fill:#892727;" d="M78.626,202.374c0,0,9.362-13.219,5.458-28.081c0,0,0.589-1.631,1.23-1.32
						c5.364,2.607,20.909,2.3,29.109-5.3c10.878-10.083,15.906-12.302,30.713-12.312c14.806-0.01,35.95-15.815,35.95-15.815
						s21.719,14.325,31.552,18.064l-1.23,1.32c0,0-14.164-3.313-22.372,2.847c-8.208,6.16-14.59,13.999-38.891,16.257
						c-17.908,1.664-23.177,6.35-33.331,14.064C107.728,198.999,101.928,204.363,78.626,202.374z"/>
					<path style="fill:#C1433D;" d="M79.856,201.054c0,0,9.362-13.219,5.458-28.081c0,0,19.461,3.463,30.339-6.62
						c10.878-10.083,15.906-12.303,30.712-12.312c14.807-0.01,35.95-15.815,35.95-15.815s12.798-6.322,22.63-2.583l7.691,21.966
						c0,0-14.164-3.313-22.372,2.847c-8.208,6.16-14.59,13.999-38.891,16.257c-17.908,1.664-23.177,6.35-33.331,14.064
						C108.958,197.679,103.158,203.043,79.856,201.054z"/>
					<g>
						<defs>
							<path id="SVGID_00000161590435821992230290000011527028418650923648_" d="M79.856,201.054c0,0,9.362-13.219,5.458-28.081
								c0,0,19.461,3.463,30.339-6.62c10.878-10.083,15.906-12.303,30.712-12.312c14.807-0.01,35.95-15.815,35.95-15.815
								s12.798-6.322,22.63-2.583l7.691,21.966c0,0-14.164-3.313-22.372,2.847c-8.208,6.16-14.59,13.999-38.891,16.257
								c-17.908,1.664-23.177,6.35-33.331,14.064C108.958,197.679,103.158,203.043,79.856,201.054z"/>
						</defs>
						<clipPath id="SVGID_00000090292853891153815720000007540390657742802586_">
							<use xlink:href="#SVGID_00000161590435821992230290000011527028418650923648_"  style="overflow:visible;"/>
						</clipPath>
						<path style="clip-path:url(#SVGID_00000090292853891153815720000007540390657742802586_);fill:#FDB5A6;" d="M79.559,195.023
							c0,0,14.729,7.481,25.31-1.4c10.58-8.882,18.206-17.064,43.779-19.452c25.573-2.388,25.614-10.899,37.813-17.285
							c12.2-6.386,30.441-3.852,30.441-3.852l-3.342-4.76c0,0-15.166-6.83-36.097,11.075s-25.599,12.64-33.107,13.533
							c-7.508,0.894-18.858-2.451-27.751,6.031c-8.892,8.482-24.606,2.056-33.34,0.491l-2.132,2.287c0,0,7.484-0.259,16.628,3.332
							c9.144,3.591,6.764,3.674,3.237,4.99c-3.528,1.315-11.699,1.262-19.602-0.843C73.493,187.067,79.559,195.023,79.559,195.023z"
							/>
						<path style="clip-path:url(#SVGID_00000090292853891153815720000007540390657742802586_);fill:#FDB5A6;" d="M98.095,180.075
							c0,0,8.531,3.588,19.284-4.849c10.753-8.437,14.074-7.524,21.832-7.928c7.758-0.404,27.286-13.416,37.181-15.605
							c9.895-2.189,35.557-12.504,36.111-8.966c0.554,3.537-2.774-4.599-2.774-4.599s-13.446-3.135-27.088,4.958
							c-13.642,8.094-23.038,16.453-37.098,18.452c-14.059,1.999-16.663-2.44-24.516,7.02
							C113.174,178.017,102.341,180.34,98.095,180.075z"/>
						<path style="clip-path:url(#SVGID_00000090292853891153815720000007540390657742802586_);fill:#FDB5A6;" d="M136.411,170.735
							c0,0,20.671,2.501,30.079-5.829c9.408-8.33,23.824-14.623,15.08-11.593s-12.327,1.668-23.943,10.565
							C146.01,172.776,131.864,169.25,136.411,170.735z"/>
						<path style="clip-path:url(#SVGID_00000090292853891153815720000007540390657742802586_);fill:#FDB5A6;" d="M78.419,172.257
							c0,0,18.235,9.928,33.176-0.315c14.941-10.244,13.326-22.764,13.326-22.764L78.419,172.257z"/>
						<path style="clip-path:url(#SVGID_00000090292853891153815720000007540390657742802586_);fill:#FDB5A6;" d="M125.515,161.241
							c0,0,8.788-6.606,13.097-5.056c4.309,1.55,20.592-0.043,34.272-10.31c20.883-15.673,53.052-12.797,18.584-15.33
							S114.881,168.592,125.515,161.241z"/>
					</g>
				</g>
				<g>
					<g>
						<defs>
							<path id="SVGID_00000140707519405880570470000005989098880187023807_" d="M79.856,201.054c0,0,9.362-13.219,5.458-28.081
								c0,0,19.461,3.463,30.339-6.62c10.878-10.083,15.906-12.303,30.712-12.312c14.807-0.01,35.95-15.815,35.95-15.815
								s12.798-6.322,22.63-2.583l7.691,21.966c0,0-14.164-3.313-22.372,2.847c-8.208,6.16-14.59,13.999-38.891,16.257
								c-17.908,1.664-23.177,6.35-33.331,14.064C108.958,197.679,103.158,203.043,79.856,201.054z"/>
						</defs>
						<clipPath id="SVGID_00000116236055548715016910000018040573721970151858_">
							<use xlink:href="#SVGID_00000140707519405880570470000005989098880187023807_"  style="overflow:visible;"/>
						</clipPath>
					</g>
				</g>
			</g>
		</g>
		<g>
			<path style="fill:#F99C69;" d="M185.013,106.433c0,0-2.801-0.297-2.68-4.088c0.122-3.791,3.393-6.135,4.855-3.339
				C188.65,101.802,188.302,106.814,185.013,106.433z"/>
			<path style="fill:#E28354;" d="M187.188,99.006c-0.227-0.434-0.5-0.73-0.795-0.931c1.211,2.849,0.743,7.345-2.38,6.983
				c0,0-0.683-0.074-1.359-0.603c0.712,1.797,2.359,1.978,2.359,1.978C188.302,106.814,188.65,101.802,187.188,99.006z"/>
			<path style="fill:#FFCEB8;" d="M183.757,99.7c-0.245,0.827-0.085,1.603,0.357,1.734c0.442,0.131,0.999-0.433,1.244-1.26
				c0.245-0.827,0.085-1.603-0.357-1.734C184.559,98.309,184.002,98.873,183.757,99.7z"/>
		</g>
		<g>
			<path style="fill:#F99C69;" d="M171.942,106.939c0,0-0.369-2.793,3.346-3.564c3.714-0.771,6.76,1.859,4.385,3.936
				S172.343,110.226,171.942,106.939z"/>
			<path style="fill:#E28354;" d="M179.673,107.312c0.368-0.322,0.593-0.657,0.718-0.991c-2.486,1.845-6.966,2.445-7.346-0.675
				c0,0-0.088-0.681,0.268-1.463c-1.58,1.114-1.37,2.757-1.37,2.757C172.343,110.226,177.298,109.388,179.673,107.312z"/>
			<path style="fill:#FFCEB8;" d="M176.789,103.509c-0.861-0.044-1.579,0.293-1.602,0.754c-0.024,0.461,0.655,0.87,1.517,0.914
				c0.861,0.044,1.579-0.293,1.602-0.754C178.33,103.962,177.651,103.553,176.789,103.509z"/>
		</g>
		<g>
			<path style="fill:#F99C69;" d="M160.578,110.087c0,0,0.488-2.775,4.262-2.394c3.774,0.381,5.889,3.805,2.999,5.072
				C164.949,114.032,159.972,113.342,160.578,110.087z"/>
			<path style="fill:#E28354;" d="M167.839,112.765c0.448-0.197,0.763-0.449,0.983-0.73c-2.925,1.013-7.378,0.238-6.804-2.852
				c0,0,0.121-0.676,0.695-1.315c-1.841,0.587-2.135,2.218-2.135,2.218C159.972,113.342,164.949,114.032,167.839,112.765z"/>
			<path style="fill:#FFCEB8;" d="M166.232,108.271c-0.808-0.301-1.594-0.195-1.755,0.237c-0.161,0.432,0.364,1.026,1.172,1.327
				s1.594,0.195,1.755-0.237C167.565,109.166,167.04,108.572,166.232,108.271z"/>
		</g>
		<g>
			<path style="fill:#F99C69;" d="M174.804,99.816c0,0-1.525-2.368,1.505-4.651c3.03-2.282,6.907-1.203,5.645,1.688
				C180.692,99.746,176.569,102.618,174.804,99.816z"/>
			<path style="fill:#E28354;" d="M181.954,96.854c0.196-0.449,0.255-0.847,0.226-1.203c-1.46,2.73-5.256,5.184-6.932,2.524
				c0,0-0.37-0.578-0.382-1.437c-0.953,1.681-0.062,3.078-0.062,3.078C176.569,102.618,180.692,99.746,181.954,96.854z"/>
			<path style="fill:#FFCEB8;" d="M178.576,95.169c-0.798,0.327-1.303,0.939-1.127,1.365c0.175,0.427,0.964,0.507,1.762,0.179
				c0.798-0.328,1.303-0.939,1.127-1.366C180.163,94.922,179.374,94.841,178.576,95.169z"/>
		</g>
		<g>
			<path style="fill:#F99C69;" d="M164.977,103.771c0,0-0.869-2.68,2.644-4.112c3.513-1.432,6.985,0.602,5.026,3.075
				S165.968,106.93,164.977,103.771z"/>
			<path style="fill:#E28354;" d="M172.647,102.734c0.304-0.384,0.464-0.754,0.526-1.105c-2.11,2.266-6.407,3.668-7.347,0.668
				c0,0-0.21-0.654-0.002-1.487c-1.352,1.382-0.847,2.96-0.847,2.96C165.968,106.93,170.688,105.207,172.647,102.734z"/>
			<path style="fill:#FFCEB8;" d="M169.578,99.609c-0.855,0.113-1.499,0.575-1.439,1.032c0.06,0.457,0.802,0.736,1.657,0.624
				c0.855-0.113,1.499-0.575,1.439-1.032C171.175,99.775,170.433,99.496,169.578,99.609z"/>
		</g>
		<g>
			<path style="fill:#F99C69;" d="M167.289,96.303c0,0-1.525-2.368,1.505-4.651c3.03-2.282,6.907-1.203,5.645,1.688
				C173.177,96.233,169.054,99.105,167.289,96.303z"/>
			<path style="fill:#E28354;" d="M174.438,93.341c0.196-0.449,0.255-0.848,0.226-1.203c-1.46,2.73-5.256,5.184-6.932,2.524
				c0,0-0.37-0.578-0.382-1.437c-0.953,1.681-0.062,3.078-0.062,3.078C169.054,99.105,173.177,96.233,174.438,93.341z"/>
			<path style="fill:#FFCEB8;" d="M170.474,91.366c-0.798,0.327-1.303,0.939-1.127,1.365c0.175,0.427,0.964,0.507,1.762,0.179
				c0.798-0.328,1.303-0.939,1.127-1.366C172.06,91.118,171.272,91.038,170.474,91.366z"/>
		</g>
		<g>
			<path style="fill:#F99C69;" d="M170.796,87.353c0,0-0.233-2.808,3.514-3.398c3.747-0.59,6.662,2.184,4.189,4.144
				C176.027,90.058,171.038,90.655,170.796,87.353z"/>
			<path style="fill:#E28354;" d="M178.5,88.099c0.384-0.304,0.624-0.628,0.765-0.955c-2.572,1.723-7.076,2.105-7.305-1.03
				c0,0-0.055-0.684,0.338-1.448c-1.632,1.036-1.502,2.688-1.502,2.688C171.038,90.655,176.027,90.058,178.5,88.099z"/>
			<path style="fill:#FFCEB8;" d="M176.31,85.024c-0.858-0.086-1.591,0.217-1.637,0.675s0.613,0.9,1.471,0.986
				c0.858,0.086,1.591-0.217,1.637-0.675S177.168,85.11,176.31,85.024z"/>
		</g>
		<g>
			<path style="fill:#F99C69;" d="M188.073,110.82c0,0-1.674-2.266,1.203-4.738c2.877-2.472,6.815-1.645,5.742,1.322
				C193.944,110.371,190.014,113.502,188.073,110.82z"/>
			<path style="fill:#E28354;" d="M195.018,107.405c0.167-0.46,0.201-0.862,0.148-1.215c-1.282,2.818-4.912,5.511-6.755,2.965
				c0,0-0.407-0.553-0.474-1.41c-0.843,1.739,0.136,3.076,0.136,3.076C190.014,113.502,193.944,110.371,195.018,107.405z"/>
			<path style="fill:#FFCEB8;" d="M191.538,105.94c-0.775,0.378-1.24,1.021-1.037,1.435c0.202,0.414,0.994,0.444,1.769,0.066
				c0.775-0.378,1.24-1.021,1.037-1.435C193.106,105.591,192.313,105.562,191.538,105.94z"/>
		</g>
		<g>
			<path style="fill:#F99C69;" d="M187.842,96.466c0,0,1.573-2.337,4.867-0.455c3.294,1.882,3.834,5.87,0.679,5.853
				C190.233,101.848,185.966,99.194,187.842,96.466z"/>
			<path style="fill:#E28354;" d="M193.388,101.865c0.489,0.003,0.879-0.1,1.194-0.267c-3.084-0.263-6.838-2.781-5.057-5.371
				c0,0,0.385-0.568,1.169-0.919c-1.921-0.212-2.853,1.159-2.853,1.159C185.966,99.194,190.233,101.848,193.388,101.865z"/>
			<path style="fill:#FFCEB8;" d="M193.602,98.096c-0.616-0.604-1.377-0.826-1.7-0.496c-0.323,0.329-0.085,1.086,0.531,1.689
				c0.616,0.604,1.377,0.826,1.7,0.496C194.455,99.456,194.217,98.699,193.602,98.096z"/>
		</g>
		<g>
			<path style="fill:#F99C69;" d="M179.849,90.131c0,0,0.632-2.745,4.381-2.168c3.749,0.577,5.682,4.107,2.73,5.221
				C184.008,94.299,179.074,93.35,179.849,90.131z"/>
			<path style="fill:#E28354;" d="M186.96,93.184c0.458-0.173,0.785-0.408,1.02-0.677c-2.974,0.859-7.381-0.147-6.645-3.203
				c0,0,0.156-0.669,0.763-1.277c-1.87,0.49-2.248,2.104-2.248,2.104C179.074,93.35,184.008,94.299,186.96,93.184z"/>
			<path style="fill:#FFCEB8;" d="M184.378,88.239c-0.862,0.009-1.558,0.389-1.553,0.85c0.005,0.461,0.707,0.828,1.57,0.819
				c0.862-0.009,1.558-0.389,1.553-0.851C185.943,88.597,185.24,88.23,184.378,88.239z"/>
		</g>
		<g>
			<path style="fill:#F99C69;" d="M164.496,132.566c0,0-2.802-0.297-2.68-4.088c0.122-3.792,3.393-6.135,4.855-3.339
				C168.132,127.934,167.785,132.947,164.496,132.566z"/>
			<path style="fill:#E28354;" d="M166.671,125.138c-0.227-0.434-0.5-0.73-0.795-0.93c1.211,2.849,0.743,7.345-2.38,6.983
				c0,0-0.683-0.074-1.359-0.604c0.712,1.797,2.359,1.979,2.359,1.979C167.785,132.947,168.132,127.934,166.671,125.138z"/>
			<path style="fill:#FFCEB8;" d="M163.24,125.832c-0.245,0.827-0.085,1.603,0.357,1.734c0.442,0.131,0.999-0.433,1.244-1.26
				c0.245-0.827,0.085-1.603-0.357-1.734C164.042,124.442,163.485,125.006,163.24,125.832z"/>
		</g>
		<g>
			<path style="fill:#F99C69;" d="M151.425,133.072c0,0-0.369-2.793,3.346-3.564c3.714-0.771,6.76,1.859,4.385,3.936
				C156.78,135.521,151.826,136.358,151.425,133.072z"/>
			<path style="fill:#E28354;" d="M159.155,133.444c0.368-0.322,0.593-0.657,0.718-0.991c-2.486,1.845-6.966,2.444-7.346-0.676
				c0,0-0.088-0.681,0.268-1.463c-1.58,1.114-1.37,2.758-1.37,2.758C151.826,136.358,156.78,135.521,159.155,133.444z"/>
			<path style="fill:#FFCEB8;" d="M156.272,129.641c-0.861-0.044-1.579,0.293-1.602,0.754c-0.024,0.46,0.655,0.87,1.517,0.914
				c0.861,0.044,1.579-0.293,1.602-0.754C157.813,130.094,157.133,129.685,156.272,129.641z"/>
		</g>
		<g>
			<path style="fill:#F99C69;" d="M143.339,134.764c0,0,0.488-2.775,4.262-2.394c3.774,0.381,5.889,3.805,2.999,5.072
				C147.711,138.708,142.734,138.019,143.339,134.764z"/>
			<path style="fill:#E28354;" d="M150.6,137.442c0.448-0.197,0.763-0.449,0.983-0.73c-2.925,1.013-7.378,0.238-6.804-2.852
				c0,0,0.121-0.676,0.695-1.315c-1.841,0.587-2.135,2.218-2.135,2.218C142.734,138.019,147.711,138.708,150.6,137.442z"/>
			<path style="fill:#FFCEB8;" d="M148.993,132.948c-0.808-0.301-1.594-0.195-1.755,0.237c-0.161,0.432,0.364,1.026,1.172,1.327
				c0.808,0.301,1.594,0.195,1.755-0.237C150.326,133.843,149.801,133.249,148.993,132.948z"/>
		</g>
		<g>
			<path style="fill:#F99C69;" d="M154.287,125.949c0,0-1.525-2.369,1.505-4.651c3.03-2.282,6.907-1.203,5.645,1.688
				C160.175,125.878,156.052,128.75,154.287,125.949z"/>
			<path style="fill:#E28354;" d="M161.437,122.986c0.196-0.449,0.256-0.847,0.226-1.203c-1.46,2.73-5.256,5.183-6.932,2.524
				c0,0-0.37-0.578-0.382-1.437c-0.954,1.681-0.062,3.078-0.062,3.078C156.052,128.75,160.175,125.878,161.437,122.986z"/>
			<path style="fill:#FFCEB8;" d="M158.059,121.301c-0.798,0.328-1.303,0.939-1.127,1.366c0.175,0.426,0.964,0.507,1.762,0.179
				c0.798-0.328,1.302-0.939,1.127-1.365C159.645,121.054,158.857,120.974,158.059,121.301z"/>
		</g>
		<g>
			<path style="fill:#F99C69;" d="M158.774,138.468c0,0-0.885-2.265,2.069-3.677c2.954-1.412,6.049,0.165,4.486,2.395
				C163.767,139.417,159.787,141.14,158.774,138.468z"/>
			<path style="fill:#E28354;" d="M165.33,137.187c0.242-0.346,0.361-0.673,0.398-0.979c-1.703,2.059-5.334,3.485-6.296,0.948
				c0,0-0.214-0.553-0.077-1.281c-1.095,1.259-0.58,2.594-0.58,2.594C159.787,141.14,163.767,139.417,165.33,137.187z"/>
			<path style="fill:#FFCEB8;" d="M162.761,135.183c-0.731,0.14-1.263,0.571-1.188,0.962c0.075,0.391,0.729,0.594,1.459,0.453
				c0.731-0.141,1.263-0.571,1.188-0.962C164.145,135.246,163.492,135.043,162.761,135.183z"/>
		</g>
		<g>
			<path style="fill:#F99C69;" d="M151.267,141.076c0,0-0.838-2.146,1.961-3.483c2.799-1.337,5.731,0.156,4.25,2.269
				C155.997,141.975,152.227,143.607,151.267,141.076z"/>
			<path style="fill:#E28354;" d="M157.478,139.862c0.23-0.328,0.342-0.638,0.377-0.927c-1.613,1.951-5.054,3.301-5.965,0.898
				c0,0-0.203-0.524-0.073-1.214c-1.037,1.193-0.549,2.457-0.549,2.457C152.227,143.607,155.997,141.975,157.478,139.862z"/>
			<path style="fill:#FFCEB8;" d="M155.044,137.963c-0.693,0.133-1.196,0.541-1.125,0.911c0.071,0.37,0.69,0.563,1.383,0.43
				c0.693-0.133,1.196-0.541,1.125-0.911C156.356,138.022,155.736,137.83,155.044,137.963z"/>
		</g>
		<g>
			<path style="fill:#F99C69;" d="M144.46,129.903c0,0-0.869-2.68,2.644-4.112c3.513-1.432,6.985,0.602,5.026,3.075
				C150.171,131.34,145.451,133.062,144.46,129.903z"/>
			<path style="fill:#E28354;" d="M152.13,128.867c0.304-0.384,0.464-0.754,0.526-1.105c-2.11,2.266-6.407,3.668-7.347,0.668
				c0,0-0.21-0.654-0.002-1.487c-1.352,1.382-0.847,2.96-0.847,2.96C145.451,133.062,150.171,131.34,152.13,128.867z"/>
			<path style="fill:#FFCEB8;" d="M149.061,125.741c-0.855,0.113-1.499,0.575-1.439,1.032c0.06,0.457,0.802,0.736,1.657,0.624
				c0.855-0.113,1.499-0.575,1.439-1.032C150.658,125.908,149.916,125.628,149.061,125.741z"/>
		</g>
		<g>
			<path style="fill:#F99C69;" d="M141.151,127.372c0,0-2.588-1.113-1.348-4.699c1.24-3.585,5.058-4.854,5.626-1.751
				C145.996,124.026,144.179,128.71,141.151,127.372z"/>
			<path style="fill:#E28354;" d="M145.429,120.922c-0.088-0.481-0.261-0.846-0.484-1.124c0.312,3.08-1.467,7.235-4.342,5.964
				c0,0-0.63-0.273-1.12-0.979c0.148,1.927,1.667,2.589,1.667,2.589C144.179,128.71,145.996,124.026,145.429,120.922z"/>
			<path style="fill:#FFCEB8;" d="M141.055,121.169c-0.479,0.717-0.557,1.506-0.173,1.762c0.383,0.256,1.083-0.118,1.562-0.835
				c0.479-0.717,0.557-1.506,0.173-1.762C142.233,120.078,141.534,120.451,141.055,121.169z"/>
		</g>
		<g>
			<path style="fill:#F99C69;" d="M146.771,122.436c0,0-1.525-2.369,1.505-4.651c3.03-2.282,6.907-1.203,5.645,1.688
				C152.659,122.365,148.536,125.237,146.771,122.436z"/>
			<path style="fill:#E28354;" d="M153.921,119.473c0.196-0.449,0.255-0.847,0.226-1.203c-1.46,2.73-5.256,5.184-6.932,2.524
				c0,0-0.37-0.578-0.382-1.437c-0.953,1.681-0.062,3.078-0.062,3.078C148.536,125.237,152.659,122.365,153.921,119.473z"/>
			<path style="fill:#FFCEB8;" d="M149.957,117.498c-0.798,0.328-1.302,0.939-1.127,1.366c0.175,0.426,0.964,0.507,1.762,0.179
				c0.798-0.328,1.303-0.939,1.127-1.365C151.543,117.251,150.754,117.17,149.957,117.498z"/>
		</g>
		<g>
			<path style="fill:#F99C69;" d="M150.279,113.486c0,0-0.233-2.808,3.514-3.398c3.747-0.59,6.662,2.184,4.189,4.143
				C155.509,116.191,150.521,116.788,150.279,113.486z"/>
			<path style="fill:#E28354;" d="M157.982,114.231c0.383-0.304,0.624-0.628,0.765-0.955c-2.572,1.723-7.076,2.105-7.305-1.03
				c0,0-0.055-0.685,0.338-1.448c-1.632,1.036-1.502,2.688-1.502,2.688C150.521,116.788,155.509,116.191,157.982,114.231z"/>
			<path style="fill:#FFCEB8;" d="M155.793,111.156c-0.858-0.086-1.591,0.216-1.637,0.675c-0.046,0.459,0.613,0.9,1.471,0.986
				s1.591-0.216,1.637-0.675C157.309,111.684,156.651,111.242,155.793,111.156z"/>
		</g>
		<g>
			<path style="fill:#F99C69;" d="M167.556,136.952c0,0-1.674-2.266,1.203-4.738c2.877-2.472,6.815-1.645,5.742,1.322
				C173.427,136.504,169.497,139.635,167.556,136.952z"/>
			<path style="fill:#E28354;" d="M174.5,133.537c0.167-0.46,0.201-0.862,0.149-1.215c-1.282,2.818-4.912,5.511-6.755,2.964
				c0,0-0.407-0.553-0.474-1.41c-0.843,1.739,0.136,3.076,0.136,3.076C169.497,139.635,173.427,136.504,174.5,133.537z"/>
			<path style="fill:#FFCEB8;" d="M171.021,132.072c-0.775,0.378-1.24,1.021-1.037,1.435c0.202,0.414,0.994,0.444,1.77,0.066
				c0.775-0.378,1.24-1.021,1.037-1.435C172.588,131.724,171.796,131.694,171.021,132.072z"/>
		</g>
		<g>
			<path style="fill:#F99C69;" d="M167.325,122.599c0,0,1.574-2.337,4.867-0.455c3.294,1.882,3.834,5.87,0.679,5.853
				C169.715,127.98,165.449,125.327,167.325,122.599z"/>
			<path style="fill:#E28354;" d="M172.87,127.997c0.489,0.003,0.88-0.1,1.195-0.267c-3.085-0.263-6.838-2.781-5.057-5.371
				c0,0,0.385-0.568,1.169-0.919c-1.921-0.212-2.853,1.159-2.853,1.159C165.449,125.327,169.715,127.98,172.87,127.997z"/>
			<path style="fill:#FFCEB8;" d="M173.084,124.228c-0.616-0.604-1.377-0.826-1.7-0.496c-0.323,0.329-0.085,1.086,0.531,1.689
				c0.616,0.604,1.377,0.826,1.7,0.496C173.938,125.588,173.7,124.832,173.084,124.228z"/>
		</g>
		<g>
			<path style="fill:#F99C69;" d="M159.331,116.263c0,0,0.632-2.745,4.381-2.168c3.749,0.577,5.682,4.107,2.73,5.221
				C163.491,120.431,158.557,119.482,159.331,116.263z"/>
			<path style="fill:#E28354;" d="M166.443,119.317c0.458-0.173,0.785-0.408,1.02-0.678c-2.974,0.859-7.381-0.147-6.645-3.203
				c0,0,0.156-0.669,0.763-1.277c-1.87,0.49-2.248,2.104-2.248,2.104C158.557,119.482,163.491,120.431,166.443,119.317z"/>
			<path style="fill:#FFCEB8;" d="M163.861,114.371c-0.862,0.009-1.558,0.389-1.553,0.85c0.005,0.461,0.707,0.828,1.57,0.819
				c0.862-0.009,1.558-0.389,1.553-0.85C165.426,114.729,164.723,114.363,163.861,114.371z"/>
		</g>
		<g>
			<path style="fill:#F99C69;" d="M191.128,132.74c0,0-2.4-1.476-0.655-4.844c1.745-3.368,5.707-4.073,5.82-0.92
				C196.406,130.129,193.931,134.502,191.128,132.74z"/>
			<path style="fill:#E28354;" d="M196.293,126.976c-0.017-0.489-0.136-0.875-0.316-1.182c-0.136,3.093-2.497,6.947-5.158,5.274
				c0,0-0.584-0.361-0.966-1.131c-0.132,1.928,1.276,2.802,1.276,2.802C193.931,134.502,196.406,130.129,196.293,126.976z"/>
			<path style="fill:#FFCEB8;" d="M192.899,126.123c-0.578,0.64-0.768,1.41-0.426,1.719c0.342,0.309,1.088,0.04,1.666-0.6
				c0.578-0.64,0.768-1.41,0.426-1.719C194.222,125.214,193.476,125.483,192.899,126.123z"/>
		</g>
		<g>
			<path style="fill:#F99C69;" d="M179.117,127.561c0,0,0.872-2.679,4.555-1.773c3.684,0.906,5.297,4.592,2.259,5.442
				C182.893,132.079,178.062,130.699,179.117,127.561z"/>
			<path style="fill:#E28354;" d="M185.931,131.23c0.471-0.132,0.818-0.338,1.075-0.585c-3.038,0.593-7.339-0.798-6.337-3.777
				c0,0,0.214-0.652,0.872-1.204c-1.906,0.324-2.425,1.897-2.425,1.897C178.061,130.699,182.893,132.079,185.931,131.23z"/>
			<path style="fill:#FFCEB8;" d="M184.97,126.555c-0.758-0.411-1.551-0.416-1.771-0.011c-0.22,0.405,0.216,1.067,0.974,1.479
				c0.758,0.411,1.551,0.416,1.771,0.011C186.164,127.628,185.728,126.966,184.97,126.555z"/>
		</g>
		<g>
			<path style="fill:#F99C69;" d="M175.74,133.078c0,0,1.637-2.293,4.878-0.322c3.241,1.971,3.673,5.972,0.519,5.869
				C177.983,138.522,173.79,135.754,175.74,133.078z"/>
			<path style="fill:#E28354;" d="M181.136,138.625c0.489,0.016,0.882-0.076,1.201-0.235c-3.076-0.347-6.76-2.966-4.909-5.507
				c0,0,0.4-0.558,1.194-0.887c-1.915-0.264-2.883,1.081-2.883,1.081C173.79,135.754,177.983,138.522,181.136,138.625z"/>
			<path style="fill:#FFCEB8;" d="M181.624,133.877c-0.599-0.62-1.354-0.863-1.686-0.542c-0.332,0.32-0.114,1.083,0.485,1.703
				c0.599,0.62,1.354,0.863,1.686,0.542C182.44,135.26,182.223,134.497,181.624,133.877z"/>
		</g>
		<g>
			<path style="fill:#F99C69;" d="M163.968,140.134c0,0,0.796-2.702,4.504-1.9c3.708,0.802,5.424,4.442,2.411,5.377
				C167.869,144.545,163.001,143.3,163.968,140.134z"/>
			<path style="fill:#E28354;" d="M170.883,143.611c0.467-0.145,0.809-0.36,1.059-0.615c-3.021,0.678-7.359-0.592-6.44-3.598
				c0,0,0.196-0.658,0.838-1.228c-1.896,0.377-2.371,1.965-2.371,1.965C163.001,143.3,167.869,144.545,170.883,143.611z"/>
			<path style="fill:#FFCEB8;" d="M169.79,138.965c-0.769-0.39-1.562-0.372-1.77,0.039c-0.208,0.411,0.246,1.061,1.015,1.451
				c0.769,0.39,1.562,0.372,1.77-0.039C171.014,140.004,170.56,139.355,169.79,138.965z"/>
		</g>
		<g>
			<path style="fill:#F99C69;" d="M184.771,122.368c0,0-0.355-2.795,3.363-3.548c3.718-0.753,6.751,1.892,4.365,3.957
				C190.114,124.843,185.155,125.656,184.771,122.368z"/>
			<path style="fill:#E28354;" d="M192.499,122.778c0.37-0.32,0.596-0.655,0.723-0.988c-2.495,1.833-6.978,2.41-7.343-0.711
				c0,0-0.085-0.681,0.275-1.462c-1.585,1.106-1.383,2.751-1.383,2.751C185.155,125.656,190.114,124.843,192.499,122.778z"/>
			<path style="fill:#FFCEB8;" d="M190.178,119.801c-0.861-0.048-1.58,0.285-1.606,0.746c-0.026,0.46,0.651,0.873,1.512,0.921
				c0.861,0.049,1.58-0.285,1.606-0.746C191.716,120.262,191.039,119.849,190.178,119.801z"/>
		</g>
		<g>
			<path style="fill:#F99C69;" d="M174.199,121.698c0,0,0.371-2.793,4.158-2.57c3.787,0.223,6.042,3.555,3.209,4.942
				C178.732,125.457,173.73,124.976,174.199,121.698z"/>
			<path style="fill:#E28354;" d="M181.566,124.07c0.44-0.215,0.743-0.48,0.951-0.77c-2.88,1.134-7.362,0.547-6.917-2.565
				c0,0,0.092-0.68,0.639-1.343c-1.815,0.664-2.041,2.306-2.041,2.306C173.73,124.976,178.732,125.457,181.566,124.07z"/>
			<path style="fill:#FFCEB8;" d="M180.145,119.927c-0.82-0.267-1.6-0.128-1.743,0.31c-0.143,0.438,0.406,1.01,1.226,1.277
				c0.82,0.267,1.601,0.128,1.743-0.311S180.965,120.194,180.145,119.927z"/>
		</g>
		<g>
			<path style="fill:#F99C69;" d="M172.305,117.988c0,0-1.855-2.121,0.81-4.821c2.664-2.7,6.657-2.199,5.831,0.846
				C178.119,117.058,174.46,120.501,172.305,117.988z"/>
			<path style="fill:#E28354;" d="M178.946,114.013c0.128-0.472,0.129-0.876,0.048-1.223c-1.046,2.914-4.443,5.895-6.489,3.509
				c0,0-0.451-0.518-0.588-1.366c-0.698,1.802,0.388,3.054,0.388,3.054C174.46,120.501,178.119,117.058,178.946,114.013z"/>
			<path style="fill:#FFCEB8;" d="M174.893,112.35c-0.741,0.441-1.151,1.119-0.916,1.515c0.236,0.396,1.028,0.361,1.769-0.08
				c0.741-0.441,1.151-1.119,0.916-1.515C176.427,111.873,175.635,111.909,174.893,112.35z"/>
		</g>
		<g>
			<path style="fill:#F99C69;" d="M180.887,116.535c0,0-0.355-2.795,3.363-3.548c3.718-0.753,6.751,1.892,4.365,3.957
				C186.23,119.01,181.271,119.823,180.887,116.535z"/>
			<path style="fill:#E28354;" d="M188.615,116.945c0.37-0.32,0.596-0.654,0.723-0.988c-2.495,1.833-6.978,2.411-7.343-0.711
				c0,0-0.085-0.681,0.275-1.462c-1.585,1.106-1.383,2.751-1.383,2.751C181.271,119.823,186.23,119.01,188.615,116.945z"/>
			<path style="fill:#FFCEB8;" d="M185.89,113.453c-0.861-0.048-1.58,0.285-1.606,0.746c-0.026,0.46,0.651,0.873,1.512,0.921
				c0.861,0.049,1.58-0.285,1.606-0.746S186.751,113.501,185.89,113.453z"/>
		</g>
		<g>
			<path style="fill:#F99C69;" d="M197.979,124.967c0,0,2.427-1.43,4.587,1.688c2.16,3.118,0.928,6.949-1.911,5.573
				C197.815,130.853,195.11,126.619,197.979,124.967z"/>
			<path style="fill:#E28354;" d="M200.655,132.229c0.44,0.213,0.837,0.289,1.193,0.274c-2.67-1.568-4.971-5.458-2.247-7.027
				c0,0,0.593-0.347,1.451-0.325c-1.642-1.02-3.074-0.184-3.074-0.184C195.11,126.619,197.815,130.853,200.655,132.229z"/>
			<path style="fill:#FFCEB8;" d="M202.472,128.92c-0.296-0.81-0.886-1.339-1.32-1.181c-0.433,0.158-0.545,0.943-0.249,1.753
				c0.296,0.81,0.886,1.339,1.32,1.181C202.656,130.516,202.768,129.731,202.472,128.92z"/>
		</g>
		<g>
			<path style="fill:#F99C69;" d="M193.498,115.804c0,0,1.754-2.205,4.888-0.067c3.134,2.138,3.356,6.156,0.212,5.888
				C195.454,121.358,191.411,118.374,193.498,115.804z"/>
			<path style="fill:#E28354;" d="M198.598,121.625c0.488,0.042,0.885-0.03,1.212-0.172c-3.054-0.507-6.596-3.315-4.615-5.756
				c0,0,0.429-0.536,1.239-0.823c-1.898-0.364-2.936,0.929-2.936,0.929C191.411,118.374,195.454,121.358,198.598,121.625z"/>
			<path style="fill:#FFCEB8;" d="M198.401,116.05c-0.782-0.364-1.573-0.32-1.768,0.098c-0.195,0.418,0.281,1.052,1.063,1.416
				c0.782,0.364,1.573,0.32,1.768-0.098C199.658,117.048,199.182,116.414,198.401,116.05z"/>
		</g>
		<g>
			<path style="fill:#F99C69;" d="M195.913,110.79c0,0,1.754-2.205,4.888-0.067c3.134,2.138,3.356,6.156,0.212,5.888
				C197.869,116.344,193.826,113.36,195.913,110.79z"/>
			<path style="fill:#E28354;" d="M201.012,116.611c0.488,0.041,0.885-0.03,1.212-0.172c-3.054-0.507-6.596-3.315-4.615-5.756
				c0,0,0.429-0.536,1.239-0.823c-1.898-0.364-2.936,0.929-2.936,0.929C193.826,113.36,197.869,116.344,201.012,116.611z"/>
			<path style="fill:#FFCEB8;" d="M200.815,111.036c-0.782-0.364-1.573-0.32-1.768,0.098c-0.195,0.418,0.281,1.052,1.063,1.416
				s1.573,0.32,1.768-0.098C202.073,112.034,201.597,111.4,200.815,111.036z"/>
		</g>
		<g>
			<g style="opacity:0.15;">
				<path d="M105.158,101.608c0,0-12.774-24.273,3.436-38.106c17.477-14.914,26.298-14.915,41.191-9.285
					c14.893,5.63,25.448,29.409,18.942,44.407c-6.506,14.998-20.034,22.959-36.051,20.473S111.412,115.786,105.158,101.608z"/>
				<path d="M153.873,56.272c11.023,9.053,17.552,27.786,12.1,40.354c-6.506,14.998-20.034,22.959-36.051,20.473
					c-8.171-1.268-13.536-2.108-17.664-4.505c4.49,4.022,10.307,4.933,20.418,6.502c16.018,2.486,29.545-5.474,36.051-20.473
					C174.619,85.041,166.518,64.255,153.873,56.272z"/>
				<path d="M123.337,87.436c-0.143-0.478-2.767-8.938,7.1-12.863c9.866-3.925,18.348,4.26,17.318,12.813
					C146.563,97.284,127.751,102.187,123.337,87.436z"/>
				<path d="M139.565,74.265c3.635,2.296,5.844,6.587,5.314,10.985c-1.018,8.458-16.038,12.944-21.4,2.63
					c4.657,14.203,23.096,9.303,24.275-0.493C148.44,81.694,144.91,76.17,139.565,74.265z"/>
				<path style="opacity:0.8;" d="M126.792,80.303c0,0,0.636-4.515,4.404-4.975c3.768-0.461,5.426,1.128,1.199,3.14
					C128.167,80.48,128.591,82.621,126.792,80.303z"/>
				<path style="opacity:0.8;" d="M124.647,82.95c0,0-0.531-0.702,0.487-1.45c1.018-0.747,2.178,0.025,1.961,0.693
					C126.523,83.956,125.459,84.887,124.647,82.95z"/>
			</g>
			<g>
				<g>
					<path style="fill:#FEEED2;" d="M104.158,100.608c0,0-12.774-24.273,3.436-38.106c17.477-14.914,26.298-14.915,41.191-9.285
						c14.893,5.63,25.448,29.409,18.942,44.407c-6.506,14.998-20.034,22.959-36.051,20.473S110.412,114.786,104.158,100.608z"/>
					<path style="fill:#EED8B3;" d="M152.873,55.272c11.023,9.053,17.552,27.786,12.1,40.354
						c-6.506,14.998-20.034,22.959-36.051,20.473c-8.171-1.268-13.536-2.108-17.664-4.505c4.49,4.022,10.307,4.933,20.418,6.502
						c16.018,2.486,29.545-5.474,36.051-20.473C173.619,84.041,165.518,63.255,152.873,55.272z"/>
					<path style="fill:#FFD500;" d="M122.337,86.436c-0.143-0.478-2.767-8.938,7.1-12.863c9.866-3.925,18.348,4.26,17.318,12.813
						C145.563,96.284,126.751,101.187,122.337,86.436z"/>
					<path style="fill:#FFAD00;" d="M138.565,73.265c3.635,2.296,5.844,6.587,5.314,10.985c-1.018,8.458-16.038,12.944-21.4,2.63
						c4.657,14.203,23.096,9.303,24.275-0.493C147.44,80.694,143.91,75.17,138.565,73.265z"/>
					<path style="opacity:0.8;fill:#FFEFAA;" d="M125.792,79.303c0,0,0.636-4.515,4.404-4.975c3.768-0.461,5.426,1.128,1.199,3.14
						C127.167,79.48,127.591,81.621,125.792,79.303z"/>
					<path style="opacity:0.8;fill:#FFEFAA;" d="M123.647,81.95c0,0-0.531-0.702,0.487-1.45c1.018-0.747,2.178,0.025,1.961,0.693
						C125.523,82.956,124.459,83.887,123.647,81.95z"/>
				</g>
			</g>
		</g>
	</g>
</g>
</svg>
