<?xml version="1.0" encoding="utf-8"?>
<!-- Generator: Adobe Illustrator 27.5.0, SVG Export Plug-In . SVG Version: 6.00 Build 0)  -->
<svg version="1.1" id="_x2018_ëîé_x5F_1" xmlns="http://www.w3.org/2000/svg" xmlns:xlink="http://www.w3.org/1999/xlink"
	 x="0px" y="0px" viewBox="0 0 3000 2000" style="enable-background:new 0 0 3000 2000;" xml:space="preserve">
<rect style="fill:#FFFFFF;" width="3000" height="2000"/>
<g>
	<path style="fill:#DEEBE9;" d="M2783.282,416.81v1159.635c0,182.774-142.95,310.834-323.943,336.674
		c-216.238,30.979-454.854,14.754-855.421-13.68c-244.511-17.362-736.139,11.402-981.536,13.68
		c-178.897,1.67-323.943-150.728-323.943-336.674V416.81c0-185.946,145.35-347.62,323.943-336.686
		c165.863,10.162,409.83,50.378,664.135,25.752c302.469-29.283,876.579-54.174,1172.822-25.752
		C2637.489,97.22,2783.282,230.865,2783.282,416.81z"/>
	<g>
		<polygon style="fill:#6F4975;" points="1764.104,1219.05 1716.525,1252.992 1662.785,1143.334 		"/>
		<polygon style="fill:#FFFFFF;" points="1772.075,1294.504 1662.785,1143.334 1764.104,1219.05 		"/>
		<polygon style="fill:#6F4975;" points="1766.721,1184.321 1741.933,1202.482 1662.785,1143.334 		"/>
		<polygon style="fill:#FFFFFF;" points="1662.785,1143.334 1750.009,1196.565 1835.952,1189.741 		"/>
	</g>
	<g>
		<polygon style="fill:#6F4975;" points="1561.09,497.753 1518.853,538.148 1449.986,437.302 		"/>
		<polygon style="fill:#FFFFFF;" points="1579.768,571.292 1449.986,437.302 1561.09,497.753 		"/>
		<polygon style="fill:#6F4975;" points="1558.714,463.006 1536.778,484.525 1449.986,437.302 		"/>
		<polygon style="fill:#FFFFFF;" points="1449.986,437.302 1543.924,477.514 1628.009,458.471 		"/>
	</g>
	<g>
		<g>
			<path style="fill:#42428E;" d="M2285.474,1147.746c-0.246-0.403-0.294-0.824-0.138-1.256c0.331-0.932,1.569-1.743,2.633-2.284
				c-1.515,0.144-3.571,0.192-4.376-0.619c-0.324-0.319-0.439-0.739-0.337-1.238c0.565-2.849,7.436-1.924,7.731-1.894l-0.072,0.481
				c-1.852-0.276-6.793-0.499-7.19,1.509c-0.066,0.337,0,0.601,0.204,0.799c0.95,0.944,4.448,0.475,5.723,0.229l0.126,0.463
				c-0.03,0.012-3.475,1.25-3.991,2.711c-0.102,0.295-0.072,0.571,0.096,0.848L2285.474,1147.746z"/>
		</g>
		<g>
			<path style="fill:#42428E;" d="M2370.956,1088.281l-0.271-0.391c1.004-0.818,3.589-3.228,3.462-4.563
				c-0.024-0.283-0.186-0.505-0.487-0.667c-0.192-0.102-0.397-0.15-0.613-0.15c-1.797,0-4.25,3.306-5.128,4.743l-0.409-0.252
				c0.138-0.222,3.084-4.971,5.542-4.971c0.289,0,0.565,0.066,0.835,0.21c0.445,0.241,0.697,0.595,0.74,1.046
				c0.108,1.136-1.226,2.705-2.308,3.775c1.088-0.481,2.513-0.92,3.445-0.583c0.433,0.156,0.727,0.457,0.884,0.902l-0.457,0.156
				c-0.102-0.301-0.301-0.499-0.589-0.607C2374.111,1086.43,2370.998,1088.269,2370.956,1088.281z"/>
		</g>
		<path style="fill:#F7B686;" d="M2779.776,1625.305c-23.234,158.916-159.207,264.796-320.438,287.815
			c-13.072,1.873-26.182,3.569-39.355,5.1c-30.447-100.186-62.412-206.395-91.505-300.937v-0.013
			c-2.48-8.074-4.948-16.046-7.39-23.955c-18.792-60.78-36.167-115.877-50.859-160.232c-0.013-0.025-0.013-0.025-0.013-0.025
			c-19.677-59.325-61.855-131.417-73.181-145.211c-0.949-1.164-1.683-1.911-2.164-2.202c0,0,2.569-28.068-17.691-45.215
			c-44.051-37.28-40.545-110.335-37.609-136.833c0.683-6.264,1.354-9.921,1.354-9.921s14.831-10.491,15.16-10.718
			c2.114-1.493,7.846-11.63,15.844-27.296c3.885-7.618,8.302-16.527,13.098-26.397c2.366-4.872,4.834-9.972,7.365-15.261
			c0,0,0.013-0.013,0-0.013c17.577-36.66,38.685-82.305,57.059-122.496c8.934-19.539,17.223-37.799,24.145-53.086
			c5.188-11.452,9.605-21.247,12.958-28.688c4.454-9.909,7.036-15.666,7.036-15.666c0.304,0.013,2.265,1.101,5.656,3.277
			c31.244,20.235,182.82,134.227,250.737,356.491c-0.012,0.038,0,0.051,0,0.051c0,2.582,20.387,45.923,52.807,112.866
			c20.918,43.202,46.86,96.225,75.585,154.474c4.733,9.618,9.542,19.361,14.427,29.232v0.013
			C2720.313,1506.125,2749.899,1565.639,2779.776,1625.305z"/>
		<path style="fill:#F7B686;" d="M2479.884,1011.071c-101.491-217.951-383.948-291.822-324.16-197.89
			c12.037,18.91,19.148,40.274,5.856,31.259c-30.458-20.658-62.583,42.188-70.762,53.285c-11.793,16-45.756,60.419-63.438,74.498
			c-44.741,35.626-89.337,63.245,18.736,136.854c35.726,24.333,47.508,77.323,80.588,127.226
			c62.786,94.714,182.019,40.916,182.019,40.916S2496.063,1045.816,2479.884,1011.071z"/>
		<path style="fill:#F7B686;" d="M1757.55,1067.325L1757.55,1067.325c26.3,44.584,187.641-53.029,187.641-53.029
			c35.203-17.932,39.021-51.867,20.227-83.103C1938.885,887.092,1730.672,1013.804,1757.55,1067.325z"/>
		<path style="fill:#F7B686;" d="M1853.681,1116.03L1853.681,1116.03c22.705,46.518,232.329-75.363,232.329-75.363
			c36.506-15.102,1.893-11.347-14.381-43.966C2048.653,950.646,1831.833,1063.895,1853.681,1116.03z"/>
		<path style="fill:#F7B686;" d="M1959.222,1161.421L1959.222,1161.421c21.763,29.051,136.997-64.634,136.997-64.634
			c24.681-18.243,23.265-44.734,4.869-66.265C2075.116,1000.123,1931.781,1123.848,1959.222,1161.421z"/>
		<path style="fill:#F7B686;" d="M1699.311,929.849L1699.311,929.849c16.712,48.991,194.496-13.873,194.496-13.873
			c38.108-10.42,48.728-42.876,36.66-77.274C1913.429,790.136,1683.845,871.989,1699.311,929.849z"/>
		<g>
			<g>
				<path style="fill:#2F1A31;" d="M1635.604,1068.281c-13.003,0-25.176-4.983-34.385-14.103
					c-9.276-9.185-14.313-21.388-14.175-34.367l3.234-310.583c0.132-12.973,5.422-25.079,14.884-34.09
					c9.648-9.173,22.434-14.012,35.689-13.417l588.867,22.873c26.444,1.022,46.949,22.29,46.678,48.427l-2.867,275.705
					c-0.271,26.119-21.208,47.003-47.658,47.538l-589.234,12.005C1636.295,1068.281,1635.946,1068.281,1635.604,1068.281z
					 M1638.88,665.099c-11.758,0-22.831,4.406-31.355,12.522c-8.789,8.362-13.7,19.603-13.832,31.644l-3.234,310.583
					c-0.12,12.041,4.551,23.372,13.165,31.902c8.789,8.698,20.523,13.411,32.942,13.105l589.234-12.005l0.036,1.707l-0.036-1.707
					c24.593-0.505,44.057-19.898,44.316-44.16l2.867-275.705c0.246-24.268-18.816-44.027-43.396-44.977l-588.867-22.873
					C1640.106,665.112,1639.493,665.099,1638.88,665.099z"/>
			</g>
			<path style="fill:#E28569;" d="M2300.189,706.36l-1.704,164.261l-0.663,63.189l-0.498,48.256
				c-0.255,25.02-20.632,45.335-45.98,45.846l-589.229,12.009c-26.465,0.53-48.122-20.621-47.861-46.731l0.461-43.82l0.65-63.189
				l2.13-203.583c0.274-26.111,22.359-46.846,48.793-45.814l588.866,22.875C2280.506,660.636,2300.456,681.327,2300.189,706.36z"/>
			<g>
				<path style="fill:#FFFFFF;" d="M1791.766,705.189l-0.861,82.319c-0.073,7.792-6.602,14.098-14.496,14.031l-65.521-0.623
					l-4.775-0.038l-13.127-0.126c-7.895-0.079-14.287-6.511-14.202-14.292l0.438-42.331l0.053-4.719l0.219-21.171l0.053-4.719
					l0.098-9.38c0.073-7.792,6.602-14.098,14.496-14.031l9.494,0.091l4.775,0.038l28.71,0.272l4.776,0.05l23.329,0.222l4.775,0.038
					l0.011-0.001l7.552,0.076C1785.459,690.976,1791.851,697.408,1791.766,705.189z"/>
				<g>
					<path style="fill:#2F1A31;" d="M1776.534,802.11c-0.048,0-0.09,0-0.132,0l-83.42-0.788c-3.968-0.042-7.695-1.611-10.496-4.424
						c-2.795-2.819-4.316-6.528-4.274-10.442l0.86-82.32c0.084-8.073,6.769-14.596,14.938-14.596c0.042,0,0.09,0,0.138,0
						l83.42,0.781c3.974,0.042,7.701,1.617,10.496,4.43c2.795,2.819,4.316,6.528,4.274,10.442l-0.86,82.32
						C1791.394,795.588,1784.703,802.11,1776.534,802.11z M1694.004,690.684c-7.538,0-13.718,6.011-13.79,13.466l-0.86,82.32
						c-0.042,3.607,1.359,7.027,3.943,9.624c2.585,2.603,6.029,4.052,9.696,4.088l83.42,0.787c0.036,0,0.078,0,0.12,0
						c7.544,0,13.73-6.017,13.802-13.465l0.86-82.32c0.042-3.607-1.359-7.027-3.943-9.624c-2.585-2.603-6.029-4.058-9.696-4.094
						l-83.42-0.781C1694.094,690.684,1694.052,690.684,1694.004,690.684z"/>
				</g>
				<g>
					<path style="fill:#2F1A31;" d="M1720.914,744.508c-0.278,0.008-0.556,0.01-0.836,0.008l-40.853-0.383l0.05-4.72l40.853,0.383
						c4.404,0.04,8.556-1.61,11.699-4.652c3.143-3.041,4.9-7.107,4.945-11.449l0.345-33.179l4.783,0.046l-0.345,33.178
						c-0.058,5.603-2.324,10.85-6.38,14.774C1731.317,742.245,1726.28,744.356,1720.914,744.508z"/>
				</g>
				<g>
					<path style="fill:#2F1A31;" d="M1770.001,690.822l-0.527,50.865c-0.066,6.706-2.782,12.992-7.643,17.697
						c-4.849,4.705-11.271,7.249-18.08,7.188l-17.936-0.162c-3.884-0.032-7.559,1.421-10.341,4.113
						c-2.783,2.681-4.338,6.286-4.372,10.124l-0.213,20.268l-4.775-0.038l0.201-20.279c0.055-5.096,2.114-9.871,5.805-13.448
						c3.703-3.578,8.572-5.509,13.747-5.47l17.937,0.173c5.517,0.042,10.733-2.023,14.685-5.843c3.941-3.82,6.153-8.923,6.21-14.373
						l0.528-50.854L1770.001,690.822z"/>
				</g>
				<g>
					<path style="fill:#2F1A31;" d="M1708.41,690.239l-0.141,13.059c-0.085,8.192-6.744,14.826-14.964,15.051
						c-0.205,0.012-0.399,0.011-0.605,0.011l-13.207-0.121l0.053-4.719l13.207,0.121c5.848,0.023,10.678-4.612,10.74-10.393
						l0.141-13.048L1708.41,690.239z"/>
				</g>
			</g>
			<g>
				<path style="fill:#FFFFFF;" d="M2102.73,710.231l-108.837,1.566c-3.002,0.043-5.448-2.361-5.418-5.323l0.114-10.941
					c0.031-2.953,2.513-5.307,5.504-5.221l108.788,3.143c2.909,0.084,5.213,2.45,5.183,5.321l-0.065,6.233
					C2107.97,707.872,2105.631,710.19,2102.73,710.231z"/>
				<path style="fill:#FFFFFF;" d="M2238.774,711.508l-108.837,1.566c-3.001,0.043-5.448-2.361-5.417-5.323l0.114-10.941
					c0.031-2.953,2.513-5.307,5.504-5.221l108.788,3.143c2.909,0.084,5.213,2.45,5.183,5.321l-0.065,6.233
					C2244.014,709.148,2241.675,711.466,2238.774,711.508z"/>
			</g>
			<g>
				<path style="fill:#FFFFFF;" d="M1814.543,997.244l-145.78,3.893c-4.02,0.107-7.353-2.046-7.378-4.768l-0.094-10.056
					c-0.025-2.714,3.247-4.933,7.257-4.921l145.82,0.435c3.899,0.012,7.04,2.133,7.064,4.772l0.053,5.728
					C1821.51,994.958,1818.429,997.141,1814.543,997.244z"/>
			</g>
			<g>
				<path style="fill:#FFFFFF;" d="M1760.065,928.687l-91.336,2.439c-2.519,0.067-4.607-1.282-4.623-2.988l-0.059-6.3
					c-0.016-1.7,2.035-3.091,4.547-3.083l91.362,0.272c2.443,0.007,4.41,1.336,4.426,2.99l0.033,3.589
					C1764.43,927.255,1762.499,928.622,1760.065,928.687z"/>
			</g>
			<g>
				<path style="fill:#FFFFFF;" d="M1874.455,927.7l-91.336,2.439c-2.519,0.067-4.607-1.282-4.623-2.988l-0.058-6.3
					c-0.016-1.7,2.035-3.091,4.547-3.083l91.362,0.272c2.443,0.007,4.411,1.336,4.426,2.99l0.033,3.589
					C1878.82,926.268,1876.89,927.635,1874.455,927.7z"/>
			</g>
			<g>
				<path style="fill:#FFFFFF;" d="M1702.534,853.455c-0.038-2.911-0.38-5.404-1.038-7.479c-0.658-2.075-1.569-3.784-2.733-5.112
					c-1.164-1.329-2.556-2.303-4.163-2.923c-1.607-0.607-3.391-0.911-5.34-0.886c-1.961,0.013-3.733,0.342-5.315,0.987
					c-1.594,0.645-2.961,1.645-4.1,2.999c-1.152,1.341-2.025,3.062-2.632,5.163c-0.607,2.088-0.898,4.581-0.873,7.491l0.063,6.745
					c0.025,2.898,0.367,5.404,1.025,7.479c0.658,2.075,1.569,3.784,2.734,5.125c1.164,1.341,2.556,2.316,4.163,2.923
					c1.62,0.62,3.391,0.924,5.353,0.898c1.949-0.013,3.721-0.342,5.328-0.987c1.594-0.645,2.961-1.645,4.1-3.012
					c1.126-1.354,1.999-3.075,2.607-5.176c0.608-2.088,0.911-4.594,0.873-7.504L1702.534,853.455z M1694.587,865.667
					c-0.228,1.189-0.569,2.164-1.012,2.898c-0.443,0.747-1,1.278-1.67,1.607c-0.671,0.316-1.443,0.494-2.29,0.494
					c-0.848,0.013-1.62-0.139-2.291-0.456c-0.683-0.316-1.253-0.835-1.721-1.569c-0.468-0.734-0.835-1.696-1.088-2.873
					c-0.266-1.19-0.392-2.658-0.418-4.391l-0.076-8.833c-0.013-1.721,0.089-3.176,0.316-4.353c0.228-1.164,0.57-2.113,1.025-2.835
					c0.456-0.721,1.013-1.253,1.683-1.582c0.658-0.316,1.417-0.494,2.265-0.494c0.848-0.013,1.62,0.139,2.29,0.456
					c0.683,0.316,1.253,0.822,1.734,1.544c0.481,0.709,0.848,1.658,1.088,2.822c0.253,1.164,0.392,2.62,0.405,4.341l0.076,8.833
					C1694.929,863.009,1694.815,864.477,1694.587,865.667z"/>
				<path style="fill:#FFFFFF;" d="M1733.804,853.177c-0.025-2.911-0.367-5.404-1.025-7.492c-0.658-2.075-1.569-3.784-2.733-5.112
					c-1.164-1.329-2.556-2.303-4.176-2.91c-1.607-0.62-3.391-0.911-5.34-0.898c-1.949,0.013-3.72,0.354-5.315,1
					c-1.595,0.633-2.961,1.632-4.1,2.986c-1.139,1.354-2.012,3.075-2.632,5.163c-0.607,2.088-0.898,4.594-0.873,7.504l0.063,6.732
					c0.025,2.911,0.367,5.404,1.025,7.479c0.658,2.088,1.569,3.796,2.733,5.125c1.177,1.341,2.556,2.316,4.176,2.936
					c1.607,0.607,3.391,0.911,5.34,0.898c1.949-0.025,3.733-0.354,5.328-1c1.607-0.645,2.974-1.645,4.1-3.012
					c1.126-1.354,2-3.075,2.62-5.163c0.607-2.101,0.899-4.594,0.873-7.504L1733.804,853.177z M1725.869,865.388
					c-0.24,1.19-0.569,2.151-1.012,2.898c-0.456,0.734-1.012,1.265-1.683,1.594s-1.43,0.494-2.278,0.494
					c-0.86,0.013-1.62-0.139-2.303-0.456c-0.671-0.304-1.24-0.835-1.708-1.569c-0.468-0.721-0.835-1.683-1.101-2.873
					c-0.253-1.19-0.392-2.645-0.405-4.391l-0.088-8.833c-0.013-1.721,0.088-3.176,0.329-4.341c0.228-1.177,0.57-2.126,1.025-2.847
					c0.456-0.721,1.012-1.253,1.671-1.569c0.658-0.329,1.417-0.493,2.278-0.506c0.848,0,1.607,0.152,2.291,0.456
					c0.671,0.316,1.253,0.835,1.733,1.544c0.469,0.721,0.835,1.658,1.089,2.822c0.253,1.177,0.38,2.62,0.392,4.341l0.089,8.833
					C1726.198,862.731,1726.097,864.186,1725.869,865.388z"/>
				<path style="fill:#FFFFFF;" d="M1765.073,852.885c-0.025-2.911-0.367-5.404-1.025-7.479c-0.658-2.088-1.569-3.784-2.734-5.112
					c-1.164-1.341-2.556-2.303-4.163-2.923c-1.62-0.62-3.391-0.911-5.353-0.898c-1.949,0.025-3.72,0.354-5.315,1
					c-1.582,0.645-2.949,1.645-4.087,2.986c-1.152,1.354-2.025,3.075-2.632,5.163c-0.607,2.088-0.898,4.594-0.873,7.504l0.063,6.732
					c0.025,2.911,0.367,5.404,1.025,7.479c0.658,2.088,1.569,3.796,2.733,5.138c0.152,0.165,0.304,0.329,0.456,0.494
					c1.076,1.076,2.303,1.886,3.708,2.43c1.62,0.62,3.391,0.911,5.353,0.898c1.949-0.025,3.72-0.354,5.328-1
					c1.594-0.645,2.961-1.645,4.087-2.999c1.139-1.367,2.012-3.088,2.62-5.176c0.531-1.81,0.81-3.936,0.86-6.378
					c0.013-0.367,0.013-0.747,0.013-1.126L1765.073,852.885z M1757.177,864.895c-0.013,0.063-0.025,0.139-0.038,0.203
					c-0.228,1.19-0.569,2.151-1.012,2.898c-0.443,0.734-1,1.278-1.67,1.594c-0.683,0.329-1.443,0.494-2.291,0.506
					c-0.848,0-1.62-0.152-2.291-0.456c-0.202-0.101-0.405-0.202-0.582-0.354c-0.43-0.291-0.81-0.696-1.139-1.215
					c-0.468-0.734-0.835-1.696-1.089-2.885c-0.266-1.19-0.405-2.645-0.417-4.391l-0.076-8.833c-0.025-1.721,0.089-3.164,0.316-4.34
					c0.228-1.177,0.569-2.126,1.025-2.847c0.456-0.721,1.012-1.24,1.67-1.569c0.671-0.329,1.43-0.494,2.278-0.506
					c0.848,0,1.62,0.152,2.291,0.468c0.683,0.304,1.253,0.823,1.733,1.531c0.481,0.721,0.835,1.658,1.089,2.835
					c0.253,1.164,0.38,2.607,0.405,4.328l0.076,8.845c0.013,1.633-0.076,3.025-0.278,4.176V864.895z"/>
				<path style="fill:#FFFFFF;" d="M1796.355,852.594c-0.013-2.063-0.19-3.923-0.544-5.568c-0.126-0.671-0.291-1.303-0.481-1.911
					c-0.658-2.075-1.569-3.784-2.734-5.112c-1.177-1.329-2.556-2.303-4.176-2.923c-1.607-0.607-3.391-0.911-5.34-0.886
					c-1.949,0.013-3.72,0.342-5.315,0.987s-2.961,1.645-4.1,2.999c-1.139,1.341-2.012,3.062-2.632,5.15
					c-0.608,2.101-0.899,4.594-0.873,7.504l0.051,5.404l0.013,1.329c0.025,2.911,0.367,5.404,1.025,7.491
					c0.658,2.075,1.569,3.784,2.733,5.125c1.177,1.341,2.556,2.316,4.176,2.923c1.607,0.62,3.391,0.924,5.34,0.898
					c1.949-0.013,3.733-0.342,5.328-0.987c1.607-0.645,2.974-1.658,4.1-3.012c1.126-1.354,1.999-3.088,2.62-5.176
					c0.607-2.088,0.898-4.594,0.873-7.504L1796.355,852.594z M1788.408,864.806c-0.228,1.19-0.557,2.164-1,2.898
					c-0.456,0.747-1.012,1.278-1.683,1.607c-0.671,0.316-1.43,0.481-2.278,0.494c-0.86,0.013-1.62-0.139-2.303-0.456
					c-0.671-0.316-1.24-0.835-1.708-1.569c-0.468-0.734-0.835-1.696-1.101-2.873c-0.253-1.19-0.392-2.657-0.405-4.391l-0.063-5.859
					l-0.025-2.986c-0.013-1.721,0.089-3.164,0.329-4.341c0.228-1.164,0.569-2.113,1.025-2.835c0.455-0.734,1.012-1.253,1.67-1.582
					c0.658-0.316,1.417-0.493,2.278-0.493c0.848-0.013,1.607,0.139,2.291,0.456c0.671,0.316,1.253,0.823,1.734,1.544
					c0.468,0.709,0.835,1.658,1.088,2.822c0.164,0.785,0.278,1.683,0.342,2.721v0.013c0.025,0.506,0.051,1.038,0.051,1.607
					l0.089,8.833C1788.75,862.149,1788.649,863.617,1788.408,864.806z"/>
				<path style="fill:#FFFFFF;" d="M1856.869,852.632c-0.025-2.911-0.367-5.404-1.025-7.491c-0.658-2.075-1.569-3.784-2.733-5.112
					s-2.556-2.291-4.163-2.911c-1.62-0.62-3.391-0.911-5.34-0.898c-1.962,0.025-3.733,0.354-5.328,1
					c-1.582,0.645-2.948,1.633-4.087,2.987c-1.152,1.354-2.025,3.075-2.632,5.163s-0.898,4.594-0.873,7.504l0.063,6.732
					c0.025,2.911,0.367,5.404,1.025,7.479c0.658,2.088,1.569,3.796,2.733,5.125c1.164,1.341,2.556,2.316,4.163,2.936
					c1.62,0.62,3.391,0.911,5.353,0.898c1.949-0.025,3.72-0.354,5.328-1c1.594-0.645,2.961-1.645,4.087-2.999
					c1.139-1.367,2.012-3.088,2.62-5.176c0.607-2.088,0.898-4.594,0.873-7.504L1856.869,852.632z M1848.935,864.844
					c-0.228,1.19-0.569,2.151-1.012,2.898c-0.443,0.734-1,1.265-1.67,1.594c-0.671,0.329-1.443,0.494-2.291,0.506
					c-0.848,0-1.62-0.152-2.291-0.468c-0.683-0.304-1.253-0.835-1.721-1.556c-0.468-0.734-0.835-1.696-1.088-2.885
					c-0.266-1.19-0.405-2.645-0.418-4.391l-0.076-8.833c-0.012-1.721,0.089-3.164,0.316-4.341s0.57-2.126,1.025-2.847
					c0.456-0.721,1.012-1.24,1.671-1.569c0.671-0.329,1.43-0.494,2.278-0.506c0.848,0,1.62,0.152,2.291,0.468
					c0.683,0.304,1.253,0.823,1.734,1.531c0.481,0.721,0.835,1.658,1.088,2.835c0.253,1.164,0.392,2.607,0.405,4.328l0.076,8.833
					C1849.264,862.187,1849.162,863.654,1848.935,864.844z"/>
				<path style="fill:#FFFFFF;" d="M1888.151,852.341c-0.025-2.911-0.367-5.403-1.025-7.479c-0.658-2.088-1.569-3.784-2.733-5.112
					c-1.177-1.329-2.556-2.303-4.176-2.923c-1.607-0.607-3.391-0.911-5.34-0.898c-1.949,0.025-3.72,0.354-5.315,1
					s-2.961,1.645-4.1,2.987c-1.139,1.354-2.012,3.075-2.632,5.163c-0.607,2.101-0.898,4.594-0.873,7.504l0.063,6.732
					c0.025,2.91,0.367,5.404,1.025,7.491c0.658,2.075,1.569,3.784,2.733,5.125c1.177,1.329,2.556,2.316,4.176,2.923
					c1.607,0.62,3.391,0.911,5.34,0.898c1.949-0.013,3.733-0.354,5.328-1c1.607-0.633,2.974-1.645,4.1-2.999
					c1.126-1.354,2-3.088,2.62-5.176c0.607-2.088,0.898-4.594,0.873-7.504L1888.151,852.341z M1880.217,864.553
					c-0.24,1.19-0.569,2.164-1.012,2.898c-0.456,0.747-1.012,1.278-1.683,1.594c-0.671,0.329-1.43,0.494-2.278,0.506
					c-0.86,0.013-1.62-0.152-2.303-0.456c-0.671-0.316-1.24-0.835-1.708-1.569c-0.469-0.734-0.835-1.696-1.101-2.885
					c-0.253-1.177-0.392-2.645-0.405-4.378l-0.089-8.846c-0.013-1.721,0.089-3.164,0.329-4.341c0.228-1.177,0.569-2.113,1.025-2.847
					c0.456-0.721,1.012-1.24,1.67-1.569c0.658-0.329,1.418-0.494,2.278-0.494c0.848-0.013,1.607,0.139,2.291,0.456
					c0.671,0.316,1.253,0.823,1.734,1.544c0.468,0.709,0.835,1.645,1.089,2.822c0.253,1.164,0.38,2.607,0.392,4.328l0.089,8.846
					C1880.546,861.896,1880.444,863.363,1880.217,864.553z"/>
				<path style="fill:#FFFFFF;" d="M1919.42,852.05c-0.025-2.911-0.367-5.404-1.025-7.479c-0.658-2.075-1.569-3.784-2.734-5.112
					c-1.164-1.329-2.556-2.303-4.163-2.91c-1.62-0.62-3.391-0.924-5.353-0.898c-1.949,0.013-3.72,0.342-5.315,0.987
					c-1.582,0.645-2.948,1.645-4.087,2.999c-1.151,1.341-2.025,3.062-2.632,5.163c-0.608,2.088-0.899,4.581-0.873,7.491l0.063,6.745
					c0.025,2.911,0.367,5.403,1.025,7.479s1.569,3.784,2.733,5.125c1.164,1.341,2.556,2.316,4.163,2.936
					c1.607,0.607,3.391,0.911,5.353,0.886c1.949-0.013,3.72-0.342,5.327-0.987c1.595-0.645,2.961-1.645,4.087-3.012
					c1.139-1.354,2.012-3.075,2.62-5.176c0.607-2.088,0.898-4.581,0.873-7.491L1919.42,852.05z M1911.486,864.262
					c-0.228,1.202-0.57,2.164-1.012,2.898c-0.443,0.747-1,1.278-1.671,1.607c-0.683,0.316-1.443,0.493-2.291,0.493
					c-0.848,0.013-1.62-0.139-2.29-0.456c-0.683-0.316-1.253-0.835-1.721-1.569c-0.468-0.734-0.835-1.696-1.089-2.873
					c-0.266-1.19-0.405-2.657-0.417-4.391l-0.076-8.833c-0.026-1.721,0.089-3.176,0.316-4.353c0.228-1.164,0.569-2.113,1.025-2.835
					c0.455-0.721,1.012-1.253,1.67-1.582c0.671-0.316,1.43-0.481,2.278-0.493c0.848-0.013,1.62,0.139,2.291,0.456
					c0.683,0.316,1.253,0.823,1.734,1.544c0.481,0.709,0.835,1.658,1.088,2.822c0.253,1.177,0.38,2.62,0.405,4.341l0.076,8.833
					C1911.815,861.617,1911.714,863.072,1911.486,864.262z"/>
				<path style="fill:#FFFFFF;" d="M1950.702,851.772c-0.025-2.91-0.367-5.403-1.025-7.491c-0.658-2.075-1.569-3.784-2.733-5.112
					c-1.177-1.329-2.556-2.303-4.176-2.911c-1.607-0.62-3.392-0.911-5.34-0.898c-1.949,0.013-3.721,0.354-5.315,1
					c-0.759,0.304-1.468,0.696-2.126,1.152c-0.721,0.519-1.38,1.126-1.974,1.835c-1.139,1.354-2.012,3.075-2.632,5.163
					c-0.607,2.088-0.898,4.594-0.873,7.504l0.063,6.732c0.025,2.911,0.367,5.404,1.025,7.479c0.658,2.088,1.569,3.796,2.733,5.125
					c1.164,1.341,2.556,2.316,4.176,2.936c0.595,0.228,1.202,0.405,1.835,0.544c1.101,0.24,2.278,0.367,3.505,0.354
					c1.949-0.025,3.733-0.354,5.328-1c1.594-0.645,2.961-1.645,4.1-2.999c1.126-1.367,2-3.088,2.607-5.176
					c0.62-2.101,0.911-4.594,0.886-7.504L1950.702,851.772z M1942.755,863.984c-0.228,1.189-0.557,2.151-1.012,2.898
					c-0.443,0.734-1,1.265-1.671,1.594s-1.43,0.494-2.278,0.506c-0.86,0-1.62-0.152-2.303-0.468
					c-0.139-0.063-0.278-0.139-0.405-0.228c-0.506-0.304-0.949-0.759-1.316-1.341c-0.468-0.721-0.823-1.683-1.088-2.873
					c-0.253-1.189-0.392-2.645-0.405-4.391l-0.089-8.833c-0.013-1.721,0.089-3.164,0.316-4.34c0.051-0.228,0.089-0.443,0.152-0.645
					c0.215-0.886,0.506-1.62,0.873-2.202c0.455-0.721,1.025-1.253,1.683-1.569c0.658-0.329,1.417-0.494,2.265-0.506
					c0.86,0,1.62,0.152,2.303,0.456c0.671,0.316,1.253,0.835,1.721,1.544c0.481,0.721,0.848,1.658,1.101,2.822
					c0.24,1.177,0.38,2.62,0.392,4.341l0.089,8.833C1943.097,861.326,1942.983,862.794,1942.755,863.984z"/>
				<path style="fill:#FFFFFF;" d="M2007.04,851.772c-0.025-2.91-0.367-5.403-1.025-7.491c-0.658-2.075-1.582-3.784-2.746-5.112
					c-1.164-1.329-2.556-2.303-4.163-2.911c-1.607-0.62-3.392-0.911-5.34-0.898c-1.962,0.013-3.733,0.354-5.315,1
					c-1.594,0.645-2.961,1.633-4.1,2.987c-1.139,1.354-2.025,3.075-2.632,5.163c-0.607,2.088-0.899,4.594-0.873,7.504l0.063,6.732
					c0.025,2.911,0.367,5.404,1.025,7.479c0.658,2.088,1.569,3.796,2.733,5.125c1.164,1.341,2.556,2.316,4.163,2.936
					c1.62,0.607,3.404,0.911,5.353,0.898c1.949-0.025,3.72-0.354,5.327-1c1.595-0.645,2.961-1.645,4.1-2.999
					c1.126-1.367,2-3.088,2.607-5.176c0.62-2.101,0.911-4.594,0.886-7.504L2007.04,851.772z M1999.093,863.984
					c-0.228,1.189-0.557,2.151-1.012,2.898c-0.443,0.734-1,1.265-1.671,1.594c-0.671,0.329-1.43,0.494-2.291,0.506
					c-0.848,0-1.607-0.152-2.29-0.468c-0.67-0.304-1.253-0.835-1.721-1.569c-0.468-0.721-0.823-1.683-1.088-2.873
					c-0.253-1.189-0.392-2.645-0.418-4.391l-0.076-8.833c-0.013-1.721,0.089-3.164,0.316-4.34c0.228-1.177,0.569-2.126,1.025-2.847
					c0.455-0.721,1.012-1.253,1.683-1.569c0.658-0.329,1.417-0.494,2.265-0.506c0.861,0,1.62,0.152,2.291,0.456
					c0.683,0.316,1.265,0.835,1.734,1.544c0.481,0.721,0.848,1.658,1.101,2.822c0.24,1.177,0.38,2.62,0.392,4.341l0.076,8.833
					C1999.435,861.326,1999.321,862.794,1999.093,863.984z"/>
				<path style="fill:#FFFFFF;" d="M2038.31,851.481c-0.025-2.91-0.367-5.404-1.025-7.479c-0.658-2.088-1.569-3.784-2.734-5.112
					c-1.164-1.329-2.556-2.303-4.163-2.923c-1.62-0.607-3.404-0.911-5.353-0.898c-1.949,0.025-3.721,0.354-5.315,1
					c-1.594,0.645-2.961,1.645-4.1,2.986c-1.139,1.354-2.012,3.075-2.62,5.163c-0.62,2.101-0.911,4.594-0.886,7.504l0.063,6.732
					c0.025,2.911,0.367,5.404,1.025,7.491c0.658,2.075,1.569,3.784,2.746,5.125c1.164,1.329,2.556,2.316,4.163,2.923
					c1.607,0.62,3.391,0.911,5.34,0.898s3.733-0.354,5.328-1c1.607-0.645,2.974-1.645,4.1-2.999c1.139-1.367,1.999-3.088,2.62-5.176
					c0.607-2.088,0.898-4.594,0.873-7.504L2038.31,851.481z M2030.375,863.693c-0.228,1.19-0.569,2.151-1.012,2.898
					c-0.443,0.747-1.012,1.278-1.683,1.595c-0.671,0.329-1.43,0.494-2.278,0.506c-0.86,0-1.62-0.152-2.29-0.456
					c-0.683-0.316-1.253-0.835-1.721-1.569c-0.468-0.734-0.835-1.696-1.088-2.885c-0.266-1.177-0.405-2.645-0.418-4.379
					l-0.089-8.845c-0.013-1.721,0.101-3.164,0.329-4.341c0.228-1.177,0.569-2.126,1.025-2.847c0.456-0.721,1.012-1.24,1.67-1.569
					c0.671-0.329,1.417-0.494,2.278-0.494c0.848-0.013,1.607,0.139,2.291,0.456c0.671,0.304,1.253,0.823,1.734,1.544
					c0.468,0.709,0.835,1.645,1.088,2.822c0.253,1.164,0.38,2.607,0.392,4.328l0.089,8.845
					C2030.704,861.035,2030.603,862.503,2030.375,863.693z"/>
				<path style="fill:#FFFFFF;" d="M2069.592,851.19c-0.038-2.911-0.38-5.404-1.038-7.479c-0.658-2.075-1.569-3.784-2.733-5.112
					c-1.165-1.329-2.556-2.303-4.164-2.923c-1.607-0.607-3.391-0.911-5.34-0.886c-1.961,0.013-3.733,0.342-5.315,0.987
					c-1.594,0.645-2.961,1.645-4.1,2.999c-1.139,1.341-2.025,3.062-2.632,5.163c-0.607,2.088-0.899,4.581-0.873,7.491l0.063,6.732
					c0.025,2.911,0.367,5.416,1.025,7.491c0.658,2.075,1.569,3.784,2.733,5.125c1.164,1.341,2.556,2.316,4.163,2.923
					c1.62,0.62,3.392,0.924,5.353,0.898c1.949-0.013,3.72-0.342,5.328-0.987c1.594-0.645,2.961-1.645,4.1-3.012
					c1.126-1.354,2-3.088,2.607-5.176s0.911-4.594,0.873-7.504L2069.592,851.19z M2061.645,863.401
					c-0.228,1.189-0.569,2.164-1.012,2.898c-0.443,0.747-1,1.278-1.67,1.607c-0.67,0.316-1.43,0.494-2.29,0.494
					c-0.848,0.013-1.607-0.139-2.291-0.456c-0.683-0.316-1.253-0.835-1.721-1.569c-0.468-0.734-0.835-1.696-1.088-2.873
					c-0.266-1.19-0.393-2.657-0.418-4.391l-0.076-8.846c-0.013-1.721,0.089-3.164,0.316-4.341c0.228-1.164,0.57-2.113,1.025-2.835
					c0.456-0.734,1.012-1.253,1.683-1.582c0.658-0.316,1.417-0.493,2.265-0.493c0.848-0.013,1.62,0.139,2.29,0.456
					c0.683,0.316,1.253,0.822,1.734,1.544c0.481,0.709,0.848,1.658,1.088,2.822c0.253,1.164,0.392,2.62,0.405,4.341l0.076,8.833
					C2061.986,860.744,2061.872,862.212,2061.645,863.401z"/>
				<path style="fill:#FFFFFF;" d="M2100.861,850.911c-0.025-2.911-0.367-5.404-1.025-7.491c-0.658-2.075-1.569-3.784-2.733-5.112
					c-1.164-1.329-2.556-2.303-4.176-2.911c-1.607-0.62-3.391-0.911-5.34-0.898c-1.949,0.013-3.72,0.354-5.315,0.987
					c-1.594,0.645-2.961,1.645-4.1,2.999s-2.012,3.075-2.619,5.163c-0.62,2.088-0.911,4.594-0.886,7.504l0.063,6.732
					c0.025,2.911,0.367,5.404,1.025,7.479c0.658,2.088,1.569,3.796,2.733,5.125c1.177,1.341,2.556,2.316,4.176,2.936
					c1.607,0.607,3.392,0.911,5.34,0.898c1.949-0.025,3.733-0.354,5.328-1c1.607-0.645,2.974-1.645,4.1-3.012
					c1.139-1.354,1.999-3.075,2.619-5.163c0.607-2.101,0.898-4.594,0.873-7.504L2100.861,850.911z M2092.927,863.123
					c-0.24,1.19-0.569,2.151-1.012,2.898c-0.456,0.734-1.013,1.265-1.683,1.594c-0.671,0.329-1.43,0.494-2.278,0.494
					c-0.86,0.013-1.62-0.139-2.303-0.456c-0.671-0.316-1.24-0.835-1.708-1.569c-0.468-0.721-0.835-1.683-1.101-2.872
					c-0.253-1.19-0.393-2.645-0.405-4.391l-0.088-8.833c-0.013-1.721,0.101-3.176,0.329-4.341c0.228-1.177,0.57-2.126,1.025-2.847
					s1.012-1.253,1.67-1.569c0.658-0.329,1.417-0.494,2.278-0.506c0.848,0,1.607,0.152,2.291,0.456
					c0.67,0.316,1.253,0.835,1.734,1.544c0.468,0.721,0.835,1.658,1.088,2.822c0.253,1.177,0.379,2.62,0.392,4.341l0.089,8.833
					C2093.256,860.466,2093.154,861.921,2092.927,863.123z"/>
				<path style="fill:#FFFFFF;" d="M2161.033,850.38c-0.025-2.607-0.304-4.872-0.835-6.808v-0.013
					c-0.051-0.228-0.126-0.443-0.19-0.658c-0.658-2.088-1.569-3.784-2.733-5.113c-1.164-1.329-2.556-2.303-4.163-2.923
					c-1.62-0.607-3.391-0.911-5.353-0.898c-1.949,0.025-3.721,0.354-5.315,1c-1.582,0.645-2.948,1.645-4.1,2.986
					c-1.139,1.354-2.012,3.075-2.619,5.163c-0.101,0.329-0.19,0.683-0.266,1.038c-0.43,1.873-0.646,4.024-0.607,6.466l0.051,6.732
					c0.038,2.911,0.38,5.404,1.038,7.492c0.658,2.075,1.569,3.784,2.733,5.125c1.164,1.329,2.556,2.316,4.163,2.923
					c1.607,0.62,3.392,0.911,5.34,0.898c1.962-0.013,3.733-0.354,5.328-0.987c1.607-0.645,2.974-1.658,4.1-3.012
					c1.139-1.354,2.012-3.088,2.619-5.176c0.607-2.088,0.898-4.594,0.873-7.504L2161.033,850.38z M2153.099,862.591
					c-0.228,1.19-0.57,2.164-1.012,2.898c-0.443,0.747-1,1.278-1.683,1.595c-0.67,0.329-1.43,0.493-2.278,0.506
					c-0.848,0.013-1.62-0.139-2.29-0.456c-0.683-0.316-1.253-0.835-1.721-1.569c-0.468-0.734-0.835-1.696-1.088-2.885
					c-0.266-1.177-0.405-2.645-0.417-4.378l-0.076-8.845c-0.025-1.721,0.089-3.164,0.316-4.341s0.569-2.113,1.025-2.847
					c0.456-0.721,1.012-1.24,1.67-1.569c0.164-0.089,0.342-0.152,0.519-0.215c0.531-0.19,1.126-0.278,1.759-0.278
					c0.417,0,0.81,0.025,1.189,0.101h0.025c0.392,0.076,0.734,0.19,1.076,0.354c0.683,0.316,1.253,0.823,1.734,1.544
					c0.481,0.709,0.835,1.658,1.088,2.822c0.253,1.164,0.38,2.607,0.405,4.328l0.076,8.845
					C2153.428,859.934,2153.327,861.402,2153.099,862.591z"/>
				<path style="fill:#FFFFFF;" d="M2192.315,850.089c-0.025-2.911-0.367-5.404-1.025-7.479c-0.658-2.075-1.569-3.784-2.746-5.112
					c-1.164-1.329-2.543-2.303-4.163-2.911c-1.607-0.62-3.391-0.924-5.34-0.898c-1.962,0.013-3.72,0.342-5.315,0.987
					c-1.594,0.645-2.961,1.645-4.1,2.999c-0.506,0.607-0.975,1.278-1.379,2.037c-0.494,0.924-0.924,1.974-1.253,3.126
					c-0.329,1.126-0.557,2.354-0.696,3.72c-0.139,1.164-0.19,2.43-0.177,3.771l0.063,6.745c0.025,2.911,0.367,5.404,1.025,7.479
					c0.658,2.075,1.569,3.784,2.733,5.125c1.164,1.341,2.556,2.316,4.163,2.936c1.62,0.607,3.404,0.911,5.353,0.886
					c1.949-0.013,3.72-0.342,5.328-0.987c1.594-0.645,2.961-1.645,4.1-3.012c1.126-1.354,1.999-3.075,2.607-5.176
					c0.62-2.088,0.911-4.581,0.886-7.492L2192.315,850.089z M2184.368,862.3c-0.228,1.202-0.557,2.164-1.012,2.898
					c-0.443,0.746-1,1.278-1.67,1.607c-0.671,0.316-1.43,0.494-2.291,0.494c-0.848,0.013-1.607-0.139-2.291-0.456
					c-0.671-0.316-1.253-0.835-1.721-1.569c-0.468-0.734-0.822-1.683-1.088-2.873c-0.253-1.189-0.393-2.657-0.405-4.391
					l-0.089-8.833c-0.013-1.721,0.089-3.176,0.316-4.34c0.228-1.177,0.57-2.126,1.025-2.847c0.456-0.721,1.012-1.253,1.683-1.582
					c0.658-0.316,1.417-0.481,2.265-0.493c0.861-0.013,1.62,0.139,2.303,0.456c0.671,0.316,1.253,0.823,1.721,1.544
					c0.481,0.709,0.848,1.658,1.101,2.822c0.24,1.177,0.38,2.62,0.392,4.341l0.089,8.833
					C2184.71,859.656,2184.596,861.111,2184.368,862.3z"/>
				<path style="fill:#FFFFFF;" d="M2223.585,849.81c-0.025-2.911-0.367-5.403-1.025-7.491c-0.658-2.075-1.569-3.784-2.733-5.112
					c-1.164-1.329-2.556-2.303-4.163-2.911c-1.62-0.62-3.404-0.911-5.353-0.898c-1.949,0.013-3.72,0.354-5.315,1
					c-1.594,0.645-2.948,1.632-4.1,2.987c-1.139,1.354-2.012,3.075-2.62,5.163c-0.62,2.088-0.911,4.594-0.885,7.504l0.063,6.732
					c0.025,2.911,0.38,5.404,1.038,7.479c0.658,2.088,1.569,3.796,2.734,5.125c1.164,1.341,2.556,2.316,4.163,2.936
					c1.607,0.607,3.391,0.911,5.34,0.898c1.962-0.025,3.733-0.354,5.328-1c1.607-0.645,2.974-1.645,4.1-2.999
					c1.139-1.367,2.012-3.088,2.619-5.176c0.607-2.101,0.899-4.594,0.873-7.504L2223.585,849.81z M2215.65,862.022
					c-0.228,1.19-0.569,2.151-1.012,2.898c-0.443,0.734-1.012,1.266-1.683,1.594s-1.43,0.493-2.278,0.506
					c-0.848,0-1.62-0.152-2.291-0.468c-0.683-0.304-1.253-0.835-1.721-1.569c-0.468-0.721-0.835-1.683-1.088-2.872
					c-0.266-1.19-0.405-2.645-0.418-4.391l-0.076-8.833c-0.025-1.721,0.088-3.164,0.316-4.341c0.228-1.177,0.57-2.126,1.025-2.847
					s1.012-1.253,1.67-1.569c0.671-0.329,1.417-0.493,2.278-0.506c0.848,0,1.607,0.152,2.291,0.456
					c0.683,0.316,1.253,0.835,1.734,1.544c0.468,0.721,0.835,1.658,1.088,2.822c0.253,1.177,0.38,2.62,0.405,4.341l0.076,8.833
					C2215.979,859.365,2215.878,860.833,2215.65,862.022z"/>
				<path style="fill:#FFFFFF;" d="M2254.866,849.519c-0.025-2.911-0.38-5.404-1.025-7.479c-0.67-2.088-1.582-3.784-2.746-5.112
					s-2.556-2.303-4.163-2.923c-1.607-0.607-3.391-0.911-5.34-0.898c-1.962,0.025-3.733,0.354-5.315,1
					c-1.594,0.645-2.961,1.645-4.1,2.986c-1.139,1.354-2.025,3.075-2.632,5.163c-0.607,2.101-0.898,4.594-0.873,7.504l0.063,6.732
					c0.025,2.911,0.367,5.404,1.025,7.492c0.658,2.075,1.569,3.784,2.733,5.125c1.164,1.329,2.556,2.316,4.163,2.923
					c1.62,0.62,3.404,0.911,5.353,0.898c1.948-0.013,3.72-0.354,5.327-1c1.594-0.645,2.961-1.645,4.1-2.999
					c1.126-1.367,2-3.088,2.607-5.176c0.62-2.088,0.911-4.594,0.886-7.504L2254.866,849.519z M2246.919,861.731
					c-0.228,1.189-0.569,2.151-1.012,2.898c-0.443,0.747-1,1.278-1.67,1.594c-0.671,0.329-1.43,0.493-2.291,0.506
					c-0.848,0-1.607-0.152-2.291-0.456c-0.671-0.316-1.253-0.835-1.721-1.569c-0.468-0.734-0.823-1.696-1.088-2.885
					c-0.253-1.177-0.392-2.645-0.418-4.378l-0.076-8.846c-0.013-1.721,0.088-3.164,0.316-4.34c0.228-1.177,0.57-2.126,1.025-2.847
					c0.456-0.721,1.012-1.24,1.683-1.569c0.658-0.329,1.417-0.493,2.265-0.493c0.86-0.013,1.62,0.139,2.291,0.456
					c0.683,0.304,1.265,0.823,1.734,1.544c0.481,0.709,0.848,1.645,1.088,2.822c0.253,1.164,0.392,2.607,0.405,4.328l0.076,8.846
					C2247.261,859.073,2247.147,860.542,2246.919,861.731z"/>
			</g>
		</g>
		<g>
			<path style="fill:#F7B686;" d="M2031.375,905.465c4.755,26.71,59.661,67.619,127.997,75.202
				c68.322,7.573,33.223,238.786,147.76,246.693c114.548,7.893,188.001-106.546,188.001-106.546s-24.543-153.346-114.216-201.873
				c-69.993-37.886-186.431-24.905-253.036-29.84c-3.705-0.277-7.308-0.546-10.811-0.819c-39.118-3.034-65.768-5.555-78.172,0.245
				C2032.432,891.534,2029.833,896.814,2031.375,905.465z"/>
			<g>
				<path style="fill:#EA9F75;" d="M2369.507,1199.275c-32.816,0-90.068-7.099-129.978-51.097
					c-31.475-34.71-45.716-116.927-46.305-120.407c-0.403-2.38,1.202-4.641,3.577-5.044c2.417-0.361,4.641,1.202,5.044,3.577
					c0.138,0.83,14.403,83.191,44.165,116.007c54.547,60.144,146.888,46.889,147.795,46.726c2.423-0.295,4.623,1.275,4.983,3.661
					s-1.28,4.617-3.661,4.983C2393.901,1197.868,2384.126,1199.275,2369.507,1199.275z"/>
			</g>
			<path style="fill:#EA9F75;" d="M2038.899,888.527c-7.809,10.094,12.124,22.858,41.05,23.473
				c19.975,0.424,23.341-24.213,22.681-24.843C2063.513,884.122,2051.303,882.728,2038.899,888.527z"/>
		</g>
		<path style="fill:#F0F7F6;" d="M2613.928,1269.816l87.113,176.613l-330.283,161.218l-54.404,12.379
			c0,0-53.266-177.657-45.428-189.631c7.837-11.974,116.194-27.556,197.621-75.76
			C2549.974,1306.431,2605.497,1250.422,2613.928,1269.816z"/>
		<path style="fill:#436E8E;" d="M2783.282,1539.166c0,37.894,0.74,57.073-3.505,86.14
			c-23.234,158.916-159.207,264.796-320.438,287.815c-23.907,3.425-49.727,6.498-75.763,8.922
			c-8.234-32.842-67.221-267.836-67.221-302.013c-5.386-82.58,138.314-61.065,226.326-101.768
			c88.036-40.655,135.403-117.959,162.497-101.932C2712.733,1420.821,2743.218,1470.224,2783.282,1539.166z"/>
		<g>
			<path style="fill:#DEEBE9;" d="M2637.811,1429.466c0.641-15.172-7.797-23.011-18.786-31.671
				c-8.539-6.729-14.999-14.975-17.548-25.738c-2.649-11.184,1.773-24.566-4.502-34.705c-5.347-8.638-15.375-13.574-21.492-21.747
				c-3.343-4.467,3.836-9.299,7.162-4.855c6.387,8.534,16.648,13.459,22.146,22.755c6.426,10.866,2.563,23.208,4.778,34.928
				c2.857,15.117,14.333,20.822,24.593,30.36c8.537,7.937,12.778,18.559,12.287,30.172
				C2646.216,1434.47,2637.575,1435.041,2637.811,1429.466L2637.811,1429.466z"/>
		</g>
		<g>
			<path style="fill:#DEEBE9;" d="M2577.451,1464.147c4.89-22.664-27.505-32.95-36.659-49.86c-4.763-8.8-4.377-18.252-4.096-27.968
				c0.272-9.411-0.279-23.638-11.682-26.323c-5.407-1.273-3.701-9.756,1.738-8.475c8.753,2.062,14.27,8.669,16.903,17.096
				c4.076,13.044-1.801,27.548,4.028,40.062c9.811,21.062,44.427,28.547,38.244,57.206
				C2584.753,1471.321,2576.273,1469.607,2577.451,1464.147L2577.451,1464.147z"/>
		</g>
		<g>
			<path style="fill:#DEEBE9;" d="M2508.993,1513.6c5.858-15.504,1.588-32.628-10.608-43.746
				c-9.445-8.61-21.786-14.436-27.87-26.238c-6.482-12.572-0.051-28.945-8.089-40.524c-7.228-10.412-22.486-13.296-32.063-21.236
				c-4.297-3.563,1.39-10.083,5.673-6.532c10.706,8.877,26.345,11.575,34.163,23.894c9.16,14.434,0.194,33.364,12.342,46.569
				c10.087,10.965,24.304,16.658,31.761,30.199c7.093,12.88,7.589,27.837,2.448,41.443
				C2514.781,1522.641,2507.04,1518.77,2508.993,1513.6L2508.993,1513.6z"/>
		</g>
		<g>
			<path style="fill:#DEEBE9;" d="M2421.002,1531.835c0.774-7.452,0.965-15.023,0.142-22.486
				c-1.022-9.274-3.953-13.11-12.424-16.967c-9.564-4.354-18.042-8.841-23.785-18.082c-2.668-4.294-4.545-9.028-5.495-13.994
				c-1.543-8.069,0.117-16.554-7.516-21.87c-4.71-3.28-8.071-6.273-11.163-11.214c-3.62-5.785-6.803-14.725-15.123-13.962
				c-5.541,0.509-6.048-8.128-0.499-8.638c15.986-1.467,18.046,15.286,27.451,23.766c5.096,4.595,10.666,6.366,13.088,13.424
				c2.679,7.807,0.986,16.222,4.436,23.938c3.611,8.077,10.156,13.42,18.045,16.983c5.422,2.448,11.192,4.511,15.414,8.889
				c9.584,9.939,7.198,29.472,5.902,41.95C2428.903,1539.103,2420.431,1537.338,2421.002,1531.835L2421.002,1531.835z"/>
		</g>
		<g>
			<path style="fill:#DEEBE9;" d="M2300.579,1422.056c-9.287,13.201,8.677,27.318,16.442,35.861
				c8.635,9.501,12.052,19.452,11.589,32.182c-0.51,14.029-3.26,26.679,6.083,38.655c7.298,9.354,16.197,16.497,17.911,28.932
				c0.759,5.508-7.88,5.995-8.638,0.499c-1.968-14.279-17.731-22.108-22.708-35.295c-4.882-12.934-0.166-26.541-1.36-39.823
				c-2.088-23.228-44.45-40.247-25.851-66.683C2297.254,1411.825,2303.753,1417.544,2300.579,1422.056L2300.579,1422.056z"/>
		</g>
		<g>
			<path style="fill:#EA9F75;" d="M2062.275,1125.797c15.619-8.221,27.083-21.866,32.725-38.563
				c1.306-3.866-4.803-5.525-6.101-1.682c-5.13,15.182-15.66,27.33-29.817,34.782
				C2055.477,1122.23,2058.671,1127.693,2062.275,1125.797L2062.275,1125.797z"/>
		</g>
		<g>
			<path style="fill:#EA9F75;" d="M2090.731,1113.377c-9.482,3.43-19.158,5.253-29.245,5.422c-4.067,0.068-4.08,6.396,0,6.327
				c10.633-0.178,20.921-2.028,30.927-5.648C2096.213,1118.104,2094.573,1111.987,2090.731,1113.377L2090.731,1113.377z"/>
		</g>
		<g>
			<path style="fill:#EA9F75;" d="M2298.251,896.333c38.961,14.587,73.796,41.452,108.622,63.788
				c3.438,2.205,6.614-3.27,3.194-5.463c-35.467-22.748-70.443-49.567-110.134-64.426
				C2296.115,888.802,2294.466,894.916,2298.251,896.333L2298.251,896.333z"/>
		</g>
		<g>
			<path style="fill:#EA9F75;" d="M2148.065,1264.968c30.835,30.452,73.594,27.208,113.459,21.947c3.979-0.525,4.031-6.859,0-6.327
				c-37.898,5.002-79.423,9.1-108.985-20.094C2149.639,1257.63,2145.162,1262.101,2148.065,1264.968L2148.065,1264.968z"/>
		</g>
	</g>
	<g>
		<path style="fill:#FFFFFF;" d="M436.753,1219.705c0,0,17.716,62.007,69.6,58.211l142.996-58.211v-59.476L436.753,1219.705z"/>
		<path style="fill:#B2C9C6;" d="M588.137,453.62c0,0-218.452,49.555-79.253,333.158s98.688,453.174-2.531,491.138l527.016-129.076
			L891.051,569.262L747.933,462.964L588.137,453.62z"/>
		<path style="fill:#2F1A31;" d="M1470.921,1645.872l-399.03,109.678c-70.9,19.488-144.173-22.19-163.661-93.09L668.462,790.138
			c-19.488-70.9,22.19-144.173,93.09-163.661l399.03-109.678c70.9-19.488,144.173,22.19,163.661,93.09l239.769,872.323
			C1583.498,1553.111,1541.821,1626.384,1470.921,1645.872z"/>
		<path style="fill:#6F4975;" d="M1550.083,1624.113l-399.03,109.678c-70.9,19.488-144.173-22.19-163.661-93.09L747.624,768.379
			c-19.488-70.9,22.19-144.173,93.09-163.661l399.03-109.678c70.9-19.488,144.173,22.19,163.661,93.09l239.768,872.323
			C1662.66,1531.352,1620.983,1604.625,1550.083,1624.113z"/>
		
			<rect x="881.853" y="747.228" transform="matrix(0.9642 -0.265 0.265 0.9642 -194.7612 333.9253)" style="fill:#2F1A31;" width="516.356" height="282.904"/>
		
			<rect x="869.651" y="750.582" transform="matrix(0.9642 -0.265 0.265 0.9642 -196.0866 330.8116)" style="fill:#DEEBE9;" width="516.356" height="282.904"/>
		<g>
			<g>
				<path style="fill:#2F1A31;" d="M1078.146,1218.755l-92.176,25.336c-14.957,4.111-30.414-4.681-34.525-19.638l-8.522-31.003
					c-4.111-14.957,4.681-30.414,19.638-34.525l92.176-25.336c14.957-4.111,30.414,4.681,34.525,19.638l8.522,31.003
					C1101.895,1199.187,1093.103,1214.644,1078.146,1218.755z"/>
				<path style="fill:#2F1A31;" d="M1253.922,1170.441l-92.176,25.336c-14.957,4.111-30.414-4.681-34.525-19.638l-8.522-31.003
					c-4.111-14.957,4.681-30.414,19.638-34.525l92.176-25.336c14.957-4.111,30.414,4.681,34.525,19.638l8.522,31.003
					C1277.671,1150.872,1268.879,1166.33,1253.922,1170.441z"/>
				<path style="fill:#2F1A31;" d="M1429.698,1122.127l-92.176,25.336c-14.957,4.111-30.414-4.681-34.525-19.638l-8.522-31.003
					c-4.111-14.957,4.681-30.414,19.638-34.525l92.176-25.336c14.957-4.111,30.414,4.681,34.525,19.638l8.522,31.003
					C1453.447,1102.558,1444.655,1118.016,1429.698,1122.127z"/>
			</g>
			<g>
				<path style="fill:#2F1A31;" d="M1112.973,1345.463l-92.176,25.336c-14.957,4.111-30.414-4.681-34.525-19.638l-8.522-31.003
					c-4.111-14.957,4.681-30.414,19.638-34.525l92.176-25.336c14.957-4.111,30.414,4.681,34.525,19.638l8.522,31.003
					C1136.722,1325.894,1127.93,1341.352,1112.973,1345.463z"/>
				<path style="fill:#2F1A31;" d="M1288.749,1297.149l-92.176,25.336c-14.957,4.111-30.414-4.681-34.525-19.638l-8.522-31.003
					c-4.111-14.957,4.681-30.414,19.638-34.525l92.176-25.336c14.957-4.111,30.414,4.681,34.525,19.638l8.522,31.003
					C1312.498,1277.58,1303.706,1293.038,1288.749,1297.149z"/>
				<path style="fill:#2F1A31;" d="M1464.526,1248.834l-92.176,25.336c-14.957,4.111-30.414-4.681-34.525-19.638l-8.522-31.003
					c-4.111-14.957,4.681-30.414,19.638-34.525l92.176-25.336c14.957-4.111,30.414,4.681,34.525,19.638l8.522,31.003
					C1488.274,1229.266,1479.482,1244.723,1464.526,1248.834z"/>
			</g>
			<g>
				<path style="fill:#2F1A31;" d="M1147.801,1472.171l-92.176,25.336c-14.957,4.111-30.414-4.681-34.525-19.638l-8.522-31.003
					c-4.111-14.957,4.681-30.414,19.638-34.525l92.176-25.336c14.957-4.111,30.414,4.681,34.525,19.638l8.522,31.003
					C1171.549,1452.602,1162.757,1468.06,1147.801,1472.171z"/>
				<path style="fill:#2F1A31;" d="M1323.577,1423.856l-92.176,25.336c-14.957,4.111-30.414-4.681-34.525-19.638l-8.522-31.003
					c-4.111-14.957,4.681-30.414,19.638-34.525l92.176-25.336c14.957-4.111,30.414,4.681,34.525,19.638l8.522,31.003
					C1347.325,1404.288,1338.533,1419.745,1323.577,1423.856z"/>
				<path style="fill:#2F1A31;" d="M1499.353,1375.542l-92.176,25.336c-14.957,4.111-30.414-4.681-34.525-19.638l-8.522-31.003
					c-4.111-14.957,4.681-30.414,19.638-34.525l92.176-25.336c14.957-4.111,30.414,4.681,34.525,19.638l8.522,31.003
					C1523.101,1355.974,1514.309,1371.431,1499.353,1375.542z"/>
			</g>
			<g>
				<path style="fill:#BCBF80;" d="M1182.628,1598.879l-92.176,25.336c-14.957,4.111-30.414-4.681-34.525-19.638l-8.522-31.003
					c-4.111-14.957,4.681-30.414,19.638-34.525l92.176-25.336c14.957-4.111,30.414,4.681,34.525,19.638l8.522,31.003
					C1206.377,1579.31,1197.584,1594.767,1182.628,1598.879z"/>
				<path style="fill:#629FB7;" d="M1358.404,1550.564l-92.176,25.336c-14.957,4.111-30.414-4.681-34.525-19.638l-8.522-31.003
					c-4.111-14.957,4.681-30.414,19.638-34.525l92.176-25.336c14.957-4.111,30.414,4.681,34.525,19.638l8.522,31.003
					C1382.153,1530.996,1373.36,1546.453,1358.404,1550.564z"/>
				<path style="fill:#CC6E58;" d="M1534.18,1502.25l-92.176,25.336c-14.957,4.111-30.414-4.681-34.525-19.638l-8.522-31.003
					c-4.111-14.957,4.681-30.414,19.638-34.525l92.176-25.336c14.957-4.111,30.414,4.681,34.525,19.638l8.522,31.003
					C1557.929,1482.682,1549.137,1498.139,1534.18,1502.25z"/>
			</g>
		</g>
		<g>
			<path style="fill:#DEEBE9;" d="M1096.856,1213.612l-92.176,25.336c-14.957,4.111-30.414-4.681-34.525-19.638l-8.522-31.003
				c-4.111-14.957,4.681-30.414,19.638-34.525l92.176-25.336c14.957-4.111,30.414,4.681,34.525,19.638l8.522,31.003
				C1120.605,1194.044,1111.813,1209.501,1096.856,1213.612z"/>
			<path style="fill:#DEEBE9;" d="M1272.632,1165.298l-92.176,25.336c-14.957,4.111-30.414-4.681-34.525-19.638l-8.522-31.003
				c-4.111-14.957,4.681-30.414,19.638-34.525l92.176-25.336c14.957-4.111,30.414,4.681,34.525,19.638l8.522,31.003
				C1296.381,1145.73,1287.589,1161.187,1272.632,1165.298z"/>
			<path style="fill:#DEEBE9;" d="M1448.408,1116.984l-92.176,25.336c-14.957,4.111-30.414-4.681-34.525-19.638l-8.522-31.003
				c-4.111-14.957,4.681-30.414,19.638-34.525l92.176-25.336c14.957-4.111,30.414,4.681,34.525,19.638l8.522,31.003
				C1472.157,1097.416,1463.365,1112.873,1448.408,1116.984z"/>
		</g>
		<g>
			<path style="fill:#DEEBE9;" d="M1131.683,1340.32l-92.176,25.336c-14.957,4.111-30.414-4.681-34.525-19.638l-8.522-31.003
				c-4.111-14.957,4.681-30.414,19.638-34.525l92.176-25.336c14.957-4.111,30.414,4.681,34.525,19.638l8.522,31.003
				C1155.432,1320.752,1146.64,1336.209,1131.683,1340.32z"/>
			<path style="fill:#DEEBE9;" d="M1307.459,1292.006l-92.176,25.336c-14.957,4.111-30.414-4.681-34.525-19.638l-8.522-31.003
				c-4.111-14.957,4.681-30.414,19.638-34.525l92.176-25.336c14.957-4.111,30.414,4.681,34.525,19.638l8.522,31.003
				C1331.208,1272.438,1322.416,1287.895,1307.459,1292.006z"/>
			<path style="fill:#DEEBE9;" d="M1483.235,1243.692l-92.176,25.336c-14.957,4.111-30.414-4.681-34.525-19.638l-8.522-31.003
				c-4.111-14.957,4.681-30.414,19.638-34.525l92.176-25.336c14.957-4.111,30.414,4.681,34.525,19.638l8.522,31.003
				C1506.984,1224.123,1498.192,1239.581,1483.235,1243.692z"/>
		</g>
		<g>
			<path style="fill:#DEEBE9;" d="M1166.51,1467.028l-92.176,25.336c-14.957,4.111-30.414-4.681-34.525-19.638l-8.522-31.003
				c-4.111-14.957,4.681-30.414,19.638-34.525l92.176-25.336c14.957-4.111,30.414,4.681,34.525,19.638l8.522,31.003
				C1190.259,1447.46,1181.467,1462.917,1166.51,1467.028z"/>
			<path style="fill:#DEEBE9;" d="M1342.286,1418.714l-92.176,25.336c-14.957,4.111-30.414-4.681-34.525-19.638l-8.522-31.003
				c-4.111-14.957,4.681-30.414,19.638-34.525l92.176-25.336c14.957-4.111,30.414,4.681,34.525,19.638l8.522,31.003
				C1366.035,1399.145,1357.243,1414.603,1342.286,1418.714z"/>
			<path style="fill:#DEEBE9;" d="M1518.062,1370.4l-92.176,25.336c-14.957,4.111-30.414-4.681-34.525-19.638l-8.522-31.003
				c-4.111-14.957,4.681-30.414,19.638-34.525l92.176-25.336c14.957-4.111,30.414,4.681,34.525,19.638l8.522,31.003
				C1541.811,1350.831,1533.019,1366.289,1518.062,1370.4z"/>
		</g>
		<g>
			<path style="fill:#CFD3A3;" d="M1201.337,1593.736l-92.176,25.336c-14.957,4.111-30.414-4.681-34.525-19.638l-8.522-31.003
				c-4.111-14.957,4.681-30.414,19.638-34.525l92.176-25.336c14.957-4.111,30.414,4.681,34.525,19.638l8.522,31.003
				C1225.086,1574.167,1216.294,1589.625,1201.337,1593.736z"/>
			<path style="fill:#81B3CC;" d="M1377.114,1545.422l-92.176,25.336c-14.957,4.111-30.414-4.681-34.525-19.638l-8.522-31.003
				c-4.111-14.957,4.681-30.414,19.638-34.525l92.176-25.336c14.957-4.111,30.414,4.681,34.525,19.638l8.522,31.003
				C1400.862,1525.853,1392.07,1541.311,1377.114,1545.422z"/>
			<path style="fill:#E28569;" d="M1552.89,1497.108l-92.176,25.336c-14.957,4.111-30.414-4.681-34.525-19.638l-8.522-31.003
				c-4.111-14.957,4.681-30.414,19.638-34.525l92.176-25.336c14.957-4.111,30.414,4.681,34.525,19.638l8.521,31.003
				C1576.639,1477.539,1567.846,1492.996,1552.89,1497.108z"/>
		</g>
		
			<rect x="1086.978" y="1603.848" transform="matrix(0.9642 -0.265 0.265 0.9642 -379.1607 411.5431)" style="fill:#2F1A31;" width="496.953" height="13.92"/>
		<path style="fill:#FFFFFF;" d="M1317.827,639.256c0,0-41.571-280.541-214.803-301.42L588.137,453.62
			c0,0,185.446-2.22,245.519,318.717L1317.827,639.256z"/>
		<path style="fill:#2F1A31;" d="M1327.647,638.617l-501.088,137.73c-1.712,0.471-3.482-0.536-3.953-2.248l0,0
			c-0.471-1.713,0.536-3.482,2.248-3.953l501.088-137.73c1.712-0.471,3.482,0.536,3.953,2.248l0,0
			C1330.366,636.377,1329.359,638.146,1327.647,638.617z"/>
		<g>
			<path style="fill:#B2C9C6;" d="M846.837,669.089c122.147-40.188,245.247-77.118,369.345-110.805
				c3.925-1.066,2.259-7.171-1.682-6.101C1090.402,585.87,967.302,622.8,845.155,662.988
				C841.305,664.255,842.953,670.367,846.837,669.089L846.837,669.089z"/>
		</g>
		<g>
			<path style="fill:#B2C9C6;" d="M849.588,688.734c50.02-16.476,100.563-30.97,151.713-43.507c3.953-0.969,2.279-7.072-1.682-6.101
				c-51.15,12.537-101.693,27.031-151.713,43.507C844.056,683.901,845.705,690.013,849.588,688.734L849.588,688.734z"/>
		</g>
		<g>
			<path style="fill:#B2C9C6;" d="M828.686,608.473c103.783-35.756,208.693-67.541,314.543-96.584
				c3.922-1.076,2.257-7.182-1.682-6.101c-105.849,29.042-210.759,60.827-314.543,96.583
				C823.177,603.69,824.821,609.805,828.686,608.473L828.686,608.473z"/>
		</g>
		<g>
			<path style="fill:#B2C9C6;" d="M815.042,580.191c45.974-16.42,91.82-32.69,138.781-46.11c3.908-1.117,2.247-7.224-1.682-6.101
				c-46.961,13.42-92.809,29.69-138.781,46.11C809.552,575.45,811.193,581.565,815.042,580.191L815.042,580.191z"/>
		</g>
		<g>
			<path style="fill:#B2C9C6;" d="M985.957,522.692c63.597-19.988,127.557-38.469,192.376-54.092
				c3.957-0.954,2.281-7.057-1.682-6.101c-64.819,15.623-128.778,34.104-192.376,54.092
				C980.404,517.807,982.057,523.917,985.957,522.692L985.957,522.692z"/>
		</g>
		<g>
			<path style="fill:#B2C9C6;" d="M798.722,545.012c91.534-31.281,184.523-57.668,278.37-81.048
				c3.949-0.984,2.276-7.087-1.682-6.101c-93.846,23.38-186.835,49.767-278.37,81.048
				C793.208,540.22,794.854,546.334,798.722,545.012L798.722,545.012z"/>
		</g>
		<g>
			<path style="fill:#B2C9C6;" d="M749.445,485.766c61.532-22.078,124.204-39.282,188.388-51.712
				c3.993-0.773,2.303-6.873-1.682-6.101c-64.181,12.43-126.852,29.633-188.388,51.712
				C743.958,481.03,745.599,487.146,749.445,485.766L749.445,485.766z"/>
		</g>
		<g>
			<path style="fill:#B2C9C6;" d="M967.54,425.045c47.291-15.155,95.055-28.455,143.373-39.922c3.96-0.94,2.284-7.042-1.682-6.101
				c-48.317,11.467-96.082,24.767-143.373,39.922C961.996,420.181,963.647,426.292,967.54,425.045L967.54,425.045z"/>
		</g>
		<g>
			<path style="fill:#B2C9C6;" d="M726.99,467.789c15.565-5.711,31.397-10.395,47.565-14.07c3.969-0.902,2.289-7.004-1.682-6.101
				c-16.167,3.675-31.999,8.358-47.565,14.07C721.516,463.079,723.154,469.196,726.99,467.789L726.99,467.789z"/>
		</g>
	</g>
	<g>
		<g>
			<g>
				<path style="fill:#2F1A31;" d="M1127.295,995.43c-35.112,0-65.307-11.698-85.013-32.93
					c-17.715-19.092-25.879-45.296-23.601-75.791c4.509-60.426,49.143-105.055,108.541-108.523
					c28.56-1.683,54.469,7.478,74.601,26.474c21.665,20.439,34.097,50.375,34.097,82.145
					C1235.92,952.791,1193.282,995.43,1127.295,995.43z M1133.829,780.524c-2.14,0-4.292,0.06-6.462,0.186
					c-58.094,3.396-101.748,47.057-106.161,106.191l0,0c-2.224,29.768,5.705,55.317,22.933,73.88
					c18.942,20.409,49.251,32.113,83.155,32.113c64.448,0,106.089-41.641,106.089-106.089c0-31.073-12.131-60.342-33.297-80.306
					C1181.999,789.432,1159.197,780.524,1133.829,780.524z"/>
			</g>
		</g>
		<path style="fill:#E28569;" d="M1031.345,886.803c4.416-59.126,48.166-103.902,107.356-107.356
			c63.766-3.721,107.356,48.065,107.356,107.356c0,59.291-35.997,107.356-107.356,107.356
			C1079.41,994.159,1025.937,959.217,1031.345,886.803z"/>
		<g>
			<path style="fill:#FFFFFF;" d="M1152.693,956.656c-2.891,0-5.729-1.106-7.881-3.174l-70.153-67.279
				c-4.545-4.352-4.695-11.56-0.337-16.098c4.358-4.539,11.56-4.701,16.098-0.337l54.253,52.022l15.738-105.776
				c0.926-6.21,6.655-10.472,12.942-9.588c6.222,0.926,10.514,6.721,9.588,12.942l-18.984,127.573
				c-0.625,4.214-3.553,7.725-7.58,9.101C1155.17,956.452,1153.925,956.656,1152.693,956.656z"/>
		</g>
	</g>
	<g>
		<path style="fill:#2F1A31;" d="M2137.57,1814.724c-0.517,0-1.046-0.012-1.581-0.012l0.018-1.274
			c0.746,0.024,1.473,0.072,2.194,0.012c0.872,0,1.731-0.012,2.579-0.024l0.012,1.274
			C2139.74,1814.712,2138.665,1814.736,2137.57,1814.724z M2131.144,1814.532c-1.575-0.108-3.18-0.217-4.809-0.361l0.108-1.25
			c1.617,0.144,3.21,0.253,4.773,0.337L2131.144,1814.532z M2145.625,1814.484l-0.084-1.274c1.611-0.096,3.21-0.241,4.749-0.421
			l0.145,1.25C2148.878,1814.219,2147.255,1814.363,2145.625,1814.484z M2121.538,1813.678c-1.563-0.192-3.156-0.397-4.773-0.625
			l0.18-1.25c1.605,0.228,3.186,0.433,4.749,0.625L2121.538,1813.678z M2155.22,1813.342l-0.216-1.25
			c1.605-0.276,3.168-0.601,4.653-0.962l0.301,1.226C2158.442,1812.728,2156.849,1813.065,2155.22,1813.342z M2112.004,1812.296
			c-1.557-0.252-3.138-0.541-4.743-0.854l0.241-1.25c1.593,0.313,3.162,0.601,4.707,0.854L2112.004,1812.296z M2164.622,1811.057
			l-0.385-1.202c1.527-0.481,3.03-1.022,4.466-1.611l0.481,1.178C2167.711,1810.011,2166.178,1810.564,2164.622,1811.057z
			 M2102.548,1810.456c-1.659-0.361-3.192-0.745-4.695-1.166l0.349-1.226c1.473,0.421,2.988,0.806,4.623,1.166L2102.548,1810.456z
			 M2093.249,1807.799c-1.515-0.553-3.024-1.154-4.49-1.791l0.505-1.154c1.443,0.625,2.927,1.214,4.418,1.743L2093.249,1807.799z
			 M2173.608,1807.426l-0.577-1.13c1.467-0.745,2.855-1.527,4.13-2.332l0.673,1.082
			C2176.53,1805.863,2175.105,1806.669,2173.608,1807.426z M2084.4,1803.952c-1.383-0.697-2.765-1.467-4.232-2.356l0.649-1.082
			c1.443,0.866,2.801,1.623,4.16,2.308L2084.4,1803.952z M2181.808,1802.281l-0.77-1.01c1.311-1.01,2.483-2.02,3.589-3.078
			l0.878,0.914C2184.369,1800.201,2183.161,1801.235,2181.808,1802.281z M2076.11,1798.986c-1.238-0.842-2.513-1.779-3.901-2.849
			l0.781-1.01c1.365,1.07,2.615,1.984,3.829,2.801L2076.11,1798.986z M2188.865,1795.596l-0.962-0.818
			c1.022-1.178,2.002-2.441,2.916-3.727l1.034,0.721C2190.915,1793.107,2189.905,1794.394,2188.865,1795.596z M2068.482,1793.059
			c-1.238-1.094-2.428-2.188-3.547-3.27l0.878-0.914c1.106,1.07,2.284,2.152,3.499,3.222L2068.482,1793.059z M2194.456,1787.673
			l-1.094-0.625c0.77-1.347,1.509-2.765,2.182-4.22l1.148,0.529C2196.001,1784.848,2195.25,1786.302,2194.456,1787.673z
			 M2061.557,1786.327c-1.082-1.178-2.152-2.369-3.204-3.607l0.962-0.818c1.04,1.214,2.098,2.405,3.168,3.559L2061.557,1786.327z
			 M2055.311,1778.957c-0.98-1.25-1.941-2.549-2.885-3.859l1.034-0.745c0.932,1.311,1.882,2.585,2.849,3.835L2055.311,1778.957z
			 M2198.55,1778.884l-1.19-0.433c0.535-1.455,1.04-2.97,1.491-4.521l1.214,0.361
			C2199.602,1775.867,2199.091,1777.418,2198.55,1778.884z M2049.702,1771.13c-0.878-1.335-1.737-2.681-2.585-4.076l1.082-0.649
			c0.836,1.371,1.695,2.717,2.561,4.028L2049.702,1771.13z M2201.261,1769.591l-1.238-0.265c0.343-1.551,0.643-3.114,0.89-4.677
			l1.25,0.192C2201.91,1766.429,2201.609,1768.028,2201.261,1769.591z M2044.665,1762.906c-0.775-1.395-1.551-2.801-2.308-4.232
			l1.118-0.601c0.757,1.431,1.521,2.837,2.296,4.208L2044.665,1762.906z M2202.812,1760.057l-1.262-0.144
			c0.162-1.491,0.301-3.09,0.403-4.749l1.262,0.072C2203.106,1756.919,2202.974,1758.542,2202.812,1760.057z M2040.162,1754.37
			c-0.703-1.419-1.395-2.874-2.08-4.34l1.154-0.529c0.673,1.467,1.365,2.897,2.056,4.316L2040.162,1754.37z M2203.401,1750.415
			l-1.262-0.024c0.018-0.793,0.024-1.587,0.03-2.368c0-0.806-0.006-1.599-0.024-2.405l1.262-0.024
			c0.018,0.806,0.024,1.623,0.024,2.429C2203.425,1748.828,2203.419,1749.621,2203.401,1750.415z M2036.123,1745.654
			c-0.631-1.455-1.25-2.946-1.864-4.448l1.178-0.481c0.601,1.503,1.22,2.97,1.852,4.424L2036.123,1745.654z M2201.97,1740.833
			c-0.084-1.575-0.193-3.162-0.331-4.785l1.262-0.096c0.138,1.623,0.246,3.234,0.331,4.809L2201.97,1740.833z M2032.504,1736.709
			c-0.571-1.491-1.13-2.994-1.677-4.509l1.19-0.433c0.547,1.515,1.106,3.018,1.665,4.484L2032.504,1736.709z M2201.165,1731.311
			c-0.174-1.575-0.379-3.15-0.601-4.749l1.25-0.168c0.222,1.599,0.427,3.198,0.613,4.773L2201.165,1731.311z M2029.234,1727.668
			c-0.505-1.503-1.004-3.042-1.497-4.581l1.202-0.385c0.493,1.539,0.992,3.054,1.497,4.557L2029.234,1727.668z M2199.842,1721.824
			c-0.259-1.563-0.535-3.138-0.83-4.725l1.239-0.24c0.306,1.611,0.583,3.186,0.841,4.749L2199.842,1721.824z M2026.306,1718.47
			c-0.457-1.515-0.908-3.054-1.347-4.617l1.214-0.337c0.439,1.539,0.89,3.078,1.346,4.593L2026.306,1718.47z M2198.081,1712.411
			c-0.325-1.551-0.667-3.114-1.028-4.677l1.239-0.288c0.361,1.587,0.703,3.15,1.028,4.701L2198.081,1712.411z M2023.679,1709.213
			c-0.415-1.527-0.818-3.09-1.214-4.653l1.226-0.313c0.397,1.563,0.8,3.102,1.214,4.629L2023.679,1709.213z M2195.935,1703.069
			c-0.385-1.539-0.788-3.09-1.197-4.653l1.227-0.313c0.409,1.563,0.812,3.114,1.196,4.653L2195.935,1703.069z M2021.311,1699.907
			c-0.379-1.551-0.745-3.114-1.1-4.689l1.238-0.289c0.355,1.575,0.709,3.138,1.088,4.665L2021.311,1699.907z M2193.464,1693.8
			c-0.433-1.515-0.884-3.054-1.347-4.593l1.214-0.361c0.463,1.539,0.914,3.078,1.346,4.617L2193.464,1693.8z M2019.177,1690.517
			c-0.331-1.563-0.655-3.126-0.974-4.713l1.238-0.24c0.319,1.563,0.643,3.126,0.974,4.689L2019.177,1690.517z M2190.705,1684.614
			c-0.481-1.515-0.974-3.042-1.479-4.557l1.202-0.409c0.505,1.539,0.998,3.066,1.479,4.581L2190.705,1684.614z M2017.277,1681.092
			c-0.295-1.563-0.595-3.138-0.884-4.737l1.25-0.216c0.288,1.575,0.577,3.15,0.872,4.713L2017.277,1681.092z M2187.693,1675.513
			c-0.511-1.503-1.04-3.006-1.593-4.52l1.19-0.433c0.553,1.515,1.082,3.042,1.605,4.545L2187.693,1675.513z M2015.57,1671.618
			c-0.271-1.575-0.529-3.162-0.781-4.749l1.25-0.192c0.253,1.587,0.511,3.15,0.781,4.725L2015.57,1671.618z M2184.459,1666.472
			c-0.553-1.479-1.112-2.982-1.695-4.484l1.178-0.457c0.583,1.503,1.154,3.006,1.708,4.508L2184.459,1666.472z M2014.049,1662.12
			c-0.234-1.575-0.469-3.162-0.697-4.773l1.25-0.168c0.228,1.587,0.463,3.174,0.697,4.749L2014.049,1662.12z M2181.021,1657.515
			c-0.589-1.467-1.178-2.958-1.792-4.448l1.166-0.481c0.613,1.491,1.214,2.982,1.803,4.472L2181.021,1657.515z M2012.702,1652.61
			c-0.216-1.587-0.421-3.174-0.619-4.785l1.25-0.144c0.198,1.587,0.403,3.174,0.619,4.761L2012.702,1652.61z M2177.396,1648.642
			c-0.619-1.455-1.244-2.933-1.882-4.4l1.166-0.505c0.637,1.467,1.262,2.945,1.882,4.424L2177.396,1648.642z M2011.506,1643.052
			c-0.198-1.587-0.379-3.174-0.553-4.773l1.262-0.144c0.174,1.599,0.355,3.186,0.541,4.773L2011.506,1643.052z M2173.596,1639.806
			c-0.643-1.455-1.298-2.91-1.96-4.376l1.154-0.529c0.661,1.467,1.316,2.946,1.96,4.4L2173.596,1639.806z M2010.442,1633.494
			c-0.162-1.587-0.319-3.186-0.469-4.785l1.262-0.12c0.15,1.599,0.307,3.198,0.469,4.785L2010.442,1633.494z M2169.641,1631.065
			c-0.661-1.443-1.341-2.897-2.032-4.34l1.142-0.553c0.691,1.467,1.371,2.922,2.044,4.364L2169.641,1631.065z M2009.534,1623.936
			c-0.138-1.599-0.276-3.198-0.409-4.797l1.262-0.096c0.132,1.599,0.271,3.198,0.409,4.773L2009.534,1623.936z M2165.547,1622.385
			c-0.691-1.431-1.395-2.873-2.098-4.316l1.142-0.553c0.703,1.443,1.406,2.885,2.098,4.316L2165.547,1622.385z M2008.741,1614.329
			c-0.12-1.587-0.234-3.186-0.349-4.785l1.262-0.096c0.114,1.599,0.228,3.198,0.349,4.785L2008.741,1614.329z M2161.309,1613.788
			c-0.715-1.431-1.437-2.861-2.164-4.292l1.13-0.577c0.727,1.431,1.449,2.861,2.164,4.292L2161.309,1613.788z M2156.951,1605.228
			c-0.727-1.419-1.473-2.837-2.224-4.244l1.118-0.601c0.751,1.431,1.497,2.849,2.236,4.268L2156.951,1605.228z M2008.074,1604.735
			c-0.102-1.587-0.198-3.186-0.295-4.785l1.262-0.072c0.096,1.599,0.192,3.198,0.295,4.785L2008.074,1604.735z M2152.467,1596.74
			c-0.721-1.347-1.449-2.693-2.188-4.064l-0.096-0.168l1.118-0.601l0.09,0.168c0.74,1.371,1.473,2.717,2.194,4.064L2152.467,1596.74
			z M2007.521,1595.153c-0.084-1.587-0.162-3.186-0.24-4.797l1.262-0.072c0.078,1.611,0.156,3.21,0.24,4.797L2007.521,1595.153z
			 M2147.874,1588.312l-2.344-4.196l1.106-0.625l2.344,4.196L2147.874,1588.312z M2007.07,1585.559
			c-0.066-1.599-0.132-3.198-0.192-4.809l1.262-0.048c0.06,1.611,0.126,3.21,0.192,4.809L2007.07,1585.559z M2143.173,1579.92
			c-0.788-1.383-1.587-2.777-2.386-4.16l1.094-0.625c0.8,1.383,1.599,2.777,2.386,4.16L2143.173,1579.92z M2006.715,1575.965
			c-0.054-1.599-0.102-3.198-0.144-4.821l1.262-0.024c0.042,1.599,0.09,3.198,0.144,4.797L2006.715,1575.965z M2138.37,1571.613
			c-0.805-1.371-1.611-2.753-2.435-4.124l1.082-0.649c0.823,1.371,1.641,2.753,2.447,4.148L2138.37,1571.613z M2006.445,1566.347
			c-0.036-1.599-0.066-3.198-0.096-4.809l1.262-0.024c0.03,1.611,0.06,3.21,0.096,4.809L2006.445,1566.347z M2133.465,1563.365
			c-0.823-1.371-1.653-2.741-2.489-4.112l1.082-0.649c0.835,1.371,1.665,2.741,2.489,4.112L2133.465,1563.365z M2006.276,1556.729
			c-0.024-1.599-0.042-3.198-0.054-4.821h1.262c0.012,1.599,0.03,3.198,0.054,4.797L2006.276,1556.729z M2128.469,1555.166
			l-2.537-4.076l1.07-0.673l2.537,4.076L2128.469,1555.166z M2006.192,1547.11c-0.012-1.599-0.018-3.198-0.018-4.809h1.262
			c0,1.611,0.006,3.21,0.018,4.809H2006.192z M2123.384,1547.014l-2.579-4.052l1.07-0.673l2.579,4.052L2123.384,1547.014z
			 M2118.208,1538.923c-0.86-1.334-1.731-2.681-2.615-4.016l1.058-0.697c0.884,1.335,1.755,2.681,2.627,4.04L2118.208,1538.923z
			 M2007.443,1537.504h-1.262c0.006-1.599,0.012-3.198,0.024-4.809h1.262C2007.454,1534.306,2007.448,1535.905,2007.443,1537.504z
			 M2112.948,1530.892l-2.663-4.004l1.058-0.697l2.663,4.004L2112.948,1530.892z M2007.509,1527.91l-1.262-0.024
			c0.018-1.599,0.036-3.198,0.06-4.809l1.262,0.024C2007.545,1524.712,2007.527,1526.311,2007.509,1527.91z M2107.61,1522.909
			l-2.699-3.968l1.046-0.721l2.699,3.967L2107.61,1522.909z M2007.653,1518.304l-1.262-0.024l0.102-4.797l1.262,0.024
			L2007.653,1518.304z M2102.181,1514.986l-2.735-3.943l1.034-0.721l2.747,3.943L2102.181,1514.986z M2007.863,1508.686
			l-1.262-0.024c0.042-1.599,0.084-3.21,0.132-4.809l1.262,0.048C2007.947,1505.5,2007.905,1507.087,2007.863,1508.686z
			 M2096.681,1507.111c-0.92-1.311-1.845-2.609-2.777-3.907l1.034-0.745c0.932,1.298,1.858,2.621,2.777,3.931L2096.681,1507.111z
			 M2091.115,1499.296l-2.819-3.895l1.022-0.745l2.819,3.896L2091.115,1499.296z M2008.146,1499.092l-1.262-0.048
			c0.054-1.599,0.108-3.198,0.168-4.797l1.262,0.048C2008.254,1495.894,2008.2,1497.493,2008.146,1499.092z M2085.458,1491.541
			l-2.855-3.871l1.022-0.745l2.855,3.871L2085.458,1491.541z M2008.489,1489.51l-1.262-0.048l0.198-4.797l1.262,0.048
			L2008.489,1489.51z M2079.735,1483.835l-2.892-3.835l1.01-0.769l2.892,3.835L2079.735,1483.835z M2008.897,1479.903l-1.262-0.048
			c0.072-1.599,0.15-3.21,0.229-4.809l1.262,0.072C2009.047,1476.717,2008.969,1478.304,2008.897,1479.903z M2073.934,1476.176
			c-0.968-1.274-1.942-2.549-2.921-3.811l0.998-0.77c0.98,1.262,1.954,2.537,2.934,3.811L2073.934,1476.176z M2009.36,1470.321
			l-1.262-0.072c0.084-1.599,0.168-3.198,0.259-4.797l1.262,0.072C2009.528,1467.123,2009.444,1468.722,2009.36,1470.321z
			 M2068.067,1468.578l-2.963-3.775l0.998-0.794l2.964,3.799L2068.067,1468.578z M2062.14,1461.028l-3-3.763l0.986-0.794l3,3.763
			L2062.14,1461.028z M2009.895,1460.739l-1.262-0.072c0.09-1.599,0.186-3.198,0.283-4.797l1.262,0.072
			C2010.082,1457.541,2009.985,1459.14,2009.895,1460.739z M2056.123,1453.537l-3.018-3.715l0.986-0.793l3.018,3.715
			L2056.123,1453.537z M2010.472,1451.133l-1.262-0.072l0.313-4.797l1.262,0.096L2010.472,1451.133z M2050.069,1446.131l-3.06-3.691
			l0.974-0.818l3.06,3.691L2050.069,1446.131z M2011.103,1441.563l-1.262-0.096l0.337-4.785l1.262,0.096L2011.103,1441.563z
			 M2043.943,1438.762c-1.022-1.226-2.056-2.453-3.09-3.667l0.962-0.818c1.034,1.214,2.068,2.441,3.102,3.667L2043.943,1438.762z
			 M2011.789,1431.981l-1.262-0.096l0.367-4.785l1.262,0.096L2011.789,1431.981z M2037.746,1431.464l-3.132-3.643l0.962-0.818
			l3.132,3.643L2037.746,1431.464z M2031.47,1424.214l-3.168-3.607l0.95-0.842l3.168,3.607L2031.47,1424.214z M2012.528,1422.411
			l-1.262-0.096l0.391-4.785l1.262,0.096L2012.528,1422.411z M2025.116,1417.012c-1.064-1.202-2.128-2.392-3.198-3.583l0.938-0.842
			c1.07,1.19,2.146,2.38,3.21,3.583L2025.116,1417.012z M2013.316,1412.841l-1.262-0.12l0.415-4.785l1.262,0.12L2013.316,1412.841z
			 M2018.702,1409.847c-1.076-1.19-2.152-2.368-3.234-3.535l0.926-0.866c1.082,1.166,2.17,2.368,3.246,3.559L2018.702,1409.847z
			 M2014.157,1403.259l-1.262-0.12l0.102-1.106l-0.787,0.733c-1.088-1.178-2.182-2.357-3.276-3.523l0.926-0.866
			c1.052,1.13,2.11,2.26,3.162,3.402l0.307-3.414l1.262,0.12L2014.157,1403.259z M2005.633,1395.732l-3.306-3.499l0.914-0.866
			l3.318,3.499L2005.633,1395.732z M2015.041,1393.7l-1.262-0.12l0.457-4.785l1.262,0.12L2015.041,1393.7z M1998.99,1388.747
			l-3.348-3.463l0.914-0.89l3.348,3.463L1998.99,1388.747z M2015.961,1384.142l-1.262-0.12l0.481-4.785l1.262,0.12
			L2015.961,1384.142z M1992.282,1381.846c-1.124-1.142-2.248-2.284-3.372-3.414l0.902-0.89c1.124,1.13,2.248,2.272,3.372,3.414
			L1992.282,1381.846z M1985.531,1375.017l-3.409-3.39l0.89-0.89l3.408,3.39L1985.531,1375.017z M2016.934,1374.596l-1.262-0.144
			l0.505-4.785l1.262,0.144L2016.934,1374.596z M1978.696,1368.284l-3.432-3.354l0.878-0.914l3.444,3.354L1978.696,1368.284z
			 M2017.956,1365.038l-1.262-0.144l0.523-4.797l1.262,0.144L2017.956,1365.038z M1971.807,1361.6l-3.474-3.318l0.878-0.914
			l3.475,3.318L1971.807,1361.6z M2019.014,1355.468l-1.262-0.144c0.18-1.599,0.361-3.198,0.547-4.797l1.262,0.144
			C2019.375,1352.27,2019.195,1353.869,2019.014,1355.468z M1964.84,1354.975l-3.511-3.282l0.866-0.914l3.511,3.282
			L1964.84,1354.975z M1957.801,1348.459c-1.178-1.082-2.362-2.164-3.547-3.234l0.854-0.938c1.184,1.07,2.368,2.152,3.547,3.234
			L1957.801,1348.459z M2020.114,1345.874l-1.262-0.144l0.565-4.785l1.262,0.144L2020.114,1345.874z M1950.695,1342.003
			c-1.19-1.07-2.386-2.14-3.583-3.198l0.841-0.938c1.196,1.058,2.393,2.128,3.583,3.198L1950.695,1342.003z M2021.257,1336.304
			l-1.262-0.144c0.186-1.587,0.391-3.186,0.589-4.785l1.25,0.144C2021.635,1333.118,2021.443,1334.717,2021.257,1336.304z
			 M1943.506,1335.643c-1.208-1.058-2.417-2.116-3.625-3.162l0.83-0.962c1.208,1.046,2.417,2.104,3.625,3.162L1943.506,1335.643z
			 M1936.244,1329.343c-1.214-1.046-2.435-2.08-3.655-3.114l0.818-0.962c1.22,1.034,2.441,2.068,3.667,3.114L1936.244,1329.343z
			 M2022.429,1326.758l-1.25-0.168l0.607-4.785l1.25,0.168L2022.429,1326.758z M1928.922,1323.151l-3.697-3.066l0.806-0.986
			l3.697,3.066L1928.922,1323.151z M2023.649,1317.2l-1.25-0.168l0.625-4.785l1.25,0.168L2023.649,1317.2z M1921.516,1317.044
			l-3.739-3.03l0.794-0.986l3.739,3.03L1921.516,1317.044z M1914.032,1311.02l-3.775-2.982l0.781-0.986l3.775,2.982
			L1914.032,1311.02z M2024.917,1307.642l-1.25-0.168c0.21-1.599,0.427-3.186,0.643-4.773l1.25,0.168
			C2025.344,1304.456,2025.128,1306.043,2024.917,1307.642z M1906.476,1305.117c-1.268-0.974-2.537-1.948-3.817-2.921l0.769-1.01
			c1.28,0.974,2.549,1.948,3.817,2.922L1906.476,1305.117z M1898.829,1299.298c-1.28-0.962-2.561-1.924-3.847-2.849l0.745-1.034
			c1.286,0.95,2.579,1.912,3.859,2.873L1898.829,1299.298z M2026.21,1298.108l-1.25-0.168c0.216-1.599,0.439-3.186,0.661-4.773
			l1.25,0.168C2026.649,1294.922,2026.426,1296.509,2026.21,1298.108z M1891.111,1293.587c-1.298-0.938-2.591-1.875-3.889-2.801
			l0.733-1.034c1.298,0.926,2.603,1.864,3.901,2.825L1891.111,1293.587z M2027.545,1288.574l-1.25-0.168
			c0.222-1.599,0.451-3.186,0.679-4.785l1.25,0.192C2027.995,1285.388,2027.767,1286.975,2027.545,1288.574z M1883.308,1288.009
			c-1.304-0.926-2.615-1.839-3.932-2.753l0.721-1.034c1.317,0.914,2.627,1.827,3.943,2.753L1883.308,1288.009z M1875.427,1282.526
			c-1.323-0.89-2.651-1.791-3.974-2.681l0.709-1.052c1.323,0.884,2.651,1.785,3.974,2.699L1875.427,1282.526z M2028.909,1279.052
			l-1.25-0.18c0.228-1.593,0.463-3.18,0.697-4.767l1.25,0.18C2029.372,1275.872,2029.137,1277.459,2028.909,1279.052z
			 M1867.45,1277.182c-1.341-0.884-2.675-1.761-4.016-2.627l0.685-1.058c1.34,0.866,2.687,1.743,4.028,2.627L1867.45,1277.182z
			 M1859.395,1271.964c-1.353-0.86-2.705-1.713-4.064-2.561l0.673-1.07c1.359,0.848,2.711,1.701,4.064,2.561L1859.395,1271.964z
			 M2030.31,1269.524l-1.25-0.18c0.234-1.593,0.475-3.18,0.715-4.767l1.25,0.192
			C2030.785,1266.356,2030.544,1267.943,2030.31,1269.524z M1851.249,1266.903c-1.371-0.836-2.741-1.665-4.1-2.489l0.649-1.082
			c1.371,0.823,2.741,1.653,4.112,2.489L1851.249,1266.903z M1843.02,1261.955c-1.383-0.812-2.765-1.617-4.148-2.411l0.625-1.094
			c1.395,0.793,2.777,1.599,4.16,2.411L1843.02,1261.955z M2031.752,1260.008l-1.25-0.192l0.733-4.755l1.25,0.192L2031.752,1260.008
			z M1834.688,1257.188c-1.395-0.787-2.795-1.563-4.196-2.332l0.613-1.106c1.401,0.77,2.801,1.545,4.208,2.333L1834.688,1257.188z
			 M1826.278,1252.584c-1.413-0.757-2.831-1.503-4.244-2.242l0.589-1.118c1.413,0.739,2.831,1.485,4.256,2.242L1826.278,1252.584z
			 M2033.231,1250.498l-1.25-0.192c0.24-1.581,0.493-3.168,0.745-4.761l1.25,0.204
			C2033.724,1247.33,2033.472,1248.917,2033.231,1250.498z M1817.772,1248.147c-1.425-0.727-2.855-1.443-4.286-2.152l0.565-1.13
			c1.431,0.709,2.861,1.425,4.298,2.152L1817.772,1248.147z M1809.17,1243.903c-1.443-0.697-2.891-1.383-4.334-2.056l0.541-1.142
			c1.443,0.673,2.891,1.359,4.346,2.056L1809.17,1243.903z M1800.477,1239.858c-1.461-0.661-2.922-1.31-4.382-1.954l0.505-1.154
			c1.473,0.643,2.933,1.293,4.394,1.954L1800.477,1239.858z M1791.689,1236.016l-0.253-0.108l0.493-1.166l0.252,0.108
			L1791.689,1236.016z"/>
	</g>
	<g>
		<path style="fill:#2F1A31;" d="M2212.833,607.895c0,0-1.617-0.535-4.623-1.605l0.421-1.19c2.988,1.058,4.599,1.593,4.599,1.593
			L2212.833,607.895z M2203.653,604.661c-1.371-0.499-2.885-1.052-4.533-1.659l0.433-1.19c1.647,0.607,3.162,1.16,4.533,1.659
			L2203.653,604.661z M2194.6,601.295c-1.431-0.541-2.934-1.112-4.502-1.719l0.457-1.178c1.569,0.607,3.072,1.178,4.49,1.719
			L2194.6,601.295z M2185.607,597.838c-1.449-0.565-2.94-1.154-4.484-1.767l0.469-1.178c1.545,0.613,3.036,1.202,4.472,1.767
			L2185.607,597.838z M2176.656,594.274l-4.46-1.809l0.481-1.178l4.46,1.815L2176.656,594.274z M2167.753,590.619
			c-1.455-0.601-2.939-1.22-4.448-1.857l0.493-1.166c1.509,0.637,2.981,1.256,4.436,1.858L2167.753,590.619z M2158.881,586.886
			c-1.455-0.619-2.927-1.25-4.424-1.912l0.505-1.154c1.497,0.649,2.97,1.28,4.412,1.9L2158.881,586.886z M2150.044,583.056
			l-4.4-1.942l0.511-1.154l4.394,1.942L2150.044,583.056z M2141.255,579.143c-1.443-0.649-2.909-1.31-4.382-1.984l0.529-1.154
			c1.473,0.673,2.927,1.334,4.37,1.984L2141.255,579.143z M2132.503,575.146c-1.443-0.673-2.903-1.353-4.364-2.038l0.541-1.142
			c1.461,0.685,2.909,1.365,4.352,2.026L2132.503,575.146z M2123.786,571.064c-1.437-0.679-2.891-1.371-4.346-2.074l0.553-1.142
			c1.455,0.703,2.897,1.395,4.334,2.074L2123.786,571.064z M2115.118,566.898c-1.431-0.697-2.867-1.407-4.322-2.122l0.565-1.13
			c1.443,0.715,2.879,1.413,4.31,2.11L2115.118,566.898z M2106.492,562.636c-1.425-0.709-2.855-1.431-4.298-2.158l0.577-1.13
			c1.431,0.727,2.862,1.449,4.286,2.158L2106.492,562.636z M2097.907,558.29c-1.419-0.727-2.843-1.467-4.28-2.212l0.589-1.118
			c1.425,0.745,2.849,1.473,4.268,2.2L2097.907,558.29z M2089.371,553.847c-1.413-0.745-2.825-1.497-4.25-2.254l0.601-1.118
			c1.413,0.758,2.825,1.509,4.238,2.254L2089.371,553.847z M2080.883,549.321l-4.22-2.302l0.601-1.106l4.22,2.29L2080.883,549.321z
			 M2072.455,544.692c-1.395-0.776-2.801-1.557-4.196-2.344l0.625-1.106c1.395,0.787,2.789,1.569,4.184,2.344L2072.455,544.692z
			 M2064.075,539.961c-1.388-0.794-2.783-1.593-4.172-2.399l0.637-1.094c1.389,0.806,2.771,1.605,4.16,2.398L2064.075,539.961z
			 M2055.756,535.14l-4.136-2.447l0.649-1.094l4.124,2.447L2055.756,535.14z M1782.143,534.563c-1.575-0.006-3.15-0.018-4.737-0.03
			l-0.06-1.262c1.659,0.012,3.228,0.024,4.797,0.03V534.563z M1786.94,534.545v-1.262c1.605-0.006,3.204-0.024,4.791-0.048
			l0.024,1.262C1790.156,534.521,1788.557,534.539,1786.94,534.545z M1772.519,534.461c-1.593-0.03-3.198-0.066-4.803-0.108
			l0.036-1.262c1.599,0.042,3.198,0.078,4.791,0.108L1772.519,534.461z M1796.552,534.401l-0.024-1.262
			c1.605-0.036,3.204-0.084,4.791-0.138l0.048,1.262C1799.768,534.316,1798.169,534.364,1796.552,534.401z M1762.906,534.202
			c-1.593-0.054-3.192-0.114-4.803-0.186l0.06-1.262c1.599,0.072,3.198,0.132,4.791,0.186L1762.906,534.202z M1806.176,534.07
			l-0.06-1.262c1.605-0.072,3.204-0.15,4.791-0.234l0.072,1.262C1809.38,533.919,1807.781,533.998,1806.176,534.07z M1753.3,533.793
			c-1.599-0.078-3.198-0.162-4.803-0.258l0.072-1.262c1.605,0.096,3.204,0.18,4.791,0.258L1753.3,533.793z M1815.782,533.559
			l-0.084-1.262c1.605-0.102,3.198-0.216,4.785-0.337l0.096,1.262C1818.992,533.343,1817.387,533.457,1815.782,533.559z
			 M1743.7,533.252c-1.593-0.102-3.192-0.21-4.791-0.325l0.084-1.262c1.599,0.114,3.198,0.222,4.791,0.325L1743.7,533.252z
			 M1825.364,532.831l-0.108-1.262c1.605-0.138,3.192-0.289,4.779-0.445l0.12,1.262
			C1828.568,532.543,1826.969,532.693,1825.364,532.831z M1734.112,532.567l-4.797-0.391l0.108-1.262l4.785,0.391L1734.112,532.567z
			 M1834.947,531.894l-0.144-1.262c1.599-0.18,3.192-0.367,4.767-0.553l0.156,1.25
			C1838.139,531.527,1836.546,531.713,1834.947,531.894z M1724.53,531.755c-1.587-0.144-3.18-0.295-4.785-0.451l0.12-1.262
			c1.605,0.156,3.198,0.307,4.785,0.451L1724.53,531.755z M1714.96,530.824c-1.587-0.162-3.18-0.331-4.785-0.511l0.144-1.262
			c1.593,0.18,3.186,0.349,4.773,0.511L1714.96,530.824z M1844.499,530.703l-0.168-1.25c1.593-0.21,3.174-0.439,4.749-0.673
			l0.18,1.25C1847.684,530.265,1846.092,530.493,1844.499,530.703z M2047.484,530.211l-4.1-2.501l0.661-1.082l4.1,2.501
			L2047.484,530.211z M1705.414,529.778c-1.593-0.186-3.18-0.379-4.773-0.577l0.156-1.25c1.593,0.198,3.18,0.379,4.761,0.565
			L1705.414,529.778z M1854.009,529.291l-0.204-1.25c1.587-0.258,3.162-0.529,4.731-0.805l0.216,1.25
			C1857.182,528.762,1855.595,529.032,1854.009,529.291z M1695.862,528.612l-0.307-0.036c-1.485-0.192-2.97-0.385-4.46-0.589
			l0.168-1.25c1.491,0.198,2.976,0.391,4.448,0.583l0.313,0.042L1695.862,528.612z M1863.488,527.608l-0.24-1.238
			c1.575-0.307,3.144-0.625,4.701-0.95l0.252,1.238C1866.644,526.982,1865.075,527.301,1863.488,527.608z M1686.334,527.343
			c-1.587-0.216-3.174-0.439-4.761-0.667l0.18-1.25c1.587,0.228,3.174,0.451,4.749,0.667L1686.334,527.343z M1676.818,525.972
			c-1.587-0.234-3.168-0.475-4.755-0.721l0.192-1.25c1.587,0.247,3.168,0.487,4.743,0.721L1676.818,525.972z M1872.908,525.636
			l-0.276-1.238c1.563-0.355,3.12-0.715,4.659-1.094l0.301,1.226C1876.04,524.909,1874.483,525.281,1872.908,525.636z
			 M2039.297,525.173c-1.359-0.848-2.717-1.701-4.07-2.555l0.673-1.07c1.353,0.854,2.711,1.707,4.07,2.555L2039.297,525.173z
			 M1667.32,524.494l-4.743-0.769l0.204-1.25l4.743,0.77L1667.32,524.494z M1882.256,523.352l-0.313-1.226
			c1.551-0.403,3.09-0.824,4.617-1.25l0.349,1.214C1885.37,522.528,1883.819,522.949,1882.256,523.352z M1657.834,522.931
			l-4.731-0.818l0.216-1.25l4.731,0.818L1657.834,522.931z M1648.366,521.272l-4.725-0.86l0.229-1.25l4.725,0.86L1648.366,521.272z
			 M1891.537,520.755l-0.373-1.214c1.539-0.469,3.06-0.938,4.575-1.425l0.385,1.202
			C1894.609,519.805,1893.076,520.286,1891.537,520.755z M2031.169,520.021c-1.347-0.872-2.699-1.743-4.034-2.621l0.697-1.058
			c1.334,0.878,2.675,1.749,4.022,2.609L2031.169,520.021z M1638.916,519.522l-4.719-0.908l0.24-1.238l4.719,0.908L1638.916,519.522
			z M1900.693,517.791l-0.409-1.202c1.515-0.517,3.018-1.058,4.502-1.611l0.445,1.19
			C1903.734,516.721,1902.22,517.262,1900.693,517.791z M1629.472,517.683l-4.713-0.95l0.253-1.238l4.713,0.95L1629.472,517.683z
			 M1620.064,515.771l-4.707-0.986l0.264-1.238l4.695,0.986L1620.064,515.771z M2023.132,514.767
			c-1.328-0.884-2.663-1.779-3.985-2.669l0.709-1.046c1.322,0.89,2.645,1.773,3.973,2.657L2023.132,514.767z M1909.728,514.443
			l-0.469-1.178c1.497-0.589,2.97-1.19,4.43-1.809l0.493,1.166C1912.709,513.24,1911.225,513.854,1909.728,514.443z
			 M1610.669,513.769l-1.497-0.325l0.265-1.238l1.497,0.325L1610.669,513.769z M1918.595,510.692l-0.517-1.154
			c1.467-0.661,2.909-1.335,4.334-2.026l0.553,1.142C1921.528,509.345,1920.073,510.03,1918.595,510.692z M2015.185,509.399
			c-1.323-0.902-2.639-1.815-3.955-2.735l0.721-1.034c1.316,0.92,2.633,1.821,3.943,2.723L2015.185,509.399z M1927.269,506.514
			l-0.577-1.13c1.425-0.733,2.831-1.485,4.22-2.248l0.613,1.106C1930.124,505.017,1928.706,505.768,1927.269,506.514z
			 M2007.298,503.899c-1.305-0.926-2.615-1.863-3.913-2.807l0.745-1.022c1.298,0.944,2.597,1.869,3.901,2.795L2007.298,503.899z
			 M1935.709,501.855l-0.637-1.094c1.383-0.805,2.741-1.641,4.082-2.483l0.673,1.07
			C1938.474,500.202,1937.104,501.037,1935.709,501.855z M1999.489,498.26c-1.298-0.95-2.585-1.912-3.871-2.879l0.758-1.01
			c1.286,0.968,2.573,1.918,3.859,2.867L1999.489,498.26z M1943.866,496.715l-0.709-1.046c1.328-0.902,2.633-1.81,3.919-2.735
			l0.745,1.022C1946.523,494.894,1945.207,495.814,1943.866,496.715z M1991.771,492.477c-1.281-0.98-2.555-1.96-3.829-2.952
			l0.781-0.998c1.262,0.992,2.537,1.972,3.817,2.939L1991.771,492.477z M1951.669,491.059l-0.769-0.998
			c1.268-0.98,2.507-1.978,3.727-2.994l0.806,0.974C1954.2,489.069,1952.949,490.079,1951.669,491.059z M1984.161,486.55
			c-1.262-0.998-2.513-2.002-3.751-3.006l0.793-0.986c1.238,1.004,2.489,2.008,3.739,3.006L1984.161,486.55z M1959.087,484.879
			l-0.842-0.938c1.184-1.064,2.35-2.152,3.493-3.252l0.878,0.914C1961.462,482.715,1960.283,483.803,1959.087,484.879z
			 M1976.682,480.503c-1.238-1.022-2.477-2.05-3.697-3.084l0.818-0.962c1.22,1.022,2.447,2.05,3.685,3.072L1976.682,480.503z
			 M1966.024,478.194l-0.914-0.878c1.106-1.154,2.188-2.32,3.24-3.511l0.95,0.842
			C1968.236,475.85,1967.142,477.028,1966.024,478.194z M1969.33,474.299c-1.214-1.046-2.422-2.104-3.631-3.162l0.842-0.95
			c1.196,1.058,2.404,2.104,3.619,3.15L1969.33,474.299z M1972.432,470.981l-0.986-0.805c1.016-1.238,1.996-2.483,2.952-3.751
			l1.01,0.757C1974.44,468.462,1973.448,469.73,1972.432,470.981z M1962.105,467.933c-1.19-1.076-2.375-2.158-3.553-3.246
			l0.866-0.926c1.166,1.088,2.35,2.158,3.541,3.234L1962.105,467.933z M1978.215,463.286l-1.034-0.721
			c0.89-1.28,1.773-2.615,2.633-3.974l1.07,0.673C1980.019,460.641,1979.117,461.994,1978.215,463.286z M1955.035,461.41
			c-1.172-1.106-2.332-2.212-3.48-3.336l0.878-0.902c1.148,1.112,2.308,2.218,3.469,3.312L1955.035,461.41z M1983.379,455.141
			l-1.094-0.637c0.793-1.371,1.563-2.771,2.308-4.19l1.118,0.589C1984.966,452.333,1984.184,453.746,1983.379,455.141z
			 M1948.122,454.708c-1.142-1.136-2.272-2.272-3.39-3.414l0.902-0.89c1.118,1.142,2.248,2.278,3.378,3.402L1948.122,454.708z
			 M1941.384,447.837c-1.112-1.166-2.212-2.332-3.3-3.505l0.926-0.866c1.088,1.172,2.182,2.338,3.288,3.493L1941.384,447.837z
			 M1987.864,446.581l-1.142-0.541c0.673-1.407,1.328-2.874,1.954-4.352l1.166,0.493
			C1989.21,443.677,1988.543,445.162,1987.864,446.581z M1934.843,440.78c-1.082-1.196-2.146-2.393-3.198-3.607l0.95-0.83
			c1.052,1.202,2.116,2.399,3.186,3.583L1934.843,440.78z M1991.627,437.702l-1.178-0.445c0.559-1.479,1.094-2.982,1.599-4.496
			l1.202,0.397C1992.733,434.696,1992.198,436.211,1991.627,437.702z M1928.507,433.53c-1.04-1.232-2.068-2.465-3.078-3.697
			l0.974-0.805c1.01,1.232,2.038,2.465,3.066,3.685L1928.507,433.53z M1994.698,428.57l-1.214-0.349
			c0.445-1.521,0.86-3.06,1.256-4.617l1.226,0.313C1995.57,425.487,1995.143,427.038,1994.698,428.57z M1922.406,426.082
			c-1.004-1.256-1.99-2.525-2.964-3.799l1.01-0.77c0.962,1.274,1.948,2.531,2.939,3.787L1922.406,426.082z M1997.061,419.217
			l-1.238-0.264c0.337-1.545,0.649-3.108,0.926-4.683l1.25,0.216C1997.71,416.085,1997.397,417.66,1997.061,419.217z
			 M1916.557,418.435c-0.95-1.292-1.888-2.597-2.819-3.901l1.034-0.733c0.92,1.305,1.858,2.597,2.807,3.889L1916.557,418.435z
			 M1910.99,410.578c-0.902-1.328-1.797-2.669-2.669-4.004l1.058-0.697c0.872,1.335,1.755,2.663,2.657,3.992L1910.99,410.578z
			 M1998.762,409.725l-1.25-0.18c0.228-1.563,0.433-3.144,0.607-4.737l1.262,0.144
			C1999.195,406.557,1998.99,408.15,1998.762,409.725z M1905.736,402.517c-0.854-1.365-1.689-2.735-2.507-4.118l1.094-0.637
			c0.806,1.371,1.641,2.729,2.483,4.082L1905.736,402.517z M1999.85,400.149l-1.262-0.096c0.12-1.575,0.229-3.168,0.313-4.773
			l1.262,0.06C2000.079,396.957,1999.97,398.562,1999.85,400.149z M1900.813,394.24c-0.787-1.401-1.557-2.801-2.326-4.214
			l1.118-0.601c0.757,1.401,1.527,2.801,2.314,4.19L1900.813,394.24z M2000.343,390.525l-1.262-0.024
			c0.03-1.316,0.042-2.639,0.042-3.967v-0.817h1.262v0.817C2000.385,387.874,2000.373,389.208,2000.343,390.525z M1896.256,385.758
			c-0.727-1.437-1.443-2.879-2.128-4.322l1.142-0.541c0.685,1.431,1.389,2.862,2.116,4.286L1896.256,385.758z M1999.033,380.936
			c-0.048-1.587-0.12-3.18-0.21-4.785l1.262-0.072c0.09,1.617,0.162,3.222,0.21,4.821L1999.033,380.936z M1892.115,377.059
			c-0.655-1.473-1.298-2.952-1.918-4.43l1.166-0.493c0.619,1.479,1.25,2.946,1.906,4.406L1892.115,377.059z M1998.498,371.366
			c-0.126-1.581-0.271-3.168-0.439-4.767l1.262-0.132c0.168,1.611,0.313,3.21,0.439,4.803L1998.498,371.366z M1888.4,368.144
			c-0.583-1.497-1.142-3-1.677-4.514l1.19-0.421c0.535,1.503,1.094,2.994,1.665,4.479L1888.4,368.144z M1997.524,361.826
			c-0.198-1.563-0.415-3.144-0.649-4.743l1.25-0.18c0.234,1.599,0.451,3.192,0.649,4.767L1997.524,361.826z M1885.165,359.085
			c-0.493-1.521-0.974-3.048-1.425-4.587l1.214-0.361c0.451,1.527,0.92,3.042,1.413,4.551L1885.165,359.085z M1996.141,352.352
			c-0.259-1.593-0.529-3.168-0.806-4.731l1.25-0.216c0.276,1.563,0.547,3.15,0.805,4.743L1996.141,352.352z M1882.442,349.864
			c-0.409-1.551-0.794-3.108-1.16-4.665l1.226-0.289c0.367,1.545,0.751,3.09,1.16,4.629L1882.442,349.864z M1994.47,342.915
			c-0.307-1.587-0.619-3.15-0.938-4.701l1.238-0.253c0.319,1.551,0.631,3.126,0.938,4.713L1994.47,342.915z M1880.254,340.504
			c-0.319-1.569-0.619-3.144-0.896-4.731l1.25-0.216c0.276,1.575,0.565,3.138,0.884,4.695L1880.254,340.504z M1992.522,333.525
			c-0.355-1.581-0.709-3.132-1.076-4.671l1.226-0.289c0.367,1.539,0.733,3.102,1.088,4.683L1992.522,333.525z M1878.619,330.988
			l0.631-0.072l-0.637-0.006c-0.228-1.617-0.427-3.156-0.613-4.689l1.262-0.144c0.174,1.521,0.373,3.048,0.589,4.593l0.03,0.174
			L1878.619,330.988z M1990.286,324.207c-0.409-1.569-0.823-3.108-1.238-4.629l1.214-0.337c0.427,1.521,0.842,3.072,1.25,4.641
			L1990.286,324.207z M1877.507,321.43c-0.144-1.623-0.265-3.222-0.367-4.803l1.262-0.084c0.102,1.569,0.222,3.168,0.367,4.779
			L1877.507,321.43z M1987.731,314.974c-0.463-1.551-0.932-3.078-1.413-4.575l1.202-0.385c0.481,1.509,0.962,3.036,1.425,4.599
			L1987.731,314.974z M1876.912,311.812c-0.054-1.635-0.084-3.24-0.084-4.827h1.262c0,1.575,0.03,3.168,0.084,4.779
			L1876.912,311.812z M1984.81,305.842c-0.517-1.527-1.052-3.03-1.599-4.503l1.19-0.445c0.547,1.485,1.082,3,1.611,4.538
			L1984.81,305.842z M1878.156,302.2l-1.262-0.036c0.048-1.641,0.126-3.246,0.234-4.821l1.262,0.084
			C1878.282,298.99,1878.204,300.583,1878.156,302.2z M1981.497,296.862c-0.595-1.509-1.196-2.982-1.809-4.424l1.166-0.493
			c0.613,1.455,1.226,2.94,1.821,4.46L1981.497,296.862z M1878.787,292.666l-1.262-0.132c0.168-1.629,0.373-3.228,0.601-4.791
			l1.25,0.18C1879.148,289.474,1878.956,291.048,1878.787,292.666z M1977.758,288.061c-0.667-1.473-1.353-2.916-2.044-4.322
			l1.13-0.565c0.703,1.419,1.389,2.873,2.068,4.358L1977.758,288.061z M1880.158,283.222l-1.238-0.241
			c0.301-1.593,0.643-3.186,1.016-4.725l1.226,0.3C1880.801,280.072,1880.464,281.641,1880.158,283.222z M1973.538,279.471
			c-0.757-1.431-1.533-2.825-2.308-4.184l1.094-0.625c0.787,1.371,1.563,2.777,2.332,4.22L1973.538,279.471z M1882.394,273.946
			l-1.214-0.361c0.463-1.575,0.974-3.12,1.509-4.599l1.19,0.433C1883.35,270.874,1882.851,272.395,1882.394,273.946z
			 M1968.777,271.193c-0.866-1.383-1.731-2.717-2.609-4.01l1.046-0.709c0.89,1.305,1.767,2.651,2.633,4.046L1968.777,271.193z
			 M1885.634,264.995l-1.166-0.505c0.661-1.521,1.359-2.994,2.086-4.376l1.118,0.589
			C1886.963,262.056,1886.277,263.504,1885.634,264.995z M1963.409,263.294c-0.986-1.316-1.978-2.585-2.94-3.757l0.974-0.805
			c0.98,1.19,1.978,2.471,2.976,3.805L1963.409,263.294z M1890.023,256.579l-1.07-0.673c0.854-1.371,1.779-2.717,2.747-3.997
			l1.01,0.757C1891.766,253.922,1890.858,255.239,1890.023,256.579z M1957.35,255.93c-1.076-1.172-2.188-2.326-3.312-3.427
			l0.89-0.902c1.136,1.112,2.266,2.284,3.36,3.475L1957.35,255.93z M1950.533,249.3c-1.262-1.076-2.519-2.068-3.721-2.958
			l0.745-1.022c1.232,0.908,2.507,1.924,3.793,3.018L1950.533,249.3z M1895.739,249.029l-0.926-0.854
			c1.1-1.196,2.272-2.338,3.487-3.39l0.83,0.95C1897.952,246.763,1896.809,247.869,1895.739,249.029z M1942.88,243.679
			c-1.353-0.836-2.741-1.611-4.148-2.302l0.565-1.13c1.437,0.709,2.867,1.503,4.25,2.362L1942.88,243.679z M1902.881,242.855
			l-0.709-1.046c1.359-0.914,2.777-1.743,4.214-2.459l0.565,1.13C1905.562,241.172,1904.191,241.972,1902.881,242.855z
			 M1934.398,239.501c-1.509-0.553-3.024-1.022-4.515-1.389l0.301-1.226c1.539,0.373,3.102,0.854,4.647,1.425L1934.398,239.501z
			 M1911.303,238.702l-0.397-1.202c1.557-0.511,3.15-0.908,4.743-1.19l0.216,1.25C1914.333,237.824,1912.8,238.209,1911.303,238.702
			z M1925.249,237.295c-1.593-0.18-3.186-0.247-4.713-0.204l-0.024-1.262c1.599-0.018,3.234,0.024,4.881,0.204L1925.249,237.295z"/>
	</g>
	<g>
		<path style="fill:#FFFFFF;" d="M2290.276,592.963c5.604-16.859,8.575-34.061,9.024-51.812c0.103-4.073-6.224-4.071-6.327,0
			c-0.434,17.195-3.376,33.819-8.798,50.13C2282.887,595.154,2288.996,596.814,2290.276,592.963L2290.276,592.963z"/>
	</g>
	<g>
		<path style="fill:#FFFFFF;" d="M2341.342,629.197c20.277-21.11,41.4-41.336,63.368-60.68c3.062-2.696-1.427-7.157-4.474-4.474
			c-21.969,19.344-43.091,39.57-63.368,60.68C2334.046,627.66,2338.514,632.14,2341.342,629.197L2341.342,629.197z"/>
	</g>
	<g>
		<path style="fill:#FFFFFF;" d="M2365.896,694.873c13.367-3.83,26.735-7.661,40.103-11.491c3.907-1.12,2.246-7.227-1.682-6.101
			c-13.367,3.83-26.735,7.661-40.103,11.491C2360.307,689.892,2361.968,695.999,2365.896,694.873L2365.896,694.873z"/>
	</g>
</g>
</svg>
