<?xml version="1.0" encoding="utf-8"?>
<!-- Generator: Adobe Illustrator 27.5.0, SVG Export Plug-In . SVG Version: 6.00 Build 0)  -->
<svg version="1.1" id="Layer_1" xmlns="http://www.w3.org/2000/svg" xmlns:xlink="http://www.w3.org/1999/xlink" x="0px" y="0px"
	 viewBox="0 0 3000 2000" style="enable-background:new 0 0 3000 2000;" xml:space="preserve">
<rect style="fill:#FFFFFF;" width="3000" height="2000"/>
<path style="fill:#F6F9FF;" d="M2234.29,475.317c-11.824,42.76-8.463,91.281-6.974,134.59c1.838,53.49,12.596,107.242,33.79,156.483
	c38.996,90.603,114.858,167.227,209.188,196.063c45.35,13.863,96.192,16.177,138.878-4.481
	c41.578-20.122,71.225-60.413,85.18-104.445c17.955-56.652,9.204-124.754-33.901-165.666c-46.28-43.926-121.451-49.315-162.67-98.02
	c-20.065-23.709-29.161-54.568-44.347-81.662c-18.716-33.392-47.17-61.25-80.951-79.256c-30.499-16.256-77.959-26.572-108.389-4.561
	c-11.713,8.472-19.323,21.538-24.548,35.017C2237.527,464.585,2235.787,469.905,2234.29,475.317z"/>
<g>
	<g>
		<circle style="fill:#EAF2FC;" cx="428.95" cy="492.266" r="24.241"/>
		<circle style="fill:#EAF2FC;" cx="538.81" cy="492.266" r="24.241"/>
		<circle style="fill:#EAF2FC;" cx="648.67" cy="492.266" r="24.241"/>
		<circle style="fill:#EAF2FC;" cx="758.53" cy="492.266" r="24.241"/>
	</g>
	<g>
		
			<ellipse transform="matrix(0.1614 -0.9869 0.9869 0.1614 -212.1523 909.2673)" style="fill:#EAF2FC;" cx="428.95" cy="579.467" rx="24.241" ry="24.241"/>
		
			<ellipse transform="matrix(0.1602 -0.9871 0.9871 0.1602 -119.4826 1018.4993)" style="fill:#EAF2FC;" cx="538.81" cy="579.467" rx="24.241" ry="24.241"/>
		
			<ellipse transform="matrix(0.1614 -0.9869 0.9869 0.1614 -27.8954 1126.1062)" style="fill:#EAF2FC;" cx="648.67" cy="579.467" rx="24.241" ry="24.241"/>
		
			<ellipse transform="matrix(0.1614 -0.9869 0.9869 0.1614 64.233 1234.5256)" style="fill:#EAF2FC;" cx="758.53" cy="579.467" rx="24.241" ry="24.241"/>
	</g>
	<g>
		
			<ellipse transform="matrix(0.1614 -0.9869 0.9869 0.1614 -298.2101 982.3942)" style="fill:#EAF2FC;" cx="428.95" cy="666.668" rx="24.241" ry="24.241"/>
		
			<ellipse transform="matrix(0.1602 -0.9871 0.9871 0.1602 -205.5578 1091.7323)" style="fill:#EAF2FC;" cx="538.81" cy="666.668" rx="24.241" ry="24.241"/>
		
			<ellipse transform="matrix(0.1614 -0.9869 0.9869 0.1614 -113.9532 1199.233)" style="fill:#EAF2FC;" cx="648.67" cy="666.668" rx="24.241" ry="24.241"/>
		
			<ellipse transform="matrix(0.1614 -0.9869 0.9869 0.1614 -21.8248 1307.6525)" style="fill:#EAF2FC;" cx="758.53" cy="666.668" rx="24.241" ry="24.241"/>
	</g>
	<g>
		
			<ellipse transform="matrix(0.9215 -0.3884 0.3884 0.9215 -259.1282 225.7923)" style="fill:#EAF2FC;" cx="428.95" cy="753.869" rx="24.241" ry="24.241"/>
		
			<ellipse transform="matrix(0.9239 -0.3827 0.3827 0.9239 -247.4787 263.5783)" style="fill:#EAF2FC;" cx="538.81" cy="753.869" rx="24.241" ry="24.241"/>
		
			<ellipse transform="matrix(0.9215 -0.3884 0.3884 0.9215 -241.8779 311.1321)" style="fill:#EAF2FC;" cx="648.67" cy="753.869" rx="24.241" ry="24.241"/>
		
			<ellipse transform="matrix(0.9215 -0.3884 0.3884 0.9215 -233.2528 353.8021)" style="fill:#EAF2FC;" cx="758.53" cy="753.869" rx="24.241" ry="24.241"/>
	</g>
	<g>
		
			<ellipse transform="matrix(0.9215 -0.3884 0.3884 0.9215 -292.9974 232.6385)" style="fill:#EAF2FC;" cx="428.95" cy="841.07" rx="24.241" ry="24.241"/>
		
			<ellipse transform="matrix(0.9239 -0.3827 0.3827 0.9239 -280.8491 270.2161)" style="fill:#EAF2FC;" cx="538.81" cy="841.07" rx="24.241" ry="24.241"/>
		
			<ellipse transform="matrix(0.9215 -0.3884 0.3884 0.9215 -275.7471 317.9784)" style="fill:#EAF2FC;" cx="648.67" cy="841.07" rx="24.241" ry="24.241"/>
		
			<ellipse transform="matrix(0.9215 -0.3884 0.3884 0.9215 -267.122 360.6483)" style="fill:#EAF2FC;" cx="758.53" cy="841.07" rx="24.241" ry="24.241"/>
	</g>
	<g>
		<circle style="fill:#EAF2FC;" cx="428.95" cy="928.271" r="24.241"/>
		<circle style="fill:#EAF2FC;" cx="538.81" cy="928.271" r="24.241"/>
		<circle style="fill:#EAF2FC;" cx="648.67" cy="928.271" r="24.241"/>
		<circle style="fill:#EAF2FC;" cx="758.53" cy="928.271" r="24.241"/>
	</g>
	<g>
		<circle style="fill:#EAF2FC;" cx="428.95" cy="1015.473" r="24.241"/>
		<circle style="fill:#EAF2FC;" cx="538.81" cy="1015.473" r="24.241"/>
		<circle style="fill:#EAF2FC;" cx="648.67" cy="1015.473" r="24.241"/>
		<circle style="fill:#EAF2FC;" cx="758.53" cy="1015.473" r="24.241"/>
	</g>
</g>
<g>
	<defs>
		<path id="XMLID_66_" d="M371.19,1812.445h2250.72c38.659-99.97,80.775-203.129,92.255-309.697
			c11.479-106.568-7.614-220.74-74.823-304.235c-61.475-76.372-154.642-118.427-235.231-174.259
			c-80.866-56.025-150.803-127.761-204.757-210.023c-63.936-97.482-105.811-209.655-181.634-298.207
			c-58.94-68.834-136.131-120.308-218.294-158.535c-158.588-73.785-360.312-94.717-498.275,12.802
			c-75.513,58.849-121.584,148.438-148.744,240.241c-27.16,91.803-37.571,187.579-55.571,281.608
			c-27.891,145.692-91.156,306.391-230.818,356.378c-118.26,42.327-257.259-9.503-371.484,42.744
			c-48.891,22.363-88.155,62.136-118.25,106.687C295.291,1517.843,317.707,1678.005,371.19,1812.445z"/>
	</defs>
	<use xlink:href="#XMLID_66_"  style="overflow:visible;fill:#F6F9FF;"/>
	<clipPath id="XMLID_00000119801129183608346670000011989281571964274576_">
		<use xlink:href="#XMLID_66_"  style="overflow:visible;"/>
	</clipPath>
	<path style="opacity:0.21;clip-path:url(#XMLID_00000119801129183608346670000011989281571964274576_);fill:#D4DFFF;" d="
		M250.733,1414.781c28.062-51.859,83.642-85.069,141.531-96.283c57.888-11.214,117.99-2.667,174.827,13.027
		c110.292,30.454,212.975,88.081,296.428,166.36c71.537,67.102,133.739,152.042,226.871,182.813
		c75.828,25.053,159.576,8.861,233.72-20.806c74.145-29.667,142.537-72.26,216.409-102.6
		c185.287-76.098,396.554-70.57,589.941-18.382c193.386,52.189,371.851,148.3,543.991,250.72c0,2.415-5.744-1.659-5.744,0.756
		v72.822H237.537L250.733,1414.781z"/>
</g>
<path style="fill:#EAF2FC;" d="M2205.055,1814.164h139.766c124.4,0,199.547-153.845,250.053-267.531
	c-85.21,22.71-166.136,64.802-231.155,124.377c53.284-113.81,78.366-240.697,72.392-366.22
	c-66.367,73.971-118.25,162.137-149.961,256.322c-0.187-152.74-10.4-311.608-84.275-445.294
	c-36.411,157.623-72.297,322.219-44.988,481.672C2168.89,1667.577,2180.474,1747.439,2205.055,1814.164z"/>
<g>
	<path style="fill:#6880E4;" d="M759.714,1155.779c-7.159,1.9-219.281,177.238-219.281,177.238l28.684,191.306l468.855-70.299
		l-28.684-191.306C1009.288,1262.719,766.873,1153.879,759.714,1155.779z"/>
	<g>
		<path style="fill:#EAF2FC;" d="M967.269,1467.438l-342.18,51.305c-7.235,1.085-13.98-3.901-15.065-11.136l-41.97-279.919
			c-1.085-7.235,3.901-13.98,11.136-15.065l342.18-51.306c7.235-1.085,13.98,3.901,15.065,11.136l41.97,279.919
			C979.49,1459.609,974.504,1466.354,967.269,1467.438z"/>
		<g>
			<path style="fill:#FFFFFF;" d="M905.567,1231.637l-290.645,43.578c-1.491,0.224-2.881-0.804-3.105-2.295l-1.703-11.356
				c-0.224-1.491,0.804-2.881,2.295-3.105l290.645-43.578c1.491-0.224,2.881,0.804,3.105,2.295l1.703,11.356
				C908.085,1230.023,907.058,1231.413,905.567,1231.637z"/>
			<path style="fill:#FFFFFF;" d="M909.953,1260.891l-290.645,43.578c-1.491,0.224-2.881-0.804-3.105-2.295l-1.703-11.356
				c-0.224-1.491,0.804-2.881,2.295-3.105l290.645-43.578c1.491-0.224,2.881,0.804,3.105,2.295l1.703,11.356
				C912.472,1259.277,911.444,1260.667,909.953,1260.891z"/>
			<path style="fill:#FFFFFF;" d="M914.339,1290.145l-290.645,43.578c-1.491,0.224-2.881-0.804-3.105-2.295l-1.703-11.356
				c-0.224-1.491,0.804-2.881,2.295-3.105l290.645-43.578c1.491-0.224,2.881,0.804,3.105,2.295l1.703,11.356
				C916.858,1288.532,915.83,1289.922,914.339,1290.145z"/>
			<path style="fill:#FFFFFF;" d="M918.725,1319.4l-290.645,43.578c-1.491,0.224-2.881-0.804-3.105-2.295l-1.703-11.356
				c-0.224-1.491,0.804-2.881,2.295-3.105l290.645-43.578c1.491-0.224,2.881,0.804,3.105,2.295l1.703,11.356
				C921.244,1317.786,920.217,1319.176,918.725,1319.4z"/>
			<path style="fill:#FFFFFF;" d="M923.112,1348.654l-290.645,43.578c-1.491,0.224-2.881-0.804-3.105-2.295l-1.703-11.356
				c-0.224-1.491,0.804-2.881,2.295-3.105l290.645-43.578c1.491-0.224,2.881,0.804,3.105,2.295l1.703,11.356
				C925.63,1347.04,924.603,1348.43,923.112,1348.654z"/>
			<path style="fill:#FFFFFF;" d="M927.498,1377.908l-290.645,43.578c-1.491,0.224-2.881-0.804-3.105-2.295l-1.703-11.356
				c-0.224-1.491,0.804-2.881,2.295-3.105l290.645-43.578c1.491-0.224,2.881,0.804,3.105,2.295l1.703,11.356
				C930.017,1376.295,928.989,1377.685,927.498,1377.908z"/>
		</g>
		<g>
			<path style="fill:#D4DFFF;" d="M544.54,1360.407c0,0,229.94,103.893,249.988,97.895s218.867-168.193,218.867-168.193
				L1058.81,1593c0.908,6.055-3.265,11.699-9.319,12.607l-446.93,67.011c-6.055,0.908-11.699-3.265-12.607-9.319L544.54,1360.407z"
				/>
			<g>
				<path style="fill:#8C9EF4;" d="M700.878,1533.891l-102.404,15.354c-1.387,0.208-2.679-0.748-2.887-2.134l-4.372-29.159
					c-0.208-1.387,0.748-2.679,2.134-2.887l102.404-15.354c1.387-0.208,2.679,0.748,2.887,2.134l4.372,29.159
					C703.22,1532.391,702.265,1533.683,700.878,1533.891z"/>
				<g>
					<path style="fill:#8C9EF4;" d="M1013.855,1465.371l-154.76,23.204c-0.947,0.142-1.83-0.51-1.972-1.458l-1.444-9.633
						c-0.142-0.947,0.51-1.83,1.457-1.972l154.76-23.204c0.947-0.142,1.83,0.51,1.972,1.457l1.444,9.633
						C1015.455,1464.346,1014.802,1465.229,1013.855,1465.371z"/>
					<path style="fill:#EAF2FC;" d="M1016.693,1484.297l-154.76,23.204c-0.947,0.142-1.83-0.51-1.972-1.458l-1.444-9.633
						c-0.142-0.947,0.511-1.83,1.458-1.972l154.76-23.204c0.947-0.142,1.83,0.51,1.972,1.458l1.444,9.633
						C1018.292,1483.272,1017.64,1484.155,1016.693,1484.297z"/>
					<path style="fill:#EAF2FC;" d="M1019.531,1503.223l-154.76,23.204c-0.947,0.142-1.83-0.51-1.972-1.458l-1.444-9.633
						c-0.142-0.947,0.511-1.83,1.458-1.972l154.76-23.204c0.947-0.142,1.83,0.51,1.972,1.458l1.444,9.633
						C1021.13,1502.198,1020.477,1503.08,1019.531,1503.223z"/>
					<path style="fill:#EAF2FC;" d="M1022.368,1522.148l-154.76,23.204c-0.947,0.142-1.83-0.51-1.972-1.458l-1.444-9.633
						c-0.142-0.947,0.51-1.83,1.457-1.972l154.76-23.204c0.947-0.142,1.83,0.51,1.972,1.457l1.444,9.633
						C1023.968,1521.124,1023.315,1522.006,1022.368,1522.148z"/>
				</g>
			</g>
		</g>
	</g>
</g>
<path style="fill:#EAF2FC;" d="M1545.954,1812.445c-0.501-30.144-1.001-60.803-1.502-90.947
	c-0.845-50.863-1.752-102.23-13.845-151.641c-13.767-56.25-41.516-107.923-68.993-158.9
	c-30.031-55.715-60.062-111.431-90.093-167.146c-28.058,91.339-56.337,188.25-33.235,280.967
	c-40.326-47.315-84.943-90.972-133.125-130.258c13.587,103.247,66.527,200.824,145.676,268.501
	c-42.927-23.915-90.251-39.908-138.886-46.936c68.026,98.579,173.052,167.873,289.386,196.361H1545.954z"/>
<g>
	<path style="fill:#D40221;" d="M2716.295,1384.856h-51.076c-7.105-38.752-22.261-75.34-44.638-107.767l36.116-36.116
		c4.546-4.546,4.546-11.917,0-16.463l-55.97-55.97c-4.546-4.546-11.917-4.546-16.463,0l-36.116,36.116
		c-32.427-22.378-69.015-37.533-107.767-44.639v-51.075c0-6.429-5.212-11.641-11.641-11.641h-79.154
		c-6.429,0-11.641,5.212-11.641,11.641v51.075c-38.752,7.105-75.341,22.261-107.767,44.639l-36.116-36.116
		c-4.546-4.546-11.917-4.546-16.463,0l-55.97,55.97c-4.546,4.546-4.546,11.917,0,16.463l36.116,36.116
		c-22.378,32.427-37.533,69.015-44.638,107.767h-51.076c-6.429,0-11.641,5.212-11.641,11.641v79.153
		c0,6.429,5.212,11.641,11.641,11.641h51.076c7.105,38.752,22.261,75.341,44.638,107.767l-36.116,36.116
		c-4.546,4.546-4.546,11.917,0,16.463l55.97,55.97c4.546,4.546,11.917,4.546,16.463,0l36.116-36.116
		c32.427,22.378,69.015,37.534,107.767,44.639v51.075c0,6.429,5.212,11.641,11.641,11.641h79.154
		c6.429,0,11.641-5.212,11.641-11.641v-51.075c38.752-7.106,75.341-22.261,107.767-44.639l36.116,36.116
		c4.546,4.546,11.917,4.546,16.463,0l55.97-55.97c4.546-4.546,4.546-11.917,0-16.463l-36.116-36.116
		c22.377-32.427,37.533-69.015,44.638-107.767h51.076c6.429,0,11.641-5.212,11.641-11.641v-79.153
		C2727.936,1390.068,2722.724,1384.856,2716.295,1384.856z M2389.162,1623.55c-103.374,0-187.475-84.101-187.475-187.476
		s84.101-187.476,187.475-187.476c103.375,0,187.476,84.101,187.476,187.476S2492.537,1623.55,2389.162,1623.55z"/>
	<g>
		<defs>
			<path id="XMLID_65_" d="M2698.205,1384.856h-51.076c-7.105-38.752-22.261-75.34-44.638-107.767l36.116-36.116
				c4.546-4.546,4.546-11.917,0-16.463l-55.97-55.97c-4.546-4.546-11.917-4.546-16.463,0l-36.116,36.116
				c-32.427-22.378-69.015-37.533-107.767-44.639v-51.075c0-6.429-5.212-11.641-11.641-11.641h-79.154
				c-6.429,0-11.641,5.212-11.641,11.641v51.075c-38.752,7.105-75.341,22.261-107.767,44.639l-36.116-36.116
				c-4.546-4.546-11.917-4.546-16.463,0l-55.97,55.97c-4.546,4.546-4.546,11.917,0,16.463l36.116,36.116
				c-22.377,32.427-37.533,69.015-44.638,107.767h-51.076c-6.429,0-11.641,5.212-11.641,11.641v79.153
				c0,6.429,5.212,11.641,11.641,11.641h51.076c7.105,38.752,22.261,75.341,44.638,107.767l-36.116,36.116
				c-4.546,4.546-4.546,11.917,0,16.463l55.97,55.97c4.546,4.546,11.917,4.546,16.463,0l36.116-36.116
				c32.427,22.378,69.015,37.534,107.767,44.639v51.075c0,6.429,5.212,11.641,11.641,11.641h79.154
				c6.429,0,11.641-5.212,11.641-11.641v-51.075c38.753-7.106,75.341-22.261,107.767-44.639l36.116,36.116
				c4.546,4.546,11.917,4.546,16.463,0l55.97-55.97c4.546-4.546,4.546-11.917,0-16.463l-36.116-36.116
				c22.378-32.427,37.533-69.015,44.638-107.767h51.076c6.429,0,11.641-5.212,11.641-11.641v-79.153
				C2709.846,1390.068,2704.635,1384.856,2698.205,1384.856z M2371.073,1623.55c-103.374,0-187.475-84.101-187.475-187.476
				s84.101-187.476,187.475-187.476c103.375,0,187.476,84.101,187.476,187.476S2474.447,1623.55,2371.073,1623.55z"/>
		</defs>
		<use xlink:href="#XMLID_65_"  style="overflow:visible;fill:#FC476A;"/>
		<clipPath id="XMLID_00000122707637204028702010000006895464227686076071_">
			<use xlink:href="#XMLID_65_"  style="overflow:visible;"/>
		</clipPath>
		<path style="clip-path:url(#XMLID_00000122707637204028702010000006895464227686076071_);fill:#D40221;" d="M2290.075,1115.817
			c0,0,3.806,672.989,0,672.989s-249.323-1.903-249.323-1.903v-680.371L2290.075,1115.817z"/>
	</g>
</g>
<g>
	<g>
		<g>
			<path style="fill:#6880E4;" d="M2224.446,1812.445h-705.971c-16.368,0-29.638-13.269-29.638-29.638V529.205
				c0-16.369,13.269-29.638,29.638-29.638h705.971c16.368,0,29.638,13.269,29.638,29.638v1253.602
				C2254.084,1799.176,2240.815,1812.445,2224.446,1812.445z"/>
			<g>
				<defs>
					<path id="XMLID_64_" d="M2153.881,1691.111h-591.873c-13.723,0-24.848-11.125-24.848-24.848V615.266
						c0-13.723,11.125-24.848,24.848-24.848h591.873c13.723,0,24.848,11.125,24.848,24.848v1050.997
						C2178.729,1679.986,2167.604,1691.111,2153.881,1691.111z"/>
				</defs>
				<use xlink:href="#XMLID_64_"  style="overflow:visible;fill:#FFFFFF;"/>
				<clipPath id="XMLID_00000116206306723611597700000009181984786838370483_">
					<use xlink:href="#XMLID_64_"  style="overflow:visible;"/>
				</clipPath>
				<path style="clip-path:url(#XMLID_00000116206306723611597700000009181984786838370483_);fill:#D4DFFF;" d="M2279.394,1140.765
					c0,0-79.597-129.629-272.723-15.774s-669.274,406.854-669.274,406.854v174.957h958.86L2279.394,1140.765z"/>
			</g>
		</g>
		<g>
			<g>
				<circle style="fill:#EAF2FC;" cx="1988.581" cy="653.444" r="18.09"/>
				<circle style="fill:#EAF2FC;" cx="2050.389" cy="653.444" r="18.09"/>
				<circle style="fill:#EAF2FC;" cx="2112.197" cy="653.444" r="18.09"/>
			</g>
			<g>
				<circle style="fill:#EAF2FC;" cx="1988.581" cy="719.655" r="18.09"/>
				<circle style="fill:#EAF2FC;" cx="2050.389" cy="719.655" r="18.09"/>
				<circle style="fill:#EAF2FC;" cx="2112.197" cy="719.655" r="18.09"/>
			</g>
			<g>
				
					<ellipse transform="matrix(0.9239 -0.3827 0.3827 0.9239 -149.3662 820.8184)" style="fill:#EAF2FC;" cx="1988.581" cy="785.866" rx="18.09" ry="18.09"/>
				
					<ellipse transform="matrix(0.9239 -0.3827 0.3827 0.9239 -144.6613 844.4713)" style="fill:#EAF2FC;" cx="2050.389" cy="785.866" rx="18.09" ry="18.09"/>
				
					<ellipse transform="matrix(0.2298 -0.9732 0.9732 0.2298 862.0695 2661.0044)" style="fill:#EAF2FC;" cx="2112.197" cy="785.866" rx="18.09" ry="18.09"/>
			</g>
			<g>
				<circle style="fill:#EAF2FC;" cx="1988.581" cy="852.077" r="18.09"/>
				<circle style="fill:#EAF2FC;" cx="2050.389" cy="852.077" r="18.09"/>
				<circle style="fill:#EAF2FC;" cx="2112.197" cy="852.077" r="18.09"/>
			</g>
			<g>
				<circle style="fill:#EAF2FC;" cx="1988.581" cy="918.288" r="18.09"/>
				<circle style="fill:#EAF2FC;" cx="2050.389" cy="918.288" r="18.09"/>
				<circle style="fill:#EAF2FC;" cx="2112.197" cy="918.288" r="18.09"/>
			</g>
		</g>
	</g>
	<g>
		<path style="fill:#1B3D9E;" d="M1979.707,1776.34h-141.91c-12.611,0-22.834-10.223-22.834-22.834v-12.689
			c0-12.611,10.223-22.834,22.834-22.834h141.91c12.611,0,22.834,10.223,22.834,22.834v12.689
			C2002.541,1766.117,1992.318,1776.34,1979.707,1776.34z"/>
		<g>
			<g>
				<defs>
					<path id="XMLID_63_" d="M1423.944,1455.78c0,0,4.402,285.39,94.531,356.665h220.784c0,0,36.887-267.707-64.707-339.788
						L1423.944,1455.78z"/>
				</defs>
				<use xlink:href="#XMLID_63_"  style="overflow:visible;fill:#1B3D9E;"/>
				<clipPath id="XMLID_00000036250415149730862670000013144740294493714320_">
					<use xlink:href="#XMLID_63_"  style="overflow:visible;"/>
				</clipPath>
				<path style="clip-path:url(#XMLID_00000036250415149730862670000013144740294493714320_);fill:#1C056D;" d="M1544.692,1828.474
					c0-4.291-27.889-273.523-39.688-284.249c-11.799-10.726-8.581,283.176,5.363,286.394
					C1524.312,1833.837,1544.692,1828.474,1544.692,1828.474z"/>
			</g>
			<g>
				<g>
					<defs>
						<path id="XMLID_62_" d="M1531.386,977.224c0,0-162.19,88.778-212.73,125.136c-91.208,65.614,11.126-194.51-5.171-205.632
							c-16.298-11.122-132.994-12.59-150.318,19.002c-17.324,31.591-67.134,355.974,52.097,347.822
							c119.231-8.153,244.031-65.399,244.031-65.399S1560.991,1027.39,1531.386,977.224z"/>
					</defs>
					<use xlink:href="#XMLID_62_"  style="overflow:visible;fill:#F9C438;"/>
					<clipPath id="XMLID_00000021807874083547130820000013569501185268553126_">
						<use xlink:href="#XMLID_62_"  style="overflow:visible;"/>
					</clipPath>
					<path style="clip-path:url(#XMLID_00000021807874083547130820000013569501185268553126_);fill:#F6AB36;" d="M1325.74,1097.414
						c0,0-83.546,86.57-83.546,70.908c0-15.662,39.913-106.627,39.913-106.627S1293.879,1107.292,1325.74,1097.414"/>
					<path style="clip-path:url(#XMLID_00000021807874083547130820000013569501185268553126_);fill:#F6AB36;" d="M1205.444,889.509
						c0,0-18.265,44.412-6.575,56.102c11.689,11.689,71.538,24.109,81.065,18.995c9.527-5.114,29.253-75.097,29.253-75.097
						S1234.668,879.434,1205.444,889.509z"/>
				</g>
				<g>
					<defs>
						<path id="XMLID_61_" d="M1655.756,949.471c0,0,127.729,112.002,120.058,184.112c-7.671,72.111-76.714,326.799-101.262,339.073
							c-24.548,12.274-225.049,30.685-250.609-16.877c-25.56-47.562-2.546-366.69,31.208-418.856
							c33.754-52.165,102.839-69.032,102.839-69.032L1655.756,949.471z"/>
					</defs>
					<use xlink:href="#XMLID_61_"  style="overflow:visible;fill:#F9C438;"/>
					<clipPath id="XMLID_00000016068753539173138500000017128082758093349564_">
						<use xlink:href="#XMLID_61_"  style="overflow:visible;"/>
					</clipPath>
					<path style="clip-path:url(#XMLID_00000016068753539173138500000017128082758093349564_);fill:#FFFFFF;" d="M1408.022,1229.159
						c0,0,137.209,64.14,345.725,40.371l-4.322,39.974c0,0-280.901,20.845-353.287-46.838L1408.022,1229.159z"/>
					<path style="clip-path:url(#XMLID_00000016068753539173138500000017128082758093349564_);fill:#FFFFFF;" d="M1400.545,1310.116
						c0,0,133.12,48.206,286.754,36.781l-8.741,31.087c0,0-203.362,17.632-283.296-38.792L1400.545,1310.116z"/>
				</g>
				<path style="fill:#F6AB36;" d="M1420.48,1214.077c0,0,7.706-81.011,31.321-142.291c0,0-64.037,60.133-73.946,157.373
					C1377.855,1229.159,1399.399,1221.279,1420.48,1214.077z"/>
				<path style="fill:#FFFFFF;" d="M1544.091,989.38c0,0-1.295,11.365,2.72,12.151s52.177-1.953,100.19-24.306l9.701,5.876
					c0,0-66.119,35.085-103.23,30.649C1516.361,1009.314,1544.091,989.38,1544.091,989.38z"/>
				<g>
					<g>
						<defs>
							<path id="XMLID_60_" d="M1577.919,694.676c-12.234,1.548-24.576,3.12-36.21,7.207s-22.663,10.941-29.595,21.139
								c-10.084,14.836-10.192,34.348-18.132,50.434c-9.839,19.932-30.607,32.582-41.183,52.133
								c-5.898,10.902-8.298,23.81-5.894,35.97c3.283,16.612,15.164,30.564,29.371,39.779c14.207,9.214,30.664,14.272,47.034,18.603
								c32.812,8.68,66.278,14.889,100.021,18.556c12.481-28.058,22.222-57.253,30.459-86.837
								c10.172-36.532,16.859-76.275,3.5-111.766c-3.547-9.424-8.542-18.447-15.676-25.553
								C1626.119,698.911,1599.613,691.931,1577.919,694.676z"/>
						</defs>
						<use xlink:href="#XMLID_60_"  style="overflow:visible;fill:#1B3D9E;"/>
						<clipPath id="XMLID_00000104678459466256930850000014452923967995528842_">
							<use xlink:href="#XMLID_60_"  style="overflow:visible;"/>
						</clipPath>
						<path style="opacity:0.24;clip-path:url(#XMLID_00000104678459466256930850000014452923967995528842_);fill:#1C056D;" d="
							M1515.42,742.472c0,0-70.506,122.89-26.583,156.816c43.923,33.927,89.151-6.271,89.151-6.271l6.644-155.039L1515.42,742.472z"
							/>
					</g>
					<g>
						<defs>
							<path id="XMLID_59_" d="M1665.049,745.561c-8.856-16.67-49.079-41.616-85.701-42.743
								c-20.645-0.635-39.547,11.56-48.147,30.339c-19.465,42.503-61.779,143.598-32.143,160.183
								c13.195,7.384,30.562,7.664,48.06,4.198c-2.713,27.87-3.385,92.529-2.868,101.31c0.726,12.34,86.782-10.009,102.752-21.624
								c15.97-11.615-26.889-116.368-26.889-116.368C1631.709,844.133,1677.371,768.755,1665.049,745.561z"/>
						</defs>
						<use xlink:href="#XMLID_59_"  style="overflow:visible;fill:#FE8E9C;"/>
						<clipPath id="XMLID_00000173869990019965823300000017227573188464846494_">
							<use xlink:href="#XMLID_59_"  style="overflow:visible;"/>
						</clipPath>
						<path style="clip-path:url(#XMLID_00000173869990019965823300000017227573188464846494_);fill:#E57492;" d="M1547.118,897.537
							c0,0,24.048-9.696,45.035-22.813c0,0-18.109,58.09-54.402,56.591L1547.118,897.537"/>
						<path style="clip-path:url(#XMLID_00000173869990019965823300000017227573188464846494_);fill:#E57492;" d="M1505.683,770.538
							c1.92-0.439,16.852,2.635,44.08-19.762c0,0,10.101,14.492,43.916-6.148l5.27-28.107l-69.827-9.222L1505.683,770.538z"/>
					</g>
					<path style="fill:#E57492;" d="M1557.991,774.226c0,0-47.959,26.363-44.484,33.313s37.533-2.615,41.008-0.877
						s-6.906,9.936-11.585,9.624c-4.679-0.312-37.248,0.522-37.248-8.212C1505.683,799.34,1520.947,786.886,1557.991,774.226z"/>
					<path style="fill:#FFFFFF;" d="M1513.562,834.437c0,0,22.243,12.357,48.604,0c0,0-14.993,20.538-31.03,19.497
						C1509.992,852.561,1513.562,834.437,1513.562,834.437z"/>
					<g>
						<defs>
							<path id="XMLID_58_" d="M1587.954,769.353c5.28,11.501,15.6,20.087,20.955,31.553c9.369,20.062,1.694,43.414-3.688,64.892
								c-7.802,31.137-9.871,66.252,7.396,93.312c11.175,17.513,29.448,29.682,49.054,36.552c19.606,6.87,40.59,8.84,61.36,9.326
								c45.497,1.065,91.15-4.777,134.913-17.266c-9.339-3.576-19.168-7.507-25.243-15.451c-7.791-10.189-7.428-24.16-7.736-36.982
								c-0.513-21.318-3.927-42.779-12.334-62.376c-8.407-19.597-22.054-37.282-40.217-48.454
								c-13.558-8.34-29.757-13.284-40.112-25.372c-11.573-13.51-13.087-32.576-17.142-49.897
								c-3.367-14.379-8.824-28.266-16.146-41.091c-5.026-8.803-11.358-17.476-20.562-21.723
								c-8.707-4.017-18.817-3.516-28.254-1.816c-32.108,5.784-60.832,24.781-65.611,59.626
								C1583.417,752.712,1584.345,761.493,1587.954,769.353z"/>
						</defs>
						<use xlink:href="#XMLID_58_"  style="overflow:visible;fill:#1B3D9E;"/>
						<clipPath id="XMLID_00000139979378416808597790000006206592553152182716_">
							<use xlink:href="#XMLID_58_"  style="overflow:visible;"/>
						</clipPath>
						<path style="opacity:0.24;clip-path:url(#XMLID_00000139979378416808597790000006206592553152182716_);fill:#1C056D;" d="
							M1831.914,945.487c0,0-145.45,70.39-227.028,22.423c0,0,65.399,81.282,178.446,62.596
							c113.047-18.685,115.85-34.824,115.85-34.824L1831.914,945.487z"/>
					</g>
					<path style="fill:#1B3D9E;" d="M1563.291,740.53c-0.885-0.066-1.797-0.161-2.575-0.589c-2.05-1.126-2.311-4.007-1.727-6.271
						c0.583-2.265,1.751-4.447,1.631-6.782c-12.409,16.215-33.15,23.847-53.342,26.88c-1.032,0.155-2.254,0.235-2.942-0.548
						c-0.299-0.341-0.437-0.79-0.563-1.225c-6.108-21.189-0.995-45.276,13.194-62.156c6.96-8.281,15.83-14.785,25.225-20.146
						c26.259-14.982,58.797-21.246,87.177-10.828c9.155,3.361,18.021,8.681,23.176,16.959c1.902,3.054,3.273,6.552,3.21,10.15
						c-0.099,5.656-3.698,10.699-7.946,14.433c-5.224,4.591-11.523,7.728-18.017,10.098c-3.25,1.186-6.577,2.085-9.87,3.133
						c-2.052,0.653-3.788,1.531-5.239,3.143c-4.058,4.51-7.795,8.905-12.759,12.501c-5.247,3.801-11.111,6.749-17.29,8.696
						c-6.17,1.945-12.664,2.89-19.134,2.672C1564.762,740.624,1564.026,740.585,1563.291,740.53z"/>
				</g>
				<g>
					<g>
						<defs>
							<path id="XMLID_57_" d="M1276.738,802.547c0,0-75.024,110.4-57.206,122.942c17.818,12.542,41.367,16.57,44.934,9.641
								c3.567-6.93,49.225-128.397,49.225-128.397L1276.738,802.547z"/>
						</defs>
						<use xlink:href="#XMLID_57_"  style="overflow:visible;fill:#1B3D9E;"/>
						<clipPath id="XMLID_00000124853827241108779370000014326087462740870801_">
							<use xlink:href="#XMLID_57_"  style="overflow:visible;"/>
						</clipPath>
						<path style="clip-path:url(#XMLID_00000124853827241108779370000014326087462740870801_);fill:#1C056D;" d="M1249.113,835.396
							c0,0,64.848,6.465,67.24,1.038c2.392-5.427,8.598-26.156,8.598-26.156s-68.964-19.516-71.439-13.146
							C1251.036,803.503,1249.113,835.396,1249.113,835.396z"/>
					</g>
					<g>
						<g>
							<defs>
								<path id="XMLID_56_" d="M1377.093,801.985c2.206-7.002-0.489-14.618-6.61-18.672
									c-48.617-32.203-252.768-166.687-264.998-162.384c-13.889,4.887-72.597,171.639-61.054,193.8
									c10.245,19.67,261.724,2.777,318.141-1.27C1369.31,812.976,1375.063,808.427,1377.093,801.985L1377.093,801.985z"/>
							</defs>
							<use xlink:href="#XMLID_56_"  style="overflow:visible;fill:#68A9FD;"/>
							<clipPath id="XMLID_00000007405669570752161040000015071857236617351831_">
								<use xlink:href="#XMLID_56_"  style="overflow:visible;"/>
							</clipPath>
							<path style="clip-path:url(#XMLID_00000007405669570752161040000015071857236617351831_);fill:#1B3D9E;" d="
								M1322.806,737.064c0,0,13.976,47.846-25.788,101.428c0,0,94.313-8.817,97.628-19.338
								c3.314-10.521,10.824-20.233,6.102-27.442C1396.027,784.505,1322.806,737.064,1322.806,737.064z"/>
							<path style="opacity:0.24;clip-path:url(#XMLID_00000007405669570752161040000015071857236617351831_);fill:#1C056D;" d="
								M1042.938,762.385c0,0,66.261-13.931,127.208,20.025c60.947,33.956,180.229,16.543,180.229,16.543l-7.836,25.112
								c0,0-243.788,28.823-279.485,20.139C1027.357,835.521,1029.854,783.3,1042.938,762.385"/>
						</g>
						<g>
							<defs>
								
									<ellipse id="XMLID_55_" transform="matrix(0.3005 -0.9538 0.9538 0.3005 67.0913 1528.9543)" cx="1075.898" cy="718.738" rx="102.805" ry="21.967"/>
							</defs>
							<use xlink:href="#XMLID_55_"  style="overflow:visible;fill:#1B3D9E;"/>
							<clipPath id="XMLID_00000132766363502335570000000013685498054502199941_">
								<use xlink:href="#XMLID_55_"  style="overflow:visible;"/>
							</clipPath>
							<path style="clip-path:url(#XMLID_00000132766363502335570000000013685498054502199941_);fill:#FFFFFF;" d="
								M1107.828,714.461c0,0-35.524-24.606-42.885-1.919c-7.361,22.687-6.958,30.665,37.751,34.814L1107.828,714.461z"/>
							<path style="clip-path:url(#XMLID_00000132766363502335570000000013685498054502199941_);fill:#1C056D;" d="
								M1094.591,624.461c0,0,11.251,5.04,7.812,32.354c-2.975,23.628-32.695,144.513-66.604,157.076
								c0,0,6.697,14.619,16.732,13.259c10.035-1.359,42.386-44.854,48.914-72.748c6.527-27.895,30.469-105.685,29.405-118.452
								C1129.786,623.182,1101.466,612.093,1094.591,624.461z"/>
						</g>
					</g>
				</g>
				<path style="fill:#F6AB36;" d="M1689.151,1450.252c0,0-57.134,29.454-64.333,26.894c-7.2-2.56-35.832-16.888-47.471-31.137
					c0,0-4.587,32.16,24.087,38.527c0,0,51.817-1.85,73.119-11.88C1674.552,1472.657,1683.576,1469.277,1689.151,1450.252z"/>
				<g>
					<defs>
						<path id="XMLID_54_" d="M1586.863,1397.896c0,0-53.195,18.537-68.17,29.534c-0.013,0.009-75.734,48.847-64.88,52.917
							c5.974,2.24,27.974-8.385,46.552-18.393c-10.164,24.345-20.286,53.166-15.503,52.103c7.675-1.705,44.686-56.662,44.686-56.662
							s-24.812,63.196-20.866,63.304c3.946,0.108,28.758-20.295,35.465-57.385c0,0-7.497,52.084-2.367,53.267
							c5.13,1.184,21.701-51.307,21.701-51.307s44.8-17.455,45.821-26.378C1610.322,1429.972,1586.863,1397.896,1586.863,1397.896z"
							/>
					</defs>
					<use xlink:href="#XMLID_54_"  style="overflow:visible;fill:#FE8E9C;"/>
					<clipPath id="XMLID_00000108274559768500255310000000503472570780202412_">
						<use xlink:href="#XMLID_54_"  style="overflow:visible;"/>
					</clipPath>
					<path style="clip-path:url(#XMLID_00000108274559768500255310000000503472570780202412_);fill:#E57492;" d="M1522.104,1420.474
						c-0.462,4.155,35.552,40.274,62.772,40.274s29.719-18.609,29.719-18.609l-41.107-53.884
						C1573.488,1388.255,1522.937,1412.975,1522.104,1420.474z"/>
					<path style="clip-path:url(#XMLID_00000108274559768500255310000000503472570780202412_);fill:#E57492;" d="M1453.812,1480.346
						c0,0,49.019-28.605,52.671-30.692c3.652-2.087-9.391,17.216-9.391,17.216S1453.182,1487.039,1453.812,1480.346"/>
				</g>
				<g>
					<path style="fill:#F9C438;" d="M1744.762,1049.822c0,0,151.842,198.195,140.873,250.602
						c-10.969,52.407-241.318,181.598-260.818,176.722c-19.5-4.875-73.848-41.523-68.612-79.263
						c5.236-37.74,170.989-153.523,170.989-153.523s-88.003-57.283-84.221-103.596
						C1646.755,1094.451,1744.762,1049.822,1744.762,1049.822z"/>
					<g>
						<path style="fill:#F6AB36;" d="M1562.166,1384.569c0,0,109.441-104.333,165.028-140.209c0,0-61.509-26.183-84.221-103.596
							c0,0,4.487,100.489,52.432,106.882C1695.405,1247.647,1561.576,1332.907,1562.166,1384.569z"/>
						<path style="fill:#F6AB36;" d="M1727.194,1045.91c0,0-62.916,25.694-79.499,79.08
							C1647.695,1124.99,1638.224,1070.845,1727.194,1045.91z"/>
					</g>
				</g>
				<g>
					<g>
						<defs>
							<path id="XMLID_52_" d="M1301.676,838.602c0,0-45.267,15.139-43.205,19.676c2.062,4.537,35.278,1.272,35.278,1.272
								s-11.689,30.729-11.689,30.729c0,0,14.537,1.046,20.813,2.739c0,0,23.853-38.039,21.791-45.462
								C1322.602,840.131,1301.676,838.602,1301.676,838.602z"/>
						</defs>
						<use xlink:href="#XMLID_52_"  style="overflow:visible;fill:#FE8E9C;"/>
						<clipPath id="XMLID_00000048496982852111816360000004198498196262366106_">
							<use xlink:href="#XMLID_52_"  style="overflow:visible;"/>
						</clipPath>
						<path style="clip-path:url(#XMLID_00000048496982852111816360000004198498196262366106_);fill:#E57492;" d="M1294.237,897.209
							c0,0,13.674-40.178,11.648-39.84c-2.026,0.338-15.522,2.476-15.522,2.476l-12.164,33.171L1294.237,897.209z"/>
						<path style="clip-path:url(#XMLID_00000048496982852111816360000004198498196262366106_);fill:#E57492;" d="M1265.949,861.036
							c0,0,23-3.396,25.648-7.923c2.648-4.527-18.034-6.01-18.034-6.01s-17.989,10.638-15.16,12.39
							C1261.232,861.244,1265.949,861.036,1265.949,861.036z"/>
					</g>
					<path style="fill:#FE8E9C;" d="M1241.498,848.316c1.618-0.871,3.458-1.237,5.295-1.212c7.97,0.109,35.834,0.757,40.306,4.522
						c5.228,4.403-42.021,11.266-47.083,10.242C1235.515,860.958,1234.165,852.263,1241.498,848.316z"/>
					<path style="fill:#FE8E9C;" d="M1279.531,864.834c-4.472-3.766-32.336-4.414-40.306-4.522
						c-1.837-0.025-3.677,0.341-5.295,1.212c-5.782,3.113-6.153,9.164-3.85,12.036c-6.685,4.081-5.314,12.326-0.935,13.212
						c5.062,1.024,47.556-6.837,42.328-11.239c-2.409-2.029-6.85-2.154-16.068-2.776
						C1268.819,870.563,1282.471,867.31,1279.531,864.834z"/>
					<path style="fill:#E57492;" d="M1255.405,872.755c0,0-17.499,3.586-25.324,0.804c0,0,22.381-1.922,31.83-3.89
						c9.449-1.968,17.621-4.836,17.621-4.836s2.136,1.162-3.003,3.092C1271.39,869.857,1255.405,872.755,1255.405,872.755z"/>
				</g>
			</g>
		</g>
	</g>
</g>
<g>
	<path style="fill:#FC476A;" d="M1042.567,590.147l-20.738-138.312c-2.713-18.092-19.578-30.559-37.67-27.847l-289.098,43.346
		c-18.092,2.713-30.559,19.578-27.846,37.67l20.738,138.312c2.713,18.092,19.578,30.559,37.67,27.847l155.899-23.375
		c20.096,29.529,102.823,79.155,96.911,66.488c-4.331-9.277-14.212-54.078-19.34-78.119l55.628-8.341
		C1032.813,625.104,1045.28,608.239,1042.567,590.147z"/>
	<g>
		<path style="fill:#FFFFFF;" d="M693.475,506.292c-1.599,0-2.995-1.176-3.227-2.804c-0.254-1.784,0.987-3.436,2.771-3.69
			l292.116-41.534c1.783-0.253,3.436,0.988,3.69,2.771c0.254,1.784-0.987,3.437-2.771,3.69l-292.116,41.534
			C693.783,506.281,693.628,506.292,693.475,506.292z"/>
		<path style="fill:#FFFFFF;" d="M700.207,547.825c-1.599,0-2.995-1.176-3.227-2.804c-0.254-1.784,0.987-3.437,2.771-3.69
			l292.116-41.534c1.782-0.255,3.436,0.987,3.69,2.771c0.254,1.784-0.987,3.437-2.771,3.69L700.67,547.792
			C700.515,547.815,700.36,547.825,700.207,547.825z"/>
		<path style="fill:#FFFFFF;" d="M706.938,589.358c-1.599,0-2.995-1.176-3.227-2.804c-0.253-1.784,0.987-3.437,2.772-3.69
			L998.6,541.331c1.782-0.251,3.436,0.987,3.69,2.771c0.254,1.784-0.987,3.436-2.771,3.69l-292.117,41.534
			C707.246,589.348,707.091,589.358,706.938,589.358z"/>
		<path style="fill:#FFFFFF;" d="M713.67,630.892c-1.599,0-2.995-1.176-3.227-2.804c-0.254-1.784,0.987-3.436,2.771-3.69
			l292.116-41.534c1.782-0.252,3.436,0.987,3.69,2.772c0.254,1.784-0.987,3.436-2.771,3.69l-292.116,41.534
			C713.978,630.881,713.823,630.892,713.67,630.892z"/>
	</g>
</g>
<path style="fill:#1C056D;" d="M2761.701,1816.175H295.856c-2.06,0-3.729-1.67-3.729-3.729s1.669-3.729,3.729-3.729h2465.845
	c2.06,0,3.729,1.67,3.729,3.729S2763.761,1816.175,2761.701,1816.175z"/>
<g>
	<path style="fill:#D4DFFF;" d="M1143.573,506.552c40.842-10.038,80.658-23.945,118.894-41.461
		c37.201-17.041,73.771-37.238,106.523-61.873c15.267-11.483,29.718-24.175,41.796-39.037c6.133-7.547,11.899-15.557,16.479-24.153
		c3.511-6.59,7.956-15.433,5.678-23.084c-3.752-12.597-22.261-15.203-28.929-3.705c-3.753,6.471-4.474,15.539-4.628,22.86
		c-0.174,8.272,1.06,16.681,3.358,24.621c23.724,81.976,128.214,75.806,194.67,66.331c44.805-6.388,88.824-17.096,132.988-26.792
		c42.505-9.332,85.308-17.551,128.484-23.102c85.328-10.971,173.269-12.082,256.974,10.096c10.073,2.669,20.047,5.681,29.928,8.989
		c6.843,2.291,9.778-8.51,2.974-10.788c-76.512-25.62-158.109-30.803-238.153-24.796c-40.673,3.052-81.12,8.856-121.222,16.23
		c-40.78,7.499-81.099,17.082-121.622,25.807c-41.282,8.889-83.078,16.78-125.362,18.549c-34.544,1.445-71.947-1.835-100.781-22.803
		c-12.84-9.337-22.319-22.878-27.24-37.936c-2.434-7.447-3.827-15.166-3.823-23.011c0.002-3.65,0.262-7.302,0.943-10.89
		c0.479-2.524,0.827-6.821,2.88-8.652c2.564-2.288,7.491-0.565,8.006,2.854c0.486,3.222-1.948,7.712-3.26,10.526
		c-1.869,4.009-4.185,7.817-6.573,11.535c-9.792,15.241-22.41,28.47-36.147,40.206c-28.946,24.732-62.935,44.262-96.801,61.383
		c-35.586,17.991-72.813,32.651-111.09,43.825c-9.25,2.7-18.561,5.181-27.918,7.48
		C1133.61,497.481,1136.57,508.273,1143.573,506.552L1143.573,506.552z"/>
	<path style="fill:#D4DFFF;" d="M2188.554,407.145c7.403,2.948,14.805,5.895,22.208,8.843c1.262,0.503,3.189,0.092,4.311-0.564
		c1.16-0.679,2.267-2.009,2.571-3.343c0.735-3.228-0.989-5.719-3.907-6.881c-7.403-2.948-14.805-5.895-22.208-8.843
		c-1.262-0.503-3.189-0.092-4.311,0.564c-1.16,0.679-2.267,2.01-2.571,3.343C2183.912,403.492,2185.635,405.983,2188.554,407.145
		L2188.554,407.145z"/>
</g>
</svg>
